<?xml version="1.0" encoding="UTF-8"?>
<svg width="40px" height="40px" viewBox="0 0 40 40" version="1.1" xmlns="http://www.w3.org/2000/svg" xmlns:xlink="http://www.w3.org/1999/xlink">
    <defs>
        <rect id="path-1" x="0" y="0" width="40" height="40"></rect>
    </defs>
    <g stroke="none" stroke-width="1" fill="none" fill-rule="evenodd">
        <g transform="translate(-447.000000, -1389.000000)">
            <g transform="translate(0.000000, 837.000000)">
                <g transform="translate(447.000000, 552.000000)">
                    <g opacity="0">
                        <use fill="#D8D8D8" fill-rule="evenodd" xlink:href="#path-1"></use>
                        <rect stroke="#979797" stroke-width="0.63504" x="0.31752" y="0.31752" width="39.36496" height="39.36496"></rect>
                    </g>
                    <path d="M14,31 L16,31 L16,13 L24,13 L24,31 L26,31 L26,7 L34,7 L34,31 L36,31 L36,33 L4,33 L4,31 L6,31 L6,19 L14,19 L14,31 Z M12,31 L12,21 L8,21 L8,31 L12,31 Z M22,31 L22,15 L18,15 L18,31 L22,31 Z M32,31 L32,9 L28,9 L28,31 L32,31 Z" fill="#FAAD14" fill-rule="nonzero"></path>
                </g>
            </g>
        </g>
    </g>
</svg>