<?xml version="1.0" encoding="UTF-8"?>
<svg width="40px" height="40px" viewBox="0 0 40 40" version="1.1" xmlns="http://www.w3.org/2000/svg" xmlns:xlink="http://www.w3.org/1999/xlink">
    <title>B623B78C-1936-472F-A91B-1E8C35694EB2</title>
    <g id="引導步驟" stroke="none" stroke-width="1" fill="none" fill-rule="evenodd">
        <g id="dashboard_購物金到期通知信" transform="translate(-1086.000000, -677.000000)" fill-rule="nonzero">
            <g id="row2" transform="translate(104.000000, 661.000000)">
                <g id="Group-8" transform="translate(966.000000, 0.000000)">
                    <g id="email" transform="translate(16.000000, 16.000000)">
                        <rect id="Rectangle" opacity="0" x="0" y="0" width="40" height="40"></rect>
                        <path d="M31,9 L9,9 C7.4,9 6,10.4 6,12 L6,28.4 C6,30 7.4,31.4 9,31.4 L31,31.4 C32.6,31.4 34,30 34,28.4 L34,12 C34,10.4 32.6,9 31,9 Z M20,21.6 L9.2,11 L30.6,11 L20,21.6 Z M31,29.4 L9,29.4 C8.4,29.4 8,29 8,28.4 L8,12.6 L19.2,23.8 C19.4,24 19.6,24 20,24 C20.2,24 20.6,24 20.8,23.8 L32,12.4 L32,28.4 C32,29 31.6,29.4 31,29.4 Z" id="Shape" fill="#389E0D"></path>
                    </g>
                </g>
            </g>
        </g>
    </g>
</svg>
