<?xml version="1.0" encoding="UTF-8"?>
<svg width="40px" height="40px" viewBox="0 0 40 40" version="1.1" xmlns="http://www.w3.org/2000/svg" xmlns:xlink="http://www.w3.org/1999/xlink">
    <title>0BF00385-497C-469D-BD08-4D4C3F9CE350</title>
    <g id="引導步驟" stroke="none" stroke-width="1" fill="none" fill-rule="evenodd">
        <g id="dashboard_購物金到期通知信" transform="translate(-442.000000, -677.000000)">
            <g id="row2" transform="translate(104.000000, 661.000000)">
                <g id="Group-7" transform="translate(322.000000, 0.000000)">
                    <g id="order" transform="translate(16.000000, 16.000000)">
                        <rect id="Rectangle-41-Copy-4" x="0" y="0" width="40" height="40"></rect>
                        <path d="M24.821334,15.1484375 L24.821334,31.6015625 L8.46703455,31.6015625 L8.46703455,15.1484375 L24.821334,15.1484375 L24.821334,15.1484375 Z M24.821334,13.25 L8.46703455,13.25 C7.42392378,13.25 6.58,14.0990234 6.58,15.1484375 L6.58,31.6015625 C6.58,32.6509766 7.42392378,33.5 8.46703455,33.5 L24.821334,33.5 C25.8644447,33.5 26.7083685,32.6509766 26.7083685,31.6015625 L26.7083685,15.1484375 C26.7083685,14.0990234 25.8644447,13.25 24.821334,13.25 Z M31.5307901,6.5 L16.0073101,6.5 C15.4857547,6.5 15.0637928,6.92451172 15.0637928,7.44921875 C15.0637928,7.97392578 15.4857547,8.3984375 16.0073101,8.3984375 L31.5307901,8.3984375 L31.5307901,24.1132812 C31.5307901,24.6379883 31.952752,25.0625 32.4743074,25.0625 C32.9958628,25.0625 33.4178247,24.6379883 33.4178247,24.1132812 L33.4178247,8.3984375 C33.4178247,7.34902344 32.5739009,6.5 31.5307901,6.5 Z M28.176062,9.875 L10.8782454,9.875 C10.35669,9.875 9.93472808,10.2995117 9.93472808,10.8242188 C9.93472808,11.3489258 10.35669,11.7734375 10.8782454,11.7734375 L28.176062,11.7734375 L28.176062,29.1757812 C28.176062,29.7004883 28.5980239,30.125 29.1195793,30.125 C29.6411347,30.125 30.0630966,29.7004883 30.0630966,29.1757812 L30.0630966,11.7734375 C30.0630966,10.7240234 29.2191728,9.875 28.176062,9.875 Z" id="Shape" fill="#FAAD14" fill-rule="nonzero"></path>
                    </g>
                </g>
            </g>
        </g>
    </g>
</svg>
