<?xml version="1.0" encoding="UTF-8"?>
<svg width="232px" height="221px" viewBox="0 0 232 221" version="1.1" xmlns="http://www.w3.org/2000/svg" xmlns:xlink="http://www.w3.org/1999/xlink">
    <title>AD4398EC-433A-44F1-96B3-EADBCA2710A4</title>
    <defs>
        <path d="M15,0 L217,0 C225.284271,-3.29815278e-15 232,6.71572875 232,15 L232,221 L232,221 L0,221 L0,15 C7.61826213e-16,6.71572875 6.71572875,1.52179594e-15 15,0 Z" id="path-1"></path>
        <path d="M237.316769,442 C370.417394,442 312.316769,66 248.316769,87 C197.633589,103.630418 178.316769,192 114.316769,192 C-30.9884233,192 -69.4314256,253.673793 -69.4314256,365.235313 C-69.4314256,476.796832 104.216144,442 237.316769,442 Z" id="path-3"></path>
        <filter x="-5.8%" y="-6.2%" width="111.6%" height="112.5%" filterUnits="objectBoundingBox" id="filter-4">
            <feOffset dx="0" dy="0" in="SourceAlpha" result="shadowOffsetOuter1"></feOffset>
            <feGaussianBlur stdDeviation="7.5" in="shadowOffsetOuter1" result="shadowBlurOuter1"></feGaussianBlur>
            <feColorMatrix values="0 0 0 0 0   0 0 0 0 0   0 0 0 0 0  0 0 0 0.1 0" type="matrix" in="shadowBlurOuter1"></feColorMatrix>
        </filter>
        <path d="M184.42149,482 C317.522115,482 322.600806,136.509078 256.42149,153 C197.169685,167.764687 182.830488,227.037327 97.4214902,236 C-64.5785098,253 -73.5785098,370.438481 -73.5785098,482 C9.68774043,482 95.6877404,482 184.42149,482 Z" id="path-5"></path>
        <filter x="-6.1%" y="-6.8%" width="112.1%" height="113.7%" filterUnits="objectBoundingBox" id="filter-6">
            <feOffset dx="0" dy="0" in="SourceAlpha" result="shadowOffsetOuter1"></feOffset>
            <feGaussianBlur stdDeviation="7.5" in="shadowOffsetOuter1" result="shadowBlurOuter1"></feGaussianBlur>
            <feColorMatrix values="0 0 0 0 0   0 0 0 0 0   0 0 0 0 0  0 0 0 0.1 0" type="matrix" in="shadowBlurOuter1"></feColorMatrix>
        </filter>
    </defs>
    <g id="選擇方案" stroke="none" stroke-width="1" fill="none" fill-rule="evenodd">
        <g id="選擇方案-Default" transform="translate(-856.000000, -206.000000)">
            <g id="Oval" transform="translate(856.000000, 206.000000)">
                <mask id="mask-2" fill="white">
                    <use xlink:href="#path-1"></use>
                </mask>
                <use id="Mask" fill="#FFE76B" fill-rule="nonzero" xlink:href="#path-1"></use>
                <path d="M52.8148148,78.8148062 L51.2740741,78.8148062 C49.0162213,78.8148062 47.1851852,76.9845559 47.1851852,74.7259972 L47.1851852,73.2520456 C47.1851852,72.610708 46.7043601,72.0353793 46.06376,72.0016247 C45.3804032,71.9663699 44.8148148,72.5094441 44.8148148,73.1852865 L44.8148148,74.7259972 C44.8148148,76.9845559 42.9845288,78.8148062 40.7259259,78.8148062 L39.1851852,78.8148062 C38.531083,78.8148062 38,79.3458788 38,79.9999682 C38,80.6548077 38.531083,81.1851302 39.1851852,81.1851302 L40.7259259,81.1851302 C42.9845288,81.1851302 44.8148148,83.0161305 44.8148148,85.2739392 L44.8148148,86.7478907 C44.8148148,87.3892284 45.2956399,87.9645571 45.93624,87.9983117 C46.6195968,88.0343166 47.1851852,87.4897422 47.1851852,86.8146499 L47.1851852,85.2739392 C47.1851852,83.0161305 49.0162213,81.1851302 51.2740741,81.1851302 L52.8148148,81.1851302 C53.4696671,81.1851302 54,80.6548077 54,79.9999682 C54,79.3458788 53.4696671,78.8148062 52.8148148,78.8148062" id="Fill-59" fill="#FFFFFF" mask="url(#mask-2)"></path>
                <path d="M170.259259,50.2592538 L169.296296,50.2592538 C167.885138,50.2592538 166.740741,49.1153475 166.740741,47.7037482 L166.740741,46.7825285 C166.740741,46.3816925 166.440225,46.0221121 166.03985,46.0010154 C165.612752,45.9789812 165.259259,46.3184026 165.259259,46.7408041 L165.259259,47.7037482 C165.259259,49.1153475 164.115331,50.2592538 162.703704,50.2592538 L161.740741,50.2592538 C161.331927,50.2592538 161,50.5911742 161,50.9999801 C161,51.4092548 161.331927,51.7407064 161.740741,51.7407064 L162.703704,51.7407064 C164.115331,51.7407064 165.259259,52.8850816 165.259259,54.296212 L165.259259,55.2174317 C165.259259,55.6182678 165.559775,55.9778482 165.96015,55.9989448 C166.387248,56.0214479 166.740741,55.6810888 166.740741,55.2591562 L166.740741,54.296212 C166.740741,52.8850816 167.885138,51.7407064 169.296296,51.7407064 L170.259259,51.7407064 C170.668542,51.7407064 171,51.4092548 171,50.9999801 C171,50.5911742 170.668542,50.2592538 170.259259,50.2592538" id="Fill-59-Copy" fill="#FFFFFF" mask="url(#mask-2)"></path>
                <path d="M194.111111,169.111105 L192.955556,169.111105 C191.262166,169.111105 189.888889,167.738417 189.888889,166.044498 L189.888889,164.939034 C189.888889,164.458031 189.52827,164.026534 189.04782,164.001219 C188.535302,163.974777 188.111111,164.382083 188.111111,164.888965 L188.111111,166.044498 C188.111111,167.738417 186.738397,169.111105 185.044444,169.111105 L183.888889,169.111105 C183.398312,169.111105 183,169.509409 183,169.999976 C183,170.491106 183.398312,170.888848 183.888889,170.888848 L185.044444,170.888848 C186.738397,170.888848 188.111111,172.262098 188.111111,173.955454 L188.111111,175.060918 C188.111111,175.541921 188.47173,175.973418 188.95218,175.998734 C189.464698,176.025737 189.888889,175.617307 189.888889,175.110987 L189.888889,173.955454 C189.888889,172.262098 191.262166,170.888848 192.955556,170.888848 L194.111111,170.888848 C194.60225,170.888848 195,170.491106 195,169.999976 C195,169.509409 194.60225,169.111105 194.111111,169.111105" id="Fill-59-Copy-2" fill="#FFFFFF" mask="url(#mask-2)"></path>
                <path d="M56,0 L176,0 L176,10 C176,19.9411255 167.941125,28 158,28 L74,28 C64.0588745,28 56,19.9411255 56,10 L56,0 L56,0 Z" id="BG-Copy" fill="#FFD52A" mask="url(#mask-2)"></path>
                <g mask="url(#mask-2)" transform="translate(124.158384, 266.643716) scale(-1, 1) translate(-124.158384, -266.643716) ">
                    <use fill="black" fill-opacity="1" filter="url(#filter-4)" xlink:href="#path-3"></use>
                    <use fill="#FFF496" fill-rule="evenodd" xlink:href="#path-3"></use>
                </g>
                <g id="Oval-Copy" mask="url(#mask-2)" transform="translate(112.210745, 317.213942) scale(-1, 1) translate(-112.210745, -317.213942) ">
                    <use fill="black" fill-opacity="1" filter="url(#filter-6)" xlink:href="#path-5"></use>
                    <use fill="#FFE76B" fill-rule="evenodd" xlink:href="#path-5"></use>
                </g>
            </g>
        </g>
    </g>
</svg>