<svg id="圖庫一" xmlns="http://www.w3.org/2000/svg" viewBox="0 0 400 400"><defs><style>.cls-1{fill:#f5f5f5;}.cls-2{fill:#ededed;}.cls-3,.cls-7{fill:#dbdbdb;}.cls-4{fill:#bfbfbf;}.cls-5,.cls-6,.cls-8{fill:none;}.cls-5,.cls-6,.cls-7,.cls-8{stroke:#999;}.cls-5,.cls-6,.cls-7{stroke-linecap:round;stroke-linejoin:round;}.cls-6{stroke-dasharray:3 5;}.cls-8{stroke-miterlimit:10;}</style></defs><title>product1</title><rect id="背景" class="cls-1" width="400" height="400"/><g id="衣服"><path class="cls-2" d="M315.53,344.83c1.66,12.53,2.12,20.81.86,22.61-3.34,4.78-47.76,14.47-50,10-.88-1.75-2.39-9.3-4-18.31h.19c15.73-.79,52-11.23,52.53-14.23Z"/><path class="cls-3" d="M315.53,344.83l-.45.06c-.5,3-36.8,13.44-52.53,14.23h-.19c-2.11-11.59-4.46-25.57-6-32.69l.17-.5c.65.22,1.21.43,1.69.62a4.12,4.12,0,0,0,4-.53,6.43,6.43,0,0,0,2.54-4.57c1.3-14.71-3.42-67.58-3.42-98,0-32-3-91-3-91l5-20,.24-.21a22.24,22.24,0,0,1,4.76,7.21C275.77,143.21,308,287.91,315.53,344.83Z"/><path class="cls-3" d="M261.39,223.44c0,30.44,4.72,83.31,3.42,98a6.43,6.43,0,0,1-2.54,4.57,4.12,4.12,0,0,1-4,.53c-.48-.19-1-.4-1.69-.62-10.7-3.72-43.59-11.5-61.17-11.5-18.93,0-43.84,7.35-54,10.95-1.31.46-2.37.86-3.15,1.17a4.11,4.11,0,0,1-4-.53,6.43,6.43,0,0,1-2.54-4.57c-1.3-14.71.56-67.6,1.73-98,1.31-34,0-90,0-90l-7-19.91c6.19-8,17.69-15,26.23-18.78l.24.55c5.88,19.5,23.33,33.64,44,33.64s38.27-14.31,44-34l.06-.1c7.52,4.24,16.95,11.08,22.68,17.39l-.24.21-5,20S261.39,191.44,261.39,223.44Z"/><path class="cls-2" d="M241,94.84l-.06.1c-5.78,19.69-23.31,34-44,34s-38.07-14.14-44-33.64l-.24-.55c5.32-2.36,9.48-3.44,10.51-2.69a.55.55,0,0,1,.23.38l4,8c4,7,15.3,16,30,16,22-2,30.94-19.72,32-25a.79.79,0,0,1,.1-.27h0C230.32,89.78,235.05,91.51,241,94.84Z"/><path class="cls-4" d="M229.49,91.17a.79.79,0,0,0-.1.27c-1.06,5.28-10,23-32,25-14.7,0-26-9-30-16l-4-8a.55.55,0,0,0-.23-.38l.44-.08c1.72.43,20.45,5,34.07,5C212.16,96.94,229,91.34,229.49,91.17Z"/><path class="cls-3" d="M141.37,325.39l0,.05c-2,5.72-5.92,19.45-9.42,31.39l-.08,0c-.86,1.4-51.67-8.75-52.33-12.81h0c6.64-36.47,39.37-215.65,43.83-225.55a24.35,24.35,0,0,1,3-4.91l7,19.91s1.31,56,0,90c-1.17,30.42-3,83.31-1.73,98A6.43,6.43,0,0,0,134.2,326a4.11,4.11,0,0,0,4,.53C139,326.25,140.06,325.85,141.37,325.39Z"/><path class="cls-2" d="M131.89,356.81l.08,0c-3,10.36-5.75,19.36-6.58,20.61-2,3-24-2-24-2l-20.8-5.39a6.64,6.64,0,0,1-4.81-7.87l2.61-11.74s.42-2.3,1.17-6.44C80.22,348.06,131,358.21,131.89,356.81Z"/><path class="cls-5" d="M229.5,91.16c.82-1.38,5.55.35,11.45,3.68,7.52,4.24,16.95,11.08,22.68,17.39a22.24,22.24,0,0,1,4.76,7.21c7.38,23.77,39.61,168.47,47.14,225.39,1.66,12.53,2.12,20.81.86,22.61-3.34,4.78-47.76,14.47-50,10-.88-1.75-2.39-9.3-4-18.31-2.11-11.59-4.46-25.57-6-32.69"/><path class="cls-5" d="M79.56,344c6.64-36.47,39.37-215.65,43.83-225.55a24.35,24.35,0,0,1,3-4.91c6.19-8,17.69-15,26.23-18.78,5.32-2.36,9.48-3.44,10.51-2.69a.55.55,0,0,1,.23.38l4,8c4,7,15.3,16,30,16,22-2,30.94-19.72,32-25a.79.79,0,0,1,.1-.27"/><path class="cls-5" d="M141.39,325.44c-2,5.72-5.92,19.45-9.42,31.39-3,10.36-5.75,19.36-6.58,20.61-2,3-24-2-24-2l-20.8-5.39a6.64,6.64,0,0,1-4.81-7.87l2.61-11.74s.42-2.3,1.17-6.44"/><path class="cls-5" d="M126.39,113.44l0,.09,7,19.91s1.31,56,0,90c-1.17,30.42-3,83.31-1.73,98A6.43,6.43,0,0,0,134.2,326a4.11,4.11,0,0,0,4,.53c.78-.31,1.84-.71,3.15-1.17,10.18-3.6,35.09-10.95,54-10.95,17.58,0,50.47,7.78,61.17,11.5.65.22,1.21.43,1.69.62a4.12,4.12,0,0,0,4-.53,6.43,6.43,0,0,0,2.54-4.57c1.3-14.71-3.42-67.58-3.42-98,0-32-3-91-3-91l5-20"/><path class="cls-5" d="M163.47,92l.13,0c1.72.43,20.45,5,34.07,5,14.49,0,31.3-5.6,31.82-5.77h0"/><path class="cls-5" d="M240.89,94.94c-5.78,19.69-23.31,34-44,34s-38.07-14.14-44-33.64"/><path class="cls-5" d="M79.55,343.89a.34.34,0,0,0,0,.1h0c.66,4.06,51.47,14.21,52.33,12.81"/><path class="cls-5" d="M315.08,344.89c-.5,3-36.8,13.44-52.53,14.23"/><line class="cls-5" x1="83.89" y1="349.94" x2="79.89" y2="364.94"/><line class="cls-5" x1="88.89" y1="351.94" x2="84.89" y2="366.94"/><line class="cls-5" x1="93.89" y1="353.94" x2="89.89" y2="368.94"/><line class="cls-5" x1="99.89" y1="354.94" x2="95.89" y2="369.94"/><line class="cls-5" x1="104.89" y1="355.94" x2="100.89" y2="370.94"/><line class="cls-5" x1="109.89" y1="356.94" x2="105.89" y2="371.94"/><line class="cls-5" x1="114.89" y1="357.94" x2="110.89" y2="372.94"/><line class="cls-5" x1="119.89" y1="358.94" x2="115.89" y2="373.94"/><line class="cls-5" x1="124.89" y1="359.94" x2="120.89" y2="374.94"/><line class="cls-5" x1="310.39" y1="351.44" x2="313.3" y2="365.53"/><line class="cls-5" x1="304.58" y1="353.61" x2="308.28" y2="367.49"/><line class="cls-5" x1="299.57" y1="355.56" x2="303.27" y2="369.44"/><line class="cls-5" x1="293.58" y1="356.6" x2="297.28" y2="370.48"/><line class="cls-5" x1="288.59" y1="357.62" x2="292.29" y2="371.5"/><line class="cls-5" x1="283.59" y1="358.65" x2="287.29" y2="372.53"/><line class="cls-5" x1="278.6" y1="359.67" x2="282.3" y2="373.55"/><line class="cls-5" x1="273.61" y1="360.69" x2="277.31" y2="374.57"/><line class="cls-5" x1="268.61" y1="361.72" x2="272.31" y2="375.6"/><path class="cls-6" d="M250.89,100.94c-7.15,24.32-28.88,42-54.56,42s-47.15-17.47-54.44-41.56"/></g><g id="衣架"><path class="cls-7" d="M163.22,92.06c3.09-1.43,13.91-6.79,18.17-13.62,5.22-8.35,15-8,15-8h.5s9.78-.35,15,8c5,8,17.5,13,17.5,13a39,39,0,0,1-4,9s-13.5-13-28.5-13h-.5c-15,0-29,13-29,13Z"/><path class="cls-8" d="M186.89,29.69a9.25,9.25,0,1,1,9.25,9.25l.25,31.5"/></g></svg>