<svg id="圖庫一" xmlns="http://www.w3.org/2000/svg" xmlns:xlink="http://www.w3.org/1999/xlink" viewBox="0 0 400 400"><defs><style>.cls-1,.cls-10,.cls-13,.cls-9{fill:none;}.cls-2{fill:#f5f5f5;}.cls-3{clip-path:url(#clip-path);}.cls-4,.cls-5{fill:#bfbfbf;}.cls-10,.cls-13,.cls-15,.cls-4,.cls-5,.cls-6{stroke:#999;}.cls-10,.cls-13,.cls-15,.cls-4,.cls-6,.cls-9{stroke-linecap:round;stroke-linejoin:round;}.cls-5{stroke-miterlimit:10;}.cls-16,.cls-6{fill:#fff;}.cls-7{fill:#898989;}.cls-8{fill:#cecece;}.cls-9{stroke:#898989;}.cls-11{fill:#dbdbdb;}.cls-12,.cls-15{fill:#ededed;}.cls-13{stroke-dasharray:3 5;}.cls-14{fill:#999;}</style><clipPath id="clip-path"><rect class="cls-1" x="73.5" y="324" width="285" height="75"/></clipPath></defs><title>product2</title><rect id="背景" class="cls-2" width="400" height="400"/><g id="裙子"><g class="cls-3"><g id="裙子-2" data-name="裙子"><path class="cls-4" d="M270.25,336.16c-3.55-4.55-7.1-27.28-7.1-27.28H140.09s-1.18,16.67-7.1,27.28c-3,3.79-27.81,202.33-29,279.63H298.06c-2.84-84.75-11.84-177.33-27.81-279.63-5.92,0-123.65-.76-136.67-.76"/><line class="cls-4" x1="140.68" y1="336.92" x2="138.31" y2="353.59"/><path class="cls-4" d="M147.36,335.45S136,403.6,136,414.21"/><path class="cls-4" d="M154.88,336.92s-5.92,37.89-7.1,48.49"/><path class="cls-4" d="M162,349c-1.89-1-20.73,134-20.12,192.48"/><line class="cls-4" x1="170.26" y1="336.92" x2="169.08" y2="353.59"/><path class="cls-4" d="M176.18,336.92S162,502.12,164.35,511.21"/><line class="cls-4" x1="185.86" y1="335.67" x2="184.46" y2="353.59"/><path class="cls-4" d="M196.29,336.92s-5.91,92.45-5.91,103.06"/><path class="cls-4" d="M208.13,336.92s4.73,51.53,3.55,69.71"/><path class="cls-4" d="M218.78,336.92s3.55,39.4,3.55,47"/><path class="cls-4" d="M228,335.92s6.14,67.68,5,87.39"/><path class="cls-4" d="M235.93,336a78.74,78.74,0,0,1,1.78,17.62"/><path class="cls-4" d="M250.73,336.92s2.36,19.7,3.54,30.31"/><path class="cls-4" d="M257.82,336.92s18.94,147,17.75,160.65"/></g></g></g><g id="頭"><path id="頭髮" class="cls-5" d="M237.34,36.5s5.85-22.49-30-21c-38.62-2.78-46.15,70.59-51,82a20.57,20.57,0,0,0,2.3,20.22s23.79,34.19,49.7,14.78C225.34,101.5,261.34,53.5,237.34,36.5Z"/><path id="脖子" class="cls-6" d="M209.34,104.5s-9,14,1,18,14,3,14,3-14,19-29,19c-22,0-33-23-33-23s12.08-7,13.54-29"/><path id="臉" class="cls-6" d="M229.34,62.5s-8-14-2-25c-22,7-34,10-40,11l-2.35.43a45.9,45.9,0,0,0-5.84,11.75c-6.83,20.36-10.72,37,11.23,44.78,20,7,29.12-8.6,36-29a55.39,55.39,0,0,0,3-14"/><g id="嘴"><path class="cls-7" d="M190.32,90.57a14.41,14.41,0,0,0,6.75,2.37c.69,0,.67-.72,0-.74A12.57,12.57,0,0,1,190.8,90c-.55-.41-1,.17-.48.57Z"/><path class="cls-8" d="M198.54,89.18A3.79,3.79,0,0,0,197.16,88a8.22,8.22,0,0,0-5.38-1.2,2.3,2.3,0,0,0-1.23.37,1.21,1.21,0,0,0-.34.57h0l-.07.21a1.28,1.28,0,0,0,.2,1,2.94,2.94,0,0,0,.84.75,6.71,6.71,0,0,0,1.9.89,12.43,12.43,0,0,0,2,.59,6,6,0,0,0,1.95.34C198.5,91.23,199.15,90.19,198.54,89.18Z"/><path class="cls-7" d="M187.59,87a12.7,12.7,0,0,0,3.68,1.29c1,.26,2.13.22,3.15.47A14.72,14.72,0,0,1,197,90a17.1,17.1,0,0,0,3.68,1.29c.65.12.64-.62,0-.74a12.38,12.38,0,0,1-3.53-1.35A11.89,11.89,0,0,0,194.81,88c-.9-.2-1.73-.18-2.62-.39a18.13,18.13,0,0,1-3.84-1.24c-.86-.3-1.34.27-.76.58Z"/></g><path id="鼻子" class="cls-9" d="M196.05,69.4s1.6,6.29-1.93,10.66c-1.58,2,3.94,3.41,3.94,3.41"/><path id="瀏海" class="cls-10" d="M176.34,46.5c3.1,9,51-9,51-9s-8,7,6,32"/></g><g id="衣服"><path class="cls-11" d="M247.93,120l-5-4.09c-12.89-10.6-25.16-21.81-32.42-35-2.25-3.84-13.56-5.86-18-7.57-3.77-1.45-.61-6.15,2.37-10.24.91-1.26,1.8-2.46,2.47-3.49l5.88-9.06c3.4-5.24,6.34-8.27,12-5.63l19.89,11.37c26.9,13.45,81,41.58,85,50.91,10.46,26.94-23.71,52.39-40.17,76.71a12.64,12.64,0,0,0-2.18,7.09l-1.95,126.22c0,6-4.23,13.14-10.11,14.31l-49.41,2.3c-30,1.52-84.92,7.43-89.18-4.63-6-14.17-8.16-106.46-14.39-127.2-9.46-26.54-9.66-16.25-24.25-38.57-6.36-9.73-7.17-18.41-8.14-32.94a9.8,9.8,0,0,1,1.26-5.48C92.36,106,103.74,98.92,120.5,84.74c11.4-9.65,21.78-18.94,38.83-32.2,4.38-4.11,9.27-15.73,14.21-12.32l19,14.21c4,2.75,3.3,5.23,1.09,8.29-1.07,1.49-2.5,3.11-3.93,5l-9.28,8.74A13.24,13.24,0,0,0,178,81.37c-2.58,10.53-7.95,26.5-16,40.11a89.72,89.72,0,0,1-6.66,9.81,60.09,60.09,0,0,1-6.26,6.87l.88.44c10.57,17.32,29.89,28,50.76,25.91,24-2.4,42.62-20.95,47-44.33Z"/><path class="cls-11" d="M239.07,119.39l-.53-1.42a41.14,41.14,0,0,0,4.05-1.74l.32-.3,5,4.09-.13.16c-4.41,23.38-23,41.93-47,44.33-20.87,2.1-40.19-8.59-50.76-25.91l-.88-.44a60.09,60.09,0,0,0,6.26-6.87c8.2,16,25.11,26.1,43.37,24.12C218,153.33,235.26,138.12,239.07,119.39Z"/><path class="cls-12" d="M238.54,118l.53,1.42c-3.81,18.73-21.08,33.94-40.31,36-18.26,2-35.17-8.12-43.37-24.12a89.72,89.72,0,0,0,6.66-9.81l5.19,8c4.31,5.73,14.49,15.16,28.42,15.16,20.84-1.9,27-20.8,29.88-22.69C227.86,120.37,232.71,120.08,238.54,118Z"/><path class="cls-10" d="M194.86,63.14c.91-1.26,1.8-2.46,2.47-3.49l5.88-9.06c3.4-5.24,6.34-8.27,12-5.63l19.89,11.37c26.9,13.45,81,41.58,85,50.91,10.46,26.94-23.71,52.39-40.17,76.71a12.64,12.64,0,0,0-2.18,7.09l-1.95,126.22c0,6-4.23,13.14-10.11,14.31l-49.41,2.3c-30,1.52-84.92,7.43-89.18-4.63-6-14.17-8.16-106.46-14.39-127.2-9.46-26.54-9.66-16.25-24.25-38.57-6.36-9.73-7.17-18.41-8.14-32.94a9.8,9.8,0,0,1,1.26-5.48C92.36,106,103.74,98.92,120.5,84.74c11.4-9.65,21.78-18.94,38.83-32.2,4.38-4.11,9.27-15.73,14.21-12.32l19,14.21c4,2.75,3.3,5.23,1.09,8.29-1.07,1.49-2.5,3.11-3.93,5l-9.28,8.74A13.24,13.24,0,0,0,178,81.37c-2.58,10.53-7.95,26.5-16,40.11l5.19,8c4.31,5.73,14.49,15.16,28.42,15.16,20.84-1.9,27-20.8,29.88-22.69,2.32-1.55,7.17-1.84,13-4a41.14,41.14,0,0,0,4.05-1.74l.32-.3c-12.89-10.6-25.16-21.81-32.42-35-2.25-3.84-13.56-5.86-18-7.57C188.72,71.93,191.88,67.23,194.86,63.14Z"/><path class="cls-13" d="M247.8,120.18c-4.41,23.38-23,41.93-47,44.33-20.87,2.1-40.19-8.59-50.76-25.91"/><path class="cls-10" d="M239.24,118.5c-.05.3-.11.6-.17.89-3.81,18.73-21.08,33.94-40.31,36-18.26,2-35.17-8.12-43.37-24.12l-.15-.29"/><path class="cls-10" d="M282.48,166.21c2.84-4.74-1-16.11-1-16.11-8.69-10.42-21.17-20.06-33.6-30.08l-5-4.09"/><path class="cls-10" d="M162.05,121.48a89.72,89.72,0,0,1-6.66,9.81,60.09,60.09,0,0,1-6.26,6.87,40.47,40.47,0,0,1-8.13,6c-21.16,11.48-19.28,21.82-17.93,31.39"/><path class="cls-10" d="M121.24,194.5s5-5,2-17,14,15,14,15"/><path class="cls-14" d="M152.38,104.26c-3.78,7-10.48,12.06-17.36,15.74a62.28,62.28,0,0,1-22.14,7.18,24.32,24.32,0,0,1-9.54-.42.5.5,0,0,0-.26,1,23.65,23.65,0,0,0,8.59.58,54.65,54.65,0,0,0,11-2.15,62.65,62.65,0,0,0,22.06-11.37,34.56,34.56,0,0,0,8.56-10c.3-.57-.56-1.08-.87-.51Z"/><path class="cls-14" d="M252.4,175.71a103.46,103.46,0,0,1-1.84,17.81c-1.21,6.76-2.83,13.45-4.68,20.06s-4,13.29-6.34,19.82c-2.09,5.78-4.34,11.5-6.88,17.1a85,85,0,0,1-6.2,11.8c-.22.33-.44.67-.68,1-.37.53.5,1,.87.51a72,72,0,0,0,6.09-11.09c2.55-5.46,4.81-11.05,6.9-16.7q3.6-9.72,6.5-19.7c2-6.7,3.65-13.47,5-20.33a115.5,115.5,0,0,0,2.25-18.25c0-.68,0-1.35,0-2a.5.5,0,0,0-1,0Z"/><path class="cls-14" d="M237.21,315.36a53,53,0,0,0,12.9-7.05,23.21,23.21,0,0,0,7.25-8.81,17.76,17.76,0,0,0,1.4-5.74c.05-.64-.95-.64-1,0-.58,7.82-6.71,13.33-13.13,17A62.08,62.08,0,0,1,237,314.4c-.59.24-.33,1.21.26,1Z"/><g id="左袖口"><path class="cls-15" d="M192,72.76c-1.89-1-1.46-3.87-.9-5,1.51-3,6.72-10,9.59-14,5.47-7.61,5.14-11.16,8.3-10.68,5.34.82,14.54,6.79,18.14,8.41a2.53,2.53,0,0,1,1.48,2.57c-.22,2.18-1.05,4.37-4.07,11.12a33.54,33.54,0,0,1-4.88,7.32,93.53,93.53,0,0,1-8.81,9c-.82.73-1.13-.59-2.61-2.14C206.34,77.42,192,72.76,192,72.76Z"/><path class="cls-15" d="M194,69.94c5.67,1.89,13.23,4.72,19,6.48"/><path class="cls-15" d="M196.88,66.16c5.67,2.83,13,5.12,18.4,7.49"/><path class="cls-15" d="M200.66,63.32C207.27,66.16,211,66.89,216.9,70"/><line class="cls-15" x1="202.84" y1="58.93" x2="218.9" y2="66.49"/><path class="cls-15" d="M204.74,54.87l16.83,8.84"/><path class="cls-15" d="M206.2,52a74.88,74.88,0,0,1,17,8.08"/><path class="cls-15" d="M207.66,49.08A53.29,53.29,0,0,1,224,56.29"/><path class="cls-15" d="M209.12,46.19c5.69,1.36,10.88,4.23,16.11,7.68"/></g><g id="手"><path class="cls-16" d="M204.56,44.49s3.85,2.22.33,4.92c-.88.67-2,1.66-3.42,2.69l-.15-.21s-5.67-.07-4.95-5.86l.08-.3c2,.46,5.2-.13,7.74-1.43Z"/><path class="cls-16" d="M202.14,37.73c.64.08,8.13,1.14,2.56,6.28l-.51.29c-2.54,1.3-5.74,1.89-7.74,1.43s-2.72-1.79-.94-4.38l-.09-.33a6.67,6.67,0,0,0,.86-.31,15.47,15.47,0,0,0,5.85-3Z"/><path class="cls-16" d="M177.45,45.63c-.29-1.11-.48-2-.62-2.61A9.12,9.12,0,0,0,177.45,45.63Zm13.08-9.73.51.22c.35,5.25,2.6,5.42,4.38,4.9l.09.33c-1.78,2.59-1,4,.94,4.38l-.08.3c-.72,5.79,4.95,5.86,4.95,5.86l.15.21c-4.19,3.12-10.47,6.58-17.25,2.38a18.22,18.22,0,0,1-3.52,2.7l-9.51-13a7.53,7.53,0,0,0,5.37-2.83s0,.48.26,1.58c-.31-3.14.57-8.44,8.28-12.65l1.8-.11c1.94-.12,3.73-.25,3.73-.25l3.26-1.17a1.64,1.64,0,0,1,1.7.38c.58.59,1.45,1.46,2.3,2.38,1.48,1.58,2.94,3.3,3,3.91.08,1.23-4,4.59-8.11-1.32A9.77,9.77,0,0,0,190.53,35.9Z"/><path class="cls-16" d="M202.13,37.72a15.47,15.47,0,0,1-5.85,3,6.67,6.67,0,0,1-.86.31c-1.78.52-4,.35-4.38-4.9l-.51-.22a9.77,9.77,0,0,1,2.24-1.75c4.09,5.91,8.19,2.55,8.11,1.32,0-.61-1.51-2.33-3-3.91l.24-.23.05,0,.41-.37,0,0a4.64,4.64,0,0,1,2.5-1c2.75-.18,3.36,4.1,3.36,4.1a6.16,6.16,0,0,1-2.35,3.73Z"/><path class="cls-16" d="M200.89,28.1a.91.91,0,0,1-.25.94l-2,1.84,0,0c-.19.16-.33.29-.41.37l-.05,0-.24.23c-.85-.92-1.72-1.79-2.3-2.38a1.64,1.64,0,0,0-1.7-.38L190.63,30s-1.79.13-3.73.25h0S192.12,24.31,197,24C199.44,24.31,200.53,26.94,200.89,28.1Z"/><path class="cls-16" d="M198.59,30.91l-.41.37C198.26,31.2,198.4,31.07,198.59,30.91Z"/><path class="cls-16" d="M176.83,43c.14.65.33,1.5.62,2.61A9.12,9.12,0,0,1,176.83,43Z"/><path class="cls-10" d="M202.13,37.72a15.47,15.47,0,0,1-5.85,3,6.67,6.67,0,0,1-.86.31c-1.78.52-4,.35-4.38-4.9"/><path class="cls-10" d="M198.63,30.88a4.64,4.64,0,0,1,2.5-1c2.75-.18,3.36,4.1,3.36,4.1a6.16,6.16,0,0,1-2.35,3.73"/><path class="cls-10" d="M198.13,31.33l.05,0c.08-.08.22-.21.41-.37"/><line class="cls-10" x1="198.59" y1="30.91" x2="198.18" y2="31.28"/><line class="cls-10" x1="198.59" y1="30.91" x2="198.63" y2="30.88"/><path class="cls-10" d="M186.9,30.21S192.12,24.31,197,24c2.4.32,3.49,3,3.85,4.11a.91.91,0,0,1-.25.94l-2,1.84"/><path class="cls-10" d="M176.82,43c-.31-3.14.57-8.44,8.28-12.65l1.8-.11c1.94-.12,3.73-.25,3.73-.25l3.26-1.17a1.64,1.64,0,0,1,1.7.38c.58.59,1.45,1.46,2.3,2.38,1.48,1.58,2.94,3.3,3,3.91.08,1.23-4,4.59-8.11-1.32a9.77,9.77,0,0,0-2.24,1.75,14.83,14.83,0,0,1-1.77,1.39,3.6,3.6,0,0,1-3.79.46"/><path class="cls-10" d="M177.46,45.66a0,0,0,0,0,0,0,9.12,9.12,0,0,1-.62-2.61"/><path class="cls-10" d="M176.83,43c.14.65.33,1.5.62,2.61"/><path class="cls-10" d="M176.83,43a.08.08,0,0,0,0,0"/><path class="cls-10" d="M204.56,44.49s3.85,2.22.33,4.92c-.88.67-2,1.66-3.42,2.69-4.19,3.12-10.47,6.58-17.25,2.38a18.22,18.22,0,0,1-3.52,2.7l-9.51-13a7.53,7.53,0,0,0,5.37-2.83s0,.48.26,1.58"/><path class="cls-10" d="M201.32,51.89s-5.67-.07-4.95-5.86"/><path class="cls-10" d="M202.09,37.72h0c.64.08,8.13,1.14,2.56,6.28l-.51.29c-2.54,1.3-5.74,1.89-7.74,1.43s-2.72-1.79-.94-4.38"/><path class="cls-10" d="M188.76,37.29s3.88,4.28-5.56,11.08"/></g><g id="右袖口"><path class="cls-15" d="M169.32,39.92a2.49,2.49,0,0,1,3.37-.25c2.78,2.22,7.7,7.13,11.44,10.15C192,56.12,196.33,57,195,60.33c-2.3,5.58-9,14.68-11.71,18.22a2.93,2.93,0,0,1-3.15,1.07c-2.27-.67-6.52-2.42-12.94-7-6.1-4.37-10.44-11.36-12.24-14.61a2.72,2.72,0,0,1,.39-3.16Z"/><path class="cls-15" d="M171.94,42.6a134.86,134.86,0,0,0-14.71,15"/><path class="cls-15" d="M174.48,45.64a88.85,88.85,0,0,0-14.71,15"/><path class="cls-15" d="M177,48.68c-5.06,4.87-8.56,8.87-13.57,14.53"/><line class="cls-15" x1="179.9" y1="50.9" x2="165.99" y2="66.25"/><path class="cls-15" d="M183.58,53.46,169.33,69.64"/><path class="cls-15" d="M186.46,55.68A86.09,86.09,0,0,1,173,72.21"/><path class="cls-15" d="M189.34,57.89A60.49,60.49,0,0,1,177,74"/><path class="cls-15" d="M192.22,60.11a58.21,58.21,0,0,1-12.3,16"/></g></g><path id="髮尾" class="cls-4" d="M231.09,106.24c-3,14,2.16,12.52-6.7,29,0,0-9.56,16.4,1.07,32.8,2.71,10.16-2.71,14.63-5.76,15.6-5.38,2.37-14.32,10-7,21.61-13.25-15.95-5.18-28.72-5.18-28.72,4.64-18.46-11.19-16.11-1.69-32.39.73-1.25,14.54-34.65,12.54-51.65Z"/></svg>