<svg id="圖庫一" xmlns="http://www.w3.org/2000/svg" xmlns:xlink="http://www.w3.org/1999/xlink" viewBox="0 0 400 400"><defs><style>.cls-1,.cls-10,.cls-6{fill:none;}.cls-2{clip-path:url(#clip-path);}.cls-3{fill:#f5f5f5;}.cls-4,.cls-8{fill:#dbdbdb;}.cls-10,.cls-11,.cls-4,.cls-5,.cls-6,.cls-7{stroke:#999;stroke-linecap:round;stroke-linejoin:round;}.cls-5,.cls-9{fill:#ededed;}.cls-7{fill:#fff;}.cls-10{stroke-dasharray:3 5;}.cls-11{fill:#bfbfbf;}</style><clipPath id="clip-path"><rect id="背景" class="cls-1" width="400" height="400"/></clipPath></defs><title>product4</title><g class="cls-2"><rect id="背景-2" data-name="背景" class="cls-3" x="0.5" width="400" height="400"/><g id="左手"><path id="袖子" class="cls-4" d="M303.26,227.3s0,111.28-12,141.36c-3,13-7,16-4,33.08H150.88l72.18-198.5Z"/><g id="袖口"><path class="cls-5" d="M309.6,229a7.84,7.84,0,0,1-9,5.06c-10.5-2.28-30.31-8.92-44.47-12-29.63-6.55-42.89-3.29-43.24-13.84-.61-17.85,6.66-50.83,9.71-63.78a9.18,9.18,0,0,1,7.39-7c7.15-1.19,21.12-2.06,44.72,1.81,22.41,3.68,43.2,16.62,52.25,22.92a7.7,7.7,0,0,1,2.89,8.9Z"/><path class="cls-5" d="M299,225.28a405.92,405.92,0,0,0,22-59.15"/><path class="cls-5" d="M288.12,220.5c10-19.95,17.5-39.62,22.06-59.15"/><path class="cls-5" d="M277.27,215.72c7.93-19.56,12.66-34.79,19.48-56.39"/><line class="cls-5" x1="266.5" y1="213.58" x2="285.89" y2="154.55"/><path class="cls-5" d="M253.07,211.56l19.3-61.66"/><path class="cls-5" d="M242.3,209.42a255.71,255.71,0,0,1,16.63-61.54"/><path class="cls-5" d="M231.54,207.28c1.55-20.55,5.93-40.27,14.05-58.78"/><path class="cls-5" d="M220.77,205.14q1.48-29.13,14-58.78"/></g><path class="cls-6" d="M250.65,307.92s-1.63,8.16-4.52,19.24c-5.32,20.34-14.92,50.53-26.6,58.13"/><path class="cls-6" d="M281.2,333.57c4,8-19-33.08-9-58.15"/><g id="左手三指"><path id="指甲" class="cls-4" d="M306.87,35c1.92-5.35,2.78-10-1.7-11.13-6-1.58-7,1.44-8.93,6.79S292.51,41,298.91,42.58C303.25,43.69,305,40.38,306.87,35Z"/><path class="cls-7" d="M293.51,32.7l-32.08,84.21,29.07-9,17.77-69.06S307.55,16.66,293.51,32.7Z"/><path id="指甲-2" data-name="指甲" class="cls-4" d="M329.43,50c3.33-5.25,5-9,1.52-11.54-4.81-3.42-7,0-10.37,5.28s-6.44,10-.83,12.8C323.55,58.38,326.1,55.22,329.43,50Z"/><path class="cls-7" d="M316.29,46.85,280.2,121,306,117.66l26.3-64.79S333.33,30.81,316.29,46.85Z"/><path id="指甲-3" data-name="指甲" class="cls-4" d="M355.63,135c5.34-3.58,8.78-6.89,6.61-10.7-1.79-3.14-7.25-2.78-12.58.8s-10.27,6.83-6,11.93C346.57,140.44,350.3,138.53,355.63,135Z"/><path class="cls-7" d="M320.3,125.05s-2,12,1,12,17.48-8.8,23.06-11c3.45-1.38,12.58-4.65,14.69-1,1,1.65,2.35,5-2.66,10-7,4-30.07,22.06-30.07,22.06-17.45,6.1-30.81,7.14-48.12,5l-22.06-34.08s65.66-7.52,64.66-2.51"/></g></g><g id="身體"><path class="cls-8" d="M181,137.34c59.74,82.47-72.18,236.59-28.07,261.66H-.5V135.34c16.59,18.71,81.22,24.65,104.26,14s32.08-26.06,20-51.12l0-.1C146.71,108.32,175.14,123.38,181,137.34Z"/><path class="cls-8" d="M123.81,98.25c12,25.06,3.13,40.45-20,51.12s-87.67,4.68-104.26-14v-16s59.15,21,90.22,11,17-33.09,14-37.1c-1.43-1.91-5.86-4.75-10.07-7.18l0-.09c.51.18,13.9,5,30.12,12.19Z"/><path class="cls-9" d="M103.76,93.23c3,4,17,27.07-14,37.1S-.5,119.3-.5,119.3V97.24L70,72.72,84.71,81.2s4.37,2.19,9,4.85C97.9,88.48,102.33,91.32,103.76,93.23Z"/><path class="cls-6" d="M-.5,115.29V97.24L70,72.72,84.71,81.2s4.37,2.19,9,4.85c4.21,2.43,8.64,5.27,10.07,7.18,3,4,17,27.07-14,37.1S-.5,119.3-.5,119.3"/><path class="cls-10" d="M123.81,98.25c12,25.06,3.13,40.45-20,51.12s-87.67,4.68-104.26-14"/><path class="cls-6" d="M93.73,86h0c.51.18,13.9,5,30.12,12.19,22.85,10.17,51.28,25.23,57.09,39.19,59.74,82.47-72.18,236.59-28.07,261.66H-.5V115.29"/></g><g id="右手"><g id="右手-2" data-name="右手"><path id="手指" class="cls-7" d="M242.76,111.24c1.16-2.76,42.79-39.38,46.53-49.52,5.82-15.76-6.1-18.37-6.1-18.37L238,83.22S219.25,101.29,211.69,112l22.23,12.21S241.59,114,242.76,111.24Z"/><path id="指甲-4" data-name="指甲" class="cls-11" d="M286.69,53.56c-4.64,3.83-9.44,5.71-11.67,3.78-5.35-4.64,0-7.7,4.6-11.52s8.88-7.39,12.19-2.33C294.05,46.91,291.33,49.74,286.69,53.56Z"/><path id="手指-2" data-name="手指" class="cls-7" d="M269.17,112s52.33-16,58.15-25.07c9-14.16-1-14-1-14L265.16,94s-26.48,11.15-36.14,20l14.41,12.68Z"/><path id="指甲-5" data-name="指甲" class="cls-11" d="M328.59,83.19c-4.59,2.34-8.84,2.61-10.76.42-5.46-6.25,1-7.21,5.61-9.55s7.13-3.27,11,1.08C337.1,78.11,333.18,80.85,328.59,83.19Z"/><path id="手指-3" data-name="手指" class="cls-7" d="M286.94,127.7s34.16,1.56,40.92-6.86c10.52-13.11.51-14.07.51-14.07l-51.69,1s-24.86,11.55-35.42,19.26l14.6,13.68Z"/><path id="指甲-6" data-name="指甲" class="cls-11" d="M328,118.68c-6,.55-10.93-1.93-11.69-4.78-1.8-6.85,4.31-6.37,10.3-6.92s11.49-1.1,11.38,4.94C338,116,334,118.13,328,118.68Z"/><path id="手指-4" data-name="手指" class="cls-7" d="M291.08,150.92s20.37,4.84,29.12-1.51c7.67-5.56-9.91-12-9.91-12l-32.81-4.68s-28.88,8.38-40,15.21l10,13.8Z"/><path id="指甲-7" data-name="指甲" class="cls-11" d="M317.64,147.44c-3.83-.75-6.39-3.54-6.27-5.79.28-5.43,4-3.9,7.81-3.15s7.36,1.4,6.05,5.86C324.34,147.38,321.47,148.19,317.64,147.44Z"/></g><g id="袖子-2" data-name="袖子"><path class="cls-4" d="M-.68,310.43c29.07,1,55.32-9.94,72.36-40,5-5,13.95-10.12,31.08-37.09,19-23.06,28.59-41.9,44.11-45.11,5.17-3,24.06-34.09,28.07-34.09,25.69,0,48.08,28.87,67.17,53.13-26.59,25.16-23.06,35.72-23.06,51.13,7.7,26.55-46.19,108.21-66.17,143.36H-1.5Z"/><path class="cls-6" d="M177.53,247c-5.89,5-18.95,20-24.09,40.14-6.42,25.16-12.68,63.45-50.68,79.5"/><path class="cls-6" d="M163.4,234.63c-8.56,7.49-27.4,25.37-34.25,36.93"/></g><g id="袖口-2" data-name="袖口"><path class="cls-5" d="M240.52,219.25a7.84,7.84,0,0,1-10.32.86c-8.61-6.42-23.88-20.68-35.47-29.4-24.25-18.24-37.66-20.77-33.61-30.52,6.85-16.49,27.13-43.49,35.27-54a9.19,9.19,0,0,1,9.62-3.26c7,1.87,20.07,6.87,39.94,20.18,18.87,12.64,32.42,33,38.05,42.52A7.7,7.7,0,0,1,283,174.9Z"/><path class="cls-5" d="M232.39,211.48A406.09,406.09,0,0,0,277,166.79"/><path class="cls-5" d="M224.49,202.63c17.39-14,32.35-28.8,44.59-44.69"/><path class="cls-5" d="M216.59,193.78c15.34-14.51,25.95-26.41,41.11-43.24"/><line class="cls-5" x1="207.68" y1="187.37" x2="249.8" y2="141.69"/><path class="cls-5" d="M196.3,180l43.12-48.12"/><path class="cls-5" d="M187.39,173.56A255.14,255.14,0,0,1,228,124.44"/><path class="cls-5" d="M178.48,167.14c9.93-18,22.09-34.18,37.15-47.67"/><path class="cls-5" d="M169.57,160.73q13.41-25.9,37.15-47.67"/></g></g><g id="頭"><g id="左手無名指"><path id="指甲-8" data-name="指甲" class="cls-4" d="M330.7,97.13c4.24-4.82,7.37-7.92,4.08-11.13-4.5-4.39-8.14-1.74-12.38,3.07s-8.19,9.22-2.75,13.07C323.33,104.75,326.45,101.94,330.7,97.13Z"/><path class="cls-7" d="M302.26,107.24s16-19,22.05-20.06,12,1,12,6-10,14-10,14Z"/></g><path class="cls-7" d="M-.5,97.26v-98H93.73L82.32,23.06C76.6,36.4,63.66,62.62,63.66,90.28,63.66,90.28,21.55,104.25-.5,97.26Z"/><path class="cls-7" d="M29.07-.88C46.32,9.19,84.85,27,102.42,24.29c9,0,21.72-16.22,27.91-25.17"/><path class="cls-7" d="M63.76,89c-.9-7,1.9-18.11,1.9-18.11,11,4,25.13,16,26.07,29.34s-63.16,6-92.23-3"/></g></g></svg>