<svg xmlns="http://www.w3.org/2000/svg" xmlns:xlink="http://www.w3.org/1999/xlink" viewBox="0 0 864 648"><defs><style>.cls-1,.cls-53,.cls-54,.cls-57{fill:none;}.cls-2{isolation:isolate;}.cls-3{clip-path:url(#clip-path);}.cls-4,.cls-42,.cls-49{fill:#bfbfbf;}.cls-28,.cls-4,.cls-49,.cls-50,.cls-54,.cls-57,.cls-59{stroke:#999;}.cls-4,.cls-50,.cls-53,.cls-54,.cls-57,.cls-59{stroke-linecap:round;stroke-linejoin:round;}.cls-5{clip-path:url(#clip-path-2);}.cls-6{fill:#f5f5f5;}.cls-7{fill:#aaa;}.cls-8{fill:#a3a3a3;}.cls-29,.cls-9{fill:#ccc;}.cls-10,.cls-12{fill:#d9d9d9;}.cls-10,.cls-11{stroke:#e6e6e6;}.cls-10,.cls-11,.cls-12,.cls-28,.cls-29,.cls-47,.cls-49{stroke-miterlimit:10;}.cls-11,.cls-14{fill:#d2d2d2;}.cls-12,.cls-47{stroke:#f2f2f2;}.cls-13{fill:#f9f9f9;}.cls-15,.cls-33,.cls-38,.cls-41,.cls-45{mix-blend-mode:screen;}.cls-16{fill:url(#鍊踑臇蜸馯鳺艜_5);}.cls-17{fill:#b8b8b8;}.cls-18{fill:#e6e6e6;}.cls-19{fill:#929292;}.cls-20{fill:#b6b6b6;}.cls-21{fill:#b2b2b2;mix-blend-mode:multiply;}.cls-22{fill:#a9a9a9;}.cls-23{fill:#9c9c9c;}.cls-24{fill:#d7d7d7;}.cls-25{fill:#cacaca;}.cls-26{fill:#4d4d4d;}.cls-27,.cls-28{fill:#afafaf;}.cls-29{stroke:#aaa;}.cls-30{fill:#dcdcdc;}.cls-31{fill:url(#鍊踑臇蜸馯鳺艜_17);}.cls-32{fill:url(#鍊踑臇蜸馯鳺艜_14);}.cls-33{fill:url(#鍊踑臇蜸馯鳺艜_16);}.cls-34{fill:#f6f6f6;}.cls-35{fill:#9f9f9f;}.cls-36{fill:#b1b1b1;}.cls-37{fill:#bebebe;}.cls-38{fill:url(#鍊踑臇蜸馯鳺艜_18);}.cls-39{fill:url(#鍊踑臇蜸馯鳺艜_17-2);}.cls-40{fill:url(#鍊踑臇蜸馯鳺艜_14-2);}.cls-41{fill:url(#鍊踑臇蜸馯鳺艜_16-2);}.cls-43{fill:url(#鍊踑臇蜸馯鳺艜_4);}.cls-44{fill:#e5e5e5;}.cls-45{opacity:0.56;fill:url(#鍊踑臇蜸馯鳺艜_2);}.cls-46,.cls-50{fill:#fff;}.cls-47,.cls-56,.cls-59{fill:#ededed;}.cls-48{clip-path:url(#clip-path-3);}.cls-51{fill:#898989;}.cls-52{fill:#cecece;}.cls-53{stroke:#898989;}.cls-55{fill:#dbdbdb;}.cls-57{stroke-dasharray:3 5;}.cls-58{fill:#999;}</style><clipPath id="clip-path"><rect class="cls-1" x="514.41" y="-237.74" width="285" height="75"/></clipPath><clipPath id="clip-path-2"><rect class="cls-1" width="864" height="648"/></clipPath><linearGradient id="鍊踑臇蜸馯鳺艜_5" x1="251.94" y1="38.24" x2="262.15" y2="387.52" gradientUnits="userSpaceOnUse"><stop offset="0" stop-color="#7f7f7f"/><stop offset="1"/></linearGradient><linearGradient id="鍊踑臇蜸馯鳺艜_17" x1="728.35" y1="352.27" x2="763.42" y2="352.27" gradientUnits="userSpaceOnUse"><stop offset="0" stop-color="#bcbcbc"/><stop offset="0.46" stop-color="#b9b9b9"/><stop offset="0.85" stop-color="#aeaeae"/><stop offset="1" stop-color="#a8a8a8"/></linearGradient><linearGradient id="鍊踑臇蜸馯鳺艜_14" x1="745.78" y1="334.75" x2="760.46" y2="334.75" gradientUnits="userSpaceOnUse"><stop offset="0" stop-color="#c2c2c2"/><stop offset="1" stop-color="#989898"/></linearGradient><linearGradient id="鍊踑臇蜸馯鳺艜_16" x1="749.02" y1="324.56" x2="747.42" y2="381.35" gradientUnits="userSpaceOnUse"><stop offset="0" stop-color="#666"/><stop offset="0.88"/></linearGradient><linearGradient id="鍊踑臇蜸馯鳺艜_18" x1="642.54" y1="98.53" x2="555.17" y2="258.63" gradientUnits="userSpaceOnUse"><stop offset="0" stop-color="#d6d6d6"/><stop offset="0.56" stop-color="#505050"/><stop offset="0.88"/></linearGradient><linearGradient id="鍊踑臇蜸馯鳺艜_17-2" x1="1211.9" y1="479.13" x2="1145.19" y2="487.68" gradientTransform="matrix(-1, 0, 0, 1, 1843.42, 0)" xlink:href="#鍊踑臇蜸馯鳺艜_17"/><linearGradient id="鍊踑臇蜸馯鳺艜_14-2" x1="1210.79" y1="470.75" x2="1144.17" y2="479.28" gradientTransform="matrix(-1, 0, 0, 1, 1843.42, 0)" xlink:href="#鍊踑臇蜸馯鳺艜_14"/><linearGradient id="鍊踑臇蜸馯鳺艜_16-2" x1="1199.1" y1="457.1" x2="1185.78" y2="508.14" gradientTransform="matrix(-1, 0, 0, 1, 1843.42, 0)" xlink:href="#鍊踑臇蜸馯鳺艜_16"/><linearGradient id="鍊踑臇蜸馯鳺艜_4" x1="11.5" y1="447.89" x2="111.69" y2="447.89" gradientUnits="userSpaceOnUse"><stop offset="0" stop-color="#fff"/><stop offset="0.07" stop-color="#f8f8f8"/><stop offset="0.7" stop-color="silver"/><stop offset="1" stop-color="#aaa"/></linearGradient><linearGradient id="鍊踑臇蜸馯鳺艜_2" x1="86.38" y1="386.76" x2="79.21" y2="519.63" gradientUnits="userSpaceOnUse"><stop offset="0" stop-color="#e5e5e5"/><stop offset="0.52" stop-color="#5f5f5f"/><stop offset="0.88"/></linearGradient><clipPath id="clip-path-3"><rect class="cls-1" x="301.69" y="435.03" width="285" height="206.68"/></clipPath></defs><title>product5</title><g class="cls-2"><g id="圖庫一"><g id="裙子"><g class="cls-3"><g id="裙子-2" data-name="裙子"><path class="cls-4" d="M711.15-225.58c-3.55-4.54-7.09-27.28-7.09-27.28H581s-1.19,16.67-7.1,27.28c-3,3.79-27.81,202.34-29,279.63H739c-2.84-84.74-11.83-177.32-27.81-279.63-5.91,0-123.65-.76-136.66-.76"/></g></g></g></g><g id="圖層_5" data-name="圖層 5"><g id="景物"><g class="cls-5"><rect id="背景" class="cls-6" width="864" height="648"/><polygon class="cls-7" points="862.75 495 -0.25 495 3.75 648 866.75 648 862.75 495"/><polygon class="cls-8" points="861.75 648 629.75 653 0.35 647.76 0.44 502.97 320.92 502.97 -0.5 530.03 -0.5 552.25 629.75 626 861.75 503 861.75 648"/><polygon class="cls-9" points="466.82 502.26 194.75 502.26 186.86 -24.74 474.7 -24.74 466.82 502.26"/><polygon class="cls-10" points="469.73 -24.74 461.85 502.26 469.73 502.26 479.94 -24.74 469.73 -24.74"/><polygon class="cls-11" points="411.62 -24.74 385.54 441.25 121.27 441.25 116.22 -24.74 411.62 -24.74"/><polygon class="cls-12" points="449.05 481.69 451.54 461.47 392.51 461.47 395 441.25 124.14 441.25 124.14 461.81 124.14 461.81 124.14 482.03 124.14 482.03 124.14 502.25 505.63 502.25 508.35 481.69 449.05 481.69"/><polygon class="cls-9" points="124.14 502.25 505.63 502.25 506.02 499.29 124.14 497.56 124.14 502.25"/><polygon class="cls-9" points="449.05 481.69 124.14 482.03 124.14 476.44 449.37 479.07 449.05 481.69"/><polygon class="cls-9" points="392.51 461.47 124.14 461.81 124.14 457.11 392.92 458.12 392.51 461.47"/><polygon class="cls-9" points="124.14 441.25 142.45 441.25 147.54 461.81 160.45 461.81 165.89 482.03 180.84 481.97 191.03 502.25 124.14 502.25 124.14 441.25"/><polygon class="cls-10" points="117.47 -24.74 125.39 502.26 119.68 502.26 102.92 -24.74 117.47 -24.74"/><polygon class="cls-13" points="138.4 79.52 147.62 435.59 245.9 435.59 241.56 79.52 138.4 79.52"/><polygon class="cls-13" points="248.81 79.52 249.46 435.59 341.87 435.59 355.46 79.52 248.81 79.52"/><rect class="cls-14" x="138.38" y="359" width="217.11" height="2.67" transform="translate(-6.63 4.63) rotate(-1.06)"/><g class="cls-15"><polygon class="cls-16" points="137.07 76.85 354.13 76.85 397.53 200.67 384.21 438.58 122.81 438.58 119.32 171.78 137.07 76.85"/></g><polygon class="cls-9" points="862.79 397.29 862.79 397.36 866.24 397.35 885.44 397.29 903.45 397.24 903.55 396.04 903.54 396.04 865.64 395.51 865.34 384.86 904.49 384.86 904.5 384.86 904.62 383.4 891.79 382.99 870.44 382.47 862.79 382.28 862.79 397.29"/><polygon class="cls-17" points="805.08 385.98 806.23 392.59 813.58 392.28 815.45 385.98 805.08 385.98"/><polygon class="cls-17" points="841.99 381.79 841.99 397.39 846.58 397.39 845.58 381.87 841.99 381.79"/><polygon class="cls-17" points="852.27 397.39 853.98 397.38 853.98 382.07 848.09 381.93 850.11 397.39 852.27 397.39"/><path class="cls-18" d="M809.18,381l32.81.8v15.6h4.59v0l-44.1.12-1.09-16.74Zm4.4,11.29,1.87-6.3H805.08l1.15,6.61Z"/><path class="cls-19" d="M809.18,381V368.6l3.6-.06,42-.64,5.79-.1,9.91-.15v14.82l-7.65-.19-8.81-.21-5.89-.14-2.51-.06-3.59-.08Zm39.47-3.47-.65-6.19-32.91.35v5.41Zm12.54.17v-6.51l-9.71.1v6.28Z"/><polygon class="cls-20" points="815.09 371.68 815.09 377.09 848.65 377.52 848 371.33 815.09 371.68"/><polygon class="cls-18" points="848.39 397.4 850.11 397.39 848.09 381.93 845.58 381.87 846.58 397.39 846.58 397.4 848.39 397.4"/><polygon class="cls-20" points="851.48 371.28 851.48 377.56 861.19 377.69 861.19 371.18 851.48 371.28"/><polygon class="cls-18" points="858.06 397.37 860.39 397.37 862.79 397.36 862.79 397.29 862.79 382.28 853.98 382.07 853.98 397.38 858.06 397.37"/><polygon class="cls-20" points="856.18 341.97 854.74 367.9 860.53 367.8 863.83 341.97 856.18 341.97"/><polygon class="cls-17" points="863.83 341.97 860.53 367.8 870.44 367.65 879.59 367.51 882.29 341.97 863.83 341.97"/><polygon class="cls-21" points="870.44 367.65 809.18 368.64 809.18 371.33 870.44 373.68 870.44 367.65"/><path class="cls-10" d="M794.58,110.66V256.79h-5.31c.1-78.87.18-146.13.18-146.13Z"/><polygon class="cls-22" points="871.82 204.27 869.01 260.02 836 260.02 871.82 204.27"/><polygon class="cls-22" points="872.22 194.81 871.82 204.27 861.83 194.81 872.22 194.81"/><polygon class="cls-23" points="871.82 204.27 836 260.02 827.05 249.18 861.83 194.81 871.82 204.27"/><polygon class="cls-24" points="856.21 203.6 867.02 211.74 864.75 215.28 854.4 206.42 856.21 203.6"/><polygon class="cls-10" points="794.58 256.79 881.58 256.79 881.5 260.25 794.58 260.25 789.27 260.25 740.52 260.25 740.45 256.79 789.27 256.79 794.58 256.79"/><polygon class="cls-10" points="794.58 397.31 878.96 397.31 878.86 402.51 794.58 402.51 789.07 402.51 743.16 402.51 743.06 397.31 743.16 397.31 789.09 397.31 794.58 397.31"/><polygon class="cls-25" points="876.34 512.09 875.76 530.43 748.91 530.43 748.42 512.09 876.34 512.09"/><path class="cls-10" d="M794.58,402.51V503.23h-5.64s0-43.08.12-100.72Z"/><polygon class="cls-26" points="851.45 466.59 851.33 468.02 820.28 468.82 820.28 482.3 850.01 482.84 849.83 484.9 818.3 484.9 818.3 466.59 851.45 466.59"/><polygon class="cls-27" points="851.33 468.02 850.01 482.84 820.28 482.3 820.28 468.82 851.33 468.02"/><polygon class="cls-22" points="868.18 484.9 868 486.36 827.09 487.15 827.09 500.61 866.18 501.17 866.2 501.17 865.94 503.23 824.33 503.23 824.33 484.9 835.86 484.9 867.38 484.9 868.18 484.9"/><polygon class="cls-28" points="868 486.36 866.2 501.17 866.18 501.17 827.09 500.61 827.09 487.15 868 486.36"/><polygon class="cls-19" points="818.3 466.59 818.3 484.9 806.78 484.9 769.6 484.9 767.62 466.59 818.3 466.59"/><polygon class="cls-28" points="824.33 484.9 824.33 503.23 756.6 503.23 753.84 484.9 787.15 484.9 824.33 484.9"/><polygon class="cls-20" points="803.25 466.59 802.11 484.9 810.52 484.9 809.54 466.59 803.25 466.59"/><polygon class="cls-20" points="773.17 466.59 775.47 484.9 777.13 484.9 775.98 466.59 773.17 466.59"/><polygon class="cls-20" points="760.65 484.9 761.55 503.23 767.91 503.23 767.91 484.9 760.65 484.9"/><polygon class="cls-20" points="806.66 484.9 804.88 503.23 807.42 503.23 808.44 484.9 806.66 484.9"/><polygon class="cls-20" points="811.5 484.9 809.53 503.23 814.95 503.23 814.95 484.9 811.5 484.9"/><path class="cls-10" d="M794.58,260.24V397.31h-5.49c0-42.17.1-91.39.18-137.07Z"/><polygon class="cls-29" points="889.3 256.92 884.29 512.09 876.34 512.09 748.42 512.09 737.73 512.09 737.55 503.38 745.04 503.23 788.94 503.23 794.58 503.23 876.98 503.23 878.86 402.51 878.96 397.31 881.5 260.25 881.58 256.79 882.34 256.79 889.3 256.92"/><polygon class="cls-10" points="743.16 402.51 745.04 503.23 737.55 503.38 729.63 99 892.4 99 889.3 256.92 882.34 256.79 881.58 256.79 884.29 110.66 794.58 110.66 789.45 110.66 737.73 110.66 740.45 256.79 740.52 260.25 743.06 397.31 743.16 402.51"/><path class="cls-30" d="M749.3,324.31c.36-15.07-12.61-28.27-13.68-43.32,5.84,7.73,10.27,16.35,12.2,25.45-1.28-13.55,2.49-27.88,9.19-40.15-.31,14.56-.17,28.75-.48,43.31,2.94-9.66,5.2-18.77,8.14-28.44,2.05,14.56-3.24,29-8.46,43C754.1,324.15,751.41,324.31,749.3,324.31Z"/><path class="cls-18" d="M751.5,323c-.56-7.36-3-14.49-4.94-21.68s-3.28-14.69-1.6-21.92c2.8,9.77,5.07,19.17,7.87,28.94-.84-8.66,2.65-17.21,4.88-25.68a72.9,72.9,0,0,0,1.47-30.08c3.19,4.8,4.47,10.75,4.55,16.31s-.9,11.07-1.9,16.56Q758.43,304.21,755,323C753.94,323,752.59,323,751.5,323Z"/><path class="cls-31" d="M766.1,375.76a21.53,21.53,0,0,1-4,7.54h-17.9c-2-2.1-3.06-4.87-4-7.54a104.55,104.55,0,0,0,5.62-54.52h14.68A96.41,96.41,0,0,0,766.1,375.76Z"/><path class="cls-32" d="M756.59,348.27a97.12,97.12,0,0,1,2.35-14.2,96,96,0,0,1,1.52-12.83H745.78a105.75,105.75,0,0,1,1.34,18.53l.15.55q1.92-6.12,3.85-12.24a50.06,50.06,0,0,0,1.69,15.58l1.9-8.27Q755.66,341.83,756.59,348.27Z"/><path class="cls-33" d="M752.18,322.27c1.82,17.46-1.5,37.91-4.7,52.3.45,2.3,1,4.41,1.49,6.72H746.5c-1-2-1.84-4.36-2.86-6.35a142.18,142.18,0,0,0,3.9-52.68C748.84,322.4,750.87,322.14,752.18,322.27Z"/><polygon class="cls-34" points="544.72 73.83 551.37 229.04 668.31 227.49 669.85 75.71 544.72 73.83"/><polygon class="cls-6" points="556.24 81.55 558.39 151.73 560.45 218.98 659.12 218.98 661.16 113.61 661.69 86.39 556.24 81.55"/><path class="cls-35" d="M675.41,70.58l-2.13,161.67L546.6,234,538.94,68.43Zm-7.1,156.91,1.54-151.78L544.72,73.83,551.37,229Z"/><polygon class="cls-36" points="538.94 68.43 544.73 73.83 551.38 229.03 668.32 227.49 673.28 232.25 546.6 234 538.94 68.43"/><path class="cls-37" d="M660,174.68c-1.08.67-2.14,1.34-3.21,2-3.66,2.36-7.26,4.81-10.86,7.26s-7.46,4.77-10.87,7.51-53.56,5.2-55.8,9c-.49.83,47,1.67,47.85,1.52,4.33-.79,8.13-3.24,11.78-5.55s7.33-5.17,11-7.75c3.37-2.4,6.71-4.81,10-7.28Z"/><path class="cls-37" d="M560,204c9.78-6.89,66.25-13.79,76-20.69,8-5.65,16.07-11.21,24.11-16.8l.18-8.87c-9.24,6.62-18.43,13.28-27.7,19.84l-3.46,2.45q15.51-16.38,31.35-32.44l.19-9.42a3,3,0,0,0-1.9,1.14c-8.39,6.34-17.12,12.21-25.83,18.09,7.23-6.3,14.64-12.42,22-18.55,2.16-1.8-.59-4.85-2.86-3.71-8.62,4.34-17.19,8.6-25.51,13.52-7.27,4.3-61,9-67.88,13.81l.09,2.72c7.67-4.22,61.92-8.61,69.54-12.91l3.61-2c-9.14,7.53-64.53,15.63-72.87,24l.31,10.27c9.74-8,66.88-15,77.36-22-10.24,10.58-67,21.28-77,32.07Z"/><path class="cls-37" d="M558.33,149.84c1.89-1.39,3.78-2.8,5.74-4.07,4.72-3.07,9.55-6,14.34-8.94,10.07-6.25,66.53-13,76-20.11,2.28-1.7,4.53-3.44,6.77-5.19l.09-4.89c-2.52,2-5,4-7.47,5.93q-7.17,5.42-14.55,10.52c-9.5,6.57-66.12,12.45-75.74,18.84-1.73,1.16-3.56,2.37-5.33,3.68Z"/><polygon class="cls-38" points="607.97 74.89 579.24 228.42 619.61 227.53 656.76 75.4 607.97 74.89"/><path class="cls-30" d="M668.74,372.93a681.27,681.27,0,0,0-3.9,94.44c1.36-.27,3.53.52,4.79-1s1.08-4.68,1.19-8.31q.42-14.39.32-28.85c-.06-9.62-.31-19.23-.72-28.78q-.3-7.17-.75-14.28C669.48,383.06,668.42,375.7,668.74,372.93Z"/><path class="cls-30" d="M673.43,468.17c-.19-53.7-.28-108.14,13.11-160-13.75,52.38-20.81,106.29-17.86,160.48C670,468.27,672.11,468.54,673.43,468.17Z"/><path class="cls-30" d="M663.79,468.4q-.15-38-.28-76.06c-.15-41.34-.38-83.32-11.49-123,6.85,10.28,10.68,23.23,12.45,35.59s1.74,24.9,1.69,37.39q-.24,63.22-.49,126.43C665.63,468,663.79,469.09,663.79,468.4Z"/><path class="cls-30" d="M661.57,469.27c1.31-32.38,2.62-65-1.84-97.06a270.29,270.29,0,0,0-16.17-61.71c8.72,10.89,14.18,24.5,16.67,38.41s2.7,28.13,2.89,42.28q.54,39.27,1.07,78.54C663.15,469.7,662.62,469.3,661.57,469.27Z"/><path class="cls-30" d="M673.16,469.1c.91,0,1.59.42,2.49.46a299.63,299.63,0,0,1,10.08-82.9c-5.45,4.93-8.14,11.4-9.78,18.7s-1.78,14.88-1.93,22.38C673.75,441.68,673.43,455.15,673.16,469.1Z"/><path class="cls-30" d="M663.08,469c-1,0-1.81.49-2.84.53a341.25,341.25,0,0,0-11.49-94.5c6.22,5.62,9.28,13,11.15,21.32s2,16.95,2.2,25.5C662.41,437.78,662.78,453.13,663.08,469Z"/><path class="cls-39" d="M651.36,502.43h30.82c13-3.64,19.34-26.9,10.23-36.26H641.14C633.89,474.35,637.77,498.1,651.36,502.43Z"/><path class="cls-40" d="M641.14,466.17h51.27c3.35,3.45,4.59,8.78,4.19,14.33a4.35,4.35,0,0,1-1.2.46c-2.22.47-4.15-1.59-5.59-3.51s-3.21-4.07-5.47-3.86-3.81,3-4.54,5.45-1.32,5.3-3.31,6.74a5.17,5.17,0,0,1-6-.26c-3.19-2.27-2.48-5.41-4.21-8.62-.94-1.73-2.7-3.09-4.52-2.82s-3.26,2.15-4.09,4-1.38,4-2.65,5.56-3.62,2.4-5.1,1.05c-1.1-1-1.27-2.74-1.53-4.29s-.93-3.29-2.33-3.62c-1.19-.28-2.32.63-3.49,1a5.34,5.34,0,0,1-5-1.3C637.87,472.32,639,468.57,641.14,466.17Z"/><path class="cls-41" d="M656.7,500.38a65.43,65.43,0,0,1,0-31.89c-.1,0-.14-.26-.25-.26H642.75a34.87,34.87,0,0,0,1.37,22.94,20.26,20.26,0,0,0,4.64,7C650.8,500.05,654.05,500.55,656.7,500.38Z"/><path class="cls-18" d="M700.79,469.77c-7.38-7.43-14.8-14.91-20.8-23.58s-11.3-18.18-12.24-28.8c6.26,1,11.48,3.71,16.69,7.43A45.88,45.88,0,0,1,695.12,407C701.21,427.11,703.82,449,700.79,469.77Z"/><path class="cls-30" d="M684.79,437.45a26,26,0,0,1,6.06,1.09c-.94-2.22-1.85-4.28-2.69-6.09h-.06a.17.17,0,0,0,0-.07,43.15,43.15,0,0,0-7.1-3.59,35.63,35.63,0,0,0-5.28-1.61,32,32,0,0,1,5.48,1,32.51,32.51,0,0,1,6,2.24l-.41-.84-2.46-4.94s1.25,1.69,3,4.61c.31.5.64,1.06,1,1.63a30.5,30.5,0,0,1,2.58-8,31.12,31.12,0,0,1,2.3-3.95c.67-1,1.14-1.54,1.14-1.54a30.79,30.79,0,0,0-2.84,5.76,36.05,36.05,0,0,0-2.1,9.46h-.11c1,1.75,1.94,3.74,2.91,5.91a25.29,25.29,0,0,1,5.56-9.73,26.85,26.85,0,0,0-2.55,4.52,31.09,31.09,0,0,0-2.17,7.16l.3.74c.45,1.12.86,2.22,1.24,3.3a16.18,16.18,0,0,1,2.44-2.69,17,17,0,0,1,2.71-2,19.49,19.49,0,0,0-2.24,2.44,26.23,26.23,0,0,0-2.4,3.75c1,3,1.71,5.8,2.2,8,.74,3.36,1,5.48,1,5.48l-1.64-5.3c-.67-2.09-1.55-4.68-2.61-7.54a20.38,20.38,0,0,0-4.49.36,16.54,16.54,0,0,0-3.08.93,14.71,14.71,0,0,1,2.9-1.58,14.38,14.38,0,0,1,4.18-1c-.44-1.18-.92-2.41-1.42-3.66l-.6-1.48h0a38.28,38.28,0,0,0-6.83-2.08,30.72,30.72,0,0,0-4.71-.55A27.11,27.11,0,0,1,684.79,437.45Z"/><path class="cls-18" d="M627.49,451.75l6.65-5c3.9-2.94,7.79-5.88,11.62-8.91,5.6-4.42,11.14-9.14,15-15.21s6-14.1,4.09-21.12a24.14,24.14,0,0,0-12.81,2,21,21,0,0,0-8.27-6.65c-4.53,5.17-10,9.46-13.78,15.27s-5.38,12.63-5.74,19.49S626.28,445,627.49,451.75Z"/><path class="cls-30" d="M629.91,438.19a75.6,75.6,0,0,1,3.16-8.71,13.38,13.38,0,0,0-2.76-4.25,11.61,11.61,0,0,0-2.91-2.16,9.34,9.34,0,0,1,1,.37,10.68,10.68,0,0,1,2.28,1.3,11.3,11.3,0,0,1,3,3.31c.8-1.73,1.68-3.51,2.68-5.31.31-.56.63-1.1,1-1.64a22.24,22.24,0,0,0-1.48-5.81,19.22,19.22,0,0,0-2.06-3.77A17.07,17.07,0,0,1,636.4,415a18,18,0,0,1,1.87,4.59,72.73,72.73,0,0,1,4.27-6.12l-.07-.09.11-.08a22.75,22.75,0,0,0-.47-5.51,18.23,18.23,0,0,0-1.19-3.63,16.25,16.25,0,0,1,1.78,3.43,17,17,0,0,1,1,4.37c.82-1,1.62-1.92,2.36-2.73,1.43-1.57,2.63-2.78,3.5-3.59l1.33-1.25s-.42.5-1.2,1.39-1.87,2.21-3.17,3.87c-.44.56-.91,1.18-1.39,1.82a23.46,23.46,0,0,1,6.51-2.69,22.71,22.71,0,0,1,4.66-.69c1.21,0,2,0,2,0s-.76,0-1.95.21a23.66,23.66,0,0,0-4.51,1.1,26.92,26.92,0,0,0-8.6,5l-.09-.11c-1.34,1.93-2.75,4.1-4.16,6.45a37.14,37.14,0,0,1,13.89-1.08c1.27.14,2.06.28,2.06.28a38.57,38.57,0,0,0-7,.13,44.6,44.6,0,0,0-10,2.29c-.2.35-.4.69-.6,1.05-1,1.76-1.88,3.5-2.71,5.18a16.41,16.41,0,0,1,6.1-1.53,16.07,16.07,0,0,1,3.66.2,14.24,14.24,0,0,1,1.5.33,15.17,15.17,0,0,0-1.52-.13,16.84,16.84,0,0,0-3.57.23,18.58,18.58,0,0,0-7.06,2.84l0,0c-1.38,2.95-2.5,5.66-3.33,7.93-.75,2-1.31,3.63-1.66,4.77l-.57,1.78s.13-.65.38-1.83S629.31,440.25,629.91,438.19Z"/><path class="cls-18" d="M677.74,355.36a21.14,21.14,0,0,0-14.12,2.14c7.66,15.47,18.6,29.36,32.22,39.52a95,95,0,0,0,.25-26.09c-.69-4.74-1.77-9.53-4.14-13.65s-6.19-7.57-10.74-8.45C680.06,350.82,678.88,353.38,677.74,355.36Z"/><path class="cls-30" d="M672.25,364a23.07,23.07,0,0,1,3.67-1.11,22.15,22.15,0,0,1,7.4-.3c-.53-.77-1-1.47-1.53-2.08-.89-1.13-1.65-2-2.21-2.62l-.85-.93,1,.79a28.92,28.92,0,0,1,2.54,2.33c.64.66,1.34,1.45,2,2.34a13.24,13.24,0,0,0,.69-4.47,11.78,11.78,0,0,0-.64-3.71,9.71,9.71,0,0,1,.5,1,12,12,0,0,1,.34,8.31,35.41,35.41,0,0,1,3.17,5.21,10,10,0,0,0,2.75-3.26,9.25,9.25,0,0,0,1-3.1,8.72,8.72,0,0,1,0,1,9.9,9.9,0,0,1-.45,2.36,9,9,0,0,1-2.78,4.16,35.68,35.68,0,0,1,1.63,4.46c1.21-.68,3.5-1.62,3.5-1.62a36.29,36.29,0,0,1-3.16,2.87,32.77,32.77,0,0,1,.89,5.09,28.8,28.8,0,0,1,.16,3.51l0,1.28-.17-1.27c-.09-.81-.29-2-.58-3.42a45.44,45.44,0,0,0-1.18-4.6c-1.12,1.08-3.21,2.71-3.21,2.71a44.2,44.2,0,0,1,2.73-4l.08.07c-.51-1.51-1.13-3.1-1.86-4.71a17.48,17.48,0,0,0-5.83,1.53,15.74,15.74,0,0,0-3.59,2.27,15.34,15.34,0,0,1,8.85-5,51.76,51.76,0,0,0-3.07-5.39l-.06.3a26.45,26.45,0,0,0-8-.47,23.16,23.16,0,0,0-5.24,1.11S671.33,364.35,672.25,364Z"/><path class="cls-18" d="M650.07,387.57A37.12,37.12,0,0,0,667.87,369c-2.68-1.43-5-2-8-1.18-1.38-1.83-2.45-3.46-3.83-5.29-1,2.06-3,3.79-4.31,5.66C648,373.46,648.16,381.3,650.07,387.57Z"/><path class="cls-30" d="M652.93,381.26a13.45,13.45,0,0,1,.2-2.1,17.88,17.88,0,0,1,1.51-4.85c.14-.28.29-.54.44-.8a19.75,19.75,0,0,0-.85-2.83,13.62,13.62,0,0,0-.92-1.89,10.29,10.29,0,0,1,1.45,1.57,9.68,9.68,0,0,1,1.11,1.84,16.89,16.89,0,0,1,1.62-2,14.08,14.08,0,0,1,1.5-1.43l-1,1.81c-.29.53-.63,1.15-1,1.85a16.34,16.34,0,0,1,3.6-.87,16.75,16.75,0,0,1,3.34-.1,19,19,0,0,0-3.21.73,26.28,26.28,0,0,0-4.54,2l0-.07-.42.85a.47.47,0,0,1,0,.1,7,7,0,0,1,1.64.12,7.29,7.29,0,0,1,1.58.49,8.91,8.91,0,0,0-1.59.15,17.24,17.24,0,0,0-2.24.6v0c-.54,1.15-1,2.2-1.35,3C653.23,380.52,652.93,381.26,652.93,381.26Z"/><path class="cls-42" d="M73.27,311.35c7.78-14.66,19-35.5,17.82-50.1-6,14.66-10.21,29.83-19.31,43-4.63-18.4-1.06-36.57,7.44-53.29-5.56,2.84-10.61,18.37-12.71,26.53-3.91-6.27-2.05-18.8-4.89-22.67-3.17,26.52,13.91,53.28,2.84,80.06C55,305.54,27.24,269,52,240.1c10.6-3.82,17.44-11.66,20.34-22.64,2.13-3.33,8.92-30.22,1.55-23.75-.45,8.55-4,16.56-7.43,24.31-10.09-35-10.13-21.58-3.36,3.71-5.25,20.64-26.07,4.79-24.16,50.89-8.45-12.36-11.84-27.54-7.73-42.09.28-1.45-1.86-2.08-2.23-.62C18.86,264.63,50,300,59.84,332.72c5.06,14.5-10.21,24.42-10,38.26-10.08-14.65.61-42.83-9.88-53.85,5.23,20.26-5.43,45.09,11.1,61.47.87,3.38,8.74,22.33,11.06,13.87a1.67,1.67,0,0,0,.59,0c5,7.54,5.35-10.67,6.69-13.55,3.9-14.29,10.8-27.22,10.93-42.26.28-.84-1.07-1.44-1.46-.61-3.32,17.47-13.63,32.29-16.15,50.17-14.06-12.94,5.49-29.81,4.28-44.79,3.05-9.52,5.81-19.37,5.42-29.39A1.84,1.84,0,0,0,73.27,311.35Z"/><path class="cls-43" d="M111.21,469.71c2,9.51-2.53,19.52-9.15,25.93s-15.07,10-23.3,13.42H44.45c-8.25-3.43-16.68-7-23.33-13.42S10,479.22,12,469.71c3.68-17.45,30.78-22,30-39.93-.64-14.36-1.46-29-4.34-43H85.56c-2.89,14-3.68,28.69-4.32,43C80.45,447.66,107.55,452.26,111.21,469.71Z"/><path class="cls-9" d="M56.75,386.73H43.88c1.82,11.06,3.52,22.18,3.31,33.38-.23,12-2.77,24.21-9.22,34.33-3.49,5.49-8.13,10.4-10.18,16.58-2.45,7.35-.8,15.58,2.73,22.48a72.38,72.38,0,0,0,10.7,14.75l1.92.81H50a82.06,82.06,0,0,1-3.49-40.72c1.67-9.75,5.1-19.12,7.17-28.79"/><path class="cls-44" d="M111.67,473.36a23.81,23.81,0,0,0-.46-3.65c0-.2-.1-.39-.15-.58-4.6,13.62-16.72,20.95-32.2,20.07-12.81,4.11-23.19,10.32-34.36.28-27.69-10,40.43-22.36,48.61-29.5,1.52-4.88,2.45-7.63,2.88-9l-.26-.2c-1.61,2.76-6.79,11.69-14.08,11.9-27.19-.48-45.49,30.38-68.3,14.54a8.48,8.48,0,0,1-1.55.82,28.26,28.26,0,0,0,.77,3.49c10.61,4.9,29.64,10.28,33.55,12.88,14,15.6,32.23-9.09,49.28-3.33C101.26,489.7,108,481.35,111.67,473.36Z"/><path class="cls-44" d="M55.7,447.37c10.87,6.07,20-1.19,27.54-9.07a16.82,16.82,0,0,1-.94-2c-10,7-24.83,17.46-22.27,5.16.38-11.51,12.92-14.92,21.57-19.07.05-1,.1-2,.16-3-5.59,2.15-12.16,2.43-16.58,7.1-4.5,10.42-22.57,29-30.53,18.45-.85.8-1.74,1.58-2.66,2.35C35.78,451.13,43.15,453.38,55.7,447.37Z"/><path class="cls-45" d="M78.14,420.11c.23,12,2.89,24.21,9.63,34.33,3.66,5.49,8.51,10.4,10.65,16.58,2.56,7.35.84,15.58-2.85,22.48a47.31,47.31,0,0,1-8.75,12.07c-.67.27-7.37,3.22-8,3.49H75.2a78.5,78.5,0,0,0,3.65-40.72c-1.74-9.75-5.32-19.12-7.49-28.79-3.88-17.31-4.08-35.13-3.23-52.82H81.6C79.69,397.79,77.92,408.91,78.14,420.11Z"/><path class="cls-46" d="M51.23,449.25c.67-2.42,1.3-4.84,1.88-7.29-3.86,3.33-8,5.75-11.7,6-.45,1-.91,2-1.43,3A25.14,25.14,0,0,0,51.23,449.25Z"/><path class="cls-46" d="M28.1,487.56c8,2.82,15.7,5.35,18,6.89.09.11.19.19.28.29-.22-1.38-.38-2.76-.53-4.15-.46-.36-.91-.7-1.37-1.11-10.36-3.74-7.31-7.81,1-11.82,0-.6.08-1.19.13-1.79-6.33,3.31-12.48,5.91-18.78,5.9A33.23,33.23,0,0,0,28.1,487.56Z"/><path class="cls-47" d="M37.63,386.73l24-.65c4-.06,8,0,12,0H86.38l-.17.81c-2.51,12.25-3.42,24.78-4,37.3l-.22,4.7a18,18,0,0,0,.22,4.54,17.55,17.55,0,0,0,4,8c4,4.7,9.28,8.18,14.14,12.19a47.73,47.73,0,0,1,6.86,6.63,22,22,0,0,1,4.46,8.53c1.63,6.33.24,13.05-2.7,18.7a34.48,34.48,0,0,1-5.58,7.78,36.74,36.74,0,0,1-7.47,5.92c-5.4,3.35-11.28,5.66-17.15,7.88,5.71-2.6,11.47-5.19,16.59-8.74s9.6-7.95,12.43-13.46,4.11-11.82,2.58-17.75a20.62,20.62,0,0,0-4.2-8,47.22,47.22,0,0,0-6.66-6.44c-4.8-4-10.15-7.44-14.33-12.37a18.73,18.73,0,0,1-4.31-8.62,19.35,19.35,0,0,1-.25-4.85l.22-4.7c.62-12.54,1.54-25.14,4.07-37.51l.66.8h-12c-4,0-8,0-12,0Z"/></g></g><g id="人"><g id="裙子-3" data-name="裙子"><g class="cls-48"><g id="裙子-4" data-name="裙子"><path class="cls-4" d="M498.44,447.19c-3.55-4.55-7.1-27.28-7.1-27.28H368.28s-1.18,16.67-7.1,27.28c-3,3.79-27.8,202.33-29,279.63H526.25c-2.84-84.74-11.83-177.33-27.81-279.63-5.92,0-123.65-.76-136.67-.76"/><line class="cls-4" x1="368.87" y1="447.95" x2="366.51" y2="464.62"/><path class="cls-4" d="M375.56,446.48s-11.42,68.15-11.42,78.76"/><path class="cls-4" d="M383.07,448s-5.91,37.89-7.1,48.5"/><path class="cls-4" d="M390.17,460.07c-1.89-1-20.73,134-20.11,192.49"/><line class="cls-4" x1="398.46" y1="447.95" x2="397.27" y2="464.62"/><path class="cls-4" d="M404.37,448s-14.2,165.2-11.83,174.29"/><line class="cls-4" x1="414.05" y1="446.7" x2="412.65" y2="464.62"/><path class="cls-4" d="M424.49,448S418.57,540.4,418.57,551"/><path class="cls-4" d="M436.32,448s4.73,51.53,3.55,69.72"/><path class="cls-4" d="M447,448s3.55,39.4,3.55,47"/><path class="cls-4" d="M456.21,447s6.14,67.68,5,87.39"/><path class="cls-4" d="M464.12,447a78.74,78.74,0,0,1,1.78,17.62"/><path class="cls-4" d="M478.92,448s2.36,19.7,3.55,30.31"/><path class="cls-4" d="M486,448S505,595,503.77,608.6"/></g></g></g><g id="頭"><path id="頭髮" class="cls-49" d="M465.53,147.53s5.85-22.49-30-21c-38.62-2.78-51.71,67.31-52.66,79.68-1,13-11,42-11,42s38.75,14.74,64.66-4.68C453.53,212.53,489.53,164.53,465.53,147.53Z"/><path id="脖子" class="cls-50" d="M437.53,215.53s-9,14,1,18,14,3,14,3-14,19.22-29,19c-21.66-.32-33.66-22.32-33.66-22.32s12.75-7.66,14.21-29.67"/><path id="臉" class="cls-50" d="M457.53,173.53s-8-14-2-25c-22,7-34,10-40,11l-2.35.44a46.32,46.32,0,0,0-5.84,11.74c-6.83,20.36-10.72,37,11.23,44.78,20,7,29.13-8.59,36-29a55.32,55.32,0,0,0,3-14"/><g id="嘴"><path class="cls-51" d="M418.51,201.6a14.53,14.53,0,0,0,6.76,2.38c.68,0,.66-.72,0-.75A12.57,12.57,0,0,1,419,201c-.55-.41-1,.17-.48.57Z"/><path class="cls-52" d="M426.73,200.21a3.61,3.61,0,0,0-1.38-1.17,8.14,8.14,0,0,0-5.37-1.21,2.33,2.33,0,0,0-1.24.37,1.36,1.36,0,0,0-.34.57h0l-.07.21a1.25,1.25,0,0,0,.21,1,2.7,2.7,0,0,0,.84.75,6.84,6.84,0,0,0,1.89.9,13.51,13.51,0,0,0,2,.58,6.24,6.24,0,0,0,2,.35C426.7,202.26,427.34,201.23,426.73,200.21Z"/><path class="cls-51" d="M415.78,198a13,13,0,0,0,3.69,1.3c1,.25,2.13.21,3.14.47a13.71,13.71,0,0,1,2.6,1.23,16.66,16.66,0,0,0,3.69,1.29c.64.13.63-.62,0-.74a12,12,0,0,1-3.52-1.35A12.25,12.25,0,0,0,423,199c-.89-.2-1.73-.18-2.62-.39a18.13,18.13,0,0,1-3.84-1.24c-.86-.3-1.34.27-.76.58Z"/></g><path id="鼻子" class="cls-53" d="M424.24,180.43s1.6,6.29-1.93,10.66c-1.57,1.95,3.94,3.41,3.94,3.41"/><path id="瀏海" class="cls-54" d="M404.53,157.53c3.1,9,51-9,51-9s-8,7,6,32"/></g><g id="衣服"><path class="cls-55" d="M476.12,231q-2.52-2-5-4.08c-12.89-10.6-25.16-21.81-32.43-35-2.24-3.85-13.55-5.87-18-7.58-4.92-1.89,2-9.31,4.84-13.73l5.88-9c3.4-5.25,6.34-8.27,12-5.63l19.89,11.36c26.9,13.45,81,41.59,85,50.91,10.46,27-23.72,52.4-40.17,76.72a12.64,12.64,0,0,0-2.18,7.09L504,428.28c0,6-4.23,13.15-10.11,14.32l-49.41,2.3c-30,1.52-81.34,9.38-85.6-2.69-.7-1.65.73-19.62,0-25l14.75-102.3a67.33,67.33,0,0,0,1.25-8.7l-1.25,8.7c-5.88,30-30.28,104.16-34.75,111.3-2.65,4.24-38.84-11.45-37-15,13-25,46.11-148,53-159,6-9.58,10.54-13.43,16.89-16.25l.11.25c11,31,36.23,41.42,57.1,39.33,24-2.4,42.62-21,47-44.33Z"/><path class="cls-55" d="M476.12,231l-.14.17c-4.4,23.38-23,41.93-47,44.33-20.87,2.09-46.1-8.33-57.1-39.33l-.11-.25c2.14-1,4.47-1.8,7.14-2.7,8.21,16,26,34.95,48.06,33.18,19.27-1.54,36.5-17.3,40.31-36,.06-.29.12-.59.17-.89l-.27-.7a37.8,37.8,0,0,0,3.62-1.57l.32-.3Q473.6,229,476.12,231Z"/><path class="cls-56" d="M467.16,228.83l.27.7c-.05.3-.11.6-.17.89-3.81,18.72-21,34.48-40.31,36-22.07,1.77-39.85-17.19-48.06-33.18,2.63-.9,5.58-1.85,9-3l2,3s12,21,34,22.43c20.84-1.9,27-20.8,29.88-22.7,2.32-1.54,7.17-1.83,13-3.94Z"/><path class="cls-54" d="M373.61,314.91a67.33,67.33,0,0,0,1.25-8.7Z"/><path class="cls-54" d="M373.61,314.91l-14.75,102.3c.73,5.38-.7,23.35,0,25,4.26,12.07,55.59,4.21,85.6,2.69l49.41-2.3c5.88-1.17,10.11-8.33,10.11-14.32l1.95-126.21a12.64,12.64,0,0,1,2.18-7.09c16.45-24.32,50.63-49.77,40.17-76.72-3.95-9.32-58.08-37.46-85-50.91L443.41,156c-5.67-2.64-8.61.38-12,5.63l-5.88,9c-2.87,4.42-9.76,11.84-4.84,13.73,4.44,1.71,15.75,3.73,18,7.58,7.27,13.17,19.54,24.38,32.43,35l-.32.3a37.8,37.8,0,0,1-3.62,1.57l-.43.17c-5.83,2.11-10.68,2.4-13,3.94-2.84,1.9-9,20.8-29.88,22.7-22-1.43-34-22.43-34-22.43l-2-3c-3.39,1.2-6.34,2.15-9,3s-5,1.74-7.14,2.7c-6.35,2.82-10.9,6.67-16.89,16.25-6.89,11-40,134-53,159-1.84,3.55,34.35,19.24,37,15,4.47-7.14,28.87-81.28,34.75-111.3"/><path class="cls-57" d="M476,231.21c-4.4,23.38-23,41.93-47,44.33-20.87,2.09-46.1-8.33-57.1-39.33"/><path class="cls-54" d="M467.43,229.53c-.05.3-.11.6-.17.89-3.81,18.72-21,34.48-40.31,36-22.07,1.77-39.85-17.19-48.06-33.18l0,0"/><path class="cls-54" d="M510.67,277.23c2.84-4.73-.95-16.1-.95-16.1-8.7-10.43-21.18-20.07-33.6-30.09q-2.52-2-5-4.08"/><path class="cls-58" d="M358,282.45c-.06-3,1.47-5.9,3.27-8.21,1.43-1.85,3.45-4.06,5.82-4.66a.5.5,0,0,0-.27-1,8.88,8.88,0,0,0-3.1,1.7,19.26,19.26,0,0,0-3.27,3.36c-1.91,2.48-3.52,5.57-3.45,8.78,0,.64,1,.65,1,0Z"/><path class="cls-58" d="M480.59,315.74a103.46,103.46,0,0,1-1.84,17.81c-1.21,6.76-2.82,13.45-4.68,20.06s-4,13.29-6.34,19.82c-2.08,5.78-4.34,11.51-6.87,17.1a85.59,85.59,0,0,1-6.21,11.8c-.22.33-.44.67-.68,1-.37.53.5,1,.87.51a70.27,70.27,0,0,0,6.1-11.09c2.55-5.46,4.8-11.05,6.89-16.7q3.62-9.72,6.5-19.7c1.95-6.7,3.66-13.47,5-20.32a115.77,115.77,0,0,0,2.25-18.26c0-.67,0-1.35,0-2a.5.5,0,0,0-1,0Z"/><path class="cls-58" d="M465.41,426.4a53.51,53.51,0,0,0,12.89-7.06,23.21,23.21,0,0,0,7.25-8.81,17.51,17.51,0,0,0,1.4-5.74c.05-.64-.95-.64-1,0-.58,7.82-6.71,13.33-13.12,17a62.9,62.9,0,0,1-7.69,3.66c-.59.24-.33,1.21.27,1Z"/><path class="cls-50" d="M310.67,427.28S293.18,446,280.88,446.84c-4,1.35-1.71,3.53-1.71,3.53s10.95-.36,16.25-6c-5.93,5.57-18,14.1-18,14.1s-.9,1.8,3.59,1.8c5.48-2.43,14.18-9.53,14.18-9.53l3.32-.81s-14.35,15.27-14.44,15.9-1,2.43,2.87,2.33,15.35-13.21,15.35-13.21l4.57-.63s-7.44,16.26-6.36,17.69,3.86-.09,3.86-.09,11.48-22.09,14-21.74,1.71,6,7.19,8.08,5.21-.54,5.21-.54-3.87-4.4-4.23-6.37-3.69-14.63-3.69-14.63l1.07-7.55,3.66-4.42-14.36-5.07Z"/><g id="右袖口"><path class="cls-59" d="M303.18,408.31a2.69,2.69,0,0,1,3.48-1.37c4,1.4,11.66,4.95,17.22,6.92,11.88,4.21,17.56,3.81,17.26,7.76-.5,6.51-4.71,17.4-6.36,21.47a3.06,3.06,0,0,1-3.09,1.71c-2.76-.14-8.05-.88-16.67-3.79-8-2.71-15.26-8.2-18.41-10.8a2.77,2.77,0,0,1-1-3.07Z"/><path class="cls-59" d="M307.18,410.23a116.28,116.28,0,0,0-8.49,19"/><path class="cls-59" d="M311.27,412.57a76.18,76.18,0,0,0-8.76,19"/><path class="cls-59" d="M315.39,414.92a198.29,198.29,0,0,0-8.09,18.13"/><line class="cls-59" x1="319.55" y1="416.32" x2="311.18" y2="435.32"/><path class="cls-59" d="M324.82,417.86l-8.76,19.88"/><path class="cls-59" d="M329.08,419.3a73.59,73.59,0,0,1-8.08,20"/><path class="cls-59" d="M333.38,420.75A51.93,51.93,0,0,1,326,440.07"/><path class="cls-59" d="M337.72,422.21a50.08,50.08,0,0,1-7.62,19.33"/></g><path class="cls-50" d="M400.34,160.22s-4.55-2.21-3.75-4.22c.68-1.67,4.69-.06,4.69-.06l19.86,7.58s1.2.87,2.08-2.27c-1.14-2-14.71-11.73-16.11-13.07s-1.94-3.88,1.87-2.74c3,1.21,13.12,8,17.65,10.19s6.76,3.49,6.76,3.49L432,157.78a11.36,11.36,0,0,1-2.2-7.1c-.06-4.68,1-6.22,2.08-6.15s3.67,9.24,6.35,10.31c-4.55,1.67-11.56,17.89-13,29.12l-5-2s-10.1,1-15.92-2.9c-1.74-3.41,3.21-2.2,3.21-2.2s11,1.12,11.68-.56,2.14-1.47-2.54-3.34-20.13-8.86-18.45-12.07c.67-1.67,2.88-.39,2.88-.39l19.79,8.71"/><g id="左袖口"><path class="cls-59" d="M420.17,183.8c-1.89-1-1.46-3.88-.9-5,1.51-3,6.72-10,9.6-14,5.46-7.61,5.13-11.16,8.29-10.67,5.35.81,14.54,6.78,18.14,8.4a2.52,2.52,0,0,1,1.48,2.58c-.21,2.17-1,4.36-4.07,11.11a33.54,33.54,0,0,1-4.88,7.32,92.34,92.34,0,0,1-8.81,9c-.82.73-1.13-.59-2.61-2.14C434.54,188.45,420.17,183.8,420.17,183.8Z"/><path class="cls-59" d="M422.24,181c5.67,1.89,13.23,4.72,19,6.48"/><path class="cls-59" d="M425.07,177.19c5.67,2.83,12.95,5.13,18.4,7.49"/><path class="cls-59" d="M428.85,174.35c6.62,2.84,10.36,3.57,16.25,6.68"/><line class="cls-59" x1="431.03" y1="169.96" x2="447.09" y2="177.52"/><path class="cls-59" d="M432.94,165.9l16.82,8.84"/><path class="cls-59" d="M434.4,163a74.81,74.81,0,0,1,17,8.08"/><path class="cls-59" d="M435.86,160.11a53.13,53.13,0,0,1,16.37,7.21"/><path class="cls-59" d="M437.32,157.22c5.69,1.36,10.87,4.23,16.1,7.68"/></g></g><path id="髮尾" class="cls-4" d="M459.29,217.27c-3,14,2.15,12.53-6.7,29,0,0-9.57,16.39,1.06,32.79,2.71,10.16-2.71,14.64-5.76,15.6-5.38,2.37-14.32,10-7.05,21.61-13.25-16-5.18-28.72-5.18-28.72,4.64-18.45-11.19-16.11-1.69-32.39.73-1.25,14.54-34.65,12.54-51.65Z"/><path id="髮尾-2" data-name="髮尾" class="cls-4" d="M388.87,196.21c.85,16.67-4.91,7.58,1.89,28.17,0,0,7.59,20.6-6.78,37.42-4.68,11.15.44,17.3,3.59,19,5.44,3.73,13.85,14.18,4,26.12,17.14-15.82,10.56-32,10.56-32-1.88-22.05,12.06-32.54,4.53-53-.58-1.57-6.7-36.73-1.65-41.89"/></g></g></g></svg>