<svg xmlns="http://www.w3.org/2000/svg" viewBox="0 0 720 648"><defs><style>.cls-1{fill:#fbf9fa;}.cls-2,.cls-3,.cls-4,.cls-5,.cls-6,.cls-7,.cls-8,.cls-9{isolation:isolate;}.cls-3,.cls-4,.cls-5,.cls-6,.cls-7{font-size:16px;}.cls-3{fill:#575454;}.cls-12,.cls-3,.cls-4,.cls-5,.cls-8,.cls-9{font-family:PingFangTC-Regular-B5pc-H, PingFang TC;}.cls-3,.cls-4,.cls-7{letter-spacing:0.11em;}.cls-4,.cls-5,.cls-6,.cls-7{fill:#5a5a5a;}.cls-5,.cls-6{letter-spacing:0.11em;}.cls-6,.cls-7{font-family:PingFangTC-Medium-B5pc-H, PingFang TC;}.cls-8{font-size:16.26px;fill:gray;letter-spacing:0.11em;}.cls-9{font-size:24px;fill:#080808;letter-spacing:0.07em;}.cls-10,.cls-11{fill:none;}.cls-10{stroke:#666;stroke-linecap:round;stroke-linejoin:round;}.cls-11{stroke:gray;stroke-miterlimit:10;}.cls-12{font-size:12.96px;fill:#666;letter-spacing:0.11em;}</style></defs><title>product7</title><g id="圖層_1" data-name="圖層 1"><g id="Group-2-Copy"><g id="Group"><rect id="Rectangle" class="cls-1" x="592.62" y="567.38" width="107.38" height="41.12"/><g id="_70" data-name="70" class="cls-2"><text class="cls-3" transform="translate(608.25 593.65)">穿XL合適</text></g></g><g id="Group-2" data-name="Group"><rect id="Rectangle-2" data-name="Rectangle" class="cls-1" x="592.62" y="523.97" width="107.38" height="41.12"/><g id="_66" data-name="66" class="cls-2"><text class="cls-3" transform="translate(605.43 550.24)">穿F碼寬鬆</text></g></g><g id="Group-3" data-name="Group"><rect id="Rectangle-3" data-name="Rectangle" class="cls-1" x="592.62" y="480.56" width="107.38" height="41.12"/><g id="_121" data-name="121" class="cls-2"><text class="cls-3" transform="translate(605.43 506.83)">穿F碼寬鬆</text></g></g><g id="Group-4" data-name="Group"><rect id="Rectangle-4" data-name="Rectangle" class="cls-1" x="592.62" y="437.15" width="106.24" height="41.12"/><g id="試穿結果" class="cls-2"><text class="cls-3" transform="translate(610.9 463.43)">試穿心得</text></g></g></g><g id="Group-2-Copy-2" data-name="Group-2-Copy"><g id="Group-5" data-name="Group"><rect id="Rectangle-5" data-name="Rectangle" class="cls-1" x="407.25" y="567.38" width="90.24" height="41.12"/><g id="_70-2" data-name="70" class="cls-2"><text class="cls-3" transform="translate(441.49 593.65)">90</text></g></g><g id="Group-6" data-name="Group"><rect id="Rectangle-6" data-name="Rectangle" class="cls-1" x="407.25" y="523.97" width="90.24" height="41.12"/><g id="_66-2" data-name="66" class="cls-2"><text class="cls-3" transform="translate(441.06 550.24)">60</text></g></g><g id="Group-7" data-name="Group"><rect id="Rectangle-7" data-name="Rectangle" class="cls-1" x="407.25" y="480.56" width="90.24" height="41.12"/><g id="_121-2" data-name="121" class="cls-2"><text class="cls-3" transform="translate(441.06 506.83)">57</text></g></g><g id="Group-8" data-name="Group"><rect id="Rectangle-8" data-name="Rectangle" class="cls-1" x="407.25" y="437.15" width="90.24" height="41.12"/><g id="腰圍" class="cls-2"><text class="cls-3" transform="translate(434.67 463.43)">腰圍</text></g></g></g><g id="Group-2-Copy-3" data-name="Group-2-Copy"><g id="Group-9" data-name="Group"><rect id="Rectangle-9" data-name="Rectangle" class="cls-1" x="500.09" y="567.38" width="90.24" height="41.12"/><g id="_70-3" data-name="70" class="cls-2"><text class="cls-3" transform="translate(534.33 593.65)">110</text></g></g><g id="Group-10" data-name="Group"><rect id="Rectangle-10" data-name="Rectangle" class="cls-1" x="500.09" y="523.97" width="90.24" height="41.12"/><g id="_66-3" data-name="66" class="cls-2"><text class="cls-3" transform="translate(533.91 550.24)">85</text></g></g><g id="Group-11" data-name="Group"><rect id="Rectangle-11" data-name="Rectangle" class="cls-1" x="500.09" y="480.56" width="90.24" height="41.12"/><g id="_121-3" data-name="121" class="cls-2"><text class="cls-3" transform="translate(533.91 506.83)">82</text></g></g><g id="Group-12" data-name="Group"><rect id="Rectangle-12" data-name="Rectangle" class="cls-1" x="500.09" y="437.15" width="90.24" height="41.12"/><g id="腰圍-2" data-name="腰圍" class="cls-2"><text class="cls-3" transform="translate(527.51 463.43)">臀圍</text></g></g></g><g id="Group-2-Copy-4" data-name="Group-2-Copy"><g id="Group-13" data-name="Group"><rect id="Rectangle-13" data-name="Rectangle" class="cls-1" x="314.72" y="567.38" width="90.24" height="41.12"/><g id="_70-4" data-name="70" class="cls-2"><text class="cls-3" transform="translate(348.96 593.65)">106 </text></g></g><g id="Group-14" data-name="Group"><rect id="Rectangle-14" data-name="Rectangle" class="cls-1" x="314.72" y="523.97" width="90.24" height="41.12"/><g id="_66-4" data-name="66" class="cls-2"><text class="cls-3" transform="translate(348.54 550.24)">85</text></g></g><g id="Group-15" data-name="Group"><rect id="Rectangle-15" data-name="Rectangle" class="cls-1" x="314.72" y="480.56" width="90.24" height="41.12"/><g id="_121-4" data-name="121" class="cls-2"><text class="cls-3" transform="translate(348.54 506.83)">80</text></g></g><g id="Group-16" data-name="Group"><rect id="Rectangle-16" data-name="Rectangle" class="cls-1" x="314.72" y="437.15" width="90.24" height="41.12"/><g id="胸圍" class="cls-2"><text class="cls-3" transform="translate(342.14 463.43)">胸圍</text></g></g></g><g id="Group-2-Copy-5" data-name="Group-2-Copy"><g id="Group-17" data-name="Group"><rect id="Rectangle-17" data-name="Rectangle" class="cls-1" x="222.19" y="567.38" width="90.24" height="41.12"/><g id="_70-5" data-name="70" class="cls-2"><text class="cls-3" transform="translate(256.43 593.65)">80</text></g></g><g id="Group-18" data-name="Group"><rect id="Rectangle-18" data-name="Rectangle" class="cls-1" x="222.19" y="523.97" width="90.24" height="41.12"/><g id="_66-5" data-name="66" class="cls-2"><text class="cls-3" transform="translate(256.01 550.24)">44</text></g></g><g id="Group-19" data-name="Group"><rect id="Rectangle-19" data-name="Rectangle" class="cls-1" x="222.19" y="480.56" width="90.24" height="41.12"/><g id="_121-5" data-name="121" class="cls-2"><text class="cls-3" transform="translate(256.01 506.83)">43</text></g></g><g id="Group-20" data-name="Group"><rect id="Rectangle-20" data-name="Rectangle" class="cls-1" x="222.19" y="437.15" width="90.24" height="41.12"/><g id="體重" class="cls-2"><text class="cls-3" transform="translate(249.61 463.43)">體重</text></g></g></g><g id="Group-2-Copy-2-2" data-name="Group-2-Copy-2"><g id="Group-21" data-name="Group"><rect id="Rectangle-21" data-name="Rectangle" class="cls-1" x="129.66" y="567.38" width="90.24" height="41.12"/><g id="_62" data-name="62" class="cls-2"><text class="cls-3" transform="translate(159.42 593.65)">169</text></g></g><g id="Group-22" data-name="Group"><rect id="Rectangle-22" data-name="Rectangle" class="cls-1" x="129.66" y="523.97" width="90.24" height="41.12"/><g id="_51" data-name="51" class="cls-2"><text class="cls-3" transform="translate(159.42 550.24)">166</text></g></g><g id="Group-23" data-name="Group"><rect id="Rectangle-23" data-name="Rectangle" class="cls-1" x="129.66" y="480.56" width="90.24" height="41.12"/><g id="_58" data-name="58" class="cls-2"><text class="cls-3" transform="translate(159.42 506.83)">159</text></g></g><g id="Group-24" data-name="Group"><rect id="Rectangle-24" data-name="Rectangle" class="cls-1" x="129.66" y="437.15" width="90.24" height="41.12"/><g id="身高" class="cls-2"><text class="cls-3" transform="translate(157.08 463.43)">身高</text></g></g></g><g id="Group-2-Copy-3-2" data-name="Group-2-Copy-3"><g id="Group-25" data-name="Group"><rect id="Rectangle-25" data-name="Rectangle" class="cls-1" x="20" y="567.38" width="107.38" height="41.12"/><g id="Lilly" class="cls-2"><text class="cls-4" transform="translate(55.5 593.65)">Lilly</text></g></g><g id="Group-26" data-name="Group"><rect id="Rectangle-26" data-name="Rectangle" class="cls-1" x="20" y="523.97" width="107.38" height="41.12"/><g id="Elva" class="cls-2"><text class="cls-5" transform="translate(54.97 550.24)">Elva</text></g></g><g id="Group-27" data-name="Group"><rect id="Rectangle-27" data-name="Rectangle" class="cls-1" x="20" y="480.56" width="107.38" height="41.12"/><g id="Sally" class="cls-2"><text class="cls-5" transform="translate(52.17 506.83)">Sally</text></g></g><g id="Group-28" data-name="Group"><rect id="Rectangle-28" data-name="Rectangle" class="cls-1" x="20" y="437.15" width="107.38" height="41.12"/><g id="試穿人員" class="cls-2"><text class="cls-4" transform="translate(38.28 463.43)">試穿人員</text></g></g></g><g id="Group-2-2" data-name="Group-2"><g id="Group-29" data-name="Group"><rect id="Rectangle-29" data-name="Rectangle" class="cls-1" x="611.74" y="323.67" width="88.26" height="41.81"/><g id="_70-6" data-name="70" class="cls-2"><text class="cls-3" transform="translate(646.54 350.38)">70</text></g></g><g id="Group-30" data-name="Group"><rect id="Rectangle-30" data-name="Rectangle" class="cls-1" x="611.74" y="279.53" width="88.26" height="41.81"/><g id="_66-6" data-name="66" class="cls-2"><text class="cls-3" transform="translate(646.11 306.25)">66</text></g></g><g id="Group-31" data-name="Group"><rect id="Rectangle-31" data-name="Rectangle" class="cls-1" x="611.74" y="235.4" width="88.26" height="41.81"/><g id="_121-6" data-name="121" class="cls-2"><text class="cls-3" transform="translate(643.6 262.12)">121</text></g></g><g id="Group-32" data-name="Group"><rect id="Rectangle-32" data-name="Rectangle" class="cls-1" x="611.74" y="191.27" width="88.26" height="41.81"/><g id="_51-2" data-name="51" class="cls-2"><text class="cls-3" transform="translate(647.73 217.98)">51</text></g></g><g id="Group-33" data-name="Group"><rect id="Rectangle-33" data-name="Rectangle" class="cls-1" x="611.74" y="147.14" width="88.26" height="41.81"/><g id="XL" class="cls-2"><text class="cls-6" transform="translate(644.75 173.85)">XL</text></g></g></g><g id="Group-2-3" data-name="Group-2"><g id="Group-34" data-name="Group"><rect id="Rectangle-34" data-name="Rectangle" class="cls-1" x="521.15" y="323.67" width="88.26" height="41.81"/><g id="_62-2" data-name="62" class="cls-2"><text class="cls-3" transform="translate(555.53 350.38)">62</text></g></g><g id="Group-35" data-name="Group"><rect id="Rectangle-35" data-name="Rectangle" class="cls-1" x="521.15" y="279.53" width="88.26" height="41.81"/><g id="_51-3" data-name="51" class="cls-2"><text class="cls-3" transform="translate(557.15 306.25)">51</text></g></g><g id="Group-36" data-name="Group"><rect id="Rectangle-36" data-name="Rectangle" class="cls-1" x="521.15" y="235.4" width="88.26" height="41.81"/><g id="_58-2" data-name="58" class="cls-2"><text class="cls-3" transform="translate(555.53 262.12)">58</text></g></g><g id="Group-37" data-name="Group"><rect id="Rectangle-37" data-name="Rectangle" class="cls-1" x="521.15" y="191.27" width="88.26" height="41.81"/><g id="_46" data-name="46" class="cls-2"><text class="cls-3" transform="translate(555.53 217.98)">46</text></g></g><g id="Group-38" data-name="Group"><rect id="Rectangle-38" data-name="Rectangle" class="cls-1" x="521.15" y="147.14" width="88.26" height="41.81"/><g id="F" class="cls-2"><text class="cls-7" transform="translate(559.72 173.85)">F</text></g></g></g><g id="Group-2-4" data-name="Group-2"><g id="Group-39" data-name="Group"><rect id="Rectangle-39" data-name="Rectangle" class="cls-1" x="427.08" y="323.67" width="91.75" height="41.81"/><g id="全長" class="cls-2"><text class="cls-4" transform="translate(454.96 350.38)">衣長</text></g></g><g id="Group-40" data-name="Group"><rect id="Rectangle-40" data-name="Rectangle" class="cls-1" x="427.08" y="279.53" width="91.75" height="41.81"/><g id="袖長" class="cls-2"><text class="cls-4" transform="translate(454.96 306.25)">袖長</text></g></g><g id="Group-41" data-name="Group"><rect id="Rectangle-41" data-name="Rectangle" class="cls-1" x="427.08" y="235.4" width="91.75" height="41.81"/><g id="胸圍-2" data-name="胸圍" class="cls-2"><text class="cls-4" transform="translate(454.96 262.12)">胸圍</text></g></g><g id="Group-42" data-name="Group"><rect id="Rectangle-42" data-name="Rectangle" class="cls-1" x="427.08" y="191.27" width="91.75" height="41.81"/><g id="肩寬" class="cls-2"><text class="cls-4" transform="translate(454.96 217.98)">肩寬</text></g></g><g id="Group-43" data-name="Group"><rect id="Rectangle-43" data-name="Rectangle" class="cls-1" x="427.08" y="147.14" width="91.75" height="41.81"/><g id="尺寸" class="cls-2"><text class="cls-4" transform="translate(454.96 173.85)">尺寸</text></g></g></g><g id="單位_公分" data-name="單位：公分" class="cls-2"><text class="cls-8" transform="translate(609.71 132.04)">單位：公分</text></g><g id="產品尺寸" class="cls-2"><text class="cls-9" transform="translate(259.38 39.1)">尺寸表與試穿報告</text></g><g id="衣服"><path class="cls-10" d="M227.11,117.62c.82-1.38,5.55.35,11.46,3.68,7.52,4.25,17,11.09,22.7,17.41a22.24,22.24,0,0,1,4.76,7.21c7.39,23.79,39.64,168.6,47.18,225.58,1.66,12.55,2.12,20.83.86,22.64-3.35,4.77-47.81,14.48-50,10-.87-1.75-2.39-9.3-4-18.32-2.11-11.6-4.72-18.29-6.23-25.42"/><path class="cls-10" d="M136,360.4c-2,5.73-3,11.17-6.52,23.11-3,10.37-5.75,19.38-6.58,20.63-2,3-24-2-24-2l-20.82-5.4a6.64,6.64,0,0,1-4.82-7.87l2.62-11.75s.42-2.29,1.17-6.43c6.62-36.45,39.4-215.87,43.87-225.77a24.35,24.35,0,0,1,3-4.91c6.19-8,17.7-15,26.25-18.81,5.31-2.35,9.49-3.43,10.51-2.68a.6.6,0,0,1,.24.38l4,8c4,7,15.32,16,30,16,22-2,31-19.74,32-25a.79.79,0,0,1,.1-.27"/><path class="cls-10" d="M123.91,140l0,.1,7,20.61s1.31,58,0,93.2c-1.17,31.5-3,86.27-1.73,101.49a6.69,6.69,0,0,0,2.54,4.73,4.07,4.07,0,0,0,2.49.86,4,4,0,0,0,1.54-.31c.78-.32,1.84-.73,3.15-1.21C149.08,355.7,174,348.09,193,348.09c17.59,0,50.51,8.05,61.22,11.9.65.23,1.21.44,1.69.64a4,4,0,0,0,4-.55,6.66,6.66,0,0,0,2.55-4.73c1.3-15.22-3.43-70-3.43-101.49,0-33.14-3-94.23-3-94.23l5-20.71"/><path class="cls-10" d="M161,118.4l.13,0c1.72.43,20.47,5,34.1,5,14.5,0,31.33-5.6,31.85-5.77h0"/><path class="cls-10" d="M238.51,121.4c-5.79,19.7-23.34,34-44.09,34s-38.1-14.16-44-33.68"/><path class="cls-10" d="M77,370.56a.3.3,0,0,0,0,.13c.81,4.08,51.51,14.2,52.37,12.8"/><path class="cls-10" d="M312.76,371.56c-.5,3-36.83,13.46-52.59,14.25"/><line class="cls-10" x1="81.37" y1="376.62" x2="77.37" y2="391.63"/><line class="cls-10" x1="86.37" y1="378.62" x2="82.37" y2="393.63"/><line class="cls-10" x1="91.38" y1="380.62" x2="87.38" y2="395.63"/><line class="cls-10" x1="97.38" y1="381.62" x2="93.38" y2="396.63"/><line class="cls-10" x1="102.39" y1="382.62" x2="98.38" y2="397.64"/><line class="cls-10" x1="107.39" y1="383.62" x2="103.39" y2="398.64"/><line class="cls-10" x1="112.4" y1="384.62" x2="108.39" y2="399.64"/><line class="cls-10" x1="117.4" y1="385.63" x2="113.4" y2="400.64"/><line class="cls-10" x1="122.41" y1="386.63" x2="118.4" y2="401.64"/><line class="cls-10" x1="308.06" y1="378.12" x2="310.97" y2="392.22"/><line class="cls-10" x1="302.25" y1="380.29" x2="305.95" y2="394.18"/><line class="cls-10" x1="297.23" y1="382.24" x2="300.94" y2="396.13"/><line class="cls-10" x1="291.24" y1="383.28" x2="294.94" y2="397.18"/><line class="cls-10" x1="286.24" y1="384.31" x2="289.95" y2="398.2"/><line class="cls-10" x1="281.24" y1="385.33" x2="284.95" y2="399.22"/><line class="cls-10" x1="276.24" y1="386.36" x2="279.95" y2="400.25"/><line class="cls-10" x1="271.25" y1="387.38" x2="274.95" y2="401.27"/><line class="cls-10" x1="266.25" y1="388.4" x2="269.95" y2="402.3"/></g><line class="cls-11" x1="142.36" y1="203.05" x2="142.36" y2="217.45"/><line class="cls-11" x1="248" y1="203.05" x2="248" y2="217.45"/><line class="cls-11" x1="142.36" y1="210.25" x2="248.5" y2="210.5"/><line class="cls-11" x1="126.66" y1="94.02" x2="126.66" y2="108.42"/><line class="cls-11" x1="258.5" y1="94.02" x2="258.5" y2="108.42"/><line class="cls-11" x1="126.7" y1="101.5" x2="257.93" y2="101.22"/><line class="cls-11" x1="321.45" y1="356.62" x2="335.86" y2="356.62"/><line class="cls-11" x1="321.45" y1="120.05" x2="335.86" y2="120.05"/><line class="cls-11" x1="328.65" y1="356.62" x2="328.65" y2="120.05"/><text class="cls-12" transform="translate(181.08 196.34)">胸圍</text><text class="cls-12" transform="translate(343.38 242.41)">衣長</text><line class="cls-11" x1="36.06" y1="382.57" x2="50.15" y2="385.59"/><line class="cls-11" x1="88.64" y1="137.53" x2="102.72" y2="140.55"/><line class="cls-11" x1="43.1" y1="384.08" x2="95.68" y2="139.04"/><text class="cls-12" transform="translate(36.59 234.84)">袖長</text><text class="cls-12" transform="translate(181.08 89.39)">肩寬</text><g id="單位_公分-2" data-name="單位：公分" class="cls-2"><text class="cls-8" transform="translate(451.71 425.58)"><tspan xml:space="preserve">體重：公斤  三圍與身高：公分</tspan></text></g></g></svg>