<?xml version="1.0" encoding="UTF-8"?>
<svg width="200px" height="32px" viewBox="0 0 200 32" version="1.1" xmlns="http://www.w3.org/2000/svg" xmlns:xlink="http://www.w3.org/1999/xlink">
    <!-- Generator: sketchtool 52.4 (67378) - http://www.bohemiancoding.com/sketch -->
    <title>75AD37C2-AE4F-4E39-AC38-F5722C6771B9</title>
    <desc>Created with sketchtool.</desc>
    <g id="命名-SEO-panel" stroke="none" stroke-width="1" fill="none" fill-rule="evenodd">
        <g id="頁面管理_命名SEOpanel-說明" transform="translate(-709.000000, -316.000000)">
            <g id="Group-13" transform="translate(632.000000, 259.000000)">
                <g id="網址名稱" transform="translate(77.000000, 57.000000)">
                    <rect id="Rectangle" fill="#E6E6E6" fill-rule="nonzero" x="0" y="0" width="200" height="32" rx="5"></rect>
                    <rect id="Rectangle-Copy-2" fill="#FFFFFF" fill-rule="nonzero" opacity="0.662760417" x="29" y="4" width="166" height="24" rx="5"></rect>
                    <g id="arrow-left-solid" transform="translate(6.000000, 8.000000)" fill="#000000" opacity="0.1">
                        <path d="M9.17772829,14.5193764 L8.38663697,15.3104677 C8.05167038,15.6454343 7.51002227,15.6454343 7.17861915,15.3104677 L0.251224944,8.38663697 C-0.0837416481,8.05167038 -0.0837416481,7.51002227 0.251224944,7.17861915 L7.17861915,0.251224944 C7.51358575,-0.0837416481 8.05523385,-0.0837416481 8.38663697,0.251224944 L9.17772829,1.04231626 C9.51625835,1.38084633 9.5091314,1.93318486 9.16347439,2.26458797 L4.86948775,6.35545657 L15.1109131,6.35545657 C15.5848552,6.35545657 15.966147,6.73674833 15.966147,7.21069042 L15.966147,8.35100223 C15.966147,8.82494432 15.5848552,9.20623608 15.1109131,9.20623608 L4.86948775,9.20623608 L9.16347439,13.2971047 C9.51269488,13.6285078 9.51982183,14.1808463 9.17772829,14.5193764 Z" id="Path"></path>
                    </g>
                    <g id="Group-11" transform="translate(47.000000, 8.000000)">
                        <path d="M1.452,10.691 C1.628,10.691 1.793,10.757 1.925,10.889 C2.057,11.021 2.123,11.175 2.123,11.373 C2.123,11.56 2.057,11.714 1.925,11.846 C1.793,11.978 1.628,12.044 1.452,12.044 C1.254,12.044 1.1,11.978 0.979,11.846 C0.847,11.714 0.781,11.56 0.781,11.373 C0.781,11.175 0.847,11.021 0.979,10.889 C1.1,10.757 1.254,10.691 1.452,10.691 Z M6.5523332,6.159 C7.2563332,6.159 7.8173332,6.324 8.2463332,6.654 C8.6863332,6.995 8.9503332,7.512 9.0493332,8.205 L8.1803332,8.205 C8.1033332,7.765 7.9273332,7.435 7.6523332,7.215 C7.3663332,6.995 7.0033332,6.896 6.5523332,6.896 C6.0023332,6.896 5.5623332,7.105 5.2433332,7.523 C4.9353332,7.93 4.7813332,8.48 4.7813332,9.173 C4.7813332,9.866 4.9243332,10.416 5.2323332,10.812 C5.5293332,11.208 5.9693332,11.417 6.5413332,11.417 C7.5093332,11.417 8.0703332,10.922 8.2023332,9.943 L9.0823332,9.943 C8.9503332,10.669 8.6753332,11.23 8.2353332,11.604 C7.8063332,11.967 7.2453332,12.154 6.5413332,12.154 C5.6833332,12.154 5.0233332,11.868 4.5503332,11.296 C4.0993332,10.757 3.8793332,10.053 3.8793332,9.184 C3.8793332,8.315 4.0993332,7.611 4.5503332,7.061 C5.0343332,6.456 5.7053332,6.159 6.5523332,6.159 Z M13.1706664,6.159 C14.0176664,6.159 14.6996664,6.445 15.2056664,7.039 C15.6896664,7.6 15.9316664,8.304 15.9316664,9.162 C15.9316664,10.009 15.6896664,10.713 15.2166664,11.263 C14.6996664,11.857 14.0176664,12.154 13.1706664,12.154 C12.3126664,12.154 11.6416664,11.857 11.1356664,11.263 C10.6516664,10.713 10.4096664,10.009 10.4096664,9.162 C10.4096664,8.304 10.6516664,7.6 11.1356664,7.039 C11.6416664,6.445 12.3126664,6.159 13.1706664,6.159 Z M13.1706664,6.896 C12.5656664,6.896 12.0926664,7.127 11.7626664,7.589 C11.4546664,8.007 11.3116664,8.524 11.3116664,9.162 C11.3116664,9.789 11.4546664,10.306 11.7626664,10.724 C12.0926664,11.186 12.5656664,11.417 13.1706664,11.417 C13.7646664,11.417 14.2376664,11.186 14.5896664,10.724 C14.8866664,10.306 15.0406664,9.778 15.0406664,9.162 C15.0406664,8.524 14.8866664,8.007 14.5896664,7.589 C14.2376664,7.127 13.7646664,6.896 13.1706664,6.896 Z M20.0749996,6.159 C20.9439996,6.159 21.5379996,6.511 21.8569996,7.237 C22.0769996,6.863 22.3409996,6.588 22.6489996,6.423 C22.9239996,6.247 23.2539996,6.159 23.6499996,6.159 C24.2439996,6.159 24.7169996,6.346 25.0909996,6.72 C25.4429996,7.105 25.6299996,7.622 25.6299996,8.271 L25.6299996,12 L24.7499996,12 L24.7499996,8.414 C24.7499996,7.908 24.6399996,7.534 24.4309996,7.292 C24.2109996,7.028 23.8589996,6.907 23.3749996,6.907 C23.0009996,6.907 22.6819996,7.039 22.4399996,7.325 C22.1759996,7.611 22.0549996,7.974 22.0549996,8.436 L22.0549996,12 L21.1749996,12 L21.1749996,8.414 C21.1749996,7.402 20.7349996,6.907 19.8659996,6.907 C19.4589996,6.907 19.1289996,7.061 18.8649996,7.391 C18.6009996,7.699 18.4689996,8.084 18.4689996,8.535 L18.4689996,12 L17.5889996,12 L17.5889996,6.313 L18.4689996,6.313 L18.4689996,7.072 C18.8979996,6.456 19.4369996,6.159 20.0749996,6.159 Z M31.1373328,2.98 L31.9183328,2.98 L28.0243328,13.1 L27.2323328,13.1 L31.1373328,2.98 Z M36.237666,6.159 C37.051666,6.159 37.700666,6.456 38.173666,7.072 C38.602666,7.622 38.822666,8.315 38.822666,9.173 C38.822666,10.009 38.602666,10.702 38.184666,11.252 C37.722666,11.846 37.095666,12.154 36.281666,12.154 C35.467666,12.154 34.840666,11.758 34.400666,10.966 L34.400666,14.178 L33.520666,14.178 L33.520666,6.313 L34.345666,6.313 L34.345666,7.248 C34.752666,6.522 35.379666,6.159 36.237666,6.159 Z M36.127666,6.885 C35.555666,6.885 35.104666,7.105 34.796666,7.556 C34.510666,7.952 34.367666,8.48 34.367666,9.118 L34.367666,9.228 C34.367666,9.888 34.521666,10.416 34.851666,10.823 C35.159666,11.219 35.566666,11.428 36.094666,11.428 C36.710666,11.428 37.172666,11.208 37.491666,10.79 C37.777666,10.394 37.920666,9.855 37.920666,9.173 C37.920666,8.502 37.777666,7.963 37.513666,7.567 C37.194666,7.105 36.732666,6.885 36.127666,6.885 Z M42.9549992,6.159 C43.7689992,6.159 44.3629992,6.368 44.7589992,6.797 C45.0889992,7.171 45.2649992,7.688 45.2649992,8.348 L45.2649992,12 L44.4399992,12 L44.4399992,11.043 C44.2199992,11.351 43.9229992,11.604 43.5709992,11.802 C43.1529992,12.033 42.6799992,12.154 42.1519992,12.154 C41.5799992,12.154 41.1289992,12.011 40.7879992,11.725 C40.4359992,11.428 40.2599992,11.043 40.2599992,10.581 C40.2599992,9.932 40.5129992,9.448 41.0409992,9.118 C41.5029992,8.81 42.1629992,8.645 43.0209992,8.634 L44.3849992,8.612 L44.3849992,8.315 C44.3849992,7.358 43.8899992,6.885 42.8999992,6.885 C42.4819992,6.885 42.1409992,6.962 41.8769992,7.138 C41.5799992,7.314 41.3929992,7.589 41.3049992,7.952 L40.4359992,7.886 C40.5569992,7.292 40.8539992,6.841 41.3159992,6.555 C41.7339992,6.291 42.2729992,6.159 42.9549992,6.159 Z M44.3849992,9.272 L43.0759992,9.294 C41.7999992,9.316 41.1619992,9.734 41.1619992,10.559 C41.1619992,10.823 41.2609992,11.032 41.4809992,11.208 C41.7009992,11.373 41.9869992,11.461 42.3389992,11.461 C42.8779992,11.461 43.3509992,11.285 43.7689992,10.933 C44.1759992,10.592 44.3849992,10.196 44.3849992,9.756 L44.3849992,9.272 Z M49.4853324,6.159 C50.3433324,6.159 50.9813324,6.533 51.3993324,7.292 L51.3993324,6.313 L52.2793324,6.313 L52.2793324,11.604 C52.2793324,13.419 51.4103324,14.332 49.6833324,14.332 C48.9133324,14.332 48.3193324,14.178 47.9233324,13.87 C47.5163324,13.562 47.2633324,13.1 47.1643324,12.484 L48.0443324,12.484 C48.1103324,12.869 48.2753324,13.155 48.5283324,13.331 C48.7813324,13.518 49.1663324,13.617 49.6833324,13.617 C50.8273324,13.617 51.3993324,12.979 51.3993324,11.725 L51.3993324,10.724 C50.9813324,11.483 50.3433324,11.868 49.4853324,11.868 C48.6933324,11.868 48.0663324,11.593 47.6043324,11.054 C47.1423324,10.526 46.9223324,9.855 46.9223324,9.03 C46.9223324,8.194 47.1423324,7.523 47.6043324,6.995 C48.0663324,6.434 48.6933324,6.159 49.4853324,6.159 Z M49.6173324,6.885 C49.0453324,6.885 48.6053324,7.083 48.2863324,7.501 C47.9783324,7.875 47.8243324,8.392 47.8243324,9.03 C47.8243324,9.624 47.9563324,10.119 48.2313324,10.493 C48.5393324,10.911 48.9903324,11.131 49.6063324,11.131 C50.1783324,11.131 50.6183324,10.933 50.9483324,10.537 C51.2563324,10.152 51.4103324,9.646 51.4103324,9.03 C51.4103324,8.392 51.2563324,7.875 50.9483324,7.501 C50.6183324,7.083 50.1783324,6.885 49.6173324,6.885 Z M56.4996656,6.159 C57.4126656,6.159 58.1056656,6.467 58.5676656,7.083 C58.9856656,7.633 59.2056656,8.414 59.2276656,9.404 L54.7396656,9.404 C54.7836656,10.042 54.9486656,10.537 55.2566656,10.889 C55.5646656,11.241 55.9936656,11.417 56.5326656,11.417 C56.9946656,11.417 57.3796656,11.296 57.6656656,11.065 C57.9076656,10.867 58.0946656,10.57 58.2376656,10.174 L59.1176656,10.174 C58.9856656,10.724 58.7326656,11.164 58.3476656,11.516 C57.8746656,11.934 57.2696656,12.154 56.5326656,12.154 C55.7186656,12.154 55.0586656,11.879 54.5746656,11.351 C54.0686656,10.801 53.8266656,10.075 53.8266656,9.151 C53.8266656,8.315 54.0576656,7.611 54.5416656,7.05 C55.0256656,6.456 55.6746656,6.159 56.4996656,6.159 Z M56.5216656,6.896 C56.0156656,6.896 55.6086656,7.061 55.3006656,7.391 C54.9926656,7.721 54.8166656,8.161 54.7616656,8.722 L58.3146656,8.722 C58.2046656,7.501 57.5996656,6.896 56.5216656,6.896 Z M62.7879988,6.159 C64.1959988,6.159 64.9659988,6.742 65.1199988,7.93 L64.2619988,7.93 C64.1849988,7.578 64.0419988,7.314 63.8219988,7.16 C63.5799988,6.984 63.2279988,6.896 62.7769988,6.896 C62.3809988,6.896 62.0729988,6.962 61.8529988,7.116 C61.6109988,7.259 61.4899988,7.457 61.4899988,7.71 C61.4899988,7.952 61.6439988,8.161 61.9739988,8.326 C62.1829988,8.425 62.5789988,8.546 63.1509988,8.7 C63.8329988,8.865 64.3169988,9.041 64.6139988,9.228 C65.0649988,9.514 65.2959988,9.899 65.2959988,10.394 C65.2959988,11.56 64.4929988,12.154 62.8869988,12.154 C61.3909988,12.154 60.5769988,11.494 60.4449988,10.185 L61.3029988,10.185 C61.3689988,10.636 61.5339988,10.955 61.7759988,11.153 C62.0179988,11.329 62.3809988,11.417 62.8649988,11.417 C63.8769988,11.417 64.3939988,11.087 64.3939988,10.449 C64.3939988,10.13 64.2069988,9.888 63.8549988,9.712 C63.6679988,9.624 63.2609988,9.503 62.6449988,9.349 C61.9739988,9.184 61.5009988,9.019 61.2369988,8.843 C60.7969988,8.579 60.5879988,8.216 60.5879988,7.732 C60.5879988,7.248 60.7969988,6.874 61.2259988,6.588 C61.6219988,6.302 62.1499988,6.159 62.7879988,6.159 Z M70.473332,2.98 L71.254332,2.98 L67.360332,13.1 L66.568332,13.1 L70.473332,2.98 Z" id=".com/pages/" fill-opacity="0.45" fill="#000000"></path>
                        <path d="M72,0 L131,0 L131,16 L72,16 L72,0 Z M76.399,6.159 C75.541,6.159 74.914,6.522 74.507,7.248 L74.507,6.313 L73.682,6.313 L73.682,14.178 L74.562,14.178 L74.562,10.966 C75.002,11.758 75.629,12.154 76.443,12.154 C77.257,12.154 77.884,11.846 78.346,11.252 C78.764,10.702 78.984,10.009 78.984,9.173 C78.984,8.315 78.764,7.622 78.335,7.072 C77.862,6.456 77.213,6.159 76.399,6.159 Z M76.289,6.885 C76.894,6.885 77.356,7.105 77.675,7.567 C77.939,7.963 78.082,8.502 78.082,9.173 C78.082,9.855 77.939,10.394 77.653,10.79 C77.334,11.208 76.872,11.428 76.256,11.428 C75.728,11.428 75.321,11.219 75.013,10.823 C74.683,10.416 74.529,9.888 74.529,9.228 L74.529,9.118 C74.529,8.48 74.672,7.952 74.958,7.556 C75.266,7.105 75.717,6.885 76.289,6.885 Z M83.1163332,6.159 C82.4343332,6.159 81.8953332,6.291 81.4773332,6.555 C81.0153332,6.841 80.7183332,7.292 80.5973332,7.886 L81.4663332,7.952 C81.5543332,7.589 81.7413332,7.314 82.0383332,7.138 C82.3023332,6.962 82.6433332,6.885 83.0613332,6.885 C84.0513332,6.885 84.5463332,7.358 84.5463332,8.315 L84.5463332,8.612 L83.1823332,8.634 C82.3243332,8.645 81.6643332,8.81 81.2023332,9.118 C80.6743332,9.448 80.4213332,9.932 80.4213332,10.581 C80.4213332,11.043 80.5973332,11.428 80.9493332,11.725 C81.2903332,12.011 81.7413332,12.154 82.3133332,12.154 C82.8413332,12.154 83.3143332,12.033 83.7323332,11.802 C84.0843332,11.604 84.3813332,11.351 84.6013332,11.043 L84.6013332,12 L85.4263332,12 L85.4263332,8.348 C85.4263332,7.688 85.2503332,7.171 84.9203332,6.797 C84.5243332,6.368 83.9303332,6.159 83.1163332,6.159 Z M84.5463332,9.272 L84.5463332,9.756 C84.5463332,10.196 84.3373332,10.592 83.9303332,10.933 C83.5123332,11.285 83.0393332,11.461 82.5003332,11.461 C82.1483332,11.461 81.8623332,11.373 81.6423332,11.208 C81.4223332,11.032 81.3233332,10.823 81.3233332,10.559 C81.3233332,9.734 81.9613332,9.316 83.2373332,9.294 L84.5463332,9.272 Z M89.6466664,6.159 C88.8546664,6.159 88.2276664,6.434 87.7656664,6.995 C87.3036664,7.523 87.0836664,8.194 87.0836664,9.03 C87.0836664,9.855 87.3036664,10.526 87.7656664,11.054 C88.2276664,11.593 88.8546664,11.868 89.6466664,11.868 C90.5046664,11.868 91.1426664,11.483 91.5606664,10.724 L91.5606664,11.725 C91.5606664,12.979 90.9886664,13.617 89.8446664,13.617 C89.3276664,13.617 88.9426664,13.518 88.6896664,13.331 C88.4366664,13.155 88.2716664,12.869 88.2056664,12.484 L87.3256664,12.484 C87.4246664,13.1 87.6776664,13.562 88.0846664,13.87 C88.4806664,14.178 89.0746664,14.332 89.8446664,14.332 C91.5716664,14.332 92.4406664,13.419 92.4406664,11.604 L92.4406664,6.313 L91.5606664,6.313 L91.5606664,7.292 C91.1426664,6.533 90.5046664,6.159 89.6466664,6.159 Z M89.7786664,6.885 C90.3396664,6.885 90.7796664,7.083 91.1096664,7.501 C91.4176664,7.875 91.5716664,8.392 91.5716664,9.03 C91.5716664,9.646 91.4176664,10.152 91.1096664,10.537 C90.7796664,10.933 90.3396664,11.131 89.7676664,11.131 C89.1516664,11.131 88.7006664,10.911 88.3926664,10.493 C88.1176664,10.119 87.9856664,9.624 87.9856664,9.03 C87.9856664,8.392 88.1396664,7.875 88.4476664,7.501 C88.7666664,7.083 89.2066664,6.885 89.7786664,6.885 Z M96.6609996,6.159 C95.8359996,6.159 95.1869996,6.456 94.7029996,7.05 C94.2189996,7.611 93.9879996,8.315 93.9879996,9.151 C93.9879996,10.075 94.2299996,10.801 94.7359996,11.351 C95.2199996,11.879 95.8799996,12.154 96.6939996,12.154 C97.4309996,12.154 98.0359996,11.934 98.5089996,11.516 C98.8939996,11.164 99.1469996,10.724 99.2789996,10.174 L98.3989996,10.174 C98.2559996,10.57 98.0689996,10.867 97.8269996,11.065 C97.5409996,11.296 97.1559996,11.417 96.6939996,11.417 C96.1549996,11.417 95.7259996,11.241 95.4179996,10.889 C95.1099996,10.537 94.9449996,10.042 94.9009996,9.404 L99.3889996,9.404 C99.3669996,8.414 99.1469996,7.633 98.7289996,7.083 C98.2669996,6.467 97.5739996,6.159 96.6609996,6.159 Z M96.6829996,6.896 C97.7609996,6.896 98.3659996,7.501 98.4759996,8.722 L94.9229996,8.722 C94.9779996,8.161 95.1539996,7.721 95.4619996,7.391 C95.7699996,7.061 96.1769996,6.896 96.6829996,6.896 Z M103.598333,6.159 C103.224333,6.159 102.883333,6.247 102.575333,6.423 C102.267333,6.588 102.014333,6.83 101.816333,7.149 L101.816333,6.313 L100.936333,6.313 L100.936333,12 L101.816333,12 L101.816333,8.568 C101.849333,8.051 102.014333,7.644 102.322333,7.336 C102.608333,7.05 102.949333,6.907 103.345333,6.907 C104.335333,6.907 104.841333,7.457 104.841333,8.568 L104.841333,12 L105.721333,12 L105.721333,8.502 C105.721333,6.94 105.006333,6.159 103.598333,6.159 Z M110.073666,6.159 C109.391666,6.159 108.852666,6.291 108.434666,6.555 C107.972666,6.841 107.675666,7.292 107.554666,7.886 L108.423666,7.952 C108.511666,7.589 108.698666,7.314 108.995666,7.138 C109.259666,6.962 109.600666,6.885 110.018666,6.885 C111.008666,6.885 111.503666,7.358 111.503666,8.315 L111.503666,8.612 L110.139666,8.634 C109.281666,8.645 108.621666,8.81 108.159666,9.118 C107.631666,9.448 107.378666,9.932 107.378666,10.581 C107.378666,11.043 107.554666,11.428 107.906666,11.725 C108.247666,12.011 108.698666,12.154 109.270666,12.154 C109.798666,12.154 110.271666,12.033 110.689666,11.802 C111.041666,11.604 111.338666,11.351 111.558666,11.043 L111.558666,12 L112.383666,12 L112.383666,8.348 C112.383666,7.688 112.207666,7.171 111.877666,6.797 C111.481666,6.368 110.887666,6.159 110.073666,6.159 Z M111.503666,9.272 L111.503666,9.756 C111.503666,10.196 111.294666,10.592 110.887666,10.933 C110.469666,11.285 109.996666,11.461 109.457666,11.461 C109.105666,11.461 108.819666,11.373 108.599666,11.208 C108.379666,11.032 108.280666,10.823 108.280666,10.559 C108.280666,9.734 108.918666,9.316 110.194666,9.294 L111.503666,9.272 Z M116.746999,6.159 C116.108999,6.159 115.569999,6.456 115.140999,7.072 L115.140999,6.313 L114.260999,6.313 L114.260999,12 L115.140999,12 L115.140999,8.535 C115.140999,8.084 115.272999,7.699 115.536999,7.391 C115.800999,7.061 116.130999,6.907 116.537999,6.907 C117.406999,6.907 117.846999,7.402 117.846999,8.414 L117.846999,12 L118.726999,12 L118.726999,8.436 C118.726999,7.974 118.847999,7.611 119.111999,7.325 C119.353999,7.039 119.672999,6.907 120.046999,6.907 C120.530999,6.907 120.882999,7.028 121.102999,7.292 C121.311999,7.534 121.421999,7.908 121.421999,8.414 L121.421999,12 L122.301999,12 L122.301999,8.271 C122.301999,7.622 122.114999,7.105 121.762999,6.72 C121.388999,6.346 120.915999,6.159 120.321999,6.159 C119.925999,6.159 119.595999,6.247 119.320999,6.423 C119.012999,6.588 118.748999,6.863 118.528999,7.237 C118.209999,6.511 117.615999,6.159 116.746999,6.159 Z M126.522332,6.159 C125.697332,6.159 125.048332,6.456 124.564332,7.05 C124.080332,7.611 123.849332,8.315 123.849332,9.151 C123.849332,10.075 124.091332,10.801 124.597332,11.351 C125.081332,11.879 125.741332,12.154 126.555332,12.154 C127.292332,12.154 127.897332,11.934 128.370332,11.516 C128.755332,11.164 129.008332,10.724 129.140332,10.174 L128.260332,10.174 C128.117332,10.57 127.930332,10.867 127.688332,11.065 C127.402332,11.296 127.017332,11.417 126.555332,11.417 C126.016332,11.417 125.587332,11.241 125.279332,10.889 C124.971332,10.537 124.806332,10.042 124.762332,9.404 L129.250332,9.404 C129.228332,8.414 129.008332,7.633 128.590332,7.083 C128.128332,6.467 127.435332,6.159 126.522332,6.159 Z M126.544332,6.896 C127.622332,6.896 128.227332,7.501 128.337332,8.722 L124.784332,8.722 C124.839332,8.161 125.015332,7.721 125.323332,7.391 C125.631332,7.061 126.038332,6.896 126.544332,6.896 Z" id="Combined-Shape" fill="#2C60FF"></path>
                    </g>
                </g>
            </g>
        </g>
    </g>
</svg>