<?xml version="1.0" encoding="UTF-8"?>
<svg width="200px" height="49px" viewBox="0 0 200 49" version="1.1" xmlns="http://www.w3.org/2000/svg" xmlns:xlink="http://www.w3.org/1999/xlink">
    <!-- Generator: sketchtool 52.4 (67378) - http://www.bohemiancoding.com/sketch -->
    <title>082316D4-E6C3-44B9-8341-BFB426CCA1EC</title>
    <desc>Created with sketchtool.</desc>
    <defs>
        <circle id="path-1" cx="8" cy="8" r="8"></circle>
        <polygon id="path-3" points="0.000585038584 0.0125540772 7.73823653 0.0125540772 7.73823653 3.76059078 0.000585038584 3.76059078"></polygon>
    </defs>
    <g id="命名-SEO-panel" stroke="none" stroke-width="1" fill="none" fill-rule="evenodd">
        <g id="頁面管理_命名SEOpanel-說明" transform="translate(-706.000000, -458.000000)">
            <g id="Group-13" transform="translate(632.000000, 259.000000)">
                <g id="分頁名稱" transform="translate(74.000000, 199.000000)">
                    <rect id="Rectangle" fill="#E8E9EA" fill-rule="nonzero" x="0" y="0" width="200" height="34" rx="5"></rect>
                    <path d="M66.9478579,12 L66.9478579,24.1770983 C66.9478579,26.9385221 64.7092816,29.1770983 61.9478579,29.1770983 L2.82300013e-12,29.1770983 L-7.10542736e-14,44 C-4.70495925e-13,46.7614237 2.23857625,49 5,49 L195,49 C197.761424,49 200,46.7614237 200,44 L200,29.1770983 L194.612867,29.1770983 C191.851443,29.1770983 189.612867,26.9385221 189.612867,24.1770983 L189.612867,12 C189.612867,9.23857625 187.374291,7 184.612867,7 L71.9478579,7 C69.1864341,7 66.9478579,9.23857625 66.9478579,12 Z" id="Oval-2" fill="#FFFFFF" fill-rule="nonzero"></path>
                    <g id="genie_colorful-copy" transform="translate(75.000000, 12.000000)">
                        <mask id="mask-2" fill="white">
                            <use xlink:href="#path-1"></use>
                        </mask>
                        <use id="Mask" fill="#00C5DC" xlink:href="#path-1"></use>
                        <g id="genie_colorful" mask="url(#mask-2)">
                            <g transform="translate(2.500000, 2.000000)">
                                <g id="Group" stroke-width="1" fill="none">
                                    <polygon id="Path-2" fill="#ADD8EE" points="7.45563524 11.3019673 7.40672143 10.9042289 3.52323408 10.97592 3.26569518 11.3019673 3.0767226 14.0701082 5.48623173 14.8860131 8.07470925 14.0701082"></polygon>
                                    <g id="Page-1">
                                        <g id="Group-32">
                                            <g id="Group-4" transform="translate(0.000000, 1.816161)">
                                                <path d="M1.67966855,1.79063793 C0.605262394,2.88589633 -0.0530780831,4.40154668 0.00336093324,5.93687638 C0.0312363011,6.6958891 0.285900155,7.43318666 0.84134267,7.97436918 C1.35239108,8.47212137 2.02931514,8.77443712 2.70830404,8.98039184 C4.25246176,9.44828569 5.9366846,9.52496735 7.51284737,9.1697209 C8.93104973,8.84976158 10.4500852,8.16776982 10.8134974,6.6422798 C11.0010539,5.85374803 10.893338,5.01194627 10.6782503,4.23970087 C10.4769282,3.51665389 10.1393265,2.88725353 9.66028312,2.30433719 C8.72938349,1.17107726 7.85285803,0.403242752 5.92773695,0.121963564 C5.13105206,0.00558387587 4.31199804,0.189823441 3.58001153,0.498925178 C2.86488789,0.801240928 2.22065717,1.23927643 1.67966855,1.79063793 Z" id="Fill-2" fill="#BCDFF1"></path>
                                                <path d="M1.88777693,1.60852384 C0.873488394,2.64249786 0.251984879,4.07334109 0.305265891,5.52276254 C0.331581513,6.23930525 0.571995837,6.93534786 1.09635897,7.4462489 C1.57881204,7.91614974 2.2178593,8.20154963 2.85885587,8.39598031 C4.31661137,8.8376935 5.90659475,8.91008449 7.39456448,8.57471559 C8.73341236,8.27265937 10.1674513,7.62882796 10.510529,6.18869562 C10.6875909,5.44428558 10.5859022,4.64958621 10.3828495,3.92055125 C10.1927923,3.23796183 9.87408086,2.64377912 9.42184202,2.09347944 C8.5430302,1.02363024 7.71555009,0.298759354 5.89814776,0.0332189379 C5.14604079,-0.0766488095 4.37281634,0.0972817644 3.6817876,0.389087939 C3.00667819,0.674487831 2.39849493,1.08801338 1.88777693,1.60852384 Z" id="Fill-2-Copy" fill="#D1EBF9"></path>
                                            </g>
                                            <path d="M9.19126589,5.14859669 C9.19126589,5.57339952 8.84609312,5.91812769 8.42073566,5.91812769 C7.99503405,5.91812769 7.65020543,5.57339952 7.65020543,5.14859669 C7.65020543,4.72379386 7.99503405,4.37906569 8.42073566,4.37906569 C8.84609312,4.37906569 9.19126589,4.72379386 9.19126589,5.14859669" id="Fill-5" fill="#FFFFFF"></path>
                                            <path d="M2.51707689,5.91812769 C2.94277849,5.91812769 3.28760712,5.57339952 3.28760712,5.14859669 C3.28760712,4.72379386 2.94277849,4.37906569 2.51707689,4.37906569 C2.09171942,4.37906569 1.74654666,4.72379386 1.74654666,5.14859669 C1.74654666,5.57339952 2.09171942,5.91812769 2.51707689,5.91812769 Z" id="Fill-7" fill="#FFFFFF"></path>
                                            <path d="M9.46172578,6.48580949 C9.11930614,6.48580949 8.84158488,6.33923215 8.84158488,6.15804628 C8.84158488,5.97686041 9.11930614,5.83028308 9.46172578,5.83028308 C9.80414543,5.83028308 10.0818667,5.97686041 10.0818667,6.15804628 C10.0818667,6.33923215 9.80414543,6.48580949 9.46172578,6.48580949 Z" id="Fill-9" fill="#EDF9FF"></path>
                                            <path d="M2.13473697,6.19102618 C2.13473697,6.37221205 1.85701571,6.51878939 1.51459607,6.51878939 C1.17217642,6.51878939 0.894455167,6.37221205 0.894455167,6.19102618 C0.894455167,6.00984031 1.17217642,5.86326298 1.51459607,5.86326298 C1.85701571,5.86326298 2.13473697,6.00984031 2.13473697,6.19102618" id="Fill-11" fill="#EDF9FF"></path>
                                            <path d="M4.23580575,11.3874255 C3.77328113,11.325673 3.35390149,11.2377807 3.32126106,11.2377807 C2.9743676,11.4210023 1.46203458,13.3801308 2.88643147,13.8066301 C4.31082835,14.2331294 5.37387787,13.4574911 5.37387787,13.4574911 C5.37387787,13.4574911 4.93268995,13.1850336 4.4460755,12.8077327 C4.13944646,12.8348767 3.7780991,12.8050183 3.54890163,12.5868488 C3.35205335,12.3408568 3.62254766,11.8638019 4.38998063,11.6581864 C5.11749331,11.5441818 5.53183829,11.6432573 6.23560529,11.762012 C7.42288948,12.0049504 7.50376246,12.7900892 7.50376246,12.7900892 C7.50376246,12.7900892 7.43183713,12.6296006 7.27318843,12.4877734 C7.00097342,12.2434779 6.55359097,12.0405768 5.74107562,11.932001 C4.51387115,11.7684587 4.27159635,11.9055357 3.98148604,12.158653 C3.52894149,12.5535975 4.48083368,12.4568972 4.48083368,12.4568972 C4.48083368,12.4568972 5.79304081,13.3475581 6.25900683,13.6152653 C6.72497286,13.8826332 8.19514041,14.2270221 8.49729563,13.1908017 C8.7691665,12.1332056 7.43011642,11.2459377 7.43011642,11.2459377 C5.87081653,11.5377351 4.24922723,11.3874255 4.23580575,11.3874255 Z" id="Fill-13" fill="#C6E7F9"></path>
                                            <path d="M4.25929236,11.3711265 C3.74040549,11.312985 3.51690011,11.2755595 3.48103687,11.2668414 C3.17506074,11.4284514 2.2310583,12.9136135 3.00863176,13.3490982 C3.78620523,13.7845828 5.15782064,13.320629 5.15782064,13.320629 C5.15782064,13.320629 5.00286266,13.233045 4.45305946,12.8151108 C4.18259842,12.839053 3.86697698,12.7068943 3.66481418,12.5144587 C3.49118487,12.2974823 3.72977339,11.8766977 4.40668487,11.6953354 C5.04838481,11.594778 5.4138563,11.6821671 6.03461144,11.7869144 C7.08185117,12.0011973 7.15318489,12.6937261 7.15318489,12.6937261 C7.15318489,12.6937261 7.08974341,12.5521677 6.9498079,12.4270696 C6.70970163,12.2115896 6.37254278,12.0624952 5.65586655,11.9667263 C4.57341528,11.8224744 4.26942665,11.9210326 4.14487259,12.0238756 C3.72749377,12.368501 4.48682148,12.3998353 4.48682148,12.3998353 C4.48682148,12.3998353 5.6858256,12.9296282 6.09682925,13.1657584 C6.5078329,13.4015893 7.50089523,13.9303429 8.20346918,13.0218987 C8.4432719,12.0890498 7.47087219,11.2587896 7.37292959,11.2587896 C7.27498699,11.2587896 5.50980214,11.5313996 4.25929236,11.3711265 Z" id="Fill-13-Copy" fill="#D1EBF9"></path>
                                            <path d="M6.11169148,13.5308912 C5.58388854,13.3843599 5.33417533,13.031146 5.33417533,13.031146 C5.33417533,13.031146 5.9091542,12.5698697 5.60871798,11.8697369 C5.80841761,11.8197275 6.37488353,11.9956349 6.38623413,12.0386501 C6.38623413,12.0386501 6.84415993,12.60659 6.11169148,13.5308912 Z" id="Fill-15" fill="#FFE473"></path>
                                            <path d="M6.00039662,13.4380199 C6.57786412,12.7757075 6.39030763,12.0672504 6.30633739,12.0211057 C6.23578862,11.981747 5.94877557,11.9016723 5.75674526,11.921691 C5.91264083,12.437426 5.61048561,12.9772513 5.40606625,13.0732731 C5.54234582,13.2605663 5.73712926,13.3901787 6.00039662,13.4380199 Z M6.1559314,13.6073303 C6.13695856,13.6073303 6.11757754,13.6073303 6.09778834,13.6073303 C5.55817628,13.4576993 5.31899874,13.093058 5.30833039,13.0777895 L5.26303214,12.98547 L5.30833039,12.9558755 C5.32829053,12.9392498 5.8049249,12.5432874 5.54613137,11.9406917 L5.50173726,11.8375447 L5.61220631,11.8100615 C5.74710933,11.7764708 5.9797482,11.8260085 6.10639185,11.8585813 C6.398567,11.9335664 6.45947984,11.98514 6.47737514,12.0217843 C6.54689149,12.1201811 6.82805415,12.7119192 6.20103044,13.574079 C6.18993725,13.5962465 6.17490424,13.6073303 6.1559314,13.6073303 Z" id="Fill-17" fill="#FFDA2A"></path>
                                            <g id="Group-21" transform="translate(1.514218, 0.000000)">
                                                <mask id="mask-4" fill="white">
                                                    <use xlink:href="#path-3"></use>
                                                </mask>
                                                <g id="Clip-20"></g>
                                                <path d="M7.73823653,3.62656752 C7.73823653,3.62656752 6.79425956,2.19302763 4.98029581,1.8238699 C4.45754663,1.7173299 4.56147701,0.954245584 5.1251789,0.8904573 C5.68922492,0.826669016 6.12215347,0.507727596 5.83961425,0.0123504975 C5.74428738,0.415438164 5.62074099,0.548782821 5.10625118,0.471083263 C5.10625118,0.471083263 3.75274721,0.0717278895 3.11539929,1.60027161 C2.86865066,2.19268833 1.39848311,1.91412354 0.000585038584,3.76059078 C2.86589754,1.75601002 6.50896722,2.7606755 7.73823653,3.62656752" id="Fill-19" fill="#2F7A86" mask="url(#mask-4)"></path>
                                            </g>
                                            <path d="M4.51615373,7.60787255 C4.51615373,7.60787255 5.5275822,7.14438959 6.39343931,7.60787255 C6.39343931,7.60787255 5.5702556,7.42193648 4.51615373,7.60787255" id="Fill-22" fill="#C6E7F9"></path>
                                            <path d="M8.94895667,5.1381802 C8.94895667,5.43710296 8.70633773,5.67936272 8.40693563,5.67936272 C8.10753353,5.67936272 7.86491459,5.43710296 7.86491459,5.1381802 C7.86491459,4.83959674 8.10753353,4.59699769 8.40693563,4.59699769 C8.70633773,4.59699769 8.94895667,4.83959674 8.94895667,5.1381802" id="Fill-24" fill="#2F7A86"></path>
                                            <path d="M2.50300155,5.67936272 C2.80240365,5.67936272 3.04502259,5.43710296 3.04502259,5.1381802 C3.04502259,4.83959674 2.80240365,4.59699769 2.50300155,4.59699769 C2.20359945,4.59699769 1.96098051,4.83959674 1.96098051,5.1381802 C1.96098051,5.43710296 2.20359945,5.67936272 2.50300155,5.67936272 Z" id="Fill-26" fill="#2F7A86"></path>
                                            <path d="M4.11461078,11.1076439 C4.11013695,11.1090011 5.02107644,11.2270773 5.41546128,11.2270773 C5.80709299,11.2270773 6.14090912,11.1941652 6.75313479,11.120198 C6.75106995,11.1171443 5.88624527,10.8328114 5.44540149,9.84545018 C5.44196008,9.8383249 5.07923616,10.8032923 4.11461078,11.1076439 Z" id="Fill-28" fill="#2F7A86"></path>
                                            <path d="M7.13416698,7.52586389 C6.84990706,7.52586389 6.57184166,7.44409273 6.30306805,7.36537528 C6.17195058,7.32703445 6.03635929,7.28699712 5.90386525,7.25815667 C5.76999466,7.22897693 5.63715649,7.21472635 5.49777965,7.21472635 C5.28441263,7.21472635 5.05521517,7.24967419 4.79745405,7.32126636 L4.70866584,7.34637451 C4.4106403,7.43018146 4.10229055,7.5167028 3.79703807,7.5167028 C3.57988551,7.5167028 3.3844138,7.47361178 3.19961043,7.38505464 C2.95767977,7.26935355 2.54436722,6.97823468 2.5306016,6.62129173 C2.5288809,6.57277192 2.54058167,6.53544899 2.56604806,6.50932294 C2.58635234,6.48828637 2.61388357,6.47742879 2.64623276,6.47742879 C2.71609325,6.47742879 2.79352483,6.53205599 2.82277676,6.60229097 C2.8461783,6.65861466 2.87646265,6.71459906 2.91259739,6.76888696 C3.06918124,7.00198564 3.31524159,7.15704546 3.60500776,7.20556527 C3.67727723,7.21744075 3.75367639,7.22354814 3.83214038,7.22354814 C3.98080901,7.22354814 4.14324325,7.20149368 4.31531343,7.15806335 C4.61505967,7.08172099 4.9096438,7.01148602 5.21730527,6.98807436 C5.29989895,6.98162768 5.38524576,6.97823468 5.47024842,6.97823468 C5.60205417,6.97823468 5.73798961,6.98603857 5.8753016,7.00164634 C6.06354637,7.0226829 6.24697318,7.06747042 6.42420545,7.11056144 C6.54671942,7.14041979 6.6737072,7.17129603 6.80000671,7.19368979 C6.90565779,7.21269056 7.00958818,7.22219094 7.10904474,7.22219094 C7.40741442,7.22219094 7.66551967,7.13600889 7.85617342,6.97246659 C7.98729089,6.8601585 8.06506661,6.72443874 8.13010914,6.59414778 C8.13079742,6.59312988 8.1332064,6.58770109 8.13389468,6.5863439 C8.13561538,6.5829509 8.13768022,6.57955791 8.14008921,6.57650421 C8.17175012,6.528663 8.24092233,6.48625058 8.29151096,6.4747144 C8.30080275,6.4726786 8.3097504,6.4716607 8.31800977,6.4716607 C8.34519685,6.4716607 8.3685984,6.48183969 8.38614955,6.50151905 C8.42503741,6.54461007 8.42021945,6.61891664 8.4164339,6.64877498 C8.40335657,6.7505648 8.3541445,6.85506901 8.25985005,6.97755608 C8.03753538,7.26765706 7.68135013,7.46852229 7.30692544,7.5153456 C7.2511747,7.52213159 7.19301498,7.52586389 7.13416698,7.52586389" id="Fill-30" fill="#2F7A86"></path>
                                        </g>
                                    </g>
                                    <circle id="Oval" fill="#FFF0B3" transform="translate(6.066538, 12.293662) rotate(109.000000) translate(-6.066538, -12.293662) " cx="6.06653792" cy="12.2936621" r="1"></circle>
                                    <circle id="Oval-Copy-2" fill="#FFDA2A" transform="translate(5.948537, 12.956565) rotate(109.000000) translate(-5.948537, -12.956565) " cx="5.9485367" cy="12.9565653" r="1"></circle>
                                    <circle id="Oval-Copy-3" fill="#FFE473" transform="translate(6.006856, 12.841736) rotate(109.000000) translate(-6.006856, -12.841736) " cx="6.00685569" cy="12.8417361" r="1"></circle>
                                    <circle id="Oval-Copy" fill="#FFF0B3" transform="translate(6.261936, 12.398630) rotate(109.000000) translate(-6.261936, -12.398630) " cx="6.26193582" cy="12.3986298" r="1"></circle>
                                </g>
                                <path d="M7.92913105,14.8728639 C8.00239119,14.4633047 8.11027616,14.3131622 8.06221896,14.0150153 C7.11101793,14.5309603 5.6178213,13.5177021 5.6178213,13.5177021 C5.6178213,13.5177021 4.67532028,14.4333517 3.12837576,14.0050969 C2.84086116,15.1740285 3.66694777,16.1957221 4.32690562,16.5876772 C5.10452075,17.0493766 5.92273591,17.1672487 6.95140845,16.9408854 C7.35202317,16.8527873 7.81312367,16.6725124 8.14786689,16.502842 C8.56173876,16.2927932 8.78255329,16.3600904 8.88073911,16.5158935 C8.97188206,16.6598687 8.95779633,16.8805219 8.89441055,17.0273521 C8.86623909,17.0917942 8.8239819,17.183971 8.80119616,17.28716 C8.78006757,17.3821918 8.77551042,17.4857887 8.81403903,17.5857148 C8.87866767,17.7533459 9.06468216,17.9099648 9.49678263,17.9923529 C9.49678263,17.9923529 9.10279649,17.7672132 9.22252519,17.3593515 C9.24199664,17.2928701 9.27472524,17.2219021 9.32526816,17.1460399 C9.56845413,16.8197505 9.76938292,16.1406608 9.35012533,15.8266072 C9.28839669,15.780111 9.21299661,15.741772 9.12185365,15.7136296 C8.83516763,15.6251236 8.54309588,15.7491135 8.2970099,15.9330592 C8.17769549,16.0223809 8.06873823,16.1255699 7.97718099,16.2259039 C7.70623784,16.5207879 7.37688034,16.2732158 7.66563779,15.5415119 C7.66812351,15.5349861 7.8019452,15.075979 7.92913105,14.8728639 Z" id="Fill-9" fill="#C6E7F9"></path>
                                <path d="M7.771812,14.9650495 C7.95721116,14.5485391 8.03118446,14.3226196 7.98756113,14.0519804 C7.08170264,14.3864874 5.61442208,13.5163589 5.61442208,13.5163589 C5.61442208,13.5163589 4.81963521,14.2934462 3.42000864,14.0576122 C3.15902078,15.1186956 3.9088908,16.0461255 4.50795948,16.4019179 C5.21383011,16.8210199 5.98133968,17.0418214 6.91510461,16.8363429 C7.27875773,16.7563729 7.66276746,16.5972833 7.96662653,16.443267 C8.34231367,16.2525977 8.75827479,16.1428489 8.88488178,16.2723834 C9.01148878,16.4019179 9.045162,16.5832789 9.045162,16.7225384 C9.045162,16.7995695 8.90556526,17.0323885 8.88488178,17.126057 C8.86570256,17.212321 8.81243403,17.3588885 8.82554386,17.4524029 C8.8505433,17.6307275 8.88488178,17.6737402 9.1815714,17.8091878 C9.1815714,17.8091878 8.93647974,17.6568146 9.045162,17.2865831 C9.06283697,17.2262354 9.25838166,16.8540988 9.30426137,16.7852358 C9.52501047,16.4890506 9.60765199,16.3325768 9.30426137,15.8757473 C9.26961948,15.8235854 9.17166109,15.7835576 9.08892719,15.7580116 C8.82869145,15.6776714 8.5701451,15.8266049 8.34676355,15.9935793 C8.23845735,16.07466 8.01907736,16.2476476 7.93596739,16.3387246 C7.69002206,16.606402 7.27653677,16.1164694 7.53865282,15.4522742 C7.5409092,15.4463505 7.6563606,15.1494248 7.771812,14.9650495 Z" id="Fill-9-Copy" fill="#D1EBF9"></path>
                                <path d="M4.69140857,15.0998209 C3.9741091,15.0184606 3.38358067,14.6179781 3.07908946,13.9745996 C2.97679004,15.233315 3.70612473,16.0927329 4.99509744,16.2060844 C6.33943218,16.3241754 7.56457502,15.8727681 8.02271596,14.6815896 C8.04940152,14.5771761 8.15968061,14.4006358 8.06195512,14.0151826 C7.30413706,14.8706509 5.78220122,15.2238362 4.69140857,15.0998209 Z" id="Fill-27" fill="#BBD81E"></path>
                                <path d="M5.18040606,15.310276 C4.45960115,15.310276 3.47167104,14.8940367 3.09483519,14.019294 C2.9576826,15.3387274 3.78407686,15.892588 5.03038979,16.0021881 C6.33023249,16.1163707 7.20802364,15.6634689 7.88963016,14.7835543 C7.90796817,14.7413492 8.05540041,14.5295171 8.06247938,14.4633669 C8.06955835,14.3972168 8.10446958,14.2496869 8.06247938,14.0151261 C7.33153948,14.786561 6.24480978,15.310276 5.18040606,15.310276 Z" id="Fill-27-Copy" fill="#CCEA2C"></path>
                            </g>
                        </g>
                    </g>
                    <circle id="Oval" fill="#F76C7D" fill-rule="nonzero" cx="13" cy="17" r="5"></circle>
                    <circle id="Oval-Copy" fill="#FFAB21" fill-rule="nonzero" cx="29" cy="17" r="5"></circle>
                    <circle id="Oval-Copy-2" fill="#B8E986" fill-rule="nonzero" cx="45" cy="17" r="5"></circle>
                    <path d="M95.187,16.146 L101.622,16.146 L101.622,16.927 L98.85,16.927 L98.85,24 L97.959,24 L97.959,16.927 L95.187,16.927 L95.187,16.146 Z M105.479333,18.159 C106.293333,18.159 106.887333,18.368 107.283333,18.797 C107.613333,19.171 107.789333,19.688 107.789333,20.348 L107.789333,24 L106.964333,24 L106.964333,23.043 C106.744333,23.351 106.447333,23.604 106.095333,23.802 C105.677333,24.033 105.204333,24.154 104.676333,24.154 C104.104333,24.154 103.653333,24.011 103.312333,23.725 C102.960333,23.428 102.784333,23.043 102.784333,22.581 C102.784333,21.932 103.037333,21.448 103.565333,21.118 C104.027333,20.81 104.687333,20.645 105.545333,20.634 L106.909333,20.612 L106.909333,20.315 C106.909333,19.358 106.414333,18.885 105.424333,18.885 C105.006333,18.885 104.665333,18.962 104.401333,19.138 C104.104333,19.314 103.917333,19.589 103.829333,19.952 L102.960333,19.886 C103.081333,19.292 103.378333,18.841 103.840333,18.555 C104.258333,18.291 104.797333,18.159 105.479333,18.159 Z M106.909333,21.272 L105.600333,21.294 C104.324333,21.316 103.686333,21.734 103.686333,22.559 C103.686333,22.823 103.785333,23.032 104.005333,23.208 C104.225333,23.373 104.511333,23.461 104.863333,23.461 C105.402333,23.461 105.875333,23.285 106.293333,22.933 C106.700333,22.592 106.909333,22.196 106.909333,21.756 L106.909333,21.272 Z M109.666666,15.992 L110.546666,15.992 L110.546666,19.358 C110.986666,18.555 111.613666,18.159 112.427666,18.159 C113.230666,18.159 113.868666,18.456 114.330666,19.072 C114.748666,19.622 114.968666,20.304 114.968666,21.14 C114.968666,21.998 114.748666,22.702 114.330666,23.252 C113.857666,23.846 113.208666,24.154 112.383666,24.154 C111.503666,24.154 110.876666,23.791 110.491666,23.065 L110.491666,24 L109.666666,24 L109.666666,15.992 Z M112.240666,18.885 C111.723666,18.885 111.305666,19.083 110.997666,19.501 C110.667666,19.908 110.513666,20.447 110.513666,21.107 L110.513666,21.217 C110.513666,21.855 110.656666,22.372 110.942666,22.768 C111.250666,23.208 111.701666,23.428 112.273666,23.428 C112.889666,23.428 113.351666,23.197 113.659666,22.757 C113.923666,22.361 114.066666,21.822 114.066666,21.14 C114.066666,20.458 113.923666,19.93 113.637666,19.545 C113.318666,19.105 112.856666,18.885 112.240666,18.885 Z M120.912333,16.146 L121.858333,16.146 L126.302333,22.537 L126.335333,22.537 L126.335333,16.146 L127.237333,16.146 L127.237333,24 L126.313333,24 L121.847333,17.543 L121.814333,17.543 L121.814333,24 L120.912333,24 L120.912333,16.146 Z M131.699666,18.159 C132.513666,18.159 133.107666,18.368 133.503666,18.797 C133.833666,19.171 134.009666,19.688 134.009666,20.348 L134.009666,24 L133.184666,24 L133.184666,23.043 C132.964666,23.351 132.667666,23.604 132.315666,23.802 C131.897666,24.033 131.424666,24.154 130.896666,24.154 C130.324666,24.154 129.873666,24.011 129.532666,23.725 C129.180666,23.428 129.004666,23.043 129.004666,22.581 C129.004666,21.932 129.257666,21.448 129.785666,21.118 C130.247666,20.81 130.907666,20.645 131.765666,20.634 L133.129666,20.612 L133.129666,20.315 C133.129666,19.358 132.634666,18.885 131.644666,18.885 C131.226666,18.885 130.885666,18.962 130.621666,19.138 C130.324666,19.314 130.137666,19.589 130.049666,19.952 L129.180666,19.886 C129.301666,19.292 129.598666,18.841 130.060666,18.555 C130.478666,18.291 131.017666,18.159 131.699666,18.159 Z M133.129666,21.272 L131.820666,21.294 C130.544666,21.316 129.906666,21.734 129.906666,22.559 C129.906666,22.823 130.005666,23.032 130.225666,23.208 C130.445666,23.373 130.731666,23.461 131.083666,23.461 C131.622666,23.461 132.095666,23.285 132.513666,22.933 C132.920666,22.592 133.129666,22.196 133.129666,21.756 L133.129666,21.272 Z M138.372999,18.159 C139.241999,18.159 139.835999,18.511 140.154999,19.237 C140.374999,18.863 140.638999,18.588 140.946999,18.423 C141.221999,18.247 141.551999,18.159 141.947999,18.159 C142.541999,18.159 143.014999,18.346 143.388999,18.72 C143.740999,19.105 143.927999,19.622 143.927999,20.271 L143.927999,24 L143.047999,24 L143.047999,20.414 C143.047999,19.908 142.937999,19.534 142.728999,19.292 C142.508999,19.028 142.156999,18.907 141.672999,18.907 C141.298999,18.907 140.979999,19.039 140.737999,19.325 C140.473999,19.611 140.352999,19.974 140.352999,20.436 L140.352999,24 L139.472999,24 L139.472999,20.414 C139.472999,19.402 139.032999,18.907 138.163999,18.907 C137.756999,18.907 137.426999,19.061 137.162999,19.391 C136.898999,19.699 136.766999,20.084 136.766999,20.535 L136.766999,24 L135.886999,24 L135.886999,18.313 L136.766999,18.313 L136.766999,19.072 C137.195999,18.456 137.734999,18.159 138.372999,18.159 Z M148.148332,18.159 C149.061332,18.159 149.754332,18.467 150.216332,19.083 C150.634332,19.633 150.854332,20.414 150.876332,21.404 L146.388332,21.404 C146.432332,22.042 146.597332,22.537 146.905332,22.889 C147.213332,23.241 147.642332,23.417 148.181332,23.417 C148.643332,23.417 149.028332,23.296 149.314332,23.065 C149.556332,22.867 149.743332,22.57 149.886332,22.174 L150.766332,22.174 C150.634332,22.724 150.381332,23.164 149.996332,23.516 C149.523332,23.934 148.918332,24.154 148.181332,24.154 C147.367332,24.154 146.707332,23.879 146.223332,23.351 C145.717332,22.801 145.475332,22.075 145.475332,21.151 C145.475332,20.315 145.706332,19.611 146.190332,19.05 C146.674332,18.456 147.323332,18.159 148.148332,18.159 Z M148.170332,18.896 C147.664332,18.896 147.257332,19.061 146.949332,19.391 C146.641332,19.721 146.465332,20.161 146.410332,20.722 L149.963332,20.722 C149.853332,19.501 149.248332,18.896 148.170332,18.896 Z" id="Tab-Name" fill-opacity="0.65" fill="#000000"></path>
                    <g id="times-solid-(1)" transform="translate(174.000000, 15.000000)" fill="#000000" opacity="0.1">
                        <path d="M6.20590909,4.5 L8.76451705,1.94139205 C9.07849432,1.62741477 9.07849432,1.11835227 8.76451705,0.804119318 L8.19588068,0.235482955 C7.88190341,-0.0784943182 7.37284091,-0.0784943182 7.05860795,0.235482955 L4.5,2.79409091 L1.94139205,0.235482955 C1.62741477,-0.0784943182 1.11835227,-0.0784943182 0.804119318,0.235482955 L0.235482955,0.804119318 C-0.0784943182,1.11809659 -0.0784943182,1.62715909 0.235482955,1.94139205 L2.79409091,4.5 L0.235482955,7.05860795 C-0.0784943182,7.37258523 -0.0784943182,7.88164773 0.235482955,8.19588068 L0.804119318,8.76451705 C1.11809659,9.07849432 1.62741477,9.07849432 1.94139205,8.76451705 L4.5,6.20590909 L7.05860795,8.76451705 C7.37258523,9.07849432 7.88190341,9.07849432 8.19588068,8.76451705 L8.76451705,8.19588068 C9.07849432,7.88190341 9.07849432,7.37284091 8.76451705,7.05860795 L6.20590909,4.5 Z" id="Path"></path>
                    </g>
                </g>
            </g>
        </g>
    </g>
</svg>