<?xml version="1.0" encoding="UTF-8"?>
<svg width="176px" height="36px" viewBox="0 0 176 36" version="1.1" xmlns="http://www.w3.org/2000/svg" xmlns:xlink="http://www.w3.org/1999/xlink">
    <title>廣告分析/LOGO/FB</title>
    <g id="廣告分析/LOGO/FB" stroke="none" stroke-width="1" fill="none" fill-rule="evenodd">
        <g id="Facebook-Logo.wine" fill="#1877F2" fill-rule="nonzero">
            <path d="M11.0632017,34.2261949 L4.48273597,34.2261949 L4.48273597,17.847959 L0,17.847959 L0,12.5155385 L4.48256133,12.5155385 L4.48256133,8.72113846 C4.48256133,4.22476923 6.46520582,1 13.0278586,1 C14.4158669,1 16.5949771,1.27932308 16.5949771,1.27932308 L16.5949771,6.23076923 L14.3061954,6.23076923 C11.974104,6.23076923 11.0635509,6.93901538 11.0635509,8.89706667 L11.0635509,12.5155385 L16.507659,12.5155385 L16.022869,17.847959 L11.0633763,17.847959 L11.0632017,34.2261949 Z M26.1622453,12.0894051 C26.0663701,12.0894051 25.9677006,12.0928923 25.870079,12.0953333 C19.7682911,12.0953333 16.9765572,16.6778359 16.9765572,23.1828205 C16.9765572,31.3773436 20.5978129,34.6570359 25.9177547,34.6570359 C28.9614886,34.6570359 30.9612474,33.3779385 32.1767152,30.9909641 L32.1767152,34.2284615 L38.4356757,34.2284615 L38.4356757,12.5178051 L32.1767152,12.5178051 L32.1767152,15.8566051 C31.1842578,13.7085026 29.1286154,12.1148615 26.1622453,12.0894051 Z M27.7537048,17.2195692 C30.3164906,17.2195692 31.8546861,19.0043077 31.8546861,22.0400718 L31.8606237,25.1406974 C31.8606237,27.1868 30.5901455,29.5805744 27.7537048,29.5805744 C23.3930395,29.5805744 23.5095218,24.8795077 23.5095218,23.3137641 C23.5095218,18.0469026 25.8328815,17.2195692 27.7537048,17.2195692 Z M40.9632987,23.3742667 C40.9632987,20.736041 40.8369231,12.1035282 52.1016549,12.1035282 C56.6235094,12.1035282 58.5116757,13.5390256 58.5116757,13.5390256 L56.9940873,18.2385231 C56.9940873,18.2385231 55.1083659,17.2017846 52.6512349,17.2017846 C49.5041164,17.2017846 47.4959751,19.0233128 47.4959751,22.2282051 L47.4994678,24.5262564 C47.4994678,27.6057846 49.4370561,29.6614769 52.6576965,29.6614769 C54.896183,29.6614769 56.9593347,28.6149744 56.9593347,28.6149744 L58.4730811,33.2163077 C58.4730811,33.2163077 56.7466279,34.6608718 52.133264,34.6608718 C41.4074595,34.6608718 40.9635343,26.9158462 40.9635343,23.3742667 L40.9632987,23.3742667 Z M95.2102453,12.0953333 C101.312208,12.0953333 104.14795,16.6778359 104.14795,23.1828205 C104.14795,31.3773436 100.52652,34.6570359 95.206578,34.6570359 C92.1628441,34.6570359 89.9128316,33.3781128 88.6973638,30.9909641 L88.6973638,34.2284615 L82.5171642,34.2260205 L82.5171642,1.66012308 L89.0789439,1.08874872 L89.0789439,15.5624615 C90.0259958,13.0302462 93.1383617,12.0953333 95.21042,12.0953333 L95.2102453,12.0953333 Z M93.3706279,17.2195692 C90.807842,17.2195692 89.0789439,19.0043077 89.0789439,22.0400718 L89.0728224,25.1406974 C89.0689896,27.1868 90.2701372,29.5805744 93.3706279,29.5805744 C97.7312931,29.5805744 97.6148108,24.8795077 97.6148108,23.3137641 C97.6148108,18.0469026 95.2916258,17.2195692 93.3706279,17.2195692 Z M69.8969064,12.1131179 C62.9760748,12.1131179 59.3223368,15.8806667 59.3223368,22.5757026 L59.3223368,23.8195795 C59.3223368,32.5091077 64.4533222,34.7463077 70.5704782,34.7463077 C76.516316,34.7463077 79.2076341,33.0858872 79.2076341,33.0858872 L77.9797672,28.6641436 C77.9797672,28.6641436 74.8139626,30.0089744 71.3572141,30.0089744 C67.7736798,30.0089744 66.2325156,29.0970769 65.8374886,25.6587179 L79.7322412,25.6587179 L79.7322412,22.1113846 C79.7322412,14.8489846 75.6316091,12.1131179 69.8967318,12.1131179 L69.8969064,12.1131179 Z M70.063684,16.5409641 C72.459343,16.5409641 74.011684,18.0076718 73.9264615,21.409241 L65.8495385,21.409241 C65.9895967,17.8291282 67.663659,16.5411385 70.063684,16.5411385 L70.063684,16.5409641 Z M117.231867,12.0834769 C110.124699,12.0834769 106.383119,16.0822256 106.383119,23.2482051 C106.383119,33.0803077 112.832782,34.6629641 117.243742,34.6629641 C123.701089,34.6629641 127.997139,31.192 127.997139,23.3374769 C127.997139,15.1623077 123.166703,12.0834769 117.231867,12.0834769 Z M117.142453,17.2373538 C120.267568,17.2373538 121.505913,19.5725436 121.505913,22.2306462 L121.505913,24.5159692 C121.505913,27.7360308 119.773173,29.5985333 117.130578,29.5985333 C114.659127,29.5985333 112.922195,27.8563385 112.922195,24.5159692 L112.922195,22.2306462 C112.922195,18.6681436 114.989015,17.2373538 117.142453,17.2373538 L117.142453,17.2373538 Z M141.069356,12.0834769 C133.962187,12.0834769 130.220607,16.0822256 130.220607,23.2482051 C130.220607,33.0803077 136.67027,34.6629641 141.081231,34.6629641 C147.538403,34.6629641 151.834628,31.192 151.834628,23.3374769 C151.834628,15.1623077 147.004017,12.0834769 141.069356,12.0834769 Z M140.979942,17.2373538 C144.105056,17.2373538 145.343227,19.5725436 145.343227,22.2306462 L145.343227,24.5159692 C145.343227,27.7360308 143.610486,29.5985333 140.968067,29.5985333 C138.496615,29.5985333 136.759684,27.8563385 136.759684,24.5159692 L136.759684,22.2306462 C136.759684,18.6681436 138.826503,17.2373538 140.979942,17.2373538 L140.979942,17.2373538 Z M154.314287,34.2261949 L154.314287,1.66012308 L160.895102,1.08892308 L160.895102,22.9167487 L167.42405,12.5157128 L174.373871,12.5157128 L167.56306,23.2881333 L174.636175,34.2261949 L167.66662,34.2261949 L160.895102,23.6052923 L160.895102,34.2261949 L154.314287,34.2261949 Z" id="Shape"></path>
        </g>
    </g>
</svg>