<?xml version="1.0" encoding="UTF-8"?>
<svg width="201px" height="36px" viewBox="0 0 201 36" version="1.1" xmlns="http://www.w3.org/2000/svg" xmlns:xlink="http://www.w3.org/1999/xlink">
    <title>廣告分析/LOGO/Gads</title>
    <g id="廣告分析/LOGO/Gads" stroke="none" stroke-width="1" fill="none" fill-rule="evenodd">
        <g id="Group-2" fill-rule="nonzero">
            <path d="M153.195228,27.8584165 L160.897158,7.43403996 L163.863823,7.43403996 L171.565752,27.8584165 L168.656135,27.8584165 L166.687865,22.3244392 L158.101636,22.3244392 L156.104842,27.8584165 L153.195228,27.8584165 Z M158.985935,19.8712335 L165.775045,19.8712335 L162.43754,10.6574422 L162.323441,10.6574422 L158.985935,19.8712335 Z M178.925376,28.3148246 C177.118336,28.3148246 175.559344,27.6016831 174.247164,26.1754002 C172.934984,24.7491209 172.278897,22.9805292 172.278897,20.8696287 C172.278897,18.7587318 172.934984,16.9901401 174.247164,15.5638571 C175.559344,14.1375705 177.118336,13.4244291 178.925376,13.4244291 C179.990748,13.4244291 180.946974,13.6526385 181.792822,14.1090466 C182.638673,14.5654583 183.271198,15.1359693 183.689161,15.8205869 L183.803264,15.8205869 L183.689161,13.8808408 L183.689161,7.43403996 L186.313525,7.43403996 L186.313525,27.8584165 L183.803264,27.8584165 L183.803264,25.9186704 L183.689161,25.9186704 C183.271198,26.6032916 182.638673,27.1738026 181.791587,27.6302107 C180.944493,28.0866224 179.990748,28.3148246 178.925376,28.3148246 L178.925376,28.3148246 Z M179.353257,25.9186704 C180.589782,25.9186704 181.64027,25.4622624 182.505963,24.549439 C183.371656,23.6366192 183.803264,22.4100145 183.803264,20.8696287 C183.803264,19.3292428 183.370421,18.1026418 182.505963,17.1898184 C181.641516,16.2769986 180.589782,15.8205869 179.353257,15.8205869 C178.136577,15.8205869 177.089812,16.2819608 176.215434,17.2034591 C175.341066,18.1249647 174.903254,19.3490882 174.903254,20.8696287 C174.903254,22.3901728 175.341066,23.6130503 176.215434,24.5345558 C177.089812,25.4560614 178.136577,25.9186704 179.353257,25.9186704 L179.353257,25.9186704 Z M194.557441,28.3148246 C192.998452,28.3148246 191.709834,27.934071 190.692832,27.1738026 C189.675834,26.4135306 188.927964,25.4622624 188.452949,24.3212331 L190.792052,23.3513582 C191.533721,25.1001082 192.798774,25.9757219 194.585965,25.9757219 C195.404527,25.9757219 196.074258,25.7946466 196.596403,25.4337312 C197.118549,25.072823 197.381479,24.5965695 197.381479,24.0074519 C197.381479,23.0946285 196.743996,22.4769869 195.470264,22.1532848 L192.646222,21.4686672 C191.753244,21.240465 190.906151,20.8076149 190.107438,20.1701316 C189.308717,19.532641 188.909357,18.6731528 188.909357,17.5891786 C188.909357,16.3526494 189.455064,15.3492957 190.550205,14.5790991 C191.645342,13.8089062 192.941397,13.4244291 194.443334,13.4244291 C195.679867,13.4244291 196.782441,13.7047277 197.752316,14.2653179 C198.722187,14.825908 199.416722,15.6295871 199.834689,16.6763516 L197.552637,17.6177025 C197.039174,16.381177 195.973803,15.7635318 194.357763,15.7635318 C193.577645,15.7635318 192.921552,15.9247689 192.389493,16.248471 C191.857423,16.5721732 191.590772,17.0087395 191.590772,17.5606511 C191.590772,18.3593715 192.20841,18.901355 193.444943,19.1866123 L196.211926,19.842706 C197.52411,20.1465627 198.493981,20.6699467 199.121547,21.4116157 C199.74911,22.1532848 200.062891,22.9904501 200.062891,23.9218765 C200.062891,25.1770014 199.549431,26.2225308 198.522509,27.0596997 C197.495586,27.896865 196.173485,28.3148246 194.557441,28.3148246 L194.557441,28.3148246 Z" id="path2" fill="#747474"></path>
            <g id="g6" transform="translate(52.090347, 4.960985)" fill="#747474">
                <path d="M12.8985621,23.3166314 C6.57330567,23.3166314 1.11622172,18.1075968 1.11622172,11.7823404 C1.11622172,5.45708395 6.44928104,0.248049271 12.8985621,0.248049271 C16.3712519,0.248049271 18.9757692,1.61232026 20.8361387,3.47268979 L18.6036953,5.70513322 C17.2394243,4.46488687 15.3790548,3.47268979 12.8985621,3.47268979 C8.30965057,3.47268979 4.58891151,7.19342885 4.58891151,11.906365 C4.58891151,16.6193011 8.18562593,20.3400402 12.8985621,20.3400402 C15.8751533,20.3400402 17.6114982,19.0997938 18.7277199,17.9835721 C19.5958924,17.1153997 20.2160156,15.7511287 20.4640648,14.0147838 L12.8985621,14.0147838 L12.8985621,10.9141679 L23.5646807,10.9141679 C23.6887053,11.5342911 23.6887053,12.1544143 23.6887053,12.8985621 C23.6887053,15.2550301 23.0685822,18.2316214 20.9601634,20.3400402 C18.8517446,22.2004097 16.2472272,23.3166314 12.8985621,23.3166314 L12.8985621,23.3166314 Z M40.0599572,15.8751533 C40.0599572,20.2160156 36.7112921,23.3166314 32.7425037,23.3166314 C28.6496908,23.3166314 25.4250502,20.2160156 25.4250502,15.8751533 C25.4250502,11.5342911 28.7737154,8.4336752 32.7425037,8.4336752 C36.8353167,8.4336752 40.0599572,11.6583157 40.0599572,15.8751533 Z M36.8353167,15.8751533 C36.8353167,13.1466113 34.9749472,11.4102664 32.7425037,11.4102664 C30.5100603,11.4102664 28.6496908,13.270636 28.6496908,15.8751533 C28.6496908,18.4796707 30.5100603,20.3400402 32.7425037,20.3400402 C34.9749472,20.4640648 36.8353167,18.6036953 36.8353167,15.8751533 Z M56.5552337,15.8751533 C56.5552337,20.2160156 53.2065686,23.3166314 49.2377802,23.3166314 C45.1449673,23.3166314 41.9203267,20.2160156 41.9203267,15.8751533 C41.9203267,11.5342911 45.2689919,8.4336752 49.2377802,8.4336752 C53.2065686,8.4336752 56.5552337,11.6583157 56.5552337,15.8751533 Z M53.3305932,15.8751533 C53.3305932,13.1466113 51.4702237,11.4102664 49.2377802,11.4102664 C47.0053368,11.4102664 45.1449673,13.270636 45.1449673,15.8751533 C45.1449673,18.4796707 47.0053368,20.3400402 49.2377802,20.3400402 C51.346199,20.4640648 53.3305932,18.6036953 53.3305932,15.8751533 Z M72.5544117,8.92977374 L72.5544117,22.3244344 C72.5544117,27.7815183 69.3297711,30.1379864 65.4850074,30.1379864 C61.888293,30.1379864 59.6558496,27.6574937 58.9117018,25.7971241 L61.7642684,24.5568778 C62.2603669,25.7971241 63.5006133,27.1613951 65.4850074,27.1613951 C67.9655002,27.1613951 69.4537958,25.6730995 69.4537958,22.8205329 L69.4537958,21.7043112 L69.3297711,21.7043112 C68.5856233,22.5724836 67.2213523,23.4406561 65.3609828,23.4406561 C61.6402438,23.4406561 58.2915786,20.2160156 58.2915786,15.999178 C58.2915786,11.7823404 61.7642684,8.55769984 65.3609828,8.55769984 C67.0973277,8.55769984 68.5856233,9.30184765 69.3297711,10.1700201 L69.4537958,10.1700201 L69.4537958,8.92977374 L72.5544117,8.92977374 Z M69.701845,15.999178 C69.701845,13.3946606 67.9655002,11.4102664 65.7330567,11.4102664 C63.5006133,11.4102664 61.6402438,13.270636 61.6402438,15.999178 C61.6402438,18.6036953 63.5006133,20.4640648 65.7330567,20.4640648 C67.9655002,20.4640648 69.701845,18.4796707 69.701845,15.999178 Z M78.2595449,0.992197083 L78.2595449,22.8205329 L75.0349044,22.8205329 L75.0349044,0.992197083 L78.2595449,0.992197083 Z M91.158107,18.355646 L93.6385997,20.0919909 C92.7704272,21.3322373 90.9100577,23.4406561 87.4373679,23.4406561 C83.2205303,23.4406561 80.1199144,20.2160156 80.1199144,15.999178 C80.1199144,11.5342911 83.2205303,8.55769984 87.065294,8.55769984 C90.9100577,8.55769984 92.7704272,11.6583157 93.3905504,13.270636 L93.7626243,14.1388084 L83.8406535,18.2316214 C84.5848013,19.719917 85.8250476,20.4640648 87.4373679,20.4640648 C89.0496882,20.4640648 90.2899345,19.5958924 91.158107,18.355646 Z M83.3445549,15.6271041 L90.0418852,12.8985621 C89.6698113,12.0303896 88.5535896,11.2862418 87.3133433,11.2862418 C85.5769984,11.2862418 83.2205303,12.7745374 83.3445549,15.6271041 Z" id="path4"></path>
            </g>
            <g id="g14" transform="translate(0.000000, -0.000000)">
                <path d="M0.826004071,23.379884 L12.7683362,2.93566312 C14.2851575,3.82864049 21.9337568,8.0616013 23.1678019,8.86652118 L11.22671,29.3107421 C9.92197083,31.0359247 -0.827244318,25.9980441 0.826004071,23.379884 Z" id="path8" fill="#FBBC04"></path>
                <path d="M35.1634646,23.379884 L23.2223727,2.93566312 C21.5530011,0.158751533 17.9575269,-0.850808998 15.0045004,0.790036927 C12.0514738,2.43088285 11.1522952,5.96558496 12.8216668,8.86776143 L24.7627587,29.3119823 C26.4321303,32.0888939 30.0276045,33.0984544 32.980631,31.4576085 C35.8059122,29.8167626 36.8328362,26.1567956 35.1634646,23.3811243 L35.1634646,23.379884 Z" id="path10" fill="#4285F4"></path>
                <ellipse id="ellipse12" fill="#34A853" cx="5.99411087" cy="26.4023644" rx="5.99411087" ry="5.84528081"></ellipse>
            </g>
        </g>
    </g>
</svg>