<?xml version="1.0" encoding="UTF-8"?>
<svg width="258px" height="36px" viewBox="0 0 258 36" version="1.1" xmlns="http://www.w3.org/2000/svg" xmlns:xlink="http://www.w3.org/1999/xlink">
    <title>5021352D-C5D8-475A-99CA-507CBAF065A1</title>
    <g id="ads-analytics" stroke="none" stroke-width="1" fill="none" fill-rule="evenodd">
        <g id="web-track_merchant-ceenter" transform="translate(-510.000000, -208.000000)">
            <g id="Group-4" transform="translate(252.000000, 208.000000)">
                <g id="Group" transform="translate(258.000000, 0.000000)">
                    <text id="Merchant-Center" font-family="NotoSansCJKtc-Light, Noto Sans CJK TC" font-size="21" font-weight="300" fill="#848484">
                        <tspan x="96.2631579" y="27">Merchant Center</tspan>
                    </text>
                    <g id="Google-Logo.wine" transform="translate(0.000000, 3.000000)" fill-rule="nonzero">
                        <path d="M38.982476,15.7801495 C38.982476,20.0942687 35.6075307,23.2732712 31.465706,23.2732712 C27.3238812,23.2732712 23.948936,20.0942687 23.948936,15.7801495 C23.948936,11.4356254 27.3238812,8.28702778 31.465706,8.28702778 C35.6075307,8.28702778 38.982476,11.4356254 38.982476,15.7801495 Z M35.6919888,15.7801495 C35.6919888,13.0842473 33.7359394,11.2396826 31.465706,11.2396826 C29.1954725,11.2396826 27.2394231,13.0842473 27.2394231,15.7801495 C27.2394231,18.4490252 29.1954725,20.3206164 31.465706,20.3206164 C33.7359394,20.3206164 35.6919888,18.4456468 35.6919888,15.7801495 Z" id="Shape" fill="#EA4335"></path>
                        <path d="M55.1984292,15.7801495 C55.1984292,20.0942687 51.8234839,23.2732712 47.6816592,23.2732712 C43.5398345,23.2732712 40.1648892,20.0942687 40.1648892,15.7801495 C40.1648892,11.4390037 43.5398345,8.28702778 47.6816592,8.28702778 C51.8234839,8.28702778 55.1984292,11.4356254 55.1984292,15.7801495 Z M51.907942,15.7801495 C51.907942,13.0842473 49.9518927,11.2396826 47.6816592,11.2396826 C45.4114258,11.2396826 43.4553764,13.0842473 43.4553764,15.7801495 C43.4553764,18.4490252 45.4114258,20.3206164 47.6816592,20.3206164 C49.9518927,20.3206164 51.907942,18.4456468 51.907942,15.7801495 Z" id="Shape" fill="#FBBC05"></path>
                        <path d="M70.7387178,8.73972314 L70.7387178,22.1922077 C70.7387178,27.7259017 67.4752572,29.9860002 63.6172116,29.9860002 C59.9855137,29.9860002 57.7997384,27.5569856 56.9754274,25.5705313 L59.8402458,24.3779831 C60.3503727,25.5975579 61.6003524,27.0367237 63.6138333,27.0367237 C66.0833878,27.0367237 67.6137684,25.5130998 67.6137684,22.6449031 L67.6137684,21.5672178 L67.4989054,21.5672178 C66.7624309,22.4759869 65.343535,23.2698929 63.5530235,23.2698929 C59.8064626,23.2698929 56.3740858,20.0064323 56.3740858,15.8071761 C56.3740858,11.577515 59.8064626,8.28702778 63.5530235,8.28702778 C65.3401566,8.28702778 66.7590526,9.08093382 67.4989054,9.96267628 L67.6137684,9.96267628 L67.6137684,8.74310146 L70.7387178,8.74310146 L70.7387178,8.73972314 Z M67.8468728,15.8071761 C67.8468728,13.1687054 66.0867662,11.2396826 63.8469376,11.2396826 C61.5767042,11.2396826 59.674708,13.1687054 59.674708,15.8071761 C59.674708,18.4186202 61.5767042,20.3206164 63.8469376,20.3206164 C66.0867662,20.3206164 67.8468728,18.4186202 67.8468728,15.8071761 Z" id="Shape" fill="#4285F4"></path>
                        <polygon id="Path" fill="#34A853" points="75.8906612 0.854715869 75.8906612 22.8138192 72.6812538 22.8138192 72.6812538 0.854715869"></polygon>
                        <path d="M88.3972152,18.2463257 L90.9512278,19.9490008 C90.1269169,21.1685756 88.1404626,23.2698929 84.7080858,23.2698929 C80.4513981,23.2698929 77.2723956,19.9794057 77.2723956,15.7767712 C77.2723956,11.3207624 80.4784247,8.28364945 84.3398485,8.28364945 C88.228299,8.28364945 90.1302952,11.3781939 90.7519067,13.050464 L91.0931174,13.9018016 L81.076388,18.050383 C81.8432674,19.553737 83.0358156,20.3206164 84.7080858,20.3206164 C86.3837343,20.3206164 87.5458776,19.4963055 88.3972152,18.2463257 Z M80.5358562,15.5504235 L87.2316935,12.7700632 C86.8634563,11.8342676 85.7553661,11.1822511 84.4513332,11.1822511 C82.779063,11.1822511 80.4513981,12.6585785 80.5358562,15.5504235 L80.5358562,15.5504235 Z" id="Shape" fill="#EA4335"></path>
                        <path d="M11.8004843,13.8308568 L11.8004843,10.6518543 L22.5131484,10.6518543 C22.6178765,11.2058994 22.6719296,11.8612941 22.6719296,12.5707421 C22.6719296,14.9558386 22.0199132,17.9051151 19.9185959,20.0064323 C17.8747101,22.1347762 15.263266,23.2698929 11.8038626,23.2698929 C5.39180446,23.2698929 0,18.0470046 0,11.6349465 C0,5.22288828 5.39180446,0 11.8038626,0 C15.3511024,0 17.8780885,1.39186932 19.7767063,3.20602909 L17.5334995,5.44923596 C16.172035,4.17222964 14.3274704,3.1790025 11.8004843,3.1790025 C7.11812781,3.1790025 3.45602504,6.95258996 3.45602504,11.6349465 C3.45602504,16.317303 7.11812781,20.0908904 11.8004843,20.0908904 C14.8375972,20.0908904 16.5672989,18.8713156 17.675389,17.7632255 C18.5740231,16.8645914 19.1652298,15.5808284 19.3983341,13.8274785 L11.8004843,13.8308568 Z" id="Path" fill="#4285F4"></path>
                    </g>
                </g>
            </g>
        </g>
    </g>
</svg>