<?xml version="1.0" encoding="UTF-8"?>
<svg width="240px" height="36px" viewBox="0 0 240 36" version="1.1" xmlns="http://www.w3.org/2000/svg" xmlns:xlink="http://www.w3.org/1999/xlink">
    <title>廣告分析/LOGO/GA</title>
    <defs>
        <linearGradient x1="0.332681928%" y1="50.0011632%" x2="100.095384%" y2="50.0011632%" id="linearGradient-1">
            <stop stop-color="#E96F0B" offset="0%"></stop>
            <stop stop-color="#F37901" offset="100%"></stop>
        </linearGradient>
    </defs>
    <g id="廣告分析/LOGO/GA" stroke="none" stroke-width="1" fill="none" fill-rule="evenodd">
        <g id="google_analytics-horizontal_old" transform="translate(0.000000, 1.000000)" fill-rule="nonzero">
            <g id="Group" transform="translate(42.904762, 4.857143)" fill="#757575">
                <path d="M101.271429,6.03904762 L104.603429,14.7867619 L98.1466667,14.7867619 L101.271429,6.03904762 Z M100.021524,3.12314286 L92.7317619,22.2845714 L95.439619,22.2845714 L97.3144762,17.0777143 L105.437238,17.0777143 L107.312095,22.2845714 L110.019952,22.2845714 L102.73019,3.12314286 L100.022333,3.12314286 L100.021524,3.12314286 Z M139.38381,22.2845714 L141.88281,22.2845714 L141.88281,3.12314286 L139.38381,3.12314286 L139.38381,22.2845714 Z M113.758333,11.0370476 C114.592143,9.78714286 116.257333,8.74609524 117.924143,8.74609524 C121.256143,8.74609524 122.922952,11.0370476 122.922952,14.3698571 L122.922952,22.492619 L120.423952,22.492619 L120.423952,14.7859524 C120.423952,12.0780952 118.96681,11.0378571 117.091952,11.0378571 C115.009048,11.0378571 113.551095,13.1207619 113.551095,14.9948095 L113.551095,22.2845714 L111.052095,22.2845714 L111.052095,8.95495238 L113.551095,8.95495238 L113.759143,11.0378571 L113.758333,11.0370476 Z M125.006667,18.327619 C125.006667,15.4117143 127.714524,13.7457143 130.838476,13.7457143 C132.713333,13.7457143 133.963238,14.162619 134.379333,14.5795238 L134.379333,14.162619 C134.379333,12.0797143 132.713333,11.0378571 131.047333,11.0378571 C129.59019,11.0378571 128.339476,11.6628095 127.922571,12.9127143 L125.638095,11.8700476 C126.055,10.6201429 127.721,8.74528571 131.061905,8.74528571 C134.186667,8.74528571 136.893714,10.6201429 136.893714,14.3690476 L136.893714,22.2837619 L134.602762,22.2837619 L134.602762,20.4 L134.394714,20.4 C133.769762,21.4410476 132.31181,22.6909524 130.020857,22.6909524 C127.313,22.6909524 125.022048,21.0249524 125.022048,18.3170952 M134.394714,16.6510952 C134.394714,16.6510952 133.353667,15.8172857 131.269952,15.8172857 C128.770952,15.8172857 127.729095,17.2744286 127.729095,18.3162857 C127.729095,19.7734286 129.186238,20.3991905 130.436952,20.3991905 C132.31181,20.3991905 134.393905,18.7331905 134.393905,16.6510952" id="Shape"></path>
                <path d="M145.416381,28.1147619 L148.332286,21.2338095 L143.125429,9.15409524 L145.624429,9.15409524 L149.581381,18.3179048 L153.538333,9.15409524 L156.037333,9.15409524 L147.91619,28.1147619 L145.41719,28.1147619 L145.416381,28.1147619 Z M182.071619,13.5368571 C181.445857,11.8692381 179.988714,10.829 178.531571,10.829 C176.448667,10.829 174.574619,12.7038571 174.574619,15.4109048 C174.574619,18.1179524 176.449476,19.9928095 178.531571,19.9928095 C179.988714,19.9928095 181.447476,18.9517619 182.072429,17.4938095 L184.155333,18.7437143 C183.114286,21.0346667 181.030571,22.4918095 178.531571,22.4918095 C174.990714,22.4918095 172.07481,19.3670476 172.07481,15.4109048 C172.07481,11.2450952 174.990714,8.32919048 178.531571,8.32919048 C181.030571,8.32919048 183.113476,9.78633333 184.155333,12.0772857 L182.072429,13.5344286 L182.071619,13.5368571 Z" id="Shape"></path>
                <path d="M191.02819,22.7006667 C194.36019,22.7006667 196.027,20.8258095 196.027,18.5348571 C196.027,13.5360476 188.737238,15.4100952 188.737238,12.4958095 C188.737238,11.4547619 189.571048,10.8298095 191.02819,10.8298095 C192.485333,10.8298095 193.944095,11.4547619 194.569048,12.4958095 L196.02619,11.0386667 C195.192381,9.99761905 192.901429,8.53966667 190.819333,8.53966667 C187.694571,8.53966667 186.029381,10.4145238 186.029381,12.7054762 C186.029381,17.4954286 193.52719,15.8302381 193.52719,18.3292381 C193.52719,19.5791429 192.693381,20.4121429 191.02819,20.4121429 C189.363,20.4121429 188.52919,19.3710952 187.69619,18.3292381 L185.821333,19.786381 C187.071238,21.0362857 188.946095,22.7022857 191.02819,22.7022857 L191.02819,22.7006667 Z M167.284857,22.2837619 L169.783857,22.2837619 L169.783857,8.95495238 L167.284857,8.95495238 L167.284857,22.2845714 L167.284857,22.2837619 Z" id="Shape"></path>
                <path d="M168.326714,2.49819048 C169.367762,2.49819048 169.992714,3.332 169.992714,4.16419048 C169.992714,5.2052381 169.158905,5.83019048 168.326714,5.83019048 C167.494524,5.83019048 166.660714,4.99638095 166.660714,4.16419048 C166.660714,3.332 167.494524,2.49819048 168.326714,2.49819048 Z M164.786667,20.2024762 L165.203571,22.0773333 L162.704571,22.0773333 C160.413619,22.0773333 159.372571,20.4113333 159.372571,17.9115238 L159.372571,11.4547619 L156.873571,11.4547619 L156.873571,8.9557619 L159.372571,8.9557619 L159.372571,4.99880952 L161.871571,4.99880952 L161.871571,8.9557619 L164.787476,8.9557619 L164.787476,11.4547619 L161.871571,11.4547619 L161.871571,18.3357143 C161.871571,20.2105714 163.328714,20.2105714 164.787476,20.2105714 L164.786667,20.2024762 Z" id="Shape"></path>
                <path d="M11.288,10.829 L11.288,13.9537619 L18.5777619,13.9537619 C18.3697143,15.6197619 17.7439524,16.8696667 16.9117619,17.7018571 C15.8707143,18.7429048 14.2039048,19.9928095 11.288,19.9928095 C6.91414286,19.9928095 3.37328571,16.4519524 3.37328571,11.8700476 C3.37328571,7.49619048 6.91414286,3.74728571 11.288,3.74728571 C13.787,3.74728571 15.4538095,4.78833333 16.7118095,5.83019048 L18.7947143,3.74728571 C16.9198571,2.08128571 14.6289048,0.62252381 11.2969048,0.62252381 C5.25785714,0.62252381 0.0501904762,5.62133333 0.0501904762,11.6611905 C0.0501904762,17.7010476 5.24895238,22.6990476 11.2888095,22.6990476 C14.6208095,22.6990476 17.120619,21.658 18.9954762,19.5742857 C21.078381,17.491381 21.7033333,14.7843333 21.7033333,12.4925714 C21.7033333,11.867619 21.7033333,11.0354286 21.4952857,10.6177143 L11.2952857,10.6177143 L11.288,10.829 Z M29.8244762,8.33809524 C25.8675238,8.33809524 22.7427619,11.254 22.7427619,15.4198095 C22.7427619,19.585619 25.8675238,22.5007143 29.8244762,22.5007143 C33.7814286,22.5007143 36.9061905,19.3759524 36.9061905,15.4198095 C36.9061905,11.254 33.7814286,8.33809524 29.8244762,8.33809524 Z M29.8244762,19.7928571 C27.7415714,19.7928571 25.8675238,17.918 25.8675238,15.419 C25.8675238,12.92 27.742381,11.0451429 29.8244762,11.0451429 C31.9065714,11.0451429 33.7814286,12.7111429 33.7814286,15.419 C33.7814286,18.1268571 31.9065714,19.7928571 29.8244762,19.7928571 Z M63.9815238,9.7952381 C63.1477143,8.96142857 61.898619,8.1292381 60.0245714,8.1292381 C56.4837143,8.1292381 53.3597619,11.254 53.3597619,15.2109524 C53.3597619,19.1679048 56.4845238,22.2918571 60.0245714,22.2918571 C61.6905714,22.2918571 63.1493333,21.4580476 63.7726667,20.6258571 L63.9807143,20.6258571 L63.9807143,21.6669048 C63.9807143,24.3747619 62.5235714,25.8327143 60.232619,25.8327143 C58.3577619,25.8327143 57.1078571,24.3755714 56.6917619,23.3337143 L53.9839048,24.3747619 C54.8177143,26.249619 56.8998095,28.5405714 60.2318095,28.5405714 C63.9799048,28.5405714 67.1127619,26.4576667 67.1127619,21.0427619 L67.1127619,8.13085714 L64.1968571,8.13085714 L64.1968571,9.79685714 L63.9815238,9.7952381 Z M60.4406667,19.7928571 C58.3577619,19.7928571 56.6925714,17.918 56.6925714,15.419 C56.6925714,12.92 58.3585714,11.0451429 60.4406667,11.0451429 C62.5227619,11.0451429 64.1887619,12.92 64.1887619,15.419 C64.1887619,17.918 62.5227619,19.7928571 60.4406667,19.7928571 Z M45.2361905,8.33809524 C41.2792381,8.33809524 38.1544762,11.254 38.1544762,15.4198095 C38.1544762,19.585619 41.2792381,22.5007143 45.2361905,22.5007143 C49.1931429,22.5007143 52.3179048,19.3759524 52.3179048,15.4198095 C52.5259524,11.254 49.1931429,8.33809524 45.2361905,8.33809524 Z M45.2361905,19.7928571 C43.1532857,19.7928571 41.2792381,17.918 41.2792381,15.419 C41.2792381,12.92 43.1540952,11.0451429 45.2361905,11.0451429 C47.3182857,11.0451429 49.1931429,12.7111429 49.1931429,15.419 C49.1931429,18.1268571 47.3182857,19.7928571 45.2361905,19.7928571 Z M69.3964286,0.832190476 L72.5211905,0.832190476 L72.5211905,22.492619 L69.3964286,22.492619 L69.3964286,0.832190476 Z M81.0600476,19.7847619 C79.3940476,19.7847619 78.3521905,18.9509524 77.5191905,17.7018571 L87.0999048,13.7449048 L86.683,12.9110952 C86.0580476,11.2450952 84.184,8.32919048 80.6439524,8.32919048 C76.8958571,8.32919048 73.9791429,11.2450952 73.9791429,15.4109048 C73.9791429,19.3678571 77.1039048,22.4918095 81.0608571,22.4918095 C84.3928571,22.4918095 86.2677143,20.4089048 87.0999048,19.3670476 L84.6009048,17.7010476 C83.7670952,18.9509524 82.7260476,19.7839524 81.0600476,19.7839524 L81.0600476,19.7847619 Z M80.852,11.0370476 C82.1019048,11.0370476 83.1429524,11.662 83.5598571,12.7030476 L77.1030952,15.4109048 C77.1030952,12.2861429 79.186,11.0370476 80.8511905,11.0370476 L80.852,11.0370476 Z" id="Shape"></path>
            </g>
            <g id="Group">
                <path d="M15.2627619,32.7395714 L3.27695238,32.7395714 C1.806034,32.7395714 0.613619048,31.5471565 0.613619048,30.0762381 L0.613619048,24.328619 C0.613619048,22.8577007 1.806034,21.6652857 3.27695238,21.6652857 L10.846,21.6652857 L10.846,13.2462381 C10.846,11.7753197 12.0384149,10.5829048 13.5093333,10.5829048 L21.928381,10.5829048 L21.928381,32.6610476 L15.2700476,32.6610476 L15.2627619,32.7395714 Z" id="Path" fill="#FFC517"></path>
                <path d="M30.3312381,32.7395714 L21.9121905,32.7395714 L21.9121905,3.03004762 C21.9121905,1.55912924 23.1046054,0.366714286 24.5755238,0.366714286 L30.3231429,0.366714286 C31.0295028,0.366714286 31.706932,0.647314671 32.2064039,1.14678656 C32.7058758,1.64625845 32.9864762,2.3236877 32.9864762,3.03004762 L32.9864762,30.0843333 C32.9160476,31.5560476 31.7252381,32.7557619 30.3150476,32.7557619 L30.3312381,32.7395714 Z" id="Path" fill="#F57E02"></path>
                <path d="M32.9247462,21.6655142 L32.9247462,30.0761079 C32.9247462,31.5479489 31.7332068,32.7394883 30.2613658,32.7394883 L21.8507721,32.7394883 L21.8507721,10.5915402 L32.9247462,21.6655142 Z" id="Path" fill="url(#linearGradient-1)"></path>
            </g>
        </g>
    </g>
</svg>