<?xml version="1.0" encoding="UTF-8"?>
<svg width="217px" height="36px" viewBox="0 0 217 36" version="1.1" xmlns="http://www.w3.org/2000/svg" xmlns:xlink="http://www.w3.org/1999/xlink">
    <title>廣告分析/LOGO/GTM</title>
    <g id="廣告分析/LOGO/GTM" stroke="none" stroke-width="1" fill="none" fill-rule="evenodd">
        <g id="google-tag-manager-logo">
            <path d="M154.20375,14.01375 C153.44625,15.91125 152.689375,17.80875 151.933125,19.70625 C151.288125,21.33125 150.6425,22.95625 149.99625,24.58125 L148.606875,24.58125 C147.216875,21.08125 145.828125,17.58875 144.440625,14.10375 C144.405,14.055 144.3825,13.996875 144.3225,13.963125 C144.2175,13.963125 144.215625,14.030625 144.245625,14.11125 C144.328125,17.589375 144.268125,21.0675 144.28875,24.57375 L142.700625,24.57375 L142.700625,11.13375 L145.029375,11.13375 C146.428125,14.73125 147.83125,18.34 149.23875,21.96 L149.356875,21.97125 L153.5625,11.13 L155.925,11.13 L155.925,24.5625 L154.29375,24.5625 L154.29375,15.796875 C154.355935,15.2012224 154.360958,14.6009848 154.30875,14.004375 C154.30875,13.9425 154.30875,14.030625 154.276875,13.98 C154.26375,13.959375 154.2225,13.981875 154.20375,14.01375 Z" id="Path" fill="#757575" fill-rule="nonzero"></path>
            <path d="M52.404375,12.871875 L51.16875,13.9575 C50.79375,13.734375 50.458125,13.321875 49.993125,13.055625 C47.008125,11.3475 42.973125,13.141875 42.27375,16.509375 C41.76375,18.975 42.6375,21.225 44.6025,22.479375 C46.441875,23.65125 49.250625,23.694375 51.061875,21.9375 C51.88875,21.136875 52.243125,20.135625 52.3875,18.9375 L47.480625,18.9375 C47.368125,18.43125 47.424375,17.945625 47.4375,17.4225 L53.968125,17.4225 C54.193125,19.520625 53.8275,21.42375 52.291875,22.98375 C50.58375,24.718125 48.465,25.155 46.16625,24.76125 C43.3491694,24.2999279 41.1202776,22.1279568 40.58625,19.32375 C40.003125,16.27125 41.22375,13.389375 43.77375,11.7975 C46.32375,10.205625 50.2275,10.56 52.198125,12.609375 C52.26375,12.691875 52.3125,12.765 52.404375,12.871875 Z" id="Path" fill="#757575" fill-rule="nonzero"></path>
            <path d="M169.828125,24.5775 L168.28125,24.5775 L168.28125,15 L169.76625,15 C169.935,15.384375 169.775625,15.78375 169.87875,16.201875 C170.184375,15.94125 170.416875,15.639375 170.72625,15.406875 C172.14,14.368125 174.28875,14.424375 175.494375,15.560625 C176.2725,16.299375 176.51625,17.259375 176.52375,18.286875 C176.5425,20.3175 176.535,22.348125 176.535,24.37875 C176.527161,24.4462511 176.512716,24.5128201 176.491875,24.5775 L174.96375,24.5775 C174.830625,24.39 174.883125,24.2025 174.88125,24.015 C174.86625,22.14 174.88125,20.265 174.834375,18.39 C174.804375,17.21625 174.271875,16.528125 173.334375,16.280625 C172.295335,15.9654645 171.171672,16.3571933 170.55375,17.25 C170.094247,17.9258221 169.861176,18.7300813 169.888125,19.546875 C169.875,21.046875 169.888125,22.546875 169.888125,24.046875 C169.913101,24.2259808 169.892464,24.4084934 169.828125,24.5775 L169.828125,24.5775 Z" id="Path" fill="#757575" fill-rule="nonzero"></path>
            <polygon id="Path" fill="#757575" fill-rule="nonzero" points="112.993125 24.583125 111.328125 24.583125 111.328125 12.706875 107.578125 12.706875 107.578125 11.146875 116.671875 11.146875 116.671875 12.684375 112.993125 12.684375"></polygon>
            <path d="M215.73,14.930625 L215.73,16.584375 C215.435625,16.678125 215.22375,16.494375 214.99125,16.44 C213.30375,16.044375 212.154375,17.428125 211.93125,18.62625 C211.786875,19.400625 211.850625,20.1825 211.843125,20.9625 C211.843125,22.149375 211.843125,23.33625 211.843125,24.5625 L210.22125,24.5625 L210.22125,15.009375 L211.72125,15.009375 C211.8525,15.418125 211.72125,15.82875 211.809375,16.24875 C213.208125,14.77125 214.51125,14.33625 215.73,14.930625 Z" id="Path" fill="#757575" fill-rule="nonzero"></path>
            <polygon id="Path" fill="#757575" fill-rule="nonzero" points="91.078125 24.585 89.5275 24.585 89.5275 11.135625 91.078125 11.135625"></polygon>
            <path d="M135.70125,15.459375 C135.70125,15.309375 135.748125,15.144375 135.6225,15.016875 C135.118754,14.9399123 134.605449,14.9513332 134.105625,15.050625 L134.105625,16.25625 C134.025161,16.1902964 133.948182,16.1202017 133.875,16.04625 C132.455625,14.263125 129.489375,14.218125 127.81125,15.85875 C126.1875,17.439375 125.788125,20.293125 126.9075,22.42125 C128.488125,25.42125 132.361875,25.42125 133.910625,23.394375 C133.925444,23.3589398 133.957061,23.333309 133.994795,23.3261395 C134.032529,23.31897 134.071342,23.3312193 134.098125,23.35875 C134.121989,23.7681728 134.113212,24.1788458 134.071875,24.586875 C133.90125,27.268125 131.503125,27.815625 129.87375,27.211875 C129.099375,26.92875 128.6025,26.34375 128.23875,25.573125 L126.75,26.195625 C126.845685,26.6205724 127.046875,27.0145695 127.335,27.34125 C128.2725,28.48875 129.523125,28.940625 130.9725,28.9387558 C132.421875,28.936875 133.745625,28.56375 134.7225,27.375 C135.493125,26.4375 135.68625,25.3125 135.6975,24.1725 C135.72375,21.268125 135.705,18.36375 135.70125,15.459375 Z M133.815,21.28875 C133.403247,22.4385633 132.331837,23.220945 131.11125,23.263125 C129.870379,23.3229229 128.72936,22.5853708 128.274375,21.429375 C127.761457,20.2853537 127.791767,18.9710361 128.356875,17.851875 C128.87625,16.7775 130.044375,16.089375 131.169375,16.185 C132.481875,16.295625 133.36125,17.004375 133.835625,18.2175 C134.022136,18.7320507 134.109303,19.2773225 134.0925,19.824375 C134.082251,20.3245534 133.988458,20.8194997 133.815,21.28875 L133.815,21.28875 Z" id="Shape" fill="#757575" fill-rule="nonzero"></path>
            <path d="M87.1875,15.414375 C87.1875,15.279375 87.225,15.133125 87.110625,15.00375 L85.576875,15.00375 L85.576875,16.284375 C83.908125,14.05875 80.488125,14.221875 78.913125,16.303125 C77.615625,18.02625 77.465625,19.93875 78.189375,21.89625 C78.975,24.015 80.89125,25.05375 83.11875,24.70875 C84.11625,24.555 84.898125,24.031875 85.55625,23.236875 C85.7775,25.29 85.19625,26.641875 83.86875,27.174375 C83.2141275,27.4382665 82.4945008,27.4958366 81.80625,27.339375 C80.82,27.129375 80.16375,26.49375 79.74375,25.56375 L78.27,26.188125 C78.3149622,26.4733008 78.426757,26.743793 78.59625,26.9775 C79.50375,28.348125 80.821875,28.91625 82.425,28.929375 C83.911875,28.940625 85.2375,28.565625 86.2275,27.375 C86.9775,26.473125 87.185625,25.3875 87.193125,24.26625 C87.1875,21.320625 87.1875,18.375 87.1875,15.414375 Z M85.224375,21.470625 C84.661875,22.708125 83.506875,23.383125 82.2675,23.25375 C80.9660259,23.1407449 79.8844442,22.2043825 79.58625,20.9325 C79.4911591,20.5652542 79.446375,20.186797 79.453125,19.8075 C79.434375,18.571875 79.76625,17.5575 80.6925,16.8225 C81.3822995,16.264397 82.2890397,16.0515029 83.1551422,16.2442947 C84.0212448,16.4370865 84.7520656,17.0144967 85.14,17.8125 C85.7407136,18.9517578 85.7685136,20.3077028 85.215,21.470625 L85.224375,21.470625 Z" id="Shape" fill="#757575" fill-rule="nonzero"></path>
            <path d="M197.364375,15.013125 L195.838125,15.013125 L195.838125,16.235625 C195.744375,16.17375 195.7125,16.164375 195.6975,16.141875 C194.233125,14.15625 190.854375,14.154375 189.19125,16.24875 C187.87875,17.9025 187.65375,20.533125 188.638125,22.396875 C190.2375,25.426875 194.195625,25.434375 195.740625,23.293125 C195.740625,23.293125 195.789375,23.304375 195.81375,23.31 C196.00125,25.790625 195.165,26.799375 193.996875,27.223125 C192.380625,27.811875 191.22,27.34125 189.928125,25.591875 L188.510625,26.18625 C188.534635,26.4706494 188.640092,26.7421051 188.814375,26.968125 C189.661875,28.250625 190.876875,28.861875 192.399375,28.92375 C193.970625,28.985625 195.37875,28.65375 196.441875,27.3975 C197.22375,26.473125 197.415,25.35375 197.4225,24.200625 C197.44125,21.294375 197.4225,18.388125 197.4225,15.481875 C197.452162,15.3233768 197.431851,15.1595781 197.364375,15.013125 Z M195.82875,19.73625 C195.79875,21.135 195.34875,22.32 194.023125,22.978125 C192.148125,23.915625 189.94875,22.59 189.72375,20.4 C189.64125,19.588125 189.661875,18.78 190.01625,18.013125 C190.57875,16.8225 191.791875,16.059375 192.965625,16.186875 C194.336647,16.3005059 195.463033,17.3156346 195.718125,18.6675 C195.805677,19.0166695 195.842928,19.3765507 195.82875,19.73625 L195.82875,19.73625 Z" id="Shape" fill="#757575" fill-rule="nonzero"></path>
            <path d="M208.336875,20.113125 C208.365076,19.9688734 208.383866,19.8229404 208.393125,19.67625 C208.39599,19.4258142 208.384722,19.1754163 208.359375,18.92625 C208.171875,17.161875 207.421875,15.73875 205.708125,15.04125 C203.994375,14.34375 202.348125,14.49 200.90625,15.695625 C199.464375,16.90125 199.048125,18.508125 199.1625,20.323125 C199.374375,23.698125 202.438125,25.760625 205.828125,24.553125 C206.9025,24.178125 207.673125,23.386875 208.198125,22.32375 L206.829375,21.6675 C205.395,23.355 204.1275,23.77125 202.635,23.0775 C201.538125,22.569375 200.68125,21.155625 200.86875,20.11125 L208.336875,20.113125 Z M203.86875,16.175625 C205.325625,16.19625 206.57625,17.345625 206.570644,18.69 L200.983125,18.69 C201.039375,17.355 202.419375,16.156875 203.86875,16.1775 L203.86875,16.175625 Z" id="Shape" fill="#757575" fill-rule="nonzero"></path>
            <path d="M98.281875,20.1075 L102.031875,20.1075 C102.126567,19.6969711 102.136774,19.2714721 102.061875,18.856875 C101.625,14.660625 97.520625,13.925625 95.25,15.25125 C93.3225,16.37625 92.533125,18.553125 92.9475,20.9025 C93.43125,23.6475 95.619375,25.198125 98.385,24.85125 C99.984375,24.6525 101.13375,23.79 101.923125,22.33125 L100.539375,21.658125 C99.18,23.3625 97.764375,23.799375 96.249375,23.030625 C95.188125,22.490625 94.35375,21.03375 94.606875,20.1075 L98.281875,20.1075 Z M97.531875,16.17 C99.005625,16.15875 100.3275,17.35875 100.2675,18.688125 L94.7175,18.688125 C94.665,17.461875 96.09375,16.18875 97.52625,16.175625 L97.531875,16.17 Z" id="Shape" fill="#757575" fill-rule="nonzero"></path>
            <path d="M124.71375,18.350625 C124.7025,17.12625 124.269375,16.08375 123.21375,15.391875 C122.004375,14.6025 120.665625,14.52 119.29875,14.818125 C118.262433,15.0125741 117.350656,15.6222316 116.775,16.505625 C117.12435,16.8929441 117.543534,17.2109893 118.010625,17.443125 C119.38125,16.141875 120.759375,15.830625 121.993125,16.543125 C122.850237,17.0048048 123.296599,17.9794515 123.08625,18.93 C123.012659,18.9173746 122.939997,18.8998353 122.86875,18.8775 C121.637833,18.4041329 120.293805,18.3081776 119.008125,18.601875 C116.625,19.09875 115.569375,21.76875 117.03,23.625 C118.288125,25.23 121.185,25.3125 122.686875,23.8125 C122.82,23.6775 122.908125,23.48625 123.12,23.4075 C123.223125,23.818125 123.08625,24.211875 123.21375,24.58125 L124.71375,24.58125 C124.7175,22.46625 124.730625,20.4075 124.71375,18.350625 Z M119.878125,23.413125 C118.535625,23.26875 117.74625,22.1625 118.224375,21.028125 C118.472023,20.4570291 118.986952,20.0460689 119.59875,19.93125 C120.701027,19.6616323 121.86336,19.7946224 122.87625,20.30625 C122.968974,20.3610929 123.056799,20.423825 123.13875,20.49375 C123.08625,22.194375 121.468125,23.58 119.878125,23.4075 L119.878125,23.413125 Z" id="Shape" fill="#757575" fill-rule="nonzero"></path>
            <path d="M166.055625,18.069375 C166.057256,17.0850528 165.597034,16.1569736 164.8125,15.5625 C163.168125,14.296875 160.363125,14.385 158.803125,15.75 C158.540625,15.97875 158.255625,16.209375 158.1525,16.599375 C158.548125,16.89375 158.9325,17.1825 159.339375,17.488125 C160.7325,16.1325 162.151875,15.8175 163.404375,16.550625 C164.24625,17.053125 164.694375,18.050625 164.435625,18.9075 C164.349375,18.885 164.259375,18.86625 164.175,18.83625 C162.953048,18.3830098 161.624702,18.2995399 160.355625,18.59625 C157.99125,19.126875 156.969375,21.680625 158.3625,23.570625 C159.406875,24.98625 161.911875,25.335 163.4625,24.2925 C163.822178,24.016399 164.160052,23.7130015 164.473125,23.385 C164.593125,23.8125 164.4525,24.21 164.574375,24.560625 L166.074375,24.560625 C166.06875,22.374375 166.096875,20.221875 166.055625,18.069375 Z M160.6875,23.28375 C160.040625,23.05875 159.5625,22.635 159.466875,21.93375 C159.362575,21.2981065 159.635131,20.6594634 160.16625,20.295 C161.158125,19.545 163.54125,19.665 164.47875,20.52 C164.409375,22.4475 162.436875,23.8875 160.6875,23.28375 Z" id="Shape" fill="#757575" fill-rule="nonzero"></path>
            <path d="M186.46125,18.669375 C186.470401,18.3883497 186.45975,18.1070288 186.429375,17.8275 C186.3,16.914375 185.925,16.12125 185.17875,15.55125 C183.628125,14.364375 181.005,14.368125 179.4225,15.55125 C179.030399,15.8073727 178.715905,16.1659607 178.513125,16.588125 L179.6925,17.475 C181.415625,16.065 182.60625,15.819375 183.83625,16.60125 C184.637039,17.0832561 185.033099,18.0286405 184.815,18.9375 C183.529377,18.3992231 182.106203,18.2823759 180.75,18.60375 C179.555625,18.90375 178.5675,19.520625 178.243125,20.7975 C177.91875,22.074375 178.18125,23.19375 179.20875,24.06375 C180.399375,25.074375 182.461875,25.179375 183.78,24.33 C184.178822,24.0584508 184.535733,23.7299664 184.839375,23.355 C184.99125,23.799375 184.839375,24.200625 184.95375,24.5625 L186.466875,24.5625 C186.463125,22.57125 186.463125,20.625 186.46125,18.669375 Z M181.125,23.296875 C180.361875,23.05875 179.900625,22.520625 179.8425,21.796875 C179.779874,21.0540706 180.212044,20.3581774 180.905625,20.085 C182.26875,19.54875 183.583125,19.745625 184.85625,20.424375 C184.854375,22.3875 182.895,23.851875 181.125,23.296875 Z" id="Shape" fill="#757575" fill-rule="nonzero"></path>
            <path d="M65.31,19.513125 C65.292734,17.9872725 64.5684455,16.5557975 63.3493172,15.6380557 C62.1301889,14.7203138 60.5542307,14.4201968 59.083125,14.825625 C56.865,15.40125 55.434375,17.341875 55.430625,19.74 C55.441875,19.9275 55.45125,20.086875 55.460625,20.2425 C55.696875,24.050625 59.514375,25.929375 62.656875,24.350625 C64.606875,23.37375 65.360625,21.631875 65.31,19.513125 Z M63,21.9975 C62.2208408,23.1283181 60.805019,23.6329974 59.48625,23.25 C58.1032865,22.8220985 57.1401734,21.5689997 57.0825,20.1225 C57.0825,20.011875 57.0825,19.903125 57.0825,19.794375 C57.099375,18.500625 57.52875,17.4075 58.659375,16.689375 C59.3684839,16.2298247 60.2322762,16.0738671 61.057318,16.2564265 C61.8823598,16.438986 62.5997177,16.9448094 63.04875,17.660625 C63.8754714,18.9932232 63.8564676,20.6838222 63,21.9975 L63,21.9975 Z" id="Shape" fill="#757575" fill-rule="nonzero"></path>
            <path d="M71.593125,14.664375 C68.74875,14.63625 66.645,16.78125 66.615,19.73625 C66.585,22.69125 68.6475,24.8775 71.49,24.8925791 C74.3325,24.9075 76.45875,22.786875 76.48125,19.875 C76.5,16.884375 74.450625,14.6925 71.593125,14.664375 Z M71.385,23.364375 C70.3654985,23.3403108 69.4248891,22.8102514 68.87625,21.950625 C67.9870676,20.5623593 68.0399096,18.7709406 69.009375,17.4375 C69.8131675,16.4189521 71.1461,15.9766073 72.399375,16.3125 C73.6871591,16.7066176 74.6200573,17.8249183 74.776875,19.1625 C74.80125,19.395 74.810625,19.629375 74.821875,19.77375 C74.77125,21.961875 73.333125,23.4375 71.385,23.364375 L71.385,23.364375 Z" id="Shape" fill="#757575" fill-rule="nonzero"></path>
            <rect id="Rectangle" x="0" y="0" width="36" height="36"></rect>
            <polygon id="Path" fill="#8AB4F8" fill-rule="nonzero" points="20.870625 33.148125 15.1425 27.5625 27.444375 15 33.375 20.8125"></polygon>
            <path d="M20.895,8.4525 L15.1875,2.625 L2.7075,14.986875 C1.1006703,16.5970839 1.1006703,19.2041661 2.7075,20.814375 L15,33.1875 L20.8125,27.75 L11.446875,17.900625 L20.895,8.4525 Z" id="Path" fill="#4285F4" fill-rule="nonzero"></path>
            <path d="M33.2925,15.0825 L20.9175,2.7075 C19.3006891,1.13272611 16.7184675,1.14973085 15.1225367,2.74566165 C13.5266059,4.34159246 13.5096011,6.92381411 15.084375,8.540625 L27.459375,20.915625 C28.496672,21.9806116 30.0267919,22.4050398 31.4644782,22.0265698 C32.9021645,21.6480998 34.0249748,20.5252895 34.4034448,19.0876032 C34.7819148,17.6499169 34.3574866,16.119797 33.2925,15.0825 Z" id="Path" fill="#8AB4F8" fill-rule="nonzero"></path>
            <circle id="Oval" fill="#246FDB" fill-rule="nonzero" cx="17.90625" cy="30.46875" r="4.03125"></circle>
        </g>
    </g>
</svg>