<?xml version="1.0" encoding="UTF-8"?>
<svg width="924px" height="304px" viewBox="0 0 924 304" version="1.1" xmlns="http://www.w3.org/2000/svg" xmlns:xlink="http://www.w3.org/1999/xlink">
    <title>google-logo</title>
    <g id="google-logo" stroke="none" stroke-width="1" fill="none" fill-rule="evenodd">
        <g id="Google-Logo.wine" fill-rule="nonzero">
            <path d="M395.022423,159.905515 C395.022423,203.621923 360.822978,235.835815 318.852487,235.835815 C276.881997,235.835815 242.682551,203.621923 242.682551,159.905515 C242.682551,115.881004 276.881997,83.9752148 318.852487,83.9752148 C360.822978,83.9752148 395.022423,115.881004 395.022423,159.905515 Z M361.67882,159.905515 C361.67882,132.587039 341.857519,113.89545 318.852487,113.89545 C295.847455,113.89545 276.026155,132.587039 276.026155,159.905515 C276.026155,186.950122 295.847455,205.91558 318.852487,205.91558 C341.857519,205.91558 361.67882,186.915888 361.67882,159.905515 Z" id="Shape" fill="#EA4335"></path>
            <path d="M559.344083,159.905515 C559.344083,203.621923 525.144637,235.835815 483.174147,235.835815 C441.203656,235.835815 407.004211,203.621923 407.004211,159.905515 C407.004211,115.915237 441.203656,83.9752148 483.174147,83.9752148 C525.144637,83.9752148 559.344083,115.881004 559.344083,159.905515 Z M526.000479,159.905515 C526.000479,132.587039 506.179179,113.89545 483.174147,113.89545 C460.169114,113.89545 440.347814,132.587039 440.347814,159.905515 C440.347814,186.950122 460.169114,205.91558 483.174147,205.91558 C506.179179,205.91558 526.000479,186.915888 526.000479,159.905515 Z" id="Shape" fill="#FBBC05"></path>
            <path d="M716.819007,88.5625278 L716.819007,224.881038 C716.819007,280.955804 683.749273,303.858136 644.654411,303.858136 C607.853206,303.858136 585.704016,279.24412 577.350998,259.114717 L606.381158,247.030228 C611.550443,259.388586 624.216905,273.972134 644.620177,273.972134 C669.644997,273.972134 685.152853,258.532745 685.152853,229.468351 L685.152853,218.547807 L683.988908,218.547807 C676.525966,227.756667 662.147821,235.801582 644.003971,235.801582 C606.038821,235.801582 571.257403,202.731848 571.257403,160.179384 C571.257403,117.318818 606.038821,83.9752148 644.003971,83.9752148 C662.113587,83.9752148 676.491733,92.0201294 683.988908,100.95512 L685.152853,100.95512 L685.152853,88.5967615 L716.819007,88.5967615 L716.819007,88.5625278 Z M687.514977,160.179384 C687.514977,133.442881 669.67923,113.89545 646.982301,113.89545 C623.977269,113.89545 604.703708,133.442881 604.703708,160.179384 C604.703708,186.642018 623.977269,205.91558 646.982301,205.91558 C669.67923,205.91558 687.514977,186.642018 687.514977,160.179384 Z" id="Shape" fill="#4285F4"></path>
            <polygon id="Path" fill="#34A853" points="769.025367 8.66112081 769.025367 231.180035 736.503372 231.180035 736.503372 8.66112081"></polygon>
            <path d="M895.758447,184.896101 L921.639109,202.149875 C913.286091,214.508233 893.156688,235.801582 858.37527,235.801582 C815.240834,235.801582 783.026942,202.457978 783.026942,159.871281 C783.026942,114.717059 815.514703,83.9409811 854.643799,83.9409811 C894.046763,83.9409811 913.320325,115.299031 919.619321,132.244702 L923.076923,140.871589 L821.574065,182.910547 C829.34511,198.144535 841.429598,205.91558 858.37527,205.91558 C875.355174,205.91558 887.13156,197.562562 895.758447,184.896101 Z M816.096676,157.577625 L883.947828,129.403307 C880.216357,119.920578 868.98771,113.313478 855.77351,113.313478 C838.827839,113.313478 815.240834,128.273596 816.096676,157.577625 L816.096676,157.577625 Z" id="Shape" fill="#EA4335"></path>
            <path d="M119.578241,140.152682 L119.578241,107.93879 L228.133237,107.93879 C229.194482,113.553114 229.74222,120.194447 229.74222,127.38352 C229.74222,151.552497 223.13512,181.438499 201.841772,202.731848 C181.130396,224.299065 154.667762,235.801582 119.612475,235.801582 C54.6369518,235.801582 0,182.876314 0,117.900791 C0,52.9252679 54.6369518,0 119.612475,0 C155.557838,0 181.16463,14.1042758 200.403957,32.4877615 L177.672794,55.2189244 C163.876622,42.2785937 145.185033,32.213892 119.578241,32.213892 C72.1303618,32.213892 35.0210537,70.4529116 35.0210537,117.900791 C35.0210537,165.34867 72.1303618,203.58769 119.578241,203.58769 C150.354319,203.58769 167.881962,191.229331 179.110609,180.000685 C188.216768,170.894526 194.207661,157.885728 196.569785,140.118449 L119.578241,140.152682 Z" id="Path" fill="#4285F4"></path>
        </g>
    </g>
</svg>