<svg xmlns="http://www.w3.org/2000/svg" xmlns:xlink="http://www.w3.org/1999/xlink" viewBox="0 0 864 648"><defs><style>.cls-1,.cls-51,.cls-61,.cls-62,.cls-64,.cls-68{fill:none;}.cls-2{isolation:isolate;}.cls-3{clip-path:url(#clip-path);}.cls-4{fill:#f5f5f5;}.cls-5{fill:#aaa;}.cls-6{fill:#a3a3a3;}.cls-30,.cls-7{fill:#ccc;}.cls-10,.cls-58,.cls-8{fill:#d9d9d9;}.cls-8,.cls-9{stroke:#e6e6e6;}.cls-10,.cls-29,.cls-30,.cls-47,.cls-52,.cls-55,.cls-56,.cls-59,.cls-62,.cls-63,.cls-64,.cls-68,.cls-8,.cls-9{stroke-miterlimit:10;}.cls-12,.cls-9{fill:#d2d2d2;}.cls-10,.cls-47{stroke:#f2f2f2;}.cls-11{fill:#f9f9f9;}.cls-13,.cls-34,.cls-38,.cls-41,.cls-45{mix-blend-mode:screen;}.cls-14{fill:url(#鍊踑臇蜸馯鳺艜_5);}.cls-15{fill:#4d4d4d;}.cls-16{fill:#9f9f9f;}.cls-17{fill:#b8b8b8;}.cls-18,.cls-54,.cls-59{fill:#e6e6e6;}.cls-19{fill:#929292;}.cls-20{fill:#b6b6b6;}.cls-21{fill:#989898;}.cls-22{fill:#b2b2b2;mix-blend-mode:multiply;}.cls-23{fill:#a9a9a9;}.cls-24{fill:#9c9c9c;}.cls-25{fill:#d7d7d7;}.cls-26{fill:#8f8f8f;}.cls-27{fill:#cacaca;}.cls-28,.cls-29{fill:#afafaf;}.cls-29,.cls-48,.cls-49,.cls-50,.cls-51,.cls-52,.cls-53,.cls-54,.cls-55,.cls-58,.cls-59,.cls-60,.cls-61,.cls-62,.cls-63{stroke:#999;}.cls-30{stroke:#aaa;}.cls-31{fill:#dcdcdc;}.cls-32{fill:url(#鍊踑臇蜸馯鳺艜_17);}.cls-33{fill:url(#鍊踑臇蜸馯鳺艜_14);}.cls-34{fill:url(#鍊踑臇蜸馯鳺艜_16);}.cls-35{fill:#f6f6f6;}.cls-36{fill:#b1b1b1;}.cls-37{fill:#bebebe;}.cls-38{fill:url(#鍊踑臇蜸馯鳺艜_18);}.cls-39{fill:url(#鍊踑臇蜸馯鳺艜_17-2);}.cls-40{fill:url(#鍊踑臇蜸馯鳺艜_14-2);}.cls-41{fill:url(#鍊踑臇蜸馯鳺艜_16-2);}.cls-42,.cls-49,.cls-52{fill:#bfbfbf;}.cls-43{fill:url(#鍊踑臇蜸馯鳺艜_4);}.cls-44{fill:#e5e5e5;}.cls-45{opacity:0.56;fill:url(#鍊踑臇蜸馯鳺艜_2);}.cls-46,.cls-48{fill:#fff;}.cls-47,.cls-60{fill:#ededed;}.cls-48,.cls-49,.cls-51,.cls-53,.cls-54,.cls-58,.cls-60,.cls-61,.cls-68{stroke-linecap:round;}.cls-48,.cls-49,.cls-50,.cls-51,.cls-53,.cls-54,.cls-57,.cls-58,.cls-60,.cls-61{stroke-linejoin:round;}.cls-50{fill:#c4c4c4;}.cls-51{stroke-dasharray:3 5;}.cls-53,.cls-63,.cls-65{fill:#dbdbdb;}.cls-55,.cls-56,.cls-57{fill:#666;}.cls-56,.cls-57{stroke:gray;}.cls-64{stroke:#dbdbdb;}.cls-66{fill:#cecece;}.cls-67{fill:gray;}.cls-68{stroke:#898989;}</style><clipPath id="clip-path"><rect class="cls-1" width="864" height="648"/></clipPath><linearGradient id="鍊踑臇蜸馯鳺艜_5" x1="244.96" y1="8.15" x2="254.83" y2="345.83" gradientUnits="userSpaceOnUse"><stop offset="0" stop-color="#7f7f7f"/><stop offset="1"/></linearGradient><linearGradient id="鍊踑臇蜸馯鳺艜_17" x1="704.55" y1="296.75" x2="738.45" y2="296.75" gradientUnits="userSpaceOnUse"><stop offset="0" stop-color="#bcbcbc"/><stop offset="0.46" stop-color="#b9b9b9"/><stop offset="0.85" stop-color="#aeaeae"/><stop offset="1" stop-color="#a8a8a8"/></linearGradient><linearGradient id="鍊踑臇蜸馯鳺艜_14" x1="721.4" y1="279.82" x2="735.59" y2="279.82" gradientUnits="userSpaceOnUse"><stop offset="0" stop-color="#c2c2c2"/><stop offset="1" stop-color="#989898"/></linearGradient><linearGradient id="鍊踑臇蜸馯鳺艜_16" x1="724.53" y1="269.96" x2="722.99" y2="324.87" gradientUnits="userSpaceOnUse"><stop offset="0" stop-color="#666"/><stop offset="0.88"/></linearGradient><linearGradient id="鍊踑臇蜸馯鳺艜_18" x1="609.54" y1="61.94" x2="535.23" y2="198.1" gradientUnits="userSpaceOnUse"><stop offset="0" stop-color="#d6d6d6"/><stop offset="0.56" stop-color="#505050"/><stop offset="0.88"/></linearGradient><linearGradient id="鍊踑臇蜸馯鳺艜_17-2" x1="1216.9" y1="436.13" x2="1150.19" y2="444.68" gradientTransform="matrix(-1, 0, 0, 1, 1843.42, 0)" xlink:href="#鍊踑臇蜸馯鳺艜_17"/><linearGradient id="鍊踑臇蜸馯鳺艜_14-2" x1="1215.79" y1="427.75" x2="1149.17" y2="436.28" gradientTransform="matrix(-1, 0, 0, 1, 1843.42, 0)" xlink:href="#鍊踑臇蜸馯鳺艜_14"/><linearGradient id="鍊踑臇蜸馯鳺艜_16-2" x1="1204.1" y1="414.1" x2="1190.78" y2="465.14" gradientTransform="matrix(-1, 0, 0, 1, 1843.42, 0)" xlink:href="#鍊踑臇蜸馯鳺艜_16"/><linearGradient id="鍊踑臇蜸馯鳺艜_4" x1="11.5" y1="403.2" x2="108.36" y2="403.2" gradientUnits="userSpaceOnUse"><stop offset="0" stop-color="#fff"/><stop offset="0.07" stop-color="#f8f8f8"/><stop offset="0.7" stop-color="silver"/><stop offset="1" stop-color="#aaa"/></linearGradient><linearGradient id="鍊踑臇蜸馯鳺艜_2" x1="83.9" y1="344.1" x2="76.96" y2="472.56" gradientUnits="userSpaceOnUse"><stop offset="0" stop-color="#e5e5e5"/><stop offset="0.52" stop-color="#5f5f5f"/><stop offset="0.88"/></linearGradient></defs><title>product3.5</title><g class="cls-2"><g id="圖層_5" data-name="圖層 5"><g id="景物"><g class="cls-3"><rect id="背景" class="cls-4" width="864" height="648"/><polygon class="cls-5" points="866.75 458.02 -0.5 457 -0.5 645.81 866.75 646.83 866.75 458.02"/><polygon class="cls-6" points="865.75 646.83 633.75 653 4.35 646.53 4.44 467.86 324.92 467.86 15.51 501.25 15.51 528.66 633.75 619.68 865.75 467.89 865.75 646.83"/><polygon class="cls-7" points="452.7 456.76 189.67 456.76 182.04 -52.74 460.32 -52.74 452.7 456.76"/><polygon class="cls-8" points="455.52 -52.74 447.89 456.76 455.52 456.76 465.38 -52.74 455.52 -52.74"/><polygon class="cls-9" points="399.34 -52.74 374.12 397.78 118.62 397.78 113.74 -52.74 399.34 -52.74"/><polygon class="cls-10" points="435.52 436.88 437.93 417.33 380.86 417.33 383.27 397.78 121.4 397.78 121.4 417.65 121.4 417.65 121.4 437.2 121.4 437.2 121.4 456.75 490.22 456.75 492.85 436.88 435.52 436.88"/><polygon class="cls-7" points="121.4 456.75 490.22 456.75 490.6 453.89 121.4 452.21 121.4 456.75"/><polygon class="cls-7" points="435.52 436.88 121.4 437.2 121.4 431.8 435.83 434.34 435.52 436.88"/><polygon class="cls-7" points="380.86 417.33 121.4 417.65 121.4 413.11 381.26 414.09 380.86 417.33"/><polygon class="cls-7" points="121.4 397.78 139.1 397.78 144.03 417.65 156.51 417.65 161.76 437.2 176.22 437.15 186.07 456.75 121.4 456.75 121.4 397.78"/><polygon class="cls-8" points="114.95 -52.74 122.61 456.76 117.09 456.76 100.89 -52.74 114.95 -52.74"/><polygon class="cls-11" points="135.18 48.05 144.1 392.31 239.12 392.31 234.92 48.05 135.18 48.05"/><polygon class="cls-11" points="241.93 48.05 242.56 392.31 331.9 392.31 345.05 48.05 241.93 48.05"/><rect class="cls-12" x="135.17" y="318.26" width="209.9" height="2.58" transform="translate(-5.87 4.5) rotate(-1.06)"/><g class="cls-13"><polygon class="cls-14" points="133.9 45.48 343.76 45.48 385.71 165.19 372.84 395.2 120.12 395.2 116.74 137.25 133.9 45.48"/></g><polygon class="cls-15" points="841.92 311.62 841.92 325.95 862.56 326.45 862.7 325.36 844.38 323.69 844.38 313.83 864.31 312.71 864.49 311.28 850.77 311.49 841.92 311.62"/><polygon class="cls-16" points="853.38 286.8 850.77 311.49 864.49 311.28 871.65 311.17 871.82 309.91 852.87 309.91 854.97 288.66 874.73 288.32 874.74 288.32 874.94 286.8 853.38 286.8"/><polygon class="cls-7" points="834.52 340.27 834.52 340.34 837.86 340.33 856.42 340.27 873.83 340.23 873.93 339.07 873.92 339.07 837.28 338.56 836.99 328.25 874.84 328.25 874.85 328.25 874.97 326.85 862.56 326.45 841.92 325.95 834.52 325.77 834.52 340.27"/><polygon class="cls-17" points="778.73 329.35 779.84 335.73 786.95 335.44 788.76 329.35 778.73 329.35"/><polygon class="cls-17" points="814.41 325.29 814.41 340.38 818.85 340.38 817.89 325.37 814.41 325.29"/><polygon class="cls-17" points="824.35 340.38 826.01 340.37 826.01 325.56 820.31 325.43 822.26 340.38 824.35 340.38"/><path class="cls-18" d="M782.69,324.52l31.72.77v15.09h4.44l-42.63.12-1.06-16.19ZM787,335.43l1.81-6.08h-10l1.11,6.38Z"/><path class="cls-19" d="M782.69,324.52v-12l3.49-.05,40.56-.63,5.6-.09,9.58-.15V326l-7.4-.18-8.51-.21-5.7-.13-2.42-.06-3.48-.08Zm38.16-3.35-.62-6-31.82.34v5.22Zm12.13.15V315l-9.39.1v6.07Z"/><polygon class="cls-20" points="788.41 315.52 788.41 320.75 820.85 321.17 820.23 315.18 788.41 315.52"/><polygon class="cls-18" points="820.6 340.39 822.26 340.38 820.31 325.43 817.89 325.37 818.85 340.38 818.85 340.39 820.6 340.39"/><polygon class="cls-20" points="823.59 315.13 823.59 321.2 832.98 321.32 832.98 315.03 823.59 315.13"/><polygon class="cls-18" points="829.95 340.35 832.2 340.35 834.52 340.34 834.52 340.27 834.52 325.77 826.01 325.56 826.01 340.37 829.95 340.35"/><polygon class="cls-20" points="828.14 286.8 826.74 311.86 832.34 311.77 835.53 286.8 828.14 286.8"/><polygon class="cls-17" points="835.53 286.8 832.34 311.77 841.92 311.62 850.77 311.49 853.38 286.8 835.53 286.8"/><polygon class="cls-21" points="836.99 328.25 837.28 338.56 873.92 339.07 873.93 339.07 874.84 328.25 836.99 328.25"/><polygon class="cls-21" points="844.38 313.83 844.38 323.69 862.7 325.36 864.31 312.71 844.38 313.83"/><polygon class="cls-21" points="854.97 288.66 852.87 309.91 871.82 309.91 874.74 288.32 874.73 288.32 854.97 288.66"/><polygon class="cls-22" points="841.92 311.62 782.69 312.58 782.69 315.18 841.92 317.45 841.92 311.62"/><path class="cls-8" d="M768.58,63.16V204.44h-5.14c.1-76.25.18-141.28.18-141.28Z"/><polygon class="cls-23" points="843.25 153.67 840.54 207.56 808.62 207.56 843.25 153.67"/><polygon class="cls-23" points="843.64 144.52 843.25 153.67 833.6 144.52 843.64 144.52"/><polygon class="cls-17" points="866.75 125.11 866.24 207.56 862.6 207.56 852.62 207.56 855.77 134.83 856.36 125.11 866.75 125.11"/><polygon class="cls-18" points="843.64 144.52 844.05 134.83 855.77 134.83 852.62 207.56 840.54 207.56 843.25 153.67 843.64 144.52"/><polygon class="cls-24" points="843.25 153.67 808.62 207.56 799.97 197.08 833.6 144.52 843.25 153.67"/><polygon class="cls-25" points="828.16 153.02 838.62 160.88 836.42 164.31 826.42 155.75 828.16 153.02"/><polygon class="cls-25" points="843.5 147.86 855.25 146.78 854.83 156.61 843.17 155.27 843.5 147.86"/><polygon class="cls-20" points="855.7 136.46 866.75 136.46 866.66 139.64 855.5 140.97 855.7 136.46"/><path class="cls-26" d="M888.76,340.29h.07l-.12,5h-27l.15-5Z"/><polygon class="cls-8" points="768.58 204.44 852.68 204.44 852.61 207.78 768.58 207.78 763.44 207.78 716.32 207.78 716.24 204.44 763.44 204.44 768.58 204.44"/><polygon class="cls-8" points="768.58 340.29 850.16 340.29 850.06 345.33 768.58 345.33 763.25 345.33 718.87 345.33 718.77 340.29 718.87 340.29 763.27 340.29 768.58 340.29"/><polygon class="cls-26" points="880.71 451.27 880.24 469 847.06 469 847.63 451.27 855.31 451.27 880.71 451.27"/><polygon class="cls-27" points="847.63 451.27 847.06 469 724.42 469 723.96 451.27 847.63 451.27"/><path class="cls-8" d="M768.58,345.33V442.7h-5.46s0-41.65.13-97.37Z"/><polygon class="cls-15" points="823.56 407.27 823.44 408.66 793.42 409.44 793.42 422.47 822.17 422.99 821.99 424.98 791.51 424.98 791.51 407.27 823.56 407.27"/><polygon class="cls-28" points="823.44 408.66 822.17 422.99 793.42 422.47 793.42 409.44 823.44 408.66"/><polygon class="cls-23" points="839.74 424.98 839.56 426.39 800.01 427.16 800.01 440.17 837.8 440.71 837.82 440.71 837.57 442.7 797.34 442.7 797.34 424.98 808.48 424.98 838.96 424.98 839.74 424.98"/><polygon class="cls-29" points="839.56 426.39 837.82 440.71 837.8 440.71 800.01 440.17 800.01 427.16 839.56 426.39"/><polygon class="cls-19" points="791.51 407.27 791.51 424.98 780.37 424.98 744.43 424.98 742.51 407.27 791.51 407.27"/><polygon class="cls-29" points="797.34 424.98 797.34 442.7 731.86 442.7 729.2 424.98 761.4 424.98 797.34 424.98"/><polygon class="cls-20" points="776.97 407.27 775.86 424.98 783.99 424.98 783.04 407.27 776.97 407.27"/><polygon class="cls-20" points="747.88 407.27 750.1 424.98 751.71 424.98 750.6 407.27 747.88 407.27"/><polygon class="cls-20" points="735.77 424.98 736.64 442.7 742.8 442.7 742.8 424.98 735.77 424.98"/><polygon class="cls-20" points="780.26 424.98 778.53 442.7 781 442.7 781.98 424.98 780.26 424.98"/><polygon class="cls-20" points="784.94 424.98 783.04 442.7 788.27 442.7 788.27 424.98 784.94 424.98"/><path class="cls-8" d="M768.58,207.78V340.29h-5.31c.05-40.76.1-88.35.17-132.51Z"/><polygon class="cls-30" points="860.15 204.56 855.31 451.27 847.63 451.27 723.96 451.27 713.62 451.27 713.44 442.85 720.69 442.7 763.12 442.7 768.58 442.7 848.24 442.7 850.06 345.33 850.16 340.29 852.61 207.78 852.68 204.44 853.42 204.44 860.15 204.56"/><polygon class="cls-8" points="718.87 345.33 720.69 442.7 713.44 442.85 705.78 51.89 863.15 51.89 860.15 204.56 853.42 204.44 852.68 204.44 855.31 63.16 768.58 63.16 763.62 63.16 713.62 63.16 716.24 204.44 716.32 207.78 718.77 340.29 718.87 345.33"/><path class="cls-16" d="M888.71,345.33l.12-5,3.52-132.51.09-3.34,3.74-141.28H869.63l-4,141.28-.07,3.34-3.73,132.51-.15,5L859,442.7h27.16Zm12.7-293.44-10,399.38H855.31l4.84-246.7,3-152.68Z"/><path class="cls-31" d="M724.8,269.72c.35-14.57-12.19-27.33-13.22-41.88,5.65,7.47,9.93,15.8,11.79,24.6-1.23-13.1,2.41-26.95,8.88-38.82-.3,14.08-.16,27.8-.46,41.88,2.85-9.35,5-18.15,7.87-27.49,2,14.07-3.13,28.08-8.17,41.55C729.44,269.56,726.85,269.72,724.8,269.72Z"/><path class="cls-18" d="M726.93,268.41c-.54-7.12-2.93-14-4.78-21s-3.17-14.2-1.55-21.19c2.71,9.44,4.91,18.54,7.62,28-.82-8.37,2.56-16.63,4.71-24.83a70.49,70.49,0,0,0,1.43-29.08c3.08,4.65,4.31,10.4,4.4,15.77s-.88,10.71-1.84,16q-3.28,18.19-6.58,36.38C729.29,268.41,728,268.48,726.93,268.41Z"/><path class="cls-32" d="M741,319.46a20.6,20.6,0,0,1-3.88,7.29H719.85a20.44,20.44,0,0,1-3.88-7.29,101.13,101.13,0,0,0,5.43-52.71h14.19A93.23,93.23,0,0,0,741,319.46Z"/><path class="cls-33" d="M731.85,292.88a93.6,93.6,0,0,1,2.27-13.73,94.76,94.76,0,0,1,1.47-12.4H721.4a102.66,102.66,0,0,1,1.3,17.92c0,.17.09.35.14.52l3.72-11.83a48.62,48.62,0,0,0,1.63,15.07l1.84-8Q730.95,286.65,731.85,292.88Z"/><path class="cls-34" d="M727.58,267.75c1.76,16.88-1.45,36.65-4.53,50.56.43,2.23,1,4.26,1.43,6.5h-2.39c-1-1.92-1.77-4.22-2.76-6.14a137.48,137.48,0,0,0,3.77-50.93C724.36,267.87,726.32,267.62,727.58,267.75Z"/><polygon class="cls-35" points="526.35 40.93 532 172.93 631.46 171.62 632.77 42.53 526.35 40.93"/><polygon class="cls-4" points="536.14 47.49 537.97 107.18 539.72 164.38 623.64 164.38 625.38 74.77 625.83 51.61 536.14 47.49"/><path class="cls-16" d="M637.5,38.17l-1.81,137.5-107.75,1.49L521.43,36.33Zm-6,133.45,1.31-129.09-106.42-1.6,5.65,132Z"/><polygon class="cls-36" points="521.43 36.34 526.35 40.93 532 172.93 631.46 171.62 635.68 175.67 527.94 177.16 521.43 36.34"/><path class="cls-37" d="M624.37,126.7l-2.73,1.73c-3.11,2-6.17,4.09-9.23,6.18s-6.35,4-9.25,6.38-45.55,4.43-47.45,7.66c-.42.7,40,1.42,40.69,1.29,3.68-.67,6.92-2.75,10-4.72s6.24-4.4,9.32-6.6c2.86-2,5.71-4.08,8.52-6.18Z"/><path class="cls-37" d="M539.33,151.64c8.32-5.86,56.34-11.73,64.66-17.6,6.81-4.8,13.67-9.53,20.51-14.28l.15-7.55c-7.85,5.63-15.67,11.3-23.56,16.88l-2.94,2.08q13.19-13.93,26.67-27.59l.15-8a2.5,2.5,0,0,0-1.61,1c-7.14,5.39-14.56,10.38-22,15.38,6.15-5.36,12.45-10.56,18.71-15.78,1.84-1.53-.5-4.12-2.43-3.15-7.33,3.69-14.62,7.31-21.69,11.49-6.19,3.66-51.87,7.62-57.74,11.76l.08,2.31c6.52-3.59,52.66-7.32,59.15-11,1-.58,2-1.16,3.07-1.73-7.78,6.41-54.89,13.3-62,20.45l.27,8.73c8.29-6.78,56.89-12.78,65.79-18.74-8.7,9-57,18.09-65.53,27.27Z"/><path class="cls-37" d="M537.92,105.58c1.61-1.19,3.22-2.38,4.88-3.46,4-2.62,8.12-5.08,12.19-7.61,8.58-5.31,56.6-11.05,64.66-17.1,1.94-1.45,3.85-2.93,5.76-4.42l.08-4.15c-2.15,1.65-4.23,3.43-6.36,5q-6.09,4.61-12.37,9c-8.08,5.59-56.24,10.58-64.42,16-1.47,1-3,2-4.53,3.13Z"/><polygon class="cls-38" points="580.14 41.83 555.7 172.41 590.04 171.66 621.64 42.27 580.14 41.83"/><path class="cls-31" d="M663.74,329.93a681.27,681.27,0,0,0-3.9,94.44c1.36-.27,3.53.52,4.79-1s1.08-4.68,1.19-8.31q.42-14.39.32-28.85c-.06-9.62-.31-19.23-.72-28.78q-.3-7.17-.75-14.28C664.48,340.06,663.42,332.7,663.74,329.93Z"/><path class="cls-31" d="M668.43,425.17c-.19-53.7-.28-108.14,13.11-160-13.75,52.38-20.81,106.29-17.86,160.48C665,425.27,667.11,425.54,668.43,425.17Z"/><path class="cls-31" d="M658.79,425.4q-.15-38-.28-76.06c-.15-41.34-.38-83.32-11.49-123,6.85,10.28,10.68,23.23,12.45,35.59s1.74,24.9,1.69,37.39q-.24,63.22-.49,126.43C660.63,425,658.79,426.09,658.79,425.4Z"/><path class="cls-31" d="M656.57,426.27c1.31-32.38,2.62-65-1.84-97.06a270.29,270.29,0,0,0-16.17-61.71c8.72,10.89,14.18,24.5,16.67,38.41s2.7,28.13,2.89,42.28q.54,39.27,1.07,78.54C658.15,426.7,657.62,426.3,656.57,426.27Z"/><path class="cls-31" d="M668.16,426.1c.91,0,1.59.42,2.49.46a299.63,299.63,0,0,1,10.08-82.9c-5.45,4.93-8.14,11.4-9.78,18.7s-1.78,14.88-1.93,22.38C668.75,398.68,668.43,412.15,668.16,426.1Z"/><path class="cls-31" d="M658.08,426c-1,0-1.81.49-2.84.53a341.25,341.25,0,0,0-11.49-94.5c6.22,5.62,9.28,13,11.15,21.32s2,16.95,2.2,25.5C657.41,394.78,657.78,410.13,658.08,426Z"/><path class="cls-39" d="M646.36,459.43h30.82c13-3.64,19.34-26.9,10.23-36.26H636.14C628.89,431.35,632.77,455.1,646.36,459.43Z"/><path class="cls-40" d="M636.14,423.17h51.27c3.35,3.45,4.59,8.78,4.19,14.33a4.35,4.35,0,0,1-1.2.46c-2.22.47-4.15-1.59-5.59-3.51s-3.21-4.07-5.47-3.86-3.81,3-4.54,5.45-1.32,5.3-3.31,6.74a5.17,5.17,0,0,1-6-.26c-3.19-2.27-2.48-5.41-4.21-8.62-.94-1.73-2.7-3.09-4.52-2.82s-3.26,2.15-4.09,4-1.38,4-2.65,5.56-3.62,2.4-5.1,1.05c-1.1-1-1.27-2.74-1.53-4.29s-.93-3.29-2.33-3.62c-1.19-.28-2.32.63-3.49,1a5.34,5.34,0,0,1-5-1.3C632.87,429.32,634,425.57,636.14,423.17Z"/><path class="cls-41" d="M651.7,457.38a65.43,65.43,0,0,1,0-31.89c-.1,0-.14-.26-.25-.26H637.75a34.87,34.87,0,0,0,1.37,22.94,20.26,20.26,0,0,0,4.64,7C645.8,457.05,649.05,457.55,651.7,457.38Z"/><path class="cls-18" d="M695.79,426.77c-7.38-7.43-14.8-14.91-20.8-23.58s-11.3-18.18-12.24-28.8c6.26,1,11.48,3.71,16.69,7.43A45.88,45.88,0,0,1,690.12,364C696.21,384.11,698.82,406,695.79,426.77Z"/><path class="cls-31" d="M679.79,394.45a26,26,0,0,1,6.06,1.09c-.94-2.22-1.85-4.28-2.69-6.09h-.06a.17.17,0,0,0,0-.07,43.15,43.15,0,0,0-7.1-3.59,35.63,35.63,0,0,0-5.28-1.61,32,32,0,0,1,5.48,1,32.51,32.51,0,0,1,6,2.24l-.41-.84-2.46-4.94s1.25,1.69,3,4.61c.31.5.64,1.06,1,1.63a30.5,30.5,0,0,1,2.58-8,31.12,31.12,0,0,1,2.3-3.95c.67-1,1.14-1.54,1.14-1.54a30.79,30.79,0,0,0-2.84,5.76,36.05,36.05,0,0,0-2.1,9.46h-.11c1,1.75,1.94,3.74,2.91,5.91a25.29,25.29,0,0,1,5.56-9.73,26.85,26.85,0,0,0-2.55,4.52,31.09,31.09,0,0,0-2.17,7.16l.3.74c.45,1.12.86,2.22,1.24,3.3a16.18,16.18,0,0,1,2.44-2.69,17,17,0,0,1,2.71-2,19.49,19.49,0,0,0-2.24,2.44,26.23,26.23,0,0,0-2.4,3.75c1,3,1.71,5.8,2.2,8,.74,3.36,1,5.48,1,5.48l-1.64-5.3c-.67-2.09-1.55-4.68-2.61-7.54a20.38,20.38,0,0,0-4.49.36,16.54,16.54,0,0,0-3.08.93,14.71,14.71,0,0,1,2.9-1.58,14.38,14.38,0,0,1,4.18-1c-.44-1.18-.92-2.41-1.42-3.66l-.6-1.48h0a38.28,38.28,0,0,0-6.83-2.08,30.72,30.72,0,0,0-4.71-.55A27.11,27.11,0,0,1,679.79,394.45Z"/><path class="cls-18" d="M622.49,408.75l6.65-5c3.9-2.94,7.79-5.88,11.62-8.91,5.6-4.42,11.14-9.14,15-15.21s6-14.1,4.09-21.12a24.14,24.14,0,0,0-12.81,2,21,21,0,0,0-8.27-6.65c-4.53,5.17-10,9.46-13.78,15.27s-5.38,12.63-5.74,19.49S621.28,402,622.49,408.75Z"/><path class="cls-31" d="M624.91,395.19a75.6,75.6,0,0,1,3.16-8.71,13.38,13.38,0,0,0-2.76-4.25,11.61,11.61,0,0,0-2.91-2.16,9.34,9.34,0,0,1,1,.37,10.68,10.68,0,0,1,2.28,1.3,11.3,11.3,0,0,1,3,3.31c.8-1.73,1.68-3.51,2.68-5.31.31-.56.63-1.1,1-1.64a22.24,22.24,0,0,0-1.48-5.81,19.22,19.22,0,0,0-2.06-3.77A17.07,17.07,0,0,1,631.4,372a18,18,0,0,1,1.87,4.59,72.73,72.73,0,0,1,4.27-6.12l-.07-.09.11-.08a22.75,22.75,0,0,0-.47-5.51,18.23,18.23,0,0,0-1.19-3.63,16.25,16.25,0,0,1,1.78,3.43,17,17,0,0,1,1,4.37c.82-1,1.62-1.92,2.36-2.73,1.43-1.57,2.63-2.78,3.5-3.59l1.33-1.25s-.42.5-1.2,1.39-1.87,2.21-3.17,3.87c-.44.56-.91,1.18-1.39,1.82a23.46,23.46,0,0,1,6.51-2.69,22.71,22.71,0,0,1,4.66-.69c1.21,0,2,0,2,0s-.76,0-1.95.21a23.66,23.66,0,0,0-4.51,1.1,26.92,26.92,0,0,0-8.6,5l-.09-.11c-1.34,1.93-2.75,4.1-4.16,6.45a37.14,37.14,0,0,1,13.89-1.08c1.27.14,2.06.28,2.06.28a38.57,38.57,0,0,0-7,.13,44.6,44.6,0,0,0-10,2.29c-.2.35-.4.69-.6,1.05-1,1.76-1.88,3.5-2.71,5.18a16.41,16.41,0,0,1,6.1-1.53,16.07,16.07,0,0,1,3.66.2,14.24,14.24,0,0,1,1.5.33,15.17,15.17,0,0,0-1.52-.13,16.84,16.84,0,0,0-3.57.23,18.58,18.58,0,0,0-7.06,2.84l0,0c-1.38,2.95-2.5,5.66-3.33,7.93-.75,2-1.31,3.63-1.66,4.77l-.57,1.78s.13-.65.38-1.83S624.31,397.25,624.91,395.19Z"/><path class="cls-18" d="M672.74,312.36a21.14,21.14,0,0,0-14.12,2.14c7.66,15.47,18.6,29.36,32.22,39.52a95,95,0,0,0,.25-26.09c-.69-4.74-1.77-9.53-4.14-13.65s-6.19-7.57-10.74-8.45C675.06,307.82,673.88,310.38,672.74,312.36Z"/><path class="cls-31" d="M667.25,321a23.07,23.07,0,0,1,3.67-1.11,22.15,22.15,0,0,1,7.4-.3c-.53-.77-1-1.47-1.53-2.08-.89-1.13-1.65-2-2.21-2.62l-.85-.93,1,.79a28.92,28.92,0,0,1,2.54,2.33c.64.66,1.34,1.45,2,2.34a13.24,13.24,0,0,0,.69-4.47,11.78,11.78,0,0,0-.64-3.71,9.71,9.71,0,0,1,.5,1,12,12,0,0,1,.34,8.31,35.41,35.41,0,0,1,3.17,5.21,10,10,0,0,0,2.75-3.26,9.25,9.25,0,0,0,1-3.1,8.72,8.72,0,0,1,0,1,9.9,9.9,0,0,1-.45,2.36,9,9,0,0,1-2.78,4.16,35.68,35.68,0,0,1,1.63,4.46c1.21-.68,3.5-1.62,3.5-1.62a36.29,36.29,0,0,1-3.16,2.87,32.77,32.77,0,0,1,.89,5.09,28.8,28.8,0,0,1,.16,3.51l0,1.28-.17-1.27c-.09-.81-.29-2-.58-3.42a45.44,45.44,0,0,0-1.18-4.6c-1.12,1.08-3.21,2.71-3.21,2.71a44.2,44.2,0,0,1,2.73-4l.08.07c-.51-1.51-1.13-3.1-1.86-4.71a17.48,17.48,0,0,0-5.83,1.53,15.74,15.74,0,0,0-3.59,2.27,15.34,15.34,0,0,1,8.85-5,51.76,51.76,0,0,0-3.07-5.39l-.06.3a26.45,26.45,0,0,0-8-.47,23.16,23.16,0,0,0-5.24,1.11S666.33,321.35,667.25,321Z"/><path class="cls-18" d="M645.07,344.57A37.12,37.12,0,0,0,662.87,326c-2.68-1.43-5-2-8-1.18-1.38-1.83-2.45-3.46-3.83-5.29-1,2.06-3,3.79-4.31,5.66C643,330.46,643.16,338.3,645.07,344.57Z"/><path class="cls-31" d="M647.93,338.26a13.45,13.45,0,0,1,.2-2.1,17.88,17.88,0,0,1,1.51-4.85c.14-.28.29-.54.44-.8a19.75,19.75,0,0,0-.85-2.83,13.62,13.62,0,0,0-.92-1.89,10.29,10.29,0,0,1,1.45,1.57,9.68,9.68,0,0,1,1.11,1.84,16.89,16.89,0,0,1,1.62-2,14.08,14.08,0,0,1,1.5-1.43l-1,1.81c-.29.53-.63,1.15-1,1.85a16.34,16.34,0,0,1,3.6-.87,16.75,16.75,0,0,1,3.34-.1,19,19,0,0,0-3.21.73,26.28,26.28,0,0,0-4.54,2l0-.07-.42.85a.47.47,0,0,1,0,.1,7,7,0,0,1,1.64.12,7.29,7.29,0,0,1,1.58.49,8.91,8.91,0,0,0-1.59.15,17.24,17.24,0,0,0-2.24.6v0c-.54,1.15-1,2.2-1.35,3C648.23,337.52,647.93,338.26,647.93,338.26Z"/><path class="cls-42" d="M71.22,271.19c7.52-14.18,18.33-34.32,17.23-48.44-5.84,14.17-9.88,28.84-18.67,41.61-4.47-17.78-1-35.35,7.19-51.52-5.37,2.75-10.25,17.77-12.28,25.65-3.78-6.06-2-18.17-4.74-21.91C56.89,242.22,73.41,268.09,62.7,294c-9.15-28.4-36-63.75-12-91.66,10.26-3.69,16.86-11.27,19.67-21.89,2.06-3.22,8.62-29.22,1.49-23-.43,8.27-3.89,16-7.18,23.51-9.75-33.82-9.79-20.86-3.25,3.58-5.07,20-25.2,4.63-23.35,49.21-8.17-11.95-11.45-26.63-7.47-40.7.27-1.39-1.81-2-2.16-.59C18.61,226,48.68,260.23,58.24,291.85c4.89,14-9.88,23.61-9.71,37-9.75-14.16.59-41.4-9.55-52.06,5.05,19.59-5.25,43.59,10.73,59.43.84,3.26,8.44,21.59,10.69,13.41a1.81,1.81,0,0,0,.57,0c4.85,7.29,5.17-10.32,6.47-13.1,3.77-13.82,10.44-26.32,10.57-40.86.26-.81-1-1.39-1.41-.59C73.38,312,63.42,326.3,61,343.58c-13.6-12.5,5.31-28.81,4.14-43.3,2.95-9.2,5.61-18.73,5.24-28.41A1.73,1.73,0,0,0,71.22,271.19Z"/><path class="cls-43" d="M107.9,424.3c1.95,9.18-2.45,18.87-8.85,25.07s-14.57,9.65-22.52,13H43.35c-8-3.31-16.12-6.74-22.55-13S10,433.48,12,424.3c3.56-16.88,29.76-21.32,29-38.61-.62-13.88-1.41-28.06-4.2-41.62H83.1c-2.79,13.56-3.56,27.74-4.18,41.62C78.16,403,104.36,407.42,107.9,424.3Z"/><path class="cls-7" d="M55.25,344.07H42.8c1.76,10.69,3.41,21.44,3.2,32.27-.21,11.6-2.67,23.41-8.9,33.19-3.38,5.31-7.87,10.05-9.85,16-2.37,7.11-.78,15.06,2.64,21.73a70.35,70.35,0,0,0,10.34,14.27l1.86.77h6.63A79.23,79.23,0,0,1,45.34,423c1.61-9.42,4.93-18.47,6.93-27.82"/><path class="cls-44" d="M108.34,427.82a22.14,22.14,0,0,0-.44-3.52c0-.2-.1-.38-.15-.57C103.31,436.9,91.59,444,76.62,443.14c-12.38,4-22.41,10-33.21.26-26.77-9.67,39.08-21.61,47-28.51,1.47-4.72,2.37-7.38,2.78-8.67l-.25-.19c-1.55,2.67-6.56,11.3-13.61,11.5-26.29-.46-44,29.38-66,14.07a8.39,8.39,0,0,1-1.5.78,27.93,27.93,0,0,0,.75,3.38C22.8,440.49,41.19,445.7,45,448.21c13.56,15.08,31.16-8.79,47.65-3.22C98.28,443.62,104.79,435.55,108.34,427.82Z"/><path class="cls-44" d="M54.23,402.7c10.51,5.86,19.33-1.16,26.62-8.78A17.21,17.21,0,0,1,80,392c-9.65,6.8-24,16.88-21.54,5,.38-11.13,12.5-14.42,20.86-18.44l.15-2.94c-5.39,2.09-11.75,2.36-16,6.87-4.34,10.07-21.81,28-29.51,17.84-.82.77-1.68,1.53-2.57,2.27C35,406.33,42.1,408.5,54.23,402.7Z"/><path class="cls-45" d="M75.92,376.34c.23,11.6,2.8,23.41,9.32,33.19,3.53,5.31,8.22,10.05,10.3,16,2.47,7.11.81,15.06-2.77,21.73A45.47,45.47,0,0,1,84.32,459c-.65.26-7.12,3.12-7.77,3.37H73.09A76.1,76.1,0,0,0,76.62,423c-1.69-9.42-5.15-18.47-7.25-27.82-3.75-16.74-3.94-34-3.12-51.07h13C77.43,354.76,75.71,365.51,75.92,376.34Z"/><path class="cls-46" d="M49.91,404.51c.64-2.34,1.26-4.68,1.82-7C48,400.68,44,403,40.42,403.28c-.44,1-.88,1.93-1.38,2.87A24.22,24.22,0,0,0,49.91,404.51Z"/><path class="cls-46" d="M27.55,441.55c7.78,2.73,15.17,5.17,17.42,6.66l.27.28c-.21-1.33-.37-2.67-.51-4-.44-.35-.88-.68-1.32-1.08-10-3.61-7.07-7.55,1-11.42,0-.58.08-1.15.12-1.73-6.12,3.19-12.06,5.71-18.15,5.7A31.78,31.78,0,0,0,27.55,441.55Z"/><path class="cls-47" d="M36.76,344.07l23.17-.64c3.86-.05,7.72,0,11.58,0H83.89l-.16.78c-2.42,11.85-3.31,24-3.91,36.07l-.21,4.54a17.29,17.29,0,0,0,.22,4.39A16.87,16.87,0,0,0,83.72,397c3.85,4.55,9,7.91,13.67,11.78a46.68,46.68,0,0,1,6.63,6.41,21.35,21.35,0,0,1,4.31,8.25c1.58,6.12.23,12.62-2.6,18.08a33.69,33.69,0,0,1-5.4,7.52,35.29,35.29,0,0,1-7.22,5.73,94.37,94.37,0,0,1-16.58,7.61c5.52-2.51,11.09-5,16-8.44s9.29-7.69,12-13,4-11.43,2.5-17.16A19.82,19.82,0,0,0,103,416a45.7,45.7,0,0,0-6.43-6.23c-4.64-3.83-9.81-7.19-13.86-12a18.19,18.19,0,0,1-4.16-8.34,18.49,18.49,0,0,1-.24-4.68l.21-4.55c.6-12.13,1.49-24.31,3.93-36.27l.64.78H71.51c-3.86,0-7.72,0-11.58,0Z"/></g></g><g id="左手"><path class="cls-48" d="M378.3,338.72a3.46,3.46,0,0,0-.69-3.36c-1.55-1.32-3.72,4.38-4.05.33l-.65-8.09L368,323.46l-9.44.77-.62,9.1c-.48,3.36-.64,11,2.56,14.73,4,4.66,13.59,5.69,18,4.42,3.54-1,2.15-3.19,1-4.15"/><path class="cls-48" d="M368.47,350.24a19.52,19.52,0,0,0,8.06-.31c3.18-1,6.75-5.83,3.17-6.31"/><path class="cls-48" d="M365.9,347.18c6.06,2.22,13.49-1.1,15-5.29,1.17-3.36-1.27-3.44-2.46-3.2,0,0-3.51,6.77-14.14,5m5.57-14.94c-.81,1.12,1.46,4.48-.2,8.62-1.13,2.8,3.44,1.53,4-.33"/></g><path id="衣服" class="cls-5" d="M376,173.5l83.52-2.29.16,117.13s2,9,1,11c-.11.05-35.7,4.89-45,5s-30-3-30-7Z"/><path class="cls-49" d="M386.47,605.12l-.05,10.71,7.5.94.09-15S392.07,598.25,386.47,605.12Z"/><path class="cls-48" d="M389.61,596.33s-3.95,5.46-9.64,13.08c-9.48,12.7-4,26.67-24.2,18.21.72-10.28-.18-6.44,2.92-10.79,5.69-8,7.14-14.28,9.43-22.92,1.61-6,4.88-13,5.75-31.61,9.49.6,9.4,1.31,15.88.46,2.31,4-.17,12.51,1.23,16.75C394.15,589.14,393.22,585.68,389.61,596.33Z"/><path class="cls-49" d="M355.94,631.08s-2.83-5.86-1.25-9.1c2.48-5.05,3.43-5.72,5.3-3,4.06,6,10.23,3.07,11.21,1.22,2.27-4.26,6.12-8.9,11.69-17.5,4-6.12,7.21-5.29,8.78-13.83,1.36-7.33.19-7.49.19-7.49s5.55,3,5.31,12.32l-.55,21.53-2.7,1.52s.17-12.32.2-13.76c.11-4-3.95-2.41-8.25,2.87a42.76,42.76,0,0,0-5.51,9c-2.68,5.89-2.7,9.23-3.76,13.88C375.2,635,363.43,635.13,355.94,631.08Z"/><path class="cls-48" d="M466.36,584.65c0,15.85-1.88,40.27-23.42,28.09-4.07-2.3,1.67-15.66,3.75-24.35a149.76,149.76,0,0,0,4.68-35.59c9.51.37,8.53,1,15,0C468.77,556.7,466.36,575.28,466.36,584.65Z"/><path class="cls-49" d="M469.17,594c-.94,11.24-2.32,21.64-4.69,23.42-7.49,5.62-17.79,3.74-23.41-.94,0,0-3.75-7.49,0-10.3,3.75,7.49,15,6.55,20.6,3.74s5.62-34.65,5.62-34.65S470.1,582.77,469.17,594Z"/><path class="cls-50" d="M410.76,302.08a53,53,0,0,1-25.33-3.58s-12.45,36.3-8.72,65.1.39,77,.7,90.44-5.86,86.11-6.56,115.53a89.38,89.38,0,0,1,20.59,1.19S405.08,506.21,405,492s9.86-100.5,17.31-118.14Z"/><path class="cls-51" d="M416.41,369.19s-3,8.73-3.2,9.57A318,318,0,0,0,406,414.83c-4.08,26.51-5.51,42.95-7.22,68.91C397.24,506.35,384,568.1,384,568.1"/><path class="cls-50" d="M415.83,302s29.51-3.43,43.77-12.19c0,0,19.5,35.17,18.67,63.85s-11.64,89.31-6.63,101.7c10.89,26.93.59,70.24-4.44,97.52,0,0-9.38,5.86-17,.4,0,0-3.13-84-4.66-91.73s-20-87.93-23.25-87.63C415.14,344.18,414.55,315.73,415.83,302Z"/><path class="cls-50" d="M464.42,553.84c5.57-45.09,10.6-72.37-.4-104-4.53-13,5.84-76,4.13-111.57-.71-14.61-11.22-30.59-15-41.82"/><path class="cls-52" d="M410.59,312.15c2.54,23.57,9,70.59,13.47,61.73,0,0-6.67-48.26-6.87-62.6Z"/><path class="cls-53" d="M405.45,312.72c-9.88-.9-13.72-.85-22.93-3.49,1.57-7.06,2.85-11.55,2.85-11.55,13.87,5.28,41.77,1.5,41.77,1.5L417,313.6S415.2,313.6,405.45,312.72Z"/><path class="cls-53" d="M437.93,310.28c9.53-2.72,17.93-6.91,26.6-11-2.69-6.72-4.69-10.94-4.69-10.94-10.36,10.08-37.37,10.59-43.09,11.73-.74.15-1,.26-.94,1L417,313.6c.94,0,3.63.07,4.43,0A97.53,97.53,0,0,0,437.93,310.28Z"/><path class="cls-54" d="M425.07,306.26a2.44,2.44,0,1,1-2.63-2A2.37,2.37,0,0,1,425.07,306.26Z"/><path class="cls-54" d="M448,307.33l-1.92.77s.14.69,1.65.44a15.44,15.44,0,0,0,3.62-1.31,1.9,1.9,0,0,0,1.15-2.35l-3.52-10.47a2.43,2.43,0,0,0-3-1.48l-1.76.69a2.34,2.34,0,0,0-1.73,2.2l1.08-.36S447.05,302.44,448,307.33Z"/><path class="cls-54" d="M397.28,312.69l2,.47s0,.71-1.56.69a15.49,15.49,0,0,1-3.77-.74,1.9,1.9,0,0,1-1.5-2.15l1.87-10.89a2.43,2.43,0,0,1,2.75-1.91l1.84.41a2.34,2.34,0,0,1,2.05,1.91l-1.13-.19S397.42,307.72,397.28,312.69Z"/><g id="頭"><path class="cls-55" d="M424.41,55a20,20,0,0,0-3.22-3.22c-2.26-1.38-8-1.93-12.75.46s-9.29,9.12-11.19,10.44c-6.82,4.72-9,13.57-10.7,23.67S385,108,385.69,118.25c.54,7.92.53,11.88-.37,15.16-.74,2.72-2.1,5-4.31,8.68-.46.77-1,1.6-1.49,2.51l-.19.32h.37a62.88,62.88,0,0,0,13.41-2c3-.7,6.14-1.51,9.25-2.33,2-.52,4-1.05,6-1.54a85.22,85.22,0,0,1,13.55-2.53,18.12,18.12,0,0,1,5,.22,5.82,5.82,0,0,1,3.23,1.68,8.59,8.59,0,0,1,1.49,4.17,63.59,63.59,0,0,1,.51,6.73c0,.65,0,1.3.06,2a89.16,89.16,0,0,0,1.27,14.34c1.07,5.29,3.17,10,7.46,12.37s10.7,2.51,20.32-1.14h0l0,0a6.64,6.64,0,0,0,3.22-7.08,64.86,64.86,0,0,0-1.12-6.43c-.06-.26-.11-.52-.17-.8-.53-2.55-1.17-5.64-1.84-9.46.11-3,.25-5.48.39-7.65,0-.47.06-.92.09-1.36.1-1.6.19-3,.25-4.26a19.68,19.68,0,0,0-.74-7.63,77.31,77.31,0,0,1-2.77-12.44c-.15-.85-.29-1.71-.44-2.55-.46-2.6-.94-5.09-1.55-7.25a15.71,15.71,0,0,0-2.35-5.26c-1.91-2.43-3.29-5.83-4.63-10.17-.8-2.6-1.58-5.52-2.45-8.75-.58-2.18-1.2-4.49-1.89-7A48.56,48.56,0,0,0,437,61.93C433.34,57.46,429,54.56,424.41,55Z"/><path id="脖子" class="cls-48" d="M373.56,165.75l.19-.15,1-.79,3.45-2.87c2.87-2.39,6.71-5.6,10.61-8.92s7.86-6.76,11-9.58c1.55-1.4,2.89-2.66,3.91-3.67.5-.51.93-1,1.26-1.33a5.6,5.6,0,0,0,.71-.92,16.79,16.79,0,0,0,1.5-6.63c.07-1.11.07-2.1.06-2.82,0-.36,0-.66,0-.86v-.09h21.38v0c0,.19-.08.47-.12.81a25.85,25.85,0,0,0-.18,2.73,13.22,13.22,0,0,0,1.45,6.82,17.82,17.82,0,0,0,2,2.36c1,1,2.31,2.31,3.8,3.73,3,2.84,6.75,6.26,10.43,9.55s7.3,6.48,10,8.83l3.24,2.82.9.78.16.14-.08.1c-.14.17-.34.42-.62.74-.55.64-1.36,1.55-2.42,2.64a75.69,75.69,0,0,1-9.14,8c-7.86,5.83-19,11.64-32.25,11.64s-23.79-5.81-31.06-11.64a64.78,64.78,0,0,1-8.33-8c-.95-1.1-1.67-2-2.15-2.64-.25-.32-.43-.57-.55-.74A.61.61,0,0,1,373.56,165.75Z"/><path id="臉" class="cls-48" d="M419.12,131.89h0c4.34-.76,9.43-3.8,13.42-8.61A29.93,29.93,0,0,0,439.49,104v0c0-7.8,0-17.54-3.1-25.16a19.51,19.51,0,0,0-7.4-9.4c-3.52-2.26-8.19-3.48-14.38-3.15-7.31.38-11.53,5.08-14.38,11.33-1.49,6.71-3,14.92-4.24,21.23a1.31,1.31,0,0,0-.81.68,4.91,4.91,0,0,0-.52,1.61,17.27,17.27,0,0,0,0,4.44,14.7,14.7,0,0,0,.39,2.09,5.52,5.52,0,0,0,.62,1.53,1,1,0,0,0,1,.58,1.26,1.26,0,0,0,.74-.5c1.05,8.13,2.27,10.34,3.39,12a17.32,17.32,0,0,0,2.79,2.87,43.82,43.82,0,0,0,4.68,3.52,34.94,34.94,0,0,0,5.53,3A14.42,14.42,0,0,0,419.12,131.89Z"/><path class="cls-56" d="M403.22,60.47c.74,3,5.26,6,4.47,8.2-2.37,6.46-8,5.41-8,13.8C400.23,97,398.74,100,395,97"/></g><path id="髮絲" class="cls-56" d="M434.94,219.36c3.58,1.93,9.65,8.32,5.36,14.15,5.66-2.4,7.08-9.72,7.08-13.08,0-4.71-2.79-7.93,1.71-15.86,1.72-7.08-1.71-7.94-4.29-15.22s2.41-11.8,6.89-28.95,1.48-26.8-.24-35.59c-1.37-7-5-15.36-6.65-18.65"/><path id="髮絲-2" data-name="髮絲" class="cls-57" d="M416.68,69.67c-6.52.51-7.52-1.76-9.74-4,3.51,1.14,6.48.29,14,.12,9.43-.22,16.72,5.57,18,10.29h0c1,3.66,1.93,7.07,4.07,17.15a49.47,49.47,0,0,1,0,19.3c-1.93,11.57,5,18.43,5.58,25.72.85,10.72-1.93,12.87-7.72,30.23s0,21,0,30.45,5.36,18,2.14,24.87-7.93,1.93-11.79,7.93c-2.23-4.12,1.22-8.72,3.22-10.51,2.57-3.08-1.08-11.43-3.22-15.22.72,3.07-1.5,5.31,0,10.94.86,3.21-5.93,9.57-4.29,6.86,5.26-6-4.07-19.51,0-28.95s-2.68-20.15,1.5-29.8c2.79-6.43,3.29-19.86,2.79-26.8,0-9.43,6.63-10.65,3.86-21.44-2.14-8.36,5.45-7.71,1.5-17.58s-.43-14.13-2.57-21.22C431.26,68.81,424.83,69,416.68,69.67Z"/><g id="外套"><path class="cls-58" d="M464.18,292.56c-13,8.17-15,4.09-20.34.83-.2,0-1.55-.81-1.66-.83l2.05-58.15L455.37,149h.26l1.16,0a22.56,22.56,0,0,1,3.57.31,10.61,10.61,0,0,1,3.7,1.27,4.11,4.11,0,0,1,2.05,2.86,8.39,8.39,0,0,0,3,5.71c1.68,1.38,4.13,2.45,7.55,3.93a5.67,5.67,0,0,1,3.16,3.28,13.69,13.69,0,0,1,.72,4.75v1.73c0,1.12,0,2.22.07,3.25a6.86,6.86,0,0,0,1.34,4,13,13,0,0,1,2.87,6.87,49.77,49.77,0,0,1,.33,7.22v.95a11.08,11.08,0,0,0,1.4,4.65c.36.74.76,1.5,1.17,2.27l.15.28c.46.87-2.16,1.63-1.73,2.54,0,5,3,16,3,21,1,8-2,17-12,15-6.86-1.37-8-6-8-11,0,3-3.19,17.1,0,32,2,9.13,3.16,23,4,31Z"/><path class="cls-58" d="M403.18,140.22l.65-.17v.14c0,.29,0,.72-.07,1.28-.06,1.13-.14,2.78-.25,4.89-.22,4.22-.53,10.28-.89,17.62-.73,14.68-1.7,34.49-2.61,55-1.83,41,0,36.65.13,52.64.09,8-.73,29.23-.95,29.22-10.52,4.34-24.06.06-23-3-.52-2.36-5-66.67-7.7-78.29-1.14-4.89-2.3-9.66-3.4-14.19-1.51-6.22-2.91-12-4-17.06-.95-4.36-1.68-8.19-2.06-11.28s-.41-5.46,0-6.89c1.75-5.95,3.45-10,6.33-12.9s6.91-4.67,13.4-6l.14,0a.38.38,0,0,0,.19,0,.22.22,0,0,0,.12-.13.31.31,0,0,0,0-.16.4.4,0,0,0-.09-.16,2.27,2.27,0,0,0-.27-.27l-.43-.34c-.44-.33-1-.74-1.67-1.19l-1.08-.77a27.82,27.82,0,0,1-2.61-2,3.52,3.52,0,0,1-.34-.36.77.77,0,0,1-.12-.18h.16c5.06,0,12.9-1.41,19.47-2.81,3.28-.71,6.25-1.41,8.4-1.93ZM378.8,151.05Zm.14-.26h0Z"/><path class="cls-58" d="M373.18,159.43s-2.94,1.57-2.75,9-4.53,26.23-4.35,32.94,6.69,44,8.88,54.22c2.55,11.87-2.83,72.57-2.83,72.57s-15.94,7.62-16.06,3.27c-.37-14.16.89-51.5.89-51.5s2.94-29.91.51-37.31-8.77-49.75-3.93-64.05c3.2-9.42,5.36-23.27,21.7-25.93"/></g><g id="左手-2" data-name="左手"><path class="cls-59" d="M520.18,266.67c9.23-.78,22.05,64.74,22.05,64.74l-101.59,8.74s1.76-66.74,11-67.51S510.94,267.44,520.18,266.67Z"/><path class="cls-54" d="M485.18,221.84c3,5,14,15,19,46h3S497.18,221.84,485.18,221.84Z"/><path class="cls-54" d="M469.18,227.84c-5,14-5.16,34-5,43h-4S456.77,221.36,469.18,227.84Z"/><path class="cls-54" d="M482,217.45c23.94,2.14,32,61.66,32,61.66a54.79,54.79,0,0,0-5.92,1.05c0-4-5.52-36.81-13.59-49-6.3-9.55-11.35-12.87-16.64-12.15s-9.26,5.28-12.77,16.16c-4.5,14-1,47,.06,50.88a57.58,57.58,0,0,0-6,.58s-8.18-59.5,14.31-68a16.82,16.82,0,0,1,4.17-1.26A17.29,17.29,0,0,1,482,217.45Z"/><path class="cls-60" d="M511,279.75l-2.9.4s-1.24,7.84.31,10.68c1.09,2,4.62,3.78,4.62,3.78s3.19-2.69,3.7-4.92c.73-3.15-2.57-10.37-2.57-10.37l-2.9.4Z"/><rect class="cls-60" x="507.22" y="276.25" width="7.39" height="3.9" transform="translate(-32.95 71.71) rotate(-7.78)"/><path class="cls-60" d="M462.3,286.4l2.9-.4s3.3,7.22,2.57,10.37c-.51,2.23-3.44,4.88-3.44,4.88s-3.79-1.73-4.89-3.74c-1.54-2.84-.3-10.68-.3-10.68l2.9-.4Z"/><rect class="cls-60" x="458.22" y="282.95" width="7.39" height="3.9" transform="translate(958.15 504.65) rotate(172.22)"/><path class="cls-46" d="M488.23,232.75c-1.14,3-4.2,5-9.7,5.09Z"/><path class="cls-46" d="M462.79,198.75l0-.21,3.28-5.4.17-.14a61.6,61.6,0,0,0,6.9,6.67l-3.77-11.95.1-.09c2.53,2.88,6.51,6.41,7.55,6.78l-4.52-11.51.16-.1a60.13,60.13,0,0,0,5.65,7.88l10,38.15.47-.11a8.87,8.87,0,0,1-.46,4l-9.7,5.09h-.35c-6,0-9-10-9-10,.8-2.45,4.45-8,3.88-13-2.49-4.26-5.12-3.22-7.08-5.29-3.13-3.31-6.9-8.38-4.64-10.46A1.54,1.54,0,0,1,462.79,198.75Z"/><path class="cls-46" d="M488.69,228.72l-.47.11-10-38.15a60.13,60.13,0,0,1-5.65-7.88,16.79,16.79,0,0,1-1.09-2.34c-1.32-3.6.23-5.26,1.53-5.86,2.68,8.37,11.35,16,13.91,21.16-.6,4.08-.67,15.81.35,19.68A65.26,65.26,0,0,1,488.69,228.72Z"/><path class="cls-46" d="M469.33,187.72l3.77,11.95a61.6,61.6,0,0,1-6.9-6.67c-1.7-2-2.78-3.77-2.21-4.64C465.24,186.43,468.07,187.13,469.33,187.72Z"/><path class="cls-46" d="M472.46,182.9,477,194.41c-1-.37-5-3.9-7.55-6.78-1.31-1.49-2.22-2.8-2.16-3.42C467.43,182.37,470.34,181.41,472.46,182.9Z"/><path class="cls-46" d="M466,193.14l-3.28,5.4C461.36,194.64,464.37,193.31,466,193.14Z"/><path class="cls-61" d="M469.33,187.72c-1.26-.59-4.09-1.29-5.34.64-.57.87.51,2.67,2.21,4.64a61.6,61.6,0,0,0,6.9,6.67"/><path class="cls-61" d="M466,193.14c-1.66.17-4.67,1.5-3.28,5.4"/><path class="cls-61" d="M469.18,227.84c.8-2.45,4.45-8,3.88-13-2.49-4.26-5.12-3.22-7.08-5.29-3.13-3.31-6.9-8.38-4.64-10.46a1.54,1.54,0,0,1,1.45-.36c2.23.52,5.24,4.86,8.35,6.05"/><path class="cls-61" d="M488.69,228.72a65.26,65.26,0,0,0-1.37-13.28c-1-3.87-.95-15.6-.35-19.68-2.56-5.2-11.23-12.79-13.91-21.16-1.3.6-2.85,2.26-1.53,5.86a16.79,16.79,0,0,0,1.09,2.34,60.13,60.13,0,0,0,5.65,7.88"/><path class="cls-61" d="M472.46,182.9c-2.12-1.49-5-.53-5.19,1.31-.06.62.85,1.93,2.16,3.42,2.53,2.88,6.51,6.41,7.55,6.78"/><path class="cls-62" d="M469.18,227.84s3,10,9,10h.35c5.5-.08,8.56-2.11,9.7-5.09a8.87,8.87,0,0,0,.46-4"/></g><path id="髮絲-3" data-name="髮絲" class="cls-55" d="M450.2,167.11c-2.24,12.68-3.73,24.61,0,29.08,6.48,7.79,2.23,14.17.74,26.1,1.72-7.07,11.93-9.69,10.44-14.91-4.91-17.21.1-17.67,5.22-26.85,8.7-15.58,1.69-24.59,0-33.38-1.37-7-3-10.78-6.68-20.31"/><path class="cls-63" d="M415.52,96.27a10.07,10.07,0,0,1-20.13,0c0-5.56,3.38-7.09,8.94-7.09C414,89.18,415.52,90.71,415.52,96.27Z"/><path class="cls-63" d="M418.5,96.27a10.07,10.07,0,0,0,20.14,0c0-5.56-3.39-7.09-8.95-7.09C420,89.18,418.5,90.71,418.5,96.27Z"/><rect class="cls-63" x="415.15" y="93.66" width="3.73" height="1.86"/><path class="cls-64" d="M412.91,107.45s-.67,1.62,2.31,1.48"/><path class="cls-64" d="M421.11,107.45s.75,1.49-2.23,1.49"/><g id="嘴"><path class="cls-65" d="M414.64,120.68a10.19,10.19,0,0,0,5.16.23c.47-.13.31-.66-.17-.53a8.79,8.79,0,0,1-4.78-.21c-.47-.17-.68.34-.21.51Z"/><path class="cls-66" d="M420.08,117.48a2.66,2.66,0,0,0-1.14-.67,7.11,7.11,0,0,0-2.22-.43,7.3,7.3,0,0,0-1.75.3,1.64,1.64,0,0,0-.83.44,1,1,0,0,0-.16.47h0l0,.16a.92.92,0,0,0,.27.69,2,2,0,0,0,.7.44,4.79,4.79,0,0,0,1.46.39,9.53,9.53,0,0,0,1.5.15,4.3,4.3,0,0,0,1.43,0C420.33,119,420.64,118.13,420.08,117.48Z"/><path class="cls-67" d="M412,118a8.89,8.89,0,0,0,2.82.13c.75,0,1.51-.31,2.27-.35a9.59,9.59,0,0,1,2.05.31,12.13,12.13,0,0,0,2.82.13c.47-.06.31-.59-.17-.53a8.5,8.5,0,0,1-2.72-.2,8,8,0,0,0-1.86-.3c-.66,0-1.24.24-1.9.29a12.32,12.32,0,0,1-2.91-.06c-.66,0-.87.49-.4.58Z"/></g><path class="cls-68" d="M399.45,92.28c-1.53.55-2.11,2.23-1.57,5.06"/><path class="cls-68" d="M422.56,92.28c-1.52.55-2.1,2.23-1.56,5.06"/></g></g></svg>