<svg xmlns="http://www.w3.org/2000/svg" xmlns:xlink="http://www.w3.org/1999/xlink" viewBox="0 0 864 648"><defs><style>.cls-1,.cls-52,.cls-53,.cls-60{fill:none;}.cls-2{isolation:isolate;}.cls-3{clip-path:url(#clip-path);}.cls-4{fill:#f5f5f5;}.cls-48,.cls-5{fill:#aaa;}.cls-6{fill:#a3a3a3;}.cls-30,.cls-61,.cls-7{fill:#ccc;}.cls-10,.cls-59,.cls-8{fill:#d9d9d9;}.cls-8,.cls-9{stroke:#e6e6e6;}.cls-10,.cls-29,.cls-30,.cls-47,.cls-48,.cls-56,.cls-8,.cls-9{stroke-miterlimit:10;}.cls-12,.cls-9{fill:#d2d2d2;}.cls-10,.cls-47{stroke:#f2f2f2;}.cls-11{fill:#f9f9f9;}.cls-13,.cls-34,.cls-38,.cls-41,.cls-45{mix-blend-mode:screen;}.cls-14{fill:url(#鍊踑臇蜸馯鳺艜_5);}.cls-15{fill:#4d4d4d;}.cls-16{fill:#9f9f9f;}.cls-17{fill:#b8b8b8;}.cls-18,.cls-55{fill:#e6e6e6;}.cls-19{fill:#929292;}.cls-20{fill:#b6b6b6;}.cls-21{fill:#989898;}.cls-22{fill:#b2b2b2;mix-blend-mode:multiply;}.cls-23{fill:#a9a9a9;}.cls-24{fill:#9c9c9c;}.cls-25{fill:#d7d7d7;}.cls-26{fill:#8f8f8f;}.cls-27{fill:#cacaca;}.cls-28,.cls-29{fill:#afafaf;}.cls-29,.cls-48,.cls-49,.cls-50,.cls-51,.cls-52,.cls-53,.cls-54,.cls-55,.cls-56,.cls-58,.cls-59,.cls-60,.cls-61{stroke:#999;}.cls-30{stroke:#aaa;}.cls-31{fill:#dcdcdc;}.cls-32{fill:url(#鍊踑臇蜸馯鳺艜_17);}.cls-33{fill:url(#鍊踑臇蜸馯鳺艜_14);}.cls-34{fill:url(#鍊踑臇蜸馯鳺艜_16);}.cls-35{fill:#f6f6f6;}.cls-36{fill:#b1b1b1;}.cls-37{fill:#bebebe;}.cls-38{fill:url(#鍊踑臇蜸馯鳺艜_18);}.cls-39{fill:url(#鍊踑臇蜸馯鳺艜_17-2);}.cls-40{fill:url(#鍊踑臇蜸馯鳺艜_14-2);}.cls-41{fill:url(#鍊踑臇蜸馯鳺艜_16-2);}.cls-42,.cls-50{fill:#bfbfbf;}.cls-43{fill:url(#鍊踑臇蜸馯鳺艜_4);}.cls-44{fill:#e5e5e5;}.cls-45{opacity:0.56;fill:url(#鍊踑臇蜸馯鳺艜_2);}.cls-46,.cls-49{fill:#fff;}.cls-47{fill:#ededed;}.cls-49,.cls-50,.cls-52,.cls-54,.cls-55,.cls-58,.cls-59,.cls-60,.cls-61{stroke-linecap:round;}.cls-49,.cls-50,.cls-51,.cls-52,.cls-53,.cls-54,.cls-55,.cls-57,.cls-58,.cls-59,.cls-60,.cls-61{stroke-linejoin:round;}.cls-51{fill:#c4c4c4;}.cls-52{stroke-dasharray:3 5;}.cls-54{fill:#dbdbdb;}.cls-56,.cls-57{fill:#666;}.cls-57{stroke:gray;}.cls-58{fill:#b3b3b3;}</style><clipPath id="clip-path"><rect class="cls-1" width="864" height="648"/></clipPath><linearGradient id="鍊踑臇蜸馯鳺艜_5" x1="244.96" y1="8.15" x2="254.83" y2="345.83" gradientUnits="userSpaceOnUse"><stop offset="0" stop-color="#7f7f7f"/><stop offset="1"/></linearGradient><linearGradient id="鍊踑臇蜸馯鳺艜_17" x1="704.55" y1="296.75" x2="738.45" y2="296.75" gradientUnits="userSpaceOnUse"><stop offset="0" stop-color="#bcbcbc"/><stop offset="0.46" stop-color="#b9b9b9"/><stop offset="0.85" stop-color="#aeaeae"/><stop offset="1" stop-color="#a8a8a8"/></linearGradient><linearGradient id="鍊踑臇蜸馯鳺艜_14" x1="721.4" y1="279.82" x2="735.59" y2="279.82" gradientUnits="userSpaceOnUse"><stop offset="0" stop-color="#c2c2c2"/><stop offset="1" stop-color="#989898"/></linearGradient><linearGradient id="鍊踑臇蜸馯鳺艜_16" x1="724.53" y1="269.96" x2="722.99" y2="324.87" gradientUnits="userSpaceOnUse"><stop offset="0" stop-color="#666"/><stop offset="0.88"/></linearGradient><linearGradient id="鍊踑臇蜸馯鳺艜_18" x1="609.54" y1="61.94" x2="535.23" y2="198.1" gradientUnits="userSpaceOnUse"><stop offset="0" stop-color="#d6d6d6"/><stop offset="0.56" stop-color="#505050"/><stop offset="0.88"/></linearGradient><linearGradient id="鍊踑臇蜸馯鳺艜_17-2" x1="-677.1" y1="436.13" x2="-743.81" y2="444.68" gradientTransform="matrix(-1, 0, 0, 1, -50.58, 0)" xlink:href="#鍊踑臇蜸馯鳺艜_17"/><linearGradient id="鍊踑臇蜸馯鳺艜_14-2" x1="-678.21" y1="427.75" x2="-744.83" y2="436.28" gradientTransform="matrix(-1, 0, 0, 1, -50.58, 0)" xlink:href="#鍊踑臇蜸馯鳺艜_14"/><linearGradient id="鍊踑臇蜸馯鳺艜_16-2" x1="-689.9" y1="414.1" x2="-703.22" y2="465.14" gradientTransform="matrix(-1, 0, 0, 1, -50.58, 0)" xlink:href="#鍊踑臇蜸馯鳺艜_16"/><linearGradient id="鍊踑臇蜸馯鳺艜_4" x1="11.5" y1="403.2" x2="108.36" y2="403.2" gradientUnits="userSpaceOnUse"><stop offset="0" stop-color="#fff"/><stop offset="0.07" stop-color="#f8f8f8"/><stop offset="0.7" stop-color="silver"/><stop offset="1" stop-color="#aaa"/></linearGradient><linearGradient id="鍊踑臇蜸馯鳺艜_2" x1="83.9" y1="344.1" x2="76.96" y2="472.56" gradientUnits="userSpaceOnUse"><stop offset="0" stop-color="#e5e5e5"/><stop offset="0.52" stop-color="#5f5f5f"/><stop offset="0.88"/></linearGradient></defs><title>product3.6</title><g class="cls-2"><g id="圖層_3" data-name="圖層 3"><g id="景物"><g class="cls-3"><rect id="背景" class="cls-4" width="864" height="648"/><polygon class="cls-5" points="866.75 458.02 -0.5 457 -0.5 645.81 866.75 646.83 866.75 458.02"/><polygon class="cls-6" points="865.75 646.83 633.75 653 4.35 646.53 4.44 467.86 324.92 467.86 15.51 501.25 15.51 528.66 633.75 619.68 865.75 467.89 865.75 646.83"/><polygon class="cls-7" points="452.7 456.76 189.67 456.76 182.04 -52.74 460.32 -52.74 452.7 456.76"/><polygon class="cls-8" points="455.52 -52.74 447.89 456.76 455.52 456.76 465.38 -52.74 455.52 -52.74"/><polygon class="cls-9" points="399.34 -52.74 374.12 397.78 118.62 397.78 113.74 -52.74 399.34 -52.74"/><polygon class="cls-10" points="435.52 436.88 437.93 417.33 380.86 417.33 383.27 397.78 121.4 397.78 121.4 417.65 121.4 417.65 121.4 437.2 121.4 437.2 121.4 456.75 490.22 456.75 492.85 436.88 435.52 436.88"/><polygon class="cls-7" points="121.4 456.75 490.22 456.75 490.6 453.89 121.4 452.21 121.4 456.75"/><polygon class="cls-7" points="435.52 436.88 121.4 437.2 121.4 431.8 435.83 434.34 435.52 436.88"/><polygon class="cls-7" points="380.86 417.33 121.4 417.65 121.4 413.11 381.26 414.09 380.86 417.33"/><polygon class="cls-7" points="121.4 397.78 139.1 397.78 144.03 417.65 156.51 417.65 161.76 437.2 176.22 437.15 186.07 456.75 121.4 456.75 121.4 397.78"/><polygon class="cls-8" points="114.95 -52.74 122.61 456.76 117.09 456.76 100.89 -52.74 114.95 -52.74"/><polygon class="cls-11" points="135.18 48.05 144.1 392.31 239.12 392.31 234.92 48.05 135.18 48.05"/><polygon class="cls-11" points="241.93 48.05 242.56 392.31 331.9 392.31 345.05 48.05 241.93 48.05"/><rect class="cls-12" x="135.17" y="318.26" width="209.9" height="2.58" transform="translate(-5.87 4.5) rotate(-1.06)"/><g class="cls-13"><polygon class="cls-14" points="133.9 45.48 343.76 45.48 385.71 165.19 372.84 395.2 120.12 395.2 116.74 137.25 133.9 45.48"/></g><polygon class="cls-15" points="841.92 311.62 841.92 325.95 862.56 326.45 862.7 325.36 844.38 323.69 844.38 313.83 864.31 312.71 864.49 311.28 850.77 311.49 841.92 311.62"/><polygon class="cls-16" points="853.38 286.8 850.77 311.49 864.49 311.28 871.65 311.17 871.82 309.91 852.87 309.91 854.97 288.66 874.73 288.32 874.74 288.32 874.94 286.8 853.38 286.8"/><polygon class="cls-7" points="834.52 340.27 834.52 340.34 837.86 340.33 856.42 340.27 873.83 340.23 873.93 339.07 873.92 339.07 837.28 338.56 836.99 328.25 874.84 328.25 874.85 328.25 874.97 326.85 862.56 326.45 841.92 325.95 834.52 325.77 834.52 340.27"/><polygon class="cls-17" points="778.73 329.35 779.84 335.73 786.95 335.44 788.76 329.35 778.73 329.35"/><polygon class="cls-17" points="814.41 325.29 814.41 340.38 818.85 340.38 817.89 325.37 814.41 325.29"/><polygon class="cls-17" points="824.35 340.38 826.01 340.37 826.01 325.56 820.31 325.43 822.26 340.38 824.35 340.38"/><path class="cls-18" d="M782.69,324.52l31.72.77v15.09h4.44l-42.63.12-1.06-16.19ZM787,335.43l1.81-6.08h-10l1.11,6.38Z"/><path class="cls-19" d="M782.69,324.52v-12l3.49-.05,40.56-.63,5.6-.09,9.58-.15V326l-7.4-.18-8.51-.21-5.7-.13-2.42-.06-3.48-.08Zm38.16-3.35-.62-6-31.82.34v5.22Zm12.13.15V315l-9.39.1v6.07Z"/><polygon class="cls-20" points="788.41 315.52 788.41 320.75 820.85 321.17 820.23 315.18 788.41 315.52"/><polygon class="cls-18" points="820.6 340.39 822.26 340.38 820.31 325.43 817.89 325.37 818.85 340.38 818.85 340.39 820.6 340.39"/><polygon class="cls-20" points="823.59 315.13 823.59 321.2 832.98 321.32 832.98 315.03 823.59 315.13"/><polygon class="cls-18" points="829.95 340.35 832.2 340.35 834.52 340.34 834.52 340.27 834.52 325.77 826.01 325.56 826.01 340.37 829.95 340.35"/><polygon class="cls-20" points="828.14 286.8 826.74 311.86 832.34 311.77 835.53 286.8 828.14 286.8"/><polygon class="cls-17" points="835.53 286.8 832.34 311.77 841.92 311.62 850.77 311.49 853.38 286.8 835.53 286.8"/><polygon class="cls-21" points="836.99 328.25 837.28 338.56 873.92 339.07 873.93 339.07 874.84 328.25 836.99 328.25"/><polygon class="cls-21" points="844.38 313.83 844.38 323.69 862.7 325.36 864.31 312.71 844.38 313.83"/><polygon class="cls-21" points="854.97 288.66 852.87 309.91 871.82 309.91 874.74 288.32 874.73 288.32 854.97 288.66"/><polygon class="cls-22" points="841.92 311.62 782.69 312.58 782.69 315.18 841.92 317.45 841.92 311.62"/><path class="cls-8" d="M768.58,63.16V204.44h-5.14c.1-76.25.18-141.28.18-141.28Z"/><polygon class="cls-23" points="843.25 153.67 840.54 207.56 808.62 207.56 843.25 153.67"/><polygon class="cls-23" points="843.64 144.52 843.25 153.67 833.6 144.52 843.64 144.52"/><polygon class="cls-17" points="866.75 125.11 866.24 207.56 862.6 207.56 852.62 207.56 855.77 134.83 856.36 125.11 866.75 125.11"/><polygon class="cls-18" points="843.64 144.52 844.05 134.83 855.77 134.83 852.62 207.56 840.54 207.56 843.25 153.67 843.64 144.52"/><polygon class="cls-24" points="843.25 153.67 808.62 207.56 799.97 197.08 833.6 144.52 843.25 153.67"/><polygon class="cls-25" points="828.16 153.02 838.62 160.88 836.42 164.31 826.42 155.75 828.16 153.02"/><polygon class="cls-25" points="843.5 147.86 855.25 146.78 854.83 156.61 843.17 155.27 843.5 147.86"/><polygon class="cls-20" points="855.7 136.46 866.75 136.46 866.66 139.64 855.5 140.97 855.7 136.46"/><path class="cls-26" d="M888.76,340.29h.07l-.12,5h-27l.15-5Z"/><polygon class="cls-8" points="768.58 204.44 852.68 204.44 852.61 207.78 768.58 207.78 763.44 207.78 716.32 207.78 716.24 204.44 763.44 204.44 768.58 204.44"/><polygon class="cls-8" points="768.58 340.29 850.16 340.29 850.06 345.33 768.58 345.33 763.25 345.33 718.87 345.33 718.77 340.29 718.87 340.29 763.27 340.29 768.58 340.29"/><polygon class="cls-26" points="880.71 451.27 880.24 469 847.06 469 847.63 451.27 855.31 451.27 880.71 451.27"/><polygon class="cls-27" points="847.63 451.27 847.06 469 724.42 469 723.96 451.27 847.63 451.27"/><path class="cls-8" d="M768.58,345.33V442.7h-5.46s0-41.65.13-97.37Z"/><polygon class="cls-15" points="823.56 407.27 823.44 408.66 793.42 409.44 793.42 422.47 822.17 422.99 821.99 424.98 791.51 424.98 791.51 407.27 823.56 407.27"/><polygon class="cls-28" points="823.44 408.66 822.17 422.99 793.42 422.47 793.42 409.44 823.44 408.66"/><polygon class="cls-23" points="839.74 424.98 839.56 426.39 800.01 427.16 800.01 440.17 837.8 440.71 837.82 440.71 837.57 442.7 797.34 442.7 797.34 424.98 808.48 424.98 838.96 424.98 839.74 424.98"/><polygon class="cls-29" points="839.56 426.39 837.82 440.71 837.8 440.71 800.01 440.17 800.01 427.16 839.56 426.39"/><polygon class="cls-19" points="791.51 407.27 791.51 424.98 780.37 424.98 744.43 424.98 742.51 407.27 791.51 407.27"/><polygon class="cls-29" points="797.34 424.98 797.34 442.7 731.86 442.7 729.2 424.98 761.4 424.98 797.34 424.98"/><polygon class="cls-20" points="776.97 407.27 775.86 424.98 783.99 424.98 783.04 407.27 776.97 407.27"/><polygon class="cls-20" points="747.88 407.27 750.1 424.98 751.71 424.98 750.6 407.27 747.88 407.27"/><polygon class="cls-20" points="735.77 424.98 736.64 442.7 742.8 442.7 742.8 424.98 735.77 424.98"/><polygon class="cls-20" points="780.26 424.98 778.53 442.7 781 442.7 781.98 424.98 780.26 424.98"/><polygon class="cls-20" points="784.94 424.98 783.04 442.7 788.27 442.7 788.27 424.98 784.94 424.98"/><path class="cls-8" d="M768.58,207.78V340.29h-5.31c.05-40.76.1-88.35.17-132.51Z"/><polygon class="cls-30" points="860.15 204.56 855.31 451.27 847.63 451.27 723.96 451.27 713.62 451.27 713.44 442.85 720.69 442.7 763.12 442.7 768.58 442.7 848.24 442.7 850.06 345.33 850.16 340.29 852.61 207.78 852.68 204.44 853.42 204.44 860.15 204.56"/><polygon class="cls-8" points="718.87 345.33 720.69 442.7 713.44 442.85 705.78 51.89 863.15 51.89 860.15 204.56 853.42 204.44 852.68 204.44 855.31 63.16 768.58 63.16 763.62 63.16 713.62 63.16 716.24 204.44 716.32 207.78 718.77 340.29 718.87 345.33"/><path class="cls-16" d="M888.71,345.33l.12-5,3.52-132.51.09-3.34,3.74-141.28H869.63l-4,141.28-.07,3.34-3.73,132.51-.15,5L859,442.7h27.16Zm12.7-293.44-10,399.38H855.31l4.84-246.7,3-152.68Z"/><path class="cls-31" d="M724.8,269.72c.35-14.57-12.19-27.33-13.22-41.88,5.65,7.47,9.93,15.8,11.79,24.6-1.23-13.1,2.41-26.95,8.88-38.82-.3,14.08-.16,27.8-.46,41.88,2.85-9.35,5-18.15,7.87-27.49,2,14.07-3.13,28.08-8.17,41.55C729.44,269.56,726.85,269.72,724.8,269.72Z"/><path class="cls-18" d="M726.93,268.41c-.54-7.12-2.93-14-4.78-21s-3.17-14.2-1.55-21.19c2.71,9.44,4.91,18.54,7.62,28-.82-8.37,2.56-16.63,4.71-24.83a70.49,70.49,0,0,0,1.43-29.08c3.08,4.65,4.31,10.4,4.4,15.77s-.88,10.71-1.84,16q-3.28,18.19-6.58,36.38C729.29,268.41,728,268.48,726.93,268.41Z"/><path class="cls-32" d="M741,319.46a20.6,20.6,0,0,1-3.88,7.29H719.85a20.44,20.44,0,0,1-3.88-7.29,101.13,101.13,0,0,0,5.43-52.71h14.19A93.23,93.23,0,0,0,741,319.46Z"/><path class="cls-33" d="M731.85,292.88a93.6,93.6,0,0,1,2.27-13.73,94.76,94.76,0,0,1,1.47-12.4H721.4a102.66,102.66,0,0,1,1.3,17.92c0,.17.09.35.14.52l3.72-11.83a48.62,48.62,0,0,0,1.63,15.07l1.84-8Q730.95,286.65,731.85,292.88Z"/><path class="cls-34" d="M727.58,267.75c1.76,16.88-1.45,36.65-4.53,50.56.43,2.23,1,4.26,1.43,6.5h-2.39c-1-1.92-1.77-4.22-2.76-6.14a137.48,137.48,0,0,0,3.77-50.93C724.36,267.87,726.32,267.62,727.58,267.75Z"/><polygon class="cls-35" points="526.35 40.93 532 172.93 631.46 171.62 632.77 42.53 526.35 40.93"/><polygon class="cls-4" points="536.14 47.49 537.97 107.18 539.72 164.38 623.64 164.38 625.38 74.77 625.83 51.61 536.14 47.49"/><path class="cls-16" d="M637.5,38.17l-1.81,137.5-107.75,1.49L521.43,36.33Zm-6,133.45,1.31-129.09-106.42-1.6,5.65,132Z"/><polygon class="cls-36" points="521.43 36.34 526.35 40.93 532 172.93 631.46 171.62 635.68 175.67 527.94 177.16 521.43 36.34"/><path class="cls-37" d="M624.37,126.7l-2.73,1.73c-3.11,2-6.17,4.09-9.23,6.18s-6.35,4-9.25,6.38-45.55,4.43-47.45,7.66c-.42.7,40,1.42,40.69,1.29,3.68-.67,6.92-2.75,10-4.72s6.24-4.4,9.32-6.6c2.86-2,5.71-4.08,8.52-6.18Z"/><path class="cls-37" d="M539.33,151.64c8.32-5.86,56.34-11.73,64.66-17.6,6.81-4.8,13.67-9.53,20.51-14.28l.15-7.55c-7.85,5.63-15.67,11.3-23.56,16.88l-2.94,2.08q13.19-13.93,26.67-27.59l.15-8a2.5,2.5,0,0,0-1.61,1c-7.14,5.39-14.56,10.38-22,15.38,6.15-5.36,12.45-10.56,18.71-15.78,1.84-1.53-.5-4.12-2.43-3.15-7.33,3.69-14.62,7.31-21.69,11.49-6.19,3.66-51.87,7.62-57.74,11.76l.08,2.31c6.52-3.59,52.66-7.32,59.15-11,1-.58,2-1.16,3.07-1.73-7.78,6.41-54.89,13.3-62,20.45l.27,8.73c8.29-6.78,56.89-12.78,65.79-18.74-8.7,9-57,18.09-65.53,27.27Z"/><path class="cls-37" d="M537.92,105.58c1.61-1.19,3.22-2.38,4.88-3.46,4-2.62,8.12-5.08,12.19-7.61,8.58-5.31,56.6-11.05,64.66-17.1,1.94-1.45,3.85-2.93,5.76-4.42l.08-4.15c-2.15,1.65-4.23,3.43-6.36,5q-6.09,4.61-12.37,9c-8.08,5.59-56.24,10.58-64.42,16-1.47,1-3,2-4.53,3.13Z"/><polygon class="cls-38" points="580.14 41.83 555.7 172.41 590.04 171.66 621.64 42.27 580.14 41.83"/><path class="cls-31" d="M663.74,329.93a681.27,681.27,0,0,0-3.9,94.44c1.36-.27,3.53.52,4.79-1s1.08-4.68,1.19-8.31q.42-14.39.32-28.85c-.06-9.62-.31-19.23-.72-28.78q-.3-7.17-.75-14.28C664.48,340.06,663.42,332.7,663.74,329.93Z"/><path class="cls-31" d="M668.43,425.17c-.19-53.7-.28-108.14,13.11-160-13.75,52.38-20.81,106.29-17.86,160.48C665,425.27,667.11,425.54,668.43,425.17Z"/><path class="cls-31" d="M658.79,425.4q-.15-38-.28-76.06c-.15-41.34-.38-83.32-11.49-123,6.85,10.28,10.68,23.23,12.45,35.59s1.74,24.9,1.69,37.39q-.24,63.22-.49,126.43C660.63,425,658.79,426.09,658.79,425.4Z"/><path class="cls-31" d="M656.57,426.27c1.31-32.38,2.62-65-1.84-97.06a270.29,270.29,0,0,0-16.17-61.71c8.72,10.89,14.18,24.5,16.67,38.41s2.7,28.13,2.89,42.28q.54,39.27,1.07,78.54C658.15,426.7,657.62,426.3,656.57,426.27Z"/><path class="cls-31" d="M668.16,426.1c.91,0,1.59.42,2.49.46a299.63,299.63,0,0,1,10.08-82.9c-5.45,4.93-8.14,11.4-9.78,18.7s-1.78,14.88-1.93,22.38C668.75,398.68,668.43,412.15,668.16,426.1Z"/><path class="cls-31" d="M658.08,426c-1,0-1.81.49-2.84.53a341.25,341.25,0,0,0-11.49-94.5c6.22,5.62,9.28,13,11.15,21.32s2,16.95,2.2,25.5C657.41,394.78,657.78,410.13,658.08,426Z"/><path class="cls-39" d="M646.36,459.43h30.82c13-3.64,19.34-26.9,10.23-36.26H636.14C628.89,431.35,632.77,455.1,646.36,459.43Z"/><path class="cls-40" d="M636.14,423.17h51.27c3.35,3.45,4.59,8.78,4.19,14.33a4.35,4.35,0,0,1-1.2.46c-2.22.47-4.15-1.59-5.59-3.51s-3.21-4.07-5.47-3.86-3.81,3-4.54,5.45-1.32,5.3-3.31,6.74a5.17,5.17,0,0,1-6-.26c-3.19-2.27-2.48-5.41-4.21-8.62-.94-1.73-2.7-3.09-4.52-2.82s-3.26,2.15-4.09,4-1.38,4-2.65,5.56-3.62,2.4-5.1,1.05c-1.1-1-1.27-2.74-1.53-4.29s-.93-3.29-2.33-3.62c-1.19-.28-2.32.63-3.49,1a5.34,5.34,0,0,1-5-1.3C632.87,429.32,634,425.57,636.14,423.17Z"/><path class="cls-41" d="M651.7,457.38a65.43,65.43,0,0,1,0-31.89c-.1,0-.14-.26-.25-.26H637.75a34.87,34.87,0,0,0,1.37,22.94,20.26,20.26,0,0,0,4.64,7C645.8,457.05,649.05,457.55,651.7,457.38Z"/><path class="cls-18" d="M695.79,426.77c-7.38-7.43-14.8-14.91-20.8-23.58s-11.3-18.18-12.24-28.8c6.26,1,11.48,3.71,16.69,7.43A45.88,45.88,0,0,1,690.12,364C696.21,384.11,698.82,406,695.79,426.77Z"/><path class="cls-31" d="M679.79,394.45a26,26,0,0,1,6.06,1.09c-.94-2.22-1.85-4.28-2.69-6.09h-.06a.17.17,0,0,0,0-.07,43.15,43.15,0,0,0-7.1-3.59,35.63,35.63,0,0,0-5.28-1.61,32,32,0,0,1,5.48,1,32.51,32.51,0,0,1,6,2.24l-.41-.84-2.46-4.94s1.25,1.69,3,4.61c.31.5.64,1.06,1,1.63a30.5,30.5,0,0,1,2.58-8,31.12,31.12,0,0,1,2.3-3.95c.67-1,1.14-1.54,1.14-1.54a30.79,30.79,0,0,0-2.84,5.76,36.05,36.05,0,0,0-2.1,9.46h-.11c1,1.75,1.94,3.74,2.91,5.91a25.29,25.29,0,0,1,5.56-9.73,26.85,26.85,0,0,0-2.55,4.52,31.09,31.09,0,0,0-2.17,7.16l.3.74c.45,1.12.86,2.22,1.24,3.3a16.18,16.18,0,0,1,2.44-2.69,17,17,0,0,1,2.71-2,19.49,19.49,0,0,0-2.24,2.44,26.23,26.23,0,0,0-2.4,3.75c1,3,1.71,5.8,2.2,8,.74,3.36,1,5.48,1,5.48l-1.64-5.3c-.67-2.09-1.55-4.68-2.61-7.54a20.38,20.38,0,0,0-4.49.36,16.54,16.54,0,0,0-3.08.93,14.71,14.71,0,0,1,2.9-1.58,14.38,14.38,0,0,1,4.18-1c-.44-1.18-.92-2.41-1.42-3.66l-.6-1.48h0a38.28,38.28,0,0,0-6.83-2.08,30.72,30.72,0,0,0-4.71-.55A27.11,27.11,0,0,1,679.79,394.45Z"/><path class="cls-18" d="M622.49,408.75l6.65-5c3.9-2.94,7.79-5.88,11.62-8.91,5.6-4.42,11.14-9.14,15-15.21s6-14.1,4.09-21.12a24.14,24.14,0,0,0-12.81,2,21,21,0,0,0-8.27-6.65c-4.53,5.17-10,9.46-13.78,15.27s-5.38,12.63-5.74,19.49S621.28,402,622.49,408.75Z"/><path class="cls-31" d="M624.91,395.19a75.6,75.6,0,0,1,3.16-8.71,13.38,13.38,0,0,0-2.76-4.25,11.61,11.61,0,0,0-2.91-2.16,9.34,9.34,0,0,1,1,.37,10.68,10.68,0,0,1,2.28,1.3,11.3,11.3,0,0,1,3,3.31c.8-1.73,1.68-3.51,2.68-5.31.31-.56.63-1.1,1-1.64a22.24,22.24,0,0,0-1.48-5.81,19.22,19.22,0,0,0-2.06-3.77A17.07,17.07,0,0,1,631.4,372a18,18,0,0,1,1.87,4.59,72.73,72.73,0,0,1,4.27-6.12l-.07-.09.11-.08a22.75,22.75,0,0,0-.47-5.51,18.23,18.23,0,0,0-1.19-3.63,16.25,16.25,0,0,1,1.78,3.43,17,17,0,0,1,1,4.37c.82-1,1.62-1.92,2.36-2.73,1.43-1.57,2.63-2.78,3.5-3.59l1.33-1.25s-.42.5-1.2,1.39-1.87,2.21-3.17,3.87c-.44.56-.91,1.18-1.39,1.82a23.46,23.46,0,0,1,6.51-2.69,22.71,22.71,0,0,1,4.66-.69c1.21,0,2,0,2,0s-.76,0-1.95.21a23.66,23.66,0,0,0-4.51,1.1,26.92,26.92,0,0,0-8.6,5l-.09-.11c-1.34,1.93-2.75,4.1-4.16,6.45a37.14,37.14,0,0,1,13.89-1.08c1.27.14,2.06.28,2.06.28a38.57,38.57,0,0,0-7,.13,44.6,44.6,0,0,0-10,2.29c-.2.35-.4.69-.6,1.05-1,1.76-1.88,3.5-2.71,5.18a16.41,16.41,0,0,1,6.1-1.53,16.07,16.07,0,0,1,3.66.2,14.24,14.24,0,0,1,1.5.33,15.17,15.17,0,0,0-1.52-.13,16.84,16.84,0,0,0-3.57.23,18.58,18.58,0,0,0-7.06,2.84l0,0c-1.38,2.95-2.5,5.66-3.33,7.93-.75,2-1.31,3.63-1.66,4.77l-.57,1.78s.13-.65.38-1.83S624.31,397.25,624.91,395.19Z"/><path class="cls-18" d="M672.74,312.36a21.14,21.14,0,0,0-14.12,2.14c7.66,15.47,18.6,29.36,32.22,39.52a95,95,0,0,0,.25-26.09c-.69-4.74-1.77-9.53-4.14-13.65s-6.19-7.57-10.74-8.45C675.06,307.82,673.88,310.38,672.74,312.36Z"/><path class="cls-31" d="M667.25,321a23.07,23.07,0,0,1,3.67-1.11,22.15,22.15,0,0,1,7.4-.3c-.53-.77-1-1.47-1.53-2.08-.89-1.13-1.65-2-2.21-2.62l-.85-.93,1,.79a28.92,28.92,0,0,1,2.54,2.33c.64.66,1.34,1.45,2,2.34a13.24,13.24,0,0,0,.69-4.47,11.78,11.78,0,0,0-.64-3.71,9.71,9.71,0,0,1,.5,1,12,12,0,0,1,.34,8.31,35.41,35.41,0,0,1,3.17,5.21,10,10,0,0,0,2.75-3.26,9.25,9.25,0,0,0,1-3.1,8.72,8.72,0,0,1,0,1,9.9,9.9,0,0,1-.45,2.36,9,9,0,0,1-2.78,4.16,35.68,35.68,0,0,1,1.63,4.46c1.21-.68,3.5-1.62,3.5-1.62a36.29,36.29,0,0,1-3.16,2.87,32.77,32.77,0,0,1,.89,5.09,28.8,28.8,0,0,1,.16,3.51l0,1.28-.17-1.27c-.09-.81-.29-2-.58-3.42a45.44,45.44,0,0,0-1.18-4.6c-1.12,1.08-3.21,2.71-3.21,2.71a44.2,44.2,0,0,1,2.73-4l.08.07c-.51-1.51-1.13-3.1-1.86-4.71a17.48,17.48,0,0,0-5.83,1.53,15.74,15.74,0,0,0-3.59,2.27,15.34,15.34,0,0,1,8.85-5,51.76,51.76,0,0,0-3.07-5.39l-.06.3a26.45,26.45,0,0,0-8-.47,23.16,23.16,0,0,0-5.24,1.11S666.33,321.35,667.25,321Z"/><path class="cls-18" d="M645.07,344.57A37.12,37.12,0,0,0,662.87,326c-2.68-1.43-5-2-8-1.18-1.38-1.83-2.45-3.46-3.83-5.29-1,2.06-3,3.79-4.31,5.66C643,330.46,643.16,338.3,645.07,344.57Z"/><path class="cls-31" d="M647.93,338.26a13.45,13.45,0,0,1,.2-2.1,17.88,17.88,0,0,1,1.51-4.85c.14-.28.29-.54.44-.8a19.75,19.75,0,0,0-.85-2.83,13.62,13.62,0,0,0-.92-1.89,10.29,10.29,0,0,1,1.45,1.57,9.68,9.68,0,0,1,1.11,1.84,16.89,16.89,0,0,1,1.62-2,14.08,14.08,0,0,1,1.5-1.43l-1,1.81c-.29.53-.63,1.15-1,1.85a16.34,16.34,0,0,1,3.6-.87,16.75,16.75,0,0,1,3.34-.1,19,19,0,0,0-3.21.73,26.28,26.28,0,0,0-4.54,2l0-.07-.42.85a.47.47,0,0,1,0,.1,7,7,0,0,1,1.64.12,7.29,7.29,0,0,1,1.58.49,8.91,8.91,0,0,0-1.59.15,17.24,17.24,0,0,0-2.24.6v0c-.54,1.15-1,2.2-1.35,3C648.23,337.52,647.93,338.26,647.93,338.26Z"/><path class="cls-42" d="M71.22,271.19c7.52-14.18,18.33-34.32,17.23-48.44-5.84,14.17-9.88,28.84-18.67,41.61-4.47-17.78-1-35.35,7.19-51.52-5.37,2.75-10.25,17.77-12.28,25.65-3.78-6.06-2-18.17-4.74-21.91C56.89,242.22,73.41,268.09,62.7,294c-9.15-28.4-36-63.75-12-91.66,10.26-3.69,16.86-11.27,19.67-21.89,2.06-3.22,8.62-29.22,1.49-23-.43,8.27-3.89,16-7.18,23.51-9.75-33.82-9.79-20.86-3.25,3.58-5.07,20-25.2,4.63-23.35,49.21-8.17-11.95-11.45-26.63-7.47-40.7.27-1.39-1.81-2-2.16-.59C18.61,226,48.68,260.23,58.24,291.85c4.89,14-9.88,23.61-9.71,37-9.75-14.16.59-41.4-9.55-52.06,5.05,19.59-5.25,43.59,10.73,59.43.84,3.26,8.44,21.59,10.69,13.41a1.81,1.81,0,0,0,.57,0c4.85,7.29,5.17-10.32,6.47-13.1,3.77-13.82,10.44-26.32,10.57-40.86.26-.81-1-1.39-1.41-.59C73.38,312,63.42,326.3,61,343.58c-13.6-12.5,5.31-28.81,4.14-43.3,2.95-9.2,5.61-18.73,5.24-28.41A1.73,1.73,0,0,0,71.22,271.19Z"/><path class="cls-43" d="M107.9,424.3c1.95,9.18-2.45,18.87-8.85,25.07s-14.57,9.65-22.52,13H43.35c-8-3.31-16.12-6.74-22.55-13S10,433.48,12,424.3c3.56-16.88,29.76-21.32,29-38.61-.62-13.88-1.41-28.06-4.2-41.62H83.1c-2.79,13.56-3.56,27.74-4.18,41.62C78.16,403,104.36,407.42,107.9,424.3Z"/><path class="cls-7" d="M55.25,344.07H42.8c1.76,10.69,3.41,21.44,3.2,32.27-.21,11.6-2.67,23.41-8.9,33.19-3.38,5.31-7.87,10.05-9.85,16-2.37,7.11-.78,15.06,2.64,21.73a70.35,70.35,0,0,0,10.34,14.27l1.86.77h6.63A79.23,79.23,0,0,1,45.34,423c1.61-9.42,4.93-18.47,6.93-27.82"/><path class="cls-44" d="M108.34,427.82a22.14,22.14,0,0,0-.44-3.52c0-.2-.1-.38-.15-.57C103.31,436.9,91.59,444,76.62,443.14c-12.38,4-22.41,10-33.21.26-26.77-9.67,39.08-21.61,47-28.51,1.47-4.72,2.37-7.38,2.78-8.67l-.25-.19c-1.55,2.67-6.56,11.3-13.61,11.5-26.29-.46-44,29.38-66,14.07a8.39,8.39,0,0,1-1.5.78,27.93,27.93,0,0,0,.75,3.38C22.8,440.49,41.19,445.7,45,448.21c13.56,15.08,31.16-8.79,47.65-3.22C98.28,443.62,104.79,435.55,108.34,427.82Z"/><path class="cls-44" d="M54.23,402.7c10.51,5.86,19.33-1.16,26.62-8.78A17.21,17.21,0,0,1,80,392c-9.65,6.8-24,16.88-21.54,5,.38-11.13,12.5-14.42,20.86-18.44l.15-2.94c-5.39,2.09-11.75,2.36-16,6.87-4.34,10.07-21.81,28-29.51,17.84-.82.77-1.68,1.53-2.57,2.27C35,406.33,42.1,408.5,54.23,402.7Z"/><path class="cls-45" d="M75.92,376.34c.23,11.6,2.8,23.41,9.32,33.19,3.53,5.31,8.22,10.05,10.3,16,2.47,7.11.81,15.06-2.77,21.73A45.47,45.47,0,0,1,84.32,459c-.65.26-7.12,3.12-7.77,3.37H73.09A76.1,76.1,0,0,0,76.62,423c-1.69-9.42-5.15-18.47-7.25-27.82-3.75-16.74-3.94-34-3.12-51.07h13C77.43,354.76,75.71,365.51,75.92,376.34Z"/><path class="cls-46" d="M49.91,404.51c.64-2.34,1.26-4.68,1.82-7C48,400.68,44,403,40.42,403.28c-.44,1-.88,1.93-1.38,2.87A24.22,24.22,0,0,0,49.91,404.51Z"/><path class="cls-46" d="M27.55,441.55c7.78,2.73,15.17,5.17,17.42,6.66l.27.28c-.21-1.33-.37-2.67-.51-4-.44-.35-.88-.68-1.32-1.08-10-3.61-7.07-7.55,1-11.42,0-.58.08-1.15.12-1.73-6.12,3.19-12.06,5.71-18.15,5.7A31.78,31.78,0,0,0,27.55,441.55Z"/><path class="cls-47" d="M36.76,344.07l23.17-.64c3.86-.05,7.72,0,11.58,0H83.89l-.16.78c-2.42,11.85-3.31,24-3.91,36.07l-.21,4.54a17.29,17.29,0,0,0,.22,4.39A16.87,16.87,0,0,0,83.72,397c3.85,4.55,9,7.91,13.67,11.78a46.68,46.68,0,0,1,6.63,6.41,21.35,21.35,0,0,1,4.31,8.25c1.58,6.12.23,12.62-2.6,18.08a33.69,33.69,0,0,1-5.4,7.52,35.29,35.29,0,0,1-7.22,5.73,94.37,94.37,0,0,1-16.58,7.61c5.52-2.51,11.09-5,16-8.44s9.29-7.69,12-13,4-11.43,2.5-17.16A19.82,19.82,0,0,0,103,416a45.7,45.7,0,0,0-6.43-6.23c-4.64-3.83-9.81-7.19-13.86-12a18.19,18.19,0,0,1-4.16-8.34,18.49,18.49,0,0,1-.24-4.68l.21-4.55c.6-12.13,1.49-24.31,3.93-36.27l.64.78H71.51c-3.86,0-7.72,0-11.58,0Z"/></g></g><path id="衣服" class="cls-48" d="M409.57,246.5l70.5-9.5c-3.5,12.5-5.33,30.59-7.5,33.5,0,0,3.33,11,2.5,11.5-.09,0-28.86-1.68-36.58-1.65s-21.92.15-21.92-.85Z"/><path class="cls-49" d="M412.67,600.07s.95,4.78,8.6,3.82c16.87-2.11-.86,1.86,22-3.82-1.91-5.73-1.91-6.69-1-10.51-2.86-3.82-6.68-9.55-7.64-15.28-1.23-7.36-1.91-8.6-3.82-17.2a78,78,0,0,1-16.29.74c-1.86,5,1.4,13.24,1,18.37C414.58,588.61,410.58,588.18,412.67,600.07Z"/><path class="cls-50" d="M415.53,579.05c-5.73,9.56-1.91,44-1.91,44l19.11-1V608.67s4.78,2.87,7.64,4.78c2.25,1.5,1.35-11.83,0-17.2C432.73,593.38,419.38,572.64,415.53,579.05Z"/><path class="cls-49" d="M442.28,598.16s1,4.78,8.6,3.82c16.88-2.11,17.3,12.37,40.13,6.69,1.31-5.31.95-7.33-3.82-10.51-8.6-5.73-7.24-5.06-13.38-12.42C469,580,466.6,575,468.72,555.14c-10.17-.9-10.19-.14-16.93-2.09A80,80,0,0,0,448,571.41C447.06,583.83,440.19,586.27,442.28,598.16Z"/><path class="cls-50" d="M490.05,611.54s9.75-2,8.6-5.74c-1.8-5.76-10.74-8.58-8.6-5.73,2.87,3.82-10.39,2.41-13.37,1.91-5.74-1-13.38-5.73-16.25-7.64-7.15-4.77-16.24-10.51-16.24-10.51s-2.12,2.33-3.39,12.29a134.78,134.78,0,0,0-.31,25,65.36,65.36,0,0,0,6.57.94c4.78,0,6.69-.95,9.55-1.91,3.07-1,1-8.59,1-13.37,0-1.35,10.89,1.18,15.28,3.82C477.63,613.45,481.44,614.61,490.05,611.54Z"/><path class="cls-51" d="M429.86,265.69l-6.68-.95S390.69,291.49,393.56,323c3.2,35.2,9.55,127.06,10,127-.42,4.85-5.61,11.53-4.65,33.51,0,20.06,6,38.94,8.64,50.16,2.82,11.94,1.77,19.58,2.82,25.31,0,0,12.42,0,21-1.91,0,0-5.73-76.43,0-93.63,2.67-8,11.76-112.1,15.28-111.77C454.32,319.82,431.24,280.47,429.86,265.69Z"/><path class="cls-52" d="M438.05,373.65s-3.46,10.62-3.7,11.52c-3.31,12.27-4.5,57.52-6.81,72.55-4.37,28.44-2,4.64-3.82,32.48-1.6,24.25,4.77,67.84,4.77,67.84"/><path class="cls-51" d="M450.47,553.26l20.06,3.82c3.6-20,19.11-82.16,22-103.18C495.37,414.73,475.31,281,475.31,281l-45.45-15.29s-1.59,1.6-8.59,12.42c-9.16,14.15-16.25,26.75-6.69,52.55C425.08,359,449.93,363.14,461.93,453,449.51,488.29,450.47,553.26,450.47,553.26Z"/><path class="cls-53" d="M469.57,272.38c-1.53,8.49-1.67,30.63-.95,35.35,4.77,31.53,13.93,101.62,17.19,129.93,2.87,24.84-21,118.46-21,118.46"/><polygon class="cls-54" points="422.77 276.26 429.86 265.69 472.45 269.59 475.33 282.1 422.77 276.26"/><polygon class="cls-54" points="412.67 275.25 423.18 264.74 429.86 265.69 422.86 276.17 412.67 275.25"/><path class="cls-55" d="M448,279l1.94.35s0,.67-1.45.73a14.76,14.76,0,0,1-3.65-.51,1.83,1.83,0,0,1-1.55-2l1.23-10.51a2.34,2.34,0,0,1,2.53-2l1.78.3a2.24,2.24,0,0,1,2.06,1.72l-1.08-.12S447.87,274.26,448,279Z"/><path class="cls-56" d="M437.31,181.28c9.09,5,17.46-.79,20.46-2.47a7.75,7.75,0,0,0,3.43-3.54c-2.51,1.87-4.55,3.25-7.17,3.48-5.23.46-8.9-1-11-4.41-3-4.68-1.67-9.93.75-15.51,2.74,2.4,6,4,7.48,7.33,2.45,5.55,8.14,8.39,16,8.5,3.76.05,16.31,4.16,17.88,7.55a5.51,5.51,0,0,0-1.37-5.35c-2.48-2.94-6.7-4-10.71-5.21a3.63,3.63,0,0,1-.61-.15c-.73-.37-.79.05-1.9-1.2-.57-.64,17.59,1.92,10.25-1.75-11.25-5.63-3-9,4-7.48-7.91-4,2.81-23.8-6.17-37.19-9.95-10.42-10.18-76.27-26.11-83.12s-24.73-1.69-32,.85-20.13,33.21-15.09,49.9c4.87,16.13,4.83,24.14,4.83,24.14s.1,14.92-5.56,23.94-7,6.54-10.49,10.71c-3.14,3.8-1.23,4.43,6.68,5.86-3.15-5.3-.21-6.54,4-7.12s6.38-5.41,8.84-16.82S422.69,106,422.69,106s-2.67,5.91,7.39,5.41,13.53,5.51,13.53,5.51l-12.05,37.73S428.22,176.27,437.31,181.28Z"/><path class="cls-57" d="M467,123s10.11,17.33,6.6,27,1.94,14.73,1.94,14.73"/><path class="cls-58" d="M453.35,147.9s6.28,16.92,17.38,22.42"/><path class="cls-58" d="M444,158.74s-.62-12,5.11-21.37"/><path class="cls-58" d="M410.63,67.22c5.5-3,8.1,39.3-.92,49.19"/><path class="cls-58" d="M425.61,67.6s5.91,20.6-2.92,38.38"/><path class="cls-49" d="M474.07,174.17c-10.94-.95-44.49-10.8-45.52-28s2.89-26.86,10.23-27.3C452.07,118.11,479.53,174.64,474.07,174.17Z"/><path class="cls-59" d="M482.57,226.5c-1-6,5.84-39.16,2.81-51s-31.63-54.63-31.52-45.08a254.12,254.12,0,0,1,20.87,47.74"/><path class="cls-59" d="M402.57,252.5c-6,24,36.66,6.55,47,10,15,5,26,3,27-9,1.14-13.67,6.8-20.54,6.8-38,0-50-49.24-89.81-63.8-76C378.57,178.5,409.12,226.29,402.57,252.5Z"/><path d="M445.49,74.63l-.6-.49Z"/><path d="M446.66,75.05l-.5-.41Z"/><path class="cls-49" d="M472.94,93.7a39.21,39.21,0,0,0,.46,7.59c-.17,4.32-13.46,2.57-18.92,2.09-10.94-.95-10.25-11.91-11.29-29.08s8.72-25.53,16.05-26c13.29-.8,11.3,13.6,15.31,24.79.86,2.4,6.07,6.87,3.34,7.89a20.35,20.35,0,0,1-4.69,1.24c-1.11.07-.22,4.3-.22,4.3a19.59,19.59,0,0,1,1.13,2.79c0,.47-4.86-.15-4.86-.15s4.44,1.13,4.5,2.08S472.91,93.22,472.94,93.7Z"/><path class="cls-56" d="M452.24,54.53c.19,3.9,4.43,6.31,9.25,6.08s21.77-3.13-1.9-21.64C456,36.16,452.05,50.62,452.24,54.53Z"/><path class="cls-58" d="M379.51,170.42c-.47-2.33,6,8.22,6.67,5.75"/><path class="cls-58" d="M456.26,69.94c-5.42-3.27-12.56,52.7-4.19,64.55"/><path class="cls-58" d="M440.6,72.35s-8.32,27.85-1,50.09"/><path class="cls-56" d="M396.35,199c.49,12.43,3.57,15.33,4.64,18a4.09,4.09,0,0,1-.27,4.1c-.32-2.76-8.24-8.57-10.89-9.48-5.53-1.91-8.89-5.23-9.33-9.72-.27-2.68-2.21-4.58-3.59-6.92-3,3.39-5.13,6.8-4.13,10.79.73,2.87,3,4.78,6.77,5.67,1.91.45,3.67-.06,5.88-.79a5.82,5.82,0,0,1-3.25,1.71c-2.51.49-9.76,2.64-15-3s2.12-20.17,2.12-20.17l12.25-30.33C388.85,142.21,398,51.59,415.33,40.53s34.14-5.26,41.43-2.84,6,6.14,8.89,22.16a143.1,143.1,0,0,1-6.54,41.35c-6.78,21.84,3.59,32.79,3.6,36,0,8.56-4.37,6.45-7.23,14.24a40.13,40.13,0,0,0-3.94-17.86s-1.67,19.63,3.29,30.76,6.66,7.69,9.82,12.74c2.88,4.59.82,5.67-7.58,8.56,3.84-7.38.91-8.63-3.39-8.85s-6.1-6.3-7.46-21-9.65-12.29-9.65-12.29,2.9-12.06-4.45-4.62a32.63,32.63,0,0,0-6.55,9.62s-9.43,51.64-20.08,62.95c-8.47,9-7.32-4-9.32-12.65"/><path class="cls-57" d="M385.52,164.85S384.14,179,379.43,185s-2.05,10.86-2.05,10.86"/><path class="cls-57" d="M398.77,179.61s-5.23,12.36-2,21"/><path class="cls-57" d="M440.55,131.85s-2.47-15.63.35-27.59"/><g id="左手"><path class="cls-46" d="M430,335.31l2.55-18.6c2.53,9.43.66,17.61,2.23,21.06l.29.35a2.12,2.12,0,0,0,1.14.74c1.19.22,1.72-1.72,1.72-1.72s-1-9.12,0-10.69,3.14-3.78,3.45-6c.31-3.46-1.89-8.17-1.89-8.17l-11.35-20.73L416.65,287l-1.53,21.9a44.93,44.93,0,0,1,1,4.4c.27,1.76,3.08,9,4.65,8.09,1.37-.83-1-10.57-1-10.57l.24-.19s2.45,16.14,5,21.8,4.72,4.71,4.72,4.71Z"/><path class="cls-46" d="M432.52,316.71,430,335.31l.06.27c2.94,4.69,4.78,2.81,5,2.54l-.29-.35C433.18,334.32,435.05,326.14,432.52,316.71Z"/><path class="cls-60" d="M432.52,316.71c2.53,9.43.66,17.61,2.23,21.06l.29.35a2.12,2.12,0,0,0,1.14.74c1.19.22,1.72-1.72,1.72-1.72s-1-9.12,0-10.69,3.14-3.78,3.45-6c.31-3.46-1.89-8.17-1.89-8.17l-11.35-20.73L416.65,287l-1.53,21.9a44.93,44.93,0,0,1,1,4.4c.27,1.76,3.08,9,4.65,8.09,1.37-.83-1-10.57-1-10.57l.24-.19s2.45,16.14,5,21.8,4.72,4.71,4.72,4.71"/><path class="cls-60" d="M435.07,338.09l0,0c-.23.27-2.07,2.15-5-2.54l-.06-.27c-1.48-6.46,0-11.11-2.79-15.76"/><path class="cls-60" d="M436.61,313.28c1.46,3.28,1,13.52,1,13.52"/></g><path class="cls-59" d="M410.1,212.3s-4.22,20.93-1.82,28.53c2.18,6.9,10.38,58.21,9.25,74.6-.27,4.06,30.89.09,30.41-6.74-1.23-17.19-8.71-48.94-8.75-63.67a254.25,254.25,0,0,1,8.34-72.76c6.92-26.89-.82-36.6-14.61-36.56S410,182.35,410.1,212.3Z"/><ellipse class="cls-61" cx="474.1" cy="68.89" rx="2.21" ry="7.94"/><line class="cls-60" x1="471.9" y1="68.6" x2="464.83" y2="67.13"/></g></g></svg>