<svg xmlns="http://www.w3.org/2000/svg" viewBox="0 0 720 648"><defs><style>.cls-1{fill:#fbf9fa;}.cls-12,.cls-2,.cls-3,.cls-4,.cls-5,.cls-6,.cls-7{isolation:isolate;}.cls-12,.cls-3,.cls-4,.cls-5{font-size:16px;}.cls-3{fill:#575454;}.cls-12,.cls-3,.cls-5,.cls-6,.cls-7,.cls-9{font-family:PingFangTC-Regular-B5pc-H, PingFang TC;}.cls-3,.cls-4,.cls-5{letter-spacing:0.11em;}.cls-12,.cls-4,.cls-5{fill:#5a5a5a;}.cls-4{font-family:PingFangTC-Medium-B5pc-H, PingFang TC;}.cls-6{font-size:16.26px;fill:gray;letter-spacing:0.11em;}.cls-7{font-size:24px;fill:#080808;letter-spacing:0.07em;}.cls-10,.cls-8{fill:none;}.cls-8{stroke:gray;stroke-miterlimit:10;}.cls-9{font-size:12.96px;fill:#666;letter-spacing:0.11em;}.cls-10,.cls-11{stroke:#999;stroke-linejoin:round;}.cls-11{fill:#fff;stroke-linecap:round;}.cls-12{letter-spacing:0.11em;}</style></defs><title>product3.7</title><g id="圖層_1" data-name="圖層 1"><g id="Group-2"><g id="Group"><rect id="Rectangle" class="cls-1" x="611.74" y="323.67" width="88.26" height="41.81"/><g id="_70" data-name="70" class="cls-2"><text class="cls-3" transform="translate(644.56 350.38)">105</text></g></g><g id="Group-2-2" data-name="Group"><rect id="Rectangle-2" data-name="Rectangle" class="cls-1" x="611.74" y="279.53" width="88.26" height="41.81"/><g id="_66" data-name="66" class="cls-2"><text class="cls-3" transform="translate(644.56 306.25)">26</text></g></g><g id="Group-3" data-name="Group"><rect id="Rectangle-3" data-name="Rectangle" class="cls-1" x="611.74" y="235.4" width="88.26" height="41.81"/><g id="_121" data-name="121" class="cls-2"><text class="cls-3" transform="translate(644.56 262.12)">47</text></g></g><g id="Group-4" data-name="Group"><rect id="Rectangle-4" data-name="Rectangle" class="cls-1" x="611.74" y="191.27" width="88.26" height="41.81"/><g id="_51" data-name="51" class="cls-2"><text class="cls-3" transform="translate(644.56 217.98)">36</text></g></g><g id="Group-5" data-name="Group"><rect id="Rectangle-5" data-name="Rectangle" class="cls-1" x="611.74" y="147.14" width="88.26" height="41.81"/><g id="XL" class="cls-2"><text class="cls-4" transform="translate(650.28 173.85)">L</text></g></g></g><g id="Group-2-3" data-name="Group-2"><g id="Group-6" data-name="Group"><rect id="Rectangle-6" data-name="Rectangle" class="cls-1" x="521.15" y="323.67" width="88.26" height="41.81"/><g id="_62" data-name="62" class="cls-2"><text class="cls-3" transform="translate(555.53 350.38)">102</text></g></g><g id="Group-7" data-name="Group"><rect id="Rectangle-7" data-name="Rectangle" class="cls-1" x="521.15" y="279.53" width="88.26" height="41.81"/><g id="_51-2" data-name="51" class="cls-2"><text class="cls-3" transform="translate(557.15 306.25)">24</text></g></g><g id="Group-8" data-name="Group"><rect id="Rectangle-8" data-name="Rectangle" class="cls-1" x="521.15" y="235.4" width="88.26" height="41.81"/><g id="_58" data-name="58" class="cls-2"><text class="cls-3" transform="translate(555.53 262.12)">42</text></g></g><g id="Group-9" data-name="Group"><rect id="Rectangle-9" data-name="Rectangle" class="cls-1" x="521.15" y="191.27" width="88.26" height="41.81"/><g id="_46" data-name="46" class="cls-2"><text class="cls-3" transform="translate(555.53 217.98)">31</text></g></g><g id="Group-10" data-name="Group"><rect id="Rectangle-10" data-name="Rectangle" class="cls-1" x="521.15" y="147.14" width="88.26" height="41.81"/><g id="F" class="cls-2"><text class="cls-4" transform="translate(559.72 173.85)">S</text></g></g></g><g id="Group-2-4" data-name="Group-2"><g id="Group-11" data-name="Group"><rect id="Rectangle-11" data-name="Rectangle" class="cls-1" x="427.08" y="323.67" width="91.75" height="41.81"/><g id="全長" class="cls-2"><text class="cls-5" transform="translate(454.96 350.38)">褲長</text></g></g><g id="Group-12" data-name="Group"><rect id="Rectangle-12" data-name="Rectangle" class="cls-1" x="427.08" y="279.53" width="91.75" height="41.81"/><g id="袖長" class="cls-2"><text class="cls-5" transform="translate(454.96 306.25)">褲管</text></g></g><g id="Group-13" data-name="Group"><rect id="Rectangle-13" data-name="Rectangle" class="cls-1" x="427.08" y="235.4" width="91.75" height="41.81"/><g id="胸圍" class="cls-2"><text class="cls-5" transform="translate(454.96 262.12)">臀圍</text></g></g><g id="Group-14" data-name="Group"><rect id="Rectangle-14" data-name="Rectangle" class="cls-1" x="427.08" y="191.27" width="91.75" height="41.81"/><g id="肩寬" class="cls-2"><text class="cls-5" transform="translate(454.96 217.98)">腰圍</text></g></g><g id="Group-15" data-name="Group"><rect id="Rectangle-15" data-name="Rectangle" class="cls-1" x="427.08" y="147.14" width="91.75" height="41.81"/><g id="尺寸" class="cls-2"><text class="cls-5" transform="translate(454.96 173.85)">尺寸</text></g></g></g><g id="單位_公分" data-name="單位：公分" class="cls-2"><text class="cls-6" transform="translate(609.71 132.04)">單位：公分</text></g><g id="產品尺寸" class="cls-2"><text class="cls-7" transform="translate(259.38 39.1)">尺寸表與試穿報告</text></g><line class="cls-8" x1="135.66" y1="94.02" x2="135.66" y2="108.42"/><line class="cls-8" x1="243.5" y1="94.02" x2="243.5" y2="108.42"/><line class="cls-8" x1="135.7" y1="101.5" x2="243.93" y2="101.22"/><line class="cls-8" x1="285.45" y1="411.5" x2="299.86" y2="411.5"/><line class="cls-8" x1="285.45" y1="112" x2="299.86" y2="112"/><line class="cls-8" x1="293" y1="412" x2="292.65" y2="112"/><text class="cls-9" transform="translate(322.38 266.07)">褲長</text><text class="cls-9" transform="translate(175.44 89.39)">腰圍</text><path class="cls-10" d="M190.65,123S151,122.88,137,114.5c0,0-1.94,33.06-4,67-2,33-4.13,85.57-4.13,100.86,0,16.07-3,92.78-1.6,129.64,0,0,4.81,2.32,28.39,2.32,0,0,19.79-113.81,20.72-122.77S186.87,198,190.65,198Z"/><path class="cls-10" d="M190.56,123s38.4-.13,52.44-8.51c0,0,5,49,6,71,1.46,32.13,3,73.71,3,89,0,18.22,4.39,98,7.61,136.6,0,0-9.19,11.9-30,2.15,0,0-18.36-114.43-19.29-123.39S194.34,198,190.56,198Z"/><path class="cls-11" d="M188.86,127.88l-1.11,59.35c0,3,2.87,6.59,3.19,9.44,0,.1,0,1.05,0,1.15l3.9-10.23s0-44.79.78-60.17"/><polygon class="cls-11" points="245 127.5 243 113.5 191 114.5 191 128.5 245 127.5"/><path class="cls-11" d="M199.62,121.57a2.78,2.78,0,1,1-2.77-2.6A2.69,2.69,0,0,1,199.62,121.57Z"/><path class="cls-11" d="M219.73,128.46l-2.22.17s-.1.81,1.51,1.07a15.39,15.39,0,0,0,4.13-.17,2.2,2.2,0,0,0,2-2.17l.19-12.77a2.63,2.63,0,0,0-2.52-2.69l-2,.14a2.61,2.61,0,0,0-2.54,1.81h1.22S220.57,122.76,219.73,128.46Z"/><polygon class="cls-11" points="136 127.5 137 113.5 191 114.5 191 128.5 136 127.5"/><path class="cls-11" d="M164.88,128.53l2.22.24s.07.81-1.55,1a15.59,15.59,0,0,1-4.12-.28,2.2,2.2,0,0,1-1.94-2.23l.17-12.75a2.63,2.63,0,0,1,2.59-2.61l2,.19a2.63,2.63,0,0,1,2.49,1.89l-1.22,0S164.21,122.82,164.88,128.53Z"/><line class="cls-8" x1="133.36" y1="170.25" x2="248.5" y2="170.5"/><text class="cls-9" transform="translate(211.08 159.34)">臀圍</text><text class="cls-9" transform="translate(126.44 429.39)">褲管</text><g id="Group-2-Copy"><g id="Group-16" data-name="Group"><rect id="Rectangle-16" data-name="Rectangle" class="cls-1" x="592.62" y="589.8" width="107.38" height="41.12"/><g id="_70-2" data-name="70" class="cls-2"><text class="cls-3" transform="translate(605.43 616.07)">穿L碼合適</text></g></g><g id="Group-17" data-name="Group"><rect id="Rectangle-17" data-name="Rectangle" class="cls-1" x="592.62" y="546.39" width="107.38" height="41.12"/><g id="_66-2" data-name="66" class="cls-2"><text class="cls-3" transform="translate(605.43 572.66)">穿S碼適中</text></g></g><g id="Group-18" data-name="Group"><rect id="Rectangle-18" data-name="Rectangle" class="cls-1" x="592.62" y="502.98" width="107.38" height="41.12"/><g id="_121-2" data-name="121" class="cls-2"><text class="cls-3" transform="translate(605.43 529.26)">穿S碼適中</text></g></g><g id="Group-19" data-name="Group"><rect id="Rectangle-19" data-name="Rectangle" class="cls-1" x="592.62" y="459.57" width="106.24" height="41.12"/><g id="試穿結果" class="cls-2"><text class="cls-3" transform="translate(610.9 485.85)">試穿心得</text></g></g></g><g id="Group-2-Copy-2" data-name="Group-2-Copy"><g id="Group-20" data-name="Group"><rect id="Rectangle-20" data-name="Rectangle" class="cls-1" x="407.25" y="589.8" width="90.24" height="41.12"/><g id="_70-3" data-name="70" class="cls-2"><text class="cls-3" transform="translate(441.49 616.07)">69</text></g></g><g id="Group-21" data-name="Group"><rect id="Rectangle-21" data-name="Rectangle" class="cls-1" x="407.25" y="546.39" width="90.24" height="41.12"/><g id="_66-3" data-name="66" class="cls-2"><text class="cls-3" transform="translate(441.06 572.66)">60</text></g></g><g id="Group-22" data-name="Group"><rect id="Rectangle-22" data-name="Rectangle" class="cls-1" x="407.25" y="502.98" width="90.24" height="41.12"/><g id="_121-3" data-name="121" class="cls-2"><text class="cls-3" transform="translate(441.06 529.26)">57</text></g></g><g id="Group-23" data-name="Group"><rect id="Rectangle-23" data-name="Rectangle" class="cls-1" x="407.25" y="459.57" width="90.24" height="41.12"/><g id="腰圍" class="cls-2"><text class="cls-3" transform="translate(434.67 485.85)">腰圍</text></g></g></g><g id="Group-2-Copy-3" data-name="Group-2-Copy"><g id="Group-24" data-name="Group"><rect id="Rectangle-24" data-name="Rectangle" class="cls-1" x="500.09" y="589.8" width="90.24" height="41.12"/><g id="_70-4" data-name="70" class="cls-2"><text class="cls-3" transform="translate(533.91 616.07)">98</text></g></g><g id="Group-25" data-name="Group"><rect id="Rectangle-25" data-name="Rectangle" class="cls-1" x="500.09" y="546.39" width="90.24" height="41.12"/><g id="_66-4" data-name="66" class="cls-2"><text class="cls-3" transform="translate(533.91 572.66)">84</text></g></g><g id="Group-26" data-name="Group"><rect id="Rectangle-26" data-name="Rectangle" class="cls-1" x="500.09" y="502.98" width="90.24" height="41.12"/><g id="_121-4" data-name="121" class="cls-2"><text class="cls-3" transform="translate(533.91 529.26)">82</text></g></g><g id="Group-27" data-name="Group"><rect id="Rectangle-27" data-name="Rectangle" class="cls-1" x="500.09" y="459.57" width="90.24" height="41.12"/><g id="腰圍-2" data-name="腰圍" class="cls-2"><text class="cls-3" transform="translate(527.51 485.85)">臀圍</text></g></g></g><g id="Group-2-Copy-4" data-name="Group-2-Copy"><g id="Group-28" data-name="Group"><rect id="Rectangle-28" data-name="Rectangle" class="cls-1" x="314.72" y="589.8" width="90.24" height="41.12"/><g id="_70-5" data-name="70" class="cls-2"><text class="cls-3" transform="translate(348.54 616.07)">89</text></g></g><g id="Group-29" data-name="Group"><rect id="Rectangle-29" data-name="Rectangle" class="cls-1" x="314.72" y="546.39" width="90.24" height="41.12"/><g id="_66-5" data-name="66" class="cls-2"><text class="cls-3" transform="translate(348.54 572.66)">85</text></g></g><g id="Group-30" data-name="Group"><rect id="Rectangle-30" data-name="Rectangle" class="cls-1" x="314.72" y="502.98" width="90.24" height="41.12"/><g id="_121-5" data-name="121" class="cls-2"><text class="cls-3" transform="translate(348.54 529.26)">80</text></g></g><g id="Group-31" data-name="Group"><rect id="Rectangle-31" data-name="Rectangle" class="cls-1" x="314.72" y="459.57" width="90.24" height="41.12"/><g id="胸圍-2" data-name="胸圍" class="cls-2"><text class="cls-3" transform="translate(342.14 485.85)">胸圍</text></g></g></g><g id="Group-2-Copy-5" data-name="Group-2-Copy"><g id="Group-32" data-name="Group"><rect id="Rectangle-32" data-name="Rectangle" class="cls-1" x="222.19" y="589.8" width="90.24" height="41.12"/><g id="_70-6" data-name="70" class="cls-2"><text class="cls-3" transform="translate(256.43 616.07)">62</text></g></g><g id="Group-33" data-name="Group"><rect id="Rectangle-33" data-name="Rectangle" class="cls-1" x="222.19" y="546.39" width="90.24" height="41.12"/><g id="_66-6" data-name="66" class="cls-2"><text class="cls-3" transform="translate(256.01 572.66)">44</text></g></g><g id="Group-34" data-name="Group"><rect id="Rectangle-34" data-name="Rectangle" class="cls-1" x="222.19" y="502.98" width="90.24" height="41.12"/><g id="_121-6" data-name="121" class="cls-2"><text class="cls-3" transform="translate(256.01 529.26)">43</text></g></g><g id="Group-35" data-name="Group"><rect id="Rectangle-35" data-name="Rectangle" class="cls-1" x="222.19" y="459.57" width="90.24" height="41.12"/><g id="體重" class="cls-2"><text class="cls-3" transform="translate(249.61 485.85)">體重</text></g></g></g><g id="Group-2-Copy-2-2" data-name="Group-2-Copy-2"><g id="Group-36" data-name="Group"><rect id="Rectangle-36" data-name="Rectangle" class="cls-1" x="129.66" y="589.8" width="90.24" height="41.12"/><g id="_62-2" data-name="62" class="cls-2"><text class="cls-3" transform="translate(159.42 616.07)">169</text></g></g><g id="Group-37" data-name="Group"><rect id="Rectangle-37" data-name="Rectangle" class="cls-1" x="129.66" y="546.39" width="90.24" height="41.12"/><g id="_51-3" data-name="51" class="cls-2"><text class="cls-3" transform="translate(159.42 572.66)">166</text></g></g><g id="Group-38" data-name="Group"><rect id="Rectangle-38" data-name="Rectangle" class="cls-1" x="129.66" y="502.98" width="90.24" height="41.12"/><g id="_58-2" data-name="58" class="cls-2"><text class="cls-3" transform="translate(159.42 529.26)">159</text></g></g><g id="Group-39" data-name="Group"><rect id="Rectangle-39" data-name="Rectangle" class="cls-1" x="129.66" y="459.57" width="90.24" height="41.12"/><g id="身高" class="cls-2"><text class="cls-3" transform="translate(157.08 485.85)">身高</text></g></g></g><g id="Group-2-Copy-3-2" data-name="Group-2-Copy-3"><g id="Group-40" data-name="Group"><rect id="Rectangle-40" data-name="Rectangle" class="cls-1" x="20" y="589.8" width="107.38" height="41.12"/><g id="Lilly" class="cls-2"><text class="cls-5" transform="translate(55.5 616.07)">Lilly</text></g></g><g id="Group-41" data-name="Group"><rect id="Rectangle-41" data-name="Rectangle" class="cls-1" x="20" y="546.39" width="107.38" height="41.12"/><g id="Elva" class="cls-2"><text class="cls-12" transform="translate(54.97 572.66)">Elva</text></g></g><g id="Group-42" data-name="Group"><rect id="Rectangle-42" data-name="Rectangle" class="cls-1" x="20" y="502.98" width="107.38" height="41.12"/><g id="Sally" class="cls-2"><text class="cls-12" transform="translate(52.17 529.26)">Sally</text></g></g><g id="Group-43" data-name="Group"><rect id="Rectangle-43" data-name="Rectangle" class="cls-1" x="20" y="459.57" width="107.38" height="41.12"/><g id="試穿人員" class="cls-2"><text class="cls-5" transform="translate(38.28 485.85)">試穿人員</text></g></g></g><g id="單位_公分-2" data-name="單位：公分" class="cls-2"><text class="cls-6" transform="translate(451.71 448)"><tspan xml:space="preserve">體重：公斤  三圍與身高：公分</tspan></text></g></g></svg>