<?xml version="1.0" encoding="UTF-8"?>
<svg width="160px" height="160px" viewBox="0 0 160 160" version="1.1" xmlns="http://www.w3.org/2000/svg" xmlns:xlink="http://www.w3.org/1999/xlink">
    <defs>
        <circle id="path-1" cx="80" cy="80" r="80"></circle>
        <polygon id="path-3" points="0.00575488799 0.125486467 76.1192265 0.125486467 76.1192265 37.5896409 0.00575488799 37.5896409"></polygon>
    </defs>
    <g stroke="none" stroke-width="1" fill="none" fill-rule="evenodd">
        <g id="slice" transform="translate(-62.000000, -72.000000)">
            <g id="Group-3" transform="translate(62.000000, 72.000000)">
                <mask id="mask-2" fill="white">
                    <use xlink:href="#path-1"></use>
                </mask>
                <use id="Mask" fill="#43CFE3" xlink:href="#path-1"></use>
                <g id="Group" mask="url(#mask-2)">
                    <g transform="translate(26.000000, 21.000000)">
                        <g id="Page-1" stroke-width="1" fill="none" fill-rule="evenodd">
                            <g id="face" transform="translate(0.000000, 18.153756)" fill-rule="nonzero">
                                <path d="M16.5225075,17.8986336 C5.95382489,28.84648 -0.522116714,43.9964273 0.0330607158,59.3430831 C0.307264203,66.929927 2.81233309,74.2997133 8.27609145,79.7091976 C13.3031554,84.6845664 19.9618994,87.7064162 26.6409546,89.7650725 C41.8304737,94.4419871 58.3977806,95.208472 73.902126,91.6575441 C87.8526514,88.459335 102.795049,81.6423674 106.369849,66.3940659 C108.214799,58.5121592 107.155223,50.0977828 105.039455,42.3786693 C103.059096,35.1513271 99.7381879,28.8600461 95.0259501,23.0334042 C85.8689078,11.7057069 77.2467315,4.03068324 58.3097647,1.21910807 C50.4729613,0.0558146049 42.4161182,1.8974133 35.2157378,4.98709361 C28.1812334,8.0089434 21.8440862,12.3874037 16.5225075,17.8986336 Z" id="Fill-2" fill="#BCDFF1"></path>
                                <path d="M18.569621,16.0782805 C8.59230144,26.4135481 2.47871643,40.7157911 3.00282931,55.203736 C3.26168994,62.3660636 5.62658953,69.3234788 10.7846273,74.4302793 C15.5304054,79.127255 21.8165642,81.9800194 28.1218978,83.9234851 C42.4614985,88.3387063 58.1017938,89.0623032 72.7386047,85.7100648 C85.9085388,82.6908092 100.014845,76.25528 103.389621,61.8601861 C105.131337,54.4193057 104.131048,46.4757497 102.133667,39.1885536 C100.264118,32.3656121 97.1290286,26.4263552 92.6804607,20.9257387 C84.035794,10.2318745 75.8960653,2.98630121 58.0187028,0.332045686 C50.620402,-0.766156541 43.0143736,0.972396838 36.2168852,3.88919634 C29.5759915,6.74196072 23.5934347,10.8754275 18.569621,16.0782805 Z" id="Fill-2-Copy" fill="#D1EBF9"></path>
                            </g>
                            <polygon id="Path-2" fill="#ADD8EE" fill-rule="nonzero" points="73.3393435 112.970784 72.8581899 108.995122 34.6572312 109.711723 32.1238812 112.970784 30.265002 140.64022 53.9667809 148.79574 79.4290301 140.64022"></polygon>
                            <path d="M90.4123371,51.4636959 C90.4123371,55.7098867 87.0169532,59.1556772 82.8328111,59.1556772 C78.6452837,59.1556772 75.253285,55.7098867 75.253285,51.4636959 C75.253285,47.2175052 78.6452837,43.7717146 82.8328111,43.7717146 C87.0169532,43.7717146 90.4123371,47.2175052 90.4123371,51.4636959" id="Fill-5" fill="#FFFFFF" fill-rule="nonzero"></path>
                            <path d="M24.7598978,59.1556772 C28.9474252,59.1556772 32.3394238,55.7098867 32.3394238,51.4636959 C32.3394238,47.2175052 28.9474252,43.7717146 24.7598978,43.7717146 C20.5757557,43.7717146 17.1803718,47.2175052 17.1803718,51.4636959 C17.1803718,55.7098867 20.5757557,59.1556772 24.7598978,59.1556772 Z" id="Fill-7" fill="#FFFFFF" fill-rule="nonzero"></path>
                            <path d="M93.072788,64.8300396 C89.7044859,64.8300396 86.9726067,63.3649003 86.9726067,61.5538253 C86.9726067,59.7427505 89.7044859,58.2776112 93.072788,58.2776112 C96.44109,58.2776112 99.1729692,59.7427505 99.1729692,61.5538253 C99.1729692,63.3649003 96.44109,64.8300396 93.072788,64.8300396 Z" id="Fill-9" fill="#EDF9FF" fill-rule="nonzero"></path>
                            <path d="M20.9989093,61.8834817 C20.9989093,63.6945567 18.26703,65.159696 14.898728,65.159696 C11.5304259,65.159696 8.79854669,63.6945567 8.79854669,61.8834817 C8.79854669,60.0724068 11.5304259,58.6072674 14.898728,58.6072674 C18.26703,58.6072674 20.9989093,60.0724068 20.9989093,61.8834817" id="Fill-11" fill="#EDF9FF" fill-rule="nonzero"></path>
                            <path d="M41.6666324,113.824997 C37.1168858,113.20774 32.9915461,112.329196 32.6704698,112.329196 C29.2581597,114.16062 14.3816929,133.74343 28.3931525,138.006578 C42.4046122,142.269727 52.8615823,134.516699 52.8615823,134.516699 C52.8615823,134.516699 48.5217196,131.793302 43.7350069,128.021926 C40.7187686,128.293248 37.164279,127.994794 34.9097169,125.814042 C32.9733663,123.355186 35.6341558,118.5867 43.1832147,116.531435 C50.3395872,115.391883 54.415402,116.382208 61.3381937,117.569242 C73.0172311,119.997575 73.8127598,127.845566 73.8127598,127.845566 C73.8127598,127.845566 73.105247,126.241375 71.5446568,124.823717 C68.8669413,122.381818 64.4661446,120.353685 56.4736208,119.268397 C44.4018968,117.633681 42.0186962,119.003858 39.1649488,121.533936 C34.7133737,125.481673 44.0769149,124.515088 44.0769149,124.515088 C44.0769149,124.515088 56.9847902,133.417844 61.5683892,136.093758 C66.1519883,138.76628 80.6136833,142.20868 83.5859137,131.850959 C86.2602439,121.279572 73.0883209,112.410731 73.0883209,112.410731 C57.7498518,115.327443 41.7986564,113.824997 41.6666324,113.824997 Z" id="Fill-13" fill="#C6E7F9" fill-rule="nonzero"></path>
                            <path d="M41.8976647,113.662077 C36.7934957,113.080914 34.5949254,112.70682 34.2421471,112.619678 C31.2323313,114.235078 21.9463997,129.080276 29.5952084,133.433239 C37.2440171,137.786201 50.7362777,133.14867 50.7362777,133.14867 C50.7362777,133.14867 49.2119922,132.273208 43.8037065,128.095675 C41.1432443,128.334994 38.0385498,127.013977 36.0499217,125.090454 C34.3419706,122.921629 36.6889102,118.715603 43.3475304,116.902764 C49.659783,115.897625 53.2548407,116.771139 59.3610641,117.818158 C69.6625169,119.96006 70.36421,126.882353 70.36421,126.882353 C70.36421,126.882353 69.740151,125.467381 68.3636381,124.216941 C66.0017687,122.063073 62.6852158,120.572775 55.635439,119.6155 C44.9876186,118.173605 41.9973534,119.15876 40.7721441,120.186745 C36.6664861,123.631508 44.1358155,123.944716 44.1358155,123.944716 C44.1358155,123.944716 55.9301392,129.240353 59.9730861,131.600634 C64.0160332,133.957923 73.7845555,139.243171 80.6956115,130.162659 C83.0544948,120.838206 73.4892258,112.539195 72.5257873,112.539195 C71.5623488,112.539195 54.1986375,115.264115 41.8976647,113.662077 Z" id="Fill-13-Copy" fill="#D1EBF9" fill-rule="nonzero"></path>
                            <path d="M60.1192825,135.250383 C54.9274082,133.785703 52.4710376,130.255093 52.4710376,130.255093 C52.4710376,130.255093 58.1269705,125.644325 55.1716496,118.646026 C57.1360482,118.146146 62.7082412,119.904461 62.8198945,120.334427 C62.8198945,120.334427 67.3244036,126.011369 60.1192825,135.250383 Z" id="Fill-15" fill="#FFE473" fill-rule="nonzero"></path>
                            <path d="M59.0245009,134.322071 C64.7049139,127.701813 62.8599645,120.620306 62.0339688,120.159058 C61.339997,119.765641 58.5167167,118.965241 56.6277594,119.165341 C58.1612677,124.320461 55.1890373,129.716379 53.1782118,130.67618 C54.5187622,132.548303 56.4348013,133.843866 59.0245009,134.322071 Z M60.5544602,136.014443 C60.3678288,136.014443 60.1771823,136.014443 59.9825205,136.014443 C54.6744826,134.518779 52.321749,130.873944 52.2168069,130.721326 L51.7712187,129.79853 L52.2168069,129.502713 C52.4131501,129.336528 57.1016913,125.378617 54.5559997,119.355267 L54.1193052,118.324242 L55.2059635,118.049529 C56.5329729,117.713768 58.8213873,118.20893 60.0671513,118.534517 C62.94121,119.284045 63.5403954,119.799556 63.7164272,120.165841 C64.4002434,121.149384 67.1659748,127.064205 60.998089,135.682073 C60.8889679,135.903652 60.7410916,136.014443 60.5544602,136.014443 Z" id="Fill-17" fill="#FFDA2A" fill-rule="nonzero"></path>
                            <g id="Group-21" transform="translate(14.895004, 0.000000)">
                                <g id="Fill-19-Clipped">
                                    <mask id="mask-4" fill="white">
                                        <use xlink:href="#path-3"></use>
                                    </mask>
                                    <g id="path-3"></g>
                                    <path d="M76.1192265,36.249988 C76.1192265,36.249988 66.8335454,21.9207901 48.9900074,18.2308096 C43.8478457,17.1658704 44.8701846,9.53832812 50.4151884,8.9007212 C55.9635775,8.26311429 60.2221947,5.07507971 57.4429222,0.123451551 C56.5052141,4.15258461 55.2899171,5.48545438 50.2290009,4.7087949 C50.2290009,4.7087949 36.9148983,0.716968626 30.6454556,15.9957939 C28.2182469,21.9173985 13.7565519,19.1329556 0.00575488799,37.5896409 C28.1911652,17.5525043 64.0271912,27.5948133 76.1192265,36.249988" id="Fill-19" fill="#2F7A86" fill-rule="nonzero" mask="url(#mask-4)"></path>
                                </g>
                            </g>
                            <path d="M44.4243501,76.0458166 C44.4243501,76.0458166 54.3735359,71.4129919 62.8907701,76.0458166 C62.8907701,76.0458166 54.7933042,74.1872603 44.4243501,76.0458166" id="Fill-22" fill="#C6E7F9" fill-rule="nonzero"></path>
                            <path d="M88.0287978,51.3595761 C88.0287978,54.3475107 85.642212,56.7690603 82.6970634,56.7690603 C79.7519149,56.7690603 77.3653289,54.3475107 77.3653289,51.3595761 C77.3653289,48.3750331 79.7519149,45.9500919 82.6970634,45.9500919 C85.642212,45.9500919 88.0287978,48.3750331 88.0287978,51.3595761" id="Fill-24" fill="#2F7A86" fill-rule="nonzero"></path>
                            <path d="M24.6214419,56.7690603 C27.5665906,56.7690603 29.9531764,54.3475107 29.9531764,51.3595761 C29.9531764,48.3750331 27.5665906,45.9500919 24.6214419,45.9500919 C21.6762934,45.9500919 19.2897075,48.3750331 19.2897075,51.3595761 C19.2897075,54.3475107 21.6762934,56.7690603 24.6214419,56.7690603 Z" id="Fill-26" fill="#2F7A86" fill-rule="nonzero"></path>
                            <path d="M40.4743043,111.028391 C40.4304578,111.041958 49.391157,112.222209 53.2706285,112.222209 C57.1230182,112.222209 60.4066896,111.89323 66.4290107,111.153878 C66.4086993,111.123354 57.9016208,108.281255 53.5651434,98.4119141 C53.5312911,98.340692 49.9632605,107.986192 40.4743043,111.028391 Z" id="Fill-28" fill="#2F7A86" fill-rule="nonzero"></path>
                            <path d="M70.1771354,75.2260847 C67.3809368,75.2260847 64.6456724,74.4087269 62.0018091,73.6218928 C60.7120372,73.2386504 59.3782572,72.8384503 58.0749444,72.5501706 C56.7580906,72.2584993 55.4513925,72.1160553 54.0803751,72.1160553 C51.9815336,72.1160553 49.7269715,72.4653824 47.1914356,73.1809945 L46.3180468,73.4319674 C43.3864391,74.2696744 40.3532746,75.1345135 37.3505772,75.1345135 C35.2144982,75.1345135 33.2916885,74.7037897 31.473821,73.8186013 C29.0940055,72.6620909 25.0283464,69.7521615 24.8929373,66.184276 C24.8760111,65.6992878 24.9911089,65.3262199 25.2416158,65.0650724 C25.4413443,64.8547978 25.7121625,64.746269 26.030374,64.746269 C26.7175753,64.746269 27.4792517,65.2923047 27.766996,65.9943506 C27.9971915,66.5573439 28.2950917,67.1169457 28.6505406,67.6595899 C30.1908195,69.9895683 32.6112576,71.5394958 35.4616198,72.0244841 C36.1725178,72.1431874 36.9240384,72.2042349 37.6958705,72.2042349 C39.158289,72.2042349 40.7561167,71.9837858 42.4487309,71.5496703 C45.3972647,70.786577 48.29502,70.0845311 51.3214141,69.8505157 C52.1338689,69.7860767 52.9734055,69.7521615 53.8095568,69.7521615 C55.1060993,69.7521615 56.4432644,69.8301666 57.7939704,69.9861768 C59.6456903,70.1964515 61.4500169,70.6441329 63.1934095,71.0748567 C64.3985507,71.3733111 65.6476999,71.6819399 66.8900788,71.9057806 C67.9293437,72.095706 68.9516827,72.1906688 69.9300137,72.1906688 C72.8650066,72.1906688 75.4039277,71.3292212 77.2793442,69.6945056 C78.5691161,68.5719104 79.3341777,67.2152999 79.9739858,65.9129539 C79.9807563,65.9027794 80.0044529,65.8485149 80.0112234,65.8349488 C80.0281495,65.8010335 80.0484608,65.7671183 80.0721574,65.7365945 C80.3835985,65.2583894 81.0640293,64.8344486 81.5616579,64.7191367 C81.6530591,64.6987876 81.7410749,64.688613 81.8223204,64.688613 C82.0897534,64.688613 82.3199489,64.7903588 82.4925957,64.9870673 C82.8751264,65.4177911 82.8277332,66.1605354 82.7904957,66.4589896 C82.661857,67.4764474 82.1777694,68.5210376 81.2502168,69.7453784 C79.0633594,72.6451333 75.5596483,74.6529168 71.8765199,75.1209474 C71.3281129,75.1887779 70.7560094,75.2260847 70.1771354,75.2260847" id="Fill-30" fill="#2F7A86" fill-rule="nonzero"></path>
                        </g>
                        <ellipse id="Oval" fill="#FFF0B3" fill-rule="nonzero" transform="translate(59.670316, 122.869922) rotate(109.000000) translate(-59.670316, -122.869922) " cx="59.6703158" cy="122.869922" rx="1.04279723" ry="1.50988467"></ellipse>
                        <ellipse id="Oval-Copy-2" fill="#FFDA2A" fill-rule="nonzero" transform="translate(58.514367, 129.509608) rotate(109.000000) translate(-58.514367, -129.509608) " cx="58.5143668" cy="129.509608" rx="3.10127437" ry="3.9634531"></ellipse>
                        <ellipse id="Oval-Copy-3" fill="#FFE473" fill-rule="nonzero" transform="translate(59.088037, 128.361813) rotate(109.000000) translate(-59.088037, -128.361813) " cx="59.088037" cy="128.361813" rx="2.51978509" ry="3.20850981"></ellipse>
                        <ellipse id="Oval-Copy" fill="#FFF0B3" fill-rule="nonzero" transform="translate(61.583786, 123.919181) rotate(109.000000) translate(-61.583786, -123.919181) " cx="61.583786" cy="123.919181" rx="1.04278417" ry="1.03044215"></ellipse>
                    </g>
                </g>
            </g>
        </g>
    </g>
</svg>