<?xml version="1.0" encoding="UTF-8"?>
<svg width="40px" height="40px" viewBox="0 0 40 40" version="1.1" xmlns="http://www.w3.org/2000/svg" xmlns:xlink="http://www.w3.org/1999/xlink">
    <!-- Generator: sketchtool 49.3 (51167) - http://www.bohemiancoding.com/sketch -->
    <title>2DD454B0-3399-43A9-AC9B-05625A28C07B</title>
    <desc>Created with sketchtool.</desc>
    <defs></defs>
    <g id="dashboard" stroke="none" stroke-width="1" fill="none" fill-rule="evenodd">
        <g id="Dashboard標記" transform="translate(-1091.000000, -1389.000000)">
            <g id="Group-4" transform="translate(0.000000, 837.000000)">
                <g id="Group-125" transform="translate(1091.000000, 552.000000)">
                    <rect id="Rectangle-43-Copy-12" x="0" y="0" width="40" height="40"></rect>
                    <path d="M30.1690647,28.804608 C29.6402878,27.5613466 28.8817446,26.4433509 27.9186151,25.4850688 C26.9554856,24.5267867 25.8318345,23.7720613 24.5822842,23.2459456 C24.1573741,23.0674421 23.7198741,22.9171234 23.2792266,22.7949894 C24.5256295,22.3753495 25.6681655,21.673862 26.625,20.7218432 C28.2616906,19.09339 29.165018,16.9262946 29.165018,14.6245386 C29.165018,12.3227827 28.2648381,10.1556873 26.625,8.52723409 C24.9883094,6.8987809 22.8102518,6 20.4968525,6 C18.1834532,6 16.0053957,6.89564926 14.368705,8.52723409 C12.7320144,10.1556873 11.8286871,12.3227827 11.8286871,14.6245386 C11.8286871,16.9262946 12.7288669,19.09339 14.368705,20.7218432 C15.3255396,21.673862 16.4680755,22.3753495 17.7144784,22.7949894 C17.2738309,22.9171234 16.8363309,23.0643105 16.4114209,23.2459456 C15.1618705,23.7720613 14.0382194,24.5267867 13.0750899,25.4850688 C12.1119604,26.4433509 11.3534173,27.5613466 10.8246403,28.804608 C10.2769784,30.094844 10,31.4602393 10,32.8726093 C10,33.4958058 10.5067446,34 11.1330935,34 C11.7594424,34 12.2661871,33.4958058 12.2661871,32.8726093 C12.2661871,30.6835924 13.1223022,28.6261045 14.6771583,27.0790739 C16.2320144,25.5320434 18.2999101,24.6802371 20.5,24.6802371 C22.7000899,24.6802371 24.7679856,25.5320434 26.3228417,27.0790739 C27.8776978,28.6261045 28.7338129,30.6835924 28.7338129,32.8726093 C28.7338129,33.4958058 29.2405576,34 29.8669065,34 C30.4932554,34 31,33.4958058 31,32.8726093 C30.993705,31.4602393 30.7167266,30.094844 30.1690647,28.804608 Z M14.0917266,14.6245386 C14.0917266,11.1108377 16.9653777,8.25478134 20.493705,8.25478134 C24.0220324,8.25478134 26.8956835,11.1108377 26.8956835,14.6245386 C26.8956835,18.1382396 24.0251799,20.9942959 20.493705,20.9942959 C16.9622302,20.9942959 14.0917266,18.1351079 14.0917266,14.6245386 Z" id="Shape" fill="#389E0D" fill-rule="nonzero"></path>
                </g>
            </g>
        </g>
    </g>
</svg>