<?xml version="1.0" encoding="UTF-8"?>
<svg width="40px" height="40px" viewBox="0 0 40 40" version="1.1" xmlns="http://www.w3.org/2000/svg" xmlns:xlink="http://www.w3.org/1999/xlink">
    <!-- Generator: sketchtool 49.3 (51167) - http://www.bohemiancoding.com/sketch -->
    <title>C7BE51FE-DA66-460F-9569-ECA0E395E786</title>
    <desc>Created with sketchtool.</desc>
    <defs></defs>
    <g id="dashboard" stroke="none" stroke-width="1" fill="none" fill-rule="evenodd">
        <g id="Dashboard標記" transform="translate(-769.000000, -1389.000000)">
            <g id="Group-4" transform="translate(0.000000, 837.000000)">
                <g id="Group-104" transform="translate(769.000000, 552.000000)">
                    <rect id="Rectangle-41-Copy-4" x="0" y="0" width="40" height="40"></rect>
                    <path d="M25.3515625,15.6484375 L25.3515625,32.1015625 L8.8984375,32.1015625 L8.8984375,15.6484375 L25.3515625,15.6484375 Z M25.3515625,13.75 L8.8984375,13.75 C7.84902344,13.75 7,14.5990234 7,15.6484375 L7,32.1015625 C7,33.1509766 7.84902344,34 8.8984375,34 L25.3515625,34 C26.4009766,34 27.25,33.1509766 27.25,32.1015625 L27.25,15.6484375 C27.25,14.5990234 26.4009766,13.75 25.3515625,13.75 Z M32.1015625,7 L16.4842773,7 C15.9595703,7 15.5350586,7.42451172 15.5350586,7.94921875 C15.5350586,8.47392578 15.9595703,8.8984375 16.4842773,8.8984375 L32.1015625,8.8984375 L32.1015625,24.6132812 C32.1015625,25.1379883 32.5260742,25.5625 33.0507812,25.5625 C33.5754883,25.5625 34,25.1379883 34,24.6132812 L34,8.8984375 C34,7.84902344 33.1509766,7 32.1015625,7 Z M28.7265625,10.375 L11.3242188,10.375 C10.7995117,10.375 10.375,10.7995117 10.375,11.3242188 C10.375,11.8489258 10.7995117,12.2734375 11.3242188,12.2734375 L28.7265625,12.2734375 L28.7265625,29.6757812 C28.7265625,30.2004883 29.1510742,30.625 29.6757812,30.625 C30.2004883,30.625 30.625,30.2004883 30.625,29.6757812 L30.625,12.2734375 C30.625,11.2240234 29.7759766,10.375 28.7265625,10.375 Z" id="Shape" fill="#389E0D" fill-rule="nonzero"></path>
                </g>
            </g>
        </g>
    </g>
</svg>