<?xml version="1.0" encoding="UTF-8"?>
<svg width="40px" height="40px" viewBox="0 0 40 40" version="1.1" xmlns="http://www.w3.org/2000/svg" xmlns:xlink="http://www.w3.org/1999/xlink">
    <!-- Generator: sketchtool 49.3 (51167) - http://www.bohemiancoding.com/sketch -->
    <title>0171A529-3FC0-4A5E-8B36-FDCFA75170F9</title>
    <desc>Created with sketchtool.</desc>
    <defs></defs>
    <g id="dashboard" stroke="none" stroke-width="1" fill="none" fill-rule="evenodd">
        <g id="Dashboard標記" transform="translate(-125.000000, -1389.000000)">
            <g id="Group-4" transform="translate(0.000000, 837.000000)">
                <g id="Group" transform="translate(125.000000, 552.000000)">
                    <rect id="Rectangle-path" x="0" y="0" width="40" height="40"></rect>
                    <path d="M35.7437693,21.6151026 C34.6988227,16.9892883 30.7099911,13.7583576 26.0428724,13.7583576 C25.2949665,13.7583576 24.5424193,13.8452432 23.8071111,14.0163202 C18.455075,15.2643741 15.0987808,20.703141 16.3273887,26.1412344 C17.3723353,30.7683958 21.3618299,34 26.0289486,34 C26.7768546,34 27.5287387,33.9131144 28.264047,33.7413639 C30.8571853,33.1372061 33.06311,31.5422835 34.4760423,29.2522764 C35.8889745,26.9622693 36.3391767,24.2499579 35.7437693,21.6151026 Z M33.0153714,28.3228029 C31.8470999,30.2167735 30.0224215,31.5348747 27.8781593,32.0353086 C27.2694912,32.1767502 26.6475623,32.2488181 26.0289486,32.2488181 C22.1707353,32.2488181 18.8721254,29.5755715 18.0068618,25.749239 C16.9917519,21.2520692 19.7665625,16.7548993 24.1929987,15.7237226 C24.8016668,15.5816074 25.4242587,15.5095395 26.0428724,15.5095395 C29.9010857,15.5095395 33.1996957,18.181439 34.0636331,22.007098 C34.5556067,24.1859724 34.1836429,26.4288323 33.0153714,28.3228029 Z M14.9561662,14.562606 C10.0125611,14.562606 5.00066304,13.0922868 5.00066304,10.2809663 C5.00066304,7.47099281 10.0125611,6 14.9561662,6 C19.9050757,6 24.9156477,7.47031928 24.9156477,10.2809663 C24.9156477,13.0916132 19.9050757,14.562606 14.9561662,14.562606 Z M14.9561662,7.75050839 C10.0105719,7.75050839 6.7245597,9.27403666 6.7245597,10.2809663 C6.7245597,11.2885694 10.0105719,12.8120977 14.9561662,12.8120977 C19.9070648,12.8120977 23.191751,11.2885694 23.191751,10.2809663 C23.191751,9.27403666 19.9070648,7.75050839 14.9561662,7.75050839 Z M16.7609534,17.3907648 C16.8232789,17.8696457 16.4904343,18.3094618 16.0183518,18.3727738 C15.3632711,18.4596593 14.6816688,18.5014183 13.9947623,18.5014183 C10.8115208,18.5014183 7.47578082,17.6083155 5.93223027,16.2329642 C5.16178107,15.5466356 5,14.8757982 5,14.4339615 C5,13.9503659 5.38588764,13.5583706 5.86194833,13.5583706 C6.33800902,13.5583706 6.72389666,13.9503659 6.72389666,14.4339615 C6.72389666,14.4992941 6.79683075,14.6744123 7.06933903,14.9168836 C8.40138071,16.1036461 12.312637,17.1018198 15.7942452,16.6364096 C16.2583713,16.5704035 16.6986279,16.9105369 16.7609534,17.3907648 Z M14.2135646,23.0410207 C8.70505174,23.0410207 5.00066304,21.3208212 5,18.7587073 C5,18.2751117 5.38588764,17.8831164 5.86194833,17.8831164 C6.33800902,17.8831164 6.72389666,18.2751117 6.72389666,18.7587073 C6.72389666,19.8195195 9.32896972,21.2898387 14.2135646,21.2898387 C14.6889623,21.2898387 15.0741869,21.6818341 15.0741869,22.1654297 C15.0741869,22.6490253 14.6889623,23.0410207 14.2135646,23.0410207 Z M14.9561662,25.5761933 C15.4315639,25.5761933 15.8181146,25.9675151 15.8181146,26.4511107 C15.8181146,26.9347063 15.4322269,27.3267016 14.9561662,27.3267016 C10.0125611,27.3267016 5.00066304,25.8563824 5.00066304,23.0450618 C5.00066304,22.5614662 5.38655067,22.1694709 5.86261137,22.1694709 C6.33867206,22.1694709 6.7245597,22.5614662 6.7245597,23.0450618 C6.7245597,24.052665 10.0105719,25.5761933 14.9561662,25.5761933 Z M26.9287465,22.8824562 C25.6560802,22.4457117 25.1320797,22.1590608 25.1320797,21.7085809 C25.1320797,21.3263797 25.44648,20.9441785 26.4195926,20.9441785 C27.4977237,20.9441785 28.1863477,21.2581011 28.5756364,21.4083937 L29.0096835,19.8658535 C28.515813,19.6474812 27.8420357,19.4561816 26.8387931,19.4153736 L26.8387931,18.2140276 L25.3715916,18.2140276 L25.3715916,19.5107249 C23.76946,19.7973758 22.8413241,20.7393425 22.8413241,21.9406885 C22.8413241,23.2648565 23.9343019,23.947444 25.5364334,24.4389309 C26.6444762,24.7803242 27.1235,25.107584 27.1235,25.6265416 C27.1235,26.1725717 26.5394578,26.472958 25.6862103,26.472958 C24.7130976,26.472958 23.8297201,26.1863071 23.2009195,25.8721855 L22.751589,27.469269 C23.3205663,27.7696553 24.2936789,28.0152992 25.2969215,28.0561071 L25.2969215,29.3532025 L26.7643413,29.3532025 L26.7643413,27.9607559 C28.4861197,27.6876413 29.4293206,26.6503233 29.4293206,25.4352419 C29.4291023,24.2066242 28.7103482,23.4559571 26.9287465,22.8824562 Z" id="Combined-Shape" fill="#FAAD14" fill-rule="nonzero"></path>
                </g>
            </g>
        </g>
    </g>
</svg>