<?xml version="1.0" encoding="UTF-8"?>
<svg width="24px" height="24px" viewBox="0 0 24 24" version="1.1" xmlns="http://www.w3.org/2000/svg" xmlns:xlink="http://www.w3.org/1999/xlink">
    <!-- Generator: sketchtool 56.2 (101010) - https://sketch.com -->
    <title>FD1FB66F-C883-403F-A78B-8EAB5F5F9F21</title>
    <desc>Created with sketchtool.</desc>
    <g id="Page-1" stroke="none" stroke-width="1" fill="none" fill-rule="evenodd">
        <g id="子選單" transform="translate(-1136.000000, -233.000000)">
            <g id="icon/子選單/bill-payment" transform="translate(1136.000000, 233.000000)">
                <rect id="Rectangle" fill="#D8D8D8" opacity="0" x="0" y="0" width="24" height="24"></rect>
                <path d="M11.709375,19.9861671 L1.3453125,19.9861671 C0.6046875,19.9861671 1.24344979e-14,19.3268012 1.24344979e-14,18.5198847 L1.24344979e-14,5.46628242 C1.24344979e-14,4.65475504 0.6046875,4 1.3453125,4 L18.778125,4 C19.5234375,4 20.1234375,4.65475504 20.1234375,5.46628242 L20.1234375,7.51815562 C20.1234375,8.329683 19.565625,8.66167147 18.825,8.66167147 C18.0796875,8.66167147 17.4328125,8.329683 17.4328125,7.51815562 L17.4328125,6.42536023 L2.3671875,6.42536023 L2.3671875,17.4224784 L11.7140625,17.4224784 C12.459375,17.4224784 13.059375,17.8927954 13.059375,18.7043228 C13.059375,19.5112392 12.4546875,19.9861671 11.709375,19.9861671 Z M24,18.6582133 C24,19.3913545 23.3953125,19.9861671 22.6546875,19.9815562 L14.9109375,19.9815562 C14.1703125,19.9815562 13.565625,19.3913545 13.565625,18.6582133 C13.565625,17.929683 14.165625,17.3348703 14.9109375,17.3348703 L22.6546875,17.3348703 C23.3953125,17.3348703 24,17.925072 24,18.6582133 Z M24,15.3429395 C24,16.0714697 23.3953125,16.6662824 22.6546875,16.6662824 L14.9109375,16.6662824 C14.1703125,16.6662824 13.565625,16.0760807 13.565625,15.3429395 C13.565625,14.6144092 14.165625,14.0195965 14.9109375,14.0195965 L22.6546875,14.0195965 C23.3953125,14.0195965 24,14.6097983 24,15.3429395 Z M24,12.0230548 C24,12.756196 23.3953125,13.3463977 22.6546875,13.3463977 L14.9109375,13.3463977 C14.1703125,13.3463977 13.565625,12.751585 13.565625,12.0230548 C13.565625,11.2945245 14.165625,10.6997118 14.9109375,10.6997118 L22.6546875,10.6997118 C23.3953125,10.6997118 24,11.2899135 24,12.0230548 Z M8.465625,11.1654179 C9.76875,11.5020173 10.5046875,11.9631124 10.5140625,13.0697406 L10.5140625,13.0881844 C10.5140625,14.2040346 9.7453125,14.8818444 8.6015625,15.0201729 L8.6015625,15.4720461 C8.6015625,15.8040346 8.325,16.0760807 7.9875,16.0760807 C7.65,16.0760807 7.3734375,15.8040346 7.3734375,15.4720461 L7.3734375,14.9740634 C6.7921875,14.8634006 6.225,14.6420749 5.728125,14.2916427 C5.56875,14.1809798 5.4609375,13.9827089 5.4609375,13.7659942 C5.4609375,13.4063401 5.7515625,13.125072 6.121875,13.125072 C6.3046875,13.125072 6.43125,13.1850144 6.525,13.2495677 C7.0125,13.604611 7.546875,13.8213256 8.1703125,13.8213256 C8.746875,13.8213256 9.0984375,13.5907781 9.0984375,13.221902 L9.0984375,13.2034582 C9.0984375,12.848415 8.878125,12.6685879 7.8,12.3965418 C6.50625,12.0691643 5.6671875,11.718732 5.6671875,10.4599424 L5.6671875,10.4414986 C5.6671875,9.46397695 6.3515625,8.77233429 7.36875,8.58789625 L7.36875,8.1129683 C7.36875,7.78097983 7.6453125,7.50893372 7.9828125,7.50893372 C8.3203125,7.50893372 8.596875,7.78097983 8.596875,8.1129683 L8.596875,8.58789625 C9.103125,8.67089337 9.5625,8.83688761 9.965625,9.09048991 C10.125,9.18270893 10.2796875,9.37175793 10.2796875,9.64380403 C10.2796875,10.0080692 9.984375,10.2893372 9.61875,10.2893372 C9.478125,10.2893372 9.365625,10.2524496 9.2578125,10.1878963 C8.784375,9.91585014 8.34375,9.76368876 7.903125,9.76368876 C7.3640625,9.76368876 7.078125,10.0080692 7.078125,10.3170029 L7.078125,10.3354467 C7.078125,10.7504323 7.3546875,10.8841499 8.465625,11.1654179 Z" id="Mask" fill="#D9FCFF" fill-rule="nonzero"></path>
            </g>
        </g>
    </g>
</svg>