<?xml version="1.0" encoding="UTF-8"?>
<svg width="24px" height="24px" viewBox="0 0 24 24" version="1.1" xmlns="http://www.w3.org/2000/svg" xmlns:xlink="http://www.w3.org/1999/xlink">
    <!-- Generator: sketchtool 56.2 (101010) - https://sketch.com -->
    <title>577FE860-8A21-4670-B1B5-93EB486F8045</title>
    <desc>Created with sketchtool.</desc>
    <g id="Page-1" stroke="none" stroke-width="1" fill="none" fill-rule="evenodd">
        <g id="子選單" transform="translate(-1024.000000, -233.000000)">
            <g id="icon/子選單/color-manager" transform="translate(1024.000000, 233.000000)">
                <rect id="Rectangle" fill="#D8D8D8" opacity="0" x="0" y="0" width="24" height="24"></rect>
                <path d="M11.9576662,-4.79616347e-14 C5.31451832,-4.79616347e-14 0,5.31451832 0,11.9576662 C0,18.6008141 5.31451832,23.9153324 11.9576662,23.9153324 C13.0205699,23.9153324 13.9480054,22.9826866 13.9480054,21.9249932 C13.9480054,21.3935414 13.8177476,20.9923474 13.4165536,20.5963636 C13.1508277,20.2003799 12.8851018,19.7991859 12.8851018,19.2677341 C12.8851018,18.2048304 13.8177476,17.2773948 14.875441,17.2773948 L17.2669742,17.2773948 C20.987137,17.2773948 23.9101259,14.3544098 23.9101259,10.6342469 C23.9153324,4.78306649 18.6008141,-4.79616347e-14 11.9576662,-4.79616347e-14 Z M4.64759837,11.9576662 C3.58469471,11.9576662 2.65725916,11.0250204 2.65725916,9.967327 C2.65725916,8.90963365 3.58469471,7.97698779 4.64759837,7.97698779 C5.71050204,7.97698779 6.63793758,8.90963365 6.63793758,9.967327 C6.63793758,11.0250204 5.71050204,11.9576662 4.64759837,11.9576662 Z M8.63869742,6.6431479 C7.57579376,6.6431479 6.64835821,5.71571235 6.64835821,4.65280868 C6.64835821,3.58990502 7.57579376,2.65725916 8.63869742,2.65725916 C9.70160109,2.65725916 10.6290366,3.58469471 10.6290366,4.64759837 C10.6290366,5.71050204 9.69639077,6.6431479 8.63869742,6.6431479 Z M15.276635,6.6431479 C14.2137313,6.6431479 13.2862958,5.71571235 13.2862958,4.65280868 C13.2862958,3.58990502 14.2189417,2.65725916 15.276635,2.65725916 C16.3343284,2.65725916 17.2669742,3.58469471 17.2669742,4.64759837 C17.2669742,5.71050204 16.3395387,6.6431479 15.276635,6.6431479 Z M19.2677341,11.9576662 C18.2048304,11.9576662 17.2773948,11.0250204 17.2773948,9.967327 C17.2773948,8.90963365 18.2100407,7.97698779 19.2677341,7.97698779 C20.3254274,7.97698779 21.2580733,8.90963365 21.2580733,9.967327 C21.2580733,11.0250204 20.3254274,11.9576662 19.2677341,11.9576662 Z" id="Mask" fill="#D9FCFF" fill-rule="nonzero"></path>
            </g>
        </g>
    </g>
</svg>