<?xml version="1.0" encoding="UTF-8"?>
<svg width="25px" height="25px" viewBox="0 0 25 25" version="1.1" xmlns="http://www.w3.org/2000/svg" xmlns:xlink="http://www.w3.org/1999/xlink">
    <!-- Generator: sketchtool 56.2 (101010) - https://sketch.com -->
    <title>7D9599A6-471A-47E4-AED0-2A9FE1E42B90</title>
    <desc>Created with sketchtool.</desc>
    <g id="Page-1" stroke="none" stroke-width="1" fill="none" fill-rule="evenodd">
        <g id="-Hover-增加文字提示" transform="translate(-414.000000, -49.000000)">
            <g id="icon/dashboard-copy" transform="translate(414.000000, 49.000000)">
                <rect id="Rectangle" fill="#6B6B6B" opacity="0" x="0" y="0" width="25" height="25"></rect>
                <path d="M2.17008352,6.57551582 L22.7076689,6.57551582 L22.7076689,20.0651994 L2.17008352,20.0651994 L2.17008352,6.57551582 Z M7.48494052,17.9276479 L7.48494052,15.6341128 C7.48494052,15.466575 7.2113389,15.3337001 6.87952417,15.3337001 L5.78511769,15.3337001 C5.44748165,15.3337001 5.17970134,15.466575 5.17970134,15.6341128 L5.17970134,17.9276479 C5.17970134,18.0951857 5.45330296,18.2280605 5.78511769,18.2280605 L6.87952417,18.2280605 C7.21716021,18.2280605 7.48494052,18.0951857 7.48494052,17.9276479 Z M11.4259681,17.8698762 L11.4317894,13.1037139 C11.4317894,12.9072902 11.1581878,12.7455296 10.8263731,12.7455296 L9.73196659,12.7455296 C9.39433055,12.7455296 9.12655024,12.9072902 9.12655024,13.1037139 L9.12655024,17.8698762 C9.12655024,18.0662999 9.40015186,18.2280605 9.73196659,18.2280605 L10.8205518,18.2280605 C11.1581878,18.2280605 11.4259681,18.0662999 11.4259681,17.8698762 Z M15.541635,17.7485557 L15.541635,10.9834938 C15.541635,10.7235213 15.2680334,10.5097662 14.9362187,10.5097662 L13.8418122,10.5097662 C13.5041762,10.5097662 13.2363958,10.7235213 13.2363958,10.9834938 L13.2363958,17.7485557 C13.2363958,18.0085282 13.5099975,18.2222834 13.8418122,18.2222834 L14.9362187,18.2222834 C15.2738547,18.2222834 15.541635,18.0085282 15.541635,17.7485557 Z M19.6922298,17.6792297 L19.6980511,9.90894085 C19.6980511,9.60275103 19.4244495,9.36011004 19.0926348,9.36011004 L17.9982283,9.36011004 C17.6605923,9.36011004 17.3928119,9.6085282 17.3928119,9.90894085 L17.3928119,17.6792297 C17.3928119,17.9854195 17.6664136,18.2280605 17.9982283,18.2280605 L19.0868135,18.2280605 C19.4244495,18.2280605 19.6922298,17.9796424 19.6922298,17.6792297 Z M16.1004809,3.6522696 L23.3945836,3.6522696 C23.7322197,3.6522696 24,3.92379642 24,4.25309491 L24,5.15433287 C24,5.48940853 23.7263984,5.75515818 23.3945836,5.75515818 L1.60541635,5.75515818 C1.26778031,5.75515818 1,5.48363136 1,5.15433287 L1,4.25309491 C1,3.91801926 1.27360162,3.6522696 1.60541635,3.6522696 L8.89951911,3.6522696 L8.89951911,3.19587345 C8.89951911,2.53727648 9.44090104,2 10.1045305,2 L14.8954695,2 C15.559099,2 16.1004809,2.53727648 16.1004809,3.19587345 L16.1004809,3.6522696 Z M23.9941787,22.3991747 C23.9941787,22.7284732 23.7263984,22.9942228 23.3945836,23 L1.60541635,23 C1.26778031,23 1,22.7284732 1,22.3991747 L1,21.4979367 C1,21.1628611 1.27360162,20.8971114 1.60541635,20.8971114 L23.3887623,20.8971114 C23.7263984,20.8971114 23.9941787,21.1686382 23.9941787,21.4979367 L23.9941787,22.3991747 Z" id="Mask" fill="#D9FCFF" fill-rule="nonzero"></path>
            </g>
        </g>
    </g>
</svg>