<?xml version="1.0" encoding="UTF-8"?>
<svg width="25px" height="25px" viewBox="0 0 25 25" version="1.1" xmlns="http://www.w3.org/2000/svg" xmlns:xlink="http://www.w3.org/1999/xlink">
    <!-- Generator: sketchtool 56.2 (101010) - https://sketch.com -->
    <title>02CA799A-1A9D-4671-AA56-DE64B234D469</title>
    <desc>Created with sketchtool.</desc>
    <g id="Page-1" stroke="none" stroke-width="1" fill="none" fill-rule="evenodd">
        <g id="-Hover-增加文字提示" transform="translate(-481.000000, -87.000000)">
            <g id="icon/pages" transform="translate(481.000000, 87.000000)">
                <rect id="Rectangle" fill="#D8D8D8" opacity="0" x="0" y="0" width="25" height="25"></rect>
                <path d="M23.8506177,3.47907645 L23.8506177,4.80843628 L23.8506177,12.8983693 L23.8506177,21.3715412 C23.8506177,22.7368297 22.7368297,23.8506177 21.3715412,23.8506177 L3.47907645,23.8506177 C2.11378797,23.8506177 1,22.7308416 1,21.3715412 L1,3.47907645 C1,2.11378797 2.11977608,1 3.47907645,1 L21.3715412,1 C22.7368297,1 23.8506177,2.11977608 23.8506177,3.47907645 Z M21.9763401,15.0600761 L21.9763401,6.97014303 L21.9763401,6.13779611 L2.8742776,6.13779611 L2.8742776,21.7248396 L21.9763401,21.7248396 L21.9763401,15.0600761 Z M6.44672834,10.8480021 C5.74813775,10.8480021 5.18181818,10.2816826 5.18181818,9.58309197 C5.18181818,8.88450139 5.74813775,8.31818182 6.44672834,8.31818182 C7.14531893,8.31818182 7.71163849,8.88450139 7.71163849,9.58309197 C7.71163849,10.2816826 7.14531893,10.8480021 6.44672834,10.8480021 Z M6.44672834,15.0298203 C5.74813775,15.0298203 5.18181818,14.4635007 5.18181818,13.7649102 C5.18181818,13.0663196 5.74813775,12.5 6.44672834,12.5 C7.14531893,12.5 7.71163849,13.0663196 7.71163849,13.7649102 C7.71163849,14.4635007 7.14531893,15.0298203 6.44672834,15.0298203 Z M6.44672834,19.2116385 C5.74813775,19.2116385 5.18181818,18.6453189 5.18181818,17.9467283 C5.18181818,17.2481377 5.74813775,16.6818182 6.44672834,16.6818182 C7.14531893,16.6818182 7.71163849,17.2481377 7.71163849,17.9467283 C7.71163849,18.6453189 7.14531893,19.2116385 6.44672834,19.2116385 Z M10.4090909,8.31818182 L18.7727273,8.31818182 C19.3501159,8.31818182 19.8181818,8.78624776 19.8181818,9.36363636 C19.8181818,9.94102497 19.3501159,10.4090909 18.7727273,10.4090909 L10.4090909,10.4090909 C9.83170231,10.4090909 9.36363636,9.94102497 9.36363636,9.36363636 C9.36363636,8.78624776 9.83170231,8.31818182 10.4090909,8.31818182 Z M10.4090909,12.5 L18.7727273,12.5 C19.3501159,12.5 19.8181818,12.9680659 19.8181818,13.5454545 C19.8181818,14.1228431 19.3501159,14.5909091 18.7727273,14.5909091 L10.4090909,14.5909091 C9.83170231,14.5909091 9.36363636,14.1228431 9.36363636,13.5454545 C9.36363636,12.9680659 9.83170231,12.5 10.4090909,12.5 Z M10.4090909,16.6818182 L18.7727273,16.6818182 C19.3501159,16.6818182 19.8181818,17.1498841 19.8181818,17.7272727 C19.8181818,18.3046613 19.3501159,18.7727273 18.7727273,18.7727273 L10.4090909,18.7727273 C9.83170231,18.7727273 9.36363636,18.3046613 9.36363636,17.7272727 C9.36363636,17.1498841 9.83170231,16.6818182 10.4090909,16.6818182 Z" id="Mask" fill="#D9FCFF" fill-rule="nonzero"></path>
            </g>
        </g>
    </g>
</svg>