<?xml version="1.0" encoding="UTF-8"?>
<svg width="24px" height="24px" viewBox="0 0 24 24" version="1.1" xmlns="http://www.w3.org/2000/svg" xmlns:xlink="http://www.w3.org/1999/xlink">
    <!-- Generator: sketchtool 56.2 (101010) - https://sketch.com -->
    <title>93172115-2C77-4371-949E-A79B173C1D8C</title>
    <desc>Created with sketchtool.</desc>
    <g id="Page-1" stroke="none" stroke-width="1" fill="none" fill-rule="evenodd">
        <g id="子選單" transform="translate(-1136.000000, -269.000000)">
            <g id="icon/子選單/go-to-store" transform="translate(1136.000000, 269.000000)">
                <rect id="Rectangle" fill="#D8D8D8" opacity="0" x="0" y="0" width="24" height="24"></rect>
                <path d="M16.8068055,10.4714759 C15.7702538,12.5108138 12.8438262,12.7742345 11.5731503,10.5668138 C10.3124055,12.7652966 7.39615724,12.5304276 6.35538483,10.5218759 C6.14112276,10.7860414 5.94970207,11.0688276 5.71235034,11.305931 C4.77709517,12.2399448 3.29389517,12.3966069 2.23475034,11.6912552 C1.16368828,10.9782069 0.691715862,9.54987586 1.21259862,8.3430069 C2.11781241,6.24557241 3.06647448,4.16626207 4.0156331,2.0881931 C4.27011586,1.53056552 4.74904,1.25026207 5.36774345,1.25001379 C9.50327448,1.24777931 13.6388055,1.24777931 17.7740883,1.25001379 C18.4069434,1.25026207 18.8833848,1.54347586 19.1433297,2.11401379 C20.0775917,4.16377931 21.0163228,6.21205517 21.9108607,8.2792 C22.607771,9.89001379 21.66184,11.7083862 19.9899503,12.0696276 C18.865509,12.3126897 17.5948331,11.7568 16.9758814,10.7507862 C16.9262262,10.6698483 16.8775641,10.5884138 16.8068055,10.4714759 Z M2.81037793,20.3057821 L2.81037793,13.2572303 C3.23666759,13.2572303 3.63266759,13.283051 4.02345379,13.2497821 C4.40629517,13.2172579 4.78392276,13.2867752 5.20152276,13.2137821 L5.20152276,20.2963476 L5.61366069,20.2963476 C7.49211586,20.2963476 9.37106759,20.3032993 11.249771,20.290389 C11.6107641,20.2879062 11.8019366,20.4212303 11.9782124,20.7390234 C12.2587641,21.2447614 12.6237297,21.7030786 12.9410262,22.1892028 C13.0093021,22.2939752 13.0892469,22.463051 13.0487779,22.5474648 C13.0055779,22.637589 12.8260745,22.7080993 12.705909,22.7085959 C9.12130207,22.716789 7.45909517,22.7180303 3.87424,22.7125683 C3.18179862,22.7115752 2.86276414,22.2197407 2.82601931,21.5570924 L2.81037793,20.3057821 Z M17.6028028,22.8234844 C14.9410372,22.816 12.7912166,20.6577379 12.7929524,17.994731 C12.7946924,15.3230345 14.9829959,13.1312552 17.6313545,13.1486345 C20.3184441,13.1665103 22.4700028,15.3466207 22.4569637,18.0389241 C22.4441821,20.6870345 20.268789,22.8306483 17.6028028,22.8234844 Z M14.9414593,18.6687007 L17.9791145,18.6687007 L17.9791145,20.5019697 C18.8716662,19.6218317 19.7570179,18.7488938 20.5562179,17.9606179 C19.6914731,17.0941352 18.8110869,16.2117628 17.9416248,15.3400662 L17.9416248,17.1135007 L14.9414593,17.1135007 L14.9414593,18.6687007 Z" id="Mask" fill="#D9FCFF"></path>
            </g>
        </g>
    </g>
</svg>