<?xml version="1.0" encoding="UTF-8"?>
<svg width="24px" height="24px" viewBox="0 0 24 24" version="1.1" xmlns="http://www.w3.org/2000/svg" xmlns:xlink="http://www.w3.org/1999/xlink">
    <!-- Generator: sketchtool 56.2 (101010) - https://sketch.com -->
    <title>06104FAC-1A5E-4E25-A8AE-3635710495A1</title>
    <desc>Created with sketchtool.</desc>
    <g id="Page-1" stroke="none" stroke-width="1" fill="none" fill-rule="evenodd">
        <g id="子選單" transform="translate(-968.000000, -195.000000)">
            <g id="icon/子選單/users" transform="translate(968.000000, 195.000000)">
                <rect id="Rectangle" fill="#D8D8D8" opacity="0" x="0" y="0" width="24" height="24"></rect>
                <path d="M12.1029683,9.85139186 C9.79549321,9.85139186 7.9272724,7.98317104 7.9272724,5.67569593 C7.9272724,3.36822081 9.79549321,1.5 12.1029683,1.5 C14.4104434,1.5 16.2786643,3.36822081 16.2786643,5.67569593 C16.2786643,7.98317104 14.4104434,9.85139186 12.1029683,9.85139186 Z M13.8711059,11.1524742 C16.8180018,11.1524742 19.22,13.5489122 19.2144495,16.5069285 L19.2144495,20.8383095 L19.1866389,20.8383095 L18.9086299,20.977314 C18.7696253,21.0495964 16.4955113,22.1671928 12.5644633,22.1671928 C10.5516778,22.1671928 8.11075837,21.8725032 5.29730679,20.9939946 L4.99705701,20.8994715 L4.98593665,20.8327493 L4.98593665,16.5013683 C4.98593665,13.5489122 7.38237466,11.1524742 10.3292706,11.1524742 L13.8711059,11.1524742 Z" id="Mask" fill="#D9FCFF" fill-rule="nonzero"></path>
            </g>
        </g>
    </g>
</svg>