<?xml version="1.0" encoding="UTF-8"?>
<svg width="24px" height="24px" viewBox="0 0 24 24" version="1.1" xmlns="http://www.w3.org/2000/svg" xmlns:xlink="http://www.w3.org/1999/xlink">
    <!-- Generator: sketchtool 56.2 (101010) - https://sketch.com -->
    <title>421D17D6-288A-4158-871B-4509B7C1887F</title>
    <desc>Created with sketchtool.</desc>
    <g id="Page-1" stroke="none" stroke-width="1" fill="none" fill-rule="evenodd">
        <g id="子選單" transform="translate(-1024.000000, -269.000000)">
            <g id="icon/子選單/menus" transform="translate(1024.000000, 269.000000)">
                <rect id="Rectangle" fill="#D8D8D8" opacity="0" x="0" y="0" width="24" height="24"></rect>
                <path d="M3.41982813,6.83965625 C2.08339395,6.83965625 1,5.7562623 1,4.41982812 C1,3.08339395 2.08339395,2 3.41982813,2 C4.7562623,2 5.83965625,3.08339395 5.83965625,4.41982812 C5.83965625,5.7562623 4.7562623,6.83965625 3.41982813,6.83965625 Z M3.41982813,14.2768203 C2.08339395,14.2768203 1,13.1934264 1,11.8569922 C1,10.520558 2.08339395,9.43716406 3.41982813,9.43716406 C4.7562623,9.43716406 5.83965625,10.520558 5.83965625,11.8569922 C5.83965625,13.1934264 4.7562623,14.2768203 3.41982813,14.2768203 Z M3.41982813,21.7139844 C2.08339395,21.7139844 1,20.6305904 1,19.2941563 C1,17.9577221 2.08339395,16.8743281 3.41982813,16.8743281 C4.7562623,16.8743281 5.83965625,17.9577221 5.83965625,19.2941563 C5.83965625,20.6305904 4.7562623,21.7139844 3.41982813,21.7139844 Z M22.3511758,2.30036328 C22.5203945,2.30036328 22.66,2.43996875 22.66,2.6091875 L22.66,6.23469922 C22.66,6.40391797 22.5203945,6.54352344 22.3511758,6.54352344 L8.0395,6.54352344 C7.87028125,6.54352344 7.73067578,6.40391797 7.73067578,6.23469922 L7.73067578,2.6091875 C7.73067578,2.43996875 7.87028125,2.30036328 8.0395,2.30036328 L22.3511758,2.30036328 Z M22.3511758,9.73329687 C22.5203945,9.73329687 22.66,9.87290234 22.66,10.0421211 L22.66,13.6676328 C22.66,13.8368516 22.5203945,13.976457 22.3511758,13.976457 L8.0395,13.976457 C7.87028125,13.976457 7.73067578,13.8368516 7.73067578,13.6676328 L7.73067578,10.0421211 C7.73067578,9.87290234 7.87028125,9.73329687 8.0395,9.73329687 L22.3511758,9.73329687 Z M22.3511758,17.1704609 C22.5203945,17.1704609 22.66,17.3100664 22.66,17.4792852 L22.66,21.1047969 C22.66,21.2740156 22.5203945,21.4136211 22.3511758,21.4136211 L8.0395,21.4136211 C7.87028125,21.4136211 7.73067578,21.2740156 7.73067578,21.1047969 L7.73067578,17.4792852 C7.73067578,17.3100664 7.87028125,17.1704609 8.0395,17.1704609 L22.3511758,17.1704609 Z" id="Mask" fill="#D9FCFF" fill-rule="nonzero"></path>
            </g>
        </g>
    </g>
</svg>