<?xml version="1.0" encoding="UTF-8"?>
<svg width="25px" height="25px" viewBox="0 0 25 25" version="1.1" xmlns="http://www.w3.org/2000/svg" xmlns:xlink="http://www.w3.org/1999/xlink">
    <!-- Generator: sketchtool 56.2 (101010) - https://sketch.com -->
    <title>89E83E18-5046-424E-A468-E9466AC8577D</title>
    <desc>Created with sketchtool.</desc>
    <g id="Page-1" stroke="none" stroke-width="1" fill="none" fill-rule="evenodd">
        <g id="-Hover-增加文字提示" transform="translate(-481.000000, -49.000000)">
            <g id="icon/orders" transform="translate(481.000000, 49.000000)">
                <rect id="Rectangle" fill="#D8D8D8" opacity="0" x="0" y="0" width="25" height="25"></rect>
                <path d="M9.14087302,4.42973523 C8.87797619,4.42973523 8.66964286,4.2107943 8.66964286,3.94093686 L8.66964286,1.99592668 C8.66964286,1.72606925 8.88293651,1.50712831 9.14583333,1.50712831 L10.906746,1.50712831 C10.906746,0.697556008 11.5714286,0.0458248473 12.3948413,0.0458248473 C13.218254,0.0458248473 13.8829365,0.702647658 13.8829365,1.50712831 L15.6587302,1.50712831 C15.921627,1.50712831 16.1349206,1.72606925 16.1349206,1.99592668 L16.1349206,3.94093686 C16.1349206,4.2107943 15.921627,4.42973523 15.6587302,4.42973523 L9.14087302,4.42973523 Z M20.1428571,1.700611 C20.7132937,1.700611 21.1746032,2.17413442 21.1795635,2.75967413 L21.1795635,12.4592668 L21.1795635,23.9002037 C21.1795635,24.4857434 20.7132937,24.9592668 20.1478175,24.9592668 L13.5257937,24.9592668 L11.1795635,24.9592668 L4.55753968,24.9592668 C3.98710317,24.9592668 3.52579365,24.4806517 3.52579365,23.9002037 L3.52579365,2.76476578 C3.52579365,2.17922607 3.99206349,1.70570265 4.55753968,1.70570265 L7.85119048,1.70570265 L7.73214286,2.25560081 C7.72222222,2.30142566 7.7172619,2.34215886 7.7172619,2.38289206 L7.7172619,4.79124236 C7.7172619,5.12729124 7.98511905,5.39714868 8.30753968,5.39714868 L16.3928571,5.39714868 C16.7202381,5.39714868 16.9831349,5.12219959 16.9831349,4.79124236 L16.9831349,2.37780041 C16.9831349,2.33706721 16.9781746,2.29633401 16.968254,2.25050916 L16.8492063,1.700611 L20.1428571,1.700611 Z M11.5615079,9.1191446 C11.2390873,9.1191446 10.9811508,9.38391039 10.9811508,9.71486762 C10.9811508,10.0458248 11.2390873,10.3105906 11.5615079,10.3105906 L16.7946429,10.3105906 C17.1170635,10.3105906 17.375,10.0458248 17.375,9.71486762 C17.375,9.38391039 17.1170635,9.1191446 16.7946429,9.1191446 L11.5615079,9.1191446 Z M11.5615079,14.3380855 C11.2390873,14.3380855 10.9811508,14.6028513 10.9811508,14.9338086 C10.9811508,15.2647658 11.2390873,15.5295316 11.5615079,15.5295316 L16.2142857,15.5295316 C16.531746,15.5295316 16.7946429,15.2647658 16.7946429,14.9338086 C16.7946429,14.6028513 16.5367063,14.3380855 16.2142857,14.3380855 L11.5615079,14.3380855 Z M9.40873016,21.2678208 L9.40873016,19.0376782 L7.23611111,19.0376782 L7.23611111,21.2678208 L9.40873016,21.2678208 Z M9.40873016,16.0488798 L9.40873016,13.8187373 L7.23611111,13.8187373 L7.23611111,16.0488798 L9.40873016,16.0488798 Z M9.40873016,10.8299389 L9.40873016,8.59979633 L7.23611111,8.59979633 L7.23611111,10.8299389 L9.40873016,10.8299389 Z M17.0873016,20.7484725 C17.4047619,20.7484725 17.6626984,20.4837067 17.6676587,20.1527495 C17.6676587,19.8217923 17.4097222,19.5570265 17.0873016,19.5570265 L11.5615079,19.5570265 C11.2390873,19.5570265 10.9811508,19.8217923 10.9811508,20.1527495 C10.9811508,20.4837067 11.2390873,20.7484725 11.5615079,20.7484725 L17.0873016,20.7484725 Z" id="Mask" fill="#D9FCFF" fill-rule="nonzero"></path>
            </g>
        </g>
    </g>
</svg>