<?xml version="1.0" encoding="UTF-8"?>
<svg width="1024px" height="1024px" viewBox="0 0 1024 1024" version="1.1" xmlns="http://www.w3.org/2000/svg" xmlns:xlink="http://www.w3.org/1999/xlink">
    <title>E02536E2-70D8-4776-8572-80C44175B606</title>
    <g id="mobile" stroke="none" stroke-width="1" fill="none" fill-rule="evenodd">
        <g id="slice" transform="translate(0.000000, -1055.000000)">
            <g id="ic_mobile-header_shopping-cart" transform="translate(0.000000, 1055.000000)">
                <rect id="bg" fill-opacity="0" fill="#FFFFFF" x="64" y="64" width="896" height="896"></rect>
                <path d="M331,796 C366.346224,796 395,824.653776 395,860 C395,895.346224 366.346224,924 331,924 C295.653776,924 267,895.346224 267,860 C267,824.653776 295.653776,796 331,796 Z M742,796 C777.346224,796 806,824.653776 806,860 C806,895.346224 777.346224,924 742,924 C706.653776,924 678,895.346224 678,860 C678,824.653776 706.653776,796 742,796 Z M256.798747,99 C260.397694,99 263.553624,101.40321 264.510688,104.872568 L302.063,241 L837.90195,241 C846.738506,241 853.90195,248.163444 853.90195,257 C853.90195,258.161032 853.775576,259.318615 853.525062,260.452298 L780.957809,588.849894 C779.439569,595.720572 773.610809,600.79296 766.596292,601.34778 L377.999,632.083 L319.083,691 L780,691 C784.418278,691 788,694.581722 788,699 L788,751 C788,755.418278 784.418278,759 780,759 L314.254834,759 C296.750546,759 279.963187,752.046449 267.585786,739.669048 C242.068929,714.15219 241.813761,672.939732 266.820281,647.108963 L267.585786,646.330952 L326.959,586.956 L211.109,167 L127,167 C122.581722,167 119,163.418278 119,159 L119,107 C119,102.581722 122.581722,99 127,99 L256.798747,99 Z M768.175,313 L321.925,313 L389.767,558.928 L719.596,532.84 L768.175,313 Z" id="Shape" fill="#000000" fill-rule="nonzero"></path>
            </g>
        </g>
    </g>
</svg>