<?xml version="1.0" encoding="UTF-8"?>
<svg width="144px" height="89px" viewBox="0 0 144 89" version="1.1" xmlns="http://www.w3.org/2000/svg" xmlns:xlink="http://www.w3.org/1999/xlink">
    <title>290835A3-DB02-4A58-8A2C-467D217D0A5F</title>
    <g id="總體" stroke="none" stroke-width="1" fill="none" fill-rule="evenodd">
        <g id="編輯預覽區" transform="translate(-734.000000, -3747.000000)">
            <g id="Group-6" transform="translate(734.000000, 3747.000000)">
                <g id="Group-15" transform="translate(8.608696, 3.148688)">
                    <g id="Group-6" fill="#F0F3F7">
                        <rect id="Rectangle-Copy-9" x="0" y="0" width="39.9130435" height="81.8658892" rx="0.8"></rect>
                    </g>
                    <g id="Group-2" transform="translate(7.043478, 7.871720)">
                        <rect id="Rectangle" fill="#FAFBFC" fill-rule="nonzero" x="0" y="0" width="10.173913" height="10.2332362" rx="0.8"></rect>
                        <rect id="Rectangle-Copy-10" fill="#C4CAD5" fill-rule="nonzero" x="15.6521739" y="0" width="10.173913" height="10.2332362" rx="0.8"></rect>
                        <rect id="Rectangle-Copy-11" fill="#DAEFEE" fill-rule="nonzero" x="0" y="33.0612245" width="10.173913" height="10.2332362" rx="0.8"></rect>
                        <path d="M0,33.0612245 L10.173913,33.0612245 L10.173913,43.2944606 L0,43.2944606 L0,33.0612245 Z" id="Rectangle" stroke="#A7E2E0" stroke-width="0.8" stroke-linecap="round" stroke-linejoin="round" stroke-dasharray="1.2"></path>
                        <rect id="Rectangle-Copy-12" fill="#FAFBFC" fill-rule="nonzero" x="15.6521739" y="16.5306122" width="10.173913" height="10.2332362" rx="0.8"></rect>
                        <rect id="Rectangle" fill="#FAFBFC" fill-rule="nonzero" x="0" y="49.5918367" width="10.173913" height="10.2332362" rx="0.8"></rect>
                        <rect id="Rectangle-Copy-10" fill="#C4CAD5" fill-rule="nonzero" x="0" y="16.5306122" width="10.173913" height="10.2332362" rx="0.8"></rect>
                        <rect id="Rectangle-Copy-11" fill="#C4CAD5" fill-rule="nonzero" x="15.6521739" y="33.0612245" width="10.173913" height="10.2332362" rx="0.8"></rect>
                    </g>
                    <g id="Group-11" transform="translate(46.173913, 3.935860)" stroke-linecap="round" stroke-linejoin="round">
                        <rect id="Rectangle" stroke="#C4CAD5" stroke-width="2" fill="#FFFFFF" x="0" y="0" width="80.6086957" height="67.696793"></rect>
                        <path d="M9.39130435,8.65889213 L72,8.65889213 L72,59.8250729 L9.39130435,59.8250729 L9.39130435,8.65889213 Z" id="Rectangle" stroke="#DAEFEE" stroke-width="1.6" stroke-dasharray="3.2"></path>
                    </g>
                    <path id="Path-3" d="M13.2578725,46.1299273 C17.7172935,56.6104642 26.2223185,63.0127482 38.8615426,65.3738462 C48.9418118,67.256913 58.8823633,64.5067292 68.686408,57.1170269 L69.1848012,56.7372808 L74.421,52.107 L65.9516587,53.7766951 C65.5542889,53.8549853 65.1677093,53.6243998 65.0402534,53.2515241 L65.0121038,53.1464281 C64.9338136,52.7490582 65.1643991,52.3624787 65.5372748,52.2350227 L65.6423708,52.2068732 L77.0092981,49.96735 C77.5742315,49.8560463 78.0552012,50.3560497 77.9505344,50.8997905 L77.923924,51.0021158 L74.305575,62.0080256 C74.167584,62.4277521 73.7154647,62.6561437 73.2957382,62.5181527 C72.910989,62.391661 72.6870141,62.0012141 72.758645,61.6137219 L72.7856111,61.5083159 L75.481,53.305 L70.2028428,57.9704403 C59.8521905,65.9443302 49.292164,68.9500395 38.5677336,66.9466387 C25.4193977,64.4904349 16.4624901,57.7479897 11.7856058,46.7563701 C11.6126183,46.3498149 11.8019625,45.8800027 12.2085177,45.7070153 C12.615073,45.5340279 13.0848851,45.723372 13.2578725,46.1299273 Z" fill="#9DE8E4" fill-rule="nonzero"></path>
                    <rect id="Rectangle" fill="#49CCC5" fill-rule="nonzero" x="81.3913043" y="25.1895044" width="25.0434783" height="25.1895044" rx="3.2"></rect>
                    <g id="drag" transform="translate(100.018939, 45.742051) rotate(-30.000000) translate(-100.018939, -45.742051) translate(90.040678, 34.229660)">
                        <path d="M18.6260495,14.2211754 C18.6260495,18.3290635 15.342526,21.6703414 11.3073299,21.6703414 C8.91124511,21.6703414 6.65878449,20.7208874 4.96647674,18.9967604 L2.30428505,16.2879439 C1.67634259,15.6472927 1.33040984,14.7967521 1.33040984,13.89339 L1.33040984,11.8414776 C1.33040984,10.9367188 1.67634259,10.0861782 2.30428505,9.44692366 L2.66088204,9.08396625 L2.66088204,10.1579824 C2.66088204,10.5317962 2.95891929,10.8352024 3.32611814,10.8352024 C3.69331699,10.8352024 3.99129188,10.5317962 3.99129188,10.1579824 L3.99129188,7.45056268 C3.99129188,7.44922944 3.99129188,7.44922944 3.99129188,7.44783272 L3.99129188,4.06319297 C3.99129188,3.3168987 4.58730401,2.70881648 5.32170171,2.70881648 C6.05609942,2.70881648 6.65217391,3.3168987 6.65217391,4.06319297 L6.65217391,6.09478946 C6.65217391,6.46860321 6.95021116,6.77200945 7.31741001,6.77200945 C7.68460887,6.77200945 7.98264611,6.46860321 7.98264611,6.09478946 L7.98264611,2.70881648 C7.98264611,1.96252221 8.57865825,1.35443998 9.31305595,1.35443998 C10.0474537,1.35443998 10.6434658,1.96252221 10.6434658,2.70881648 L10.6434658,6.09478946 C10.6434658,6.46860321 10.941503,6.77200945 11.3087019,6.77200945 C11.6759007,6.77200945 11.973938,6.46860321 11.973938,6.09478946 L11.973938,4.06319297 C11.973938,3.3168987 12.5699501,2.70881648 13.3043478,2.70881648 C14.0387455,2.70881648 14.6347577,3.3168987 14.6347577,4.06319297 L14.6347577,6.09478946 C14.6347577,6.46860321 14.9327949,6.77200945 15.2999938,6.77200945 C15.6671926,6.77200945 15.9652299,6.46860321 15.9652299,6.09478946 L15.9652299,5.41756947 C15.9652299,4.6712752 16.561242,4.06319297 17.2956397,4.06319297 C18.0300374,4.06319297 18.6260495,4.67133868 18.6260495,5.41756947 L18.6260495,14.2211754 Z" id="Path" fill="#FFFFFF"></path>
                        <path d="M17.2956397,2.70881648 C16.7488327,2.70881648 16.239257,2.87813735 15.8161801,3.16662405 C15.4516629,2.11292383 14.4631321,1.35443998 13.3043478,1.35443998 C12.7575408,1.35443998 12.2479651,1.52376085 11.8248882,1.81224755 C11.460371,0.758483851 10.4718402,0 9.31305595,0 C8.15427166,0 7.16574092,0.758483851 6.80122372,1.81218407 C6.37814678,1.52369736 5.86857106,1.3543765 5.32176408,1.3543765 C3.85427831,1.3543765 2.66088204,2.56927119 2.66088204,4.06319297 L2.66088204,7.16880564 L1.36371218,8.48801012 C0.484318323,9.38464253 -2.22430769e-13,10.5737614 -2.22430769e-13,11.8401443 L-2.22430769e-13,13.8920568 C-2.22430769e-13,15.1584397 0.48425596,16.3489553 1.36371218,17.2455242 L4.02590386,19.9543407 C5.969663,21.9344489 8.55732978,23.0247813 11.3087019,23.0247813 C16.076986,23.0247813 19.9565217,19.0753578 19.9565217,14.2211754 L19.9565217,5.41756947 C19.9565217,3.92371118 18.7630631,2.70881648 17.2956397,2.70881648 Z M18.6260495,14.2211754 C18.6260495,18.3290635 15.342526,21.6703414 11.3073299,21.6703414 C8.91124511,21.6703414 6.65878449,20.7208874 4.96647674,18.9967604 L2.30428505,16.2879439 C1.67634259,15.6472927 1.33040984,14.7967521 1.33040984,13.89339 L1.33040984,11.8414776 C1.33040984,10.9367188 1.67634259,10.0861782 2.30428505,9.44692366 L2.66088204,9.08396625 L2.66088204,10.1579824 C2.66088204,10.5317962 2.95891929,10.8352024 3.32611814,10.8352024 C3.69331699,10.8352024 3.99129188,10.5317962 3.99129188,10.1579824 L3.99129188,7.45056268 C3.99129188,7.44922944 3.99129188,7.44922944 3.99129188,7.44783272 L3.99129188,4.06319297 C3.99129188,3.3168987 4.58730401,2.70881648 5.32170171,2.70881648 C6.05609942,2.70881648 6.65217391,3.3168987 6.65217391,4.06319297 L6.65217391,6.09478946 C6.65217391,6.46860321 6.95021116,6.77200945 7.31741001,6.77200945 C7.68460887,6.77200945 7.98264611,6.46860321 7.98264611,6.09478946 L7.98264611,2.70881648 C7.98264611,1.96252221 8.57865825,1.35443998 9.31305595,1.35443998 C10.0474537,1.35443998 10.6434658,1.96252221 10.6434658,2.70881648 L10.6434658,6.09478946 C10.6434658,6.46860321 10.941503,6.77200945 11.3087019,6.77200945 C11.6759007,6.77200945 11.973938,6.46860321 11.973938,6.09478946 L11.973938,4.06319297 C11.973938,3.3168987 12.5699501,2.70881648 13.3043478,2.70881648 C14.0387455,2.70881648 14.6347577,3.3168987 14.6347577,4.06319297 L14.6347577,6.09478946 C14.6347577,6.46860321 14.9327949,6.77200945 15.2999938,6.77200945 C15.6671926,6.77200945 15.9652299,6.46860321 15.9652299,6.09478946 L15.9652299,5.41756947 C15.9652299,4.6712752 16.561242,4.06319297 17.2956397,4.06319297 C18.0300374,4.06319297 18.6260495,4.67133868 18.6260495,5.41756947 L18.6260495,14.2211754 Z" id="Shape" fill="#C4CAD5" fill-rule="nonzero"></path>
                    </g>
                    <g id="Group-3" transform="translate(10.173913, 44.081633)" fill="#49CCC5" fill-opacity="0.4">
                        <ellipse id="Oval-Copy" cx="2.34782609" cy="2.36151603" rx="2.34782609" ry="2.36151603"></ellipse>
                    </g>
                </g>
            </g>
        </g>
    </g>
</svg>