<?xml version="1.0" encoding="UTF-8"?>
<svg width="32px" height="32px" viewBox="0 0 32 32" version="1.1" xmlns="http://www.w3.org/2000/svg" xmlns:xlink="http://www.w3.org/1999/xlink">
    <title>026E006E-F18D-47B6-97E3-A1FD3AF4CA80</title>
    <g id="T3883" stroke="none" stroke-width="1" fill="none" fill-rule="evenodd">
        <g id="slice" transform="translate(-605.000000, -738.000000)">
            <g id="facebook" transform="translate(605.000000, 738.000000)">
                <path d="M29.3333333,16 C29.3333333,8.64 23.36,2.66666667 16,2.66666667 C8.64,2.66666667 2.66666667,8.64 2.66666667,16 C2.66666667,22.4533333 7.25333333,27.8266667 13.3333333,29.0666667 L13.3333333,20 L10.6666667,20 L10.6666667,16 L13.3333333,16 L13.3333333,12.6666667 C13.3333333,10.0933333 15.4266667,8 18,8 L21.3333333,8 L21.3333333,12 L18.6666667,12 C17.9333333,12 17.3333333,12.6 17.3333333,13.3333333 L17.3333333,16 L21.3333333,16 L21.3333333,20 L17.3333333,20 L17.3333333,29.2666667 C24.0666667,28.6 29.3333333,22.92 29.3333333,16 Z" id="Path" fill="#000000" fill-rule="nonzero"></path>
            </g>
        </g>
    </g>
</svg>
