<?xml version="1.0" encoding="UTF-8"?>
<svg width="1024px" height="1024px" viewBox="0 0 1024 1024" version="1.1" xmlns="http://www.w3.org/2000/svg" xmlns:xlink="http://www.w3.org/1999/xlink">
    <title>EB93AAF9-4F58-4C8F-A13A-6AA5E1164C90</title>
    <g id="mobile" stroke="none" stroke-width="1" fill="none" fill-rule="evenodd">
        <g id="ic_mobile-header_profile">
            <rect id="bg" fill-opacity="0" fill="#FFFFFF" x="64" y="64" width="896" height="896"></rect>
            <path d="M512.080292,561 C696.824167,561 848.707775,699.289133 866.432446,876.298466 L866.537078,877.396348 L866.537078,877.396348 L866.640613,878.589212 L866.640613,878.589212 L866.743051,879.877061 L866.743051,879.877061 L866.844392,881.259892 L866.844392,881.259892 L866.977808,883.251418 L866.977808,883.251418 L867.109275,885.411804 L867.109275,885.411804 L867.270866,888.349743 L867.270866,888.349743 L867.366359,890.239151 L867.366359,890.239151 L867.523076,893.599238 C867.533422,893.832039 867.543748,894.066598 867.554053,894.302917 C867.939042,903.131082 861.094495,910.599819 852.26633,910.984808 C852.034106,910.994935 851.80169,911 851.569246,911 L172.543045,911 C163.70649,911 156.543045,903.836557 156.543045,895 C156.543045,894.767302 156.543045,894.534632 156.55827,894.302156 L156.629664,892.713035 L156.629664,892.713035 L156.740688,890.412583 L156.740688,890.412583 L156.856433,888.212006 L156.856433,888.212006 L156.976897,886.111304 L156.976897,886.111304 L157.059829,884.766322 L157.059829,884.766322 L157.144859,883.465729 L157.144859,883.465729 L157.231987,882.209525 L157.231987,882.209525 L157.366612,880.408448 L157.366612,880.408448 L157.458984,879.263216 L157.458984,879.263216 L157.601476,877.628598 L157.601476,877.628598 L157.748688,876.093854 L157.748688,876.093854 C175.569869,699.182575 327.407607,561 512.080292,561 Z M512.080292,633 C381.630738,633 272.02453,718.936866 238.528412,835.784587 L237.634,839 L786.525,839 L785.632172,835.784587 C752.539621,720.344669 645.159911,635.075255 516.786163,633.037327 L512.080292,633 Z M512,113 C622.45695,113 712,202.54305 712,313 C712,423.45695 622.45695,513 512,513 C401.54305,513 312,423.45695 312,313 C312,202.54305 401.54305,113 512,113 Z M512,185 C441.307552,185 384,242.307552 384,313 C384,383.692448 441.307552,441 512,441 C582.692448,441 640,383.692448 640,313 C640,242.307552 582.692448,185 512,185 Z" id="Shape" fill="#000000" fill-rule="nonzero"></path>
        </g>
    </g>
</svg>