<?xml version="1.0" encoding="UTF-8"?>
<svg width="480px" height="320px" viewBox="0 0 480 320" version="1.1" xmlns="http://www.w3.org/2000/svg" xmlns:xlink="http://www.w3.org/1999/xlink">
    <defs>
        <circle id="path-1" cx="149.5" cy="149.5" r="149.5"></circle>
        <polygon id="path-3" points="0.0107341916 0.233968358 141.97989 0.233968358 141.97989 70.0855377 0.0107341916 70.0855377"></polygon>
    </defs>
    <g stroke="none" stroke-width="1" fill="none" fill-rule="evenodd">
        <g transform="translate(-480.000000, -1113.000000)">
            <g transform="translate(0.000000, 940.000000)">
                <g transform="translate(480.000000, 173.000000)">
                    <g>
                        <g>
                            <path d="M126.5,32 C145.93939,32 161.729427,47.6247364 161.99656,67.0006569 L197,67 C216.882251,67 233,83.117749 233,103 C233,122.882251 216.882251,139 197,139 L56,139 C36.117749,139 20,122.882251 20,103 C20,83.117749 36.117749,67 56,67 L91.003,67 L91.004756,66.9129426 C91.318249,47.5776029 107.089952,32 126.5,32 Z" fill="#F8FFFE"></path>
                            <g transform="translate(91.000000, 10.000000)">
                                <mask id="mask-2" fill="white">
                                    <use xlink:href="#path-1"></use>
                                </mask>
                                <use fill="#B3F1E8" xlink:href="#path-1"></use>
                                <g mask="url(#mask-2)">
                                    <g transform="translate(149.903022, 204.351932) rotate(8.000000) translate(-149.903022, -204.351932) translate(49.403022, 36.351932)">
                                        <g stroke-width="1" fill="none">
                                            <polygon fill="#ADD8EE" points="136.794768 210.632983 135.897305 203.220396 64.6437189 204.556492 59.9184375 210.632983 56.4511997 262.22239 100.660477 277.428281 148.153436 262.22239"></polygon>
                                            <g>
                                                <g>
                                                    <g transform="translate(0.000000, 33.847511)">
                                                        <path d="M30.818282,33.3718369 C11.1052548,53.7839952 -0.973867931,82.0309318 0.0616658498,110.64463 C0.57311851,124.79023 5.24564899,138.531128 15.4368168,148.617062 C24.8134489,157.893591 37.23354,163.527802 49.6915166,167.366148 C78.0234683,176.086212 108.925312,177.515316 137.844487,170.894643 C163.86543,164.931612 191.736443,152.221439 198.40427,123.791122 C201.845526,109.09538 199.869172,93.4068528 195.922778,79.014637 C192.228953,65.5393243 186.034693,53.8092891 177.245284,42.9455691 C160.165291,21.8251823 144.082946,7.51517163 108.761142,2.27301572 C94.1436984,0.104065815 79.1158301,3.53770955 65.6854621,9.29838992 C52.5644914,14.9326009 40.7442521,23.0961996 30.818282,33.3718369 Z" fill="#BCDFF1"></path>
                                                        <path d="M34.6366204,29.9778053 C16.0266212,49.2478162 4.62337707,75.914216 5.60096831,102.926855 C6.08380301,116.280949 10.4948854,129.252985 20.1158139,138.774567 C28.9677834,147.532035 40.6929173,152.850988 52.4538168,156.474562 C79.2004748,164.706701 108.373228,166.055841 135.674252,159.805623 C160.239212,154.176249 186.550723,142.177265 192.845457,115.337745 C196.094159,101.464292 194.228391,86.6536056 190.502814,73.0666958 C187.015675,60.3453844 181.16801,49.2716948 172.870406,39.0158464 C156.746112,19.0772354 141.563643,5.56793099 108.218244,0.619096111 C94.4187092,-1.42849178 80.2317143,1.81302491 67.5528328,7.25137061 C55.1660364,12.5703234 44.0071901,20.2771338 34.6366204,29.9778053 Z" fill="#D1EBF9"></path>
                                                    </g>
                                                    <path d="M168.639833,95.9535852 C168.639833,103.870569 162.30666,110.295213 154.502272,110.295213 C146.691569,110.295213 140.36471,103.870569 140.36471,95.9535852 C140.36471,88.0366019 146.691569,81.6119572 154.502272,81.6119572 C162.30666,81.6119572 168.639833,88.0366019 168.639833,95.9535852" fill="#FFFFFF"></path>
                                                    <path d="M46.1829124,110.295213 C53.9936153,110.295213 60.3204742,103.870569 60.3204742,95.9535852 C60.3204742,88.0366019 53.9936153,81.6119572 46.1829124,81.6119572 C38.3785236,81.6119572 32.0453506,88.0366019 32.0453506,95.9535852 C32.0453506,103.870569 38.3785236,110.295213 46.1829124,110.295213 Z" fill="#FFFFFF"></path>
                                                    <path d="M173.602187,120.875009 C167.319528,120.875009 162.223944,118.143271 162.223944,114.766538 C162.223944,111.389806 167.319528,108.658067 173.602187,108.658067 C179.884846,108.658067 184.98043,111.389806 184.98043,114.766538 C184.98043,118.143271 179.884846,120.875009 173.602187,120.875009 Z" fill="#EDF9FF"></path>
                                                    <path d="M39.1678024,115.381179 C39.1678024,118.757912 34.0722185,121.489651 27.7895593,121.489651 C21.5069001,121.489651 16.4113162,118.757912 16.4113162,115.381179 C16.4113162,112.004447 21.5069001,109.272708 27.7895593,109.272708 C34.0722185,109.272708 39.1678024,112.004447 39.1678024,115.381179" fill="#EDF9FF"></path>
                                                    <path d="M77.7178666,212.225655 C69.231541,211.074784 61.5368325,209.436747 60.9379512,209.436747 C54.573207,212.85142 26.8251698,249.363389 52.9597693,257.31199 C79.0943688,265.26059 98.5990265,250.80514 98.5990265,250.80514 C98.5990265,250.80514 90.5041831,245.727394 81.5758614,238.695697 C75.9498821,239.201574 69.3199402,238.645109 65.1146628,234.579118 C61.502923,229.994603 66.4659081,221.103806 80.5466418,217.271783 C93.8949248,215.147098 101.497258,216.993551 114.409859,219.206765 C136.193954,223.734369 137.677798,238.366876 137.677798,238.366876 C137.677798,238.366876 136.358124,235.375875 133.447264,232.732665 C128.452708,228.179767 120.244208,224.398333 105.33631,222.374823 C82.8197648,219.326911 78.3745466,221.881592 73.0516504,226.5989 C64.7484374,233.959418 82.2135986,232.15723 82.2135986,232.15723 C82.2135986,232.15723 106.289759,248.756336 114.839227,253.745553 C123.388695,258.728447 150.363087,265.146768 155.906981,245.834893 C160.895223,226.12464 136.326553,209.588768 136.326553,209.588768 C107.716775,215.026952 77.9641216,212.225655 77.7178666,212.225655 Z" fill="#C6E7F9"></path>
                                                    <path d="M78.1487951,211.921893 C68.6283441,210.838318 64.5275042,210.140825 63.8694914,209.978348 C58.2554917,212.990248 40.9350903,240.668981 55.2018803,248.785039 C69.4686703,256.901098 94.6348439,248.254464 94.6348439,248.254464 C94.6348439,248.254464 91.7917005,246.622174 81.7040019,238.833201 C76.7416272,239.279408 70.950657,236.816387 67.2414072,233.229995 C64.0556852,229.18624 68.4332682,221.344144 80.8531285,217.964122 C92.6269334,216.090051 99.332544,217.718708 110.722057,219.670866 C129.936639,223.664422 131.245459,236.570973 131.245459,236.570973 C131.245459,236.570973 130.081445,233.932771 127.513931,231.601337 C123.108501,227.58547 116.922366,224.806823 103.772908,223.021993 C83.9122707,220.333593 78.3347374,222.170406 76.04944,224.087075 C68.3914421,230.509804 82.3234618,231.093776 82.3234618,231.093776 C82.3234618,231.093776 104.322592,240.967444 111.863619,245.368165 C119.404647,249.763308 137.625191,259.617605 150.515902,242.687074 C154.915763,225.301716 137.074333,209.828288 135.277298,209.828288 C133.480264,209.828288 101.092943,214.908878 78.1487951,211.921893 Z" fill="#D1EBF9"></path>
                                                    <path d="M112.136309,252.173087 C102.452268,249.442206 97.8705708,242.859415 97.8705708,242.859415 C97.8705708,242.859415 108.420188,234.262681 102.907834,221.214417 C106.57189,220.282398 116.965314,223.560758 117.173572,224.362425 C117.173572,224.362425 125.57552,234.947031 112.136309,252.173087 Z" fill="#FFE473"></path>
                                                    <path d="M110.094289,250.442259 C120.689568,238.098848 117.248312,224.895444 115.70764,224.035452 C114.413223,223.30193 109.147155,221.809591 105.623814,222.182676 C108.484161,231.794349 102.940266,241.854988 99.1896135,243.64453 C101.690049,247.135085 105.263903,249.55065 110.094289,250.442259 Z M112.948016,253.59767 C112.599905,253.59767 112.244305,253.59767 111.881217,253.59767 C101.980503,250.809021 97.5921132,244.013258 97.3963721,243.728702 L96.5652472,242.008159 L97.3963721,241.45661 C97.7625974,241.14676 106.507806,233.767271 101.759505,222.53679 L100.94497,220.614456 L102.971837,220.102255 C105.447016,219.476231 109.715436,220.399458 112.039072,221.006511 C117.399854,222.403997 118.517473,223.365165 118.845813,224.048099 C120.121287,225.881905 125.280013,236.910035 113.775486,252.977971 C113.57195,253.391104 113.296126,253.59767 112.948016,253.59767 Z" fill="#FFDA2A"></path>
                                                    <g transform="translate(27.782614, 0.000000)">
                                                        <mask id="mask-4" fill="white">
                                                            <use xlink:href="#path-3"></use>
                                                        </mask>
                                                        <g></g>
                                                        <path d="M141.97989,67.5877674 C141.97989,67.5877674 124.659956,40.8711103 91.3776477,33.9911759 C81.7863317,32.0056066 83.6932293,17.7841246 94.0359387,16.5953124 C104.384962,15.4065002 112.328264,9.4624392 107.144281,0.230174276 C105.395239,7.7424556 103.12843,10.227579 93.688656,8.77950453 C93.688656,8.77950453 68.8547879,1.33678137 57.1608333,29.8240098 C52.6335301,40.8647869 25.659138,35.6732187 0.0107341916,70.0855377 C52.5830163,32.7264821 119.425459,51.4502742 141.97989,67.5877674" fill="#757D97" mask="url(#mask-4)"></path>
                                                    </g>
                                                    <path d="M82.8616452,141.786722 C82.8616452,141.786722 101.419168,133.148863 117.305772,141.786722 C117.305772,141.786722 102.202133,138.321461 82.8616452,141.786722" fill="#C6E7F9"></path>
                                                    <path d="M164.193984,95.7594547 C164.193984,101.330431 159.742451,105.845388 154.249071,105.845388 C148.75569,105.845388 144.304158,101.330431 144.304158,95.7594547 C144.304158,90.1948019 148.75569,85.6735214 154.249071,85.6735214 C159.742451,85.6735214 164.193984,90.1948019 164.193984,95.7594547" fill="#757D97"></path>
                                                    <path d="M45.9246603,105.845388 C51.4180408,105.845388 55.8695732,101.330431 55.8695732,95.7594547 C55.8695732,90.1948019 51.4180408,85.6735214 45.9246603,85.6735214 C40.4312799,85.6735214 35.9797475,90.1948019 35.9797475,95.7594547 C35.9797475,101.330431 40.4312799,105.845388 45.9246603,105.845388 Z" fill="#757D97"></path>
                                                    <path d="M75.4938999,207.011409 C75.4121162,207.036703 92.125884,209.23727 99.361992,209.23727 C106.547586,209.23727 112.67239,208.623893 123.905405,207.245377 C123.86752,207.188466 107.999859,201.889399 99.91133,183.488104 C99.8481877,183.355311 93.1929889,201.339257 75.4938999,207.011409 Z" fill="#757D97"></path>
                                                    <path d="M130.896521,140.258339 C125.680967,140.258339 120.579069,138.734383 115.647655,137.267338 C113.241933,136.552786 110.754126,135.806617 108.323148,135.269122 C105.866912,134.725304 103.429619,134.459718 100.872356,134.459718 C96.9575331,134.459718 92.7522556,135.111035 88.0228971,136.445287 L86.3938256,136.913224 C80.9257021,138.475121 75.2681517,140.087606 69.6674294,140.087606 C65.68315,140.087606 62.0966672,139.284525 58.7059255,137.6341 C54.2670215,135.477797 46.6836308,130.05226 46.4310616,123.399971 C46.3994905,122.495715 46.6141743,121.800133 47.0814273,121.313226 C47.4539669,120.921171 47.9591054,120.71882 48.552643,120.71882 C49.8344318,120.71882 51.2551336,121.736898 51.7918432,123.045856 C52.2212109,124.095552 52.7768631,125.138925 53.4398573,126.15068 C56.3128321,130.494903 60.8275069,133.384728 66.1440888,134.288984 C67.4700772,134.510306 68.8718364,134.624128 70.3114809,134.624128 C73.0392284,134.624128 76.0195451,134.213103 79.1766603,133.403699 C84.676355,131.980918 90.0813362,130.67196 95.7262581,130.235641 C97.2416734,130.115495 98.8076026,130.05226 100.367217,130.05226 C102.785568,130.05226 105.279689,130.1977 107.799067,130.488579 C111.252951,130.880635 114.618435,131.715332 117.870264,132.518413 C120.11813,133.074878 122.448081,133.650314 124.765404,134.067663 C126.703872,134.421777 128.61077,134.598834 130.435582,134.598834 C135.91002,134.598834 140.645693,132.992673 144.143777,129.944761 C146.549498,127.851693 147.976514,125.322305 149.169904,122.894093 C149.182532,122.875123 149.226732,122.773947 149.239361,122.748653 C149.270932,122.685419 149.308817,122.622184 149.353017,122.565273 C149.933926,121.673664 151.203086,120.88323 152.131278,120.668232 C152.301762,120.630291 152.465932,120.611321 152.617474,120.611321 C153.116298,120.611321 153.545666,120.801025 153.867691,121.167786 C154.581199,121.970867 154.4928,123.355706 154.423344,123.912172 C154.183403,125.809212 153.280468,127.756841 151.550369,130.039613 C147.471376,135.446179 140.936148,139.189673 134.066265,140.062312 C133.04336,140.188781 131.976255,140.258339 130.896521,140.258339" fill="#757D97"></path>
                                                </g>
                                            </g>
                                            <ellipse fill="#FFF0B3" transform="translate(111.282826, 228.985816) rotate(109.000000) translate(-111.282826, -228.985816) " cx="111.282826" cy="228.985816" rx="1.4267029" ry="2.85340581"></ellipse>
                                            <ellipse fill="#FFDA2A" transform="translate(109.142772, 241.469466) rotate(109.000000) translate(-109.142772, -241.469466) " cx="109.142772" cy="241.469466" rx="5.70681161" ry="7.49019024"></ellipse>
                                            <ellipse fill="#FFE473" transform="translate(110.212799, 239.329412) rotate(109.000000) translate(-110.212799, -239.329412) " cx="110.212799" cy="239.329412" rx="4.63678443" ry="6.06348734"></ellipse>
                                            <ellipse fill="#FFF0B3" transform="translate(115.159598, 230.548035) rotate(109.000000) translate(-115.159598, -230.548035) " cx="115.159598" cy="230.548035" rx="1" ry="1.4267029"></ellipse>
                                        </g>
                                        <path d="M145.482391,277.183221 C146.826556,269.550331 148.806012,266.752148 147.924266,261.195631 C130.471786,270.811218 103.07486,251.927285 103.07486,251.927285 C103.07486,251.927285 85.7820069,268.992101 57.3989234,261.010784 C52.1236529,282.795978 67.2805539,301.83712 79.389352,309.141926 C93.6569063,317.746546 108.669384,319.943308 127.543298,315.724612 C134.893711,314.082741 143.353907,310.722987 149.49572,307.560865 C157.089373,303.646219 161.140842,304.900426 162.942339,307.804105 C164.614615,310.487348 164.356172,314.599626 163.19318,317.336078 C162.676295,318.537076 161.900967,320.25496 161.482898,322.178077 C161.095234,323.949169 161.01162,325.879888 161.718537,327.742195 C162.904333,330.86631 166.317296,333.785192 174.245404,335.320646 C174.245404,335.320646 167.016611,331.124753 169.213374,323.523499 C169.570633,322.284494 170.171132,320.961876 171.098485,319.548043 C175.560421,313.467039 179.24703,300.810951 171.55456,294.957985 C170.421973,294.091442 169.038545,293.376924 167.366269,292.852438 C162.106201,291.202966 156.747317,293.513747 152.232172,296.941913 C150.043011,298.606587 148.043881,300.529705 146.364003,302.399613 C141.392783,307.89532 135.349786,303.281359 140.64786,289.644709 C140.693468,289.523088 143.148806,280.968646 145.482391,277.183221 Z" fill="#C6E7F9"></path>
                                        <path d="M142.595927,278.90127 C145.9976,271.138831 147.35485,266.928405 146.554457,261.884545 C129.933914,268.118698 103.012492,251.902251 103.012492,251.902251 C103.012492,251.902251 88.4298734,266.384704 62.7497555,261.989503 C57.9611932,281.764748 71.7196849,299.049112 82.7112984,305.679959 C95.6624965,313.490698 109.744636,317.60574 126.877201,313.77627 C133.549448,312.285882 140.595196,309.320952 146.170352,306.450575 C153.063398,302.897103 160.695384,300.85173 163.018348,303.265845 C165.341312,305.679959 165.959143,309.059956 165.959143,311.655312 C165.959143,313.09093 163.397845,317.42994 163.018348,319.175626 C162.666451,320.783313 161.689089,323.51487 161.929626,325.257682 C162.388311,328.58109 163.018348,329.38271 168.46196,331.907026 C168.46196,331.907026 163.965059,329.067271 165.959143,322.167326 C166.283441,321.042634 169.871263,314.107184 170.713056,312.823794 C174.763324,307.303838 176.279617,304.38766 170.713056,295.873801 C170.077452,294.901668 168.280128,294.155676 166.76214,293.67958 C161.987377,292.182292 157.243611,294.957942 153.145044,298.069818 C151.157859,299.580906 147.132711,302.804849 145.607823,304.502236 C141.095259,309.490896 133.508699,300.360101 138.317961,287.981599 C138.35936,287.8712 140.477644,282.337443 142.595927,278.90127 Z" fill="#D1EBF9"></path>
                                        <path d="M86.0771921,281.412982 C72.9162995,279.896683 62.0813812,272.432955 56.4946264,260.44241 C54.6176535,283.900892 67.9993664,299.917727 91.6492255,302.030242 C116.314858,304.231085 138.793577,295.818277 147.199472,273.618472 C147.689094,271.672533 149.712476,268.382379 147.919425,261.198749 C134.015104,277.141978 106.090876,283.724235 86.0771921,281.412982 Z" fill="#BBD81E"></path>
                                        <path d="M95.0492376,285.335201 C81.8240277,285.335201 63.6976486,277.577815 56.7835266,261.275372 C54.2670734,285.865445 69.4296193,296.187658 92.2967636,298.230257 C116.146064,300.358261 132.251631,291.917602 144.757635,275.518771 C145.094098,274.732202 147.799161,270.784321 147.929044,269.55149 C148.058928,268.31866 148.699474,265.569169 147.929044,261.197696 C134.517879,275.574808 114.578742,285.335201 95.0492376,285.335201 Z" fill="#CCEA2C"></path>
                                    </g>
                                </g>
                            </g>
                            <path d="M371.5,250 C382.10257,250 390.728777,258.461814 390.993728,269.000547 L412.5,269 C423.821837,269 433,278.178163 433,289.5 C433,300.821837 423.821837,310 412.5,310 L333.5,310 C322.178163,310 313,300.821837 313,289.5 C313,278.178163 322.178163,269 333.5,269 L352.006272,269.000547 C352.271223,258.461814 360.89743,250 371.5,250 Z" fill="#F8FFFE"></path>
                        </g>
                    </g>
                </g>
            </g>
        </g>
    </g>
</svg>