<?xml version="1.0" encoding="UTF-8"?>
<svg width="32px" height="32px" viewBox="0 0 32 32" version="1.1" xmlns="http://www.w3.org/2000/svg" xmlns:xlink="http://www.w3.org/1999/xlink">
    <title>15ECD50C-B7F1-4CC3-8B52-995BFC416129</title>
    <g id="T3883" stroke="none" stroke-width="1" fill="none" fill-rule="evenodd">
        <g id="slice" transform="translate(-625.000000, -439.000000)">
            <g id="add_shopping_cart" transform="translate(625.000000, 439.000000)">
                <polygon id="Path" points="0 0 32 0 32 32 0 32"></polygon>
                <path d="M14.6666667,12 L17.3333333,12 L17.3333333,8 L21.3333333,8 L21.3333333,5.33333333 L17.3333333,5.33333333 L17.3333333,1.33333333 L14.6666667,1.33333333 L14.6666667,5.33333333 L10.6666667,5.33333333 L10.6666667,8 L14.6666667,8 L14.6666667,12 Z M9.33333333,24 C7.86666667,24 6.68,25.2 6.68,26.6666667 C6.68,28.1333333 7.86666667,29.3333333 9.33333333,29.3333333 C10.8,29.3333333 12,28.1333333 12,26.6666667 C12,25.2 10.8,24 9.33333333,24 Z M22.6666667,24 C21.2,24 20.0133333,25.2 20.0133333,26.6666667 C20.0133333,28.1333333 21.2,29.3333333 22.6666667,29.3333333 C24.1333333,29.3333333 25.3333333,28.1333333 25.3333333,26.6666667 C25.3333333,25.2 24.1333333,24 22.6666667,24 Z M10.8,17.3333333 L20.7333333,17.3333333 C21.7333333,17.3333333 22.6133333,16.7866667 23.0666667,15.96 L28.2133333,6.61333333 L25.8933333,5.33333333 L20.7333333,14.6666667 L11.3733333,14.6666667 L5.69333333,2.66666667 L1.33333333,2.66666667 L1.33333333,5.33333333 L4,5.33333333 L8.8,15.4533333 L7,18.7066667 C6.02666667,20.4933333 7.30666667,22.6666667 9.33333333,22.6666667 L25.3333333,22.6666667 L25.3333333,20 L9.33333333,20 L10.8,17.3333333 Z" id="Shape" fill="#000000" fill-rule="nonzero"></path>
            </g>
        </g>
    </g>
</svg>