<?xml version="1.0" encoding="UTF-8"?>
<svg width="32px" height="32px" viewBox="0 0 32 32" version="1.1" xmlns="http://www.w3.org/2000/svg" xmlns:xlink="http://www.w3.org/1999/xlink">
    <title>3ACFBBDF-B4A0-4715-A7F7-4072D67EDA5E</title>
    <g id="T3883" stroke="none" stroke-width="1" fill="none" fill-rule="evenodd">
        <g id="slice" transform="translate(-195.000000, -815.000000)">
            <g id="cake" transform="translate(195.000000, 815.000000)">
                <path d="M16,8 C17.48,8 18.6666667,6.8 18.6666667,5.33333333 C18.6666667,4.82666667 18.5333333,4.36 18.28,3.96 L16,0 L13.72,3.96 C13.4666667,4.36 13.3333333,4.82666667 13.3333333,5.33333333 C13.3333333,6.8 14.5333333,8 16,8 Z M22.1333333,21.32 L20.7066667,19.8933333 L19.2666667,21.32 C17.5333333,23.0533333 14.4933333,23.0666667 12.7466667,21.32 L11.32,19.8933333 L9.86666667,21.32 C9,22.1866667 7.84,22.6666667 6.61333333,22.6666667 C5.64,22.6666667 4.74666667,22.36 4,21.8533333 L4,28 C4,28.7333333 4.6,29.3333333 5.33333333,29.3333333 L26.6666667,29.3333333 C27.4,29.3333333 28,28.7333333 28,28 L28,21.8533333 C27.2533333,22.36 26.36,22.6666667 25.3866667,22.6666667 C24.16,22.6666667 23,22.1866667 22.1333333,21.32 L22.1333333,21.32 Z M24,12 L17.3333333,12 L17.3333333,9.33333333 L14.6666667,9.33333333 L14.6666667,12 L8,12 C5.78666667,12 4,13.7866667 4,16 L4,18.0533333 C4,19.4933333 5.17333333,20.6666667 6.61333333,20.6666667 C7.30666667,20.6666667 7.97333333,20.4 8.45333333,19.9066667 L11.3066667,17.0666667 L14.1466667,19.9066667 C15.1333333,20.8933333 16.8533333,20.8933333 17.84,19.9066667 L20.6933333,17.0666667 L23.5333333,19.9066667 C24.0266667,20.4 24.68,20.6666667 25.3733333,20.6666667 C26.8133333,20.6666667 27.9867408,19.4933333 27.9867408,18.0533333 L27.9867408,16 C28,13.7866667 26.2133333,12 24,12 Z" id="Shape" fill="#000000" fill-rule="nonzero"></path>
            </g>
        </g>
    </g>
</svg>
