<?xml version="1.0" encoding="UTF-8"?>
<svg width="32px" height="32px" viewBox="0 0 32 32" version="1.1" xmlns="http://www.w3.org/2000/svg" xmlns:xlink="http://www.w3.org/1999/xlink">
    <title>FFFADAE7-A678-41DF-A5E4-92B6A13BA049</title>
    <g id="T3883" stroke="none" stroke-width="1" fill="none" fill-rule="evenodd">
        <g id="slice" transform="translate(-573.000000, -543.000000)">
            <g id="card_giftcard" transform="translate(573.000000, 543.000000)">
                <polygon id="Path" points="0 0 32 0 32 32 0 32"></polygon>
                <path d="M26.6666667,8 L23.76,8 C23.9066667,7.58666667 24,7.13333333 24,6.66666667 C24,4.45333333 22.2133333,2.66666667 20,2.66666667 C18.6,2.66666667 17.3866667,3.38666667 16.6666667,4.46666667 L16,5.36 L15.3333333,4.45333333 C14.6133333,3.38666667 13.4,2.66666667 12,2.66666667 C9.78666667,2.66666667 8,4.45333333 8,6.66666667 C8,7.13333333 8.09333333,7.58666667 8.24,8 L5.33333333,8 C3.85333333,8 2.68,9.18666667 2.68,10.6666667 L2.66666667,25.3333333 C2.66666667,26.8133333 3.85333333,28 5.33333333,28 L26.6666667,28 C28.1466667,28 29.3333333,26.8133333 29.3333333,25.3333333 L29.3333333,10.6666667 C29.3333333,9.18666667 28.1466667,8 26.6666667,8 Z M20,5.33333333 C20.7333333,5.33333333 21.3333333,5.93333333 21.3333333,6.66666667 C21.3333333,7.4 20.7333333,8 20,8 C19.2666667,8 18.6666667,7.4 18.6666667,6.66666667 C18.6666667,5.93333333 19.2666667,5.33333333 20,5.33333333 Z M12,5.33333333 C12.7333333,5.33333333 13.3333333,5.93333333 13.3333333,6.66666667 C13.3333333,7.4 12.7333333,8 12,8 C11.2666667,8 10.6666667,7.4 10.6666667,6.66666667 C10.6666667,5.93333333 11.2666667,5.33333333 12,5.33333333 Z M26.6666667,25.3333333 L5.33333333,25.3333333 L5.33333333,22.6666667 L26.6666667,22.6666667 L26.6666667,25.3333333 Z M26.6666667,18.6666667 L5.33333333,18.6666667 L5.33333333,10.6666667 L12.1066667,10.6666667 L9.33333333,14.44 L11.4933333,16 L16,9.86666667 L20.5066667,16 L22.6666667,14.44 L19.8933333,10.6666667 L26.6666667,10.6666667 L26.6666667,18.6666667 Z" id="Shape" fill="#000000" fill-rule="nonzero"></path>
            </g>
        </g>
    </g>
</svg>