<?xml version="1.0" encoding="UTF-8"?>
<svg width="32px" height="32px" viewBox="0 0 32 32" version="1.1" xmlns="http://www.w3.org/2000/svg" xmlns:xlink="http://www.w3.org/1999/xlink">
    <title>17B61412-B8D0-45AD-A063-A90E8B230A80</title>
    <g id="T3883" stroke="none" stroke-width="1" fill="none" fill-rule="evenodd">
        <g id="slice" transform="translate(-113.000000, -738.000000)">
            <g id="date_range" transform="translate(113.000000, 738.000000)">
                <path d="M12,14.6666667 L9.33333333,14.6666667 L9.33333333,17.3333333 L12,17.3333333 L12,14.6666667 Z M17.3333333,14.6666667 L14.6666667,14.6666667 L14.6666667,17.3333333 L17.3333333,17.3333333 L17.3333333,14.6666667 Z M22.6666667,14.6666667 L20,14.6666667 L20,17.3333333 L22.6666667,17.3333333 L22.6666667,14.6666667 Z M25.3333333,5.33333333 L24,5.33333333 L24,2.66666667 L21.3333333,2.66666667 L21.3333333,5.33333333 L10.6666667,5.33333333 L10.6666667,2.66666667 L8,2.66666667 L8,5.33333333 L6.66666667,5.33333333 C5.18666667,5.33333333 4.01333333,6.53333333 4.01333333,8 L4,26.6666667 C4,28.1333333 5.18666667,29.3333333 6.66666667,29.3333333 L25.3333333,29.3333333 C26.8,29.3333333 28,28.1333333 28,26.6666667 L28,8 C28,6.53333333 26.8,5.33333333 25.3333333,5.33333333 Z M25.3333333,26.6666667 L6.66666667,26.6666667 L6.66666667,12 L25.3333333,12 L25.3333333,26.6666667 Z" id="Shape" fill="#000000" fill-rule="nonzero"></path>
            </g>
        </g>
    </g>
</svg>
