<?xml version="1.0" encoding="UTF-8"?>
<svg width="32px" height="32px" viewBox="0 0 32 32" version="1.1" xmlns="http://www.w3.org/2000/svg" xmlns:xlink="http://www.w3.org/1999/xlink">
    <title>84F060EB-5032-4758-B6D4-98CCA3EF2292</title>
    <g id="T3883" stroke="none" stroke-width="1" fill="none" fill-rule="evenodd">
        <g id="slice" transform="translate(-239.000000, -173.000000)">
            <g id="ic_default_dollar_outline3" transform="translate(239.000000, 173.000000)">
                <rect id="Rectangle" x="0" y="0" width="32" height="32" opacity="0"></rect>
                <path d="M16.0028409,0.71875 C16.6987197,0.71875 17.2641585,1.27723 17.2753977,1.9704304 L17.27475,5.80875 L22.3664773,5.80965909 C23.0693851,5.80965909 23.6392045,6.3794785 23.6392045,7.08238636 C23.6392045,7.77826515 23.0807245,8.34370394 22.3875241,8.35494313 L17.27475,8.35475 L17.27475,14.71775 L19.1846591,14.71875 C22.3477445,14.7187501 24.9119317,17.2829374 24.9119317,20.4460227 C24.9119317,23.5774772 22.3987718,26.1219518 19.27937,26.1725282 L19.1846591,26.1732955 L17.27475,26.17275 L17.2755682,29.9914773 C17.2755682,30.6943851 16.7057488,31.2642045 16.0028409,31.2642045 C15.3069621,31.2642045 14.7415233,30.7057245 14.7302841,30.0125241 L14.72975,26.17275 L8.36647727,26.1732955 C7.66356941,26.1732955 7.09375,25.603476 7.09375,24.9005682 C7.09375,24.2046894 7.65223,23.6392506 8.3454304,23.6280114 L14.72975,23.62775 L14.72975,17.26375 L12.8210227,17.2642045 C9.65793734,17.2642045 7.09375,14.7000172 7.09375,11.5369318 C7.09375,8.40547729 9.60691001,5.86100273 12.7263118,5.81042638 L12.8210227,5.80965909 L14.72975,5.80875 L14.7301136,1.99147727 C14.7301136,1.28856941 15.299933,0.71875 16.0028409,0.71875 Z M17.27475,23.62775 L19.1846591,23.6278409 C20.9419287,23.6278409 22.3664772,22.2032924 22.3664772,20.4460227 C22.3664772,18.7063258 20.9702772,17.2927288 19.2372763,17.2646308 L17.27475,17.26375 L17.27475,23.62775 Z M14.72975,14.71775 L14.72975,8.35475 L12.8210227,8.35511364 C11.0637531,8.35511364 9.63920455,9.77966216 9.63920455,11.5369318 C9.63920455,13.2766288 11.0354046,14.6902258 12.7684055,14.7183237 L14.72975,14.71775 Z" id="Combined-Shape" fill="#000000" fill-rule="nonzero"></path>
            </g>
        </g>
    </g>
</svg>
