<?xml version="1.0" encoding="UTF-8"?>
<svg width="32px" height="32px" viewBox="0 0 32 32" version="1.1" xmlns="http://www.w3.org/2000/svg" xmlns:xlink="http://www.w3.org/1999/xlink">
    <title>774766A1-CC72-4E7E-A2BB-F7A7BB362E4E</title>
    <g id="T3883" stroke="none" stroke-width="1" fill="none" fill-rule="evenodd">
        <g id="slice" transform="translate(-239.000000, -49.000000)">
            <g id="ic_default_dollar_outline1" transform="translate(239.000000, 49.000000)">
                <rect id="Rectangle" x="0" y="0" width="31.9687805" height="31.9687805" opacity="0"></rect>
                <path d="M8.04179668,24.2434148 C4.72311758,22.1656039 2.51439454,18.4776854 2.51439454,14.2773073 C2.51439454,7.79323941 7.77885346,2.52878049 14.2629214,2.52878049 C18.2965822,2.52878049 21.8591831,4.56631071 23.9750369,7.6679218 C27.293716,9.74573268 29.502439,13.4336512 29.502439,17.6340293 C29.502439,24.1180972 24.2379801,29.3825561 17.7539122,29.3825561 C13.7269648,29.3825561 10.1699584,27.3517393 8.05298576,24.2590795 L8.04179668,24.2434148 Z M17.7539122,7.00440976 C23.6203433,7.00440976 28.3835317,11.7675982 28.3835317,17.6340293 C28.3835317,23.5004603 23.6203433,28.2636488 17.7539122,28.2636488 C11.8874811,28.2636488 7.12429268,23.5004603 7.12429268,17.6340293 C7.12429268,11.7675982 11.8874811,7.00440976 17.7539122,7.00440976 Z M18.3133659,23.7880195 L17.1709615,23.7880195 L17.1709615,22.8134512 C14.5493616,22.4755412 14.2629214,20.3753522 14.2629214,19.7431696 L15.4836492,19.7431696 C15.5116219,20.196327 15.6593177,21.7281111 17.925105,21.7281111 C18.5953305,21.7281111 19.1424762,21.5703452 19.5508773,21.259289 C19.9548029,20.9504706 20.1506117,20.5745177 20.1506117,20.1079333 C20.1506117,19.2206398 19.5766122,18.578387 17.8344735,18.1856506 C15.184901,17.5859163 14.5639074,16.6214181 14.5639074,15.3514583 C14.5639074,13.6630272 15.9323311,12.8719597 17.1709615,12.6593673 L17.1709615,11.480039 L18.3133659,11.480039 L18.3133659,12.61573 C21.100564,12.8339169 21.3288211,15.0941097 21.3288211,15.7162221 L20.1002608,15.7162221 C20.1002608,14.4171707 19.0731039,13.7402318 17.8669218,13.7402318 C16.6618587,13.7402318 15.7924677,14.3354905 15.7924677,15.3156533 C15.7924677,16.1895199 16.283668,16.6191803 18.0235689,17.0544353 C20.1259957,17.5836784 21.3791719,18.2863522 21.3791719,20.0542258 C21.3791719,22.0056002 19.6907408,22.731771 18.3133659,22.8436617 L18.3133659,23.7880195 L18.3133659,23.7880195 Z M21.5022517,6.49754474 C19.6045849,4.72967118 17.0590708,3.6476878 14.2629214,3.6476878 C8.3964903,3.6476878 3.63330185,8.41087625 3.63330185,14.2773073 C3.63330185,17.2233903 4.8338894,19.8908653 6.77295579,21.8176237 L6.76848016,21.8064347 C6.27616094,20.5096211 6.00538537,19.1031546 6.00538537,17.6340293 C6.00538537,11.1499614 11.2698443,5.88550244 17.7539122,5.88550244 C19.0641527,5.88550244 20.3251612,6.10033264 21.5022517,6.49754474 L21.5022517,6.49754474 Z" id="Shape" fill="#000000"></path>
            </g>
        </g>
    </g>
</svg>
