<?xml version="1.0" encoding="UTF-8"?>
<svg width="32px" height="32px" viewBox="0 0 32 32" version="1.1" xmlns="http://www.w3.org/2000/svg" xmlns:xlink="http://www.w3.org/1999/xlink">
    <title>CCD848CE-34DD-47B1-917C-AAE652F933FE</title>
    <g id="T3883" stroke="none" stroke-width="1" fill="none" fill-rule="evenodd">
        <g id="slice" transform="translate(-239.000000, -359.000000)">
            <g id="ic_default_dollar_fill2" transform="translate(239.000000, 359.000000)">
                <rect id="Rectangle" x="0" y="0" width="32" height="32" opacity="0" opacity="0"></rect>
                <path d="M15.9910656,2.28571429 C12.2028851,2.28571429 8.96268032,3.61395998 6.27045137,6.27045137 C3.61395998,8.96268032 2.28571429,12.2028851 2.28571429,15.9910656 C2.28571429,19.7911587 3.61395998,23.0194509 6.27045137,25.6759423 C8.96268032,28.3681712 12.2028851,29.7142857 15.9910656,29.7142857 C19.7792462,29.7142857 23.0075384,28.3681712 25.6759423,25.6759423 C28.3681712,23.0194509 29.7142857,19.7911587 29.7142857,15.9910656 C29.7142857,12.2028851 28.3681712,8.96268032 25.6759423,6.27045137 C23.0075384,3.61395998 19.7792462,2.28571429 15.9910656,2.28571429 Z M17.1428571,6.10714286 L17.1423169,7.95131539 C18.2161512,8.13712688 19.1479506,8.59313104 19.8689567,9.27674511 C20.768651,10.1297804 21.2755147,11.2852943 21.285562,12.4729301 L21.2857143,12.5089286 L19.0714286,12.5089286 C19.0714286,11.9192226 18.8152487,11.3290364 18.345441,10.8835933 C18.0277825,10.5824088 17.6240921,10.3548488 17.1431061,10.218327 L17.1429708,15.0352184 C18.2515476,15.216953 19.1958616,15.6736627 19.9160786,16.3683285 C20.8044718,17.2252041 21.2857143,18.3896307 21.2857143,19.5982143 C21.2857143,20.8039834 20.7819085,21.9740084 19.8750169,22.8344089 C19.1545473,23.5179441 18.2213125,23.9724465 17.1425874,24.1569767 L17.1428571,25.9285714 L14.9285714,25.9285714 L14.9278787,24.1628197 C13.8344405,23.9821674 12.8888926,23.5252736 12.1606974,22.8344089 C11.2628747,21.9826124 10.7601164,20.8273529 10.750151,19.6343764 L10.75,19.5982143 L12.9642857,19.5982143 C12.9642857,20.1959098 13.2180862,20.7853293 13.6847177,21.2280392 C14.0094317,21.536107 14.4264371,21.7667058 14.9272976,21.9010155 L14.9277492,17.0771603 C13.8040593,16.8985514 12.8470424,16.437658 12.1187898,15.7337472 C11.2316495,14.8762596 10.75,13.7123406 10.75,12.5089286 C10.75,11.3086689 11.2579755,10.138397 12.1667576,9.27674511 C12.8955247,8.5857725 13.8396476,8.12733624 14.9281234,7.94540904 L14.9285714,6.10714286 L17.1428571,6.10714286 Z M17.1438084,17.2955958 L17.1429955,21.891553 C17.6284955,21.7560097 18.0337842,21.5289899 18.3509966,21.2280392 C18.8176281,20.7853293 19.0714286,20.1959098 19.0714286,19.5982143 C19.0714286,18.9831014 18.828813,18.3960626 18.3788682,17.9620805 C18.0629823,17.6574013 17.6503982,17.4290486 17.1438084,17.2955958 Z M13.6902733,10.8835933 C13.2204656,11.3290364 12.9642857,11.9192226 12.9642857,12.5089286 C12.9642857,13.1189342 13.2073733,13.7063619 13.6576919,14.1416286 C13.981264,14.4543853 14.4053972,14.6870683 14.9271204,14.8197393 L14.9279637,10.2084939 C14.4313787,10.3437847 14.0156848,10.575058 13.6902733,10.8835933 Z" id="Shape" fill="#000000" fill-rule="nonzero"></path>
            </g>
        </g>
    </g>
</svg>
