<?xml version="1.0" encoding="UTF-8"?>
<svg width="32px" height="32px" viewBox="0 0 32 32" version="1.1" xmlns="http://www.w3.org/2000/svg" xmlns:xlink="http://www.w3.org/1999/xlink">
    <title>2013D61F-CD7D-4F7B-8E2E-ADC8993F30E7</title>
    <g id="T3883" stroke="none" stroke-width="1" fill="none" fill-rule="evenodd">
        <g id="slice" transform="translate(-239.000000, -111.000000)">
            <g id="ic_default_dollar_outline2" transform="translate(239.000000, 111.000000)">
                <rect id="Rectangle" x="0" y="0" width="32" height="32"></rect>
                <path d="M16,2.3625 C23.53125,2.3625 29.6375,8.46875 29.6375,16 C29.6375,23.53125 23.53125,29.6375 16,29.6375 C8.46875,29.6375 2.3625,23.53125 2.3625,16 C2.3625,8.46875 8.46875,2.3625 16,2.3625 Z M21.6860737,5.60482692 C16.3246323,2.70023407 9.63402688,4.34107132 6.22477316,9.39663296 C2.81551945,14.4521946 3.80192604,21.2700791 8.50425729,25.1520625 C13.2065885,29.0340459 20.0878957,28.7113087 24.40625,24.40625 C25.4923177,23.3233805 26.3578107,22.0399463 26.9546875,20.6271875 C29.327415,15.0100816 27.0475152,8.50941977 21.6860737,5.60482692 Z M17.1875,7.2090625 L17.1875,9.1096875 C18.3934375,9.306875 19.3125,9.94625 20.0875,10.7484375 L20.0875,10.7484375 L19.09125,12.020625 C18.6290625,11.4153125 17.9134375,10.958125 17.1875,10.78125 L17.1875,10.78125 L17.1875,15.1403125 C17.7734375,15.47 18.10875,15.706875 18.39,15.850625 C18.7925,16.056875 19.2278125,16.4340625 19.5246875,16.76 C19.9746875,17.25375 20.263125,17.8990625 20.2975,18.68625 C20.3403125,19.65875 20.0434375,20.939375 19.223125,21.7590625 C18.6785417,22.3030208 18,22.6663542 17.1875,22.8490625 L17.1875,22.8490625 L17.1875,24.7909375 L15.5625,24.7909375 L15.5625,22.9259375 L15.125,22.93125 C13.783125,22.71875 12.5784375,21.9184375 11.6984375,20.6215625 L11.6984375,20.6215625 L13.06875,19.579375 C13.34375,20.0525 13.5734375,20.346875 14.110625,20.7603125 C14.5640625,21.1096875 15.073125,21.245625 15.5625,21.279375 L15.5625,21.279375 L15.5625,16.1471875 C15.3021875,16.013125 15.0209375,15.8665625 14.715625,15.700625 C13.1303125,14.8384375 12.5221875,13.8934375 12.4775,12.8909375 C12.4275,11.7946875 12.759375,10.9184375 13.4275,10.174375 C13.875,9.6753125 14.46375,9.3603125 15.125,9.1934375 L15.125,9.1934375 L15.5625,9.1621875 L15.5625,7.2090625 L17.1875,7.2090625 Z M17.1875,16.99125 L17.1875,21.011875 C17.4221875,20.91 17.625,20.7809375 17.7659375,20.626875 C18.15625,20.1990625 18.4215625,19.6703125 18.4215625,19.056875 C18.4215625,18.6153125 18.415625,17.970625 17.821875,17.4375 C17.6258847,17.2678937 17.4133605,17.1183939 17.1875,16.99125 L17.1875,16.99125 Z M15.563125,10.8559375 C15.3365062,10.9274296 15.1247421,11.0394528 14.938125,11.1865625 C14.5390625,11.514375 14.1828125,12.095 14.321875,12.951875 C14.40625,13.473125 14.8284375,13.8378125 15.5625,14.264375 L15.5625,14.264375 Z" id="Combined-Shape" fill="#231815" fill-rule="nonzero"></path>
            </g>
        </g>
    </g>
</svg>