<?xml version="1.0" encoding="UTF-8"?>
<svg width="32px" height="32px" viewBox="0 0 32 32" version="1.1" xmlns="http://www.w3.org/2000/svg" xmlns:xlink="http://www.w3.org/1999/xlink">
    <title>A8AAA16B-5DA8-470E-9904-140520326F53</title>
    <g id="T3883" stroke="none" stroke-width="1" fill="none" fill-rule="evenodd">
        <g id="slice" transform="translate(-239.000000, -235.000000)">
            <g id="ic_default_dollar_outline4" transform="translate(239.000000, 235.000000)">
                <path d="M16.005,14.87 C15.1662175,14.87 14.48625,14.1900325 14.48625,13.35125 C14.48625,12.5124675 15.1662175,11.8325 16.005,11.8325 C16.8437825,11.8325 17.52375,12.5124675 17.52375,13.35125 C17.52375,13.9725703 18.0274297,14.47625 18.64875,14.47625 C19.2700703,14.47625 19.77375,13.9725703 19.77375,13.35125 C19.7717618,11.7037872 18.7017224,10.2478505 17.13,9.7540625 L17.13,8.84375 C17.13,8.22242966 16.6263203,7.71875 16.005,7.71875 C15.3836797,7.71875 14.88,8.22242966 14.88,8.84375 L14.88,9.75375 C13.1027385,10.3091595 11.9974763,12.0792601 12.2786036,13.9199408 C12.5597308,15.7606215 14.1429748,17.1201064 16.005,17.1196875 C16.8437825,17.1196875 17.52375,17.799655 17.52375,18.6384375 C17.52375,19.47722 16.8437825,20.1571875 16.005,20.1571875 C15.1662175,20.1571875 14.48625,19.47722 14.48625,18.6384375 C14.48625,18.0171172 13.9825703,17.5134375 13.36125,17.5134375 C12.7399297,17.5134375 12.23625,18.0171172 12.23625,18.6384375 C12.2381382,20.2859332 13.3082165,21.7419226 14.88,22.235625 L14.88,23.145625 C14.88,23.7669453 15.3836797,24.270625 16.005,24.270625 C16.6263203,24.270625 17.13,23.7669453 17.13,23.145625 L17.13,22.2359375 C18.9072615,21.680528 20.0125237,19.9104274 19.7313964,18.0697467 C19.4502692,16.229066 17.8670252,14.8695811 16.005,14.87 L16.005,14.87 Z" id="Path" fill="#231815" fill-rule="nonzero"></path>
                <path d="M16.005,5.37497487 C21.4367444,5.38387705 25.9789284,9.50534507 26.5140649,14.9106715 C27.0492015,20.315998 23.403336,25.2480969 18.0787755,26.3218665 C12.754215,27.3956361 7.48179133,24.2620308 5.88018497,19.0717723 C4.27857861,13.8815139 6.86841684,8.3217772 11.8721875,6.2084375 C13.1796796,5.65537406 14.5853503,5.37190158 16.005,5.37497487 M16.005,2.875 C8.759375,2.875 2.8853125,8.75 2.8853125,15.995 C2.8853125,23.24 8.7603125,29.1146875 16.005,29.1146875 C23.2496875,29.1146875 29.125,23.240625 29.125,15.995 C29.125,8.749375 23.25,2.875 16.005,2.875 Z" id="Shape" fill="#231815" fill-rule="nonzero"></path>
                <rect id="Rectangle" x="0" y="0" width="32" height="32"></rect>
            </g>
        </g>
    </g>
</svg>