<?xml version="1.0" encoding="UTF-8"?>
<svg width="32px" height="32px" viewBox="0 0 32 32" version="1.1" xmlns="http://www.w3.org/2000/svg" xmlns:xlink="http://www.w3.org/1999/xlink">
    <title>8BCB89AA-3D81-49FB-B4FB-EEE7B74E9A85</title>
    <g id="T3883" stroke="none" stroke-width="1" fill="none" fill-rule="evenodd">
        <g id="slice" transform="translate(-239.000000, -297.000000)">
            <g id="ic_default_dollar_fill1" transform="translate(239.000000, 297.000000)">
                <polygon id="Path" points="0 0 32 0 32 32 0 32"></polygon>
                <path d="M16,2.66666667 C23.364,2.66666667 29.3333333,8.636 29.3333333,16 C29.3333333,23.364 23.364,29.3333333 16,29.3333333 C8.636,29.3333333 2.66666667,23.364 2.66666667,16 C2.66666667,8.636 8.636,2.66666667 16,2.66666667 Z M17.0248186,9.05952381 L15.00089,9.05952381 L15.0006667,10.6015238 L14.6250595,10.6024985 L14.5720029,10.6029284 C12.8245278,10.631261 11.4166667,12.0566644 11.4166667,13.8108914 C11.4166667,15.5828378 12.8531131,17.0192843 14.6250595,17.0192843 L14.6250595,17.0192843 L17.4202364,17.0194429 C18.0653637,17.0299027 18.5851134,17.5561286 18.5851134,18.2037485 C18.5851134,18.8579101 18.0548107,19.3882128 17.4006491,19.3882128 L17.4006491,19.3882128 L12.428631,19.3882128 L12.428631,21.4121414 L15.0006667,21.4115238 L15.00089,22.9551161 L17.0248186,22.9551161 L17.0246667,21.4115238 L17.4537057,21.4117116 C19.2011808,21.3833789 20.6090419,19.9579755 20.6090419,18.2037485 C20.6090419,16.4318021 19.1725955,14.9953557 17.4006491,14.9953557 L17.4006491,14.9953557 L14.6054722,14.995197 C13.9603449,14.9847372 13.4405952,14.4585113 13.4405952,13.8108914 C13.4405952,13.1567298 13.970898,12.6264271 14.6250595,12.6264271 L14.6250595,12.6264271 L19.5970777,12.6264271 L19.5970777,10.6024985 L17.0246667,10.6015238 L17.0248186,9.05952381 Z" id="Combined-Shape" fill="#000000" fill-rule="nonzero"></path>
            </g>
        </g>
    </g>
</svg>