<?xml version="1.0" encoding="UTF-8"?>
<svg width="32px" height="32px" viewBox="0 0 32 32" version="1.1" xmlns="http://www.w3.org/2000/svg" xmlns:xlink="http://www.w3.org/1999/xlink">
    <title>D6267816-5002-4398-8714-FB63F2901BF5</title>
    <g id="T3883" stroke="none" stroke-width="1" fill="none" fill-rule="evenodd">
        <g id="slice" transform="translate(-395.000000, -111.000000)">
            <g id="ic_default_earth_outline2" transform="translate(395.000000, 111.000000)">
                <rect id="Rectangle" x="0" y="0" width="32" height="32"></rect>
                <path d="M16,2.3625 C8.46875,2.3625 2.3625,8.46875 2.3625,16 C2.3625,23.53125 8.46875,29.6375 16,29.6375 C23.53125,29.6375 29.6375,23.53125 29.6375,16 C29.6375,8.46875 23.53125,2.3625 16,2.3625 Z M24.40625,7.59375 C26.4255216,9.60686098 27.6504497,12.2810857 27.8559375,15.125 L22.3453125,15.125 C22.1378125,9.681875 20.016875,6.248125 18.2828125,4.330625 C20.6037798,4.78310952 22.7363351,5.91952912 24.40625,7.59375 L24.40625,7.59375 Z M16,27.459375 C15.2954568,26.8445516 14.666087,26.1485736 14.125,25.3859375 C13.333125,24.279375 12.7021875,23.0275 12.25,21.665 C11.76,20.1946875 11.478125,18.5865625 11.40625,16.875 L20.59375,16.875 C20.5221875,18.5884375 20.2403125,20.1975 19.75,21.6684375 C19.29875,23.03125 18.6678125,24.28125 17.875,25.38875 C17.3337261,26.1503908 16.7043641,26.8454162 16,27.459375 L16,27.459375 Z M11.40625,15.125 C11.4778125,13.411875 11.7596875,11.8028125 12.2484375,10.3315625 C12.7009375,8.969375 13.331875,7.7178125 14.1234375,6.6128125 C14.6645616,5.85076966 15.2939351,5.15541688 15.9984375,4.54125 C16.7028541,5.15562064 17.3322165,5.85106606 17.8734375,6.613125 C18.6653125,7.719375 19.29625,8.9709375 19.7484375,10.331875 C20.24,11.803125 20.521875,13.4121875 20.59375,15.125 L11.40625,15.125 Z M7.59375,7.59375 C9.26338685,5.91955094 11.3957708,4.7832155 13.7165625,4.3309375 C11.9828125,6.248125 9.8621875,9.6815625 9.65625,15.125 L4.1440625,15.125 C4.34955029,12.2810857 5.57447837,9.60686098 7.59375,7.59375 Z M7.59375,24.40625 C5.57447837,22.393139 4.34955029,19.7189143 4.1440625,16.875 L9.65625,16.875 C9.8640625,22.316875 11.9865625,25.75 13.720625,27.6696875 C11.3983554,27.2178697 9.26448495,26.0812784 7.59375,24.40625 L7.59375,24.40625 Z M24.40625,24.40625 C22.736913,26.0804675 20.6048854,27.2170047 18.284375,27.6696875 C20.0178125,25.7525 22.1384375,22.3190625 22.346875,16.875625 L27.8559375,16.875625 C27.6503026,19.7193193 26.4253855,22.3932981 24.40625,24.40625 L24.40625,24.40625 Z" id="Shape" fill="#231815" fill-rule="nonzero"></path>
            </g>
        </g>
    </g>
</svg>