<?xml version="1.0" encoding="UTF-8"?>
<svg width="32px" height="32px" viewBox="0 0 32 32" version="1.1" xmlns="http://www.w3.org/2000/svg" xmlns:xlink="http://www.w3.org/1999/xlink">
    <title>46544A63-E4EB-4F67-B0D8-7C0E0A14F0E9</title>
    <g id="T3883" stroke="none" stroke-width="1" fill="none" fill-rule="evenodd">
        <g id="slice" transform="translate(-395.000000, -297.000000)">
            <g id="ic_default_earth_fill1" transform="translate(395.000000, 297.000000)">
                <path d="M16,29.3333333 C8.636,29.3333333 2.66666667,23.364 2.66666667,16 C2.66666667,8.636 8.636,2.66666667 16,2.66666667 C23.364,2.66666667 29.3333333,8.636 29.3333333,16 C29.3333333,23.364 23.364,29.3333333 16,29.3333333 Z M24.4733333,21.2693333 L24.4733333,21.1293333 C24.4733333,19.9 24.4733333,19.3386667 23.604,18.8413333 C23.3245835,18.6829283 23.0375727,18.5383104 22.744,18.408 C22.2546667,18.1853333 21.9306667,18.04 21.4933333,17.4 C21.4411187,17.3240021 21.3895612,17.2475548 21.3386667,17.1706667 C20.8786667,16.4706667 20.5466667,15.9666667 19.2826667,16.1666667 C16.796,16.5613333 16.612,16.9986667 16.5026667,17.7373333 L16.4853333,17.8586667 C16.324,18.9386667 16.2946667,19.3013333 16.7453333,19.7746667 C18.432,21.544 19.4426667,22.82 19.7493333,23.5666667 C19.8986667,23.9306667 20.2826667,25.0333333 20.0186667,26.124 C21.6370991,25.4793573 23.0776899,24.4566339 24.22,23.1413333 C24.3666667,22.6426667 24.4733333,22.0213333 24.4733333,21.2693333 L24.4733333,21.2693333 Z M16,5.11066076 C12.9106667,5.11066076 10.12,6.39866667 8.13866667,8.46533333 C8.37466667,8.62933333 8.58,8.86 8.72133333,9.17733333 C8.99333333,9.78666667 8.99333333,10.4146667 8.99333333,10.9706667 C8.99333333,11.408 8.99333333,11.824 9.13333333,12.124 C9.32533333,12.5346667 10.1546667,12.7106667 10.8866667,12.8626667 C11.1493333,12.9186667 11.4186667,12.9746667 11.664,13.0426667 C12.3386667,13.2293333 12.8613333,13.836 13.2786667,14.3226667 C13.452,14.524 13.7093333,14.8213333 13.8386667,14.896 C13.9053333,14.848 14.12,14.6146667 14.2253333,14.232 C14.308,13.9386667 14.284,13.68 14.1653333,13.5386667 C13.4186667,12.6586667 13.46,10.9653333 13.6906667,10.34 C14.0533333,9.35466667 15.1866667,9.428 16.016,9.48133333 C16.3253333,9.50133333 16.616,9.52133333 16.8346667,9.49333333 C17.664,9.38933333 17.92,8.12666667 18.1,7.88 C18.4893333,7.34666667 19.6813333,6.54266667 20.42,6.04666667 C19.0286622,5.42799047 17.5226879,5.10907827 16,5.11066076 Z" id="Shape" fill="#000000" fill-rule="nonzero"></path>
            </g>
        </g>
    </g>
</svg>
