<?xml version="1.0" encoding="UTF-8"?>
<svg width="32px" height="32px" viewBox="0 0 32 32" version="1.1" xmlns="http://www.w3.org/2000/svg" xmlns:xlink="http://www.w3.org/1999/xlink">
    <title>DD763F39-A3BF-4B4E-82D9-2464BE85ACFA</title>
    <g id="T3883" stroke="none" stroke-width="1" fill="none" fill-rule="evenodd">
        <g id="slice" transform="translate(-395.000000, -173.000000)">
            <g id="ic_default_earth_outline3" transform="translate(395.000000, 173.000000)">
                <rect id="Rectangle" x="0" y="0" width="32" height="32"></rect>
                <path d="M16,2.25 C23.5939153,2.25 29.75,8.40608469 29.75,16 C29.75,23.5939153 23.5939153,29.75 16,29.75 C8.40608469,29.75 2.25,23.5939153 2.25,16 C2.25,8.40608469 8.40608469,2.25 16,2.25 Z M9.81267211,17.2507178 L4.81873826,17.2506989 C5.33535123,21.9213856 8.71130718,25.7301782 13.1572829,26.8877534 C11.2489973,24.019635 10.0930292,20.7044247 9.81267211,17.2507178 Z M27.1812617,17.2506989 L22.1873279,17.2507178 C21.9069708,20.7044247 20.7510027,24.019635 18.8428955,26.8876688 C23.2886928,25.7301782 26.6646488,21.9213856 27.1812617,17.2506989 Z M19.6779347,17.2508194 L12.3220653,17.2508194 C12.6324587,20.6016918 13.8828636,23.7960021 15.9259547,26.4654366 L15.9259547,26.4654366 L16,26.5614375 L16.0740453,26.4654366 C18.1171364,23.7960021 19.3675413,20.6016918 19.6779347,17.2508194 Z M13.1571045,5.11233118 L12.9201743,5.17677566 C8.59135114,6.40619432 5.32565128,10.1625547 4.81862734,14.7503043 L9.81259093,14.7502826 C10.092806,11.2962154 11.2488131,7.98064195 13.1571045,5.11233118 Z M16,5.43853125 L15.9259547,5.53456336 C13.8825585,8.20439655 12.6320852,11.3992622 12.3219263,14.7506818 L19.6780274,14.7501819 C19.3677904,11.3989445 18.1173399,8.20426381 16.0740453,5.53456336 L16.0740453,5.53456336 L16,5.43853125 Z M18.8427171,5.11224658 L18.8987551,5.19674661 C20.7737495,8.04560861 21.9099388,11.3300487 22.1874091,14.7502826 L27.1813727,14.7503043 C26.6651322,10.0791598 23.2890111,6.26990465 18.8427171,5.11224658 Z" id="Combined-Shape" fill="#000000" fill-rule="nonzero"></path>
            </g>
        </g>
    </g>
</svg>