<?xml version="1.0" encoding="UTF-8"?>
<svg width="32px" height="32px" viewBox="0 0 32 32" version="1.1" xmlns="http://www.w3.org/2000/svg" xmlns:xlink="http://www.w3.org/1999/xlink">
    <title>452EC953-8E74-45DE-A955-DA5C48DE9BC5</title>
    <g id="T3883" stroke="none" stroke-width="1" fill="none" fill-rule="evenodd">
        <g id="slice" transform="translate(-395.000000, -235.000000)">
            <g id="ic_default_earth_outline4" transform="translate(395.000000, 235.000000)">
                <rect id="Rectangle" x="0" y="0" width="32" height="32"></rect>
                <path d="M16,2.8690625 C8.7478125,2.8690625 2.8690625,8.7478125 2.8690625,16 C2.8690625,23.2521875 8.7478125,29.1309375 16,29.1309375 C23.2521875,29.1309375 29.1309375,23.2521875 29.1309375,16 C29.1309375,8.7478125 23.2521875,2.8690625 16,2.8690625 Z M23.5171875,8.4828125 C25.114426,10.0747687 26.1616327,12.1351329 26.50625,14.36375 C26.096875,14.53 25.49,14.7440625 24.66,14.9575 C23.6325,15.22125 22.5478125,15.4115625 21.4725,15.5478125 C21.3878125,10.8759375 19.9971875,7.6996875 18.6390625,5.6984375 C20.4861594,6.17139585 22.171629,7.13347262 23.518125,8.4834375 L23.5171875,8.4828125 Z M16.9934375,24.708125 C16.6968636,25.180361 16.365089,25.6295521 16.0009375,26.051875 C15.6364904,25.6294873 15.3043048,25.1803055 15.0071875,24.708125 C14.3634375,23.686875 13.8509375,22.530625 13.4803125,21.270625 C13.1745752,20.2111061 12.9699107,19.125003 12.8690625,18.026875 C13.8665625,18.0875 14.9102083,18.1179167 16,18.118125 C17.0897917,18.1183333 18.1334375,18.0879167 19.1309375,18.026875 C19.0304096,19.1260733 18.8257411,20.2132436 18.5196875,21.27375 C18.150625,22.53125 17.636875,23.6875 16.9934375,24.708125 Z M16,15.8665625 C15.0625,15.8665625 13.9559375,15.8409375 12.7759375,15.761875 C12.795,13.951875 13.03125,12.2590625 13.4803125,10.728125 C13.849375,9.46875 14.363125,8.3125 15.0065625,7.290625 C15.3033285,6.81828356 15.635423,6.36908364 16,5.946875 C16.3645235,6.36905107 16.6965165,6.81825494 16.993125,7.290625 C17.636875,8.31125 18.149375,9.4671875 18.5196875,10.728125 C18.96875,12.259375 19.205,13.95125 19.2240625,15.76125 C18.0440625,15.8409375 16.9375,15.8665625 16,15.8665625 Z M8.4828125,8.4828125 C9.82924834,7.13309264 11.5144468,6.17104735 13.36125,5.6978125 C12.0034375,7.6978125 10.613125,10.875 10.5284375,15.5471875 C9.4521875,15.4109375 8.3671875,15.220625 7.3409375,14.956875 C6.5109375,14.7440625 5.9034375,14.5303125 5.495,14.363125 C5.83961727,12.1345079 6.88682398,10.0741437 8.4840625,8.4821875 L8.4828125,8.4828125 Z M8.4828125,23.5171875 C6.66284366,21.7036217 5.56486528,19.2898465 5.39375,16.72625 C5.7375,16.8434375 6.135625,16.965625 6.591875,17.0871875 C7.7965625,17.4078125 9.1334375,17.654375 10.591875,17.825625 C10.89375,21.755 12.1415625,24.5034375 13.3625,26.3028125 C11.5147291,25.8298284 9.82860926,24.8675342 8.4815625,23.5171875 L8.4828125,23.5171875 Z M23.5171875,23.5171875 C22.1709416,24.8670902 20.4856598,25.8290751 18.63875,26.301875 C19.8575,24.5034375 21.105625,21.755625 21.406875,17.8253125 C22.86625,17.6540625 24.2028125,17.4078125 25.406875,17.0871875 C25.8634375,16.965625 26.26125,16.8434375 26.605625,16.72625 C26.4345097,19.2898465 25.3365313,21.7036217 23.5165625,23.5171875 L23.5171875,23.5171875 Z" id="Shape" fill="#231815" fill-rule="nonzero"></path>
            </g>
        </g>
    </g>
</svg>