<?xml version="1.0" encoding="UTF-8"?>
<svg width="32px" height="32px" viewBox="0 0 32 32" version="1.1" xmlns="http://www.w3.org/2000/svg" xmlns:xlink="http://www.w3.org/1999/xlink">
    <title>7DC6C961-0D2E-4F8F-8A86-1EA72645CDCB</title>
    <g id="T3883" stroke="none" stroke-width="1" fill="none" fill-rule="evenodd">
        <g id="slice" transform="translate(-395.000000, -359.000000)">
            <g id="ic_default_earth_fill2" transform="translate(395.000000, 359.000000)">
                <rect id="Rectangle" x="0" y="0" width="32" height="32"></rect>
                <path d="M3.72806318,9.74877419 L8.46811427,13.1242057 L13.9641936,11.0037538 L15.4349383,16.7112131 L22.4425399,24.0837215 L27.4449137,15.6203717 L29.7142857,15.93925 L29.7142857,15.9910656 C29.7142857,19.7531577 28.3949589,22.9548279 25.7563053,25.596076 L25.6759423,25.6759423 C23.0075384,28.3681712 19.7792462,29.7142857 15.9910656,29.7142857 C15.3510868,29.7142857 14.7267478,29.6758662 14.1180486,29.5990272 L16.1556141,23.4630057 L9.9817992,22.9653571 L7.44276105,17.5324696 L3.05449447,20.6675623 C2.54197435,19.2190483 2.28571429,17.6602161 2.28571429,15.9910656 C2.28571429,13.7119519 2.76649725,11.6311881 3.72806318,9.74877419 Z M6.45044206,21.3138571 L8.3323001,25.3404944 L12.7788706,25.6989286 L11.6647334,29.0540664 C9.67220908,28.4056474 7.87411507,27.279606 6.27045137,25.6759423 C5.4250602,24.8305511 4.71418598,23.9272513 4.13782871,22.9660429 L6.45044206,21.3138571 Z M15.9910656,2.28571429 C19.7792462,2.28571429 23.0075384,3.61395998 25.6759423,6.27045137 C27.7282268,8.32273586 28.9982837,10.6934493 29.4861129,13.3825917 L26.1413548,12.9125667 L21.974404,19.9624955 L17.6939544,15.4591602 L15.6843607,7.66048301 L8.82284776,10.3077288 L5.07234875,7.63702227 C5.43610401,7.16680658 5.83547155,6.71128294 6.27045137,6.27045137 C8.96268032,3.61395998 12.2028851,2.28571429 15.9910656,2.28571429 Z" id="Shape" fill="#000000"></path>
            </g>
        </g>
    </g>
</svg>