<?xml version="1.0" encoding="UTF-8"?>
<svg width="32px" height="32px" viewBox="0 0 32 32" version="1.1" xmlns="http://www.w3.org/2000/svg" xmlns:xlink="http://www.w3.org/1999/xlink">
    <title>54428EFC-21A8-409A-B14F-6CC7BBFB3F4A</title>
    <g id="T3883" stroke="none" stroke-width="1" fill="none" fill-rule="evenodd">
        <g id="slice" transform="translate(-395.000000, -49.000000)">
            <g id="ic_default_earth_outline1" transform="translate(395.000000, 49.000000)">
                <path d="M16.0077008,1.99804878 C23.716506,2.01086959 29.9707317,8.27208846 29.9707317,15.9843902 C29.9707317,23.7036852 23.7048507,29.9707317 15.9843902,29.9707317 C8.26509528,29.9707317 1.99804878,23.7036852 1.99804878,15.9843902 C1.99804878,8.27208846 8.25344,2.01086959 15.9622452,1.99804878 L16.0077008,1.99804878 Z M20.3131629,20.6465041 L11.6567831,20.6465041 C12.4015558,25.6186485 14.2698979,28.8052033 15.9843902,28.8052033 C17.7000481,28.8052033 19.5683902,25.6186485 20.3131629,20.6465041 M27.9298914,20.6465041 L21.4926777,20.6465041 C20.9961626,24.1256065 19.9530146,26.9426888 18.5963395,28.5382972 C22.8726634,27.6524956 26.3715798,24.6337769 27.9298914,20.6465041 M10.4772683,20.6465041 L4.03888911,20.6465041 C5.59836618,24.6337769 9.0972826,27.6524956 13.3736065,28.5382972 C12.0169314,26.9426888 10.9737834,24.1256065 10.4772683,20.6465041 M10.3339083,12.4878049 L3.64843707,12.4878049 C3.26264715,13.8468111 2.78478049,16.4377808 3.64843707,19.4809756 L10.3339083,19.4809756 C10.1147889,17.366707 10.0833197,14.9062764 10.3339083,12.4878049 M20.4635161,12.4878049 L11.5064299,12.4878049 C11.2791519,14.5857561 11.244186,17.0648351 11.5064299,19.4809756 L20.4635161,19.4809756 C20.6919597,17.3702036 20.7245945,14.9004488 20.4635161,12.4878049 M28.3215089,12.4878049 L21.6360377,12.4878049 C21.7083005,13.1777977 21.9950205,16.0065353 21.6360377,19.4809756 L28.3215089,19.4809756 C29.1851655,16.4366153 28.7072989,13.8456455 28.3215089,12.4878049 M13.3736065,3.43048325 C9.0972826,4.31628488 5.59836618,7.33500358 4.03888911,11.3222764 L10.4772683,11.3222764 C10.9737834,7.84317398 12.0169314,5.02492618 13.3736065,3.43048325 M20.3131629,11.3222764 C19.5683902,6.35013203 17.7000481,3.16357724 15.9843902,3.16357724 C14.2698979,3.16357724 12.4015558,6.35013203 11.6567831,11.3222764 L20.3131629,11.3222764 Z M18.5963395,3.43048325 C19.9530146,5.02492618 20.9961626,7.84317398 21.4926777,11.3222764 L27.9298914,11.3222764 C26.3715798,7.33500358 22.8726634,4.31628488 18.5963395,3.43048325" id="Shape" fill="#000000"></path>
                <rect id="Rectangle" x="0" y="0" width="31.9687805" height="31.9687805"></rect>
            </g>
        </g>
    </g>
</svg>