<?xml version="1.0" encoding="UTF-8"?>
<svg width="32px" height="32px" viewBox="0 0 32 32" version="1.1" xmlns="http://www.w3.org/2000/svg" xmlns:xlink="http://www.w3.org/1999/xlink">
    <title>6C316970-4954-45A9-9431-35BFF61F2645</title>
    <g id="T3883" stroke="none" stroke-width="1" fill="none" fill-rule="evenodd">
        <g id="slice" transform="translate(-625.000000, -543.000000)">
            <g id="event_note" transform="translate(625.000000, 543.000000)">
                <polygon id="Path" points="0 0 32 0 32 32 0 32"></polygon>
                <path d="M22.6666667,13.3333333 L9.33333333,13.3333333 L9.33333333,16 L22.6666667,16 L22.6666667,13.3333333 Z M25.3333333,4 L24,4 L24,1.33333333 L21.3333333,1.33333333 L21.3333333,4 L10.6666667,4 L10.6666667,1.33333333 L8,1.33333333 L8,4 L6.66666667,4 C5.18666667,4 4.01333333,5.2 4.01333333,6.66666667 L4,25.3333333 C4,26.8 5.18666667,28 6.66666667,28 L25.3333333,28 C26.8,28 28,26.8 28,25.3333333 L28,6.66666667 C28,5.2 26.8,4 25.3333333,4 Z M25.3333333,25.3333333 L6.66666667,25.3333333 L6.66666667,10.6666667 L25.3333333,10.6666667 L25.3333333,25.3333333 Z M18.6666667,18.6666667 L9.33333333,18.6666667 L9.33333333,21.3333333 L18.6666667,21.3333333 L18.6666667,18.6666667 Z" id="Shape" fill="#000000" fill-rule="nonzero"></path>
            </g>
        </g>
    </g>
</svg>