<?xml version="1.0" encoding="UTF-8"?>
<svg width="32px" height="32px" viewBox="0 0 32 32" version="1.1" xmlns="http://www.w3.org/2000/svg" xmlns:xlink="http://www.w3.org/1999/xlink">
    <title>B0141A9B-3479-40E3-A933-170C14FEA619</title>
    <g id="T3883" stroke="none" stroke-width="1" fill="none" fill-rule="evenodd">
        <g id="slice" transform="translate(-677.000000, -439.000000)">
            <g id="favorite_border" transform="translate(677.000000, 439.000000)">
                <path d="M22,4 C19.68,4 17.4533333,5.08 16,6.78666667 C14.5466667,5.08 12.32,4 10,4 C5.89333333,4 2.66666667,7.22666667 2.66666667,11.3333333 C2.66666667,16.3733333 7.2,20.48 14.0666667,26.72 L16,28.4666667 L17.9333333,26.7066667 C24.8,20.48 29.3333333,16.3733333 29.3333333,11.3333333 C29.3333333,7.22666667 26.1066667,4 22,4 Z M16.1333333,24.7333333 L16,24.8666667 L15.8666667,24.7333333 C9.52,18.9866667 5.33333333,15.1866667 5.33333333,11.3333333 C5.33333333,8.66666667 7.33333333,6.66666667 10,6.66666667 C12.0533333,6.66666667 14.0533333,7.98666667 14.76,9.81333333 L17.2533333,9.81333333 C17.9466667,7.98666667 19.9466667,6.66666667 22,6.66666667 C24.6666667,6.66666667 26.6666667,8.66666667 26.6666667,11.3333333 C26.6666667,15.1866667 22.48,18.9866667 16.1333333,24.7333333 Z" id="Shape" fill="#000000" fill-rule="nonzero"></path>
            </g>
        </g>
    </g>
</svg>
