<?xml version="1.0" encoding="UTF-8"?>
<svg width="32px" height="32px" viewBox="0 0 32 32" version="1.1" xmlns="http://www.w3.org/2000/svg" xmlns:xlink="http://www.w3.org/1999/xlink">
    <title>4B9A85EA-CC24-4FEC-B9EA-9513ED214597</title>
    <g id="T3883" stroke="none" stroke-width="1" fill="none" fill-rule="evenodd">
        <g id="slice" transform="translate(-343.000000, -173.000000)">
            <g id="ic_default_flag_outline3" transform="translate(343.000000, 173.000000)">
                <rect id="Rectangle" x="0" y="0" width="32" height="32"></rect>
                <path d="M5.03125,4.7234375 C5.03125,4.39067369 5.16343991,4.07153901 5.39873946,3.83623946 C5.49572646,3.73925246 5.64294834,3.61801091 5.8448205,3.48342947 C6.137564,3.28826714 6.49399733,3.10067065 6.91780982,2.93114565 C8.05056125,2.47804508 9.50246544,2.2140625 11.3046875,2.2140625 C12.3029622,2.2140625 13.2644693,2.36531081 14.2763786,2.65442777 C14.9727589,2.85339356 15.5062182,3.04743393 16.5775181,3.47391917 L16.5775181,3.47391917 L17.0504506,3.66259553 C17.9865708,4.03465664 18.4581782,4.20611174 19.0221347,4.36878884 L19.0221347,4.36878884 L19.1042264,4.39219794 C19.8865904,4.61229821 20.6067381,4.7234375 21.3421875,4.7234375 C22.8335201,4.7234375 23.9694089,4.51691227 24.7971067,4.18583315 C25.0594514,4.08089526 25.2617461,3.97442437 25.4101037,3.87551932 L25.4101037,3.87551932 L25.419571,3.86916735 C25.450451,3.8483135 25.4745648,3.83066991 25.492231,3.81673243 L25.492231,3.81673243 L25.5020595,3.80881864 L25.521822,3.79042883 C26.3095461,3.0758128 27.5891883,3.6167007 27.6152215,4.69007148 L27.6152215,4.69007148 L27.615625,4.7234375 L27.615625,19.7796875 C27.615625,20.1124513 27.4834351,20.431586 27.2481355,20.6668855 C27.1511485,20.7638725 27.0039267,20.8851141 26.8020545,21.0196955 C26.509311,21.2148579 26.1528777,21.4024544 25.7290652,21.5719793 C24.5963137,22.0250799 23.1444096,22.2890625 21.3421875,22.2890625 C20.3439128,22.2890625 19.3824057,22.1378142 18.3704964,21.8486972 C17.6889327,21.6539648 17.1634309,21.4639503 16.1370141,21.0561149 L16.1370141,21.0561149 L15.5964244,20.8405295 C14.6603042,20.4684684 14.1886968,20.2970133 13.6247403,20.1343362 L13.6247403,20.1343362 L13.5426486,20.1109271 C12.7602846,19.8908268 12.0401369,19.7796875 11.3046875,19.7796875 C9.83831148,19.7796875 8.71412499,19.9796336 7.88773504,20.3022878 C7.75811059,20.3528981 7.64227437,20.404156 7.5395646,20.4550762 L7.540625,28.5625 C7.540625,29.2554448 6.97888227,29.8171875 6.2859375,29.8171875 C5.59992218,29.8171875 5.04249797,29.2666235 5.03141809,28.5832486 Z M11.3046875,4.7234375 C9.81335487,4.7234375 8.67746609,4.92996273 7.8497683,5.26104185 C7.74319075,5.30367287 7.64652381,5.34655689 7.55935761,5.38908387 L7.55935761,5.38908387 L7.540625,5.39828125 L7.540625,17.7678125 L7.57599794,17.756962 C8.58554597,17.4496894 9.80536504,17.2745642 11.2516727,17.2703889 L11.2516727,17.2703889 L11.3046875,17.2703125 C12.3029622,17.2703125 13.2644693,17.4215608 14.2763786,17.7106778 C14.9579423,17.9054102 15.4834441,18.0954247 16.5098609,18.5032601 L16.5098609,18.5032601 L17.0504506,18.7188455 C17.9865708,19.0909066 18.4581782,19.2623617 19.0221347,19.4250388 L19.0221347,19.4250388 L19.1042264,19.4484479 C19.8865904,19.6685482 20.6067381,19.7796875 21.3421875,19.7796875 C22.8335201,19.7796875 23.9694089,19.5731623 24.7971067,19.2420832 C24.9036842,19.1994521 25.0003512,19.1565681 25.0875174,19.1140411 L25.0875174,19.1140411 L25.10625,19.1048125 L25.10625,6.735375 L25.0531196,6.75164305 C24.0481181,7.05531164 22.8344706,7.22850934 21.3961491,7.23273338 L21.3961491,7.23273338 L21.3421875,7.2328125 C20.3439128,7.2328125 19.3824057,7.08156419 18.3704964,6.79244723 C17.6889327,6.59771476 17.1634309,6.40770034 16.1370141,5.9998649 L16.1370141,5.9998649 L15.5964244,5.78427947 C14.6603042,5.41221836 14.1886968,5.24076326 13.6247403,5.07808616 L13.6247403,5.07808616 L13.5426486,5.05467706 C12.7602846,4.83457679 12.0401369,4.7234375 11.3046875,4.7234375 Z" id="Combined-Shape" fill="#000000" fill-rule="nonzero"></path>
            </g>
        </g>
    </g>
</svg>