<?xml version="1.0" encoding="UTF-8"?>
<svg width="32px" height="32px" viewBox="0 0 32 32" version="1.1" xmlns="http://www.w3.org/2000/svg" xmlns:xlink="http://www.w3.org/1999/xlink">
    <title>B8D99A26-AFE2-4746-8C6E-60E811F91766</title>
    <g id="T3883" stroke="none" stroke-width="1" fill="none" fill-rule="evenodd">
        <g id="slice" transform="translate(-31.000000, -815.000000)">
            <g id="forum" transform="translate(31.000000, 815.000000)">
                <path d="M28,8 L25.3333333,8 L25.3333333,20 L8,20 L8,22.6666667 C8,23.4 8.6,24 9.33333333,24 L24,24 L29.3333333,29.3333333 L29.3333333,9.33333333 C29.3333333,8.6 28.7333333,8 28,8 Z M22.6666667,16 L22.6666667,4 C22.6666667,3.26666667 22.0666667,2.66666667 21.3333333,2.66666667 L4,2.66666667 C3.26666667,2.66666667 2.66666667,3.26666667 2.66666667,4 L2.66666667,22.6666667 L8,17.3333333 L21.3333333,17.3333333 C22.0666667,17.3333333 22.6666667,16.7333333 22.6666667,16 Z" id="Shape" fill="#000000" fill-rule="nonzero"></path>
            </g>
        </g>
    </g>
</svg>
