<?xml version="1.0" encoding="UTF-8"?>
<svg width="32px" height="32px" viewBox="0 0 32 32" version="1.1" xmlns="http://www.w3.org/2000/svg" xmlns:xlink="http://www.w3.org/1999/xlink">
    <title>8F6698C8-6843-495D-ACDE-E246E8588ABB</title>
    <g id="T3883" stroke="none" stroke-width="1" fill="none" fill-rule="evenodd">
        <g id="slice" transform="translate(-29.000000, -543.000000)">
            <g id="group_add" transform="translate(29.000000, 543.000000)">
                <polygon id="Path" points="0 0 32 0 32 32 0 32"></polygon>
                <path d="M10.6666667,13.3333333 L6.66666667,13.3333333 L6.66666667,9.33333333 L4,9.33333333 L4,13.3333333 L0,13.3333333 L0,16 L4,16 L4,20 L6.66666667,20 L6.66666667,16 L10.6666667,16 L10.6666667,13.3333333 Z M24,14.6666667 C26.2133333,14.6666667 27.9866667,12.88 27.9866667,10.6666667 C27.9866667,8.45333333 26.2133333,6.66666667 24,6.66666667 C23.5733333,6.66666667 23.16,6.73333333 22.7866667,6.85333333 C23.5466667,7.93333333 23.9866667,9.24 23.9866667,10.6666667 C23.9866667,12.0933333 23.5333333,13.3866667 22.7866667,14.48 C23.16,14.6 23.5733333,14.6666667 24,14.6666667 Z M17.3333333,14.6666667 C19.5466667,14.6666667 21.32,12.88 21.32,10.6666667 C21.32,8.45333333 19.5466667,6.66666667 17.3333333,6.66666667 C15.12,6.66666667 13.3333333,8.45333333 13.3333333,10.6666667 C13.3333333,12.88 15.12,14.6666667 17.3333333,14.6666667 Z M26.16,17.5466667 C27.2666667,18.52 28,19.76 28,21.3333333 L28,24 L32,24 L32,21.3333333 C32,19.28 28.84,18.0133333 26.16,17.5466667 Z M17.3333333,17.3333333 C14.6666667,17.3333333 9.33333333,18.6666667 9.33333333,21.3333333 L9.33333333,24 L25.3333333,24 L25.3333333,21.3333333 C25.3333333,18.6666667 20,17.3333333 17.3333333,17.3333333 Z" id="Shape" fill="#000000" fill-rule="nonzero"></path>
            </g>
        </g>
    </g>
</svg>