<?xml version="1.0" encoding="UTF-8"?>
<svg width="32px" height="32px" viewBox="0 0 32 32" version="1.1" xmlns="http://www.w3.org/2000/svg" xmlns:xlink="http://www.w3.org/1999/xlink">
    <title>EFC8B2F4-1313-41EB-884A-A5B3E3A9C935</title>
    <g id="T3883" stroke="none" stroke-width="1" fill="none" fill-rule="evenodd">
        <g id="slice" transform="translate(-497.000000, -439.000000)">
            <g id="headset_mic" transform="translate(497.000000, 439.000000)">
                <polygon id="Path" opacity="0.1" points="0 0 32 0 32 32 0 32"></polygon>
                <path d="M16,1.33333333 C9.37333333,1.33333333 4,6.70666667 4,13.3333333 L4,22.6666667 C4,24.88 5.78666667,26.6666667 8,26.6666667 L12,26.6666667 L12,16 L6.66666667,16 L6.66666667,13.3333333 C6.66666667,8.17333333 10.84,4 16,4 C21.16,4 25.3333333,8.17333333 25.3333333,13.3333333 L25.3333333,16 L20,16 L20,26.6666667 L25.3333333,26.6666667 L25.3333333,28 L16,28 L16,30.6666667 L24,30.6666667 C26.2133333,30.6666667 28,28.88 28,26.6666667 L28,13.3333333 C28,6.70666667 22.6266667,1.33333333 16,1.33333333 Z" id="Path" fill="#000000" fill-rule="nonzero"></path>
            </g>
        </g>
    </g>
</svg>