<?xml version="1.0" encoding="UTF-8"?>
<svg width="32px" height="32px" viewBox="0 0 32 32" version="1.1" xmlns="http://www.w3.org/2000/svg" xmlns:xlink="http://www.w3.org/1999/xlink">
    <title>FBE5E7D5-1CD6-4656-8BCF-3ECB1FC16370</title>
    <g id="T3883" stroke="none" stroke-width="1" fill="none" fill-rule="evenodd">
        <g id="slice" transform="translate(-265.000000, -491.000000)">
            <g id="help" transform="translate(265.000000, 491.000000)">
                <path d="M16,2.66666667 C8.64,2.66666667 2.66666667,8.64 2.66666667,16 C2.66666667,23.36 8.64,29.3333333 16,29.3333333 C23.36,29.3333333 29.3333333,23.36 29.3333333,16 C29.3333333,8.64 23.36,2.66666667 16,2.66666667 Z M17.3333333,25.3333333 L14.6666667,25.3333333 L14.6666667,22.6666667 L17.3333333,22.6666667 L17.3333333,25.3333333 Z M20.0933333,15 L18.8933333,16.2266667 C17.9333333,17.2 17.3333333,18 17.3333333,20 L14.6666667,20 L14.6666667,19.3333333 C14.6666667,17.8666667 15.2666667,16.5333333 16.2266667,15.56 L17.88,13.88 C18.3733333,13.4 18.6666667,12.7333333 18.6666667,12 C18.6666667,10.5333333 17.4666667,9.33333333 16,9.33333333 C14.5333333,9.33333333 13.3333333,10.5333333 13.3333333,12 L10.6666667,12 C10.6666667,9.05333333 13.0533333,6.66666667 16,6.66666667 C18.9466667,6.66666667 21.3333333,9.05333333 21.3333333,12 C21.3333333,13.1733333 20.8533333,14.24 20.0933333,15 Z" id="Shape" fill="#000000" fill-rule="nonzero"></path>
            </g>
        </g>
    </g>
</svg>
