<?xml version="1.0" encoding="UTF-8"?>
<svg width="32px" height="32px" viewBox="0 0 32 32" version="1.1" xmlns="http://www.w3.org/2000/svg" xmlns:xlink="http://www.w3.org/1999/xlink">
    <title>52A4A71F-68DD-404C-821B-0C2F404C5FC5</title>
    <g id="T3883" stroke="none" stroke-width="1" fill="none" fill-rule="evenodd">
        <g id="slice" transform="translate(-113.000000, -892.000000)">
            <g id="help_outline" transform="translate(113.000000, 892.000000)">
                <polygon id="Path" points="0 0 32 0 32 32 0 32"></polygon>
                <path d="M14.6666667,24 L17.3333333,24 L17.3333333,21.3333333 L14.6666667,21.3333333 L14.6666667,24 Z M16,2.66666667 C8.64,2.66666667 2.66666667,8.64 2.66666667,16 C2.66666667,23.36 8.64,29.3333333 16,29.3333333 C23.36,29.3333333 29.3333333,23.36 29.3333333,16 C29.3333333,8.64 23.36,2.66666667 16,2.66666667 Z M16,26.6666667 C10.12,26.6666667 5.33333333,21.88 5.33333333,16 C5.33333333,10.12 10.12,5.33333333 16,5.33333333 C21.88,5.33333333 26.6666667,10.12 26.6666667,16 C26.6666667,21.88 21.88,26.6666667 16,26.6666667 Z M16,8 C13.0533333,8 10.6666667,10.3866667 10.6666667,13.3333333 L13.3333333,13.3333333 C13.3333333,11.8666667 14.5333333,10.6666667 16,10.6666667 C17.4666667,10.6666667 18.6666667,11.8666667 18.6666667,13.3333333 C18.6666667,16 14.6666667,15.6666667 14.6666667,20 L17.3333333,20 C17.3333333,17 21.3333333,16.6666667 21.3333333,13.3333333 C21.3333333,10.3866667 18.9466667,8 16,8 Z" id="Shape" fill="#000000" fill-rule="nonzero"></path>
            </g>
        </g>
    </g>
</svg>