<?xml version="1.0" encoding="UTF-8"?>
<svg width="32px" height="32px" viewBox="0 0 32 32" version="1.1" xmlns="http://www.w3.org/2000/svg" xmlns:xlink="http://www.w3.org/1999/xlink">
    <title>646A23D7-D55F-4C6D-90F4-0D8CE808A36F</title>
    <g id="T3883" stroke="none" stroke-width="1" fill="none" fill-rule="evenodd">
        <g id="slice" transform="translate(-31.000000, -297.000000)">
            <g id="ic_default_home_fill1" transform="translate(31.000000, 297.000000)">
                <polygon id="Path" points="0 0 32 0 32 32 0 32"></polygon>
                <path d="M26.6666667,27.0866989 C26.6666667,27.8230786 26.069713,28.4200322 25.3333333,28.4200322 L6.66666667,28.4200322 C5.930287,28.4200322 5.33333333,27.8230786 5.33333333,27.0866989 L5.33333333,15.0866989 L1.33333333,15.0866989 L15.1026667,2.56936558 C15.611358,2.10650777 16.388642,2.10650777 16.8973333,2.56936558 L30.6666667,15.0866989 L26.6666667,15.0866989 L26.6666667,27.0866989 Z M16,19.3724132 C17.2623651,19.3724132 18.2857143,18.3490641 18.2857143,17.0866989 C18.2857143,15.8243338 17.2623651,14.8009846 16,14.8009846 C14.7376349,14.8009846 13.7142857,15.8243338 13.7142857,17.0866989 C13.7142857,18.3490641 14.7376349,19.3724132 16,19.3724132 Z" id="Shape" fill="#000000" fill-rule="nonzero"></path>
            </g>
        </g>
    </g>
</svg>