<?xml version="1.0" encoding="UTF-8"?>
<svg width="32px" height="32px" viewBox="0 0 32 32" version="1.1" xmlns="http://www.w3.org/2000/svg" xmlns:xlink="http://www.w3.org/1999/xlink">
    <title>686939E0-6B36-42D6-8932-BE9AC1E5AD99</title>
    <g id="T3883" stroke="none" stroke-width="1" fill="none" fill-rule="evenodd">
        <g id="slice" transform="translate(-31.000000, -173.000000)">
            <g id="ic_default_home_outline3" transform="translate(31.000000, 173.000000)">
                <rect id="Rectangle" x="0" y="0" width="32" height="32" opacity="0"></rect>
                <path d="M7.25,29.75 C5.17893219,29.75 3.5,28.0710678 3.5,26 L3.5,26 L3.5,12.25 C3.5,11.864262 3.67809105,11.50013 3.98257423,11.2633097 L3.98257423,11.2633097 L15.2325742,2.51330973 C15.6839623,2.16223009 16.3160377,2.16223009 16.7674258,2.51330973 L16.7674258,2.51330973 L28.0174258,11.2633097 C28.3219089,11.50013 28.5,11.864262 28.5,12.25 L28.5,12.25 L28.5,26 C28.5,28.0710678 26.8210678,29.75 24.75,29.75 L24.75,29.75 Z M16,5.0835625 L5.99996875,12.861375 L5.99996875,26 C5.99996875,26.6834524 6.54850715,27.238794 7.22932896,27.25 L7.22932896,27.25 L11,27.25 L11,16 C11,15.3165476 11.5485071,14.761206 12.229329,14.7501675 L19.75,14.75 C20.4334524,14.75 20.988794,15.2985071 20.9998325,15.979329 L21,16 L21,27.25 L24.75,27.25 C25.3972087,27.25 25.9295339,26.7581253 25.9935464,26.1278052 L26,26 L26,12.861375 L16,5.0835625 Z M18.5,17.25 L13.5,17.25 L13.5,27.25 L18.5,27.25 L18.5,17.25 Z" id="Combined-Shape" fill="#000000" fill-rule="nonzero"></path>
            </g>
        </g>
    </g>
</svg>
