<?xml version="1.0" encoding="UTF-8"?>
<svg width="32px" height="32px" viewBox="0 0 32 32" version="1.1" xmlns="http://www.w3.org/2000/svg" xmlns:xlink="http://www.w3.org/1999/xlink">
    <title>D90000B4-6A43-4715-9603-93D4756F5503</title>
    <g id="T3883" stroke="none" stroke-width="1" fill="none" fill-rule="evenodd">
        <g id="slice" transform="translate(-31.000000, -235.000000)">
            <g id="ic_default_home_outline4" transform="translate(31.000000, 235.000000)">
                <path d="M27.2253125,12.2896875 L17.9440625,4.7846875 C16.8121331,3.86428726 15.1897419,3.86428726 14.0578125,4.7846875 L14.0578125,4.7846875 L4.7765625,12.2896875 C4.02115648,12.9015332 3.58433984,13.8232163 3.5890246,14.7953125 L3.5890246,24.7096875 C3.588125,26.471875 4.9921875,27.90625 6.71875,27.90625 L25.28125,27.90625 C27.006875,27.90625 28.4109831,26.4725 28.4109831,24.7103125 L28.4109831,14.7953125 C28.4161177,13.8235307 27.980017,12.9019031 27.2253125,12.2896875 Z M18.0896875,25.40625 L13.9103125,25.40625 L13.9103125,21.3125 C13.9103125,20.8982864 14.2460989,20.5625 14.6603125,20.5625 L17.3396875,20.5625 C17.7539011,20.5625 18.0896875,20.8982864 18.0896875,21.3125 L18.0896875,25.40625 Z M25.911875,24.7103125 C25.911875,25.0940625 25.630625,25.40625 25.2821875,25.40625 L20.5896875,25.40625 L20.5896875,21.3125 C20.5877929,19.5183599 19.1338276,18.0643946 17.3396875,18.0625 L14.6603125,18.0625 C12.8661724,18.0643946 11.4122071,19.5183599 11.4103125,21.3125 L11.4103125,25.40625 L6.71875,25.40625 C6.3715625,25.40625 6.08902168,25.09375 6.08902168,24.7103125 L6.08902168,14.7953125 C6.08676457,14.5786013 6.18157796,14.372236 6.3475,14.2328125 L15.62875,6.7278125 L15.62875,6.7278125 C15.8437294,6.54838185 16.1562706,6.54838185 16.37125,6.7278125 L25.6525,14.2328125 C25.818422,14.372236 25.9132354,14.5786013 25.9109375,14.7953125 L25.911875,24.7103125 Z" id="Shape" fill="#040000" fill-rule="nonzero"></path>
                <rect id="Rectangle" x="0" y="0" width="32" height="32"></rect>
            </g>
        </g>
    </g>
</svg>