<?xml version="1.0" encoding="UTF-8"?>
<svg width="32px" height="32px" viewBox="0 0 32 32" version="1.1" xmlns="http://www.w3.org/2000/svg" xmlns:xlink="http://www.w3.org/1999/xlink">
    <title>5299CD2E-3A2E-4119-A03A-F51BE39BF368</title>
    <g id="T3883" stroke="none" stroke-width="1" fill="none" fill-rule="evenodd">
        <g id="slice" transform="translate(-31.000000, -49.000000)">
            <g id="ic_default_home_outline1" transform="translate(31.000000, 49.000000)">
                <rect id="Rectangle" x="0" y="0" width="31.9687805" height="31.9687805" opacity="0"></rect>
                <path d="M27.6396748,15.3013906 L27.6396748,29.9707317 L4.32910569,29.9707317 L4.32910569,15.3013906 L2.8220774,16.8084189 L1.99804878,15.9843902 L15.9843902,1.99804878 L29.9707317,15.9843902 L29.1467031,16.8084189 L27.6396748,15.3013906 Z M20.6465041,28.8052033 L26.4741463,28.8052033 L26.4741463,14.1358621 L15.9843902,3.64610602 L5.49463415,14.1358621 L5.49463415,28.8052033 L11.3222764,28.8052033 L11.3222764,18.3154472 L20.6465041,18.3154472 L20.6465041,28.8052033 Z M19.4809756,19.6103493 L12.4878049,19.6103493 L12.4878049,28.6758296 L19.4809756,28.6758296 L19.4809756,19.6103493 Z" id="Shape" fill="#000000"></path>
            </g>
        </g>
    </g>
</svg>
