<?xml version="1.0" encoding="UTF-8"?>
<svg width="32px" height="32px" viewBox="0 0 32 32" version="1.1" xmlns="http://www.w3.org/2000/svg" xmlns:xlink="http://www.w3.org/1999/xlink">
    <title>0871E7DC-AAFF-418E-BCC7-1C15B7D51C27</title>
    <g id="T3883" stroke="none" stroke-width="1" fill="none" fill-rule="evenodd">
        <g id="slice" transform="translate(-625.000000, -491.000000)">
            <g id="info_outline" transform="translate(625.000000, 491.000000)">
                <path d="M14.6666667,9.33333333 L17.3333333,9.33333333 L17.3333333,12 L14.6666667,12 L14.6666667,9.33333333 Z M14.6666667,14.6666667 L17.3333333,14.6666667 L17.3333333,22.6666667 L14.6666667,22.6666667 L14.6666667,14.6666667 Z M16,2.66666667 C8.64,2.66666667 2.66666667,8.64 2.66666667,16 C2.66666667,23.36 8.64,29.3333333 16,29.3333333 C23.36,29.3333333 29.3333333,23.36 29.3333333,16 C29.3333333,8.64 23.36,2.66666667 16,2.66666667 Z M16,26.6666667 C10.12,26.6666667 5.33333333,21.88 5.33333333,16 C5.33333333,10.12 10.12,5.33333333 16,5.33333333 C21.88,5.33333333 26.6666667,10.12 26.6666667,16 C26.6666667,21.88 21.88,26.6666667 16,26.6666667 Z" id="Shape" fill="#000000" fill-rule="nonzero"></path>
            </g>
        </g>
    </g>
</svg>
