<?xml version="1.0" encoding="UTF-8"?>
<svg width="32px" height="32px" viewBox="0 0 32 32" version="1.1" xmlns="http://www.w3.org/2000/svg" xmlns:xlink="http://www.w3.org/1999/xlink">
    <title>85A2E51A-995F-4154-9A49-9E737F9F2821</title>
    <g id="T3883" stroke="none" stroke-width="1" fill="none" fill-rule="evenodd">
        <g id="slice" transform="translate(-213.000000, -491.000000)">
            <g id="info" transform="translate(213.000000, 491.000000)">
                <polygon id="Path" points="0 0 32 0 32 32 0 32"></polygon>
                <path d="M16,2.66666667 C8.64,2.66666667 2.66666667,8.64 2.66666667,16 C2.66666667,23.36 8.64,29.3333333 16,29.3333333 C23.36,29.3333333 29.3333333,23.36 29.3333333,16 C29.3333333,8.64 23.36,2.66666667 16,2.66666667 Z M17.3333333,22.6666667 L14.6666667,22.6666667 L14.6666667,14.6666667 L17.3333333,14.6666667 L17.3333333,22.6666667 Z M17.3333333,12 L14.6666667,12 L14.6666667,9.33333333 L17.3333333,9.33333333 L17.3333333,12 Z" id="Shape" fill="#000000" fill-rule="nonzero"></path>
            </g>
        </g>
    </g>
</svg>