<?xml version="1.0" encoding="UTF-8"?>
<svg width="32px" height="32px" viewBox="0 0 32 32" version="1.1" xmlns="http://www.w3.org/2000/svg" xmlns:xlink="http://www.w3.org/1999/xlink">
    <title>7CC994CE-252A-44B2-9C60-8632888177F3</title>
    <g id="T3883" stroke="none" stroke-width="1" fill="none" fill-rule="evenodd">
        <g id="slice" transform="translate(-277.000000, -738.000000)">
            <g id="local_atm" transform="translate(277.000000, 738.000000)">
                <path d="M14.6666667,22.6666667 L17.3333333,22.6666667 L17.3333333,21.3333333 L18.6666667,21.3333333 C19.4,21.3333333 20,20.7333333 20,20 L20,16 C20,15.2666667 19.4,14.6666667 18.6666667,14.6666667 L14.6666667,14.6666667 L14.6666667,13.3333333 L20,13.3333333 L20,10.6666667 L17.3333333,10.6666667 L17.3333333,9.33333333 L14.6666667,9.33333333 L14.6666667,10.6666667 L13.3333333,10.6666667 C12.6,10.6666667 12,11.2666667 12,12 L12,16 C12,16.7333333 12.6,17.3333333 13.3333333,17.3333333 L17.3333333,17.3333333 L17.3333333,18.6666667 L12,18.6666667 L12,21.3333333 L14.6666667,21.3333333 L14.6666667,22.6666667 Z M26.6666667,5.33333333 L5.33333333,5.33333333 C3.85333333,5.33333333 2.68,6.52 2.68,8 L2.66666667,24 C2.66666667,25.48 3.85333333,26.6666667 5.33333333,26.6666667 L26.6666667,26.6666667 C28.1466667,26.6666667 29.3333333,25.48 29.3333333,24 L29.3333333,8 C29.3333333,6.52 28.1466667,5.33333333 26.6666667,5.33333333 Z M26.6666667,24 L5.33333333,24 L5.33333333,8 L26.6666667,8 L26.6666667,24 Z" id="Shape" fill="#000000" fill-rule="nonzero"></path>
            </g>
        </g>
    </g>
</svg>
