<?xml version="1.0" encoding="UTF-8"?>
<svg width="32px" height="32px" viewBox="0 0 32 32" version="1.1" xmlns="http://www.w3.org/2000/svg" xmlns:xlink="http://www.w3.org/1999/xlink">
    <title>1B5C7753-8FD9-4AD0-BE35-F4BE2BED7498</title>
    <g id="T3883" stroke="none" stroke-width="1" fill="none" fill-rule="evenodd">
        <g id="slice" transform="translate(-133.000000, -439.000000)">
            <g id="local_mall" transform="translate(133.000000, 439.000000)">
                <path d="M25.3333333,8 L22.6666667,8 C22.6666667,4.32 19.68,1.33333333 16,1.33333333 C12.32,1.33333333 9.33333333,4.32 9.33333333,8 L6.66666667,8 C5.2,8 4.01333333,9.2 4.01333333,10.6666667 L4,26.6666667 C4,28.1333333 5.2,29.3333333 6.66666667,29.3333333 L25.3333333,29.3333333 C26.8,29.3333333 28,28.1333333 28,26.6666667 L28,10.6666667 C28,9.2 26.8,8 25.3333333,8 Z M16,4 C18.2133333,4 20,5.78666667 20,8 L12,8 C12,5.78666667 13.7866667,4 16,4 Z M16,17.3333333 C12.32,17.3333333 9.33333333,14.3466667 9.33333333,10.6666667 L12,10.6666667 C12,12.88 13.7866667,14.6666667 16,14.6666667 C18.2133333,14.6666667 20,12.88 20,10.6666667 L22.6666667,10.6666667 C22.6666667,14.3466667 19.68,17.3333333 16,17.3333333 Z" id="Shape" fill="#000000" fill-rule="nonzero"></path>
            </g>
        </g>
    </g>
</svg>
