<?xml version="1.0" encoding="UTF-8"?>
<svg width="32px" height="32px" viewBox="0 0 32 32" version="1.1" xmlns="http://www.w3.org/2000/svg" xmlns:xlink="http://www.w3.org/1999/xlink">
    <title>DD27FECC-9E48-4D37-8BA2-ADC16E2707A3</title>
    <g id="T3883" stroke="none" stroke-width="1" fill="none" fill-rule="evenodd">
        <g id="slice" transform="translate(-113.000000, -815.000000)">
            <g id="location_searching" transform="translate(113.000000, 815.000000)">
                <path d="M27.92,14.6666667 C27.3066667,9.10666667 22.8933333,4.69333333 17.3333333,4.08 L17.3333333,1.33333333 L14.6666667,1.33333333 L14.6666667,4.08 C9.10666667,4.69333333 4.69333333,9.10666667 4.08,14.6666667 L1.33333333,14.6666667 L1.33333333,17.3333333 L4.08,17.3333333 C4.69333333,22.8933333 9.10666667,27.3066667 14.6666667,27.92 L14.6666667,30.6666667 L17.3333333,30.6666667 L17.3333333,27.92 C22.8933333,27.3066667 27.3066667,22.8933333 27.92,17.3333333 L30.6666667,17.3333333 L30.6666667,14.6666667 L27.92,14.6666667 Z M16,25.3333333 C10.84,25.3333333 6.66666667,21.16 6.66666667,16 C6.66666667,10.84 10.84,6.66666667 16,6.66666667 C21.16,6.66666667 25.3333333,10.84 25.3333333,16 C25.3333333,21.16 21.16,25.3333333 16,25.3333333 Z" id="Shape" fill="#000000" fill-rule="nonzero"></path>
            </g>
        </g>
    </g>
</svg>
