<?xml version="1.0" encoding="UTF-8"?>
<svg width="32px" height="32px" viewBox="0 0 32 32" version="1.1" xmlns="http://www.w3.org/2000/svg" xmlns:xlink="http://www.w3.org/1999/xlink">
    <title>651C1277-F5DC-4EFB-ADC2-06D7177320E6</title>
    <g id="T3883" stroke="none" stroke-width="1" fill="none" fill-rule="evenodd">
        <g id="slice" transform="translate(-265.000000, -543.000000)">
            <g id="loyalty" transform="translate(265.000000, 543.000000)">
                <path d="M28.5466667,15.44 L16.5466667,3.44 C16.0666667,2.96 15.4,2.66666667 14.6666667,2.66666667 L5.33333333,2.66666667 C3.86666667,2.66666667 2.66666667,3.86666667 2.66666667,5.33333333 L2.66666667,14.6666667 C2.66666667,15.4 2.96,16.0666667 3.45333333,16.56 L15.4533333,28.56 C15.9333333,29.04 16.6,29.3333333 17.3333333,29.3333333 C18.0666667,29.3333333 18.7333333,29.04 19.2133333,28.5466667 L28.5466667,19.2133333 C29.04,18.7333333 29.3333333,18.0666667 29.3333333,17.3333333 C29.3333333,16.6 29.0266667,15.92 28.5466667,15.44 Z M7.33333333,9.33333333 C6.22666667,9.33333333 5.33333333,8.44 5.33333333,7.33333333 C5.33333333,6.22666667 6.22666667,5.33333333 7.33333333,5.33333333 C8.44,5.33333333 9.33333333,6.22666667 9.33333333,7.33333333 C9.33333333,8.44 8.44,9.33333333 7.33333333,9.33333333 Z M23.0266667,20.36 L17.3333333,26.0533333 L11.64,20.36 C11.04,19.7466667 10.6666667,18.92 10.6666667,18 C10.6666667,16.16 12.16,14.6666667 14,14.6666667 C14.92,14.6666667 15.76,15.04 16.36,15.6533333 L17.3333333,16.6133333 L18.3066667,15.64 C18.9066667,15.04 19.7466667,14.6666667 20.6666667,14.6666667 C22.5066667,14.6666667 24,16.16 24,18 C24,18.92 23.6266667,19.76 23.0266667,20.36 Z" id="Shape" fill="#000000" fill-rule="nonzero"></path>
            </g>
        </g>
    </g>
</svg>
