<?xml version="1.0" encoding="UTF-8"?>
<svg width="32px" height="32px" viewBox="0 0 32 32" version="1.1" xmlns="http://www.w3.org/2000/svg" xmlns:xlink="http://www.w3.org/1999/xlink">
    <title>0959136D-2536-44A9-9D7B-307A5941318B</title>
    <g id="T3883" stroke="none" stroke-width="1" fill="none" fill-rule="evenodd">
        <g id="slice" transform="translate(-83.000000, -49.000000)">
            <g id="ic_default_member_outline1" transform="translate(83.000000, 49.000000)">
                <rect id="Rectangle" x="0" y="0" width="31.9687805" height="31.9687805"></rect>
                <path d="M15.9990818,2.8097561 C10.4231936,2.8097561 6.71324802,8.23865052 11.9041004,17.8140838 C13.6548613,21.0446545 10.0118307,21.8081442 6.32053349,22.6604883 C2.94955095,23.4382385 2.8244966,25.1122116 2.83546628,28.0400191 L2.83985416,29.1369871 L29.1561155,29.1369871 L29.1605033,28.0740251 C29.173667,25.1253753 29.0584853,23.4415295 25.6754361,22.6604883 C21.9040603,21.7894957 18.3926659,21.026006 20.0918692,17.8140838 C25.268461,8.03790538 21.4641761,2.8097561 15.9990818,2.8097561 M15.9990818,3.90672406 C18.0723512,3.90672406 19.7178032,4.74480758 20.6337714,6.26520516 C22.119066,8.73448004 21.5837457,12.6539466 19.1232465,17.3007028 C18.490296,18.4985918 18.3849871,19.5802022 18.8128046,20.5170129 C19.8406636,22.7647002 24.0321781,23.4042325 25.4297153,23.7289351 C27.9560325,24.3147159 28.075602,25.169254 28.0635354,28.0400191 L3.93243424,28.0400191 C3.92146456,25.1714479 4.03116136,24.3147159 6.56625431,23.7289351 C7.83544624,23.4371416 12.2024757,22.7208215 13.2018135,20.5038493 C13.6263401,19.5626508 13.5133524,18.4821373 12.8683352,17.2908301 C10.4209997,12.776807 9.85825515,8.77397088 11.3270952,6.30798692 C12.2485483,4.75906816 13.9082609,3.90672406 15.9990818,3.90672406" id="Shape" fill="#000000"></path>
            </g>
        </g>
    </g>
</svg>