<?xml version="1.0" encoding="UTF-8"?>
<svg width="32px" height="32px" viewBox="0 0 32 32" version="1.1" xmlns="http://www.w3.org/2000/svg" xmlns:xlink="http://www.w3.org/1999/xlink">
    <title>07E1CA28-8C82-4855-976A-02B81FD231E7</title>
    <g id="T3883" stroke="none" stroke-width="1" fill="none" fill-rule="evenodd">
        <g id="slice" transform="translate(-83.000000, -235.000000)">
            <g id="ic_default_member_outline4" transform="translate(83.000000, 235.000000)">
                <rect id="Rectangle" x="0" y="0" width="32" height="32"></rect>
                <path d="M16,2.53571429 C20.7338693,2.53571429 24.5714286,6.37327357 24.5714286,11.1071429 C24.5714286,13.2675567 23.7721531,15.2412898 22.4531743,16.74877 C22.6577912,16.9301676 22.8574732,17.1199008 23.0523173,17.3168092 C24.9856607,19.2706358 26.2142857,21.7129531 26.2142857,23.846056 C26.2142857,25.0125293 25.8491111,26.038645 25.1501754,26.8798347 C24.5297612,27.6265214 23.6736635,28.1985328 22.6164914,28.6220049 C20.9017665,29.3088733 18.6631907,29.6071429 16.0000295,29.6071429 C13.3368666,29.6071429 11.0982778,29.3088731 9.38354177,28.6220064 C8.32636233,28.1985351 7.47025815,27.6265252 6.84983838,26.8798402 C6.15089414,26.0386498 5.78571429,25.012532 5.78571429,23.846056 C5.78571429,21.7129518 7.01435339,19.2706341 8.94771622,17.3168052 C9.14281561,17.1196405 9.34276552,16.9296697 9.54704079,16.7473378 C8.22784692,15.2412898 7.42857143,13.2675567 7.42857143,11.1071429 C7.42857143,6.37327357 11.2661307,2.53571429 16,2.53571429 Z M20.462615,18.4266318 L20.2566939,18.5485786 C19.0025312,19.2675403 17.5492663,19.6785714 16,19.6785714 C14.3650791,19.6785714 12.8370685,19.2208344 11.5371319,18.4265242 C11.2763131,18.6433857 11.021692,18.8767224 10.7755387,19.1254815 C9.2803509,20.6364969 8.35714286,22.4716716 8.35714286,23.846056 C8.35714286,24.9445138 8.97523436,25.6883967 10.3397131,26.2349619 C11.6924178,26.7768108 13.6355529,27.0357143 16.0000295,27.0357143 C18.364502,27.0357143 20.3076221,26.7768115 21.6603128,26.2349634 C23.024774,25.6884003 23.6428571,24.9445191 23.6428571,23.846056 C23.6428571,22.4716661 22.7196591,20.6364905 21.2244869,19.1254774 C20.9783042,18.8766866 20.7236517,18.643322 20.462615,18.4266318 Z M16,5.10714286 C12.6862915,5.10714286 10,7.79343436 10,11.1071429 C10,12.8248449 10.7218055,14.3739601 11.8786486,15.4677209 C11.9139082,15.5013386 11.9494685,15.5341428 11.9854225,15.5665191 L11.8786486,15.4677209 C11.9391108,15.5248861 12.0007613,15.5808074 12.0635593,15.635444 L12.2447588,15.7869648 C12.2678674,15.8055317 12.2911165,15.8239309 12.3145041,15.8421607 L12.2449169,15.7872576 C12.3206399,15.8480726 12.3978703,15.9070903 12.4765431,15.9642453 L12.3145041,15.8421607 C12.3784662,15.8920169 12.4434649,15.9406054 12.5094624,15.9878886 L12.4765431,15.9642453 C12.5412625,16.0112632 12.606958,16.0570206 12.6735935,16.1014812 L12.5094624,15.9878886 C12.595842,16.0497743 12.6839326,16.1094238 12.7736494,16.1667525 C12.8304766,16.2031145 12.8877422,16.2383592 12.9456342,16.2726591 L12.7736494,16.1667525 C12.8588302,16.2211827 12.9454771,16.2735209 13.0335174,16.3236945 L12.9456342,16.2726591 C13.0234437,16.3187598 13.1023845,16.3631538 13.182405,16.4057892 L13.0335174,16.3236945 C13.1008128,16.3620457 13.1689223,16.3991322 13.2378137,16.4349217 L13.182405,16.4057892 C13.2744309,16.4548212 13.3678847,16.5015273 13.462688,16.5458286 L13.2378137,16.4349217 C13.3405406,16.488289 13.4450059,16.5387724 13.5511024,16.5862647 C13.6006703,16.6084646 13.6512175,16.6302643 13.7021183,16.6513838 L13.5511024,16.5862647 C13.6301189,16.6216351 13.7100401,16.6553464 13.7908218,16.6873543 L13.7021183,16.6513838 C13.7902199,16.6879383 13.8793809,16.7224546 13.9695425,16.7548736 L13.7908218,16.6873543 C13.872613,16.7197622 13.9552863,16.7504239 14.0387957,16.7792933 L13.9695425,16.7548736 C14.0756709,16.7930337 14.1831857,16.8282879 14.2919909,16.8605397 L14.4743871,16.9114636 C14.9615181,17.039153 15.4728191,17.1071429 16,17.1071429 C16.5945268,17.1071429 17.1688574,17.0206725 17.7111012,16.8596222 C17.70999,16.8595741 17.708656,16.8591397 17.7073221,16.8587059 C18.0892728,16.7463544 18.4553493,16.5966678 18.8013858,16.4139281 C18.8148078,16.4072733 18.8281629,16.4001442 18.8414876,16.3929661 L18.8013858,16.4139281 C18.9743942,16.3225635 19.1423933,16.2229365 19.3048622,16.1155824 C19.3235944,16.1033348 19.342665,16.0905705 19.361658,16.0777002 L19.3048622,16.1155824 C19.3844377,16.0630015 19.4626866,16.008567 19.5395477,15.9523416 L19.361658,16.0777002 C19.4401544,16.0245082 19.517324,15.9695055 19.5931068,15.9127523 L19.5395477,15.9523416 C19.626363,15.8888345 19.7114079,15.8230427 19.794594,15.7550568 L19.5931068,15.9127523 C19.6770475,15.8498896 19.7592868,15.7848791 19.8397431,15.7178023 L19.794594,15.7550568 C19.8592691,15.7021994 19.9228207,15.6480159 19.9852074,15.5925486 L19.8397431,15.7178023 C19.9135386,15.6562786 19.9858341,15.5930166 20.0565667,15.5280792 L19.9852074,15.5925486 C20.0733847,15.5141513 20.1592348,15.4331895 20.2426407,15.3497835 L20.354465,15.2338086 L20.3881109,15.1991785 C21.3880917,14.1273094 22,12.6886855 22,11.1071429 C22,7.79343436 19.3137085,5.10714286 16,5.10714286 Z" id="Combined-Shape" fill="#000000" fill-rule="nonzero"></path>
            </g>
        </g>
    </g>
</svg>