<?xml version="1.0" encoding="UTF-8"?>
<svg width="32px" height="32px" viewBox="0 0 32 32" version="1.1" xmlns="http://www.w3.org/2000/svg" xmlns:xlink="http://www.w3.org/1999/xlink">
    <title>C88F3537-3407-4DC1-B368-932CC5E70D76</title>
    <g id="T3883" stroke="none" stroke-width="1" fill="none" fill-rule="evenodd">
        <g id="slice" transform="translate(-83.000000, -297.000000)">
            <g id="ic_default_member_fill1" transform="translate(83.000000, 297.000000)">
                <polygon id="Path" points="0 0 32 0 32 32 0 32"></polygon>
                <path d="M26.5357143,28.5714286 L5.35714286,28.5714286 L5.35714286,26.0408163 C5.35714286,22.54677 8.3202583,19.7142857 11.9754464,19.7142857 L19.9174107,19.7142857 C23.5725988,19.7142857 26.5357143,22.54677 26.5357143,26.0408163 L26.5357143,28.5714286 Z M9.72131583,13.9821429 C8.42622806,11.7389851 8.42622806,8.97530065 9.72131583,6.73214283 C11.0164036,4.488985 13.4098245,3.10714286 16.0000001,3.10714286 C20.0040645,3.10714286 23.25,6.35307842 23.25,10.3571429 C23.25,14.3612073 20.0040645,17.6071429 16.0000001,17.6071429 C13.4098245,17.6071429 11.0164036,16.2253007 9.72131583,13.9821429 Z" id="Shape" fill="#000000" fill-rule="nonzero"></path>
            </g>
        </g>
    </g>
</svg>