<?xml version="1.0" encoding="UTF-8"?>
<svg width="32px" height="32px" viewBox="0 0 32 32" version="1.1" xmlns="http://www.w3.org/2000/svg" xmlns:xlink="http://www.w3.org/1999/xlink">
    <title>DAF05EF1-3523-490C-8111-B0ADE021C25F</title>
    <g id="T3883" stroke="none" stroke-width="1" fill="none" fill-rule="evenodd">
        <g id="slice" transform="translate(-83.000000, -173.000000)">
            <g id="ic_default_member_outline3" transform="translate(83.000000, 173.000000)">
                <rect id="Rectangle" x="0" y="0" width="32" height="32"></rect>
                <path d="M21.5208333,18.7638889 C25.2988062,18.7638889 28.3686115,21.7959145 28.4296299,25.5593462 L28.4305556,25.6736111 L28.4305556,28.4375 C28.4305556,29.2007268 27.811838,29.8194444 27.0486111,29.8194444 C26.2930165,29.8194444 25.6790555,29.2130393 25.6668518,28.460353 L25.6666667,25.6736111 C25.6666667,23.4068274 23.8474513,21.5649442 21.5893923,21.5283332 L10.4652778,21.5277778 C8.19849406,21.5277778 6.35661085,23.3469931 6.31999987,25.6050522 L6.31944444,25.6736111 L6.31944444,28.4375 C6.31944444,29.2007268 5.70072684,29.8194444 4.9375,29.8194444 C4.18190543,29.8194444 3.56794436,29.2130393 3.55555556,28.460353 L3.55555556,25.6736111 C3.55555556,21.8956382 6.58758117,18.8258329 10.3510129,18.7648146 L10.4652778,18.7638889 L21.5208333,18.7638889 Z M15.9930556,2.18055556 C19.8091898,2.18055556 22.9027778,5.27414357 22.9027778,9.09027778 C22.9027778,12.906412 19.8091898,16 15.9930556,16 C12.1769213,16 9.08333333,12.906412 9.08333333,9.09027778 C9.08333333,5.27414357 12.1769213,2.18055556 15.9930556,2.18055556 Z M15.9930556,4.94444444 C13.703375,4.94444444 11.8472222,6.80059725 11.8472222,9.09027778 C11.8472222,11.3799583 13.703375,13.2361111 15.9930556,13.2361111 C18.2827361,13.2361111 20.1388889,11.3799583 20.1388889,9.09027778 C20.1388889,6.80059725 18.2827361,4.94444444 15.9930556,4.94444444 Z" id="Combined-Shape" fill="#000000" fill-rule="nonzero"></path>
            </g>
        </g>
    </g>
</svg>