<?xml version="1.0" encoding="UTF-8"?>
<svg width="32px" height="32px" viewBox="0 0 32 32" version="1.1" xmlns="http://www.w3.org/2000/svg" xmlns:xlink="http://www.w3.org/1999/xlink">
    <title>D55613B3-5EF3-4BA9-8EE7-B5B4DF04FA1C</title>
    <g id="T3883" stroke="none" stroke-width="1" fill="none" fill-rule="evenodd">
        <g id="slice" transform="translate(-83.000000, -111.000000)">
            <g id="ic_default_member_outline2" transform="translate(83.000000, 111.000000)">
                <rect id="Rectangle" x="0" y="0" width="32" height="32" opacity="0"></rect>
                <path d="M20.148125,16.82875 C22.1288685,15.4654453 23.3113252,13.2142543 23.3096875,10.8096875 C23.3096875,6.7728125 20.0371875,3.5 16,3.5 C11.9628125,3.5 8.6903125,6.7728125 8.6903125,10.8096875 C8.68867476,13.2142543 9.87113151,15.4654453 11.851875,16.82875 C7.053125,18.5346875 3.616875,23.1159375 3.616875,28.5 L28.383125,28.5 C28.383125,23.1159375 24.946875,18.5346875 20.148125,16.82875 Z M12.2453125,14.564375 C10.4636232,12.7825396 10.1796726,9.99384572 11.56566,7.88947092 C12.9516474,5.78509613 15.6258093,4.94468001 17.9664252,5.87788512 C20.307041,6.81109023 21.6693997,9.26086984 21.2273114,11.7415779 C20.7852232,14.2222859 18.6604591,16.0506236 16.1415625,16.1178125 L16,16.1178125 L15.8584375,16.1178125 C14.4987992,16.085318 13.2042935,15.5287544 12.2453125,14.564375 L12.2453125,14.564375 Z M6.4328125,24.4590625 C8.03839502,20.6500862 11.7529027,18.1585628 15.88625,18.118125 C15.924375,18.118125 15.961875,18.1196875 16,18.1196875 C16.038125,18.1196875 16.075625,18.1196875 16.11375,18.118125 C21.0357471,18.1684522 25.2452552,21.6695662 26.1915625,26.5 L5.8084375,26.5 C5.94476159,25.7998712 6.15370338,25.1158617 6.431875,24.4590625 L6.4328125,24.4590625 Z" id="Shape" fill="#231815" fill-rule="nonzero"></path>
            </g>
        </g>
    </g>
</svg>
