<?xml version="1.0" encoding="UTF-8"?>
<svg width="32px" height="32px" viewBox="0 0 32 32" version="1.1" xmlns="http://www.w3.org/2000/svg" xmlns:xlink="http://www.w3.org/1999/xlink">
    <title>73A5E405-277D-4B74-9561-A83FEB5D8D07</title>
    <g id="T3883" stroke="none" stroke-width="1" fill="none" fill-rule="evenodd">
        <g id="slice" transform="translate(-445.000000, -491.000000)">
            <g id="monetization_on" transform="translate(445.000000, 491.000000)">
                <path d="M16,2.66666667 C8.64,2.66666667 2.66666667,8.64 2.66666667,16 C2.66666667,23.36 8.64,29.3333333 16,29.3333333 C23.36,29.3333333 29.3333333,23.36 29.3333333,16 C29.3333333,8.64 23.36,2.66666667 16,2.66666667 Z M17.88,24.12 L17.88,26.6666667 L14.32,26.6666667 L14.32,24.0933333 C12.04,23.6133333 10.1066667,22.1466667 9.96,19.56 L12.5733333,19.56 C12.7066667,20.96 13.6666667,22.0533333 16.1066667,22.0533333 C18.72,22.0533333 19.3066667,20.7466667 19.3066667,19.9333333 C19.3066667,18.8266667 18.72,17.7866667 15.7466667,17.08 C12.44,16.28 10.1733333,14.92 10.1733333,12.1866667 C10.1733333,9.89333333 12.0266667,8.4 14.32,7.90666667 L14.32,5.33333333 L17.88,5.33333333 L17.88,7.93333333 C20.36,8.53333333 21.6,10.4133333 21.68,12.4533333 L19.0666667,12.4533333 C19,10.9733333 18.2133333,9.96 16.1066667,9.96 C14.1066667,9.96 12.9066667,10.8666667 12.9066667,12.1466667 C12.9066667,13.2666667 13.7733333,14 16.4666667,14.6933333 C19.16,15.3866667 22.04,16.5466667 22.04,19.9066667 C22.0266667,22.3466667 20.2,23.68 17.88,24.12 Z" id="Shape" fill="#000000" fill-rule="nonzero"></path>
            </g>
        </g>
    </g>
</svg>
