<?xml version="1.0" encoding="UTF-8"?>
<svg width="32px" height="32px" viewBox="0 0 32 32" version="1.1" xmlns="http://www.w3.org/2000/svg" xmlns:xlink="http://www.w3.org/1999/xlink">
    <title>504AE6C8-2966-4F1C-AA1D-3704E268F0B0</title>
    <g id="T3883" stroke="none" stroke-width="1" fill="none" fill-rule="evenodd">
        <g id="slice" transform="translate(-317.000000, -491.000000)">
            <g id="new_releases" transform="translate(317.000000, 491.000000)">
                <path d="M30.6666667,16 L27.4133333,12.2933333 L27.8666667,7.38666667 L23.0533333,6.29333333 L20.5333333,2.05333333 L16,4 L11.4666667,2.05333333 L8.94666667,6.29333333 L4.13333333,7.37333333 L4.58666667,12.28 L1.33333333,16 L4.58666667,19.7066667 L4.13333333,24.6266667 L8.94666667,25.72 L11.4666667,29.96 L16,28 L20.5333333,29.9466667 L23.0533333,25.7066667 L27.8666667,24.6133333 L27.4133333,19.7066667 L30.6666667,16 Z M17.3333333,22.6666667 L14.6666667,22.6666667 L14.6666667,20 L17.3333333,20 L17.3333333,22.6666667 Z M17.3333333,17.3333333 L14.6666667,17.3333333 L14.6666667,9.33333333 L17.3333333,9.33333333 L17.3333333,17.3333333 Z" id="Shape" fill="#000000" fill-rule="nonzero"></path>
            </g>
        </g>
    </g>
</svg>
