<?xml version="1.0" encoding="UTF-8"?>
<svg width="32px" height="32px" viewBox="0 0 32 32" version="1.1" xmlns="http://www.w3.org/2000/svg" xmlns:xlink="http://www.w3.org/1999/xlink">
    <title>7E664838-30F1-4801-958A-1201774A16A6</title>
    <g id="T3883" stroke="none" stroke-width="1" fill="none" fill-rule="evenodd">
        <g id="slice" transform="translate(-277.000000, -892.000000)">
            <g id="notifications" transform="translate(277.000000, 892.000000)">
                <rect id="Rectangle" x="0" y="0" width="32" height="32"></rect>
                <path d="M16,29.3333333 C17.4666667,29.3333333 18.6666667,28.1333333 18.6666667,26.6666667 L13.3333333,26.6666667 C13.3333333,28.1333333 14.52,29.3333333 16,29.3333333 Z M24,21.3333333 L24,14.6666667 C24,10.5733333 21.8133333,7.14666667 18,6.24 L18,5.33333333 C18,4.22666667 17.1066667,3.33333333 16,3.33333333 C14.8933333,3.33333333 14,4.22666667 14,5.33333333 L14,6.24 C10.1733333,7.14666667 8,10.56 8,14.6666667 L8,21.3333333 L5.33333333,24 L5.33333333,25.3333333 L26.6666667,25.3333333 L26.6666667,24 L24,21.3333333 Z" id="Shape" fill="#000000" fill-rule="nonzero"></path>
            </g>
        </g>
    </g>
</svg>