<?xml version="1.0" encoding="UTF-8"?>
<svg width="32px" height="32px" viewBox="0 0 32 32" version="1.1" xmlns="http://www.w3.org/2000/svg" xmlns:xlink="http://www.w3.org/1999/xlink">
    <title>A4619DEB-4B0C-4381-BE05-D8A5CC8216CD</title>
    <g id="T3883" stroke="none" stroke-width="1" fill="none" fill-rule="evenodd">
        <g id="slice" transform="translate(-573.000000, -439.000000)">
            <g id="person_outline" transform="translate(573.000000, 439.000000)">
                <path d="M16,8 C17.4666667,8 18.6666667,9.2 18.6666667,10.6666667 C18.6666667,12.1333333 17.4666667,13.3333333 16,13.3333333 C14.5333333,13.3333333 13.3333333,12.1333333 13.3333333,10.6666667 C13.3333333,9.2 14.5333333,8 16,8 M16,20 C19.6,20 23.7333333,21.72 24,22.6666667 L24,24 L8,24 L8,22.68 C8.26666667,21.72 12.4,20 16,20 M16,5.33333333 C13.0533333,5.33333333 10.6666667,7.72 10.6666667,10.6666667 C10.6666667,13.6133333 13.0533333,16 16,16 C18.9466667,16 21.3333333,13.6133333 21.3333333,10.6666667 C21.3333333,7.72 18.9466667,5.33333333 16,5.33333333 L16,5.33333333 Z M16,17.3333333 C12.44,17.3333333 5.33333333,19.12 5.33333333,22.6666667 L5.33333333,26.6666667 L26.6666667,26.6666667 L26.6666667,22.6666667 C26.6666667,19.12 19.56,17.3333333 16,17.3333333 L16,17.3333333 Z" id="Shape" fill="#000000" fill-rule="nonzero"></path>
            </g>
        </g>
    </g>
</svg>
