<?xml version="1.0" encoding="UTF-8"?>
<svg width="32px" height="32px" viewBox="0 0 32 32" version="1.1" xmlns="http://www.w3.org/2000/svg" xmlns:xlink="http://www.w3.org/1999/xlink">
    <title>EE3522B6-0A85-4A34-B4DC-A6161546EDB8</title>
    <g id="T3883" stroke="none" stroke-width="1" fill="none" fill-rule="evenodd">
        <g id="slice" transform="translate(-133.000000, -491.000000)">
            <g id="person_add" transform="translate(133.000000, 491.000000)">
                <path d="M20,16 C22.9466667,16 25.3333333,13.6133333 25.3333333,10.6666667 C25.3333333,7.72 22.9466667,5.33333333 20,5.33333333 C17.0533333,5.33333333 14.6666667,7.72 14.6666667,10.6666667 C14.6666667,13.6133333 17.0533333,16 20,16 Z M8,13.3333333 L8,9.33333333 L5.33333333,9.33333333 L5.33333333,13.3333333 L1.33333333,13.3333333 L1.33333333,16 L5.33333333,16 L5.33333333,20 L8,20 L8,16 L12,16 L12,13.3333333 L8,13.3333333 Z M20,18.6666667 C16.44,18.6666667 9.33333333,20.4533333 9.33333333,24 L9.33333333,26.6666667 L30.6666667,26.6666667 L30.6666667,24 C30.6666667,20.4533333 23.56,18.6666667 20,18.6666667 Z" id="Shape" fill="#000000" fill-rule="nonzero"></path>
            </g>
        </g>
    </g>
</svg>
