<?xml version="1.0" encoding="UTF-8"?>
<svg width="32px" height="32px" viewBox="0 0 32 32" version="1.1" xmlns="http://www.w3.org/2000/svg" xmlns:xlink="http://www.w3.org/1999/xlink">
    <title>B08FF093-E5D8-4ADE-A448-4DDBA712840C</title>
    <g id="T3883" stroke="none" stroke-width="1" fill="none" fill-rule="evenodd">
        <g id="slice" transform="translate(-445.000000, -543.000000)">
            <g id="pin_drop" transform="translate(445.000000, 543.000000)">
                <path d="M24,10.6666667 C24,6.25333333 20.4133333,2.66666667 16,2.66666667 C11.5866667,2.66666667 8,6.25333333 8,10.6666667 C8,16.6666667 16,25.3333333 16,25.3333333 C16,25.3333333 24,16.6666667 24,10.6666667 Z M13.3333333,10.6666667 C13.3333333,9.2 14.5333333,8 16,8 C17.4666667,8 18.6666667,9.2 18.6666667,10.6666667 C18.6666667,12.1333333 17.48,13.3333333 16,13.3333333 C14.5333333,13.3333333 13.3333333,12.1333333 13.3333333,10.6666667 Z M6.66666667,26.6666667 L6.66666667,29.3333333 L25.3333333,29.3333333 L25.3333333,26.6666667 L6.66666667,26.6666667 Z" id="Shape" fill="#000000" fill-rule="nonzero"></path>
            </g>
        </g>
    </g>
</svg>
