<?xml version="1.0" encoding="UTF-8"?>
<svg width="32px" height="32px" viewBox="0 0 32 32" version="1.1" xmlns="http://www.w3.org/2000/svg" xmlns:xlink="http://www.w3.org/1999/xlink">
    <title>116FE218-18FC-49C8-A33A-CA3A16DB8715</title>
    <g id="T3883" stroke="none" stroke-width="1" fill="none" fill-rule="evenodd">
        <g id="slice" transform="translate(-343.000000, -297.000000)">
            <g id="ic_default_pin_fill1" transform="translate(343.000000, 297.000000)">
                <rect id="Rectangle" x="0" y="0" width="32" height="32" opacity="0"></rect>
                <path d="M15.9285714,2.46428571 C22.2798461,2.46428571 27.4285714,7.61301109 27.4285714,13.9642857 C27.4285714,19.2627234 23.8453503,23.724255 18.9699723,25.0578161 L16.2758412,29.4416094 C16.151908,29.6432635 15.8879674,29.7062686 15.6863133,29.5823354 C15.6290121,29.547119 15.5808037,29.4989107 15.5455873,29.4416094 L12.8444053,25.0460291 C7.99085307,23.6981375 4.42857143,19.2472193 4.42857143,13.9642857 C4.42857143,7.61301109 9.57729681,2.46428571 15.9285714,2.46428571 Z M15.9166667,11.2857143 C14.4439073,11.2857143 13.25,12.4796216 13.25,13.952381 C13.25,15.4251403 14.4439073,16.6190476 15.9166667,16.6190476 C17.389426,16.6190476 18.5833333,15.4251403 18.5833333,13.952381 C18.5833333,12.4796216 17.389426,11.2857143 15.9166667,11.2857143 Z" id="Combined-Shape" fill="#000000"></path>
            </g>
        </g>
    </g>
</svg>
