<?xml version="1.0" encoding="UTF-8"?>
<svg width="32px" height="32px" viewBox="0 0 32 32" version="1.1" xmlns="http://www.w3.org/2000/svg" xmlns:xlink="http://www.w3.org/1999/xlink">
    <title>46761359-B840-49F7-98DA-14F974B70592</title>
    <g id="T3883" stroke="none" stroke-width="1" fill="none" fill-rule="evenodd">
        <g id="slice" transform="translate(-343.000000, -359.000000)">
            <g id="ic_default_pin_fill2" transform="translate(343.000000, 359.000000)">
                <rect id="Rectangle" x="0" y="0" width="32" height="32"></rect>
                <path d="M9.98380808,21.7115568 C10.1915436,22.0513108 10.4099133,22.4049962 10.6401734,22.7749302 L10.7802244,22.999136 C11.0859643,23.4873162 11.5100329,24.1564476 12.0524304,25.0065304 L8.76722286,25.0076906 L7.40587429,27.992321 L24.5940914,27.992321 L23.2327429,25.0076906 L19.9925228,25.0073621 C20.6645856,23.9405318 21.1317821,23.1963879 21.3941123,22.7749302 L21.5677286,22.4954394 C21.7346463,22.2261745 21.8951555,21.9655823 22.0497741,21.7127075 L25.3486156,21.7143134 L29.7142857,31.2857143 L2.28571429,31.2857143 L6.65138441,21.7143134 L9.98380808,21.7115568 Z M16.0178571,0.928571429 C20.4695685,0.928571429 24.5,4.53519048 24.5,8.98377778 C24.5,13.4309524 20.8215774,18.7412857 16.0178571,26.3571429 C11.2141369,18.7412857 7.53571429,13.4309524 7.53571429,8.98377778 C7.53571429,4.53519048 11.5675595,0.928571429 16.0178571,0.928571429 Z M15.9285714,6.78571429 C14.3105357,6.78571429 13,8.09625 13,9.71428571 C13,11.3323214 14.3105357,12.6428571 15.9285714,12.6428571 C17.5466071,12.6428571 18.8571429,11.3323214 18.8571429,9.71428571 C18.8571429,8.09625 17.5466071,6.78571429 15.9285714,6.78571429 Z" id="Combined-Shape" fill="#000000" fill-rule="nonzero"></path>
            </g>
        </g>
    </g>
</svg>