<?xml version="1.0" encoding="UTF-8"?>
<svg width="32px" height="32px" viewBox="0 0 32 32" version="1.1" xmlns="http://www.w3.org/2000/svg" xmlns:xlink="http://www.w3.org/1999/xlink">
    <title>BBD94780-AAF2-4DD0-9C08-1B7F22B3F9E7</title>
    <g id="T3883" stroke="none" stroke-width="1" fill="none" fill-rule="evenodd">
        <g id="slice" transform="translate(-343.000000, -111.000000)">
            <g id="ic_default_pin_outline2" transform="translate(343.000000, 111.000000)">
                <rect id="Rectangle" x="0" y="0" width="32" height="32" opacity="0"></rect>
                <path d="M16,2.025 C21.94375,2.025 26.7621875,6.84375 26.7621875,12.7871875 C26.7621875,21.9325 16,29.9746875 16,29.9746875 C16,29.9746875 5.2378125,21.9328125 5.2378125,12.7871875 C5.2378125,6.84375 10.05625,2.025 16,2.025 Z M16,3.77499543 C13.609136,3.77267514 11.3155319,4.72143414 9.62496432,6.41206038 C7.9343967,8.10268662 6.98571724,10.3963236 6.98812043,12.7871875 C6.98812043,14.601875 7.4925,16.5425 8.48812043,18.5553125 C9.316875,20.2309375 10.4815625,21.9534375 11.9503125,23.675 C13.1943741,25.1249013 14.5482749,26.4768171 16,27.71875 C16.9903125,26.871875 18.5525,25.4375 20.0959375,23.6209375 C21.5525,21.90625 22.7075,20.1903125 23.5284375,18.521875 C24.5121875,16.5209375 25.0121921,14.5915625 25.0121921,12.7871875 C25.0145954,10.3962694 24.0658731,8.10258495 22.3752378,6.41194969 C20.6846026,4.72131444 18.3909181,3.7725921 16,3.77499543 Z M16,6.9865625 C17.5384468,6.9865625 19.0139066,7.59758852 20.1017528,8.68543469 C21.189599,9.77328086 21.800625,11.2487407 21.800625,12.7871875 C21.800625,15.1333213 20.3873481,17.2484397 18.2198031,18.1462662 C16.0522581,19.0440928 13.5573059,18.5478159 11.8983387,16.8888488 C10.2393716,15.2298816 9.74309475,12.7349294 10.6409213,10.5673844 C11.5387478,8.39983941 13.6538662,6.9865625 16,6.9865625 Z M16,8.73655084 C14.9249343,8.73397705 13.893512,9.16157954 13.135625,9.9240625 C11.7700745,11.2908363 11.5600945,13.4318652 12.6340891,15.0378958 C13.7080836,16.6439265 15.7669648,17.2677087 17.5517134,16.5277955 C19.3364619,15.7878823 20.3500577,13.8903261 19.9726804,11.9954949 C19.595303,10.1006637 17.9320452,8.73623362 16,8.73655084 Z" id="Combined-Shape" fill="#231815" fill-rule="nonzero"></path>
            </g>
        </g>
    </g>
</svg>
