<?xml version="1.0" encoding="UTF-8"?>
<svg width="32px" height="32px" viewBox="0 0 32 32" version="1.1" xmlns="http://www.w3.org/2000/svg" xmlns:xlink="http://www.w3.org/1999/xlink">
    <title>D93CD9BA-5A4C-48BC-A16A-834D729D562B</title>
    <g id="T3883" stroke="none" stroke-width="1" fill="none" fill-rule="evenodd">
        <g id="slice" transform="translate(-343.000000, -49.000000)">
            <g id="ic_default_pin_outline1" transform="translate(343.000000, 49.000000)">
                <rect id="Rectangle" x="0" y="0" width="32" height="32" opacity="0"></rect>
                <path d="M15.9821429,13.6190476 C14.6686786,13.6190476 13.6026786,12.552381 13.6026786,11.2380952 C13.6026786,9.92380952 14.6686786,8.85714286 15.9821429,8.85714286 C17.2956071,8.85714286 18.3616071,9.92380952 18.3616071,11.2380952 C18.3616071,12.552381 17.2956071,13.6190476 15.9821429,13.6190476 M15.9821429,7.66666667 C14.0107567,7.66666667 12.4129464,9.26547619 12.4129464,11.2380952 C12.4129464,13.2107143 14.0107567,14.8095238 15.9821429,14.8095238 C17.953529,14.8095238 19.5513393,13.2107143 19.5513393,11.2380952 C19.5513393,9.26547619 17.953529,7.66666667 15.9821429,7.66666667 M7.65401786,10.7642857 C7.65401786,6.57738095 11.5456317,2.9047619 15.9821429,2.9047619 C20.418654,2.9047619 24.3102679,6.57738095 24.3102679,10.7642857 C24.3102679,14.877381 21.2609844,19.7440476 15.9821429,28.0583333 C10.6414353,19.6380952 7.65401786,14.877381 7.65401786,10.7642857 M15.9821429,1.71428571 C10.9876473,1.71428571 6.46428571,5.76547619 6.46428571,10.7642857 C6.46428571,15.7619048 10.5914665,21.7285714 15.9821429,30.2857143 C21.3728192,21.7285714 25.5,15.7619048 25.5,10.7642857 C25.5,5.76547619 20.9778281,1.71428571 15.9821429,1.71428571" id="Shape" fill="#000000"></path>
            </g>
        </g>
    </g>
</svg>
