<?xml version="1.0" encoding="UTF-8"?>
<svg width="32px" height="32px" viewBox="0 0 32 32" version="1.1" xmlns="http://www.w3.org/2000/svg" xmlns:xlink="http://www.w3.org/1999/xlink">
    <title>5AC76FD8-038D-4CE1-85F0-1450D45E4A8D</title>
    <g id="T3883" stroke="none" stroke-width="1" fill="none" fill-rule="evenodd">
        <g id="slice" transform="translate(-343.000000, -235.000000)">
            <g id="ic_default_pin_outline4" transform="translate(343.000000, 235.000000)">
                <rect id="Rectangle" x="0" y="0" width="32" height="32"></rect>
                <path d="M16,29.75 C15.3304002,29.7482313 14.6850044,29.4994201 14.1875,29.05125 C12.9815625,27.9734375 10.6625,25.77 8.6784375,23.1184375 C6.204375,19.8125 4.949375,16.7675 4.949375,14.071875 C4.949375,10.931875 6.0871875,7.9753125 8.1534375,5.7465625 C9.14316206,4.67063449 10.3373481,3.8026957 11.66625,3.1934375 C14.4184922,1.93550664 17.5815078,1.93550664 20.33375,3.1934375 C21.6626519,3.8026957 22.8568379,4.67063449 23.8465625,5.7465625 C25.9128125,7.9753125 27.050625,10.931875 27.050625,14.071875 C27.050625,16.7675 25.795625,19.81125 23.32125,23.1184375 C21.3371875,25.7696875 19.0178125,27.97375 17.8125,29.05125 C17.3149956,29.4994201 16.6695998,29.7482313 16,29.75 Z M16,4.75 C13.7340625,4.75 11.5984375,5.7075 9.9865625,7.44625 C8.350625,9.21125 7.449375,11.5640625 7.449375,14.07125 C7.449375,15.19625 7.75875,16.454375 8.36875,17.81 C8.90875,19.009375 9.68625,20.29125 10.68125,21.62 C12.534375,24.098125 14.71875,26.1715625 15.85375,27.1875 C15.9475,27.2715625 16.051875,27.271875 16.14625,27.1875 C17.28125,26.1715625 19.465625,24.098125 21.319375,21.620625 C22.31375,20.291875 23.09125,19.01 23.631875,17.810625 C24.241875,16.455 24.55125,15.1971875 24.55125,14.071875 C24.55125,11.5640625 23.65,9.21125 22.0140625,7.446875 C20.4015625,5.7075 18.2659375,4.75 16,4.75 Z" id="Shape" fill="#000000" fill-rule="nonzero"></path>
                <path d="M16,17.03125 C13.6809375,17.03125 11.7940625,15.1446875 11.7940625,12.8253125 C11.7940625,10.5059375 13.6809375,8.6190625 16,8.6190625 C18.3190625,8.6190625 20.2059375,10.5059375 20.2059375,12.825 C20.2059375,15.1440625 18.3190625,17.03125 16,17.03125 Z M16,10.869375 C14.9197655,10.869375 14.0440625,11.745078 14.0440625,12.8253125 C14.0440625,13.905547 14.9197655,14.78125 16,14.78125 C17.0802345,14.78125 17.9559375,13.905547 17.9559375,12.8253125 C17.9549042,11.7454558 17.0798566,10.8702684 16,10.8690625 L16,10.869375 Z" id="Shape" fill="#040000" fill-rule="nonzero"></path>
            </g>
        </g>
    </g>
</svg>