<?xml version="1.0" encoding="UTF-8"?>
<svg width="32px" height="32px" viewBox="0 0 32 32" version="1.1" xmlns="http://www.w3.org/2000/svg" xmlns:xlink="http://www.w3.org/1999/xlink">
    <title>F7AB9B5D-E707-448E-A5B6-EB736FD34CAE</title>
    <g id="T3883" stroke="none" stroke-width="1" fill="none" fill-rule="evenodd">
        <g id="slice" transform="translate(-395.000000, -359.000000)">
            <g id="ic_default_search_fill2" transform="translate(395.000000, 359.000000)">
                <rect id="Rectangle" x="0" y="0" width="32" height="32" opacity="0"></rect>
                <path d="M13.5,1.85714286 C19.9301724,1.85714286 25.1428571,7.06982756 25.1428571,13.5 C25.1428571,16.0389465 24.3301701,18.3880798 22.9507371,20.3014589 L30.090194,27.4403383 L27.2617669,30.2687655 L20.0911364,23.0988736 C18.217085,24.388166 15.9466763,25.1428571 13.5,25.1428571 C7.06982756,25.1428571 1.85714286,19.9301724 1.85714286,13.5 C1.85714286,7.06982756 7.06982756,1.85714286 13.5,1.85714286 Z M13.5,5.57142857 C9.12117091,5.57142857 5.57142857,9.12117091 5.57142857,13.5 C5.57142857,17.8788291 9.12117091,21.4285714 13.5,21.4285714 C17.8788291,21.4285714 21.4285714,17.8788291 21.4285714,13.5 C21.4285714,9.12117091 17.8788291,5.57142857 13.5,5.57142857 Z" id="Combined-Shape" fill="#000000" fill-rule="nonzero"></path>
            </g>
        </g>
    </g>
</svg>
