<?xml version="1.0" encoding="UTF-8"?>
<svg width="32px" height="32px" viewBox="0 0 32 32" version="1.1" xmlns="http://www.w3.org/2000/svg" xmlns:xlink="http://www.w3.org/1999/xlink">
    <title>FEC6CA01-DCD9-4131-B43E-14F0D978BFAC</title>
    <g id="T3883" stroke="none" stroke-width="1" fill="none" fill-rule="evenodd">
        <g id="slice" transform="translate(-395.000000, -173.000000)">
            <g id="ic_default_search_outline3" transform="translate(395.000000, 173.000000)">
                <rect id="Rectangle" x="0" y="0" width="32" height="32" opacity="0"></rect>
                <g id="Group" transform="translate(2.535714, 2.392857)" fill="#000000" fill-rule="nonzero">
                    <path d="M10.0892857,0.652857143 C15.3008813,0.652857143 19.5257143,4.87769012 19.5257143,10.0892857 C19.5257143,12.2822974 18.7776309,14.3005849 17.5227305,15.9028816 L25.8553516,24.2359182 C26.3814436,24.7620102 26.3814436,25.6149739 25.8553516,26.1410659 C25.3643324,26.6320851 24.5885717,26.6648197 24.0595869,26.2392698 L23.9502039,26.1410659 L15.576029,17.767539 C14.0299533,18.8743085 12.1356915,19.5257143 10.0892857,19.5257143 C4.87769012,19.5257143 0.652857143,15.3008813 0.652857143,10.0892857 C0.652857143,4.87769012 4.87769012,0.652857143 10.0892857,0.652857143 Z M10.0892857,3.34714286 C6.36570303,3.34714286 3.34714286,6.36570303 3.34714286,10.0892857 C3.34714286,13.8128684 6.36570303,16.8314286 10.0892857,16.8314286 C13.8128684,16.8314286 16.8314286,13.8128684 16.8314286,10.0892857 C16.8314286,6.36570303 13.8128684,3.34714286 10.0892857,3.34714286 Z" id="Combined-Shape"></path>
                </g>
            </g>
        </g>
    </g>
</svg>
