<?xml version="1.0" encoding="UTF-8"?>
<svg width="32px" height="32px" viewBox="0 0 32 32" version="1.1" xmlns="http://www.w3.org/2000/svg" xmlns:xlink="http://www.w3.org/1999/xlink">
    <title>87336CF0-3ED5-471F-BB20-1FDD62093752</title>
    <g id="T3883" stroke="none" stroke-width="1" fill="none" fill-rule="evenodd">
        <g id="slice" transform="translate(-135.000000, -235.000000)">
            <g id="ic_default_search_outline4" transform="translate(135.000000, 235.000000)">
                <rect id="Rectangle" x="0" y="0" width="32" height="32" opacity="0"></rect>
                <path d="M27.375,25.6084375 L21.98,20.2121875 C23.3253619,18.4797237 24.0541624,16.3478697 24.0509375,14.154375 C24.0509375,8.6884375 19.62,4.2575 14.154375,4.2575 C8.68875,4.2575 4.2575,8.6875 4.2575,14.154375 C4.2575,19.62125 8.6875,24.0509375 14.154375,24.0509375 C16.3478697,24.0541624 18.4797237,23.3253619 20.2121875,21.98 L25.6084375,27.375 C26.1011227,27.8325884 26.8675189,27.8184404 27.3429796,27.3429796 C27.8184404,26.8675189 27.8325884,26.1011227 27.375,25.6084375 Z M14.154375,21.5509652 C10.6253095,21.5512132 7.58751285,19.0585025 6.89882742,15.5972867 C6.21014199,12.1360708 8.06238277,8.67037902 11.3227644,7.31974411 C14.583146,5.9691092 18.3435762,7.10971445 20.3042673,10.0439935 C22.2649584,12.9782725 21.8798123,16.8889601 19.384375,19.384375 C18.0004152,20.7761504 16.1171166,21.5563195 14.154375,21.5509652 Z" id="Shape" fill="#040000" fill-rule="nonzero"></path>
            </g>
        </g>
    </g>
</svg>
