<?xml version="1.0" encoding="UTF-8"?>
<svg width="32px" height="32px" viewBox="0 0 32 32" version="1.1" xmlns="http://www.w3.org/2000/svg" xmlns:xlink="http://www.w3.org/1999/xlink">
    <title>35B90A94-8823-471B-B6E1-78A35A33FCCC</title>
    <g id="T3883" stroke="none" stroke-width="1" fill="none" fill-rule="evenodd">
        <g id="slice" transform="translate(-135.000000, -111.000000)">
            <g id="ic_default_search_outline2" transform="translate(135.000000, 111.000000)">
                <rect id="Rectangle" x="0" y="0" width="32" height="32"></rect>
                <path d="M28.4490625,27.211875 L21.9803125,20.743125 C23.5764546,18.8592274 24.4507174,16.4691546 24.446875,14 C24.446875,8.2296875 19.769375,3.551875 13.9990625,3.551875 C8.22875,3.551875 3.5509375,8.22875 3.5509375,14 C3.5509375,19.77125 8.22875,24.446875 14,24.446875 C16.4693235,24.4500322 18.8593049,23.5749869 20.7428125,21.978125 L27.2115625,28.446875 L28.4490625,27.211875 Z M14,22.6968939 C9.55010288,22.6900122 5.82868111,19.3138397 5.38995854,14.8856173 C4.95123597,10.4573949 7.93783078,6.41663111 12.2998727,5.53673251 C16.6619147,4.65683391 20.9814087,7.22383435 22.2936399,11.4758551 C23.6058712,15.7278759 21.4842647,20.2826872 17.385,22.0140625 C16.3140916,22.46707 15.1627789,22.6993095 14,22.6968939 L14,22.6968939 Z" id="Shape" fill="#231815" fill-rule="nonzero"></path>
            </g>
        </g>
    </g>
</svg>