<?xml version="1.0" encoding="UTF-8"?>
<svg width="32px" height="32px" viewBox="0 0 32 32" version="1.1" xmlns="http://www.w3.org/2000/svg" xmlns:xlink="http://www.w3.org/1999/xlink">
    <title>CA1C8761-D320-447D-B034-E9462A37D843</title>
    <g id="T3883" stroke="none" stroke-width="1" fill="none" fill-rule="evenodd">
        <g id="slice" transform="translate(-135.000000, -49.000000)">
            <g id="ic_default_search_outline1" transform="translate(135.000000, 49.000000)">
                <rect id="Rectangle" x="0" y="0" width="31.9687805" height="31.9687805"></rect>
                <path d="M20.4751714,21.2992 C18.513587,23.0673067 15.9167896,24.1430894 13.0705691,24.1430894 C6.95970341,24.1430894 1.99804878,19.1814348 1.99804878,13.0705691 C1.99804878,6.95970341 6.95970341,1.99804878 13.0705691,1.99804878 C19.1814348,1.99804878 24.1430894,6.95970341 24.1430894,13.0705691 C24.1430894,15.9167896 23.0673067,18.513587 21.2992,20.4751714 L29.9707317,29.1467031 L29.1467031,29.9707317 L20.4751714,21.2992 Z M13.0705691,3.16357724 C18.5380631,3.16357724 22.977561,7.60307512 22.977561,13.0705691 C22.977561,18.5380631 18.5380631,22.977561 13.0705691,22.977561 C7.60307512,22.977561 3.16357724,18.5380631 3.16357724,13.0705691 C3.16357724,7.60307512 7.60307512,3.16357724 13.0705691,3.16357724 Z" id="Shape" fill="#000000"></path>
            </g>
        </g>
    </g>
</svg>