<?xml version="1.0" encoding="UTF-8"?>
<svg width="32px" height="32px" viewBox="0 0 32 32" version="1.1" xmlns="http://www.w3.org/2000/svg" xmlns:xlink="http://www.w3.org/1999/xlink">
    <title>29845210-F62C-46D3-93B5-18827DB218F9</title>
    <g id="T3883" stroke="none" stroke-width="1" fill="none" fill-rule="evenodd">
        <g id="slice" transform="translate(-195.000000, -892.000000)">
            <g id="share" transform="translate(195.000000, 892.000000)">
                <polygon id="Path" points="0 0 32 0 32 32 0 32"></polygon>
                <path d="M24,21.44 C22.9866667,21.44 22.08,21.84 21.3866667,22.4666667 L11.88,16.9333333 C11.9466667,16.6266667 12,16.32 12,16 C12,15.68 11.9466667,15.3733333 11.88,15.0666667 L21.28,9.58666667 C22,10.2533333 22.9466667,10.6666667 24,10.6666667 C26.2133333,10.6666667 28,8.88 28,6.66666667 C28,4.45333333 26.2133333,2.66666667 24,2.66666667 C21.7866667,2.66666667 20,4.45333333 20,6.66666667 C20,6.98666667 20.0533333,7.29333333 20.12,7.6 L10.72,13.08 C10,12.4133333 9.05333333,12 8,12 C5.78666667,12 4,13.7866667 4,16 C4,18.2133333 5.78666667,20 8,20 C9.05333333,20 10,19.5866667 10.72,18.92 L20.2133333,24.4666667 C20.1466667,24.7466667 20.1066667,25.04 20.1066667,25.3333333 C20.1066667,27.48 21.8533333,29.2266667 24,29.2266667 C26.1466667,29.2266667 27.8933333,27.48 27.8933333,25.3333333 C27.8933333,23.1866667 26.1466667,21.44 24,21.44 Z" id="Path" fill="#000000" fill-rule="nonzero"></path>
            </g>
        </g>
    </g>
</svg>