<?xml version="1.0" encoding="UTF-8"?>
<svg width="32px" height="32px" viewBox="0 0 32 32" version="1.1" xmlns="http://www.w3.org/2000/svg" xmlns:xlink="http://www.w3.org/1999/xlink">
    <title>21A16BF3-DC61-4456-835C-56303AD05CB8</title>
    <g id="T3883" stroke="none" stroke-width="1" fill="none" fill-rule="evenodd">
        <g id="slice" transform="translate(-187.000000, -49.000000)">
            <g id="ic_default_shopping-cart_outline1" transform="translate(187.000000, 49.000000)">
                <rect id="Rectangle" x="0.00390243902" y="0" width="31.9687805" height="31.9687805" opacity="0"></rect>
                <path d="M18.4642857,24.9889286 C19.4763475,24.9889286 20.2967857,25.8093668 20.2967857,26.8214286 C20.2967857,27.8334904 19.4763475,28.6539286 18.4642857,28.6539286 C17.4522239,28.6539286 16.6317857,27.8334904 16.6317857,26.8214286 C16.6317857,25.8093668 17.4522239,24.9889286 18.4642857,24.9889286 Z M10.0357143,24.9889286 C11.0477761,24.9889286 11.8682143,25.8093668 11.8682143,26.8214286 C11.8682143,27.8334904 11.0477761,28.6539286 10.0357143,28.6539286 C9.02365248,28.6539286 8.20321429,27.8334904 8.20321429,26.8214286 C8.20321429,25.8093668 9.02365248,24.9889286 10.0357143,24.9889286 Z M18.4642857,26.1539286 C18.0956356,26.1539286 17.7967857,26.4527785 17.7967857,26.8214286 C17.7967857,27.1900786 18.0956356,27.4889286 18.4642857,27.4889286 C18.8329358,27.4889286 19.1317857,27.1900786 19.1317857,26.8214286 C19.1317857,26.4527785 18.8329358,26.1539286 18.4642857,26.1539286 Z M10.0357143,26.1539286 C9.66706422,26.1539286 9.36821429,26.4527785 9.36821429,26.8214286 C9.36821429,27.1900786 9.66706422,27.4889286 10.0357143,27.4889286 C10.4043644,27.4889286 10.7032143,27.1900786 10.7032143,26.8214286 C10.7032143,26.4527785 10.4043644,26.1539286 10.0357143,26.1539286 Z M29.9566534,4.34731707 L29.9566534,5.51225893 L26.5037658,5.51225893 L22.2610475,22.9863868 L6.74285698,22.9863868 L1.99804878,7.83864783 L24.7400438,7.83864783 L25.5881215,4.34731707 L29.9566534,4.34731707 Z M24.4581278,9.00358969 L3.65110128,9.00358969 L7.60374901,21.821445 L21.3430733,21.821445 L24.4581278,9.00358969 Z" id="Combined-Shape" fill="#000000" fill-rule="nonzero"></path>
            </g>
        </g>
    </g>
</svg>
