<?xml version="1.0" encoding="UTF-8"?>
<svg width="32px" height="32px" viewBox="0 0 32 32" version="1.1" xmlns="http://www.w3.org/2000/svg" xmlns:xlink="http://www.w3.org/1999/xlink">
    <title>1BD05DD9-D9DF-4770-9B9A-DF86482FD3D3</title>
    <g id="T3883" stroke="none" stroke-width="1" fill="none" fill-rule="evenodd">
        <g id="slice" transform="translate(-187.000000, -173.000000)">
            <g id="ic_default_shopping-cart_outline3" transform="translate(187.000000, 173.000000)">
                <rect id="Rectangle" x="0" y="0" width="32" height="32"></rect>
                <path d="M11.9383894,24.84393 C13.245208,24.84393 14.3057992,25.9018564 14.3057992,27.2083657 C14.3057992,28.5148751 13.245208,29.5728014 11.9383894,29.5728014 C10.6315707,29.5728014 9.57097952,28.5148751 9.57097952,27.2083657 C9.57097952,25.9018564 10.6315707,24.84393 11.9383894,24.84393 Z M24.9591435,24.84393 C26.2659621,24.84393 27.3265533,25.9018564 27.3265533,27.2083657 C27.3265533,28.5148751 26.2659621,29.5728014 24.9591435,29.5728014 C23.6523248,29.5728014 22.5917336,28.5148751 22.5917336,27.2083657 C22.5917336,25.9018564 23.6523248,24.84393 24.9591435,24.84393 Z M7.20356968,2.41004508 C7.76190007,2.41004508 8.24346984,2.80001068 8.36070112,3.34433543 L8.36414176,3.36087713 L9.3579375,8.3136875 L28.5102582,8.31369901 C29.2457054,8.31369901 29.8012011,8.97656364 29.6768816,9.69780986 L29.6729058,9.71968305 L27.7789779,19.6260144 L27.7772441,19.6348991 C27.445162,21.3026277 25.9752033,22.496982 24.2778024,22.4888584 L12.7144268,22.4888584 C11.0341714,22.4968997 9.57678996,21.3266501 9.22572708,19.6869489 L9.21532678,19.6366081 L7.237625,9.78046875 L7.23361692,9.76358285 C7.22799979,9.73913794 7.22313961,9.714404 7.21906238,9.68940702 L7.21790625,9.682125 L6.23375,4.7774375 L2.46875,4.77745492 C1.82154525,4.77745492 1.29565671,4.25803843 1.28504508,3.61332473 L1.28504508,3.59375 C1.28504508,2.94654525 1.80446157,2.42065671 2.44917527,2.41004508 L7.20356968,2.41004508 Z M27.0787813,10.6810937 L9.83296875,10.6810937 L11.5368126,19.1725713 C11.64708,19.7263387 12.1367373,20.1241746 12.703488,20.1214711 L24.2715437,20.1212231 C24.839821,20.1320861 25.3340584,19.7398965 25.4519594,19.1893042 L25.4547188,19.1758437 L27.0787813,10.6810937 Z" id="Combined-Shape" fill="#000000" fill-rule="nonzero"></path>
            </g>
        </g>
    </g>
</svg>