<?xml version="1.0" encoding="UTF-8"?>
<svg width="32px" height="32px" viewBox="0 0 32 32" version="1.1" xmlns="http://www.w3.org/2000/svg" xmlns:xlink="http://www.w3.org/1999/xlink">
    <title>26285FD5-A666-4F6A-ABA6-8EC49EF5A08B</title>
    <g id="T3883" stroke="none" stroke-width="1" fill="none" fill-rule="evenodd">
        <g id="slice" transform="translate(-81.000000, -439.000000)">
            <g id="shopping_cart" transform="translate(81.000000, 439.000000)">
                <path d="M9.33333333,24 C7.86666667,24 6.68,25.2 6.68,26.6666667 C6.68,28.1333333 7.86666667,29.3333333 9.33333333,29.3333333 C10.8,29.3333333 12,28.1333333 12,26.6666667 C12,25.2 10.8,24 9.33333333,24 Z M1.33333333,2.66666667 L1.33333333,5.33333333 L4,5.33333333 L8.8,15.4533333 L7,18.72 C6.78666667,19.0933333 6.66666667,19.5333333 6.66666667,20 C6.66666667,21.4666667 7.86666667,22.6666667 9.33333333,22.6666667 L25.3333333,22.6666667 L25.3333333,20 L9.89333333,20 C9.70666667,20 9.56,19.8533333 9.56,19.6666667 L9.6,19.5066667 L10.8,17.3333333 L20.7333333,17.3333333 C21.7333333,17.3333333 22.6133333,16.7866667 23.0666667,15.96 L27.84,7.30666667 C27.9466667,7.12 28,6.89333333 28,6.66666667 C28,5.93333333 27.4,5.33333333 26.6666667,5.33333333 L6.94666667,5.33333333 L5.69333333,2.66666667 L1.33333333,2.66666667 Z M22.6666667,24 C21.2,24 20.0133333,25.2 20.0133333,26.6666667 C20.0133333,28.1333333 21.2,29.3333333 22.6666667,29.3333333 C24.1333333,29.3333333 25.3333333,28.1333333 25.3333333,26.6666667 C25.3333333,25.2 24.1333333,24 22.6666667,24 Z" id="Shape" fill="#000000" fill-rule="nonzero"></path>
            </g>
        </g>
    </g>
</svg>
