<?xml version="1.0" encoding="UTF-8"?>
<svg width="32px" height="32px" viewBox="0 0 32 32" version="1.1" xmlns="http://www.w3.org/2000/svg" xmlns:xlink="http://www.w3.org/1999/xlink">
    <title>0C7503EC-0E17-439D-B076-ABCDC1598C0C</title>
    <g id="T3883" stroke="none" stroke-width="1" fill="none" fill-rule="evenodd">
        <g id="slice" transform="translate(-187.000000, -297.000000)">
            <g id="ic_default_shopping-bag_fill1" transform="translate(187.000000, 297.000000)">
                <polygon id="Path" points="0 0 32 0 32 32 0 32"></polygon>
                <path d="M16,1.33333333 C17.7681099,1.33333333 19.4638027,2.03571227 20.7140452,3.28595479 C21.9642877,4.53619732 22.6666667,6.23189007 22.6666667,8 L22.6666667,10.6666667 L26.6666667,10.6666667 C27.4030463,10.6666667 28,11.2636203 28,12 L28,28 C28,28.7363797 27.4030463,29.3333333 26.6666667,29.3333333 L5.33333333,29.3333333 C4.59695367,29.3333333 4,28.7363797 4,28 L4,12 C4,11.2636203 4.59695367,10.6666667 5.33333333,10.6666667 L9.33333333,10.6666667 L9.33333333,8 C9.33333333,4.31810167 12.3181017,1.33333333 16,1.33333333 Z M10.6548214,17.3453571 C11.391234,17.3453571 11.9882143,16.7483768 11.9882143,16.0119643 C11.9882143,15.2755517 11.391234,14.6785714 10.6548214,14.6785714 C9.91840889,14.6785714 9.32142857,15.2755517 9.32142857,16.0119643 C9.32142857,16.7483768 9.91840889,17.3453571 10.6548214,17.3453571 Z M21.3333929,17.3453571 C22.0698054,17.3453571 22.6667857,16.7483768 22.6667857,16.0119643 C22.6667857,15.2755517 22.0698054,14.6785714 21.3333929,14.6785714 C20.5969803,14.6785714 20,15.2755517 20,16.0119643 C20,16.7483768 20.5969803,17.3453571 21.3333929,17.3453571 Z M16,4 C13.8819232,3.99988201 12.1309272,5.65090463 12.0066667,7.76533333 L12,8 L12,10.6666667 L20,10.6666667 L20,8 C20.000118,5.88192319 18.3490954,4.13092717 16.2346667,4.00666667 L16,4 Z" id="Shape" fill="#000000" fill-rule="nonzero"></path>
            </g>
        </g>
    </g>
</svg>