<?xml version="1.0" encoding="UTF-8"?>
<svg width="32px" height="32px" viewBox="0 0 32 32" version="1.1" xmlns="http://www.w3.org/2000/svg" xmlns:xlink="http://www.w3.org/1999/xlink">
    <title>A78DA2DF-FA06-41EB-9A7C-55B6BC3C422D</title>
    <g id="T3883" stroke="none" stroke-width="1" fill="none" fill-rule="evenodd">
        <g id="slice" transform="translate(-187.000000, -359.000000)">
            <g id="ic_default_shopping-cart_fill2" transform="translate(187.000000, 359.000000)">
                <rect id="Rectangle" x="0" y="0" width="32" height="32" opacity="0"></rect>
                <path d="M10.0178571,25.6428571 C11.2900845,25.6428571 12.3214286,26.6662063 12.3214286,27.9285714 C12.3214286,29.1909366 11.2900845,30.2142857 10.0178571,30.2142857 C8.74562977,30.2142857 7.71428571,29.1909366 7.71428571,27.9285714 C7.71428571,26.6662063 8.74562977,25.6428571 10.0178571,25.6428571 Z M24.4107143,25.6428571 C25.6829417,25.6428571 26.7142857,26.6662063 26.7142857,27.9285714 C26.7142857,29.1909366 25.6829417,30.2142857 24.4107143,30.2142857 C23.1384869,30.2142857 22.1071429,29.1909366 22.1071429,27.9285714 C22.1071429,26.6662063 23.1384869,25.6428571 24.4107143,25.6428571 Z M7.07846734,1.78571429 L7.54571429,5.86671429 L29.3214286,5.86698921 L27.7217504,18.8102258 L9.02871429,18.8097143 L9.30409923,21.2079832 L27.7217504,21.2079832 L27.7217504,24.8214286 L6.07788882,24.8214286 L3.85222215,5.39915966 L1.53571429,5.39915966 L1.53571429,1.78571429 L7.07846734,1.78571429 Z" id="Combined-Shape" fill="#000000" fill-rule="nonzero"></path>
            </g>
        </g>
    </g>
</svg>
