<?xml version="1.0" encoding="UTF-8"?>
<svg width="32px" height="32px" viewBox="0 0 32 32" version="1.1" xmlns="http://www.w3.org/2000/svg" xmlns:xlink="http://www.w3.org/1999/xlink">
    <title>81A084BC-C785-4398-B1DE-1969A940C8E1</title>
    <g id="T3883" stroke="none" stroke-width="1" fill="none" fill-rule="evenodd">
        <g id="slice" transform="translate(-187.000000, -235.000000)">
            <g id="ic_default_shopping-cart_outline4" transform="translate(187.000000, 235.000000)">
                <path d="M22.9109375,29.0959375 C21.4519379,29.0959375 20.1366067,28.2170407 19.5783009,26.8690887 C19.0199951,25.5211368 19.3286681,23.9695966 20.3603813,22.9379728 C21.3920945,21.906349 22.9436614,21.5978104 24.2915649,22.156233 C25.6394685,22.7146556 26.5182514,24.0300629 26.518125,25.4890625 C26.5158858,27.4802783 24.9021535,29.0938709 22.9109375,29.0959375 L22.9109375,29.0959375 Z M22.9109375,24.131875 C22.3620064,24.131875 21.8671266,24.4625431 21.6570597,24.9696893 C21.4469929,25.4768355 21.5631081,26.0605861 21.951261,26.448739 C22.3394139,26.8368919 22.9231645,26.9530071 23.4303107,26.7429403 C23.9374569,26.5328734 24.268125,26.0379936 24.268125,25.4890625 C24.2674359,24.7397942 23.6602058,24.1325641 22.9109375,24.131875 Z" id="Shape" fill="#040000" fill-rule="nonzero"></path>
                <path d="M11.6590625,29.0959375 C10.2000345,29.0960639 8.88460735,28.2172472 8.32620311,26.8693053 C7.76779887,25.5213633 8.07639466,23.9697719 9.10808327,22.9380833 C10.1397719,21.9063947 11.6913633,21.5977989 13.0393053,22.1562031 C14.3872472,22.7146073 15.2660639,24.0300345 15.2659375,25.4890625 C15.2636987,27.4801565 13.6501565,29.0936987 11.6590625,29.0959375 Z M11.6590625,24.131875 C11.110103,24.1317486 10.6151273,24.4623366 10.404962,24.9694728 C10.1947967,25.476609 10.3108347,26.0604107 10.698963,26.4486284 C11.0870913,26.8368461 11.6708664,26.9530186 12.178051,26.7429701 C12.6852355,26.5329216 13.0159375,26.038022 13.0159375,25.4890625 C13.0152486,24.739916 12.4082088,24.1327364 11.6590625,24.131875 L11.6590625,24.131875 Z" id="Shape" fill="#040000" fill-rule="nonzero"></path>
                <path d="M22.78125,20.875 L11.773125,20.875 C10.9956965,20.8725824 10.2418988,20.6075143 9.6340625,20.1228125 C8.986875,19.606875 8.57,18.891875 8.4603125,18.1096875 L6.8834375,6.93 C6.834375,6.5803125 6.4828125,6.3171875 6.0653125,6.31655969 L3.7328125,6.31655969 C3.04245656,6.31655969 2.4828125,5.75691844 2.4828125,5.0665625 C2.4828125,4.37620656 3.04245656,3.81655969 3.7328125,3.81655969 L6.066875,3.81655969 C6.85399203,3.81555357 7.61727549,4.08657771 8.2275,4.58375 C8.84233036,5.0839704 9.24630995,5.79732182 9.3590625,6.581875 L9.5234375,7.745625 L26.5571875,7.745625 C26.9300857,7.74554116 27.2835493,7.91194612 27.5210755,8.19940795 C27.7586018,8.48686978 27.8553845,8.86536711 27.785,9.2315625 L26.041875,18.298125 L26.0371875,18.321875 C25.72125,19.81 24.356875,20.875 22.78125,20.875 Z M9.875,10.245625 L10.9375,17.76125 C10.9834375,18.08875 11.375,18.3746875 11.7746875,18.3746875 L22.7790625,18.3746875 C23.1709375,18.3746875 23.5159375,18.1353125 23.5896875,17.8121875 L25.0440625,10.246875 L9.875,10.245625 Z" id="Shape" fill="#040000" fill-rule="nonzero"></path>
                <rect id="Rectangle" x="0" y="0" width="32" height="32" opacity="0"></rect>
            </g>
        </g>
    </g>
</svg>
