<?xml version="1.0" encoding="UTF-8"?>
<svg width="32px" height="32px" viewBox="0 0 32 32" version="1.1" xmlns="http://www.w3.org/2000/svg" xmlns:xlink="http://www.w3.org/1999/xlink">
    <title>3BB07E7C-9715-4F96-B488-42E35C997E5D</title>
    <g id="T3883" stroke="none" stroke-width="1" fill="none" fill-rule="evenodd">
        <g id="slice" transform="translate(-187.000000, -111.000000)">
            <g id="ic_default_shopping-bag_outline2" transform="translate(187.000000, 111.000000)">
                <rect id="Rectangle" x="0" y="0" width="32" height="32" opacity="0"></rect>
                <path d="M22.028125,11.4521875 L22.028125,10.1675 C22.028125,8.451875 21.41,6.835625 20.2875,5.61625 C19.1465625,4.376875 17.6240625,3.694375 16,3.694375 C14.3759375,3.694375 12.8534375,4.376875 11.7125,5.61625 C10.59,6.835 9.971875,8.451875 9.971875,10.1675 L9.971875,11.4521875 L2.38,11.4521875 L6.5825,28.305625 L25.4175,28.305625 L29.62,11.4521875 L22.028125,11.4521875 Z M11.721875,10.1675 C11.721875,7.563125 13.6409375,5.444375 16,5.444375 C18.3590625,5.444375 20.278125,7.5625 20.278125,10.1675 L20.278125,11.4521875 L11.721875,11.4521875 L11.721875,10.1675 Z M24.0503125,26.555625 L7.9496875,26.555625 L4.62,13.2021875 L9.971875,13.2021875 L9.971875,16.9271875 L11.721875,16.9271875 L11.721875,13.2021875 L20.278125,13.2021875 L20.278125,16.9271875 L22.028125,16.9271875 L22.028125,13.2021875 L27.38,13.2021875 L24.0503125,26.555625 Z" id="Shape" fill="#231815" fill-rule="nonzero"></path>
            </g>
        </g>
    </g>
</svg>
