<?xml version="1.0" encoding="UTF-8"?>
<svg width="32px" height="32px" viewBox="0 0 32 32" version="1.1" xmlns="http://www.w3.org/2000/svg" xmlns:xlink="http://www.w3.org/1999/xlink">
    <title>A635417F-E080-44AC-B645-CDDB92FD0E96</title>
    <g id="T3883" stroke="none" stroke-width="1" fill="none" fill-rule="evenodd">
        <g id="slice" transform="translate(-29.000000, -491.000000)">
            <g id="shopping_basket" transform="translate(29.000000, 491.000000)">
                <polygon id="Path" points="0 0 32 0 32 32 0 32"></polygon>
                <path d="M22.9466667,12 L17.1066667,3.25333333 C16.8533333,2.88 16.4266667,2.69333333 16,2.69333333 C15.5733333,2.69333333 15.1466667,2.88 14.8933333,3.26666667 L9.05333333,12 L2.66666667,12 C1.93333333,12 1.33333333,12.6 1.33333333,13.3333333 C1.33333333,13.4533333 1.34666667,13.5733333 1.38666667,13.6933333 L4.77333333,26.0533333 C5.08,27.1733333 6.10666667,28 7.33333333,28 L24.6666667,28 C25.8933333,28 26.92,27.1733333 27.24,26.0533333 L30.6266667,13.6933333 L30.6666667,13.3333333 C30.6666667,12.6 30.0666667,12 29.3333333,12 L22.9466667,12 Z M12,12 L16,6.13333333 L20,12 L12,12 Z M16,22.6666667 C14.5333333,22.6666667 13.3333333,21.4666667 13.3333333,20 C13.3333333,18.5333333 14.5333333,17.3333333 16,17.3333333 C17.4666667,17.3333333 18.6666667,18.5333333 18.6666667,20 C18.6666667,21.4666667 17.4666667,22.6666667 16,22.6666667 Z" id="Shape" fill="#000000" fill-rule="nonzero"></path>
            </g>
        </g>
    </g>
</svg>