<?xml version="1.0" encoding="UTF-8"?>
<svg width="32px" height="32px" viewBox="0 0 32 32" version="1.1" xmlns="http://www.w3.org/2000/svg" xmlns:xlink="http://www.w3.org/1999/xlink">
    <title>1725E5B0-A735-4BA4-905F-880381F12F84</title>
    <g id="T3883" stroke="none" stroke-width="1" fill="none" fill-rule="evenodd">
        <g id="slice" transform="translate(-291.000000, -297.000000)">
            <g id="ic_default_sms_fill1" transform="translate(291.000000, 297.000000)">
                <polygon id="Path" points="0 0 32 0 32 32 0 32"></polygon>
                <path d="M19.2666667,24.7619048 L16.3636505,29.4168869 C16.2384003,29.6177255 15.9740529,29.679002 15.7732143,29.5537517 C15.7177527,29.5191639 15.6709373,29.4723484 15.6363495,29.4168869 L12.7333333,24.7619048 L12.7333333,24.7619048 L4,24.7619048 C3.26362033,24.7619048 2.66666667,24.1649511 2.66666667,23.4285714 L2.66666667,5.33333333 C2.66666667,4.59695367 3.26362033,4 4,4 L28,4 C28.7363797,4 29.3333333,4.59695367 29.3333333,5.33333333 L29.3333333,23.4285714 C29.3333333,24.1649511 28.7363797,24.7619048 28,24.7619048 L19.2666667,24.7619048 Z M21.3333929,15.9882143 C22.0698054,15.9882143 22.6667857,15.391234 22.6667857,14.6548214 C22.6667857,13.9184089 22.0698054,13.3214286 21.3333929,13.3214286 C20.5969803,13.3214286 20,13.9184089 20,14.6548214 C20,15.391234 20.5969803,15.9882143 21.3333929,15.9882143 Z M16.0119643,15.9882143 C16.7483768,15.9882143 17.3453571,15.391234 17.3453571,14.6548214 C17.3453571,13.9184089 16.7483768,13.3214286 16.0119643,13.3214286 C15.2755517,13.3214286 14.6785714,13.9184089 14.6785714,14.6548214 C14.6785714,15.391234 15.2755517,15.9882143 16.0119643,15.9882143 Z M10.6548214,15.9882143 C11.391234,15.9882143 11.9882143,15.391234 11.9882143,14.6548214 C11.9882143,13.9184089 11.391234,13.3214286 10.6548214,13.3214286 C9.91840889,13.3214286 9.32142857,13.9184089 9.32142857,14.6548214 C9.32142857,15.391234 9.91840889,15.9882143 10.6548214,15.9882143 Z" id="Combined-Shape" fill="#000000" fill-rule="nonzero"></path>
            </g>
        </g>
    </g>
</svg>