<?xml version="1.0" encoding="UTF-8"?>
<svg width="32px" height="32px" viewBox="0 0 32 32" version="1.1" xmlns="http://www.w3.org/2000/svg" xmlns:xlink="http://www.w3.org/1999/xlink">
    <title>A0334F40-7A01-419D-BED1-DF8821F789BE</title>
    <g id="T3883" stroke="none" stroke-width="1" fill="none" fill-rule="evenodd">
        <g id="slice" transform="translate(-291.000000, -173.000000)">
            <g id="ic_default_sms_outline3" transform="translate(291.000000, 173.000000)">
                <rect id="Rectangle" x="0" y="0" width="32" height="32" opacity="0"></rect>
                <path d="M16.7142857,3.58142857 C10.2304628,3.58142857 4.97428571,8.83760561 4.97428571,15.3214286 L4.98131844,15.731116 C5.02814295,17.0932543 5.30818456,18.4189987 5.80333472,19.6624371 L5.897,19.885 L3.65143541,26.6222328 L3.61793458,26.7389639 C3.37469581,27.7476616 4.34120263,28.6641947 5.35530718,28.3262893 L12.048,26.095 L12.2812274,26.195277 C13.6748368,26.7640093 15.1743454,27.0614286 16.7142857,27.0614286 C23.1981087,27.0614286 28.4542857,21.8052515 28.4542857,15.3214286 C28.4542857,8.83760561 23.1981087,3.58142857 16.7142857,3.58142857 Z M16.7142857,6.27571429 C21.7100958,6.27571429 25.76,10.3256185 25.76,15.3214286 C25.76,20.3172386 21.7100958,24.3671429 16.7142857,24.3671429 C15.309565,24.3671429 13.9532118,24.0476376 12.722668,23.4414062 L12.5836246,23.3823434 C12.3004739,23.280401 11.9897223,23.2757473 11.7014633,23.3717968 L7.059,24.918 L8.61846919,20.2410535 C8.72910051,19.9091523 8.70627288,19.5472302 8.55481598,19.2318598 C7.97408842,18.0226426 7.66857143,16.6951121 7.66857143,15.3214286 C7.66857143,10.3256185 11.7184757,6.27571429 16.7142857,6.27571429 Z" id="Combined-Shape" fill="#000000" fill-rule="nonzero"></path>
            </g>
        </g>
    </g>
</svg>
