<?xml version="1.0" encoding="UTF-8"?>
<svg width="32px" height="32px" viewBox="0 0 32 32" version="1.1" xmlns="http://www.w3.org/2000/svg" xmlns:xlink="http://www.w3.org/1999/xlink">
    <title>94F3ECF1-09CC-4CB2-A77F-65A55998CFD8</title>
    <g id="T3883" stroke="none" stroke-width="1" fill="none" fill-rule="evenodd">
        <g id="slice" transform="translate(-291.000000, -49.000000)">
            <g id="ic_default_sms_outline1" transform="translate(291.000000, 49.000000)">
                <path d="M25.0200395,19.3635179 C25.0200395,19.9868717 24.5141292,20.492782 23.8907754,20.492782 C23.2674216,20.492782 22.7615112,19.9868717 22.7615112,19.3635179 C22.7615112,18.7401641 23.2674216,18.2342537 23.8907754,18.2342537 C24.5141292,18.2342537 25.0200395,18.7401641 25.0200395,19.3635179 M21.6322471,19.3635179 C21.6322471,19.9868717 21.1263367,20.492782 20.5029829,20.492782 C19.8796291,20.492782 19.3737188,19.9868717 19.3737188,19.3635179 C19.3737188,18.7401641 19.8796291,18.2342537 20.5029829,18.2342537 C21.1263367,18.2342537 21.6322471,18.7401641 21.6322471,19.3635179 M18.2444546,19.3635179 C18.2444546,19.9868717 17.7385443,20.492782 17.1151904,20.492782 C16.4918366,20.492782 15.9859263,19.9868717 15.9859263,19.3635179 C15.9859263,18.7401641 16.4918366,18.2342537 17.1151904,18.2342537 C17.7385443,18.2342537 18.2444546,18.7401641 18.2444546,19.3635179 M24.35942,24.9488584 C23.2301558,25.23795 22.1133136,25.4931637 20.6057459,25.4931637 C16.6928456,25.4931637 12.5981338,23.1612332 12.5981338,19.3691642 C12.5981338,15.8368259 16.1440233,12.9639779 20.5029829,12.9639779 C24.8438743,12.9639779 28.407832,15.8345674 28.407832,19.3691642 C28.407832,21.1658235 27.6783274,22.2228147 26.7353918,23.3520789 L27.6828444,26.3852824 L24.35942,24.9488584 L24.35942,24.9488584 Z M9.25777044,21.1375919 L4.30143005,23.2786767 L5.71978584,18.7480689 C4.45388072,17.2337257 3.56402056,15.7385799 3.56402056,13.4416566 C3.56402056,8.61179384 8.3769444,4.68308384 14.29203,4.68308384 C19.9586776,4.68308384 24.5999533,8.28995356 24.9827738,12.8386296 C23.6389495,12.1994661 22.102021,11.8347137 20.5029829,11.8347137 C15.7612027,11.8347137 11.4688697,14.9932656 11.4688697,19.3691642 C11.4688697,20.1732003 11.6348715,20.950134 11.9329972,21.6830265 C10.8568085,21.5407392 10.1871548,21.3758666 9.25777044,21.1375919 M29.5370962,19.3691642 C29.5370962,16.9164025 28.1831084,14.8351686 26.1470452,13.4856979 L26.1493037,13.4416566 C26.1493037,7.69821914 20.5165341,3.55381969 14.29203,3.55381969 C8.02913104,3.55381969 2.4347564,7.72983854 2.4347564,13.4416566 C2.4347564,15.4675565 3.16426105,17.45732 4.45726851,18.9998948 L2.48783182,25.2921547 L9.35149936,22.3278363 C10.4604368,22.6135401 11.5332377,22.7874468 12.5699022,22.8800465 C14.0571431,25.0854994 16.9469301,26.6224279 20.6057459,26.6224279 C21.7564661,26.6224279 22.982847,26.4699772 24.2668203,26.1391028 L29.4964427,28.3976311 L27.9967799,23.6039048 C28.9803689,22.4272115 29.5370962,20.911739 29.5370962,19.3691642" id="Shape" fill="#000000"></path>
                <rect id="Rectangle" x="0.00782446096" y="0.00782446096" width="31.9687805" height="31.9687805"></rect>
            </g>
        </g>
    </g>
</svg>