<?xml version="1.0" encoding="UTF-8"?>
<svg width="32px" height="32px" viewBox="0 0 32 32" version="1.1" xmlns="http://www.w3.org/2000/svg" xmlns:xlink="http://www.w3.org/1999/xlink">
    <title>3AFEE570-56E5-4306-B7AC-D2645B0B9996</title>
    <g id="T3883" stroke="none" stroke-width="1" fill="none" fill-rule="evenodd">
        <g id="slice" transform="translate(-291.000000, -235.000000)">
            <g id="ic_default_speaker_outline4" transform="translate(291.000000, 235.000000)">
                <path d="M27.4725,12.0675 C26.75125,11.2771875 25.851875,10.7459375 24.8696875,10.5159375 L24.8696875,6.15625 C24.8696875,5.1146875 24.3521875,4.1840625 23.4853125,3.666875 C22.681192,3.18157368 21.6798749,3.15968176 20.8553125,3.609375 L10.3903125,9.2553125 L6.179375,9.2553125 C4.4446875,9.2553125 3.0334375,10.731875 3.0334375,12.5471875 L3.0334375,19.4534375 C3.0334375,21.26875 4.4446875,22.7453125 6.179375,22.7453125 L10.3903125,22.7453125 L20.8553125,28.39 L20.8553125,28.39 C21.6798749,28.8396932 22.681192,28.8178013 23.4853125,28.3325 C24.3521875,27.8153125 24.8696875,26.8846875 24.8696875,25.843125 L24.8696875,21.4840625 C25.851875,21.2540625 26.75125,20.7228125 27.4725,19.9325 C28.4375,18.876875 28.9665625,17.4803125 28.9665625,16 C28.9665625,14.5196875 28.4375,13.123125 27.4725,12.0675 Z M5.285,19.4528125 L5.285,12.5465625 C5.285,11.971875 5.686875,11.5046875 6.1809375,11.5046875 L9.549375,11.5046875 L9.549375,20.4946875 L6.179375,20.4946875 C5.6853125,20.4946875 5.2834375,20.0275 5.2834375,19.4528125 L5.285,19.4528125 Z M22.6196875,25.84375 C22.6196875,26.0853125 22.5121875,26.29375 22.3321875,26.40125 C22.2085224,26.4810259 22.0505168,26.484529 21.9234375,26.4103125 L11.7984375,20.9490625 L11.7984375,11.0515625 L21.9234375,5.5903125 C22.0505168,5.51609596 22.2085224,5.51959915 22.3321875,5.599375 C22.5121875,5.706875 22.6196875,5.9153125 22.6196875,6.156875 L22.6196875,25.84375 Z M24.8696875,19.11375 L24.8696875,12.886875 C25.9521875,13.3896875 26.7165625,14.595625 26.7165625,16 C26.7165625,17.404375 25.9521875,18.6103125 24.8696875,19.113125 L24.8696875,19.11375 Z" id="Shape" fill="#000000" fill-rule="nonzero"></path>
                <rect id="Rectangle" x="0" y="0" width="32" height="32"></rect>
            </g>
        </g>
    </g>
</svg>