<?xml version="1.0" encoding="UTF-8"?>
<svg width="32px" height="32px" viewBox="0 0 32 32" version="1.1" xmlns="http://www.w3.org/2000/svg" xmlns:xlink="http://www.w3.org/1999/xlink">
    <title>12539F0E-3269-47AF-82EB-F6FE34B05E55</title>
    <g id="T3883" stroke="none" stroke-width="1" fill="none" fill-rule="evenodd">
        <g id="slice" transform="translate(-213.000000, -439.000000)">
            <g id="stars" transform="translate(213.000000, 439.000000)">
                <polygon id="Path" points="0 0 32 0 32 32 0 32"></polygon>
                <path d="M15.9866667,2.66666667 C8.62666667,2.66666667 2.66666667,8.64 2.66666667,16 C2.66666667,23.36 8.62666667,29.3333333 15.9866667,29.3333333 C23.36,29.3333333 29.3333333,23.36 29.3333333,16 C29.3333333,8.64 23.36,2.66666667 15.9866667,2.66666667 Z M21.64,24 L16,20.6 L10.36,24 L11.8533333,17.5866667 L6.88,13.28 L13.44,12.72 L16,6.66666667 L18.56,12.7066667 L25.12,13.2666667 L20.1466667,17.5733333 L21.64,24 Z" id="Shape" fill="#000000" fill-rule="nonzero"></path>
            </g>
        </g>
    </g>
</svg>