<?xml version="1.0" encoding="UTF-8"?>
<svg width="32px" height="32px" viewBox="0 0 32 32" version="1.1" xmlns="http://www.w3.org/2000/svg" xmlns:xlink="http://www.w3.org/1999/xlink">
    <title>62FD07F2-8C25-4EA3-9DE9-B9A739A92327</title>
    <g id="T3883" stroke="none" stroke-width="1" fill="none" fill-rule="evenodd">
        <g id="slice" transform="translate(-573.000000, -491.000000)">
            <g id="star_border" transform="translate(573.000000, 491.000000)">
                <path d="M16,9.50666667 L17.2933333,12.56 L17.92,14.04 L19.52,14.1733333 L22.8133333,14.4533333 L20.3066667,16.6266667 L19.0933333,17.68 L19.4533333,19.2533333 L20.2,22.4666667 L17.3733333,20.76 L16,19.9066667 L14.6266667,20.7333333 L11.8,22.44 L12.5466667,19.2266667 L12.9066667,17.6533333 L11.6933333,16.6 L9.18666667,14.4266667 L12.48,14.1466667 L14.08,14.0133333 L14.7066667,12.5333333 L16,9.50666667 M16,2.66666667 L12.2533333,11.5066667 L2.66666667,12.32 L9.94666667,18.6266667 L7.76,28 L16,23.0266667 L24.24,28 L22.0533333,18.6266667 L29.3333333,12.32 L19.7466667,11.5066667 L16,2.66666667 Z" id="Shape" fill="#000000" fill-rule="nonzero"></path>
            </g>
        </g>
    </g>
</svg>
