<?xml version="1.0" encoding="UTF-8"?>
<svg width="32px" height="32px" viewBox="0 0 32 32" version="1.1" xmlns="http://www.w3.org/2000/svg" xmlns:xlink="http://www.w3.org/1999/xlink">
    <title>B55829B8-3B51-4A2C-94A9-9D3A307F4880</title>
    <g id="T3883" stroke="none" stroke-width="1" fill="none" fill-rule="evenodd">
        <g id="slice" transform="translate(-81.000000, -491.000000)">
            <g id="supervisor_account" transform="translate(81.000000, 491.000000)">
                <path d="M21.3333333,14.6666667 C23.5466667,14.6666667 25.32,12.88 25.32,10.6666667 C25.32,8.45333333 23.5466667,6.66666667 21.3333333,6.66666667 C19.12,6.66666667 17.3333333,8.45333333 17.3333333,10.6666667 C17.3333333,12.88 19.12,14.6666667 21.3333333,14.6666667 Z M10.6666667,14.6666667 C12.88,14.6666667 14.6533333,12.88 14.6533333,10.6666667 C14.6533333,8.45333333 12.88,6.66666667 10.6666667,6.66666667 C8.45333333,6.66666667 6.66666667,8.45333333 6.66666667,10.6666667 C6.66666667,12.88 8.45333333,14.6666667 10.6666667,14.6666667 Z M10.6666667,17.3333333 C7.56,17.3333333 1.33333333,18.8933333 1.33333333,22 L1.33333333,25.3333333 L20,25.3333333 L20,22 C20,18.8933333 13.7733333,17.3333333 10.6666667,17.3333333 Z M21.3333333,17.3333333 C20.9466667,17.3333333 20.5066667,17.36 20.04,17.4 C21.5866667,18.52 22.6666667,20.0266667 22.6666667,22 L22.6666667,25.3333333 L30.6666667,25.3333333 L30.6666667,22 C30.6666667,18.8933333 24.44,17.3333333 21.3333333,17.3333333 Z" id="Shape" fill="#000000" fill-rule="nonzero"></path>
            </g>
        </g>
    </g>
</svg>
