<svg width="635" height="299" viewBox="0 0 635 299" version="1.1" xmlns="http://www.w3.org/2000/svg" xmlns:xlink="http://www.w3.org/1999/xlink"><title>Group 3</title><defs><circle id="a" cx="149.5" cy="149.5" r="149.5"/><path id="c" d="M.011.234H141.98v69.852H.011z"/><circle id="e" cx="149.5" cy="149.5" r="149.5"/><path id="g" d="M.011.234H141.98v69.852H.011z"/></defs><g stroke="none" stroke-width="1" fill="none" fill-rule="evenodd"><path d="M152.003 57c.268-19.376 16.058-35 35.497-35 19.44 0 35.23 15.624 35.497 35H258c19.882 0 36 16.118 36 36s-16.118 36-36 36H117c-19.882 0-36-16.118-36-36s16.118-36 36-36h35.003z" fill="#F8FFFE"/><g transform="translate(168)"><mask id="b" fill="#fff"><use xlink:href="#a"/></mask><use fill="#B3F1E8" xlink:href="#a"/><g mask="url(#b)"><g stroke-width="1" fill="none" transform="rotate(8 -134.727 539.424)"><path fill="#ADD8EE" d="M136.795 210.633l-.898-7.413-71.253 1.336-4.726 6.077-3.467 51.589 44.209 15.206 47.493-15.206z"/><path d="M30.818 67.22C11.105 87.631-.974 115.877.062 144.491c.511 14.146 5.184 27.887 15.375 37.973 9.376 9.276 21.797 14.91 34.255 18.749 28.331 8.72 59.233 10.149 88.152 3.528 26.021-5.963 53.892-18.673 60.56-47.103 3.442-14.696 1.465-30.385-2.481-44.777-3.694-13.475-9.888-25.205-18.678-36.069-17.08-21.12-33.162-35.43-68.484-40.672-14.617-2.17-29.645 1.264-43.076 7.025a107.257 107.257 0 0 0-34.867 24.073z" fill="#BCDFF1"/><path d="M34.637 63.825c-18.61 19.27-30.014 45.937-29.036 72.95.483 13.353 4.894 26.325 14.515 35.847 8.852 8.758 20.577 14.076 32.338 17.7 26.746 8.232 55.92 9.581 83.22 3.331 24.565-5.63 50.877-17.628 57.171-44.468 3.25-13.873 1.383-28.684-2.342-42.27-3.487-12.722-9.335-23.796-17.633-34.052-16.124-19.938-31.306-33.448-64.652-38.396-13.8-2.048-27.986 1.194-40.665 6.632a101.256 101.256 0 0 0-32.916 22.726z" fill="#D1EBF9"/><path d="M168.64 95.954c0 7.917-6.333 14.341-14.138 14.341-7.81 0-14.137-6.424-14.137-14.341 0-7.917 6.327-14.342 14.137-14.342 7.805 0 14.138 6.425 14.138 14.342M46.183 110.295c7.81 0 14.137-6.424 14.137-14.341 0-7.917-6.326-14.342-14.137-14.342-7.804 0-14.138 6.425-14.138 14.342 0 7.917 6.334 14.341 14.138 14.341z" fill="#FFF"/><path d="M173.602 120.875c-6.282 0-11.378-2.732-11.378-6.108 0-3.377 5.096-6.109 11.378-6.109 6.283 0 11.378 2.732 11.378 6.109 0 3.376-5.095 6.108-11.378 6.108zM39.168 115.381c0 3.377-5.096 6.109-11.378 6.109-6.283 0-11.379-2.732-11.379-6.109s5.096-6.108 11.379-6.108c6.282 0 11.378 2.731 11.378 6.108" fill="#EDF9FF"/><path d="M77.718 212.226c-8.486-1.151-16.181-2.79-16.78-2.79-6.365 3.415-34.113 39.927-7.978 47.876 26.134 7.949 45.639-6.507 45.639-6.507s-8.095-5.078-17.023-12.11c-5.626.507-12.256-.05-16.461-4.116-3.612-4.584 1.35-13.475 15.432-17.307 13.348-2.125 20.95-.278 33.863 1.935 21.784 4.527 23.268 19.16 23.268 19.16s-1.32-2.991-4.23-5.634c-4.995-4.553-13.204-8.335-28.112-10.358-22.516-3.048-26.961-.493-32.284 4.224-8.304 7.36 9.162 5.558 9.162 5.558s24.076 16.6 32.625 21.589c8.55 4.982 35.524 11.4 41.068-7.911 4.988-19.71-19.58-36.246-19.58-36.246-28.61 5.438-58.363 2.637-58.61 2.637z" fill="#C6E7F9"/><path d="M78.149 211.922c-9.52-1.084-13.621-1.781-14.28-1.944-5.614 3.012-22.934 30.691-8.667 38.807 14.267 8.116 39.433-.53 39.433-.53s-2.843-1.633-12.931-9.422c-4.962.446-10.753-2.017-14.463-5.603-3.185-4.044 1.192-11.886 13.612-15.266 11.774-1.874 18.48-.245 29.87 1.707 19.214 3.993 20.522 16.9 20.522 16.9s-1.164-2.638-3.731-4.97c-4.405-4.016-10.592-6.794-23.741-8.579-19.86-2.688-25.438-.852-27.724 1.065-7.658 6.423 6.274 7.007 6.274 7.007s22 9.873 29.54 14.274c7.542 4.395 25.762 14.25 38.653-2.68 4.4-17.386-13.442-32.86-15.239-32.86-1.797 0-34.184 5.08-57.128 2.094z" fill="#D1EBF9"/><path d="M112.136 252.173c-9.684-2.73-14.265-9.314-14.265-9.314s10.55-8.596 5.037-21.645c3.664-.932 14.057 2.347 14.266 3.148 0 0 8.402 10.585-5.038 27.811z" fill="#FFE473"/><path d="M110.094 250.442c10.596-12.343 7.154-25.547 5.614-26.407-1.295-.733-6.56-2.225-10.084-1.852 2.86 9.611-2.684 19.672-6.434 21.462 2.5 3.49 6.074 5.906 10.904 6.797zm2.854 3.156h-1.067c-9.9-2.789-14.289-9.585-14.485-9.87l-.83-1.72.83-.551c.367-.31 9.112-7.69 4.364-18.92l-.815-1.923 2.027-.512c2.475-.626 6.743.297 9.067.905 5.36 1.397 6.478 2.358 6.807 3.041 1.275 1.834 6.434 12.862-5.07 28.93-.204.413-.48.62-.828.62z" fill="#FFDA2A"/><g transform="translate(27.783)"><mask id="d" fill="#fff"><use xlink:href="#c"/></mask><path d="M141.98 67.588S124.66 40.87 91.378 33.99c-9.592-1.985-7.685-16.207 2.658-17.396 10.349-1.188 18.292-7.133 13.108-16.365-1.749 7.512-4.016 9.998-13.455 8.55 0 0-24.834-7.443-36.528 21.044-4.527 11.04-31.502 5.85-57.15 40.262 52.572-37.36 119.414-18.636 141.969-2.498" fill="#757D97" mask="url(#d)"/></g><path d="M82.862 141.787s18.557-8.638 34.444 0c0 0-15.104-3.466-34.444 0" fill="#C6E7F9"/><path d="M164.194 95.76c0 5.57-4.452 10.085-9.945 10.085s-9.945-4.515-9.945-10.086c0-5.564 4.452-10.085 9.945-10.085s9.945 4.52 9.945 10.085M45.925 105.845c5.493 0 9.945-4.515 9.945-10.086 0-5.564-4.452-10.085-9.945-10.085-5.494 0-9.945 4.52-9.945 10.085 0 5.571 4.451 10.086 9.945 10.086zM75.494 207.011c-.082.026 16.632 2.226 23.868 2.226 7.186 0 13.31-.613 24.543-1.992-.037-.057-15.905-5.356-23.994-23.757-.063-.133-6.718 17.851-24.417 23.523zM130.897 140.258c-5.216 0-10.318-1.524-15.25-2.99-2.405-.715-4.893-1.461-7.324-1.999a34.05 34.05 0 0 0-7.45-.81c-3.915 0-8.12.652-12.85 1.986l-1.63.468c-5.467 1.562-11.125 3.175-16.726 3.175-3.984 0-7.57-.803-10.961-2.454-4.439-2.156-12.022-7.582-12.275-14.234-.032-.904.183-1.6.65-2.087.373-.392.878-.594 1.472-.594 1.281 0 2.702 1.018 3.239 2.327.43 1.05.985 2.093 1.648 3.105 2.873 4.344 7.388 7.234 12.704 8.138 1.326.221 2.728.335 4.167.335 2.728 0 5.709-.41 8.866-1.22 5.5-1.423 10.904-2.732 16.55-3.168a59.059 59.059 0 0 1 4.64-.184c2.419 0 4.913.146 7.432.437 3.454.392 6.82 1.226 10.071 2.03 2.248.556 4.578 1.131 6.895 1.549 1.939.354 3.846.53 5.67.53 5.475 0 10.21-1.605 13.709-4.653 2.405-2.093 3.833-4.623 5.026-7.05.013-.02.057-.121.07-.146.03-.064.069-.127.113-.184.58-.891 1.85-1.682 2.778-1.897.17-.038.335-.057.486-.057.5 0 .929.19 1.25.557.714.803.626 2.188.556 2.744-.24 1.897-1.143 3.845-2.873 6.128-4.079 5.406-10.614 9.15-17.484 10.022-1.023.127-2.09.196-3.17.196" fill="#757D97"/><ellipse fill="#FFF0B3" transform="rotate(109 111.283 228.986)" cx="111.283" cy="228.986" rx="1.427" ry="2.853"/><ellipse fill="#FFDA2A" transform="rotate(109 109.143 241.47)" cx="109.143" cy="241.469" rx="5.707" ry="7.49"/><ellipse fill="#FFE473" transform="rotate(109 110.213 239.33)" cx="110.213" cy="239.329" rx="4.637" ry="6.063"/><ellipse fill="#FFF0B3" transform="rotate(109 115.16 230.548)" cx="115.016" cy="230.548" rx="1" ry="1.427"/></g><path d="M179.252 318.733c2.394-7.372 4.743-9.867 4.643-15.492-18.62 7.093-43.123-15.42-43.123-15.42s-19.5 14.492-46.495 2.638c-8.256 20.839 4.103 41.804 15.078 50.723 12.93 10.507 27.491 14.772 46.769 13.22 7.507-.602 16.353-2.752 22.875-5.029 8.064-2.82 11.902-1.013 13.282 2.113 1.282 2.89.454 6.926-1.078 9.474-.68 1.117-1.686 2.71-2.368 4.557-.63 1.7-.982 3.6-.541 5.543.74 3.258 3.713 6.624 11.35 9.248 0 0-6.574-5.161-3.341-12.383.526-1.177 1.305-2.403 2.42-3.674 5.265-5.401 10.677-17.421 3.874-24.288-1.001-1.015-2.272-1.916-3.855-2.668-4.979-2.365-10.607-.823-15.556 1.944-2.399 1.344-4.646 2.97-6.57 4.588-5.688 4.75-11.03-.66-3.886-13.427.063-.114 3.685-8.243 6.522-11.667z" fill="#C6E7F9"/><path d="M176.155 320.033c4.449-7.214 6.379-11.194 6.288-16.3-17.326 3.86-41.729-15.946-41.729-15.946s-16.456 12.312-41.275 4.386c-7.494 18.916 3.725 37.947 13.687 46.043 11.738 9.537 25.11 15.572 42.61 14.165 6.814-.548 14.204-2.503 20.124-4.57 7.32-2.56 15.163-3.523 17.128-.809 1.964 2.714 2.105 6.147 1.744 8.717-.2 1.422-3.34 5.362-3.959 7.038-.572 1.543-1.92 4.112-1.924 5.872-.009 3.354.504 4.236 5.543 7.493 0 0-4.058-3.438-1.123-9.993.478-1.069 4.996-7.437 6.008-8.59 4.78-4.903 6.687-7.58 2.36-16.786-.495-1.051-2.171-2.04-3.608-2.723-4.52-2.147-9.604-.058-14.095 2.453-2.179 1.22-6.613 3.852-8.36 5.32-5.163 4.313-11.404-5.785-4.92-17.374.057-.103 2.925-5.289 5.5-8.396z" fill="#D1EBF9"/><path d="M119.837 314.654c-12.822-3.333-22.513-12.232-26.377-24.884-5.123 22.97 5.9 40.693 29.025 46.076 24.12 5.612 47.55.41 58.964-20.404.755-1.859 3.217-4.836 2.441-12.199-15.988 13.853-44.556 16.485-64.053 11.41z" fill="#BBD81E"/><path d="M128.175 319.787c-13.096-1.84-29.966-12.046-34.544-29.152-5.915 24.001 7.664 36.333 30.024 41.538 23.321 5.427 40.445-.69 55.111-15.19.443-.731 3.671-4.264 3.971-5.467.3-1.203 1.317-3.836 1.163-8.273-15.282 12.371-36.385 19.262-55.725 16.544z" fill="#CCEA2C"/></g></g><text font-family="LeelawadeeUI-Bold, Leelawadee UI" font-size="288" font-weight="bold" letter-spacing="5.6" fill="#B3F1E8" transform="translate(81 -60)"><tspan x="395.372" y="311">4</tspan></text><path d="M413.006 258c.266-10.538 8.892-19 19.494-19s19.228 8.462 19.494 19H473.5c11.322 0 20.5 9.178 20.5 20.5s-9.178 20.5-20.5 20.5h-79c-11.322 0-20.5-9.178-20.5-20.5s9.178-20.5 20.5-20.5h18.506z" fill="#F8FFFE"/><g><path d="M152.003 57c.268-19.376 16.058-35 35.497-35 19.44 0 35.23 15.624 35.497 35H258c19.882 0 36 16.118 36 36s-16.118 36-36 36H117c-19.882 0-36-16.118-36-36s16.118-36 36-36h35.003z" fill="#F8FFFE"/><g transform="translate(168)"><mask id="f" fill="#fff"><use xlink:href="#e"/></mask><use fill="#B3F1E8" xlink:href="#e"/><g mask="url(#f)"><g stroke-width="1" fill="none" transform="rotate(8 -134.727 539.424)"><path fill="#ADD8EE" d="M136.795 210.633l-.898-7.413-71.253 1.336-4.726 6.077-3.467 51.589 44.209 15.206 47.493-15.206z"/><path d="M30.818 67.22C11.105 87.631-.974 115.877.062 144.491c.511 14.146 5.184 27.887 15.375 37.973 9.376 9.276 21.797 14.91 34.255 18.749 28.331 8.72 59.233 10.149 88.152 3.528 26.021-5.963 53.892-18.673 60.56-47.103 3.442-14.696 1.465-30.385-2.481-44.777-3.694-13.475-9.888-25.205-18.678-36.069-17.08-21.12-33.162-35.43-68.484-40.672-14.617-2.17-29.645 1.264-43.076 7.025a107.257 107.257 0 0 0-34.867 24.073z" fill="#BCDFF1"/><path d="M34.637 63.825c-18.61 19.27-30.014 45.937-29.036 72.95.483 13.353 4.894 26.325 14.515 35.847 8.852 8.758 20.577 14.076 32.338 17.7 26.746 8.232 55.92 9.581 83.22 3.331 24.565-5.63 50.877-17.628 57.171-44.468 3.25-13.873 1.383-28.684-2.342-42.27-3.487-12.722-9.335-23.796-17.633-34.052-16.124-19.938-31.306-33.448-64.652-38.396-13.8-2.048-27.986 1.194-40.665 6.632a101.256 101.256 0 0 0-32.916 22.726z" fill="#D1EBF9"/><path d="M168.64 95.954c0 7.917-6.333 14.341-14.138 14.341-7.81 0-14.137-6.424-14.137-14.341 0-7.917 6.327-14.342 14.137-14.342 7.805 0 14.138 6.425 14.138 14.342M46.183 110.295c7.81 0 14.137-6.424 14.137-14.341 0-7.917-6.326-14.342-14.137-14.342-7.804 0-14.138 6.425-14.138 14.342 0 7.917 6.334 14.341 14.138 14.341z" fill="#FFF"/><path d="M173.602 120.875c-6.282 0-11.378-2.732-11.378-6.108 0-3.377 5.096-6.109 11.378-6.109 6.283 0 11.378 2.732 11.378 6.109 0 3.376-5.095 6.108-11.378 6.108zM39.168 115.381c0 3.377-5.096 6.109-11.378 6.109-6.283 0-11.379-2.732-11.379-6.109s5.096-6.108 11.379-6.108c6.282 0 11.378 2.731 11.378 6.108" fill="#EDF9FF"/><path d="M77.718 212.226c-8.486-1.151-16.181-2.79-16.78-2.79-6.365 3.415-34.113 39.927-7.978 47.876 26.134 7.949 45.639-6.507 45.639-6.507s-8.095-5.078-17.023-12.11c-5.626.507-12.256-.05-16.461-4.116-3.612-4.584 1.35-13.475 15.432-17.307 13.348-2.125 20.95-.278 33.863 1.935 21.784 4.527 23.268 19.16 23.268 19.16s-1.32-2.991-4.23-5.634c-4.995-4.553-13.204-8.335-28.112-10.358-22.516-3.048-26.961-.493-32.284 4.224-8.304 7.36 9.162 5.558 9.162 5.558s24.076 16.6 32.625 21.589c8.55 4.982 35.524 11.4 41.068-7.911 4.988-19.71-19.58-36.246-19.58-36.246-28.61 5.438-58.363 2.637-58.61 2.637z" fill="#C6E7F9"/><path d="M78.149 211.922c-9.52-1.084-13.621-1.781-14.28-1.944-5.614 3.012-22.934 30.691-8.667 38.807 14.267 8.116 39.433-.53 39.433-.53s-2.843-1.633-12.931-9.422c-4.962.446-10.753-2.017-14.463-5.603-3.185-4.044 1.192-11.886 13.612-15.266 11.774-1.874 18.48-.245 29.87 1.707 19.214 3.993 20.522 16.9 20.522 16.9s-1.164-2.638-3.731-4.97c-4.405-4.016-10.592-6.794-23.741-8.579-19.86-2.688-25.438-.852-27.724 1.065-7.658 6.423 6.274 7.007 6.274 7.007s22 9.873 29.54 14.274c7.542 4.395 25.762 14.25 38.653-2.68 4.4-17.386-13.442-32.86-15.239-32.86-1.797 0-34.184 5.08-57.128 2.094z" fill="#D1EBF9"/><path d="M112.136 252.173c-9.684-2.73-14.265-9.314-14.265-9.314s10.55-8.596 5.037-21.645c3.664-.932 14.057 2.347 14.266 3.148 0 0 8.402 10.585-5.038 27.811z" fill="#FFE473"/><path d="M110.094 250.442c10.596-12.343 7.154-25.547 5.614-26.407-1.295-.733-6.56-2.225-10.084-1.852 2.86 9.611-2.684 19.672-6.434 21.462 2.5 3.49 6.074 5.906 10.904 6.797zm2.854 3.156h-1.067c-9.9-2.789-14.289-9.585-14.485-9.87l-.83-1.72.83-.551c.367-.31 9.112-7.69 4.364-18.92l-.815-1.923 2.027-.512c2.475-.626 6.743.297 9.067.905 5.36 1.397 6.478 2.358 6.807 3.041 1.275 1.834 6.434 12.862-5.07 28.93-.204.413-.48.62-.828.62z" fill="#FFDA2A"/><g transform="translate(27.783)"><mask id="h" fill="#fff"><use xlink:href="#g"/></mask><path d="M141.98 67.588S124.66 40.87 91.378 33.99c-9.592-1.985-7.685-16.207 2.658-17.396 10.349-1.188 18.292-7.133 13.108-16.365-1.749 7.512-4.016 9.998-13.455 8.55 0 0-24.834-7.443-36.528 21.044-4.527 11.04-31.502 5.85-57.15 40.262 52.572-37.36 119.414-18.636 141.969-2.498" fill="#757D97" mask="url(#h)"/></g><path d="M82.862 141.787s18.557-8.638 34.444 0c0 0-15.104-3.466-34.444 0" fill="#C6E7F9"/><path d="M164.194 95.76c0 5.57-4.452 10.085-9.945 10.085s-9.945-4.515-9.945-10.086c0-5.564 4.452-10.085 9.945-10.085s9.945 4.52 9.945 10.085M45.925 105.845c5.493 0 9.945-4.515 9.945-10.086 0-5.564-4.452-10.085-9.945-10.085-5.494 0-9.945 4.52-9.945 10.085 0 5.571 4.451 10.086 9.945 10.086zM75.494 207.011c-.082.026 16.632 2.226 23.868 2.226 7.186 0 13.31-.613 24.543-1.992-.037-.057-15.905-5.356-23.994-23.757-.063-.133-6.718 17.851-24.417 23.523zM130.897 140.258c-5.216 0-10.318-1.524-15.25-2.99-2.405-.715-4.893-1.461-7.324-1.999a34.05 34.05 0 0 0-7.45-.81c-3.915 0-8.12.652-12.85 1.986l-1.63.468c-5.467 1.562-11.125 3.175-16.726 3.175-3.984 0-7.57-.803-10.961-2.454-4.439-2.156-12.022-7.582-12.275-14.234-.032-.904.183-1.6.65-2.087.373-.392.878-.594 1.472-.594 1.281 0 2.702 1.018 3.239 2.327.43 1.05.985 2.093 1.648 3.105 2.873 4.344 7.388 7.234 12.704 8.138 1.326.221 2.728.335 4.167.335 2.728 0 5.709-.41 8.866-1.22 5.5-1.423 10.904-2.732 16.55-3.168a59.059 59.059 0 0 1 4.64-.184c2.419 0 4.913.146 7.432.437 3.454.392 6.82 1.226 10.071 2.03 2.248.556 4.578 1.131 6.895 1.549 1.939.354 3.846.53 5.67.53 5.475 0 10.21-1.605 13.709-4.653 2.405-2.093 3.833-4.623 5.026-7.05.013-.02.057-.121.07-.146.03-.064.069-.127.113-.184.58-.891 1.85-1.682 2.778-1.897.17-.038.335-.057.486-.057.5 0 .929.19 1.25.557.714.803.626 2.188.556 2.744-.24 1.897-1.143 3.845-2.873 6.128-4.079 5.406-10.614 9.15-17.484 10.022-1.023.127-2.09.196-3.17.196" fill="#757D97"/><ellipse fill="#FFF0B3" transform="rotate(109 111.283 228.986)" cx="111.283" cy="228.986" rx="1.427" ry="2.853"/><ellipse fill="#FFDA2A" transform="rotate(109 109.143 241.47)" cx="109.143" cy="241.469" rx="5.707" ry="7.49"/><ellipse fill="#FFE473" transform="rotate(109 110.213 239.33)" cx="110.213" cy="239.329" rx="4.637" ry="6.063"/><ellipse fill="#FFF0B3" transform="rotate(109 115.16 230.548)" cx="115.016" cy="230.548" rx="1" ry="1.427"/></g><path d="M179.252 318.733c2.394-7.372 4.743-9.867 4.643-15.492-18.62 7.093-43.123-15.42-43.123-15.42s-19.5 14.492-46.495 2.638c-8.256 20.839 4.103 41.804 15.078 50.723 12.93 10.507 27.491 14.772 46.769 13.22 7.507-.602 16.353-2.752 22.875-5.029 8.064-2.82 11.902-1.013 13.282 2.113 1.282 2.89.454 6.926-1.078 9.474-.68 1.117-1.686 2.71-2.368 4.557-.63 1.7-.982 3.6-.541 5.543.74 3.258 3.713 6.624 11.35 9.248 0 0-6.574-5.161-3.341-12.383.526-1.177 1.305-2.403 2.42-3.674 5.265-5.401 10.677-17.421 3.874-24.288-1.001-1.015-2.272-1.916-3.855-2.668-4.979-2.365-10.607-.823-15.556 1.944-2.399 1.344-4.646 2.97-6.57 4.588-5.688 4.75-11.03-.66-3.886-13.427.063-.114 3.685-8.243 6.522-11.667z" fill="#C6E7F9"/><path d="M176.155 320.033c4.449-7.214 6.379-11.194 6.288-16.3-17.326 3.86-41.729-15.946-41.729-15.946s-16.456 12.312-41.275 4.386c-7.494 18.916 3.725 37.947 13.687 46.043 11.738 9.537 25.11 15.572 42.61 14.165 6.814-.548 14.204-2.503 20.124-4.57 7.32-2.56 15.163-3.523 17.128-.809 1.964 2.714 2.105 6.147 1.744 8.717-.2 1.422-3.34 5.362-3.959 7.038-.572 1.543-1.92 4.112-1.924 5.872-.009 3.354.504 4.236 5.543 7.493 0 0-4.058-3.438-1.123-9.993.478-1.069 4.996-7.437 6.008-8.59 4.78-4.903 6.687-7.58 2.36-16.786-.495-1.051-2.171-2.04-3.608-2.723-4.52-2.147-9.604-.058-14.095 2.453-2.179 1.22-6.613 3.852-8.36 5.32-5.163 4.313-11.404-5.785-4.92-17.374.057-.103 2.925-5.289 5.5-8.396z" fill="#D1EBF9"/><path d="M119.837 314.654c-12.822-3.333-22.513-12.232-26.377-24.884-5.123 22.97 5.9 40.693 29.025 46.076 24.12 5.612 47.55.41 58.964-20.404.755-1.859 3.217-4.836 2.441-12.199-15.988 13.853-44.556 16.485-64.053 11.41z" fill="#BBD81E"/><path d="M128.175 319.787c-13.096-1.84-29.966-12.046-34.544-29.152-5.915 24.001 7.664 36.333 30.024 41.538 23.321 5.427 40.445-.69 55.111-15.19.443-.731 3.671-4.264 3.971-5.467.3-1.203 1.317-3.836 1.163-8.273-15.282 12.371-36.385 19.262-55.725 16.544z" fill="#CCEA2C"/></g></g><path d="M413.006 258c.266-10.538 8.892-19 19.494-19s19.228 8.462 19.494 19H473.5c11.322 0 20.5 9.178 20.5 20.5s-9.178 20.5-20.5 20.5h-79c-11.322 0-20.5-9.178-20.5-20.5s9.178-20.5 20.5-20.5h18.506z" fill="#F8FFFE"/></g><text font-family="LeelawadeeUI-Bold, Leelawadee UI" font-size="288" font-weight="bold" letter-spacing="5.6" fill="#B3F1E8" transform="translate(-5 -60)"><tspan x=".372" y="311">4</tspan></text></g></svg>