<svg width="51" height="51" viewBox="0 0 51 51" version="1.1" xmlns="http://www.w3.org/2000/svg"><title>Combined Shape</title><path d="M39.845 11.631c6.12 1.016 10.785 6.334 10.785 12.742 0 7.03-5.615 12.748-12.604 12.913.003.106.004.213.004.32 0 7.133-5.782 12.916-12.915 12.916-7.133 0-12.915-5.783-12.915-12.917 0-.137.002-.273.006-.41C5.813 36.423.86 30.976.86 24.374c0-7.134 5.782-12.917 12.915-12.917.137 0 .273.003.41.007C14.957 5.069 20.402.115 27.004.115c6.66 0 12.142 5.041 12.84 11.516z" fill="#B8BCCB" stroke="none" stroke-width="1" fill-rule="evenodd"/></svg>
