<svg
  width="375"
  height="341"
  viewBox="0 0 544 361"
  version="1.1"
  xmlns="http://www.w3.org/2000/svg"
>
  <title>Stars</title>
  <defs>
    <radialGradient
      cx="51.204%"
      cy="59.299%"
      fx="51.204%"
      fy="59.299%"
      r="39.57%"
      gradientTransform="matrix(0 -1 1.40643 0 -.322 1.105)"
      id="a"
    >
      <stop stopColor="#ADF7F8" offset="0%" />
      <stop stopColor="#B4F7F8" offset="34.842%" />
      <stop stopColor="#B7F8F8" stopOpacity=".939" offset="61.143%" />
      <stop stopColor="#E4FAFA" stopOpacity="0" offset="100%" />
    </radialGradient>
    <filter
      x="-2.1%"
      y="-4%"
      width="104.2%"
      height="111.1%"
      filterUnits="objectBoundingBox"
      id="b"
    >
      <feOffset
        dx="0"
        dy="2"
        in="SourceAlpha"
        result="shadowOffsetOuter1"
      />
      <feGaussianBlur
        stdDeviation="2"
        in="shadowOffsetOuter1"
        result="shadowBlurOuter1"
      />
      <feColorMatrix
        values="0 0 0 0 0.378684944 0 0 0 0 0.90119772 0 0 0 0 0.996200043 0 0 0 1 0"
        type="matrix"
        in="shadowBlurOuter1"
        result="shadowMatrixOuter1"
      />
      <feMerge>
        <feMergeNode in="shadowMatrixOuter1" />
        <feMergeNode in="SourceGraphic" />
      </feMerge>
    </filter>
  </defs>
  <g stroke="none" strokeWidth="1" fill="none" fillRule="evenodd">
    <path fill="url(#a)" d="M1-90h544v450H1z" />
    <g
      filter="url(#b)"
      transform="translate(106 78)"
      fill="#FFF"
      fillRule="nonzero"
    >
      <path d="M228 9h5.258c1.514 0 2.742 1.12 2.742 2.5s-1.228 2.5-2.742 2.5H228v5.53a2.5 2.5 0 1 1-5 0V14h-5.258c-1.514 0-2.742-1.12-2.742-2.5s1.228-2.5 2.742-2.5H223V2.5a2.5 2.5 0 1 1 5 0V9zM326 112h5.258c1.514 0 2.742 1.12 2.742 2.5s-1.228 2.5-2.742 2.5H326v5.53a2.5 2.5 0 1 1-5 0V117h-5.258c-1.514 0-2.742-1.12-2.742-2.5s1.228-2.5 2.742-2.5H321v-6.5a2.5 2.5 0 1 1 5 0v6.5zM13 101h5.258c1.514 0 2.742 1.12 2.742 2.5s-1.228 2.5-2.742 2.5H13v5.53a2.5 2.5 0 1 1-5 0V106H2.742C1.228 106 0 104.88 0 103.5s1.228-2.5 2.742-2.5H8v-6.5a2.5 2.5 0 1 1 5 0v6.5z" />
    </g>
  </g>
</svg>
