<svg width="1024" height="1024" viewBox="0 0 1024 1024" fill="none" xmlns="http://www.w3.org/2000/svg">
<path d="M478.3 395.845C473.95 395.845 470.423 399.372 470.423 403.722V699.122C470.423 703.472 473.95 706.999 478.3 706.999H545.692C550.042 706.999 553.569 703.472 553.569 699.122V403.722C553.569 399.372 550.042 395.845 545.692 395.845H478.3Z" fill="black"/>
<path d="M615.923 449.261C615.923 444.91 619.45 441.384 623.8 441.384H691.192C695.542 441.384 699.069 444.91 699.069 449.261V699.139C699.069 703.489 695.542 707.016 691.192 707.016H623.8C619.45 707.016 615.923 703.489 615.923 699.139V449.261Z" fill="black"/>
<path d="M324.923 517.414C324.923 513.064 328.45 509.538 332.8 509.538H400.192C404.542 509.538 408.069 513.064 408.069 517.414V699.018C408.069 703.368 404.542 706.895 400.192 706.895H332.8C328.45 706.895 324.923 703.368 324.923 699.018V517.414Z" fill="black"/>
<path fill-rule="evenodd" d="M118.154 226.461C118.154 182.958 153.42 147.691 196.924 147.691H827.077C870.58 147.691 905.846 182.958 905.846 226.461V797.538C905.846 841.041 870.58 876.307 827.077 876.307H196.924C153.42 876.307 118.154 841.041 118.154 797.538V226.461ZM858.585 285.538V797.538C858.585 814.939 844.478 829.045 827.077 829.045H196.924C179.522 829.045 165.416 814.939 165.416 797.538V285.538H858.585Z" fill="black"/>
</svg>
