<svg id="圖庫一" xmlns="http://www.w3.org/2000/svg" xmlns:xlink="http://www.w3.org/1999/xlink" viewBox="0 0 400 400"><defs><style>.cls-1,.cls-10,.cls-11,.cls-5,.cls-6{fill:none;}.cls-2{fill:#f5f5f5;}.cls-3{clip-path:url(#clip-path);}.cls-12,.cls-13,.cls-14,.cls-4{fill:#bfbfbf;}.cls-10,.cls-11,.cls-13,.cls-14,.cls-4,.cls-5,.cls-6,.cls-7{stroke:#999;}.cls-10,.cls-14,.cls-4,.cls-6,.cls-7{stroke-linecap:round;}.cls-10,.cls-11,.cls-4,.cls-7{stroke-linejoin:round;}.cls-13,.cls-14,.cls-5,.cls-6{stroke-miterlimit:10;}.cls-7{fill:#fff;}.cls-8{fill:#ededed;}.cls-9{fill:#dbdbdb;}.cls-11{stroke-linecap:square;}</style><clipPath id="clip-path"><rect class="cls-1" x="94.8" y="315.74" width="188" height="83.5"/></clipPath></defs><title>product3</title><rect id="背景" class="cls-2" width="400" height="400"/><g id="裙子"><g class="cls-3"><polygon class="cls-4" points="129.5 345.76 125.5 401.16 261.5 401.16 254.5 299.38 139.5 298.09 129.5 345.76"/></g><path class="cls-5" d="M161.66,381.64s-9.35-3.08-10.56-15"/><path class="cls-6" d="M148,386s-3.79-17.71-5-29.65"/><path class="cls-5" d="M187.66,385.07,193,358.46s3.92-10.32,6.34-15"/><path class="cls-5" d="M224.59,385s34.24-18.91,13.33,2.71"/></g><g id="左手"><path class="cls-7" d="M128.94,358.19a3.44,3.44,0,0,0,.39-3.41c-1.06-1.74-4.9,3-3.94-.95l1.9-7.9L124,340.49l-9.21-2.23-3.44,8.46c-1.5,3-4,10.25-2.18,14.79,2.35,5.67,11.13,9.65,15.73,9.83,3.68.15,3-2.36,2.27-3.63"/><path class="cls-7" d="M116,366.06a19.67,19.67,0,0,0,7.76,2.22c3.33.07,8.23-3.43,5-5"/><path class="cls-7" d="M114.51,362.34c5.07,4,13.16,3.18,15.86-.35,2.17-2.81-.13-3.66-1.33-3.8,0,0-5.45,5.34-15,.32m10-12.44c-1.12.81,0,4.71-2.89,8.12-2,2.31,2.79,2.53,3.95.95"/></g><path id="右手" class="cls-7" d="M340.5,336.5l3.91,2.93c.75.78,2.56,1.16,3.77-3.62,3.68,1,5.61-2.65,5.19-5s2.71,2.83,3.78-3.62c.49-1.68,5.1-1.27,3.34-5-.64-1.33-2.7-3.44-5-5.18l-22.11,18.46c3.61,3.78,9.31,9.1,13.4,8.07,2.19-.54,4.92-5.3,5-8.07a3.3,3.3,0,0,1-3.71,0"/><g id="身體"><path class="cls-8" d="M355.5,309.5s1,5,0,8-10,12-13,14-9,6-16,6-16-18-16-18,.49-.06,1.31-.19c3.35-.55,12.26-2.38,16.69-6.81,6.68-6.68,11.57-18.71,12.67-23.5a.55.55,0,0,1,.37-.42.6.6,0,0,1,.76.25Z"/><path class="cls-9" d="M341.5,288.5l0,.08a.55.55,0,0,0-.37.42c-1.1,4.79-6,16.82-12.67,23.5-4.43,4.43-13.34,6.26-16.69,6.81v-.07c-3.56-.61-30-53-30-53-4.16-8.47-25-70-25-70-1-9,.57-59.74,8.63-65.74l.37-.3c6.89,8.64,14.83,19.17,17.26,24.71C286.59,163,341.5,288.5,341.5,288.5Z"/><path class="cls-9" d="M256.8,196.24s11.92,110,9,117c-9.36,11.63-3.64,9.92-7.79,15.21-3.12,1.05-16.64,9-16.64,9-10.39-1.06-28.06,4.23-28.06,4.23-15.6,1.06-26-2.56-38.51-.44-6.36,1.07-30-5.81-33.55-6.87a35,35,0,0,0,.25-3.87c0-4-5-3-16-6-5.26-1.43-12.59-4.3-16.48-5.34a2.63,2.63,0,0,0-.55-.09l0-.57s26.09-171.12,38-186c3.6-6.25,42-21,42-21s7,8,30,12,36-7,36-7,5.25,6.12,11.3,13.7l-.37.3C257.37,136.5,255.8,187.24,256.8,196.24Z"/><path class="cls-8" d="M141.25,334.37a155.65,155.65,0,0,1-4.19,20.1,3.39,3.39,0,0,1-2.85,2.5c-2.69.33-7.93.41-16.71-1.47-8.34-1.79-16-7.05-19.26-9.59a3,3,0,0,1-1-3.42l8.3-21.58a2.87,2.87,0,0,1,2.9-1.84,2.63,2.63,0,0,1,.55.09c3.89,1,11.22,3.91,16.48,5.34,11,3,16,2,16,6A35,35,0,0,1,141.25,334.37Z"/><path class="cls-10" d="M141.25,334.37a155.65,155.65,0,0,1-4.19,20.1,3.39,3.39,0,0,1-2.85,2.5c-2.69.33-7.93.41-16.71-1.47-8.34-1.79-16-7.05-19.26-9.59a3,3,0,0,1-1-3.42l8.3-21.58a2.87,2.87,0,0,1,2.9-1.84,2.63,2.63,0,0,1,.55.09c3.89,1,11.22,3.91,16.48,5.34,11,3,16,2,16,6A35,35,0,0,1,141.25,334.37Z"/><path class="cls-10" d="M109.5,322.5a152,152,0,0,0-9,22"/><path class="cls-10" d="M113.5,324.5a101,101,0,0,0-9,22"/><path class="cls-10" d="M117.5,326.5c-3.22,7.27-5.18,12.94-8,21"/><line class="cls-10" x1="121.5" y1="327.5" x2="113.5" y2="349.5"/><path class="cls-10" d="M126.5,328.5l-8,23"/><path class="cls-10" d="M130.5,329.5a96.55,96.55,0,0,1-7,23"/><path class="cls-10" d="M134.5,330.5a67.7,67.7,0,0,1-6,22"/><path class="cls-10" d="M138.5,331.5a65.09,65.09,0,0,1-6,22"/><path class="cls-10" d="M341.5,288.5S286.59,163,283.06,154.91c-2.43-5.54-10.37-16.07-17.26-24.71-6.05-7.58-11.3-13.7-11.3-13.7s-13,11-36,7-30-12-30-12-38.4,14.75-42,21c-11.91,14.88-38,186-38,186"/><path class="cls-10" d="M311.8,319.24c-3.56-.61-30-53-30-53-4.16-8.47-25-70-25-70s11.92,110,9,117c-9.36,11.63-3.64,9.92-7.79,15.21-3.12,1.05-16.64,9-16.64,9-10.39-1.06-28.06,4.23-28.06,4.23-15.6,1.06-26-2.56-38.51-.44-6.36,1.07-30-5.81-33.55-6.87l-.45-.13"/><path class="cls-10" d="M169.8,159.24c-3,33-12,131-30,168"/><path class="cls-10" d="M256.8,196.24c-1-9,.57-59.74,8.63-65.74"/><path class="cls-10" d="M341.54,288.58a.6.6,0,0,1,.76.25l13.2,20.67s1,5,0,8-10,12-13,14-9,6-16,6-16-18-16-18,.49-.06,1.31-.19c3.35-.55,12.26-2.38,16.69-6.81,6.68-6.68,11.57-18.71,12.67-23.5A.55.55,0,0,1,341.54,288.58Z"/><path class="cls-11" d="M341.5,299.5A123.11,123.11,0,0,1,354,315"/><path class="cls-11" d="M339.5,305.5A79,79,0,0,1,351,319.6"/><path class="cls-11" d="M336.69,310.54l12.93,14.15"/><path class="cls-11" d="M333,315.62A62.86,62.86,0,0,0,345.92,328"/><path class="cls-11" d="M329,318.62a133.6,133.6,0,0,0,12.5,11.88"/><path class="cls-11" d="M325,320.62a52.3,52.3,0,0,0,11.5,11.88"/><path class="cls-11" d="M320.5,322.5a76.26,76.26,0,0,0,11,11"/><path class="cls-11" d="M316,323.62a59.51,59.51,0,0,0,10.5,10.88"/><path class="cls-5" d="M288.66,187.25c-2.28,7.05-6.3,15.55-13.23,20.86"/><path class="cls-10" d="M139,212c1.45,4.38,3.76,8.44,9.92,14.6"/></g><g id="臉"><path id="臉-2" data-name="臉" class="cls-7" d="M174.5,39.5A46.2,46.2,0,0,0,172,45s-2.25,8.87-.5,11.5c2,3,.54,10.83,0,13-1,4,7,23,10,25s9.53,2.2,10-6c1-2-1.16-6.57,6-14C175.9,73.46,170.28,60.24,174.5,39.5Z"/><path id="睫毛" class="cls-10" d="M168.5,58.5s.82,1.8,3.73,2.12c.38.33-1.73-1.28-1.73-2.12"/></g><g id="頭髮"><polyline class="cls-12" points="229.17 167.87 183.2 165.73 182.13 83.42 260.17 80.21 259.1 146.49"/><polyline class="cls-12" points="251.62 147.56 259.1 173.21 232.37 162.52"/><path class="cls-13" d="M194.17,126.86c-.67,4.26-2.67,8.81,0,13.41,3.35,5.75,7.77,16,11.79,19.82"/><path class="cls-13" d="M223.32,84.28c-4.68,5.36-8.19,49.23,6.45,73.43,6.44,10.65.42,24.3-1.77,26.22-7.29,6.39-9.37,6.39-21.41,6.39,1.76.84,12.6-5.07,10.28-23"/><path class="cls-13" d="M210,176.06c11.38-8.31,6-12.78,1.33-24.28a29.45,29.45,0,0,1,0-21.72"/><path class="cls-14" d="M232.91,165.2c16.06,3.19,8.27,32.19-10.46,32.58,38.67-.51,29.44-26.19,25.42-29.39s-10.5-8.16-8-21.72c5.35-29.38-12.31-23.08-12.31-56.3"/><path class="cls-13" d="M206,160.09c4,3.83,8,10.86,3.34,17.25s-10,7.66-11.37,19.16c-.27,2.29,4,11.5,4,11.5-6.2-2.28-12.21-15.6-7.36-30.66C196.54,171.26,199.19,167.58,206,160.09Z"/><path class="cls-13" d="M233.77,82.36c.43,9.8,6.93,17,14.06,26.83,5.11,7,11.55,17.14,3.25,28.21l-2.61,4.37c-2.56,3.62-5.37,12.52,3.83,19.17a15.84,15.84,0,0,1,5.11,20.44c5.11-4.6,8.64-13,7-15.33-2.67-5.13-15.6-13.63-7-18.31,3.6-2,9.7-7.13,9.7-7.13,5.35-5.35-2.13-12.83-2.13-12.83-6.42-6.41,3.2-17.1,4.27-21.38,4.28-12.83-1.07-15-9.62-25.65-4.27-7.49,2.84-9.72,1.07-20.31-1.07-6.42-6.41-11.76-15-11.76-31,10.69-55.59,33.14-68.42,20.31,14.31,11.13-5.42,53.88-5.42,53.88-1,2.77-2.52,4.17-3.13,10.26-1.07,10.69,0,17.1,2.14,21.38s11.76,15,11.76,15,2.13,3.21,0,5.35-16,11.76-17.11,15-2.14,8.55,2.14,10.69,5.34,5.35,18.17-1.07c0,0-16,1.07-13.89-5.34s5.34-8.55,12.82-9.62,13.9-11.76,12.83-19.24c0-5.35-10.69-9.63-12.83-20.32s-2.13-17.1,0-21.37c.68-1.36,8.56-10.69,10.69-20.32a52.58,52.58,0,0,0,1.07-17.1"/><path class="cls-10" d="M261.77,94.64s3.23,7.09-1.07,12.83c-3.21,4.28-3.21,15,5.35,21.38"/><path class="cls-10" d="M244.67,74.33c0,1.07,1.07,9.62,6.41,11.76,5.93,3.72,7.87,8.65,5.35,15,0,0,5.34-3.21,5.34-6.42s-4.28-6.41-4.28-6.41"/><path class="cls-13" d="M259.63,173.75s-20.31-5.35-20.31-20.31"/><path class="cls-10" d="M253.75,58.83s-2.14-4.27-6.41-4.27-7.48,4.27-7.48,4.27"/><path class="cls-12" d="M233.86,69.05c-2.72,1.43-7.65,2.68-10.39,2.4-1.68-.52-3-1.86-3.39-4.6-.56-3.88.9-6.9,3.76-8.6a22.85,22.85,0,0,1,8.81-1.43c.77.09,1.57.23,2.4.41,9.62,2.14,13.89,10.69,13.89,10.69s-5.19,10.23-12.83,11.76c-10.69,2.14-13.89-8.55-13.89-8.55a4.07,4.07,0,0,0,1.25.32C227.28,72.63,233,69.55,233.86,69.05Z"/><path class="cls-12" d="M173.51,45.88c-1.22-14,12.51-27.13,26.26-27.13C219,7,253.22,24.09,245.74,48.68c0,0-7.84,1.5-9.63,8.55,0,0-2.21-5.37-9.62-7.48s-18.17,2.13-18.17,2.13c-22.45,13.9-31,4.28-31,4.28A21.31,21.31,0,0,1,173.51,45.88Z"/><path class="cls-12" d="M226.49,49.75c7.41,2.11,9.62,7.48,9.62,7.48a20.12,20.12,0,0,0-3.46-.41,13.94,13.94,0,0,0-8.81,1.43,29.08,29.08,0,0,0-10.17,6.46c-3.21,3.21-20.44,10.46-29.94,8.55-9.76-2-12.49-19.58-10.22-27.38a21.31,21.31,0,0,0,3.81,10.28s8.55,9.62,31-4.28C208.32,51.88,219,47.61,226.49,49.75Z"/><path class="cls-12" d="M232.65,56.82a22.85,22.85,0,0,0-8.81,1.43A13.94,13.94,0,0,1,232.65,56.82Z"/><path class="cls-12" d="M233.86,69.05c-.89.5-6.58,3.58-10.39,2.4C226.21,71.73,231.14,70.48,233.86,69.05Z"/><path class="cls-5" d="M184.8,123.51S169,141.9,180.53,153.44c12.83,12.82,7.75,20.5,5.34,23.51C181.6,182.3,173,188.71,172,194.06"/><path class="cls-10" d="M166.63,116c-4.28-15,6.41-29.93,6.41-29.93,4.28-4.27,4.28-17.1,4.28-17.1"/><path class="cls-10" d="M227.56,35.85c7.49,6.41,8.55,21.38,8.55,21.38s-2.21-5.37-9.62-7.48-18.17,2.13-18.17,2.13c-22.45,13.9-31,4.28-31,4.28a21.31,21.31,0,0,1-3.81-10.28c-1.22-14,12.51-27.13,26.26-27.13C219,7,253.22,24.09,245.74,48.68c0,0-7.84,1.5-9.63,8.55"/><path class="cls-5" d="M223.84,58.25a29.08,29.08,0,0,0-10.17,6.46c-3.21,3.21-20.44,10.46-29.94,8.55-9.76-2-12.49-19.58-10.22-27.38"/><path class="cls-5" d="M236.11,57.23a20.12,20.12,0,0,0-3.46-.41"/><path class="cls-10" d="M234,69l-.12.06c-2.72,1.43-7.65,2.68-10.39,2.4a4.07,4.07,0,0,1-1.25-.32s3.2,10.69,13.89,8.55c7.64-1.53,12.83-11.76,12.83-11.76s-4.27-8.55-13.89-10.69c-.83-.18-1.63-.32-2.4-.41a13.94,13.94,0,0,0-8.81,1.43c-2.86,1.7-4.32,4.72-3.76,8.6.4,2.74,1.71,4.08,3.39,4.6,3.81,1.18,9.5-1.9,10.39-2.4"/></g></svg>