<svg xmlns="http://www.w3.org/2000/svg" xmlns:xlink="http://www.w3.org/1999/xlink" viewBox="0 0 864 648"><defs><style>.cls-1,.cls-49,.cls-53,.cls-54{fill:none;}.cls-2{isolation:isolate;}.cls-3{clip-path:url(#clip-path);}.cls-4{fill:#f5f5f5;}.cls-5{fill:#aaa;}.cls-6{fill:#a3a3a3;}.cls-27,.cls-7{fill:#ccc;}.cls-10,.cls-8{fill:#d9d9d9;}.cls-8,.cls-9{stroke:#e6e6e6;}.cls-10,.cls-26,.cls-27,.cls-45,.cls-54,.cls-55,.cls-56,.cls-8,.cls-9{stroke-miterlimit:10;}.cls-12,.cls-9{fill:#d2d2d2;}.cls-10,.cls-45{stroke:#f2f2f2;}.cls-11{fill:#f9f9f9;}.cls-13,.cls-31,.cls-36,.cls-39,.cls-43{mix-blend-mode:screen;}.cls-14{fill:url(#鍊踑臇蜸馯鳺艜_5);}.cls-15{fill:#b8b8b8;}.cls-16{fill:#e6e6e6;}.cls-17{fill:#929292;}.cls-18{fill:#b6b6b6;}.cls-19{fill:#b2b2b2;mix-blend-mode:multiply;}.cls-20{fill:#a9a9a9;}.cls-21{fill:#9c9c9c;}.cls-22{fill:#d7d7d7;}.cls-23{fill:#cacaca;}.cls-24{fill:#4d4d4d;}.cls-25,.cls-26{fill:#afafaf;}.cls-26,.cls-47,.cls-48,.cls-49,.cls-50,.cls-52,.cls-53,.cls-54,.cls-55,.cls-56{stroke:#999;}.cls-27{stroke:#aaa;}.cls-28{fill:#dcdcdc;}.cls-29{fill:url(#鍊踑臇蜸馯鳺艜_17);}.cls-30{fill:url(#鍊踑臇蜸馯鳺艜_14);}.cls-31{fill:url(#鍊踑臇蜸馯鳺艜_16);}.cls-32{fill:#f6f6f6;}.cls-33{fill:#9f9f9f;}.cls-34{fill:#b1b1b1;}.cls-35{fill:#bebebe;}.cls-36{fill:url(#鍊踑臇蜸馯鳺艜_18);}.cls-37{fill:url(#鍊踑臇蜸馯鳺艜_17-2);}.cls-38{fill:url(#鍊踑臇蜸馯鳺艜_14-2);}.cls-39{fill:url(#鍊踑臇蜸馯鳺艜_16-2);}.cls-40,.cls-47,.cls-55,.cls-56{fill:#bfbfbf;}.cls-41{fill:url(#鍊踑臇蜸馯鳺艜_4);}.cls-42{fill:#e5e5e5;}.cls-43{opacity:0.56;fill:url(#鍊踑臇蜸馯鳺艜_2);}.cls-44,.cls-48{fill:#fff;}.cls-45,.cls-51,.cls-52{fill:#ededed;}.cls-46{clip-path:url(#clip-path-2);}.cls-47,.cls-48,.cls-49,.cls-50,.cls-52,.cls-56{stroke-linecap:round;}.cls-47,.cls-48,.cls-49,.cls-50,.cls-52,.cls-53{stroke-linejoin:round;}.cls-50{fill:#dbdbdb;}.cls-53{stroke-linecap:square;}</style><clipPath id="clip-path"><rect class="cls-1" width="864" height="648"/></clipPath><linearGradient id="鍊踑臇蜸馯鳺艜_5" x1="251.94" y1="38.24" x2="262.15" y2="387.52" gradientUnits="userSpaceOnUse"><stop offset="0" stop-color="#7f7f7f"/><stop offset="1"/></linearGradient><linearGradient id="鍊踑臇蜸馯鳺艜_17" x1="728.35" y1="352.27" x2="763.42" y2="352.27" gradientUnits="userSpaceOnUse"><stop offset="0" stop-color="#bcbcbc"/><stop offset="0.46" stop-color="#b9b9b9"/><stop offset="0.85" stop-color="#aeaeae"/><stop offset="1" stop-color="#a8a8a8"/></linearGradient><linearGradient id="鍊踑臇蜸馯鳺艜_14" x1="745.78" y1="334.75" x2="760.46" y2="334.75" gradientUnits="userSpaceOnUse"><stop offset="0" stop-color="#c2c2c2"/><stop offset="1" stop-color="#989898"/></linearGradient><linearGradient id="鍊踑臇蜸馯鳺艜_16" x1="749.02" y1="324.56" x2="747.42" y2="381.35" gradientUnits="userSpaceOnUse"><stop offset="0" stop-color="#666"/><stop offset="0.88"/></linearGradient><linearGradient id="鍊踑臇蜸馯鳺艜_18" x1="642.54" y1="98.53" x2="555.17" y2="258.63" gradientUnits="userSpaceOnUse"><stop offset="0" stop-color="#d6d6d6"/><stop offset="0.56" stop-color="#505050"/><stop offset="0.88"/></linearGradient><linearGradient id="鍊踑臇蜸馯鳺艜_17-2" x1="-682.1" y1="479.13" x2="-748.81" y2="487.68" gradientTransform="matrix(-1, 0, 0, 1, -50.58, 0)" xlink:href="#鍊踑臇蜸馯鳺艜_17"/><linearGradient id="鍊踑臇蜸馯鳺艜_14-2" x1="-683.21" y1="470.75" x2="-749.83" y2="479.28" gradientTransform="matrix(-1, 0, 0, 1, -50.58, 0)" xlink:href="#鍊踑臇蜸馯鳺艜_14"/><linearGradient id="鍊踑臇蜸馯鳺艜_16-2" x1="-694.9" y1="457.1" x2="-708.22" y2="508.14" gradientTransform="matrix(-1, 0, 0, 1, -50.58, 0)" xlink:href="#鍊踑臇蜸馯鳺艜_16"/><linearGradient id="鍊踑臇蜸馯鳺艜_4" x1="11.5" y1="447.89" x2="111.69" y2="447.89" gradientUnits="userSpaceOnUse"><stop offset="0" stop-color="#fff"/><stop offset="0.07" stop-color="#f8f8f8"/><stop offset="0.7" stop-color="silver"/><stop offset="1" stop-color="#aaa"/></linearGradient><linearGradient id="鍊踑臇蜸馯鳺艜_2" x1="86.38" y1="386.76" x2="79.21" y2="519.63" gradientUnits="userSpaceOnUse"><stop offset="0" stop-color="#e5e5e5"/><stop offset="0.52" stop-color="#5f5f5f"/><stop offset="0.88"/></linearGradient><clipPath id="clip-path-2"><rect class="cls-1" x="289.5" y="437.58" width="285" height="206.68"/></clipPath></defs><title>product6</title><g class="cls-2"><g id="圖層_3" data-name="圖層 3"><g id="景物"><g class="cls-3"><rect id="背景" class="cls-4" width="864" height="648"/><polygon class="cls-5" points="866.75 495 -0.5 495 0.5 648 866.75 648 866.75 495"/><polygon class="cls-6" points="865.75 648 633.75 653 0.5 647.76 0.59 502.97 324.92 502.97 0.5 528 -0.5 550 633.75 626 865.75 503 865.75 648"/><polygon class="cls-7" points="466.82 502.26 194.75 502.26 186.86 -24.74 474.7 -24.74 466.82 502.26"/><polygon class="cls-8" points="469.73 -24.74 461.85 502.26 469.73 502.26 479.94 -24.74 469.73 -24.74"/><polygon class="cls-9" points="411.62 -24.74 385.54 441.25 121.27 441.25 116.22 -24.74 411.62 -24.74"/><polygon class="cls-10" points="449.05 481.69 451.54 461.47 392.51 461.47 395 441.25 124.14 441.25 124.14 461.81 124.14 461.81 124.14 482.03 124.14 482.03 124.14 502.25 505.63 502.25 508.35 481.69 449.05 481.69"/><polygon class="cls-7" points="124.14 502.25 505.63 502.25 506.02 499.29 124.14 497.56 124.14 502.25"/><polygon class="cls-7" points="449.05 481.69 124.14 482.03 124.14 476.44 449.37 479.07 449.05 481.69"/><polygon class="cls-7" points="392.51 461.47 124.14 461.81 124.14 457.11 392.92 458.12 392.51 461.47"/><polygon class="cls-7" points="124.14 441.25 142.45 441.25 147.54 461.81 160.45 461.81 165.89 482.03 180.84 481.97 191.03 502.25 124.14 502.25 124.14 441.25"/><polygon class="cls-8" points="117.47 -24.74 125.39 502.26 119.68 502.26 102.92 -24.74 117.47 -24.74"/><polygon class="cls-11" points="138.4 79.52 147.62 435.59 245.9 435.59 241.56 79.52 138.4 79.52"/><polygon class="cls-11" points="248.81 79.52 249.46 435.59 341.87 435.59 355.46 79.52 248.81 79.52"/><rect class="cls-12" x="138.38" y="359" width="217.11" height="2.67" transform="translate(-6.63 4.63) rotate(-1.06)"/><g class="cls-13"><polygon class="cls-14" points="137.07 76.85 354.13 76.85 397.53 200.67 384.21 438.58 122.81 438.58 119.32 171.78 137.07 76.85"/></g><polygon class="cls-7" points="862.79 397.29 862.79 397.36 866.24 397.35 885.44 397.29 903.45 397.24 903.55 396.04 903.54 396.04 865.64 395.51 865.34 384.86 904.49 384.86 904.5 384.86 904.62 383.4 891.79 382.99 870.44 382.47 862.79 382.28 862.79 397.29"/><polygon class="cls-15" points="805.08 385.98 806.23 392.59 813.58 392.28 815.45 385.98 805.08 385.98"/><polygon class="cls-15" points="841.99 381.79 841.99 397.39 846.58 397.39 845.58 381.87 841.99 381.79"/><polygon class="cls-15" points="852.27 397.39 853.98 397.38 853.98 382.07 848.09 381.93 850.11 397.39 852.27 397.39"/><path class="cls-16" d="M809.18,381l32.81.8v15.6h4.59v0l-44.1.12-1.09-16.74Zm4.4,11.29,1.87-6.3H805.08l1.15,6.61Z"/><path class="cls-17" d="M809.18,381V368.6l3.6-.06,42-.64,5.79-.1,9.91-.15v14.82l-7.65-.19-8.81-.21-5.89-.14-2.51-.06-3.59-.08Zm39.47-3.47-.65-6.19-32.91.35v5.41Zm12.54.17v-6.51l-9.71.1v6.28Z"/><polygon class="cls-18" points="815.09 371.68 815.09 377.09 848.65 377.52 848 371.33 815.09 371.68"/><polygon class="cls-16" points="848.39 397.4 850.11 397.39 848.09 381.93 845.58 381.87 846.58 397.39 846.58 397.4 848.39 397.4"/><polygon class="cls-18" points="851.48 371.28 851.48 377.56 861.19 377.69 861.19 371.18 851.48 371.28"/><polygon class="cls-16" points="858.06 397.37 860.39 397.37 862.79 397.36 862.79 397.29 862.79 382.28 853.98 382.07 853.98 397.38 858.06 397.37"/><polygon class="cls-18" points="856.18 341.97 854.74 367.9 860.53 367.8 863.83 341.97 856.18 341.97"/><polygon class="cls-15" points="863.83 341.97 860.53 367.8 870.44 367.65 879.59 367.51 882.29 341.97 863.83 341.97"/><polygon class="cls-19" points="870.44 367.65 809.18 368.64 809.18 371.33 870.44 373.68 870.44 367.65"/><path class="cls-8" d="M794.58,110.66V256.79h-5.31c.1-78.87.18-146.13.18-146.13Z"/><polygon class="cls-20" points="871.82 204.27 869.01 260.02 836 260.02 871.82 204.27"/><polygon class="cls-20" points="872.22 194.81 871.82 204.27 861.83 194.81 872.22 194.81"/><polygon class="cls-21" points="871.82 204.27 836 260.02 827.05 249.18 861.83 194.81 871.82 204.27"/><polygon class="cls-22" points="856.21 203.6 867.02 211.74 864.75 215.28 854.4 206.42 856.21 203.6"/><polygon class="cls-8" points="794.58 256.79 881.58 256.79 881.5 260.25 794.58 260.25 789.27 260.25 740.52 260.25 740.45 256.79 789.27 256.79 794.58 256.79"/><polygon class="cls-8" points="794.58 397.31 878.96 397.31 878.86 402.51 794.58 402.51 789.07 402.51 743.16 402.51 743.06 397.31 743.16 397.31 789.09 397.31 794.58 397.31"/><polygon class="cls-23" points="876.34 512.09 875.76 530.43 748.91 530.43 748.42 512.09 876.34 512.09"/><path class="cls-8" d="M794.58,402.51V503.23h-5.64s0-43.08.12-100.72Z"/><polygon class="cls-24" points="851.45 466.59 851.33 468.02 820.28 468.82 820.28 482.3 850.01 482.84 849.83 484.9 818.3 484.9 818.3 466.59 851.45 466.59"/><polygon class="cls-25" points="851.33 468.02 850.01 482.84 820.28 482.3 820.28 468.82 851.33 468.02"/><polygon class="cls-20" points="868.18 484.9 868 486.36 827.09 487.15 827.09 500.61 866.18 501.17 866.2 501.17 865.94 503.23 824.33 503.23 824.33 484.9 835.86 484.9 867.38 484.9 868.18 484.9"/><polygon class="cls-26" points="868 486.36 866.2 501.17 866.18 501.17 827.09 500.61 827.09 487.15 868 486.36"/><polygon class="cls-17" points="818.3 466.59 818.3 484.9 806.78 484.9 769.6 484.9 767.62 466.59 818.3 466.59"/><polygon class="cls-26" points="824.33 484.9 824.33 503.23 756.6 503.23 753.84 484.9 787.15 484.9 824.33 484.9"/><polygon class="cls-18" points="803.25 466.59 802.11 484.9 810.52 484.9 809.54 466.59 803.25 466.59"/><polygon class="cls-18" points="773.17 466.59 775.47 484.9 777.13 484.9 775.98 466.59 773.17 466.59"/><polygon class="cls-18" points="760.65 484.9 761.55 503.23 767.91 503.23 767.91 484.9 760.65 484.9"/><polygon class="cls-18" points="806.66 484.9 804.88 503.23 807.42 503.23 808.44 484.9 806.66 484.9"/><polygon class="cls-18" points="811.5 484.9 809.53 503.23 814.95 503.23 814.95 484.9 811.5 484.9"/><path class="cls-8" d="M794.58,260.24V397.31h-5.49c0-42.17.1-91.39.18-137.07Z"/><polygon class="cls-27" points="889.3 256.92 884.29 512.09 876.34 512.09 748.42 512.09 737.73 512.09 737.55 503.38 745.04 503.23 788.94 503.23 794.58 503.23 876.98 503.23 878.86 402.51 878.96 397.31 881.5 260.25 881.58 256.79 882.34 256.79 889.3 256.92"/><polygon class="cls-8" points="743.16 402.51 745.04 503.23 737.55 503.38 729.63 99 892.4 99 889.3 256.92 882.34 256.79 881.58 256.79 884.29 110.66 794.58 110.66 789.45 110.66 737.73 110.66 740.45 256.79 740.52 260.25 743.06 397.31 743.16 402.51"/><path class="cls-28" d="M749.3,324.31c.36-15.07-12.61-28.27-13.68-43.32,5.84,7.73,10.27,16.35,12.2,25.45-1.28-13.55,2.49-27.88,9.19-40.15-.31,14.56-.17,28.75-.48,43.31,2.94-9.66,5.2-18.77,8.14-28.44,2.05,14.56-3.24,29-8.46,43C754.1,324.15,751.41,324.31,749.3,324.31Z"/><path class="cls-16" d="M751.5,323c-.56-7.36-3-14.49-4.94-21.68s-3.28-14.69-1.6-21.92c2.8,9.77,5.07,19.17,7.87,28.94-.84-8.66,2.65-17.21,4.88-25.68a72.9,72.9,0,0,0,1.47-30.08c3.19,4.8,4.47,10.75,4.55,16.31s-.9,11.07-1.9,16.56Q758.43,304.21,755,323C753.94,323,752.59,323,751.5,323Z"/><path class="cls-29" d="M766.1,375.76a21.53,21.53,0,0,1-4,7.54h-17.9c-2-2.1-3.06-4.87-4-7.54a104.55,104.55,0,0,0,5.62-54.52h14.68A96.41,96.41,0,0,0,766.1,375.76Z"/><path class="cls-30" d="M756.59,348.27a97.12,97.12,0,0,1,2.35-14.2,96,96,0,0,1,1.52-12.83H745.78a105.75,105.75,0,0,1,1.34,18.53l.15.55q1.92-6.12,3.85-12.24a50.06,50.06,0,0,0,1.69,15.58l1.9-8.27Q755.66,341.83,756.59,348.27Z"/><path class="cls-31" d="M752.18,322.27c1.82,17.46-1.5,37.91-4.7,52.3.45,2.3,1,4.41,1.49,6.72H746.5c-1-2-1.84-4.36-2.86-6.35a142.18,142.18,0,0,0,3.9-52.68C748.84,322.4,750.87,322.14,752.18,322.27Z"/><polygon class="cls-32" points="544.72 73.83 551.37 229.04 668.31 227.49 669.85 75.71 544.72 73.83"/><polygon class="cls-4" points="556.24 81.55 558.39 151.73 560.45 218.98 659.12 218.98 661.16 113.61 661.69 86.39 556.24 81.55"/><path class="cls-33" d="M675.41,70.58l-2.13,161.67L546.6,234,538.94,68.43Zm-7.1,156.91,1.54-151.78L544.72,73.83,551.37,229Z"/><polygon class="cls-34" points="538.94 68.43 544.73 73.83 551.38 229.03 668.32 227.49 673.28 232.25 546.6 234 538.94 68.43"/><path class="cls-35" d="M660,174.68c-1.08.67-2.14,1.34-3.21,2-3.66,2.36-7.26,4.81-10.86,7.26s-7.46,4.77-10.87,7.51-53.56,5.2-55.8,9c-.49.83,47,1.67,47.85,1.52,4.33-.79,8.13-3.24,11.78-5.55s7.33-5.17,11-7.75c3.37-2.4,6.71-4.81,10-7.28Z"/><path class="cls-35" d="M560,204c9.78-6.89,66.25-13.79,76-20.69,8-5.65,16.07-11.21,24.11-16.8l.18-8.87c-9.24,6.62-18.43,13.28-27.7,19.84l-3.46,2.45q15.51-16.38,31.35-32.44l.19-9.42a3,3,0,0,0-1.9,1.14c-8.39,6.34-17.12,12.21-25.83,18.09,7.23-6.3,14.64-12.42,22-18.55,2.16-1.8-.59-4.85-2.86-3.71-8.62,4.34-17.19,8.6-25.51,13.52-7.27,4.3-61,9-67.88,13.81l.09,2.72c7.67-4.22,61.92-8.61,69.54-12.91l3.61-2c-9.14,7.53-64.53,15.63-72.87,24l.31,10.27c9.74-8,66.88-15,77.36-22-10.24,10.58-67,21.28-77,32.07Z"/><path class="cls-35" d="M558.33,149.84c1.89-1.39,3.78-2.8,5.74-4.07,4.72-3.07,9.55-6,14.34-8.94,10.07-6.25,66.53-13,76-20.11,2.28-1.7,4.53-3.44,6.77-5.19l.09-4.89c-2.52,2-5,4-7.47,5.93q-7.17,5.42-14.55,10.52c-9.5,6.57-66.12,12.45-75.74,18.84-1.73,1.16-3.56,2.37-5.33,3.68Z"/><polygon class="cls-36" points="607.97 74.89 579.24 228.42 619.61 227.53 656.76 75.4 607.97 74.89"/><path class="cls-28" d="M668.74,372.93a681.27,681.27,0,0,0-3.9,94.44c1.36-.27,3.53.52,4.79-1s1.08-4.68,1.19-8.31q.42-14.39.32-28.85c-.06-9.62-.31-19.23-.72-28.78q-.3-7.17-.75-14.28C669.48,383.06,668.42,375.7,668.74,372.93Z"/><path class="cls-28" d="M673.43,468.17c-.19-53.7-.28-108.14,13.11-160-13.75,52.38-20.81,106.29-17.86,160.48C670,468.27,672.11,468.54,673.43,468.17Z"/><path class="cls-28" d="M663.79,468.4q-.15-38-.28-76.06c-.15-41.34-.38-83.32-11.49-123,6.85,10.28,10.68,23.23,12.45,35.59s1.74,24.9,1.69,37.39q-.24,63.22-.49,126.43C665.63,468,663.79,469.09,663.79,468.4Z"/><path class="cls-28" d="M661.57,469.27c1.31-32.38,2.62-65-1.84-97.06a270.29,270.29,0,0,0-16.17-61.71c8.72,10.89,14.18,24.5,16.67,38.41s2.7,28.13,2.89,42.28q.54,39.27,1.07,78.54C663.15,469.7,662.62,469.3,661.57,469.27Z"/><path class="cls-28" d="M673.16,469.1c.91,0,1.59.42,2.49.46a299.63,299.63,0,0,1,10.08-82.9c-5.45,4.93-8.14,11.4-9.78,18.7s-1.78,14.88-1.93,22.38C673.75,441.68,673.43,455.15,673.16,469.1Z"/><path class="cls-28" d="M663.08,469c-1,0-1.81.49-2.84.53a341.25,341.25,0,0,0-11.49-94.5c6.22,5.62,9.28,13,11.15,21.32s2,16.95,2.2,25.5C662.41,437.78,662.78,453.13,663.08,469Z"/><path class="cls-37" d="M651.36,502.43h30.82c13-3.64,19.34-26.9,10.23-36.26H641.14C633.89,474.35,637.77,498.1,651.36,502.43Z"/><path class="cls-38" d="M641.14,466.17h51.27c3.35,3.45,4.59,8.78,4.19,14.33a4.35,4.35,0,0,1-1.2.46c-2.22.47-4.15-1.59-5.59-3.51s-3.21-4.07-5.47-3.86-3.81,3-4.54,5.45-1.32,5.3-3.31,6.74a5.17,5.17,0,0,1-6-.26c-3.19-2.27-2.48-5.41-4.21-8.62-.94-1.73-2.7-3.09-4.52-2.82s-3.26,2.15-4.09,4-1.38,4-2.65,5.56-3.62,2.4-5.1,1.05c-1.1-1-1.27-2.74-1.53-4.29s-.93-3.29-2.33-3.62c-1.19-.28-2.32.63-3.49,1a5.34,5.34,0,0,1-5-1.3C637.87,472.32,639,468.57,641.14,466.17Z"/><path class="cls-39" d="M656.7,500.38a65.43,65.43,0,0,1,0-31.89c-.1,0-.14-.26-.25-.26H642.75a34.87,34.87,0,0,0,1.37,22.94,20.26,20.26,0,0,0,4.64,7C650.8,500.05,654.05,500.55,656.7,500.38Z"/><path class="cls-16" d="M700.79,469.77c-7.38-7.43-14.8-14.91-20.8-23.58s-11.3-18.18-12.24-28.8c6.26,1,11.48,3.71,16.69,7.43A45.88,45.88,0,0,1,695.12,407C701.21,427.11,703.82,449,700.79,469.77Z"/><path class="cls-28" d="M684.79,437.45a26,26,0,0,1,6.06,1.09c-.94-2.22-1.85-4.28-2.69-6.09h-.06a.17.17,0,0,0,0-.07,43.15,43.15,0,0,0-7.1-3.59,35.63,35.63,0,0,0-5.28-1.61,32,32,0,0,1,5.48,1,32.51,32.51,0,0,1,6,2.24l-.41-.84-2.46-4.94s1.25,1.69,3,4.61c.31.5.64,1.06,1,1.63a30.5,30.5,0,0,1,2.58-8,31.12,31.12,0,0,1,2.3-3.95c.67-1,1.14-1.54,1.14-1.54a30.79,30.79,0,0,0-2.84,5.76,36.05,36.05,0,0,0-2.1,9.46h-.11c1,1.75,1.94,3.74,2.91,5.91a25.29,25.29,0,0,1,5.56-9.73,26.85,26.85,0,0,0-2.55,4.52,31.09,31.09,0,0,0-2.17,7.16l.3.74c.45,1.12.86,2.22,1.24,3.3a16.18,16.18,0,0,1,2.44-2.69,17,17,0,0,1,2.71-2,19.49,19.49,0,0,0-2.24,2.44,26.23,26.23,0,0,0-2.4,3.75c1,3,1.71,5.8,2.2,8,.74,3.36,1,5.48,1,5.48l-1.64-5.3c-.67-2.09-1.55-4.68-2.61-7.54a20.38,20.38,0,0,0-4.49.36,16.54,16.54,0,0,0-3.08.93,14.71,14.71,0,0,1,2.9-1.58,14.38,14.38,0,0,1,4.18-1c-.44-1.18-.92-2.41-1.42-3.66l-.6-1.48h0a38.28,38.28,0,0,0-6.83-2.08,30.72,30.72,0,0,0-4.71-.55A27.11,27.11,0,0,1,684.79,437.45Z"/><path class="cls-16" d="M627.49,451.75l6.65-5c3.9-2.94,7.79-5.88,11.62-8.91,5.6-4.42,11.14-9.14,15-15.21s6-14.1,4.09-21.12a24.14,24.14,0,0,0-12.81,2,21,21,0,0,0-8.27-6.65c-4.53,5.17-10,9.46-13.78,15.27s-5.38,12.63-5.74,19.49S626.28,445,627.49,451.75Z"/><path class="cls-28" d="M629.91,438.19a75.6,75.6,0,0,1,3.16-8.71,13.38,13.38,0,0,0-2.76-4.25,11.61,11.61,0,0,0-2.91-2.16,9.34,9.34,0,0,1,1,.37,10.68,10.68,0,0,1,2.28,1.3,11.3,11.3,0,0,1,3,3.31c.8-1.73,1.68-3.51,2.68-5.31.31-.56.63-1.1,1-1.64a22.24,22.24,0,0,0-1.48-5.81,19.22,19.22,0,0,0-2.06-3.77A17.07,17.07,0,0,1,636.4,415a18,18,0,0,1,1.87,4.59,72.73,72.73,0,0,1,4.27-6.12l-.07-.09.11-.08a22.75,22.75,0,0,0-.47-5.51,18.23,18.23,0,0,0-1.19-3.63,16.25,16.25,0,0,1,1.78,3.43,17,17,0,0,1,1,4.37c.82-1,1.62-1.92,2.36-2.73,1.43-1.57,2.63-2.78,3.5-3.59l1.33-1.25s-.42.5-1.2,1.39-1.87,2.21-3.17,3.87c-.44.56-.91,1.18-1.39,1.82a23.46,23.46,0,0,1,6.51-2.69,22.71,22.71,0,0,1,4.66-.69c1.21,0,2,0,2,0s-.76,0-1.95.21a23.66,23.66,0,0,0-4.51,1.1,26.92,26.92,0,0,0-8.6,5l-.09-.11c-1.34,1.93-2.75,4.1-4.16,6.45a37.14,37.14,0,0,1,13.89-1.08c1.27.14,2.06.28,2.06.28a38.57,38.57,0,0,0-7,.13,44.6,44.6,0,0,0-10,2.29c-.2.35-.4.69-.6,1.05-1,1.76-1.88,3.5-2.71,5.18a16.41,16.41,0,0,1,6.1-1.53,16.07,16.07,0,0,1,3.66.2,14.24,14.24,0,0,1,1.5.33,15.17,15.17,0,0,0-1.52-.13,16.84,16.84,0,0,0-3.57.23,18.58,18.58,0,0,0-7.06,2.84l0,0c-1.38,2.95-2.5,5.66-3.33,7.93-.75,2-1.31,3.63-1.66,4.77l-.57,1.78s.13-.65.38-1.83S629.31,440.25,629.91,438.19Z"/><path class="cls-16" d="M677.74,355.36a21.14,21.14,0,0,0-14.12,2.14c7.66,15.47,18.6,29.36,32.22,39.52a95,95,0,0,0,.25-26.09c-.69-4.74-1.77-9.53-4.14-13.65s-6.19-7.57-10.74-8.45C680.06,350.82,678.88,353.38,677.74,355.36Z"/><path class="cls-28" d="M672.25,364a23.07,23.07,0,0,1,3.67-1.11,22.15,22.15,0,0,1,7.4-.3c-.53-.77-1-1.47-1.53-2.08-.89-1.13-1.65-2-2.21-2.62l-.85-.93,1,.79a28.92,28.92,0,0,1,2.54,2.33c.64.66,1.34,1.45,2,2.34a13.24,13.24,0,0,0,.69-4.47,11.78,11.78,0,0,0-.64-3.71,9.71,9.71,0,0,1,.5,1,12,12,0,0,1,.34,8.31,35.41,35.41,0,0,1,3.17,5.21,10,10,0,0,0,2.75-3.26,9.25,9.25,0,0,0,1-3.1,8.72,8.72,0,0,1,0,1,9.9,9.9,0,0,1-.45,2.36,9,9,0,0,1-2.78,4.16,35.68,35.68,0,0,1,1.63,4.46c1.21-.68,3.5-1.62,3.5-1.62a36.29,36.29,0,0,1-3.16,2.87,32.77,32.77,0,0,1,.89,5.09,28.8,28.8,0,0,1,.16,3.51l0,1.28-.17-1.27c-.09-.81-.29-2-.58-3.42a45.44,45.44,0,0,0-1.18-4.6c-1.12,1.08-3.21,2.71-3.21,2.71a44.2,44.2,0,0,1,2.73-4l.08.07c-.51-1.51-1.13-3.1-1.86-4.71a17.48,17.48,0,0,0-5.83,1.53,15.74,15.74,0,0,0-3.59,2.27,15.34,15.34,0,0,1,8.85-5,51.76,51.76,0,0,0-3.07-5.39l-.06.3a26.45,26.45,0,0,0-8-.47,23.16,23.16,0,0,0-5.24,1.11S671.33,364.35,672.25,364Z"/><path class="cls-16" d="M650.07,387.57A37.12,37.12,0,0,0,667.87,369c-2.68-1.43-5-2-8-1.18-1.38-1.83-2.45-3.46-3.83-5.29-1,2.06-3,3.79-4.31,5.66C648,373.46,648.16,381.3,650.07,387.57Z"/><path class="cls-28" d="M652.93,381.26a13.45,13.45,0,0,1,.2-2.1,17.88,17.88,0,0,1,1.51-4.85c.14-.28.29-.54.44-.8a19.75,19.75,0,0,0-.85-2.83,13.62,13.62,0,0,0-.92-1.89,10.29,10.29,0,0,1,1.45,1.57,9.68,9.68,0,0,1,1.11,1.84,16.89,16.89,0,0,1,1.62-2,14.08,14.08,0,0,1,1.5-1.43l-1,1.81c-.29.53-.63,1.15-1,1.85a16.34,16.34,0,0,1,3.6-.87,16.75,16.75,0,0,1,3.34-.1,19,19,0,0,0-3.21.73,26.28,26.28,0,0,0-4.54,2l0-.07-.42.85a.47.47,0,0,1,0,.1,7,7,0,0,1,1.64.12,7.29,7.29,0,0,1,1.58.49,8.91,8.91,0,0,0-1.59.15,17.24,17.24,0,0,0-2.24.6v0c-.54,1.15-1,2.2-1.35,3C653.23,380.52,652.93,381.26,652.93,381.26Z"/><path class="cls-40" d="M73.27,311.35c7.78-14.66,19-35.5,17.82-50.1-6,14.66-10.21,29.83-19.31,43-4.63-18.4-1.06-36.57,7.44-53.29-5.56,2.84-10.61,18.37-12.71,26.53-3.91-6.27-2.05-18.8-4.89-22.67-3.17,26.52,13.91,53.28,2.84,80.06C55,305.54,27.24,269,52,240.1c10.6-3.82,17.44-11.66,20.34-22.64,2.13-3.33,8.92-30.22,1.55-23.75-.45,8.55-4,16.56-7.43,24.31-10.09-35-10.13-21.58-3.36,3.71-5.25,20.64-26.07,4.79-24.16,50.89-8.45-12.36-11.84-27.54-7.73-42.09.28-1.45-1.86-2.08-2.23-.62C18.86,264.63,50,300,59.84,332.72c5.06,14.5-10.21,24.42-10,38.26-10.08-14.65.61-42.83-9.88-53.85,5.23,20.26-5.43,45.09,11.1,61.47.87,3.38,8.74,22.33,11.06,13.87a1.67,1.67,0,0,0,.59,0c5,7.54,5.35-10.67,6.69-13.55,3.9-14.29,10.8-27.22,10.93-42.26.28-.84-1.07-1.44-1.46-.61-3.32,17.47-13.63,32.29-16.15,50.17-14.06-12.94,5.49-29.81,4.28-44.79,3.05-9.52,5.81-19.37,5.42-29.39A1.84,1.84,0,0,0,73.27,311.35Z"/><path class="cls-41" d="M111.21,469.71c2,9.51-2.53,19.52-9.15,25.93s-15.07,10-23.3,13.42H44.45c-8.25-3.43-16.68-7-23.33-13.42S10,479.22,12,469.71c3.68-17.45,30.78-22,30-39.93-.64-14.36-1.46-29-4.34-43H85.56c-2.89,14-3.68,28.69-4.32,43C80.45,447.66,107.55,452.26,111.21,469.71Z"/><path class="cls-7" d="M56.75,386.73H43.88c1.82,11.06,3.52,22.18,3.31,33.38-.23,12-2.77,24.21-9.22,34.33-3.49,5.49-8.13,10.4-10.18,16.58-2.45,7.35-.8,15.58,2.73,22.48a72.38,72.38,0,0,0,10.7,14.75l1.92.81H50a82.06,82.06,0,0,1-3.49-40.72c1.67-9.75,5.1-19.12,7.17-28.79"/><path class="cls-42" d="M111.67,473.36a23.81,23.81,0,0,0-.46-3.65c0-.2-.1-.39-.15-.58-4.6,13.62-16.72,20.95-32.2,20.07-12.81,4.11-23.19,10.32-34.36.28-27.69-10,40.43-22.36,48.61-29.5,1.52-4.88,2.45-7.63,2.88-9l-.26-.2c-1.61,2.76-6.79,11.69-14.08,11.9-27.19-.48-45.49,30.38-68.3,14.54a8.48,8.48,0,0,1-1.55.82,28.26,28.26,0,0,0,.77,3.49c10.61,4.9,29.64,10.28,33.55,12.88,14,15.6,32.23-9.09,49.28-3.33C101.26,489.7,108,481.35,111.67,473.36Z"/><path class="cls-42" d="M55.7,447.37c10.87,6.07,20-1.19,27.54-9.07a16.82,16.82,0,0,1-.94-2c-10,7-24.83,17.46-22.27,5.16.38-11.51,12.92-14.92,21.57-19.07.05-1,.1-2,.16-3-5.59,2.15-12.16,2.43-16.58,7.1-4.5,10.42-22.57,29-30.53,18.45-.85.8-1.74,1.58-2.66,2.35C35.78,451.13,43.15,453.38,55.7,447.37Z"/><path class="cls-43" d="M78.14,420.11c.23,12,2.89,24.21,9.63,34.33,3.66,5.49,8.51,10.4,10.65,16.58,2.56,7.35.84,15.58-2.85,22.48a47.31,47.31,0,0,1-8.75,12.07c-.67.27-7.37,3.22-8,3.49H75.2a78.5,78.5,0,0,0,3.65-40.72c-1.74-9.75-5.32-19.12-7.49-28.79-3.88-17.31-4.08-35.13-3.23-52.82H81.6C79.69,397.79,77.92,408.91,78.14,420.11Z"/><path class="cls-44" d="M51.23,449.25c.67-2.42,1.3-4.84,1.88-7.29-3.86,3.33-8,5.75-11.7,6-.45,1-.91,2-1.43,3A25.14,25.14,0,0,0,51.23,449.25Z"/><path class="cls-44" d="M28.1,487.56c8,2.82,15.7,5.35,18,6.89.09.11.19.19.28.29-.22-1.38-.38-2.76-.53-4.15-.46-.36-.91-.7-1.37-1.11-10.36-3.74-7.31-7.81,1-11.82,0-.6.08-1.19.13-1.79-6.33,3.31-12.48,5.91-18.78,5.9A33.23,33.23,0,0,0,28.1,487.56Z"/><path class="cls-45" d="M37.63,386.73l24-.65c4-.06,8,0,12,0H86.38l-.17.81c-2.51,12.25-3.42,24.78-4,37.3l-.22,4.7a18,18,0,0,0,.22,4.54,17.55,17.55,0,0,0,4,8c4,4.7,9.28,8.18,14.14,12.19a47.73,47.73,0,0,1,6.86,6.63,22,22,0,0,1,4.46,8.53c1.63,6.33.24,13.05-2.7,18.7a34.48,34.48,0,0,1-5.58,7.78,36.74,36.74,0,0,1-7.47,5.92c-5.4,3.35-11.28,5.66-17.15,7.88,5.71-2.6,11.47-5.19,16.59-8.74s9.6-7.95,12.43-13.46,4.11-11.82,2.58-17.75a20.62,20.62,0,0,0-4.2-8,47.22,47.22,0,0,0-6.66-6.44c-4.8-4-10.15-7.44-14.33-12.37a18.73,18.73,0,0,1-4.31-8.62,19.35,19.35,0,0,1-.25-4.85l.22-4.7c.62-12.54,1.54-25.14,4.07-37.51l.66.8h-12c-4,0-8,0-12,0Z"/></g></g><g id="人"><g id="裙子"><g class="cls-46"><g id="裙子-2" data-name="裙子"><path class="cls-47" d="M486.25,449.74c-3.55-4.55-7.1-27.28-7.1-27.28H356.09s-1.18,16.67-7.1,27.28c-3,3.79-27.81,202.34-29,279.63H514.06c-2.84-84.74-11.84-177.33-27.81-279.63-5.92,0-123.65-.76-136.67-.76"/><line class="cls-47" x1="356.68" y1="450.5" x2="354.31" y2="467.17"/><path class="cls-47" d="M363.36,449S352,517.19,352,527.79"/><path class="cls-47" d="M370.88,450.5s-5.92,37.89-7.1,48.5"/><path class="cls-47" d="M378,462.62c-1.89-1-20.73,134-20.12,192.49"/><line class="cls-47" x1="386.26" y1="450.5" x2="385.08" y2="467.17"/><path class="cls-47" d="M392.18,450.5S378,615.7,380.35,624.79"/><line class="cls-47" x1="401.86" y1="449.25" x2="400.46" y2="467.17"/><path class="cls-47" d="M412.29,450.5s-5.91,92.45-5.91,103.06"/><path class="cls-47" d="M424.13,450.5s4.73,51.53,3.55,69.72"/><path class="cls-47" d="M434.78,450.5s3.55,39.4,3.55,47"/><path class="cls-47" d="M444,449.5s6.14,67.69,5,87.39"/><path class="cls-47" d="M451.93,449.55a78.74,78.74,0,0,1,1.78,17.62"/><path class="cls-47" d="M466.73,450.5s2.36,19.7,3.54,30.31"/><path class="cls-47" d="M473.82,450.5s18.94,147,17.75,160.65"/></g></g></g><g id="左手"><path class="cls-48" d="M349.1,474.87a3.47,3.47,0,0,0,.4-3.42c-1.07-1.74-4.9,3-3.95-.95l1.91-7.89-3.33-5.45-9.2-2.22-3.44,8.45c-1.51,3-4.05,10.25-2.18,14.79,2.34,5.67,11.13,9.65,15.72,9.83,3.68.15,3.05-2.36,2.27-3.63"/><path class="cls-48" d="M336.16,482.73a19.59,19.59,0,0,0,7.76,2.23c3.32.06,8.23-3.43,5-5"/><path class="cls-48" d="M334.68,479c5.06,4,13.15,3.18,15.86-.34,2.17-2.82-.13-3.67-1.33-3.8,0,0-5.46,5.33-15,.32m10-12.45c-1.13.81,0,4.71-2.89,8.12-2,2.32,2.79,2.53,3.94,1"/></g><g id="右手"><path class="cls-44" d="M437.39,94.57l17.9,7.93c-7-7.41-15.26-10.23-17.46-13.52-.06-.16-.11-.3-.15-.45a2.2,2.2,0,0,1,0-1.41c.46-1.18,2.47-.58,2.47-.58s7.57,5.84,9.48,5.87,5.07-.71,7.19.22C460,94.25,463,98.79,463,98.79l12.18,21.44-2.23,12.64-21.76-8.07s-11.29,2.65-11.71.84,1.62-3.24,3.32-4.11c1.48-.77,9.82-2.78,9.82-2.78l1.21-1.83s-13-11-16.61-16.37-1.59-6.77-1.59-6.77Z"/><path class="cls-44" d="M455.29,102.5l-17.9-7.93-.2-.2c-2.55-5.18.12-5.78.49-5.84,0,.15.09.29.15.45C440,92.27,448.31,95.09,455.29,102.5Z"/><path class="cls-49" d="M455.29,102.5c-7-7.41-15.26-10.23-17.46-13.52-.06-.16-.11-.3-.15-.45a2.2,2.2,0,0,1,0-1.41c.46-1.18,2.47-.58,2.47-.58s7.57,5.84,9.48,5.87,5.07-.71,7.19.22C460,94.25,463,98.79,463,98.79l12.18,21.44-2.23,12.64-21.76-8.07s-11.29,2.65-11.71.84,1.62-3.24,3.32-4.11c1.48-.77,9.82-2.78,9.82-2.78l1.21-1.83s-13-11-16.61-16.37-1.59-6.77-1.59-6.77"/><path class="cls-49" d="M437.72,88.53h0c-.37.06-3,.66-.49,5.84l.2.2c4.92,4.85,9.87,6.09,12.46,11.12"/><path class="cls-49" d="M460.57,100.76c-2.11-3.1-11.47-8.26-11.47-8.26"/></g><g id="身體"><path class="cls-50" d="M490.56,314.92c.3-1.81-4,36-6,64-4,23,5.18,49.23,6,55,1,7-11.08,9.54-12.38,11.2-3.12,1.05-16.64,9-16.64,9-10.39-1.06-28.06,4.23-28.06,4.23-15.6,1.06-26-2.56-38.51-.44-6.36,1.07-30-5.81-33.55-6.87a35,35,0,0,0,.25-3.87c0-4-5-3-16-6-5.26-1.43-12.59-4.3-16.48-5.34a2.63,2.63,0,0,0-.55-.09l0-.57s26.09-171.12,38-186c3.6-6.25,42-21,42-21s7,8,30,12,36-7,36-7,5.25,6.12,11.3,13.7l-.37.3C489.56,272.92,489.56,305.92,490.56,314.92Z"/><path class="cls-51" d="M361.42,451a155.65,155.65,0,0,1-4.19,20.1,3.39,3.39,0,0,1-2.85,2.5c-2.69.33-7.93.41-16.71-1.47-8.34-1.79-15.95-7.05-19.26-9.59a3,3,0,0,1-1-3.42l8.3-21.58a2.87,2.87,0,0,1,2.9-1.84,2.63,2.63,0,0,1,.55.09c3.89,1,11.22,3.91,16.48,5.34,11,3,16,2,16,6A35,35,0,0,1,361.42,451Z"/><path class="cls-50" d="M509.42,211.47a5.55,5.55,0,0,1,2.14,3.45c.84,11.58-10,18-10,18-7,5-17,11-17,11-1,9-2.06,52,6,58,0,0,22.86-22.82,28-26,21-13,40-45,40-58,0-14.14-74-99-74-99s-15,25-25,28C475.56,160.92,500.32,205.28,509.42,211.47Z"/><path class="cls-49" d="M361.42,451a155.65,155.65,0,0,1-4.19,20.1,3.39,3.39,0,0,1-2.85,2.5c-2.69.33-7.93.41-16.71-1.47-8.34-1.79-15.95-7.05-19.26-9.59a3,3,0,0,1-1-3.42l8.3-21.58a2.87,2.87,0,0,1,2.9-1.84,2.63,2.63,0,0,1,.55.09c3.89,1,11.22,3.91,16.48,5.34,11,3,16,2,16,6A35,35,0,0,1,361.42,451Z"/><path class="cls-49" d="M329.67,439.17a152,152,0,0,0-9,22"/><path class="cls-49" d="M333.67,441.17a101,101,0,0,0-9,22"/><path class="cls-49" d="M337.67,443.17c-3.22,7.27-5.18,12.94-8,21"/><line class="cls-49" x1="341.67" y1="444.17" x2="333.67" y2="466.17"/><path class="cls-49" d="M346.67,445.17l-8,23"/><path class="cls-49" d="M350.67,446.17a96.55,96.55,0,0,1-7,23"/><path class="cls-49" d="M354.67,447.17a67.7,67.7,0,0,1-6,22"/><path class="cls-49" d="M358.67,448.17a65.09,65.09,0,0,1-6,22"/><path class="cls-49" d="M484.56,244.92c-6.05-7.58-9.89-11.75-9.89-11.75s-13,11-36,7-30-12-30-12-38.4,14.75-42,21c-11.91,14.88-38,186-38,186"/><path class="cls-49" d="M361,450.91l.45.13C365,452.1,388.61,459,395,457.91c12.47-2.12,22.91,1.5,38.51.44,0,0,17.67-5.29,28.06-4.23,0,0,13.52-7.95,16.64-9"/><path class="cls-49" d="M390,275.91c-3,33-12,131-30,168"/><path class="cls-52" d="M466.45,154.31a.53.53,0,0,1-.68-.12l-13.63-16.05s-1.44-4.13-.94-6.8,7.11-11.38,9.43-13.43,7-6.15,12.91-7,15.71,13.45,15.71,13.45l-1.09.31c-2.79.86-10.15,3.46-13.41,7.74-4.9,6.46-7.66,17.27-8,21.47A.48.48,0,0,1,466.45,154.31Z"/><path class="cls-53" d="M465.21,145a106.13,106.13,0,0,1-12.44-11.73"/><path class="cls-53" d="M466.21,139.68A68,68,0,0,1,454.79,129"/><path class="cls-53" d="M468,135.06l-12.65-10.52"/><path class="cls-53" d="M470.56,130.31a54.11,54.11,0,0,0-12.43-9"/><path class="cls-53" d="M473.61,127.29a114.45,114.45,0,0,0-12-8.64"/><path class="cls-53" d="M476.78,125.13a44.66,44.66,0,0,0-11.16-8.77"/><path class="cls-53" d="M480.39,123a65.05,65.05,0,0,0-10.64-8.07"/><path class="cls-53" d="M484.09,121.52a51.42,51.42,0,0,0-10.2-8"/><path class="cls-54" d="M514.51,243.2c-1.4,7.27-4.37,16.2-10.6,22.31"/><path class="cls-49" d="M359.17,328.67c1.45,4.39,3.76,8.45,9.91,14.6"/></g><g id="頭髮"><polyline class="cls-40" points="445.33 284.54 399.37 282.4 398.3 200.09 476.33 196.88 475.26 263.16"/><polyline class="cls-40" points="467.78 264.23 475.26 289.89 448.54 279.2"/><path class="cls-55" d="M410.34,243.53c-.67,4.26-2.68,8.82,0,13.42,3.35,5.74,7.77,16,11.78,19.81"/><path class="cls-55" d="M439.48,201c-4.68,5.36-8.18,49.23,6.46,73.44,6.44,10.64.42,24.3-1.77,26.22C436.88,307,434.8,307,422.75,307c1.76.84,12.61-5.07,10.29-23"/><path class="cls-55" d="M426.21,292.73c11.37-8.3,6-12.78,1.32-24.27a29.55,29.55,0,0,1,0-21.72"/><path class="cls-56" d="M449.07,281.87c16.06,3.19,8.28,32.19-10.46,32.58,38.68-.51,29.44-26.19,25.43-29.38s-10.5-8.17-8-21.72C461.36,234,443.7,240.26,443.7,207"/><path class="cls-55" d="M422.12,276.76c4,3.83,8,10.86,3.35,17.25s-10,7.67-11.38,19.16c-.26,2.29,4,11.5,4,11.5-6.2-2.27-12.21-15.59-7.36-30.66C412.7,287.93,415.35,284.25,422.12,276.76Z"/><path class="cls-55" d="M449.94,199c.43,9.8,6.93,17,14.05,26.83,5.12,7,11.56,17.14,3.26,28.21l-2.62,4.37c-2.55,3.62-5.36,12.52,3.84,19.17a15.84,15.84,0,0,1,5.11,20.44c5.11-4.6,8.63-13,7-15.33-2.66-5.13-15.59-13.63-7-18.3,3.59-2,9.7-7.14,9.7-7.14,5.35-5.34-2.14-12.83-2.14-12.83-6.41-6.41,3.21-17.1,4.28-21.38,4.28-12.82-1.07-15-9.62-25.65-4.28-7.48-8.24-4.5-5.24-14.5,1.44-4.79-.1-11.59-8.66-17.57-6.34-4.43-10.13-2.3-14.34-.43-17.24,7.63-43.76,31.05-54.07,20.74,14.3,11.14-5.42,53.88-5.42,53.88-1,2.78-2.53,4.17-3.13,10.26-1.07,10.69,0,17.1,2.13,21.38s11.76,15,11.76,15,2.14,3.21,0,5.35-16,11.76-17.1,15-2.14,8.56,2.14,10.69,5.34,5.35,18.17-1.06c0,0-16,1.06-13.9-5.35s5.35-8.55,12.83-9.62,13.9-11.76,12.83-19.24c0-5.35-10.69-9.62-12.83-20.31s-2.14-17.11,0-21.38c.68-1.35,8.55-10.69,10.69-20.31a52.65,52.65,0,0,0,1.07-17.11"/><path class="cls-55" d="M407.76,205c-.43,9.8-6.93,17-14.06,26.83-5.11,7-11.55,17.14-3.25,28.21l2.61,4.37c2.56,3.62,5.37,12.52-3.83,19.17a15.84,15.84,0,0,0-5.11,20.44c-5.11-4.6-8.64-13-7-15.33,2.67-5.13,15.6-13.63,7-18.3-3.6-2-9.7-7.14-9.7-7.14-5.35-5.34,2.13-12.83,2.13-12.83,6.42-6.41-3.2-17.1-4.27-21.38-4.28-12.82,1.07-15,9.62-25.65,4.27-7.48,2.89-7.9,4.66-18.5,1.07-6.41.68-13.57,9.24-13.57"/><path class="cls-49" d="M477.94,211.32s3.23,7.09-1.07,12.82c-3.21,4.28-3.21,15,5.34,21.38"/><path class="cls-49" d="M460.83,191c0,1.07,1.07,9.63,6.42,11.76,5.92,3.72,7.87,8.66,5.34,15,0,0,5.35-3.21,5.35-6.41s-4.28-6.42-4.28-6.42"/><path class="cls-55" d="M475.8,290.42s-20.31-5.34-20.31-20.31"/><path class="cls-49" d="M465,176.47s-.77-4.72-4.85-6-8.42,1.86-8.42,1.86"/><path class="cls-40" d="M444.28,172.91s-4-7-11.72-7c-8,0-15,6-15,6-14,11-24.06.91-24.06.91a21.36,21.36,0,0,1-3.8-10.3c-1.22-14,12.51-27.11,26.25-27.11,19.24-11.76,53.45,5.34,46,29.93,0,0-12.35-8.44-17.35,7.57Z"/><path class="cls-40" d="M443,185.72a25.28,25.28,0,0,1-8.83,2.42,1.75,1.75,0,0,0-.69.17c-2.08-.3-3.8-1.58-4.26-4.79-1.07-7.48,5.34-11.76,15-9.62,7.7,1.71,12,7.55,13.38,9.8a1.73,1.73,0,0,1,0,1.77c-1.45,2.52-6.08,9.63-12.34,10.88-6.9,1.38-10.69-2.6-12.5-5.58a1.74,1.74,0,0,1,.73-2.46C437.28,188.86,442.21,186.19,443,185.72Z"/><path class="cls-40" d="M444.28,172.91l-.28.82c-13.54-4.44-17.54,9.26-24.44,14.18-2.94,2.1-10.16,3.93-19.65,2-9.77-2-12.51-19.62-10.22-27.41a21.36,21.36,0,0,0,3.8,10.3s10.07,10.09,24.06-.91c0,0,7-6,15-6C440.27,165.92,444.28,172.91,444.28,172.91Z"/><path class="cls-40" d="M434.2,188.14a25.28,25.28,0,0,0,8.83-2.42c-.82.47-5.75,3.14-9.52,2.59A1.75,1.75,0,0,1,434.2,188.14Z"/><path class="cls-54" d="M401,240.18s-15.82,18.39-4.27,29.93c12.83,12.83,7.75,20.51,5.34,23.52-4.27,5.34-12.82,11.76-13.89,17.1"/><path class="cls-49" d="M435.73,151.53c7.48,6.41,8.55,21.38,8.55,21.38s-4-7-11.72-7c-8,0-15,6-15,6-14,11-24.06.91-24.06.91a21.36,21.36,0,0,1-3.8-10.3c-1.22-14,12.51-27.11,26.25-27.11,19.24-11.76,53.45,5.34,46,29.93,0,0-12.35-8.44-17.35,7.57"/><path class="cls-54" d="M444.56,173.92l-.56-.19c-13.54-4.44-17.54,9.26-24.44,14.18-2.94,2.1-10.16,3.93-19.65,2-9.77-2-12.51-19.62-10.22-27.41"/><path class="cls-49" d="M443.15,185.66l-.12.06a25.28,25.28,0,0,1-8.83,2.42,1.75,1.75,0,0,0-.69.17"/><path class="cls-49" d="M433.51,188.31c3.77.55,8.7-2.12,9.52-2.59"/><path class="cls-49" d="M433.51,188.31a1.74,1.74,0,0,0-.73,2.46c1.81,3,5.6,7,12.5,5.58,6.26-1.25,10.89-8.36,12.34-10.88a1.73,1.73,0,0,0,0-1.77c-1.4-2.25-5.68-8.09-13.38-9.8-9.63-2.14-16,2.14-15,9.62C429.71,186.73,431.43,188,433.51,188.31Z"/></g></g></g></g></svg>