<svg width="1024" height="1024" viewBox="0 0 1024 1024" fill="none" xmlns="http://www.w3.org/2000/svg">
<path d="M337.945 576.012C333.527 576.012 329.945 579.593 329.945 584.012V616.012C329.945 620.43 333.527 624.012 337.945 624.012H673.945C678.364 624.012 681.945 620.43 681.945 616.012V584.012C681.945 579.593 678.364 576.012 673.945 576.012H337.945Z" fill="black"/>
<path d="M337.945 671.988C333.527 671.988 329.945 675.57 329.945 679.988V711.988C329.945 716.407 333.527 719.988 337.945 719.988H673.945C678.364 719.988 681.945 716.407 681.945 711.988V679.988C681.945 675.57 678.364 671.988 673.945 671.988H337.945Z" fill="black"/>
<path d="M529.864 188.02C529.864 183.601 526.283 180.02 521.864 180.02H489.864C485.446 180.02 481.864 183.601 481.864 188.02V222.84C471.423 225.11 461.188 229.283 452.185 236.104C435.063 249.077 425.712 269.118 425.712 293.87C425.712 306.146 428.581 317.33 434.412 327.1C440.161 336.731 448.018 343.705 456.131 348.868C470.832 358.224 489.313 363.255 503.544 367.128L505.171 367.571C521.632 372.061 533.173 375.434 541.07 380.46C544.54 382.669 546.335 384.645 547.343 386.334C548.268 387.885 549.26 390.391 549.26 394.964C549.26 406.31 544.9 412.73 538.74 417.042C531.611 422.032 520.34 425.175 506.733 424.682L505.125 424.624C484.737 423.475 466.371 414.631 457.665 403.03L448.061 390.232C445.409 386.698 440.395 385.983 436.861 388.635L411.266 407.842C407.732 410.494 407.017 415.509 409.669 419.042L419.272 431.84C434.248 451.796 457.421 464.098 481.094 469.51L481.012 471.783L481.864 471.814V512.058C481.864 516.476 485.446 520.058 489.864 520.058H521.864C526.283 520.058 529.864 516.476 529.864 512.058V470.964C542.757 468.665 555.343 464.012 566.267 456.364C585.178 443.126 597.26 422.07 597.26 394.964C597.26 382.688 594.391 371.505 588.56 361.734C582.812 352.103 574.955 345.129 566.842 339.966C552.141 330.609 533.659 325.579 519.428 321.706L517.802 321.263C501.341 316.773 489.8 313.4 481.902 308.374C478.432 306.165 476.637 304.189 475.629 302.5C474.704 300.949 473.712 298.443 473.712 293.87C473.712 282.02 477.624 277.051 481.172 274.363C485.72 270.918 493.723 268.33 505.208 268.636C525.005 269.182 545.914 278.01 556.29 288.386L567.604 299.7C570.728 302.824 575.793 302.824 578.917 299.7L601.545 277.072C604.669 273.948 604.669 268.883 601.545 265.759L590.231 254.445C575.025 239.239 552.678 228.394 529.864 223.51V188.02Z" fill="black"/>
<path fill-rule="evenodd" d="M681.296 849.436L801.417 925.202C812.072 931.922 825.953 924.266 825.953 911.669V141.288C825.953 98.5648 790.666 64 747.049 64H264.857C221.241 64 185.953 98.5648 185.953 141.288V911.669C185.953 924.266 199.835 931.922 210.489 925.202L330.611 849.436L488.885 949.238C499.314 955.814 512.593 955.814 523.021 949.238L681.296 849.436ZM664.219 793.974C674.652 787.394 687.938 787.396 698.369 793.979L769.953 839.156V141.288C769.953 130.58 760.836 120 747.049 120H264.857C251.07 120 241.953 130.58 241.953 141.288V839.156L313.537 793.979C323.968 787.396 337.254 787.394 347.687 793.974L505.953 893.8L664.219 793.974Z" fill="black"/>
</svg>
