<svg width="1024" height="1024" viewBox="0 0 1024 1024" fill="none" xmlns="http://www.w3.org/2000/svg">
<path d="M533.449 175.961C533.449 171.543 529.867 167.961 525.449 167.961H501.449C497.03 167.961 493.449 171.543 493.449 175.961V198.32C485.516 199.933 477.717 202.794 470.755 207.398C456.63 216.739 448.078 231.92 448.078 251.329C448.078 261.024 450.704 269.841 455.858 277.378C460.848 284.676 467.48 289.719 473.964 293.321C485.77 299.879 500.556 303.392 512.042 306.12C512.486 306.226 512.925 306.33 513.359 306.434C526.66 309.6 536.139 312.015 542.593 315.601C545.468 317.198 546.635 318.468 547.104 319.154C547.41 319.6 547.903 320.438 547.903 322.626C547.903 328.379 545.638 331.981 540.704 334.997C534.884 338.553 525.47 340.87 514.08 340.51L512.759 340.468C495.606 339.63 480.764 333.118 474.16 325.435L466.337 316.336C463.456 312.985 458.405 312.604 455.055 315.485L436.856 331.131C433.506 334.011 433.125 339.062 436.005 342.413L443.828 351.512C456.033 365.708 474.382 374.263 492.882 378.117L492.827 379.859L493.449 379.878V405.923C493.449 410.342 497.03 413.923 501.449 413.923H525.449C529.867 413.923 533.449 410.342 533.449 405.923V379.174C543.351 377.532 553.043 374.333 561.56 369.129C576.882 359.767 587.903 343.991 587.903 322.626C587.903 312.931 585.277 304.114 580.123 296.576C575.133 289.279 568.502 284.236 562.018 280.634C550.212 274.076 535.425 270.563 523.94 267.834C523.496 267.729 523.057 267.624 522.623 267.521C509.321 264.354 499.843 261.939 493.388 258.354C490.513 256.757 489.346 255.487 488.877 254.801C488.572 254.354 488.078 253.517 488.078 251.329C488.078 244.923 490.243 242.466 492.819 240.762C496.523 238.313 503.295 236.382 512.971 236.607L525.449 167.961L512.98 236.607C529.55 237.005 546.593 243.439 554.751 250.56L563.792 258.451C567.12 261.356 572.174 261.013 575.08 257.685L590.862 239.604C593.767 236.275 593.424 231.222 590.096 228.316L581.055 220.425C568.834 209.758 551.263 202.268 533.449 198.789V175.961Z" fill="black"/>
<path fill-rule="evenodd" d="M513.048 504.961C589.212 504.961 656.082 465.172 694.008 405.246L745.805 438.584C744.649 443.854 744.04 449.328 744.04 454.945C744.04 496.919 778.066 530.945 820.04 530.945C862.013 530.945 896.04 496.919 896.04 454.945C896.04 412.972 862.013 378.945 820.04 378.945C798.128 378.945 778.381 388.219 764.511 403.055L712.217 369.397C721.789 345.109 727.048 318.649 727.048 290.961C727.048 172.772 631.236 76.9609 513.048 76.9609C394.859 76.9609 299.048 172.772 299.048 290.961C299.048 317.963 304.048 343.797 313.175 367.587L259.609 402.063C245.794 387.807 226.444 378.945 205.024 378.945C163.05 378.945 129.024 412.972 129.024 454.945C129.024 496.919 163.05 530.945 205.024 530.945C246.998 530.945 281.024 496.919 281.024 454.945C281.024 448.832 280.302 442.887 278.939 437.191L331.077 403.634C368.817 464.457 436.202 504.961 513.048 504.961ZM513.048 456.961C604.727 456.961 679.048 382.64 679.048 290.961C679.048 199.282 604.727 124.961 513.048 124.961C421.368 124.961 347.048 199.282 347.048 290.961C347.048 382.64 421.368 456.961 513.048 456.961ZM241.024 454.945C241.024 474.828 224.906 490.945 205.024 490.945C185.142 490.945 169.024 474.828 169.024 454.945C169.024 435.063 185.142 418.945 205.024 418.945C224.906 418.945 241.024 435.063 241.024 454.945ZM820.04 490.945C839.922 490.945 856.04 474.828 856.04 454.945C856.04 435.063 839.922 418.945 820.04 418.945C800.157 418.945 784.04 435.063 784.04 454.945C784.04 474.828 800.157 490.945 820.04 490.945Z" fill="black"/>
<path fill-rule="evenodd" d="M309.965 713.728C323.704 697.654 332.001 676.788 332.001 653.984C332.001 603.174 290.811 561.984 240.001 561.984C189.19 561.984 148.001 603.174 148.001 653.984C148.001 677.106 156.53 698.236 170.615 714.398C127.207 734.463 93.8113 772.507 79.9812 818.977C76.9171 829.272 74.8134 839.981 73.7739 851C72.9439 859.797 80.1875 866.977 89.0241 866.977H365.278C359.803 877.067 355.331 887.781 351.997 898.984C348.933 909.28 346.829 919.989 345.79 931.008C344.96 939.805 352.203 946.984 361.04 946.984H665.04C673.876 946.984 681.12 939.805 680.29 931.008C679.25 919.989 677.147 909.28 674.083 898.984C670.748 887.781 666.277 877.067 660.802 866.977H935.032C943.868 866.977 951.112 859.797 950.282 851C949.243 839.981 947.139 829.272 944.075 818.977C930.089 771.984 896.096 733.608 851.973 713.728C865.712 697.654 874.008 676.788 874.008 653.984C874.008 603.174 832.819 561.984 782.008 561.984C731.198 561.984 690.008 603.174 690.008 653.984C690.008 677.106 698.538 698.236 712.622 714.398C669.214 734.463 635.819 772.507 621.989 818.977L621.96 819.073C609.961 808.845 596.505 800.276 581.947 793.721C595.706 777.641 604.016 756.76 604.016 733.938C604.016 683.127 562.826 641.938 512.016 641.938C461.206 641.938 420.016 683.127 420.016 733.938C420.016 757.078 428.56 778.223 442.664 794.39C428.015 801.158 414.506 809.972 402.503 820.468C402.36 819.97 402.215 819.473 402.067 818.977C388.081 771.984 354.088 733.608 309.965 713.728ZM240.001 697.984C264.301 697.984 284.001 678.285 284.001 653.984C284.001 629.684 264.301 609.984 240.001 609.984C215.7 609.984 196.001 629.684 196.001 653.984C196.001 678.285 215.7 697.984 240.001 697.984ZM556.016 733.938C556.016 758.238 536.317 777.938 512.016 777.938C487.716 777.938 468.016 758.238 468.016 733.938C468.016 709.637 487.716 689.938 512.016 689.938C536.317 689.938 556.016 709.637 556.016 733.938ZM403.025 898.984C421.542 856.603 463.832 826.984 513.04 826.984C562.247 826.984 604.537 856.603 623.055 898.984H403.025ZM131.009 818.977C149.526 776.595 191.816 746.977 241.024 746.977C290.232 746.977 332.522 776.595 351.039 818.977H131.009ZM782.008 697.984C806.309 697.984 826.008 678.285 826.008 653.984C826.008 629.684 806.309 609.984 782.008 609.984C757.708 609.984 738.008 629.684 738.008 653.984C738.008 678.285 757.708 697.984 782.008 697.984ZM673.017 818.977C691.534 776.595 733.824 746.977 783.032 746.977C832.24 746.977 874.529 776.595 893.047 818.977H673.017Z" fill="black"/>
</svg>
