<svg width="1024" height="1024" viewBox="0 0 1024 1024" fill="none" xmlns="http://www.w3.org/2000/svg">
<path fill-rule="evenodd" d="M266.016 86.9648C196.428 86.9646 140.016 135.395 140.016 204.982H196.016L196.016 204.965C196.016 170.723 231.774 142.965 266.016 142.965L665.589 142.965C654.442 160.981 648.008 182.222 648.008 204.965V880.975H196.016V204.982H140.016V916.975C140.016 928.02 148.97 936.975 160.016 936.975H684.016C695.061 936.975 704.016 928.02 704.016 916.975L704.008 583.965H864.008C875.053 583.965 884.008 575.01 884.008 563.965V204.965C884.008 139.796 831.178 86.9653 766.009 86.9648C765.677 86.9648 765.346 86.9662 765.016 86.9689V86.9648H266.016ZM704.008 527.965H828.008V204.965C828.008 170.723 800.25 142.965 766.008 142.965C731.766 142.965 704.008 170.723 704.008 204.965V527.965Z" fill="black"/>
<path d="M287.99 624.982C282.467 624.982 277.99 629.46 277.99 634.982V662.982C277.99 668.505 282.467 672.982 287.99 672.982H555.99C561.513 672.982 565.99 668.505 565.99 662.982V634.982C565.99 629.46 561.513 624.982 555.99 624.982H287.99Z" fill="black"/>
<path d="M277.99 731.016C277.99 725.493 282.467 721.016 287.99 721.016H555.99C561.513 721.016 565.99 725.493 565.99 731.016V759.016C565.99 764.538 561.513 769.016 555.99 769.016H287.99C282.467 769.016 277.99 764.538 277.99 759.016V731.016Z" fill="black"/>
<path fill-rule="evenodd" d="M422.008 256.99C465.175 256.99 504.139 274.984 531.808 303.881L566.809 268.88C570.714 264.974 577.046 264.974 580.951 268.88L595.094 283.022C598.999 286.927 598.999 293.259 595.094 297.164L555.682 336.575C567.37 358.104 574.008 382.772 574.008 408.99C574.008 492.938 505.955 560.99 422.008 560.99C338.061 560.99 270.008 492.938 270.008 408.99C270.008 325.043 338.061 256.99 422.008 256.99ZM526.008 408.99C526.008 466.428 479.445 512.99 422.008 512.99C364.57 512.99 318.008 466.428 318.008 408.99C318.008 351.553 364.57 304.99 422.008 304.99C451.92 304.99 478.882 317.618 497.855 337.834L423.3 412.389L389.395 377.142C385.567 373.161 379.236 373.038 375.256 376.867L360.842 390.732C356.861 394.56 356.739 400.891 360.567 404.871L408.608 454.816C416.371 462.886 429.247 463.011 437.165 455.093L519.516 372.741C523.714 384.028 526.008 396.241 526.008 408.99Z" fill="black"/>
</svg>
