<svg width="1024" height="1024" viewBox="0 0 1024 1024" fill="none" xmlns="http://www.w3.org/2000/svg">
<path d="M900.238 813L536.238 183C530.813 173.638 521.451 169 512.001 169C502.551 169 493.101 173.638 487.763 183L123.763 813C113.001 831.725 126.476 855 148.001 855H876C897.525 855 911.001 831.725 900.238 813Z" fill="#FFC700"/>
<path d="M488.009 408C483.609 408 480.009 411.6 480.009 416V600C480.009 604.4 483.609 608 488.009 608H536.009C540.409 608 544.009 604.4 544.009 600V416C544.009 411.6 540.409 408 536.009 408H488.009Z" fill="#434343"/>
<path d="M478.696 753.6C487.489 762.574 499.449 767.744 512.009 768C524.57 767.744 536.53 762.574 545.322 753.6C554.115 744.626 559.039 732.563 559.039 720C559.039 707.437 554.115 695.374 545.322 686.4C536.53 677.426 524.57 672.256 512.009 672C499.449 672.256 487.489 677.426 478.696 686.4C469.904 695.374 464.979 707.437 464.979 720C464.979 732.563 469.904 744.626 478.696 753.6Z" fill="#434343"/>
</svg>
