<?xml version="1.0" encoding="UTF-8"?>
<svg width="48px" height="48px" viewBox="0 0 48 48" version="1.1" xmlns="http://www.w3.org/2000/svg" xmlns:xlink="http://www.w3.org/1999/xlink">
    <!-- Generator: sketchtool 52.4 (67378) - http://www.bohemiancoding.com/sketch -->
    <title>43608826-3F1F-4B79-BCB7-BD4DAF5E030D</title>
    <desc>Created with sketchtool.</desc>
    <g id="訂單列印" stroke="none" stroke-width="1" fill="none" fill-rule="evenodd">
        <g id="店到店物流單_2" transform="translate(-1232.000000, -799.000000)">
            <g id="萊爾富圓印" transform="translate(1232.000000, 799.000000)">
                <path d="M13.3125,21.125 L13.3125,19.0625 L22.78125,19.0625 L22.78125,17.46875 L25.21875,17.46875 L25.21875,19.0625 L34.6875,19.0625 L34.6875,21.125 L25.21875,21.125 L25.21875,25.71875 C27.4062609,28.3437631 30.7812272,30.3124934 35.34375,31.625 C34.8437475,32.1875028 34.4062519,32.8437462 34.03125,33.59375 C30.03123,32.1562428 27.0937594,30.4062603 25.21875,28.34375 L25.21875,34.71875 L22.78125,34.71875 L22.78125,28.34375 C20.9062406,30.4687606 18.0000197,32.3124922 14.0625,33.875 C13.6249978,33.1249963 13.1562525,32.4687528 12.65625,31.90625 C16.9062712,30.5937434 20.2812375,28.5312641 22.78125,25.71875 L22.78125,21.125 L13.3125,21.125 Z M27.09375,17.84375 L27.09375,16.34375 L20.90625,16.34375 L20.90625,17.84375 L18.46875,17.84375 L18.46875,16.34375 L12.75,16.34375 L12.75,14.28125 L18.46875,14.28125 L18.46875,12.3125 L20.90625,12.3125 L20.90625,14.28125 L27.09375,14.28125 L27.09375,12.3125 L29.53125,12.3125 L29.53125,14.28125 L35.15625,14.28125 L35.15625,16.34375 L29.53125,16.34375 L29.53125,17.84375 L27.09375,17.84375 Z M19.96875,27.21875 C19.2812466,26.5312466 18.5000044,25.8750031 17.625,25.25 C16.8749962,26.3125053 15.9062559,27.3124953 14.71875,28.25 C14.0312466,27.5624966 13.5000019,27.0625016 13.125,26.75 C15.0000094,25.4374934 16.3749956,23.78126 17.25,21.78125 L19.5,22.0625 C19.2499987,22.6250028 18.9375019,23.1874972 18.5625,23.75 L19.40625,24.3125 C19.8437522,24.5625013 20.5312453,24.9999969 21.46875,25.625 L19.96875,27.21875 Z M33.09375,27.875 L29.8125,25.0625 C29.3124975,25.8125038 28.6875038,26.4999969 27.9375,27.125 C27.7499991,26.9374991 27.3750028,26.6250022 26.8125,26.1875 C26.5624987,25.9999991 26.3750006,25.8437506 26.25,25.71875 C27.7500075,24.6562447 28.7812472,23.3437578 29.34375,21.78125 L31.59375,21.96875 C31.5312497,22.0937506 31.4375006,22.3124984 31.3125,22.625 C31.1249991,23.0625022 30.9687506,23.3749991 30.84375,23.5625 C32.2187569,24.5000047 33.4687444,25.4062456 34.59375,26.28125 L33.09375,27.875 Z" id="萊" fill="#231916"></path>
                <circle id="Oval" stroke="#000000" stroke-width="4" cx="24" cy="24" r="18"></circle>
            </g>
        </g>
    </g>
</svg>