<?xml version="1.0" encoding="UTF-8"?>
<svg width="745px" height="298px" viewBox="0 0 745 298" version="1.1" xmlns="http://www.w3.org/2000/svg" xmlns:xlink="http://www.w3.org/1999/xlink">
    <g id="圖片元件佔位圖" stroke="none" stroke-width="1" fill="none" fill-rule="evenodd">
        <g id="圖片佔位圖slice">
            <rect fill="#F5F5F5" x="0" y="0" width="745" height="298"></rect>
            <g id="Group" transform="translate(-185.000000, -58.000000)">
                <g id="material/甜甜圈_1" transform="translate(952.334148, 183.592574) rotate(-330.000000) translate(-952.334148, -183.592574) translate(859.334148, 90.592574)" fill="#FFFFFF">
                    <path d="M105.247151,43.4148388 C134.29489,52.5790195 150.913331,70.9045334 155.102475,98.3913806 C155.705691,101.744271 155.964197,105.206805 155.884389,108.432659 C155.83686,110.273149 155.681751,112.000692 155.406189,113.722789 C151.781067,139.236206 125.992105,150.604674 90.8546766,149.921467 C55.8350006,149.238365 30.7585304,136.880783 28.1802479,111.362721 C27.9927784,109.629381 27.9238745,107.784745 27.9700532,105.941585 C28.0119673,104.329308 28.1649436,102.717207 28.3219403,101.106405 C32.4772421,69.5975882 50.1134055,50.1610941 81.2304305,42.7969226 L81.2304349,42.796941 C81.819043,42.6576407 82.3129896,42.2594431 82.5740229,41.7138006 C85.0433238,36.5521772 88.4543082,32.9520959 92.806976,30.9135568 C97.9265354,28.3635281 103.519546,29.74082 108.923493,29.6142842 C109.61,29.6285484 110.416391,29.5274769 111.000903,29.1938715 C112.048691,28.6393264 112.648666,27.6117036 112.788311,26.5781782 C112.930625,25.5432827 112.844907,24.3899946 112.52554,23.3465265 C112.42514,22.7691446 112.103641,21.8411177 113.018181,21.9737744 C113.361296,22.0936426 113.816043,22.3344677 114.154357,22.5711473 C115.39466,23.4009485 116.283856,24.6867174 117.056619,25.9683407 C118.47959,28.6482931 118.516997,31.7601822 116.391276,34.139196 C114.027104,36.7448409 110.445027,37.5944148 107.102214,38.1059563 C106.17807,38.2069223 104.787997,38.5672349 104.093724,39.3771027 C104.093724,39.3771027 104.093724,39.3771027 104.093724,39.3771027 C103.18916,40.4322742 103.311252,42.0209534 104.366424,42.9255171 C104.624008,43.1463353 104.923584,43.3127869 105.247142,43.4148654 Z" id="Fill-1"></path>
                </g>
                <g id="material/line_2" transform="translate(820.000000, 355.500000) rotate(-270.000000) translate(-820.000000, -355.500000) translate(718.000000, 344.000000)" stroke="#FFFFFF" stroke-linecap="round" stroke-linejoin="round" stroke-width="16">
                    <path d="M0,23 C20.4,23 20.4,0 40.8,0 C61.2,0 61.2,23 81.6,23 C102,23 102,0 122.4,0 C142.8,0 142.8,23 163.2,23 C183.6,23 183.6,0 204,0" id="Path"></path>
                </g>
                <g id="material/甜甜圈_1" transform="translate(251.616025, 248.495191) rotate(-330.000000) translate(-251.616025, -248.495191) translate(157.116025, 153.495191)" fill="#FFFFFF">
                    <path d="M107.091439,44.1052358 C136.73343,53.4532452 153.691834,72.1465714 157.96665,100.185215 C158.582198,103.605388 158.845989,107.137405 158.764549,110.427994 C158.716048,112.305417 158.557769,114.067627 158.276573,115.824282 C154.577342,141.849681 128.261165,153.446282 92.4054066,152.749365 C56.6698081,152.052555 31.0806889,139.446991 28.4496974,113.416853 C28.2583953,111.64873 28.1880828,109.767078 28.2352056,107.886931 C28.2779766,106.2423 28.4340802,104.597848 28.5942865,102.954722 C32.8353718,70.8072831 50.8383316,50.9792746 82.6031658,43.4706961 L82.6031657,43.4706956 C83.1922658,43.3314439 83.6865998,42.9328752 83.947611,42.3867038 C86.4680125,37.1127105 89.9513481,33.4349094 94.3976177,31.3533004 C99.6218385,28.7520997 105.32919,30.15703 110.843611,30.027955 C111.544153,30.0425054 112.36703,29.9394057 112.963491,29.5991058 C114.032699,29.0334325 114.64494,27.9851882 114.78744,26.9309229 C114.932664,25.8752599 114.845193,24.6988286 114.519297,23.634421 C114.416844,23.0454527 114.088773,22.0988029 115.022009,22.2341216 C115.372139,22.3563952 115.836182,22.6020531 116.181412,22.8434821 C117.447072,23.689935 118.354446,25.0015058 119.143007,26.3088477 C120.595068,29.0425792 120.63324,32.2169151 118.464062,34.643669 C116.051558,37.301602 112.396251,38.1682244 108.985099,38.6900311 C108.042063,38.7930232 106.623572,39.1605663 105.915105,39.9866859 C105.915105,39.9866859 105.915105,39.9866859 105.915105,39.9866859 C104.992348,41.0626833 105.116574,42.6829941 106.192571,43.6057513 C106.455432,43.8311764 106.761192,44.0010778 107.091442,44.1052268 Z" id="Fill-1"></path>
                </g>
                <g id="material/line_1" transform="translate(376.377436, 111.734695) rotate(-310.000000) translate(-376.377436, -111.734695) translate(273.877436, 100.234695)" stroke="#FFFFFF" stroke-linecap="round" stroke-linejoin="round" stroke-width="16">
                    <path d="M0,22.9718552 C20.437413,22.9718552 20.437413,0 40.874826,0 C61.312239,0 61.312239,22.9718552 81.749652,22.9718552 C102.187065,22.9718552 102.187065,0 122.624478,0 C143.061891,0 143.061891,22.9718552 163.499304,22.9718552 C183.936717,22.9718552 183.936717,0 204.37413,0" id="Path"></path>
                </g>
                <g id="material/rectangle-copy-4_4" transform="translate(533.504343, 305.867412) rotate(-203.813763) translate(-533.504343, -305.867412) translate(470.004343, 242.367412)" fill="#FFFFFF">
                    <path d="M13.9580743,9.30433273 L110.85189,9.30433273 C114.165598,9.30433273 116.85189,11.9906242 116.85189,15.3043327 L116.85189,112.18111 C116.85189,115.494818 114.165598,118.18111 110.85189,118.18111 L13.9580743,118.18111 C10.6443658,118.18111 7.95807426,115.494818 7.95807426,112.18111 L7.95807426,15.3043327 C7.95807426,11.9906242 10.6443658,9.30433273 13.9580743,9.30433273 Z" id="Rectangle-Copy-3" transform="translate(62.404982, 63.742721) rotate(-270.000000) translate(-62.404982, -63.742721) "></path>
                </g>
                <g id="material/magic-lamp_5" transform="translate(681.050241, 134.157339) rotate(-23.094090) translate(-681.050241, -134.157339) translate(522.050241, 57.157339)" fill="#FFFFFF" fill-rule="nonzero">
                    <path d="M260.09301,23.1593497 C239.670001,24.3202557 219.577172,49.4179373 208.791292,53.3221746 C203.976167,55.0566234 194.552279,49.3972068 190.954693,47.0477542 C190.67383,46.8649816 190.509515,46.5471519 190.522214,46.2112218 C190.534913,45.8752918 190.722749,45.570896 191.016602,45.4100476 C191.796445,45.0860641 192.435542,44.4930585 192.818834,43.7377902 C193.181814,42.6803878 193.012789,41.5118864 192.365236,40.6019972 C191.717683,39.6921081 190.671727,39.1534144 189.558307,39.1563577 L187.907406,39.1563577 C187.421914,39.1563157 186.99775,38.8267984 186.875594,38.3547797 C186.008871,35.0793664 182.38377,27.3814542 167.353701,25.674646 C167.064753,25.6723222 166.808053,25.4888375 166.711159,25.2153672 C166.614264,24.9418968 166.697833,24.6367466 166.92034,24.4515486 C168.29609,23.0695177 169.953869,20.8651784 169.953869,18.4258938 C169.89807,16.3931922 169.191272,14.4327481 167.938395,12.8355787 C164.801685,8.65493513 157.269453,8.6894859 154.132743,12.8977701 C152.871571,14.4699356 152.147975,16.4083358 152.069118,18.4258938 C152.069118,20.7546159 153.582443,22.862213 154.910042,24.2580643 C155.133658,24.4961773 155.204067,24.8408163 155.091886,25.1481595 C154.979706,25.4555028 154.704215,25.6727327 154.380378,25.7091967 C139.873094,27.4436456 136.144812,34.8098704 135.195544,38.1474751 C135.032839,38.7256059 134.532321,39.1432347 133.936733,39.1978186 C132.155137,39.3636623 128.681368,39.7437208 128.681368,42.5976147 C128.681368,44.6153798 130.20845,45.4860593 131.542928,45.8522975 C132.554104,46.1217935 132.746709,46.8611801 131.955653,47.5521955 C129.937294,49.3330356 127.689423,49.9958272 123.644718,50.2609761 C119.600013,50.5261251 110.108742,50.8898002 93.5997421,40.5245683 C77.0907418,30.1593363 57.1423664,23.9401972 48.1999912,23.2491817 C42.0123987,22.7511922 35.7934291,23.6825053 30.0194546,25.9717826 C28.9920723,26.3742714 28.3422705,27.3985787 28.4130151,28.5040744 C28.4837597,29.6095701 29.2587714,30.541864 30.3289983,30.8088909 C36.7950234,32.467328 46.5490911,35.1761086 52.2997263,37.7812369 C74.1328792,47.6558478 83.1165269,60.8680635 95.3744596,78.1987313 C105.080376,91.949939 115.6255,107.62908 139.701126,118.685327 C141.540693,119.526875 142.885239,121.180987 143.338278,123.15989 C143.791317,125.138794 143.301174,127.216773 142.012386,128.781063 C141.318455,129.629851 140.52902,130.395064 139.659853,131.061414 C134.156853,135.207507 130.875689,136.105827 127.587647,137.460217 C125.740282,138.21907 124.531436,140.022881 124.526603,142.02783 L124.526603,142.51154 C124.524773,142.956247 124.699349,143.383369 125.011731,143.698475 C125.324113,144.01358 125.748571,144.190708 126.19126,144.190708 L195.769818,144.190708 C196.213137,144.190708 196.638299,144.013796 196.951773,143.698891 C197.265246,143.383986 197.441354,142.956883 197.441354,142.51154 L197.441354,142.02783 C197.434659,140.023454 196.226445,138.220587 194.38031,137.460217 C191.085389,136.078186 187.804225,135.200597 182.308104,131.061414 C180.953663,130.012393 179.790053,128.735929 178.868729,127.28847 C177.897006,125.765053 177.698841,123.870011 178.334222,122.177001 C178.969602,120.483991 180.363833,119.192039 182.094863,118.692237 C197.295194,114.255231 210.193968,104.076334 218.084483,90.2915019 C222.899608,81.9993163 222.899608,68.2689275 232.453223,68.2689275 C236.311998,68.2689275 248.53671,75.8078178 260.870309,77.3556924 C273.203908,78.9035671 288.247735,61.2688525 290.160027,50.2609761 C292.84274,34.8167805 273.568482,22.3923225 260.09301,23.1593497 Z M261.276253,62.3342877 C256.971668,61.8399191 253.903213,59.0804811 248.192875,57.169016 C242.482536,55.257551 239.633109,55.8293579 239.292875,54.0044912 C239.156961,48.3102784 252.617211,39.2934197 259.865244,39.3397244 C267.113277,39.386029 270.466321,41.6314097 272.259889,46.8146364 C274.053456,51.9978631 267.636471,63.07278 261.289995,62.3354879 L261.276253,62.3342877 Z" id="Shape"></path>
                </g>
            </g>
        </g>
    </g>
</svg>