<?xml version="1.0" encoding="UTF-8"?>
<svg width="598px" height="960px" viewBox="0 0 598 960" version="1.1" xmlns="http://www.w3.org/2000/svg" xmlns:xlink="http://www.w3.org/1999/xlink">
    <!-- Generator: sketchtool 61.1 (101010) - https://sketch.com -->
    <title>C84720DE-01EE-43E7-AF04-6DC6EAF06A70</title>
    <desc>Created with sketchtool.</desc>
    <g id="圖片元件佔位圖" stroke="none" stroke-width="1" fill="none" fill-rule="evenodd">
        <g id="圖片佔位圖slice">
            <rect fill="#F5F5F5" x="0" y="0" width="598" height="960"></rect>
            <g id="Group" transform="translate(-138.000000, -49.000000)">
                <g id="material/甜甜圈_5-material/甜甜圈" transform="translate(343.547310, 790.559740) rotate(-21.000000) translate(-343.547310, -790.559740) translate(278.547310, 725.559740)" fill="#FFFFFF">
                    <path d="M76.2540582,29.0680297 C100.798382,36.8084196 114.840372,52.28697 118.380029,75.5036808 C118.889718,78.3356713 119.108144,81.2602717 119.04071,83.9849628 C119.00055,85.5395171 118.86949,86.9986717 118.636653,88.4532268 C115.573595,110.002921 93.7831299,119.605202 64.0936487,119.028136 C34.5036628,118.45116 13.3152201,108.013432 11.1366921,86.4598146 C10.9782891,84.9957635 10.9200686,83.4377076 10.9590875,81.8808981 C10.9945029,80.5191016 11.1237607,79.1574535 11.2564155,77.7969033 C14.7611872,51.2307245 29.6160494,34.8249817 55.821002,28.5796751 L55.8210023,28.5796763 C56.4047301,28.4405591 56.8951467,28.0466927 57.1569527,27.5067396 C59.2385169,23.2136859 62.1006161,20.2144734 65.7432503,18.5091022 C70.0690382,16.3552418 74.7948705,17.5185598 79.3609522,17.4116825 C79.9410184,17.4237306 80.6223816,17.3383614 81.1162665,17.0565844 C82.001598,16.5881925 82.508549,15.7202196 82.6265424,14.847261 C82.7467915,13.9731451 82.6743635,12.9990301 82.4045137,12.1176734 C82.3196799,11.6299927 82.0480284,10.8461425 82.8207717,10.9581899 C83.1106883,11.0594355 83.494928,11.2628465 83.780787,11.4627559 C84.8287855,12.1636405 85.5801145,13.2496545 86.2330628,14.3321669 C87.4354066,16.5957662 87.467014,19.2241972 85.6708791,21.2336113 C83.6732648,23.4344475 80.6465775,24.152033 77.8220568,24.5841022 C77.0411984,24.6693823 75.8666517,24.9737173 75.2800237,25.6577654 C75.2800237,25.6577654 75.2800237,25.6577654 75.2800237,25.6577654 C74.5159572,26.5487187 74.6188192,27.8903773 75.5097725,28.6544438 C75.727428,28.8411015 75.9806048,28.9817842 76.2540605,29.0680222 Z" id="Fill-1"></path>
                </g>
                <g id="material/甜甜圈_2-material/甜甜圈" transform="translate(552.123313, 483.571785) rotate(-258.000000) translate(-552.123313, -483.571785) translate(482.623313, 414.071785)" fill="#FFFFFF">
                    <path d="M81.5331853,31.0804317 C107.776731,39.3566948 122.790859,55.9068371 126.575569,80.7308587 C127.120545,83.7589101 127.354092,86.8859829 127.28199,89.7993064 C127.239049,91.4614837 127.098916,93.0216567 126.84996,94.5769117 C123.574844,117.618508 100.275808,127.885562 68.5309013,127.268546 C36.8923779,126.651625 14.237043,115.491285 11.9076939,92.445494 C11.7383245,90.8800856 11.6760733,89.2141643 11.7177935,87.5495757 C11.7556608,86.0935009 11.8938672,84.6375849 12.0357058,83.1828427 C15.7859044,54.7563271 31.6900392,37.2098386 59.7481102,30.5433771 L59.7481112,30.5433815 C60.3338553,30.4042115 60.8257432,30.0085831 61.0872586,29.4662971 C63.3151343,24.8465084 66.3842834,21.6212433 70.2947061,19.7905016 C74.9199717,17.4875278 79.9729769,18.7313832 84.8551719,18.6171067 C85.4753966,18.6299889 86.2039311,18.5387095 86.732008,18.2374249 C87.6786317,17.7366059 88.2206794,16.8085425 88.3468415,15.8751483 C88.4754155,14.9405167 88.3979733,13.8989629 88.1094415,12.9565893 C88.0187347,12.435146 87.7282765,11.5970293 88.5545175,11.7168338 C88.8645052,11.8250888 89.2753461,12.042582 89.5809954,12.2563313 C90.7015475,13.0057387 91.5048916,14.1669382 92.203044,15.3243938 C93.4886271,17.7447039 93.5224227,20.5551032 91.6019399,22.7036305 C89.4660293,25.0568323 86.2298021,25.8240968 83.2097376,26.2860785 C82.3748198,26.3772626 81.1189584,26.702667 80.4917176,27.4340722 C80.4917176,27.4340722 80.4917176,27.4340722 80.4917176,27.4340722 C79.6747542,28.3867069 79.7847375,29.8212495 80.7373721,30.6382129 C80.9700961,30.8377931 81.2408005,30.9882154 81.5331878,31.0804237 Z" id="Fill-1"></path>
                </g>
                <g id="material/甜甜圈_1-material/甜甜圈" transform="translate(745.330241, 115.450649) rotate(-330.000000) translate(-745.330241, -115.450649) translate(686.782931, 56.890909)" fill="#FFFFFF">
                    <path d="M68.6844261,26.1880294 C90.792013,33.1615232 103.439934,47.1064163 106.628188,68.0227087 C107.08728,70.574103 107.284021,73.2089315 107.223282,75.6636577 C107.187109,77.0641854 107.06906,78.3787656 106.859337,79.6892021 C104.100355,99.1037332 84.4730764,107.754611 57.7309341,107.234722 C31.0784098,106.714914 11.9933895,97.311365 10.0311287,77.8932989 C9.88845071,76.5743074 9.83600984,75.1706251 9.87115524,73.7680657 C9.90305488,72.5411971 10.019481,71.3144623 10.1389669,70.0887167 C13.2918374,46.184875 26.6423212,31.4117271 50.1904184,25.7692728 L50.1904152,25.7692597 C50.7707498,25.6302034 51.2586704,25.2392595 51.5209125,24.7032054 C53.3926075,20.8772378 55.9578954,18.2012372 59.2167761,16.6752038 C63.1131338,14.7347499 67.3698225,15.7828053 71.4826193,15.6865174 C72.0051012,15.6973718 72.618824,15.6204611 73.0636798,15.3666028 C73.8611226,14.9446196 74.3177475,14.1626462 74.4240274,13.3761811 C74.5323391,12.5886735 74.4671012,11.7110746 74.2240399,10.9170435 C74.1476279,10.4776826 73.9029437,9.77149703 74.5989752,9.87244264 C74.8601111,9.96365679 75.2062065,10.1469136 75.4636877,10.3270158 C76.4076491,10.9584561 77.084392,11.9368669 77.6725207,12.912123 C78.7555053,14.9514429 78.783975,17.3194466 77.1661462,19.1297661 C75.3668394,21.1125415 72.6406179,21.759028 70.0964934,22.1482874 C69.3931525,22.2251178 68.3352056,22.4992991 67.8068134,23.1155711 C67.8068134,23.1155711 67.8068134,23.1155711 67.8068134,23.1155711 C67.1184759,23.9183896 67.2112812,25.1272105 68.0140998,25.8155479 C68.2101416,25.9836344 68.4381575,26.1103299 68.6844312,26.1880131 Z" id="Fill-1"></path>
                </g>
                <g id="material/line_5-material/line" transform="translate(219.142857, 946.720779) rotate(-16.000000) translate(-219.142857, -946.720779) translate(141.371058, 937.980519)" stroke="#FFFFFF" stroke-linecap="round" stroke-linejoin="round" stroke-width="16">
                    <path d="M0,17.4805202 C15.5543594,17.4805202 15.5543594,0 31.1087189,0 C46.6630783,0 46.6630783,17.4805202 62.2174377,17.4805202 C77.7717972,17.4805202 77.7717972,0 93.3261566,0 C108.880516,0 108.880516,17.4805202 124.434875,17.4805202 C139.989235,17.4805202 139.989235,0 155.543594,0" id="Path"></path>
                </g>
                <g id="material/line_4-material/line" transform="translate(437.771800, 644.740260) rotate(-315.000000) translate(-437.771800, -644.740260) translate(360.000000, 636.000000)" stroke="#FFFFFF" stroke-linecap="round" stroke-linejoin="round" stroke-width="16">
                    <path d="M0,17.4805202 C15.5543594,17.4805202 15.5543594,0 31.1087189,0 C46.6630783,0 46.6630783,17.4805202 62.2174377,17.4805202 C77.7717972,17.4805202 77.7717972,0 93.3261566,0 C108.880516,0 108.880516,17.4805202 124.434875,17.4805202 C139.989235,17.4805202 139.989235,0 155.543594,0" id="Path"></path>
                </g>
                <g id="material/line_2-material/line" transform="translate(641.771800, 280.740260) rotate(-270.000000) translate(-641.771800, -280.740260) translate(564.000000, 272.000000)" stroke="#FFFFFF" stroke-linecap="round" stroke-linejoin="round" stroke-width="16">
                    <path d="M0,17.4805202 C15.5543594,17.4805202 15.5543594,0 31.1087189,0 C46.6630783,0 46.6630783,17.4805202 62.2174377,17.4805202 C77.7717972,17.4805202 77.7717972,0 93.3261566,0 C108.880516,0 108.880516,17.4805202 124.434875,17.4805202 C139.989235,17.4805202 139.989235,0 155.543594,0" id="Path"></path>
                </g>
                <g id="material/甜甜圈_1-material/甜甜圈" transform="translate(152.547310, 216.559740) rotate(-330.000000) translate(-152.547310, -216.559740) translate(94.000000, 158.000000)" fill="#FFFFFF">
                    <path d="M68.6844261,26.1880294 C90.792013,33.1615232 103.439934,47.1064163 106.628188,68.0227087 C107.08728,70.574103 107.284021,73.2089315 107.223282,75.6636577 C107.187109,77.0641854 107.06906,78.3787656 106.859337,79.6892021 C104.100355,99.1037332 84.4730764,107.754611 57.7309341,107.234722 C31.0784098,106.714914 11.9933895,97.311365 10.0311287,77.8932989 C9.88845071,76.5743074 9.83600984,75.1706251 9.87115524,73.7680657 C9.90305488,72.5411971 10.019481,71.3144623 10.1389669,70.0887167 C13.2918374,46.184875 26.6423212,31.4117271 50.1904184,25.7692728 L50.1904152,25.7692597 C50.7707498,25.6302034 51.2586704,25.2392595 51.5209125,24.7032054 C53.3926075,20.8772378 55.9578954,18.2012372 59.2167761,16.6752038 C63.1131338,14.7347499 67.3698225,15.7828053 71.4826193,15.6865174 C72.0051012,15.6973718 72.618824,15.6204611 73.0636798,15.3666028 C73.8611226,14.9446196 74.3177475,14.1626462 74.4240274,13.3761811 C74.5323391,12.5886735 74.4671012,11.7110746 74.2240399,10.9170435 C74.1476279,10.4776826 73.9029437,9.77149703 74.5989752,9.87244264 C74.8601111,9.96365679 75.2062065,10.1469136 75.4636877,10.3270158 C76.4076491,10.9584561 77.084392,11.9368669 77.6725207,12.912123 C78.7555053,14.9514429 78.783975,17.3194466 77.1661462,19.1297661 C75.3668394,21.1125415 72.6406179,21.759028 70.0964934,22.1482874 C69.3931525,22.2251178 68.3352056,22.4992991 67.8068134,23.1155711 C67.8068134,23.1155711 67.8068134,23.1155711 67.8068134,23.1155711 C67.1184759,23.9183896 67.2112812,25.1272105 68.0140998,25.8155479 C68.2101416,25.9836344 68.4381575,26.1103299 68.6844312,26.1880131 Z" id="Fill-1"></path>
                </g>
                <g id="material/line_1-material/line" transform="translate(257.771800, 89.740260) rotate(-330.000000) translate(-257.771800, -89.740260) translate(180.000000, 81.000000)" stroke="#FFFFFF" stroke-linecap="round" stroke-linejoin="round" stroke-width="16">
                    <path d="M0,17.4805202 C15.5543594,17.4805202 15.5543594,0 31.1087189,0 C46.6630783,0 46.6630783,17.4805202 62.2174377,17.4805202 C77.7717972,17.4805202 77.7717972,0 93.3261566,0 C108.880516,0 108.880516,17.4805202 124.434875,17.4805202 C139.989235,17.4805202 139.989235,0 155.543594,0" id="Path"></path>
                </g>
                <g id="material/line_4-material/line" transform="translate(763.951763, 1019.666234) rotate(-114.000000) translate(-763.951763, -1019.666234) translate(686.179963, 1010.925974)" stroke="#FFFFFF" stroke-linecap="round" stroke-linejoin="round" stroke-width="16">
                    <path d="M0,17.4805202 C15.5543594,17.4805202 15.5543594,0 31.1087189,0 C46.6630783,0 46.6630783,17.4805202 62.2174377,17.4805202 C77.7717972,17.4805202 77.7717972,0 93.3261566,0 C108.880516,0 108.880516,17.4805202 124.434875,17.4805202 C139.989235,17.4805202 139.989235,0 155.543594,0" id="Path"></path>
                </g>
                <g id="material/rectangle-copy-4_1-material/rectangle" transform="translate(630.660482, 820.727273) rotate(-330.000000) translate(-630.660482, -820.727273) translate(572.113173, 762.167532)" fill="#FFFFFF">
                    <rect id="Rectangle-Copy-3" transform="translate(57.931022, 59.176160) rotate(-270.000000) translate(-57.931022, -59.176160) " x="7.39544967" y="8.62985671" width="101.071145" height="101.092607" rx="6"></rect>
                </g>
                <g id="material/magic-lamp_3-material/magic-lamp" transform="translate(720.309644, 625.547308) rotate(-8.033016) translate(-720.309644, -625.547308) translate(609.809644, 569.047308)" fill="#FFFFFF" fill-rule="nonzero">
                    <path d="M184.467426,17.0033279 C169.463504,17.8556517 154.702151,36.2820807 146.778221,39.1485268 C143.240752,40.4219391 136.31742,36.2668606 133.674425,34.5419196 C133.468087,34.40773 133.347372,34.1743831 133.356701,33.9277471 C133.36603,33.6811111 133.504026,33.4576272 133.719907,33.3395342 C134.292825,33.1016692 134.762342,32.6662913 135.043931,32.111782 C135.310597,31.3354494 135.186421,30.4775491 134.710691,29.809519 C134.234962,29.1414888 133.466542,28.7459861 132.648559,28.748147 L131.435712,28.748147 C131.079041,28.7481162 130.767426,28.5061884 130.677683,28.1596377 C130.040939,25.754867 127.37773,20.1031484 116.335773,18.8500295 C116.123495,18.8483235 115.934909,18.7136111 115.863725,18.5128323 C115.79254,18.3120535 115.853935,18.0880157 116.017401,17.9520455 C117.028107,16.9373743 118.246007,15.3189737 118.246007,13.5280791 C118.205014,12.035693 117.685759,10.5963575 116.765323,9.4237341 C114.460915,6.35435373 108.927303,6.37972051 106.622894,9.46939431 C105.696365,10.6236601 105.164769,12.0468112 105.106836,13.5280791 C105.106836,15.2378001 106.218612,16.7851736 107.193943,17.8099915 C107.358224,17.9848114 107.409951,18.2378413 107.327536,18.4634892 C107.245122,18.6891371 107.04273,18.8486248 106.804821,18.8753963 C96.1469328,20.1488086 93.4079211,25.5570061 92.7105343,28.0074371 C92.5910016,28.431894 92.2232921,28.7385123 91.7857389,28.7785872 C90.4768754,28.9003477 87.9248442,29.1793823 87.9248442,31.2746783 C87.9248442,32.7560982 89.0467272,33.3953411 90.0271114,33.664229 C90.7699799,33.8620898 90.9114787,34.4049389 90.3303231,34.9122745 C88.8475204,36.2197468 87.1961043,36.7063608 84.2246303,36.9010301 C81.2531564,37.0956994 74.280321,37.3627055 62.151856,29.7526715 C50.023391,22.1426375 35.3681625,17.5766172 28.7985773,17.0692816 C24.2528145,16.7036634 19.6840003,17.3874228 15.4421052,19.0681838 C14.6873308,19.3636864 14.2099489,20.1157211 14.261922,20.9273633 C14.313895,21.7390055 14.8832634,22.423485 15.6695139,22.619533 C20.4198293,23.8371384 27.5857308,25.825894 31.8104794,27.7385492 C47.8503744,34.9883749 54.4502808,44.6886315 63.455666,57.4126083 C70.5861927,67.5085867 78.3332498,79.0200314 96.0205946,87.137401 C97.3720473,87.7552559 98.3598284,88.9696855 98.6926569,90.4225738 C99.0254855,91.8754621 98.6653984,93.40109 97.7185797,94.5495741 C97.2087779,95.1727441 96.6288135,95.7345547 95.9902734,96.2237815 C91.9474517,99.2677951 89.5369193,99.9273314 87.1213334,100.921709 C85.764153,101.47885 84.8760645,102.803187 84.8725138,104.275197 L84.8725138,104.630332 C84.8711699,104.956831 84.9994229,105.270419 85.228917,105.501766 C85.4584111,105.733112 85.7702424,105.863158 86.0954674,105.863158 L137.211894,105.863158 C137.537582,105.863158 137.84993,105.733271 138.080226,105.502072 C138.310522,105.270872 138.439901,104.957298 138.439901,104.630332 L138.439901,104.275197 C138.434983,102.803608 137.547358,101.479964 136.191081,100.921709 C133.770442,99.907038 131.35991,99.2627218 127.322141,96.2237815 C126.327091,95.4536021 125.472236,94.5164371 124.795378,93.4537292 C124.081494,92.3352538 123.935911,90.9439363 124.402698,89.7009477 C124.869485,88.4579591 125.893768,87.509423 127.165482,87.1424743 C138.332524,83.8848753 147.808707,76.4116462 153.605536,66.2909813 C157.143005,60.2029541 157.143005,50.1222607 164.161642,50.1222607 C166.996521,50.1222607 175.9775,55.6572271 185.038474,56.7936589 C194.099448,57.9300906 205.151512,44.9828862 206.556393,36.9010301 C208.527268,25.5620795 194.367285,16.4401854 184.467426,17.0033279 Z M185.335896,45.764677 C182.173507,45.4020211 179.919416,43.3763048 175.724371,41.9733399 C171.529325,40.5703749 169.435913,40.9903846 169.186083,39.6506235 C169.086629,35.4700423 178.976018,28.8490832 184.300883,28.8825728 C189.625747,28.9160624 192.088951,30.564347 193.406259,34.3696553 C194.723567,38.1749636 190.008466,46.3064207 185.345991,45.7655573 L185.335896,45.764677 Z" id="Shape"></path>
                </g>
                <g id="material/magic-lamp_1-material/magic-lamp" transform="translate(507.916512, 989.280519) rotate(-330.000000) translate(-507.916512, -989.280519) translate(393.443414, 930.720779)" fill="#FFFFFF" fill-rule="nonzero">
                    <path d="M191.100071,17.6231946 C175.556673,18.5065904 160.264567,37.604766 152.055726,40.5757102 C148.391065,41.8955456 141.2188,37.5889911 138.480775,35.8011663 C138.267018,35.6620847 138.141963,35.420231 138.151627,35.1646038 C138.161292,34.9089766 138.304249,34.6773454 138.527892,34.5549472 C139.12141,34.3084107 139.607809,33.8571609 139.899522,33.2824366 C140.175777,32.4778023 140.047136,31.5886268 139.554301,30.8962432 C139.061466,30.2038596 138.265418,29.7939386 137.418023,29.7961783 L136.161568,29.7961783 C135.792073,29.7961463 135.469254,29.5453989 135.376284,29.1862145 C134.716645,26.6937764 131.957679,20.836021 120.518701,19.5372188 C120.298791,19.5354506 120.103424,19.3958272 120.02968,19.1877289 C119.955936,18.9796306 120.019538,18.7474254 120.188882,18.6064983 C121.235928,17.5548366 122.497618,15.8774363 122.497618,14.0212535 C122.455152,12.4744615 121.917227,10.9826542 120.963696,9.76728208 C118.576431,6.58600558 112.843854,6.61229712 110.456589,9.81460685 C109.496746,11.0109522 108.946036,12.4859851 108.88602,14.0212535 C108.88602,15.7933034 110.037771,17.3970874 111.04817,18.4592656 C111.218358,18.6404587 111.271945,18.902713 111.186567,19.136587 C111.10119,19.370461 110.891521,19.5357629 110.645058,19.5635104 C99.6039577,20.8833458 96.7664631,26.4887024 96.0440014,29.0284653 C95.9201707,29.4683961 95.53924,29.7861923 95.0859543,29.8277281 C93.7300298,29.9539275 91.0862387,30.2431345 91.0862387,32.4148158 C91.0862387,33.9502418 92.2484597,34.6127886 93.2640943,34.891479 C94.0336731,35.096553 94.1802595,35.659192 93.5782081,36.1850228 C92.0420903,37.5401598 90.3312964,38.0445135 87.2529812,38.2462796 C84.174666,38.4480458 76.9511179,38.7247857 64.3865661,30.8373233 C51.8220143,22.9498609 36.6398476,18.2173835 29.8340487,17.6915526 C25.1248401,17.3126056 20.3917512,18.0212919 15.997336,19.7633261 C15.2154233,20.0696014 14.7208768,20.8490519 14.7747186,21.6902831 C14.8285604,22.5315142 15.4184007,23.2409468 16.2329214,23.4441419 C21.1540375,24.7061359 28.5775935,26.7673927 32.9542457,28.7497749 C49.5708654,36.2638974 56.4080757,46.3177828 65.7372554,59.50562 C73.1241648,69.9696534 81.1497723,81.9007549 99.473077,90.3140481 C100.873122,90.9544273 101.896419,92.2131297 102.241215,93.7189839 C102.586011,95.2248381 102.212976,96.8060837 101.232114,97.9964365 C100.703982,98.6423246 100.103165,99.2246163 99.4416656,99.7316782 C95.2534817,102.886663 92.756277,103.570243 90.2538371,104.600872 C88.8478585,105.178324 87.9278381,106.55094 87.9241598,108.076613 L87.9241598,108.444695 C87.9227676,108.783096 88.055632,109.108117 88.2933777,109.347897 C88.5311234,109.587678 88.8541668,109.722464 89.1910854,109.722464 L142.145436,109.722464 C142.482834,109.722464 142.806413,109.587842 143.04499,109.348214 C143.283566,109.108586 143.417597,108.78358 143.417597,108.444695 L143.417597,108.076613 C143.412502,106.551377 142.492962,105.179478 141.08792,104.600872 C138.580244,103.54921 136.08304,102.881405 131.900091,99.7316782 C130.869263,98.9334214 129.983671,97.9620915 129.282476,96.8606419 C128.542924,95.7013918 128.392107,94.259353 128.875677,92.9710505 C129.359248,91.682748 130.42036,90.6996324 131.737799,90.3193064 C143.306359,86.9429496 153.123265,79.1972794 159.128522,68.7076594 C162.793183,62.3976895 162.793183,51.9494982 170.06418,51.9494982 C173.000988,51.9494982 182.304885,57.6862453 191.691652,58.8641064 C201.078419,60.0419674 212.527867,46.6227647 213.983261,38.2462796 C216.025001,26.4939607 201.355886,17.0395224 191.100071,17.6231946 Z M191.999401,47.4328555 C188.723311,47.0571174 186.388252,44.9576579 182.042416,43.5037344 C177.696579,42.049811 175.527871,42.4852217 175.269115,41.0966346 C175.166267,36.7636681 185.41156,29.9009337 190.927902,29.9354129 C196.444245,29.9698921 198.995952,31.6781528 200.360465,35.6221142 C201.724977,39.5660757 196.839972,47.9941438 192.00986,47.4337674 L191.999401,47.4328555 Z" id="Shape"></path>
                </g>
                <g id="material/rectangle-copy-4_4-material/rectangle" transform="translate(408.000000, 260.000000) rotate(-203.813763) translate(-408.000000, -260.000000) translate(360.000000, 212.000000)" fill="#FFFFFF">
                    <rect id="Rectangle-Copy-3" transform="translate(47.494737, 48.505263) rotate(-270.000000) translate(-47.494737, -48.505263) " x="6.06315789" y="7.07368421" width="82.8631579" height="82.8631579" rx="6"></rect>
                </g>
                <g id="material/rectangle-copy-4_1-material/rectangle" transform="translate(179.000000, 569.000000) rotate(-330.000000) translate(-179.000000, -569.000000) translate(124.000000, 514.000000)" fill="#FFFFFF">
                    <rect id="Rectangle-Copy-3" transform="translate(54.421053, 55.578947) rotate(-270.000000) translate(-54.421053, -55.578947) " x="6.94736842" y="8.10526316" width="94.9473684" height="94.9473684" rx="6"></rect>
                </g>
                <g id="material/magic-lamp_5-material/magic-lamp" transform="translate(526.473098, 100.559740) rotate(-24.094090) translate(-526.473098, -100.559740) translate(412.000000, 42.000000)" fill="#FFFFFF" fill-rule="nonzero">
                    <path d="M191.100071,17.6231946 C175.556673,18.5065904 160.264567,37.604766 152.055726,40.5757102 C148.391065,41.8955456 141.2188,37.5889911 138.480775,35.8011663 C138.267018,35.6620847 138.141963,35.420231 138.151627,35.1646038 C138.161292,34.9089766 138.304249,34.6773454 138.527892,34.5549472 C139.12141,34.3084107 139.607809,33.8571609 139.899522,33.2824366 C140.175777,32.4778023 140.047136,31.5886268 139.554301,30.8962432 C139.061466,30.2038596 138.265418,29.7939386 137.418023,29.7961783 L136.161568,29.7961783 C135.792073,29.7961463 135.469254,29.5453989 135.376284,29.1862145 C134.716645,26.6937764 131.957679,20.836021 120.518701,19.5372188 C120.298791,19.5354506 120.103424,19.3958272 120.02968,19.1877289 C119.955936,18.9796306 120.019538,18.7474254 120.188882,18.6064983 C121.235928,17.5548366 122.497618,15.8774363 122.497618,14.0212535 C122.455152,12.4744615 121.917227,10.9826542 120.963696,9.76728208 C118.576431,6.58600558 112.843854,6.61229712 110.456589,9.81460685 C109.496746,11.0109522 108.946036,12.4859851 108.88602,14.0212535 C108.88602,15.7933034 110.037771,17.3970874 111.04817,18.4592656 C111.218358,18.6404587 111.271945,18.902713 111.186567,19.136587 C111.10119,19.370461 110.891521,19.5357629 110.645058,19.5635104 C99.6039577,20.8833458 96.7664631,26.4887024 96.0440014,29.0284653 C95.9201707,29.4683961 95.53924,29.7861923 95.0859543,29.8277281 C93.7300298,29.9539275 91.0862387,30.2431345 91.0862387,32.4148158 C91.0862387,33.9502418 92.2484597,34.6127886 93.2640943,34.891479 C94.0336731,35.096553 94.1802595,35.659192 93.5782081,36.1850228 C92.0420903,37.5401598 90.3312964,38.0445135 87.2529812,38.2462796 C84.174666,38.4480458 76.9511179,38.7247857 64.3865661,30.8373233 C51.8220143,22.9498609 36.6398476,18.2173835 29.8340487,17.6915526 C25.1248401,17.3126056 20.3917512,18.0212919 15.997336,19.7633261 C15.2154233,20.0696014 14.7208768,20.8490519 14.7747186,21.6902831 C14.8285604,22.5315142 15.4184007,23.2409468 16.2329214,23.4441419 C21.1540375,24.7061359 28.5775935,26.7673927 32.9542457,28.7497749 C49.5708654,36.2638974 56.4080757,46.3177828 65.7372554,59.50562 C73.1241648,69.9696534 81.1497723,81.9007549 99.473077,90.3140481 C100.873122,90.9544273 101.896419,92.2131297 102.241215,93.7189839 C102.586011,95.2248381 102.212976,96.8060837 101.232114,97.9964365 C100.703982,98.6423246 100.103165,99.2246163 99.4416656,99.7316782 C95.2534817,102.886663 92.756277,103.570243 90.2538371,104.600872 C88.8478585,105.178324 87.9278381,106.55094 87.9241598,108.076613 L87.9241598,108.444695 C87.9227676,108.783096 88.055632,109.108117 88.2933777,109.347897 C88.5311234,109.587678 88.8541668,109.722464 89.1910854,109.722464 L142.145436,109.722464 C142.482834,109.722464 142.806413,109.587842 143.04499,109.348214 C143.283566,109.108586 143.417597,108.78358 143.417597,108.444695 L143.417597,108.076613 C143.412502,106.551377 142.492962,105.179478 141.08792,104.600872 C138.580244,103.54921 136.08304,102.881405 131.900091,99.7316782 C130.869263,98.9334214 129.983671,97.9620915 129.282476,96.8606419 C128.542924,95.7013918 128.392107,94.259353 128.875677,92.9710505 C129.359248,91.682748 130.42036,90.6996324 131.737799,90.3193064 C143.306359,86.9429496 153.123265,79.1972794 159.128522,68.7076594 C162.793183,62.3976895 162.793183,51.9494982 170.06418,51.9494982 C173.000988,51.9494982 182.304885,57.6862453 191.691652,58.8641064 C201.078419,60.0419674 212.527867,46.6227647 213.983261,38.2462796 C216.025001,26.4939607 201.355886,17.0395224 191.100071,17.6231946 Z M191.999401,47.4328555 C188.723311,47.0571174 186.388252,44.9576579 182.042416,43.5037344 C177.696579,42.049811 175.527871,42.4852217 175.269115,41.0966346 C175.166267,36.7636681 185.41156,29.9009337 190.927902,29.9354129 C196.444245,29.9698921 198.995952,31.6781528 200.360465,35.6221142 C201.724977,39.5660757 196.839972,47.9941438 192.00986,47.4337674 L191.999401,47.4328555 Z" id="Shape"></path>
                </g>
                <g id="material/magic-lamp_3-material/magic-lamp" transform="translate(299.473098, 415.559740) rotate(-316.033016) translate(-299.473098, -415.559740) translate(185.000000, 357.000000)" fill="#FFFFFF" fill-rule="nonzero">
                    <path d="M191.100071,17.6231946 C175.556673,18.5065904 160.264567,37.604766 152.055726,40.5757102 C148.391065,41.8955456 141.2188,37.5889911 138.480775,35.8011663 C138.267018,35.6620847 138.141963,35.420231 138.151627,35.1646038 C138.161292,34.9089766 138.304249,34.6773454 138.527892,34.5549472 C139.12141,34.3084107 139.607809,33.8571609 139.899522,33.2824366 C140.175777,32.4778023 140.047136,31.5886268 139.554301,30.8962432 C139.061466,30.2038596 138.265418,29.7939386 137.418023,29.7961783 L136.161568,29.7961783 C135.792073,29.7961463 135.469254,29.5453989 135.376284,29.1862145 C134.716645,26.6937764 131.957679,20.836021 120.518701,19.5372188 C120.298791,19.5354506 120.103424,19.3958272 120.02968,19.1877289 C119.955936,18.9796306 120.019538,18.7474254 120.188882,18.6064983 C121.235928,17.5548366 122.497618,15.8774363 122.497618,14.0212535 C122.455152,12.4744615 121.917227,10.9826542 120.963696,9.76728208 C118.576431,6.58600558 112.843854,6.61229712 110.456589,9.81460685 C109.496746,11.0109522 108.946036,12.4859851 108.88602,14.0212535 C108.88602,15.7933034 110.037771,17.3970874 111.04817,18.4592656 C111.218358,18.6404587 111.271945,18.902713 111.186567,19.136587 C111.10119,19.370461 110.891521,19.5357629 110.645058,19.5635104 C99.6039577,20.8833458 96.7664631,26.4887024 96.0440014,29.0284653 C95.9201707,29.4683961 95.53924,29.7861923 95.0859543,29.8277281 C93.7300298,29.9539275 91.0862387,30.2431345 91.0862387,32.4148158 C91.0862387,33.9502418 92.2484597,34.6127886 93.2640943,34.891479 C94.0336731,35.096553 94.1802595,35.659192 93.5782081,36.1850228 C92.0420903,37.5401598 90.3312964,38.0445135 87.2529812,38.2462796 C84.174666,38.4480458 76.9511179,38.7247857 64.3865661,30.8373233 C51.8220143,22.9498609 36.6398476,18.2173835 29.8340487,17.6915526 C25.1248401,17.3126056 20.3917512,18.0212919 15.997336,19.7633261 C15.2154233,20.0696014 14.7208768,20.8490519 14.7747186,21.6902831 C14.8285604,22.5315142 15.4184007,23.2409468 16.2329214,23.4441419 C21.1540375,24.7061359 28.5775935,26.7673927 32.9542457,28.7497749 C49.5708654,36.2638974 56.4080757,46.3177828 65.7372554,59.50562 C73.1241648,69.9696534 81.1497723,81.9007549 99.473077,90.3140481 C100.873122,90.9544273 101.896419,92.2131297 102.241215,93.7189839 C102.586011,95.2248381 102.212976,96.8060837 101.232114,97.9964365 C100.703982,98.6423246 100.103165,99.2246163 99.4416656,99.7316782 C95.2534817,102.886663 92.756277,103.570243 90.2538371,104.600872 C88.8478585,105.178324 87.9278381,106.55094 87.9241598,108.076613 L87.9241598,108.444695 C87.9227676,108.783096 88.055632,109.108117 88.2933777,109.347897 C88.5311234,109.587678 88.8541668,109.722464 89.1910854,109.722464 L142.145436,109.722464 C142.482834,109.722464 142.806413,109.587842 143.04499,109.348214 C143.283566,109.108586 143.417597,108.78358 143.417597,108.444695 L143.417597,108.076613 C143.412502,106.551377 142.492962,105.179478 141.08792,104.600872 C138.580244,103.54921 136.08304,102.881405 131.900091,99.7316782 C130.869263,98.9334214 129.983671,97.9620915 129.282476,96.8606419 C128.542924,95.7013918 128.392107,94.259353 128.875677,92.9710505 C129.359248,91.682748 130.42036,90.6996324 131.737799,90.3193064 C143.306359,86.9429496 153.123265,79.1972794 159.128522,68.7076594 C162.793183,62.3976895 162.793183,51.9494982 170.06418,51.9494982 C173.000988,51.9494982 182.304885,57.6862453 191.691652,58.8641064 C201.078419,60.0419674 212.527867,46.6227647 213.983261,38.2462796 C216.025001,26.4939607 201.355886,17.0395224 191.100071,17.6231946 Z M191.999401,47.4328555 C188.723311,47.0571174 186.388252,44.9576579 182.042416,43.5037344 C177.696579,42.049811 175.527871,42.4852217 175.269115,41.0966346 C175.166267,36.7636681 185.41156,29.9009337 190.927902,29.9354129 C196.444245,29.9698921 198.995952,31.6781528 200.360465,35.6221142 C201.724977,39.5660757 196.839972,47.9941438 192.00986,47.4337674 L191.999401,47.4328555 Z" id="Shape"></path>
                </g>
                <g id="material/magic-lamp_1-material/magic-lamp" transform="translate(110.454545, 787.175325) rotate(-238.000000) translate(-110.454545, -787.175325) translate(-4.018553, 728.615584)" fill="#FFFFFF" fill-rule="nonzero">
                    <path d="M191.100071,17.6231946 C175.556673,18.5065904 160.264567,37.604766 152.055726,40.5757102 C148.391065,41.8955456 141.2188,37.5889911 138.480775,35.8011663 C138.267018,35.6620847 138.141963,35.420231 138.151627,35.1646038 C138.161292,34.9089766 138.304249,34.6773454 138.527892,34.5549472 C139.12141,34.3084107 139.607809,33.8571609 139.899522,33.2824366 C140.175777,32.4778023 140.047136,31.5886268 139.554301,30.8962432 C139.061466,30.2038596 138.265418,29.7939386 137.418023,29.7961783 L136.161568,29.7961783 C135.792073,29.7961463 135.469254,29.5453989 135.376284,29.1862145 C134.716645,26.6937764 131.957679,20.836021 120.518701,19.5372188 C120.298791,19.5354506 120.103424,19.3958272 120.02968,19.1877289 C119.955936,18.9796306 120.019538,18.7474254 120.188882,18.6064983 C121.235928,17.5548366 122.497618,15.8774363 122.497618,14.0212535 C122.455152,12.4744615 121.917227,10.9826542 120.963696,9.76728208 C118.576431,6.58600558 112.843854,6.61229712 110.456589,9.81460685 C109.496746,11.0109522 108.946036,12.4859851 108.88602,14.0212535 C108.88602,15.7933034 110.037771,17.3970874 111.04817,18.4592656 C111.218358,18.6404587 111.271945,18.902713 111.186567,19.136587 C111.10119,19.370461 110.891521,19.5357629 110.645058,19.5635104 C99.6039577,20.8833458 96.7664631,26.4887024 96.0440014,29.0284653 C95.9201707,29.4683961 95.53924,29.7861923 95.0859543,29.8277281 C93.7300298,29.9539275 91.0862387,30.2431345 91.0862387,32.4148158 C91.0862387,33.9502418 92.2484597,34.6127886 93.2640943,34.891479 C94.0336731,35.096553 94.1802595,35.659192 93.5782081,36.1850228 C92.0420903,37.5401598 90.3312964,38.0445135 87.2529812,38.2462796 C84.174666,38.4480458 76.9511179,38.7247857 64.3865661,30.8373233 C51.8220143,22.9498609 36.6398476,18.2173835 29.8340487,17.6915526 C25.1248401,17.3126056 20.3917512,18.0212919 15.997336,19.7633261 C15.2154233,20.0696014 14.7208768,20.8490519 14.7747186,21.6902831 C14.8285604,22.5315142 15.4184007,23.2409468 16.2329214,23.4441419 C21.1540375,24.7061359 28.5775935,26.7673927 32.9542457,28.7497749 C49.5708654,36.2638974 56.4080757,46.3177828 65.7372554,59.50562 C73.1241648,69.9696534 81.1497723,81.9007549 99.473077,90.3140481 C100.873122,90.9544273 101.896419,92.2131297 102.241215,93.7189839 C102.586011,95.2248381 102.212976,96.8060837 101.232114,97.9964365 C100.703982,98.6423246 100.103165,99.2246163 99.4416656,99.7316782 C95.2534817,102.886663 92.756277,103.570243 90.2538371,104.600872 C88.8478585,105.178324 87.9278381,106.55094 87.9241598,108.076613 L87.9241598,108.444695 C87.9227676,108.783096 88.055632,109.108117 88.2933777,109.347897 C88.5311234,109.587678 88.8541668,109.722464 89.1910854,109.722464 L142.145436,109.722464 C142.482834,109.722464 142.806413,109.587842 143.04499,109.348214 C143.283566,109.108586 143.417597,108.78358 143.417597,108.444695 L143.417597,108.076613 C143.412502,106.551377 142.492962,105.179478 141.08792,104.600872 C138.580244,103.54921 136.08304,102.881405 131.900091,99.7316782 C130.869263,98.9334214 129.983671,97.9620915 129.282476,96.8606419 C128.542924,95.7013918 128.392107,94.259353 128.875677,92.9710505 C129.359248,91.682748 130.42036,90.6996324 131.737799,90.3193064 C143.306359,86.9429496 153.123265,79.1972794 159.128522,68.7076594 C162.793183,62.3976895 162.793183,51.9494982 170.06418,51.9494982 C173.000988,51.9494982 182.304885,57.6862453 191.691652,58.8641064 C201.078419,60.0419674 212.527867,46.6227647 213.983261,38.2462796 C216.025001,26.4939607 201.355886,17.0395224 191.100071,17.6231946 Z M191.999401,47.4328555 C188.723311,47.0571174 186.388252,44.9576579 182.042416,43.5037344 C177.696579,42.049811 175.527871,42.4852217 175.269115,41.0966346 C175.166267,36.7636681 185.41156,29.9009337 190.927902,29.9354129 C196.444245,29.9698921 198.995952,31.6781528 200.360465,35.6221142 C201.724977,39.5660757 196.839972,47.9941438 192.00986,47.4337674 L191.999401,47.4328555 Z" id="Shape"></path>
                </g>
            </g>
        </g>
    </g>
</svg>