<?xml version="1.0" encoding="UTF-8"?>
<svg width="1024px" height="1024px" viewBox="0 0 1024 1024" version="1.1" xmlns="http://www.w3.org/2000/svg" xmlns:xlink="http://www.w3.org/1999/xlink">
    <!-- Generator: sketchtool 61.2 (101010) - https://sketch.com -->
    <title>6DAC70D3-FFB7-4DCE-8EAD-4AA2C99B493B</title>
    <desc>Created with sketchtool.</desc>
    <g id="Page-2" stroke="none" stroke-width="1" fill="none" fill-rule="evenodd">
        <g id="Icon-切圖" transform="translate(-96.000000, -13774.000000)">
            <g id="Nav/Icon/ic_account" transform="translate(96.000000, 13774.000000)">
                <rect id="bg" fill="#D8D8D8" opacity="0" x="0" y="0" width="1024" height="1024"></rect>
                <path d="M512,85.3333333 C747.641493,85.3333333 938.666667,276.358507 938.666667,512 C938.666667,747.641493 747.641493,938.666667 512,938.666667 C276.358507,938.666667 85.3333333,747.641493 85.3333333,512 C85.3333333,276.358507 276.358507,85.3333333 512,85.3333333 Z M529.88487,640 C432.755104,640 346.752667,699.553242 311.607598,788.305484 C367.897471,829.230589 437.133987,853.333333 512,853.333333 C598.988693,853.333333 678.377172,820.792948 738.65689,767.220723 L738.208375,766.5157 L738.208375,766.5157 C698.072932,689.391807 618.381749,640 529.88487,640 Z M512,170.666667 C323.486805,170.666667 170.666667,323.486805 170.666667,512 C170.666667,593.143146 198.980636,667.67321 246.2677,726.249316 C278.115834,665.484646 328.373295,617.093083 388.81553,587.395319 C359.414929,556.813424 341.333333,515.18497 341.333333,469.333333 C341.333333,375.076736 417.743403,298.666667 512,298.666667 C606.256597,298.666667 682.666667,375.076736 682.666667,469.333333 C682.666667,509.737519 668.626257,546.862391 645.158306,576.09508 C707.1306,600.004828 760.580189,642.893963 797.488359,699.12376 C832.788241,645.442001 853.333333,581.120282 853.333333,512 C853.333333,323.486805 700.513195,170.666667 512,170.666667 Z M512,384 C464.871701,384 426.666667,422.205035 426.666667,469.333333 C426.666667,516.461632 464.871701,554.666667 512,554.666667 C559.128299,554.666667 597.333333,516.461632 597.333333,469.333333 C597.333333,422.205035 559.128299,384 512,384 Z" id="Shape" fill="#707E90"></path>
            </g>
        </g>
    </g>
</svg>
