<?xml version="1.0" encoding="UTF-8"?>
<svg width="1024px" height="1024px" viewBox="0 0 1024 1024" version="1.1" xmlns="http://www.w3.org/2000/svg" xmlns:xlink="http://www.w3.org/1999/xlink">
    <title>8FE15CE0-8795-4B11-BB37-B7714DCF5D5A</title>
    <g id="Page-1" stroke="none" stroke-width="1" fill="none" fill-rule="evenodd">
        <g id="切圖" fill-rule="nonzero">
            <g id="ic_front_add-to-cart_outline">
                <rect id="bg" fill-opacity="0" fill="#FFFFFF" x="64" y="64" width="896" height="896"></rect>
                <path d="M668.897451,498.875 C783.910751,498.875 877.147451,592.1117 877.147451,707.125 C877.147451,822.1383 783.910751,915.375 668.897451,915.375 C553.884154,915.375 460.647451,822.1383 460.647451,707.125 C460.647451,592.1117 553.884154,498.875 668.897451,498.875 Z M668.897451,532.125 C572.24762,532.125 493.897451,610.475169 493.897451,707.125 C493.897451,803.774831 572.24762,882.125 668.897451,882.125 C765.547284,882.125 843.897451,803.774831 843.897451,707.125 C843.897451,610.475169 765.547284,532.125 668.897451,532.125 Z M478.147451,109.5 C537.949535,109.5 586.541932,157.494375 587.507799,217.066284 L587.522451,218.875 L587.521251,247.75 L644.028165,247.75 C674.552961,247.75 700.222357,270.520498 703.947446,300.720039 L704.053593,301.637436 L716.926194,420.739669 C717.912811,429.868241 711.312454,438.068222 702.183883,439.054841 C693.2127,440.02445 685.138363,433.666445 683.926144,424.782417 L683.868711,424.31253 L670.996109,305.210296 C669.528556,291.631916 658.206236,281.294688 644.612137,281.006192 L644.028165,281 L587.521251,281 L587.522451,334.375 C587.522451,343.556733 580.079187,351 570.897451,351 C561.874023,351 554.529632,343.811186 554.279061,334.848337 L554.272451,334.375 L554.271251,281 L402.021251,281 L402.022451,334.375 C402.022451,343.556733 394.579187,351 385.397451,351 C376.374023,351 369.029632,343.811186 368.779061,334.848337 L368.772451,334.375 L368.771251,281 L307.720826,281 C294.062168,281 282.567548,291.147713 280.821383,304.633476 L280.752538,305.213461 L226.906712,803.963461 C226.802313,804.930463 226.75,805.902379 226.75,806.875 C226.75,821.670776 238.596268,833.69971 253.321473,833.994465 L253.875,834 L419.118962,834 C428.300695,834 435.743962,841.443267 435.743962,850.625 C435.743962,859.648428 428.555148,866.992819 419.592299,867.25 L419.118962,867.25 L253.875,867.25 C220.530808,867.25 193.5,840.219192 193.5,806.875 C193.5,805.143108 193.574521,803.41222 193.723303,801.687131 L193.84881,800.394478 L247.694636,301.644478 C250.971389,271.293371 276.369637,248.215478 306.797256,247.756955 L307.720826,247.75 L368.771251,247.75 L368.772451,218.875 C368.772451,158.468855 417.741308,109.5 478.147451,109.5 Z M769.665556,635.721983 C776.440001,641.664848 777.227099,651.893403 771.529128,658.796064 L771.199674,659.183178 L648.105478,799.501834 C641.55322,806.970944 629.994482,807.041051 623.343873,799.762975 L622.998427,799.373135 L562.712812,729.213808 C556.728896,722.249832 557.52339,711.75349 564.487366,705.769572 C571.322381,699.896466 581.560142,700.553048 587.594572,707.163588 L587.931603,707.544126 L635.736702,763.179251 L746.204358,637.2561 C752.259354,630.353834 762.763289,629.666987 769.665556,635.721983 Z M478.147451,142.75 C436.525203,142.75 402.704894,176.154085 402.03265,217.616134 L402.021251,218.875 L402.021251,247.75 L554.272451,247.75 L554.272451,218.875 C554.272451,176.832324 520.190128,142.75 478.147451,142.75 Z" id="Shape" fill-opacity="0.88" fill="#000000"></path>
            </g>
        </g>
    </g>
</svg>