<svg width="20" height="20" viewBox="0 0 20 20" fill="none" xmlns="http://www.w3.org/2000/svg">
<path d="M9.05608 13.4375C9.05608 13.1889 9.15485 12.9504 9.33067 12.7746C9.50648 12.5988 9.74494 12.5 9.99358 12.5C10.2422 12.5 10.4807 12.5988 10.6565 12.7746C10.8323 12.9504 10.9311 13.1889 10.9311 13.4375C10.9311 13.6861 10.8323 13.9246 10.6565 14.1004C10.4807 14.2762 10.2422 14.375 9.99358 14.375C9.74494 14.375 9.50648 14.2762 9.33067 14.1004C9.15485 13.9246 9.05608 13.6861 9.05608 13.4375ZM9.37858 6.1375C9.4064 5.98382 9.49076 5.84612 9.61504 5.75152C9.73932 5.65693 9.89451 5.61229 10.0501 5.62641C10.2056 5.64052 10.3502 5.71236 10.4554 5.82777C10.5607 5.94319 10.6189 6.09382 10.6186 6.25V10.625L10.6086 10.7375C10.5808 10.8912 10.4964 11.0289 10.3721 11.1235C10.2478 11.2181 10.0926 11.2627 9.93711 11.2486C9.78156 11.2345 9.63694 11.1626 9.53171 11.0472C9.42649 10.9318 9.36829 10.7812 9.36858 10.625V6.25L9.37858 6.1375ZM9.99358 2.5C11.2948 2.49956 12.5737 2.83766 13.7047 3.48106C14.8356 4.12446 15.7798 5.05104 16.4443 6.16975C17.1088 7.28846 17.4708 8.5608 17.4948 9.86177C17.5188 11.1627 17.2039 12.4476 16.5811 13.59L17.4686 16.7025C17.4998 16.8118 17.5006 16.9275 17.471 17.0373C17.4413 17.147 17.3823 17.2466 17.3003 17.3252C17.2182 17.4039 17.1163 17.4588 17.0054 17.4838C16.8946 17.5089 16.779 17.5032 16.6711 17.4675L13.7486 16.4937C12.7525 17.0693 11.6374 17.4081 10.4894 17.4838C9.34151 17.5594 8.19155 17.37 7.12854 16.9302C6.06552 16.4903 5.11794 15.8118 4.3591 14.9472C3.60026 14.0825 3.0505 13.0549 2.75235 11.9437C2.4542 10.8326 2.41565 9.66782 2.63969 8.53942C2.86373 7.41102 3.34434 6.34929 4.04436 5.43635C4.74438 4.52342 5.64503 3.78375 6.67663 3.27458C7.70824 2.76541 8.84316 2.50038 9.99358 2.5ZM16.2436 10C16.2434 8.61326 15.782 7.26596 14.932 6.17022C14.0821 5.07448 12.8918 4.29254 11.5487 3.94749C10.2056 3.60244 8.78582 3.71388 7.51298 4.26428C6.24014 4.81467 5.18649 5.77275 4.51792 6.98769C3.84935 8.20263 3.60382 9.60541 3.81999 10.9752C4.03616 12.345 4.70176 13.604 5.71199 14.554C6.72222 15.504 8.01971 16.091 9.40019 16.2227C10.7807 16.3544 12.1657 16.0232 13.3373 15.2812C13.4157 15.2316 13.5041 15.2 13.5962 15.1887C13.6884 15.1775 13.7818 15.1869 13.8698 15.2163L15.9423 15.9075L15.3048 13.6812C15.2816 13.5993 15.2754 13.5134 15.2866 13.4289C15.2977 13.3444 15.3261 13.2631 15.3698 13.19C15.9437 12.225 16.2456 11.1227 16.2436 10Z" fill="#9C4716"/>
</svg>
