<?xml version="1.0" encoding="UTF-8"?>
<svg width="24px" height="24px" viewBox="0 0 24 24" version="1.1" xmlns="http://www.w3.org/2000/svg" xmlns:xlink="http://www.w3.org/1999/xlink">
    <!-- Generator: sketchtool 51.3 (57544) - http://www.bohemiancoding.com/sketch -->
    <title>757ADF41-AEB0-4BE8-A734-CF8F78C1F27E</title>
    <desc>Created with sketchtool.</desc>
    <defs></defs>
    <g id="ad-analytics" stroke="none" stroke-width="1" fill="none" fill-rule="evenodd" opacity="0.45">
        <g id="ad-analytics_Gads" transform="translate(-252.000000, -124.000000)" fill="#000000" fill-rule="nonzero">
            <g id="廣告分析/追蹤工具card" transform="translate(221.000000, 104.000000)">
                <g id="Group-7" transform="translate(31.000000, 18.000000)">
                    <g id="追蹤工具icon" transform="translate(0.000000, 2.000000)">
                        <rect id="Rectangle-path" fill-opacity="0.449999988" opacity="0" x="0" y="0" width="24" height="24"></rect>
                        <path d="M12.7507805,12.0937682 L12.7507805,2.25001322 C12.7507805,1.83582452 12.411437,1.50003703 11.9972483,1.50003703 C11.5830596,1.50003703 11.2437162,1.83582452 11.2437161,2.25001322 L11.2437161,12.0952075 C9.95678477,12.429217 8.99819025,13.6030339 8.99819025,14.9999471 C8.99819025,16.3989769 9.95492212,17.5742332 11.2503202,17.9062106 C11.2461732,17.9373418 11.2439676,17.9687008 11.2437161,18.0001058 L11.2437161,21.7499868 C11.2437161,22.1641755 11.5830596,22.499963 11.9972483,22.499963 C12.4114371,22.499963 12.7507805,22.1641755 12.7507805,21.7499868 L12.7507805,18.0001058 C12.7501868,17.9691921 12.7476986,17.9383439 12.7433299,17.9077346 C14.0415219,17.5775351 15.0026564,16.4006703 15.0026564,15.0001164 C15.0029104,13.6010865 14.0461785,12.425915 12.7507805,12.0937682 Z M13.0606601,16.0605648 C12.5546421,16.566598 11.7616323,16.6447154 11.1666025,16.2471436 C10.5715728,15.8495718 10.3402467,15.0870397 10.6140937,14.4258804 C10.8879407,13.7647212 11.5906908,13.3890762 12.2925712,13.5286744 C12.9944516,13.6682727 13.4999794,14.2842342 13.4999947,14.9998624 C13.5011226,15.3979469 13.3429197,15.7799325 13.0606601,16.0606495 L13.0606601,16.0605648 Z M5.24246733,4.59383698 C5.24669637,4.56273926 5.24898678,4.53140859 5.2493253,4.50002646 L5.2493253,2.25001322 C5.2493253,1.83618689 4.91385278,1.50071436 4.50002645,1.50071436 C4.08620012,1.50071436 3.75072759,1.83618689 3.75072759,2.25001322 L3.75072759,4.50002646 C3.75014391,4.53180555 3.75155781,4.5635899 3.75496092,4.59519164 C2.45956289,4.92708448 1.50088369,6.10225601 1.50088371,7.50145521 C1.50088373,8.90065441 2.45973225,10.0753179 3.75513026,10.4076341 C3.75181692,10.4382799 3.75037492,10.4690993 3.75081227,10.4999206 L3.75081227,21.7499868 C3.75081227,22.0176855 3.89362782,22.2650493 4.12546169,22.3988986 C4.35729557,22.532748 4.64292669,22.532748 4.87476056,22.3988986 C5.10659444,22.2650493 5.24940999,22.0176855 5.24940998,21.7499868 L5.24940998,10.5000053 C5.24906966,10.4695629 5.2468926,10.4391689 5.24289066,10.4089888 C6.54099802,10.0787893 7.50111654,8.9019244 7.50111654,7.50145521 C7.50111654,6.10098602 6.540744,4.92386714 5.24246733,4.59383698 Z M5.56064416,8.56215759 C5.05462623,9.0681908 4.2616164,9.14630816 3.66658665,8.74873633 C3.07155691,8.3511645 2.84023082,7.58863243 3.11407784,6.92747317 C3.38792486,6.26631391 4.09067501,5.89066896 4.7925554,6.03026721 C5.4944358,6.16986546 5.99996356,6.78582699 5.99997884,7.50145521 C6.00108405,7.89951037 5.84288294,8.28146131 5.56064416,8.56215759 Z M22.499963,7.50145521 C22.499963,6.10047802 21.5378971,4.92386714 20.2393664,4.59383698 C20.2426573,4.56268076 20.2440146,4.53135056 20.2434304,4.50002646 L20.2434304,2.25001322 C20.2434304,1.83618689 19.9079579,1.50071436 19.4941315,1.50071436 C19.0803052,1.50071436 18.7448327,1.83618689 18.7448327,2.25001322 L18.7448327,4.50002646 C18.745171,4.53186443 18.7475181,4.56364931 18.75186,4.59519164 C17.456462,4.92708448 16.4991375,6.10225601 16.4991375,7.50145521 C16.4991374,8.90065441 17.4558693,10.0757413 18.7512674,10.4077188 C18.7471274,10.4387938 18.7449218,10.4700961 18.7446634,10.5014446 L18.7446634,21.7499868 C18.7446634,22.1638131 19.0801359,22.4992856 19.4939622,22.4992856 C19.9077885,22.4992856 20.2432611,22.1638131 20.2432611,21.7499868 L20.2432611,10.5014446 C20.2438412,10.4706037 20.2425406,10.4397561 20.2393664,10.4090734 C21.5379818,10.0789586 22.4999629,8.90234773 22.499963,7.50145521 Z M20.5605913,8.56207291 C20.054551,9.06802398 19.2615806,9.14605621 18.6666257,8.74844852 C18.0716708,8.35084084 17.8404333,7.58833155 18.1143278,6.92723778 C18.3882223,6.266144 19.0909661,5.89058795 19.792792,6.03024317 C20.4946179,6.16989839 21.0000594,6.7858693 21.0000106,7.50145521 C21.0010708,7.89949327 20.8428402,8.28141127 20.5605913,8.56207291 Z" id="Shape"></path>
                    </g>
                </g>
            </g>
        </g>
    </g>
</svg>