<?xml version="1.0" encoding="UTF-8"?>
<svg width="1024px" height="1024px" viewBox="0 0 1024 1024" version="1.1" xmlns="http://www.w3.org/2000/svg" xmlns:xlink="http://www.w3.org/1999/xlink">
    <title>ic_app-store_outlines</title>
    <g id="icon-重構切圖" stroke="none" stroke-width="1" fill="none" fill-rule="evenodd">
        <g id="ic_app-store_outlines">
            <g>
                <rect id="Rectangle" fill="#000000" opacity="0" x="64" y="64" width="896" height="896"></rect>
                <path d="M470,190 L204,190 C196.3,190 190,196.3 190,204 L190,470 C190,477.7 196.3,484 204,484 L470,484 C477.7,484 484,477.7 484,470 L484,204 C484,196.3 477.7,190 470,190 Z M424.5,424.5 L249.5,424.5 L249.5,249.5 L424.5,249.5 L424.5,424.5 Z M820,190 L554,190 C546.3,190 540,196.3 540,204 L540,470 C540,477.7 546.3,484 554,484 L820,484 C827.7,484 834,477.7 834,470 L834,204 C834,196.3 827.7,190 820,190 Z M774.5,424.5 L599.5,424.5 L599.5,249.5 L774.5,249.5 L774.5,424.5 Z M470,540 L204,540 C196.3,540 190,546.3 190,554 L190,820 C190,827.7 196.3,834 204,834 L470,834 C477.7,834 484,827.7 484,820 L484,554 C484,546.3 477.7,540 470,540 Z M424.5,774.5 L249.5,774.5 L249.5,599.5 L424.5,599.5 L424.5,774.5 Z M820,540 L554,540 C546.3,540 540,546.3 540,554 L540,820 C540,827.7 546.3,834 554,834 L820,834 C827.7,834 834,827.7 834,820 L834,554 C834,546.3 827.7,540 820,540 Z M774.5,774.5 L599.5,774.5 L599.5,599.5 L774.5,599.5 L774.5,774.5 Z" id="Shape" fill="#6F727D" fill-rule="nonzero"></path>
            </g>
        </g>
    </g>
</svg>