<?xml version="1.0" encoding="UTF-8"?>
<svg width="1024px" height="1024px" viewBox="0 0 1024 1024" version="1.1" xmlns="http://www.w3.org/2000/svg" xmlns:xlink="http://www.w3.org/1999/xlink">
    <title>ic_authorization_outlines</title>
    <g id="icon-重構切圖" stroke="none" stroke-width="1" fill="none" fill-rule="evenodd">
        <g id="ic_authorization_outlines">
            <g>
                <rect id="Rectangle" fill="#000000" opacity="0" x="64" y="64" width="896" height="896"></rect>
                <path d="M876,204 L148,204 C132.5125,204 120,216.5125 120,232 L120,792 C120,807.4875 132.5125,820 148,820 L876,820 C891.4875,820 904,807.4875 904,792 L904,232 C904,216.5125 891.4875,204 876,204 Z M841,757 L183,757 L183,267 L841,267 L841,757 Z M598.0125,480.5 L705.9875,480.5 C707.125,480.5 708,477.35 708,473.5 L708,431.5 C708,427.65 707.125,424.5 705.9875,424.5 L598.0125,424.5 C596.875,424.5 596,427.65 596,431.5 L596,473.5 C596,477.35 596.875,480.5 598.0125,480.5 Z M602.2125,606.5 L764.7,606.5 C768.1125,606.5 770.9125,603.35 770.9125,599.5 L770.9125,557.5 C770.9125,553.65 768.1125,550.5 764.7,550.5 L602.2125,550.5 C598.8,550.5 596,553.65 596,557.5 L596,599.5 C596,603.35 598.8,606.5 602.2125,606.5 Z M260,652.875 L298.4125,652.875 C302.0875,652.875 305.0625,649.9875 305.325,646.3125 C308.65,602.125 345.575,567.125 390.375,567.125 C435.175,567.125 472.1,602.125 475.425,646.3125 C475.6875,649.9875 478.6625,652.875 482.3375,652.875 L520.75,652.875 C524.775,652.875 527.925,649.55 527.75,645.525 C525.3,598.8875 499.75,558.2875 462.475,535.1875 C478.3125,517.775 487.9375,494.5875 487.9375,469.125 C487.9375,414.9625 444.275,371.125 390.4625,371.125 C336.65,371.125 292.9875,414.9625 292.9875,469.125 C292.9875,494.5875 302.6125,517.6875 318.45,535.1875 C281.0875,558.375 255.625,598.8875 253.175,645.525 C252.825,649.55 255.975,652.875 260,652.875 L260,652.875 Z M390.375,423.625 C415.3125,423.625 435.6125,444.0125 435.6125,469.125 C435.6125,494.2375 415.3125,514.625 390.375,514.625 C365.4375,514.625 345.1375,494.2375 345.1375,469.125 C345.1375,444.0125 365.4375,423.625 390.375,423.625 Z" id="Shape" fill="#6F727D" fill-rule="nonzero"></path>
            </g>
        </g>
    </g>
</svg>