<?xml version="1.0" encoding="UTF-8"?>
<svg width="1024px" height="1024px" viewBox="0 0 1024 1024" version="1.1" xmlns="http://www.w3.org/2000/svg" xmlns:xlink="http://www.w3.org/1999/xlink">
    <!-- Generator: sketchtool 61.2 (101010) - https://sketch.com -->
    <title>9ADF1542-71AA-4665-A36C-5A791D9866D2</title>
    <desc>Created with sketchtool.</desc>
    <g id="Page-2" stroke="none" stroke-width="1" fill="none" fill-rule="evenodd">
        <g id="Icon-切圖" transform="translate(-56.000000, -4854.000000)">
            <g id="Nav/Icon/ic_bar_chart" transform="translate(56.000000, 4854.000000)">
                <rect id="bg" fill="#D8D8D8" opacity="0" x="0" y="0" width="1024" height="1024"></rect>
                <path d="M170.666667,128 C192.547662,128 210.581639,144.471048 213.046283,165.690832 L213.333333,170.666667 L213.333333,810.666667 L853.333333,810.666667 C876.897483,810.666667 896,829.769184 896,853.333333 C896,875.214329 879.528952,893.248306 858.309168,895.71295 L853.333333,896 L170.666667,896 C147.102417,896 128,876.897483 128,853.333333 L128,170.666667 C128,147.102417 147.102417,128 170.666667,128 Z M384,469.333333 C405.880996,469.333333 423.914972,485.804381 426.379617,507.024165 L426.666667,512 L426.666667,682.666667 C426.666667,706.230816 407.564149,725.333333 384,725.333333 C362.119004,725.333333 344.085028,708.862285 341.620383,687.642501 L341.333333,682.666667 L341.333333,512 C341.333333,488.435851 360.435851,469.333333 384,469.333333 Z M597.333333,170.666667 C619.214329,170.666667 637.248306,187.137715 639.71295,208.357499 L640,213.333333 L640,682.666667 C640,706.230816 620.897483,725.333333 597.333333,725.333333 C575.452338,725.333333 557.418361,708.862285 554.953717,687.642501 L554.666667,682.666667 L554.666667,213.333333 C554.666667,189.769184 573.769184,170.666667 597.333333,170.666667 Z M810.666667,341.333333 C832.547662,341.333333 850.581639,357.804381 853.046283,379.024165 L853.333333,384 L853.333333,682.666667 C853.333333,706.230816 834.230816,725.333333 810.666667,725.333333 C788.785671,725.333333 770.751694,708.862285 768.28705,687.642501 L768,682.666667 L768,384 C768,360.435851 787.102417,341.333333 810.666667,341.333333 Z" id="Shape" fill="#707E90"></path>
            </g>
        </g>
    </g>
</svg>
