<?xml version="1.0" encoding="UTF-8"?>
<svg width="1024px" height="1024px" viewBox="0 0 1024 1024" version="1.1" xmlns="http://www.w3.org/2000/svg" xmlns:xlink="http://www.w3.org/1999/xlink">
    <!-- Generator: sketchtool 61.2 (101010) - https://sketch.com -->
    <title>3193FD92-8C6B-4D72-9D70-E867065A8557</title>
    <desc>Created with sketchtool.</desc>
    <g id="Page-2" stroke="none" stroke-width="1" fill="none" fill-rule="evenodd">
        <g id="Icon-切圖" transform="translate(-96.000000, -14878.000000)">
            <g id="Nav/Icon/ic_billing" transform="translate(96.000000, 14878.000000)">
                <rect id="bg" fill="#D8D8D8" opacity="0" x="0" y="0" width="1024" height="1024"></rect>
                <path d="M768,85.3333333 C838.692448,85.3333333 896,142.640885 896,213.333333 L896,640 L723.541333,640 L722.374997,918.858665 C722.324276,929.812721 713.430363,938.666667 702.47619,938.666667 L693.56403,938.666667 C686.413885,938.666667 679.378393,936.869753 673.103969,933.441024 L585.142857,885.373707 L515.910699,925.72856 C502.255362,933.688144 485.318624,933.446654 471.895773,925.10098 L425.142857,896.032299 L357.343098,927.648235 C342.837428,934.412423 325.766165,932.489475 313.128764,922.667826 L265.142857,885.373707 L182.101095,933.009741 C175.639511,936.716362 168.320082,938.666667 160.870846,938.666667 L150.119816,938.666667 C137.903379,938.666667 128,928.763288 128,916.546851 L128,171.312642 C128,124.184343 166.205035,85.9793086 213.333333,85.9793086 L643.620531,85.9793086 L768,85.3333333 Z M640.981333,171.306667 L213.333333,171.306667 L213.333333,816.725333 L222.682358,811.354224 C250.566851,795.358578 284.859321,796.478591 311.501694,813.729542 L317.507735,817.996431 L344.917333,839.253333 L389.079067,818.694204 C413.028827,807.526111 440.663305,808.13461 463.959954,820.038081 L470.200008,823.564162 L495.104,839.04 L542.170155,811.650409 C565.847938,797.848825 594.563949,796.329312 619.394152,807.215133 L626.062978,810.491656 L637.482667,816.725333 L640,192 L640.21342,181.878727 L640.981333,171.306667 Z M426.666667,213.333333 C450.230816,213.333333 469.333333,232.435851 469.333333,256 C469.333333,258.413017 469.133021,260.779248 468.748118,263.082972 C518.743203,280.450146 554.666667,328.029885 554.666667,384 C554.666667,407.564149 535.564149,426.666667 512,426.666667 C490.119004,426.666667 472.085028,410.195619 469.620383,388.975835 L469.333333,384 C469.333333,360.435851 450.230816,341.333333 426.666667,341.333333 C403.102417,341.333333 384,360.435851 384,384 C384,404.48408 423.246684,448.815543 460.191149,470.123734 L469.973333,475.392 L473.202084,477.563421 L475.821488,479.639193 L475.821488,479.639193 L479.685427,483.26826 L483.919064,486.856277 C486.658151,489.063751 498.466312,498.044955 500.337347,499.506324 C535.720823,527.142537 554.666667,554.508757 554.666667,597.333333 C554.666667,653.303448 518.743203,700.883188 468.695353,718.273476 C469.133021,720.554086 469.333333,722.920317 469.333333,725.333333 C469.333333,748.897483 450.230816,768 426.666667,768 C403.102417,768 384,748.897483 384,725.333333 C384,722.920317 384.200312,720.554086 384.585216,718.250361 C334.590131,700.883188 298.666667,653.303448 298.666667,597.333333 C298.666667,573.769184 317.769184,554.666667 341.333333,554.666667 C363.214329,554.666667 381.248306,571.137715 383.71295,592.357499 L384,597.333333 C384,620.897483 403.102417,640 426.666667,640 C450.230816,640 469.333333,620.897483 469.333333,597.333333 C469.333333,587.916713 465.555569,581.413651 452.958116,570.901251 L447.810801,566.757642 C446.787806,565.958633 434.232809,556.409391 430.372422,553.298244 L423.074013,547.124024 L423.074013,547.124024 L413.434278,541.673425 C354.257378,506.395116 298.666667,440.767443 298.666667,384 C298.666667,328.029885 334.590131,280.450146 384.637981,263.059858 C384.200312,260.779248 384,258.413017 384,256 C384,232.435851 403.102417,213.333333 426.666667,213.333333 Z M768,170.666667 C746.119004,170.666667 728.085028,187.137715 725.620383,208.357499 L725.418667,211.029333 L725.290667,242.602667 L725.333333,554.666667 L810.666667,554.666667 L810.666667,213.333333 C810.666667,191.452338 794.195619,173.418361 772.975835,170.953717 L768,170.666667 Z" id="Shape" fill="#707E90"></path>
            </g>
        </g>
    </g>
</svg>
