<?xml version="1.0" encoding="UTF-8"?>
<svg width="1024px" height="1024px" viewBox="0 0 1024 1024" version="1.1" xmlns="http://www.w3.org/2000/svg" xmlns:xlink="http://www.w3.org/1999/xlink">
    <title>2693A5C9-4573-40BF-9462-70243E640F1F</title>
    <g id="頁面設計" stroke="none" stroke-width="1" fill="none" fill-rule="evenodd">
        <g id="slice" transform="translate(0.000000, -80.000000)" fill="#000000" fill-rule="nonzero">
            <g id="ic_book" transform="translate(0.000000, 80.000000)">
                <rect id="Rectangle" opacity="0" x="0" y="0" width="1024" height="1024"></rect>
                <path d="M833.976198,750.807615 L830.057387,750.807615 L830.057387,750.807615 L283.919224,750.807615 C259.618695,750.807615 239.919224,770.507086 239.919224,794.807615 C239.919224,819.108144 259.618695,838.807615 283.919224,838.807615 L840.165187,838.807615 L840.165187,838.807615 C853.328791,838.807615 864,849.478824 864,862.642428 L864,867.702952 L864,867.702952 L864,903.242663 C864,914.784468 854.643519,924.140949 843.101714,924.140949 L841.1774,924.140949 L841.1774,924.140949 L288,924.140949 C217.307552,924.140949 160,866.833397 160,796.140949 L160,163 C160,127.653776 188.653776,99 224,99 L838.976067,99 L838.976067,99 C852.796404,99 864,110.203596 864,124.023933 L864,131.327096 L864,131.327096 L864,720.783813 C864,737.365501 850.557886,750.807615 833.976198,750.807615 Z M662.603555,359.988451 L662.603555,274.655118 L361.396445,274.655118 L361.396445,359.988451 L662.603555,359.988451 Z" id="Shape"></path>
            </g>
        </g>
    </g>
</svg>