<?xml version="1.0" encoding="UTF-8"?>
<svg width="16px" height="16px" viewBox="0 0 16 16" version="1.1" xmlns="http://www.w3.org/2000/svg" xmlns:xlink="http://www.w3.org/1999/xlink">
    <title>5C34E5B8-863F-4FE6-BED2-F5B8CF13D6EB</title>
    <g id="重構/購物車" stroke="none" stroke-width="1" fill="none" fill-rule="evenodd">
        <g id="desktop_購物車" transform="translate(-966.000000, -829.000000)">
            <g id="Group" transform="translate(92.000000, 45.000000)">
                <g id="購物車/_Resources/Icon/Delete" transform="translate(874.000000, 784.000000)">
                    <path d="M12.5022015,4.94745162 C12.5311099,4.67283781 12.7771511,4.47366086 13.0517649,4.50255327 C13.3263787,4.53146167 13.5255557,4.77750284 13.4966633,5.05211667 L12.5909413,13.656395 C12.5105798,14.4197814 11.8668563,14.9993085 11.0992647,14.9993085 L4.90007575,14.9993085 C4.13246819,14.9993085 3.48874463,14.4197814 3.40838311,13.656395 L2.50267719,5.05213266 C2.47376878,4.77751884 2.67296173,4.53147766 2.94755955,4.50256927 C3.22217336,4.47366086 3.46821455,4.67285381 3.49712295,4.94746761 L4.40282888,13.5517299 C4.42961072,13.8061974 4.64418523,13.9993624 4.90005975,13.9993624 L11.0992327,13.9993624 C11.3551072,13.9993624 11.5696818,13.8061814 11.5964636,13.5517299 L12.5022015,4.94745162 Z M9.49943737,6.49972719 C9.77557016,6.49972719 9.99941839,6.72357542 9.99941839,6.9997082 L9.99941839,10.4995433 C9.99941839,10.7756761 9.77557016,10.9995243 9.49943737,10.9995243 C9.22330459,10.9995243 8.99945636,10.7756761 8.99945636,10.4995433 L8.99945636,6.9996922 C8.99945636,6.72357541 9.22330459,6.49972719 9.49943737,6.49972719 Z M6.49958328,6.49972719 C6.77571606,6.49972719 6.9995643,6.72357542 6.9995643,6.9997082 L6.9995643,10.4995433 C6.9995643,10.7756761 6.77571606,10.9995243 6.49958328,10.9995243 C6.2234505,10.9995243 5.99960227,10.7756761 5.99960227,10.4995433 L5.99960227,6.9996922 C5.99960227,6.72357541 6.2234505,6.49972719 6.49958328,6.49972719 Z M5.99960227,2.99989208 L9.99940241,2.99989208 L9.99940241,2.24992055 C9.99940241,2.11185416 9.8874783,1.99993005 9.74941189,1.99993005 L6.24959277,1.99993005 C6.11152638,1.99993005 5.99960227,2.11185416 5.99960227,2.24992055 L5.99960227,2.99989208 Z M4.99965623,2.99989208 L4.99965623,1.99994603 C4.99965623,1.44768047 5.4473527,1 5.99961825,1 L9.99941839,1 C10.551668,1 10.9993644,1.44769647 10.9993644,1.99994603 L10.9993644,2.99989208 L14.4993594,2.99989208 C14.7754922,2.99989208 14.9993404,3.22374031 14.9993404,3.49987309 C14.9993404,3.77600587 14.7754922,3.99985409 14.4993594,3.99985409 L1.49998102,3.99985409 C1.22384823,3.99985409 1,3.77600586 1,3.49987309 C1,3.22374033 1.22384823,2.99989208 1.49998102,2.99989208 L4.99965623,2.99989208 Z" id="path-1"></path>
                </g>
            </g>
        </g>
    </g>
</svg>
