<?xml version="1.0" encoding="UTF-8"?>
<svg width="1024px" height="1024px" viewBox="0 0 1024 1024" version="1.1" xmlns="http://www.w3.org/2000/svg" xmlns:xlink="http://www.w3.org/1999/xlink">
    <!-- Generator: sketchtool 61.2 (101010) - https://sketch.com -->
    <title>D07AB779-F257-44BE-9E19-38618E9F6C25</title>
    <desc>Created with sketchtool.</desc>
    <g id="確定檔案" stroke="none" stroke-width="1" fill="none" fill-rule="evenodd">
        <g id="slice" transform="translate(-32.000000, -4109.000000)" fill="#000000">
            <g id="Group-14" transform="translate(32.000000, 4109.000000)">
                <path d="M512,112 C291.107143,112 112,291.107143 112,512 C112,732.892857 291.107143,912 512,912 C732.892857,912 912,732.892857 912,512 C912,291.107143 732.892857,112 512,112 Z M512,844.142857 C328.607143,844.142857 179.857143,695.392857 179.857143,512 C179.857143,328.607143 328.607143,179.857143 512,179.857143 C695.392857,179.857143 844.142857,328.607143 844.142857,512 C844.142857,695.392857 695.392857,844.142857 512,844.142857 Z M554.589286,491.285714 L531.910714,486.017857 L531.910714,366.107143 C565.839286,370.75 586.821429,392 590.392857,418.071429 C590.839286,421.642857 593.875,424.232143 597.446429,424.232143 L637.535714,424.232143 C641.732143,424.232143 645.035714,420.571429 644.678571,416.375 C639.232143,360.75 593.428571,325.035714 532.267857,318.875 L532.267857,289.678571 C532.267857,285.75 529.053571,282.535714 525.125,282.535714 L500.035714,282.535714 C496.107143,282.535714 492.892857,285.75 492.892857,289.678571 L492.892857,319.142857 C429.678571,325.303571 380.214286,360.214286 380.214286,425.392857 C380.214286,485.75 424.678571,514.857143 471.375,526.017857 L493.428571,531.642857 L493.428571,659.053571 C453.964286,653.785714 431.821429,632.714286 427.267857,604.321429 C426.732143,600.928571 423.696429,598.428571 420.214286,598.428571 L378.964286,598.428571 C374.767857,598.428571 371.464286,602 371.821429,606.196429 C375.839286,655.303571 413.071429,700.482143 492.535714,706.285714 L492.535714,734.321429 C492.535714,738.25 495.75,741.464286 499.678571,741.464286 L525.035714,741.464286 C528.964286,741.464286 532.178571,738.25 532.178571,734.232143 L532,705.928571 C601.910714,699.767857 651.910714,662.357143 651.910714,595.214286 C651.821429,533.25 612.446429,505.571429 554.589286,491.285714 Z M493.339286,476.821429 C488.339286,475.392857 484.142857,474.053571 479.946429,472.357143 C449.767857,461.464286 435.75,443.875 435.75,421.196429 C435.75,388.785714 460.303571,370.303571 493.339286,366.107143 L493.339286,476.821429 Z M531.910714,659.321429 L531.910714,539.946429 C534.678571,540.75 537.178571,541.375 539.767857,541.910714 C582,554.767857 596.196429,572.625 596.196429,600.035714 C596.196429,634.946429 569.946429,655.928571 531.910714,659.321429 Z" id="Shape"></path>
            </g>
        </g>
    </g>
</svg>