<?xml version="1.0" encoding="UTF-8"?>
<svg width="1024px" height="1024px" viewBox="0 0 1024 1024" version="1.1" xmlns="http://www.w3.org/2000/svg" xmlns:xlink="http://www.w3.org/1999/xlink">
    <title>AF22A65A-1F66-4C36-A8A2-5296F589B381</title>
    <g id="後台設定" stroke="none" stroke-width="1" fill="none" fill-rule="evenodd">
        <g id="ic_change-product">
            <rect id="bg" fill-opacity="0" fill="#FFFFFF" x="64" y="64" width="896" height="896"></rect>
            <path d="M887.385115,317.358404 L894.780915,331.546503 C985.270579,505.141847 939.756941,720.530017 783.805067,842.372975 C639.684289,954.972467 441.239142,956.545752 296.556389,854.399938 L307.604719,904.425463 C308.556955,908.73989 305.831416,913.009394 301.517013,913.961737 L262.457191,922.58324 C258.142762,923.535545 253.873231,920.810005 252.920926,916.495576 L219.46514,764.923728 C217.560531,756.29487 223.01161,747.755808 231.640468,745.851198 C232.449318,745.672664 233.270811,745.557211 234.097539,745.50588 L389.019414,735.886782 C393.4292,735.612978 397.226,738.965854 397.499803,743.37564 L399.97863,783.298759 C400.252377,787.708527 396.899534,791.505316 392.489774,791.779202 L325.048019,795.974914 C447.668275,888.234618 620.042389,889.101236 744.402732,791.940287 C874.607521,690.213157 913.540908,511.109809 840.282823,365.530809 L838.028519,361.1297 L830.632719,346.941601 C826.548132,339.10573 829.589148,329.44229 837.425019,325.357703 L865.801217,310.566104 C873.637088,306.481517 883.300528,309.522533 887.385115,317.358404 Z M525.808067,308.119928 L526.275449,308.348901 L690.27333,390.348887 C700.978826,395.701704 707.790525,406.573712 707.962349,418.516457 L707.962349,418.970484 L707.962349,624.026227 C707.962349,635.995424 701.284405,646.950179 690.677848,652.441982 L690.273184,652.647897 L526.273184,734.647897 C517.41963,739.074674 507.025572,739.150998 498.118897,734.876868 L497.651514,734.647897 L333.651514,652.647897 C322.945939,647.295109 316.134175,636.423059 315.962349,624.480256 L315.962349,624.026227 L315.962349,418.970513 C315.962349,407.001257 322.640357,396.046459 333.246993,390.554683 L333.65166,390.348769 L497.653779,308.348755 C506.352029,303.999685 516.537184,303.849768 525.337939,307.898988 L525.808067,308.119928 Z M724.025183,167.572721 L712.32,114.571257 C711.36773,110.256829 714.09327,105.987312 718.407685,105.034988 L757.467507,96.4134852 C761.781936,95.4611804 766.051467,98.1867204 767.003772,102.501149 L794.5417,227.266989 L795.336531,228.010025 L794.826132,228.55363 L800.459558,254.072997 C802.364168,262.701855 796.913088,271.240917 788.28423,273.145527 C787.47538,273.324061 786.653887,273.439514 785.82716,273.490845 L630.905284,283.109943 C626.495498,283.383747 622.698698,280.030871 622.424895,275.621085 L619.946069,235.697966 C619.672308,231.288194 623.025159,227.491403 627.434925,227.217535 L691.911726,223.20642 C569.877593,136.770075 402.212577,137.981313 280.521966,233.056438 C150.317177,334.783568 111.38379,513.886917 184.641875,659.465916 L186.896179,663.867025 L194.291979,678.055124 C198.376566,685.890995 195.33555,695.554435 187.499679,699.639022 L159.123481,714.430621 C151.28761,718.515208 141.62417,715.474192 137.539583,707.638321 L130.143783,693.450222 C39.6541189,519.854878 85.1677572,304.466708 241.119632,182.62375 C383.80361,71.1468079 579.734195,68.4933775 724.025183,167.572721 Z M371.962349,461.802411 L371.962349,609.194363 L484.462349,665.442411 L484.462349,518.052411 L371.962349,461.802411 Z M651.962349,461.802411 L540.462349,517.552411 L540.462349,664.942411 L651.962349,609.193363 L651.962349,461.802411 Z M511.964349,363.802363 L406.572349,416.497411 L511.962349,469.193363 L617.353349,416.496411 L511.964349,363.802363 Z" id="Shape" fill="#000000" fill-rule="nonzero"></path>
        </g>
    </g>
</svg>