<?xml version="1.0" encoding="UTF-8"?>
<svg width="24px" height="24px" viewBox="0 0 24 24" version="1.1" xmlns="http://www.w3.org/2000/svg" xmlns:xlink="http://www.w3.org/1999/xlink">
    <title>A5553C8A-561B-49B7-9B32-ACE31CA00012</title>
    <g id="試用期倒數提示" stroke="none" stroke-width="1" fill="none" fill-rule="evenodd">
        <g id="ic_dashboard_fill" transform="translate(-1110.000000, -927.000000)">
            <g transform="translate(1110.000000, 927.000000)">
                <rect id="Rectangle" fill="#000000" fill-rule="nonzero" opacity="0" x="0" y="0" width="24" height="24"></rect>
                <path d="M21.675,9.0375 C21.1453125,7.7859375 20.3882812,6.66328125 19.425,5.7 C18.4617187,4.73671875 17.3390625,3.9796875 16.0875,3.45 C14.7914063,2.9015625 13.4179688,2.625 12,2.625 C10.5820312,2.625 9.20859375,2.9015625 7.9125,3.45 C6.6609375,3.9796875 5.53828125,4.73671875 4.575,5.7 C3.61171875,6.66328125 2.8546875,7.7859375 2.325,9.0375 C1.7765625,10.3335937 1.5,11.7070312 1.5,13.125 C1.5,16.2351563 2.86640625,19.1648437 5.24765625,21.1664063 L5.2875,21.1992188 C5.4234375,21.3117188 5.59453125,21.375 5.7703125,21.375 L18.2320313,21.375 C18.4078125,21.375 18.5789063,21.3117188 18.7148438,21.1992188 L18.7546875,21.1664063 C21.1335938,19.1648437 22.5,16.2351563 22.5,13.125 C22.5,11.7070312 22.2210937,10.3335937 21.675,9.0375 Z M11.296875,5.4375 C11.296875,5.334375 11.38125,5.25 11.484375,5.25 L12.515625,5.25 C12.61875,5.25 12.703125,5.334375 12.703125,5.4375 L12.703125,7.3125 C12.703125,7.415625 12.61875,7.5 12.515625,7.5 L11.484375,7.5 C11.38125,7.5 11.296875,7.415625 11.296875,7.3125 L11.296875,5.4375 Z M6.328125,13.640625 C6.328125,13.74375 6.24375,13.828125 6.140625,13.828125 L4.265625,13.828125 C4.1625,13.828125 4.078125,13.74375 4.078125,13.640625 L4.078125,12.609375 C4.078125,12.50625 4.1625,12.421875 4.265625,12.421875 L6.140625,12.421875 C6.24375,12.421875 6.328125,12.50625 6.328125,12.609375 L6.328125,13.640625 Z M8.45390625,8.84765625 L7.725,9.5765625 C7.65234375,9.64921875 7.5328125,9.64921875 7.46015625,9.5765625 L6.13359375,8.25 C6.0609375,8.17734375 6.0609375,8.0578125 6.13359375,7.98515625 L6.8625,7.25625 C6.93515625,7.18359375 7.0546875,7.18359375 7.12734375,7.25625 L8.45390625,8.5828125 C8.5265625,8.65546875 8.5265625,8.775 8.45390625,8.84765625 L8.45390625,8.84765625 Z M15.2765625,10.8070313 L13.2960938,12.7875 C13.4132813,13.2257813 13.3007813,13.7109375 12.95625,14.0554688 C12.4429688,14.56875 11.6132812,14.56875 11.1,14.0554688 C10.5867188,13.5421875 10.5867188,12.7125 11.1,12.1992188 C11.4445313,11.8546875 11.9296875,11.7421875 12.3679688,11.859375 L14.3484375,9.87890625 C14.4210938,9.80625 14.540625,9.80625 14.6132812,9.87890625 L15.2765625,10.5421875 C15.3492187,10.6148438 15.3492187,10.7320313 15.2765625,10.8070313 L15.2765625,10.8070313 Z M16.284375,9.57890625 L15.5554688,8.85 C15.4828125,8.77734375 15.4828125,8.6578125 15.5554688,8.58515625 L16.8820313,7.25859375 C16.9546875,7.1859375 17.0742188,7.1859375 17.146875,7.25859375 L17.8757813,7.9875 C17.9484375,8.06015625 17.9484375,8.1796875 17.8757813,8.25234375 L16.5492188,9.57890625 C16.4765625,9.6515625 16.3570312,9.6515625 16.284375,9.57890625 Z M19.828125,13.640625 C19.828125,13.74375 19.74375,13.828125 19.640625,13.828125 L17.765625,13.828125 C17.6625,13.828125 17.578125,13.74375 17.578125,13.640625 L17.578125,12.609375 C17.578125,12.50625 17.6625,12.421875 17.765625,12.421875 L19.640625,12.421875 C19.74375,12.421875 19.828125,12.50625 19.828125,12.609375 L19.828125,13.640625 Z" id="Shape" fill="#000000" fill-rule="nonzero"></path>
            </g>
        </g>
    </g>
</svg>