<?xml version="1.0" encoding="UTF-8"?>
<svg width="1024px" height="1024px" viewBox="0 0 1024 1024" version="1.1" xmlns="http://www.w3.org/2000/svg" xmlns:xlink="http://www.w3.org/1999/xlink">
    <!-- Generator: sketchtool 61.2 (101010) - https://sketch.com -->
    <title>C0D2A030-58F0-4CDA-BF77-FFEC74CB140C</title>
    <desc>Created with sketchtool.</desc>
    <g id="dnd_component" stroke="none" stroke-width="1" fill="none" fill-rule="evenodd">
        <g id="slice" transform="translate(-62.000000, -702.000000)" fill="#000000">
            <g id="Group-8" transform="translate(62.000000, 661.000000)">
                <g id="Group-7-Copy-5">
                    <g id="Group-3" transform="translate(0.000000, 41.000000)">
                        <g id="Icon/新增頁面區塊/normal-page-Icon/預設Icon/預設商品版型">
                            <path d="M880,112 C897.673112,112 912,126.326888 912,144 L912,880 C912,897.673112 897.673112,912 880,912 L144,912 C126.326888,912 112,897.673112 112,880 L112,144 C112,126.326888 126.326888,112 144,112 L880,112 Z M840,432 L184,432 L184,840 L410,840 L410,432 L474,432 L474,840 L840,840 L840,670.998 L474,670.095854 L474.081507,606 L840,606.902 L840,432 Z M840,184 L184,184 L184,368 L840,368 L840,184 Z" id="Line-Copy"></path>
                        </g>
                    </g>
                </g>
            </g>
        </g>
    </g>
</svg>