<?xml version="1.0" encoding="UTF-8"?>
<svg width="25px" height="24px" viewBox="0 0 25 24" version="1.1" xmlns="http://www.w3.org/2000/svg" xmlns:xlink="http://www.w3.org/1999/xlink">
    <!-- Generator: sketchtool 61.2 (101010) - https://sketch.com -->
    <title>1C0080D4-88A8-44E4-9AF6-EE4A1C3198FE</title>
    <desc>Created with sketchtool.</desc>
    <g id="Page-2" stroke="none" stroke-width="1" fill="none" fill-rule="evenodd">
        <g id="Icon-切圖" transform="translate(-556.000000, -133.000000)">
            <g id="Nav/Icon/ic_double-right" transform="translate(556.000000, 133.000000)">
                <path d="M6.60341977,3.75 C6.6756892,3.75 6.74391722,3.78334023 6.78832547,3.84035583 L12.3705294,11.0073278 C12.8782726,11.6590473 12.8757253,12.5841666 12.3674538,13.2325645 L12.3518968,13.2521277 L6.98273917,20.1587854 C6.93803461,20.2162915 6.8691348,20.2497446 6.79629763,20.2493088 L3.46765277,20.2293937 C3.33821335,20.2286193 3.23390976,20.1230601 3.23468419,19.9936207 C3.2349867,19.9430591 3.25163217,19.893951 3.28213611,19.8536264 L9.16997093,12.0702128 L3.43888574,4.12144699 C3.36318296,4.01645054 3.38693018,3.86996488 3.49192663,3.79426211 C3.53183842,3.76548559 3.57979456,3.75 3.62899862,3.75 L6.60341977,3.75 Z M14.8534198,3.75 C14.9256892,3.75 14.9939172,3.78334023 15.0383255,3.84035583 L20.6205294,11.0073278 C21.1282726,11.6590473 21.1257253,12.5841666 20.6174538,13.2325645 L20.6018968,13.2521277 L15.2327392,20.1587854 C15.1880346,20.2162915 15.1191348,20.2497446 15.0462976,20.2493088 L11.7176528,20.2293937 C11.5882133,20.2286193 11.4839098,20.1230601 11.4846842,19.9936207 C11.4849867,19.9430591 11.5016322,19.893951 11.5321361,19.8536264 L17.4199709,12.0702128 L11.6888857,4.12144699 C11.613183,4.01645054 11.6369302,3.86996488 11.7419266,3.79426211 C11.7818384,3.76548559 11.8297946,3.75 11.8789986,3.75 L14.8534198,3.75 Z" id="Combined-Shape" fill="#ECF4F9"></path>
            </g>
        </g>
    </g>
</svg>
