<svg width="1024" height="1024" viewBox="0 0 1024 1024" fill="none" xmlns="http://www.w3.org/2000/svg">
<path fill-rule="evenodd" clip-rule="evenodd" d="M563.208 268.802C563.208 301.203 589.474 327.469 621.875 327.469C654.275 327.469 680.541 301.203 680.541 268.802C680.541 236.401 654.275 210.135 621.875 210.135C589.474 210.135 563.208 236.401 563.208 268.802ZM621.875 570.667C589.474 570.667 563.208 544.401 563.208 512C563.208 479.599 589.474 453.333 621.875 453.333C654.275 453.333 680.541 479.599 680.541 512C680.541 544.401 654.275 570.667 621.875 570.667ZM621.875 816C589.474 816 563.208 789.734 563.208 757.333C563.208 724.932 589.474 698.667 621.875 698.667C654.275 698.667 680.541 724.932 680.541 757.333C680.541 789.734 654.275 816 621.875 816ZM400 327.469C367.599 327.469 341.333 301.203 341.333 268.802C341.333 236.401 367.599 210.135 400 210.135C432.401 210.135 458.667 236.401 458.667 268.802C458.667 301.203 432.401 327.469 400 327.469ZM341.333 512C341.333 544.401 367.599 570.667 400 570.667C432.4 570.667 458.666 544.401 458.666 512C458.666 479.599 432.4 453.333 400 453.333C367.599 453.333 341.333 479.599 341.333 512ZM400 813.864C367.599 813.864 341.333 787.598 341.333 755.198C341.333 722.797 367.599 696.531 400 696.531C432.4 696.531 458.666 722.797 458.666 755.198C458.666 787.598 432.4 813.864 400 813.864Z" fill="black"/>
</svg>
