<?xml version="1.0" encoding="UTF-8"?>
<svg width="1024px" height="1024px" viewBox="0 0 1024 1024" version="1.1" xmlns="http://www.w3.org/2000/svg" xmlns:xlink="http://www.w3.org/1999/xlink">
    <title>387BD52C-B87B-4493-A04C-D9AC9D5D9E9A</title>
    <g id="重構/結帳頁" stroke="none" stroke-width="1" fill="none" fill-rule="evenodd">
        <g id="Slice" transform="translate(0.000000, -107.000000)">
            <g id="ic_error_multi" transform="translate(0.000000, 107.000000)">
                <g id="Shape" transform="translate(63.000000, 64.000000)">
                    <path d="M447.998928,0 C200.975057,0 0,200.975648 0,448 C0,695.026495 200.976129,896 447.998928,896 C695.021728,896 896,695.026495 896,448 C896,200.975648 695.023871,0 447.998928,0 Z" id="Path" fill="#DB5656" fill-rule="nonzero"></path>
                    <path d="M448,559.999196 C478.926445,559.999196 504,585.072932 504,615.996383 C504,646.925193 478.926445,672 448,672 C417.074627,672 392,646.926265 392,615.996383 C392,585.072932 417.073555,559.999196 448,559.999196 Z M448,224 C478.926445,224 504,249.073735 504,280.000402 L504,447.996249 C504,478.921845 478.926445,503.996651 448,503.996651 C417.073555,503.996651 392,478.922916 392,447.996249 L392,280.000402 C392,249.074807 417.073555,224 448,224 Z" id="Combined-Shape" fill="#FFFFFF"></path>
                </g>
            </g>
        </g>
    </g>
</svg>
