<?xml version="1.0" encoding="UTF-8"?>
<svg width="1024px" height="1024px" viewBox="0 0 1024 1024" version="1.1" xmlns="http://www.w3.org/2000/svg" xmlns:xlink="http://www.w3.org/1999/xlink">
    <title>ic_export_outlines</title>
    <g id="icon-重構切圖" stroke="none" stroke-width="1" fill="none" fill-rule="evenodd">
        <g id="ic_export_outlines">
            <g>
                <rect id="Rectangle" fill="#000000" opacity="0" x="64" y="64" width="896" height="896"></rect>
                <path d="M811.775,316.525 L623.475,128.225 C618.225,122.975 611.1375,120 603.7,120 L232,120 C216.5125,120 204,132.5125 204,148 L204,876 C204,891.4875 216.5125,904 232,904 L792,904 C807.4875,904 820,891.4875 820,876 L820,336.3875 C820,328.95 817.025,321.775 811.775,316.525 Z M755.425,349.25 L590.75,349.25 L590.75,184.575 L755.425,349.25 Z M757,841 L267,841 L267,183 L531.25,183 L531.25,372 C531.25,392.3 547.7,408.75 568,408.75 L757,408.75 L757,841 Z M513.8375,571.5875 L459.7625,481.9875 C457.8375,478.8375 454.425,476.9125 450.75,476.9125 L417.15,476.9125 C415.1375,476.9125 413.2125,477.4375 411.55,478.575 C406.65,481.6375 405.1625,488.1125 408.3125,493.1 L480.325,607.2 L407.35,723.4 C406.3,725.0625 405.775,726.9875 405.775,729 C405.775,734.775 410.5,739.5 416.275,739.5 L446.4625,739.5 C450.1375,739.5 453.4625,737.575 455.3875,734.5125 L510.25,645.7 L564.7625,734.425 C566.6875,737.575 570.1,739.4125 573.6875,739.4125 L606.5,739.4125 C608.5125,739.4125 610.4375,738.8 612.1875,737.75 C617.0875,734.6 618.4875,728.125 615.3375,723.225 L541.8375,609.125 L616.475,493.1875 C617.525,491.525 618.1375,489.5125 618.1375,487.5 C618.1375,481.725 613.4125,477 607.6375,477 L576.4,477 C572.725,477 569.3125,478.925 567.3875,482.075 L513.8375,571.5875 L513.8375,571.5875 Z" id="Shape" fill="#6F727D" fill-rule="nonzero"></path>
            </g>
        </g>
    </g>
</svg>