<?xml version="1.0" encoding="UTF-8"?>
<svg width="1024px" height="1024px" viewBox="0 0 1024 1024" version="1.1" xmlns="http://www.w3.org/2000/svg" xmlns:xlink="http://www.w3.org/1999/xlink">
    <title>AAA65A7E-7E39-4E1F-91EF-7F6FF5E5CEA8</title>
    <g id="重構/結帳頁" stroke="none" stroke-width="1" fill="none" fill-rule="evenodd">
        <g id="ic_fb-login">
            <rect id="bg" fill-opacity="0" fill="#FFFFFF" x="0" y="0" width="1024" height="1024"></rect>
            <path d="M512.002672,64 C264.580185,64 64,264.519553 64,511.867249 C64,733.709234 225.513757,917.431561 437.28479,953.008128 L437.28479,605.304488 L329.213478,605.304488 L329.213478,480.180116 L437.28479,480.180116 L437.28479,387.918255 C437.28479,280.867998 502.687654,222.531831 598.226713,222.531831 C643.984134,222.531831 683.307085,225.940428 694.722392,227.441707 L694.722392,339.33773 L628.459104,339.369785 C576.513047,339.369785 566.497933,364.042046 566.497933,400.259728 L566.497933,480.116005 L690.446996,480.116005 L674.280656,605.240376 L566.497933,605.240376 L566.497933,956 C788.155818,929.030409 960,740.627939 960,511.739026 C960,264.519553 759.419815,64 512.002672,64 Z" id="Shape" fill="#010002" fill-rule="nonzero"></path>
        </g>
    </g>
</svg>