<svg width="1024" height="1024" viewBox="0 0 1024 1024" fill="none" xmlns="http://www.w3.org/2000/svg">
<path fill-rule="evenodd" clip-rule="evenodd" d="M320 515.201C393.032 530.025 448 594.593 448 672C448 749.407 393.032 813.975 320 828.799V928H256V828.799C182.968 813.975 128 749.407 128 672C128 594.593 182.968 530.025 256 515.201V96H320V515.201ZM384 672C384 725.019 341.019 768 288 768C234.981 768 192 725.019 192 672C192 618.981 234.981 576 288 576C341.019 576 384 618.981 384 672Z" fill="black"/>
<path fill-rule="evenodd" clip-rule="evenodd" d="M704 508.799V928H768V508.799C841.032 493.975 896 429.407 896 352C896 274.593 841.032 210.025 768 195.201V96H704V195.201C630.968 210.025 576 274.593 576 352C576 429.407 630.968 493.975 704 508.799ZM832 352C832 405.019 789.019 448 736 448C682.981 448 640 405.019 640 352C640 298.981 682.981 256 736 256C789.019 256 832 298.981 832 352Z" fill="black"/>
</svg>
