<?xml version="1.0" encoding="UTF-8"?>
<svg width="1024px" height="1024px" viewBox="0 0 1024 1024" version="1.1" xmlns="http://www.w3.org/2000/svg" xmlns:xlink="http://www.w3.org/1999/xlink">
    <!-- Generator: sketchtool 61.2 (101010) - https://sketch.com -->
    <title>74E7D935-8546-4F29-AAB1-878BF09A856C</title>
    <desc>Created with sketchtool.</desc>
    <g id="Page-2" stroke="none" stroke-width="1" fill="none" fill-rule="evenodd">
        <g id="Icon-切圖" transform="translate(-96.000000, -15982.000000)">
            <g id="Nav/Icon/ic_forward_store" transform="translate(96.000000, 15982.000000)">
                <rect id="bg" fill="#D8D8D8" opacity="0" x="0" y="0" width="1024" height="1024"></rect>
                <path d="M774.737473,85.3333333 C788.216941,85.3333333 800.802452,91.6500128 808.836949,102.199959 L811.629414,106.350553 L925.116661,298.42245 C925.249924,298.647992 925.380869,298.874255 925.509503,299.101212 L925.116661,298.42245 C960.728895,358.694503 922.071186,406.666791 856.590422,421.777519 L856.587666,820.148148 C856.587666,883.036252 807.849366,934.708472 746.040492,938.449778 L738.852723,938.666667 L385.647894,938.666667 C362.00309,938.666667 342.835188,919.564149 342.835188,896 C342.835188,874.119004 359.362613,856.085028 380.655028,853.620383 L385.647894,853.333333 L738.852723,853.333333 C754.96898,853.333333 768.51969,840.974175 770.666223,824.682501 L770.962253,820.148148 L770.960917,423.674252 C742.253377,419.207796 715.370915,410.022907 693.232441,396.946945 C671.278432,415.688377 639.435466,426.762529 603.952196,426.762529 C567.881509,426.762529 534.100937,415.716593 509.43944,396.759038 C480.225936,416.02242 439.870513,426.762529 396.886878,426.762529 C355.053441,426.762529 317.285452,415.929455 291.758789,396.836083 C281.151338,403.737751 269.504739,409.606098 257.210291,414.268709 L257.209775,554.666667 C257.209775,578.230816 238.041873,597.333333 214.397069,597.333333 C192.441178,597.333333 174.345475,580.862285 171.872394,559.642501 L171.584362,554.666667 L171.582995,425.681436 C101.971456,417.246062 61.9942739,360.639495 100.04707,297.980036 L216.691431,105.908139 C223.478227,94.7326937 234.961514,87.3616921 247.761752,85.693558 L253.318345,85.3333333 L774.737473,85.3333333 Z M450.232054,490.228547 C450.232054,452.086499 496.190109,432.984892 523.06861,459.955392 L523.06861,459.955392 L651.06861,588.393512 C667.730979,605.112913 667.730979,632.22042 651.06861,648.939822 L651.06861,648.939822 L523.06861,777.377941 C496.190109,804.348442 450.232054,785.246834 450.232054,747.104786 L450.232054,747.104786 L450.230222,680.559908 C405.125397,686.007125 370.188497,698.266341 345.392369,716.8 C300.13911,750.62417 264.727336,814.283508 256.635954,863.038815 C252.777687,886.287133 230.73895,902.016544 207.411057,898.171438 C184.083165,894.326331 168.299915,872.362771 172.158183,849.114453 C183.672973,779.73111 230.063939,696.334606 294.017121,648.533333 C333.793871,618.802534 385.877401,601.108951 450.230708,594.720045 Z M596.671725,170.666667 L556.490333,170.666333 L555.262913,320.299231 C555.262696,320.339924 555.262421,320.38063 555.262089,320.421348 L555.259333,320.503333 L555.262956,320.651012 C555.579101,328.345947 574.57166,341.429196 603.952196,341.429196 C630.215811,341.429196 638.872055,334.089524 637.99697,330.698217 L637.993333,330.686333 L596.671725,170.666667 Z M470.84518,170.666667 L399.855333,170.666333 L345.556333,329.885333 L346.236667,330.213966 C354.561803,335.932839 369.599847,340.230345 388.539303,341.215364 L396.886878,341.429196 C439.981938,341.429196 469.536258,325.078936 469.637867,319.738157 C469.636448,319.734324 469.636488,319.729308 469.636529,319.724293 L469.638333,319.566333 L470.84518,170.666667 Z M309.398464,170.666667 L277.417372,170.666667 L174.612333,340.002333 L176.385677,340.387022 C178.613967,340.777002 181.348916,341.110197 184.587155,341.288996 L189.821559,341.429196 C223.833885,341.429196 257.672647,322.402133 263.149818,306.341883 L309.398464,170.666667 Z M750.240903,170.666667 L685.122776,170.666667 L720.122333,306.341333 L720.924283,309.445576 L720.924283,309.445576 C724.0673,321.626031 764.670429,341.395238 810.898414,341.429152 C811.849409,341.365251 812.808444,341.333333 813.774959,341.333333 C814.348102,341.333333 814.918615,341.344557 815.486287,341.366797 C827.95364,341.026756 838.089497,339.271106 845.13006,336.914681 L847.871333,335.864333 L750.240903,170.666667 Z" id="Combined-Shape" fill="#707E90"></path>
            </g>
        </g>
    </g>
</svg>
