<?xml version="1.0" encoding="UTF-8"?>
<svg width="24px" height="24px" viewBox="0 0 24 24" version="1.1" xmlns="http://www.w3.org/2000/svg" xmlns:xlink="http://www.w3.org/1999/xlink">
    <!-- Generator: sketchtool 61.2 (101010) - https://sketch.com -->
    <title>AC77A292-B787-4737-A33A-3B2276919AD6</title>
    <desc>Created with sketchtool.</desc>
    <g id="Page-2" stroke="none" stroke-width="1" fill="none" fill-rule="evenodd">
        <g id="Icon-切圖" transform="translate(-246.000000, -132.000000)">
            <g id="Nav/Icon/ic_hamburger" transform="translate(246.000000, 132.000000)">
                <rect id="bg" fill="#D8D8D8" opacity="0" x="0" y="0" width="24" height="24"></rect>
                <path d="M20.5968048,17.6022727 C21.6479105,17.6022727 22.5,18.2509511 22.5,19.0511364 C22.5,19.8433198 21.6648671,20.4870113 20.6282776,20.4998059 L20.5968048,20.5 L10.3406973,20.5 C9.28959161,20.5 8.43750209,19.8513217 8.43750209,19.0511364 C8.43750209,18.2589529 9.27263502,17.6152614 10.3092245,17.6024668 L10.3406973,17.6022727 L20.5968048,17.6022727 Z M3.20307324,10.5511364 L20.8014958,10.5711207 C21.7408138,10.5721874 22.5012593,11.2172568 22.5000016,12.0119235 C22.4987503,12.7986436 21.7514216,13.4370484 20.8250559,13.4487028 L20.7969299,13.4488636 L3.19850737,13.4288793 C2.25918941,13.4278126 1.49874386,12.7827432 1.50000156,11.9880765 C1.50125291,11.2013564 2.2485816,10.5629516 3.17494733,10.5512972 L3.20307324,10.5511364 Z M20.7992128,3.5 C21.7385317,3.5 22.5000031,4.14867835 22.5000031,4.94886364 C22.5000031,5.74104707 21.7536849,6.38473856 20.8273385,6.39753317 L20.7992128,6.39772727 L3.20079027,6.39772727 C2.26147146,6.39772727 1.50000312,5.74904893 1.50000312,4.94886364 C1.50000312,4.1566802 2.24631824,3.51298872 3.17266464,3.50019411 L3.20079027,3.5 L20.7992128,3.5 Z" id="Shape" fill="#CFE3EF"></path>
            </g>
        </g>
    </g>
</svg>