<?xml version="1.0" encoding="UTF-8"?>
<svg width="1024px" height="1024px" viewBox="0 0 1024 1024" version="1.1" xmlns="http://www.w3.org/2000/svg" xmlns:xlink="http://www.w3.org/1999/xlink">
    <!-- Generator: sketchtool 61.2 (101010) - https://sketch.com -->
    <title>3A344DFE-8859-45E9-B100-1E294325A410</title>
    <desc>Created with sketchtool.</desc>
    <g id="Page-2" stroke="none" stroke-width="1" fill="none" fill-rule="evenodd">
        <g id="Icon-切圖" transform="translate(-56.000000, -438.000000)">
            <g id="Nav/Icon/ic_home" transform="translate(56.000000, 438.000000)">
                <rect id="bg" fill="#D8D8D8" opacity="0" x="0" y="0" width="1024" height="1024"></rect>
                <path d="M562.619651,145.095191 L861.286318,371.250188 C883.114521,387.77884 896,413.984168 896,441.847752 L896,808.307246 C896,856.738617 857.794965,896 810.666667,896 L213.333333,896 C166.205035,896 128,856.738617 128,808.307246 L128,441.847752 C128,413.984168 140.885479,387.77884 162.713682,371.250188 L461.380349,145.095191 C491.482203,122.301603 532.517797,122.301603 562.619651,145.095191 Z M512,215.692754 L213.333333,441.847752 L213.333333,808.307246 L384,808.307 L384,589.07536 C384,564.859675 403.102417,545.228983 426.666667,545.228983 L597.333333,545.228983 C620.897483,545.228983 640,564.859675 640,589.07536 L640,808.307 L810.666667,808.307246 L810.666667,441.847752 L512,215.692754 Z M554.666667,632.921737 L469.333333,632.921737 L469.333333,808.307246 L554.666667,808.307246 L554.666667,632.921737 Z" id="Rectangle" fill="#707E90"></path>
            </g>
        </g>
    </g>
</svg>
