<?xml version="1.0" encoding="UTF-8"?>
<svg width="1024px" height="1024px" viewBox="0 0 1024 1024" version="1.1" xmlns="http://www.w3.org/2000/svg" xmlns:xlink="http://www.w3.org/1999/xlink">
    <!-- Generator: Sketch 61 (89581) - https://sketch.com -->
    <title>ic_home-page_1024_2</title>
    <desc>Created with Sketch.</desc>
    <g id="ic_home-page_1024" stroke="none" stroke-width="1" fill="none" fill-rule="evenodd">
        <g id="Group-2">
            <g id="Group" transform="translate(160.000000, 64.000000)" fill="#000000">
                <path d="M694.6,224.6 L479.4,9.4 C473.4,3.4 465.3,0 456.8,0 L32,0 C14.3,0 0,14.3 0,32 L0,864 C0,881.7 14.3,896 32,896 L672,896 C689.7,896 704,881.7 704,864 L704,247.3 C704,238.8 700.6,230.6 694.6,224.6 Z M630.2,262 L442,262 L442,73.8 L630.2,262 Z M632,824 L72,824 L72,72 L374,72 L374,288 C374,311.2 392.8,330 416,330 L632,330 L632,824 Z" id="fill" fill-rule="nonzero"></path>
                <path d="M159.864638,528.328812 L158.670849,529.545427 C126.604199,563.030661 140.660902,615.247039 178.555955,632.192565 L179.145,632.447 L179.145695,702.54386 C179.145695,737.890084 207.799471,766.54386 243.145695,766.54386 L460.81457,766.54386 L461.872927,766.535285 C496.731004,765.970115 524.81457,737.536621 524.81457,702.54386 L524.814,632.465 L525.442659,632.193129 C563.798339,615.042649 577.734373,561.75895 544.140676,528.334099 L406.339352,391.22538 L397.173628,382.100458 C372.210547,357.248513 331.857663,357.24033 306.884506,382.082149 L159.864638,528.328812 Z M352.019868,427.45614 L361.198675,436.594084 L499,573.702804 L460.81457,573.702804 L460.81457,702.54386 L243.145695,702.54386 L243.145695,573.702804 L205,573.702804 L352.019868,427.45614 Z" id="Path" fill-rule="nonzero"></path>
                <rect id="Rectangle" x="305" y="576" width="95" height="64" rx="32"></rect>
            </g>
        </g>
    </g>
</svg>
