<?xml version="1.0" encoding="UTF-8"?>
<svg width="1024px" height="1024px" viewBox="0 0 1024 1024" version="1.1" xmlns="http://www.w3.org/2000/svg" xmlns:xlink="http://www.w3.org/1999/xlink">
    <title>4D5825E2-7AED-4860-B3EA-AA87F7C47595</title>
    <g id="前台加購區塊" stroke="none" stroke-width="1" fill="none" fill-rule="evenodd">
        <g id="slice" transform="translate(0.000000, -1024.000000)">
            <g id="ic_left-arrow_circle-copy" transform="translate(0.000000, 1024.000000)">
                <rect id="bg" fill-opacity="0" fill="#FFFFFF" x="0" y="0" width="1024" height="1024"></rect>
                <path d="M512,64 C264.576432,64 64,264.576432 64,512 C64,759.423568 264.576432,960 512,960 C759.423568,960 960,759.423568 960,512 C960,264.576432 759.423568,64 512,64 Z M512,101.333333 C738.804937,101.333333 922.666667,285.195063 922.666667,512 C922.666667,738.804937 738.804937,922.666667 512,922.666667 C285.195063,922.666667 101.333333,738.804937 101.333333,512 C101.333333,285.195063 285.195063,101.333333 512,101.333333 Z M552.074895,354.17538 L399.795667,497.433216 C392.133213,504.641972 391.465204,516.385167 397.79164,524.384543 L399.795667,526.566842 L551.795667,669.566842 C559.840695,677.13552 572.498106,676.749362 580.066784,668.704333 C586.924992,661.414489 587.251707,650.337548 581.267125,642.69112 L579.204275,640.433216 L442.686971,512.000029 L579.204275,383.566842 C587.156832,376.08516 587.625573,363.631056 580.32462,355.574953 L580.066784,355.295725 C572.585102,347.343168 560.130998,346.874427 552.074895,354.17538 Z" id="Shape" fill="#000000" fill-rule="nonzero"></path>
            </g>
        </g>
    </g>
</svg>