<?xml version="1.0" encoding="UTF-8"?>
<svg width="1024px" height="1024px" viewBox="0 0 1024 1024" version="1.1" xmlns="http://www.w3.org/2000/svg" xmlns:xlink="http://www.w3.org/1999/xlink">
    <!-- Generator: sketchtool 61.2 (101010) - https://sketch.com -->
    <title>84027B0B-2A5C-4505-BFB4-5CB68F88BF48</title>
    <desc>Created with sketchtool.</desc>
    <g id="Page-2" stroke="none" stroke-width="1" fill="none" fill-rule="evenodd">
        <g id="Icon-切圖" transform="translate(-8.000000, -11478.000000)">
            <g id="Nav/Icon/ic_left" transform="translate(8.000000, 11478.000000)">
                <rect id="bg" fill="#D8D8D8" opacity="0" x="0" y="0" width="1024" height="1024"></rect>
                <path d="M256,288.57966 L256,127.995466 C256,123.577188 259.581722,119.995466 264,119.995466 C265.643056,119.995466 267.246265,120.501375 268.591729,121.444433 L736.811591,449.627608 L736.811591,449.627608 C778.01162,480.833999 778.428785,541.618332 737.847823,573.365215 L736.811591,574.371212 L268.591729,902.554387 C264.973693,905.090328 259.984909,904.213118 257.448968,900.595083 C256.505909,899.249619 256,897.64641 256,896.003354 L256,736.402809 C256,731.302595 258.431513,726.507944 262.546231,723.494429 L551.326085,511.99941 L551.326085,511.99941 L262.574921,301.509002 C258.443401,298.497256 256,293.692396 256,288.57966 Z" id="Line" fill="#707E90"></path>
            </g>
        </g>
    </g>
</svg>
