<svg width="1024" height="1024" viewBox="0 0 1024 1024" fill="none" xmlns="http://www.w3.org/2000/svg">
<path fill-rule="evenodd" clip-rule="evenodd" d="M956.075 457.858C956.075 261.544 757.332 102.4 512.169 102.4C267.006 102.4 68.2603 261.544 68.2667 457.858C68.2667 632.844 226.175 778.293 434.113 807.833V807.84L434.206 807.846C439.091 808.538 444.017 809.147 448.956 809.713C493.154 818.919 485.844 856.913 479.752 888.57C476.086 907.622 472.861 924.379 481.571 931.185C508.239 952.026 710.294 816.939 833.05 703.475C850.816 688.598 866.975 672.481 881.324 655.313L881.584 655.031C885.008 651.258 887.724 647.844 889.802 644.753C931.809 590.453 956.075 526.43 956.075 457.858ZM344.145 571.235H254.617C241.882 571.235 231.466 560.815 231.466 548.077V376.369C231.466 363.634 241.882 353.218 254.617 353.218H256.548C269.283 353.218 279.699 363.634 279.699 376.369V522.998H344.145C356.88 522.998 367.296 533.414 367.296 546.149V548.08C367.296 560.815 356.88 571.235 344.145 571.235ZM809.381 461.674V463.605C809.381 476.337 798.962 486.756 786.227 486.75H721.784V523.408H786.227C798.962 523.408 809.381 533.824 809.381 546.559V548.49C809.381 561.225 798.962 571.645 786.227 571.645H696.699C683.964 571.645 673.548 561.225 673.548 548.49V376.782C673.548 364.047 683.964 353.631 696.699 353.631H786.227C798.962 353.631 809.381 364.047 809.381 376.782V378.714C809.381 391.449 798.962 401.865 786.227 401.865H721.784V438.523H786.227C798.962 438.523 809.381 448.939 809.381 461.674ZM637.214 564.323L637.208 564.332C635.833 566.007 633.883 567.43 631.567 568.531C628.239 570.308 624.524 571.237 620.751 571.235H618.819C615.716 571.235 612.75 570.613 610.037 569.492C606.507 568.169 603.34 566.004 601.024 562.846L601.021 562.84C600.409 562.103 599.842 561.328 599.323 560.521L515.041 445.403V548.084C515.041 560.819 504.625 571.238 491.89 571.238H489.959C477.221 571.238 466.805 560.819 466.805 548.084V376.376C466.805 363.641 477.224 353.224 489.959 353.224H491.89C500.468 353.224 507.995 357.952 511.992 364.931L595.672 477.17V376.376C595.672 363.641 606.088 353.224 618.823 353.224H620.754C633.492 353.224 643.908 363.641 643.908 376.376V548.084C643.904 554.167 641.498 560.003 637.214 564.323ZM411.064 571.235H409.133C396.398 571.235 385.979 560.815 385.979 548.08V376.372C385.979 363.637 396.398 353.221 409.133 353.221H411.064C423.799 353.221 434.215 363.637 434.215 376.372V548.08C434.215 560.815 423.799 571.235 411.064 571.235Z" fill="white"/>
</svg>
