<?xml version="1.0" encoding="UTF-8"?>
<svg width="1024px" height="1024px" viewBox="0 0 1024 1024" version="1.1" xmlns="http://www.w3.org/2000/svg" xmlns:xlink="http://www.w3.org/1999/xlink">
    <!-- Generator: sketchtool 61.2 (101010) - https://sketch.com -->
    <title>9D9D49C1-9295-4793-9400-A91CEBED00FD</title>
    <desc>Created with sketchtool.</desc>
    <g id="Page-2" stroke="none" stroke-width="1" fill="none" fill-rule="evenodd">
        <g id="Icon-切圖" transform="translate(-78.000000, -12670.000000)">
            <g id="Nav/Icon/ic_logout" transform="translate(78.000000, 12670.000000)">
                <rect id="bg" fill="#D8D8D8" opacity="0" x="0" y="0" width="1024" height="1024"></rect>
                <path d="M510.976006,128 C723.590323,128 896,299.893998 896,512 C896,724.106002 723.590323,896 510.976006,896 C448.109369,896 387.322468,880.925297 332.768895,852.471091 C311.875938,841.573684 303.772944,815.802502 314.670351,794.909545 C325.567758,774.016588 351.33894,765.913594 372.231897,776.811001 C414.671312,798.94667 461.930768,810.666667 510.976006,810.666667 C676.519151,810.666667 810.666667,676.920387 810.666667,512 C810.666667,347.079613 676.519151,213.333333 510.976006,213.333333 C458.093794,213.333333 407.304698,226.963975 362.458207,252.520401 C341.985017,264.187347 315.930289,257.048475 304.263343,236.575285 C292.596398,216.102095 299.735269,190.047367 320.208459,178.380421 C377.846497,145.534546 443.18192,128 510.976006,128 Z M341.333333,384 L341.333,469.333 L597.333333,469.333333 C620.897483,469.333333 640,488.435851 640,512 C640,533.880996 623.528952,551.914972 602.309168,554.379617 L597.333333,554.666667 L341.333,554.666 L341.333333,640 C341.333333,678.01194 295.375278,697.04839 268.496777,670.169889 L140.496777,542.169889 C123.834408,525.50752 123.834408,498.49248 140.496777,481.830111 L268.496777,353.830111 C295.375278,326.95161 341.333333,345.98806 341.333333,384 Z" id="Combined-Shape" fill="#707E90"></path>
            </g>
        </g>
    </g>
</svg>
