<?xml version="1.0" encoding="UTF-8"?>
<svg width="1024px" height="1024px" viewBox="0 0 1024 1024" version="1.1" xmlns="http://www.w3.org/2000/svg" xmlns:xlink="http://www.w3.org/1999/xlink">
    <!-- Generator: sketchtool 61.2 (101010) - https://sketch.com -->
    <title>915FAB05-157D-4963-89BF-79B8ACDFA5F7</title>
    <desc>Created with sketchtool.</desc>
    <g id="Page-2" stroke="none" stroke-width="1" fill="none" fill-rule="evenodd">
        <g id="Icon-切圖" transform="translate(-56.000000, -8166.000000)">
            <g id="Nav/Icon/ic_marketing" transform="translate(56.000000, 8166.000000)">
                <rect id="bg" fill="#D8D8D8" opacity="0" x="0" y="0" width="1024" height="1024"></rect>
                <path d="M761.896678,224.175299 C765.928516,234.225708 768,244.95091 768,255.775532 L768.001914,303.653619 C863.995259,319.066829 938.666667,385.595526 938.666667,470.44529 C938.666667,555.295054 863.995259,621.823751 768.001914,637.236961 L768,685.115048 C768,732.106877 729.794965,770.20128 682.666667,770.20128 C671.810609,770.20128 661.054259,768.135795 650.974662,764.115631 L426.674333,674.654667 L426.674895,810.790217 L426.387845,815.751643 C423.9232,836.909981 405.889224,853.333333 384.008228,853.333333 L384.008228,853.333333 L256.008228,853.333333 L250.988723,853.040183 C232.845237,850.908968 217.826415,837.362151 214.170119,819.133609 L214.170119,819.133609 L178.363333,640.617667 L170.666667,640.617754 C123.538368,640.617754 85.3333333,602.52335 85.3333333,555.531522 L85.3333333,385.359058 C85.3333333,338.36723 123.538368,300.272827 170.666667,300.272827 L363.863474,300.272434 C372.326854,291.094781 382.872566,283.705248 394.974662,278.878427 L650.974662,176.774949 C694.732189,159.322622 744.393667,180.544482 761.896678,224.175299 Z M290.994895,768.247102 L341.341561,768.247102 L341.341333,640.617667 L265.388333,640.617667 L290.994895,768.247102 Z M682.666667,255.775532 L426.666667,357.87901 L426.666667,583.01157 L682.666667,685.115048 L682.666667,255.775532 Z M341.332333,385.358667 L170.666667,385.359058 L170.666667,555.531522 L212.553349,555.531479 C213.089662,555.52098 213.624574,555.520637 214.157859,555.5303 L341.332333,555.530667 L341.332333,385.358667 Z M768.001629,390.314114 L768.001629,550.576466 C818.701702,538.360407 853.333333,505.25497 853.333333,470.44529 C853.333333,435.635611 818.701702,402.530173 768.001629,390.314114 Z" id="Combined-Shape" fill="#707E90"></path>
            </g>
        </g>
    </g>
</svg>
