<?xml version="1.0" encoding="UTF-8"?>
<svg width="1024px" height="1024px" viewBox="0 0 1024 1024" version="1.1" xmlns="http://www.w3.org/2000/svg" xmlns:xlink="http://www.w3.org/1999/xlink">
    <!-- Generator: sketchtool 61.2 (101010) - https://sketch.com -->
    <title>98B5D381-5945-4968-BA6E-C327FD1BC8F1</title>
    <desc>Created with sketchtool.</desc>
    <g id="Page-2" stroke="none" stroke-width="1" fill="none" fill-rule="evenodd">
        <g id="Icon-切圖" transform="translate(-56.000000, -3750.000000)">
            <g id="Nav/Icon/ic_message_circle" transform="translate(56.000000, 3750.000000)">
                <rect id="bg" fill="#D8D8D8" opacity="0" x="0" y="0" width="1024" height="1024"></rect>
                <path d="M618.666667,128 C795.397787,128 938.666667,271.26888 938.666667,448 C938.666667,624.73112 795.397787,768 618.666667,768 L618.666667,768 L396.885333,768 L215.667208,888.834146 C188.66308,906.836898 152.928607,889.257861 149.586557,858.105272 L149.586557,858.105272 L149.333333,853.333333 L149.333333,635.306667 L144.871302,630.12233 C107.782649,584.852446 88.0619622,528.428765 85.5973758,462.315016 L85.5973758,462.315016 L85.3333333,448 C85.3333333,271.26888 228.602213,128 405.333333,128 L405.333333,128 Z M618.666667,213.333333 L405.333333,213.333333 C275.730512,213.333333 170.666667,318.397179 170.666667,448 C170.666667,508.26938 187.901172,554.22806 222.169889,588.496777 C230.171441,596.498329 234.666667,607.350763 234.666667,618.666667 L234.666667,618.666667 L234.666667,773.546667 L360.332792,689.832521 C365.93979,686.094522 372.331586,683.751175 378.976839,682.963356 L378.976839,682.963356 L384,682.666667 L618.666667,682.666667 C748.269488,682.666667 853.333333,577.602821 853.333333,448 C853.333333,318.397179 748.269488,213.333333 618.666667,213.333333 L618.666667,213.333333 Z M704,384 C739.346224,384 768,412.653776 768,448 C768,483.346224 739.346224,512 704,512 C668.653776,512 640,483.346224 640,448 C640,412.653776 668.653776,384 704,384 Z M512,384 C547.346224,384 576,412.653776 576,448 C576,483.346224 547.346224,512 512,512 C476.653776,512 448,483.346224 448,448 C448,412.653776 476.653776,384 512,384 Z M320,384 C355.346224,384 384,412.653776 384,448 C384,483.346224 355.346224,512 320,512 C284.653776,512 256,483.346224 256,448 C256,412.653776 284.653776,384 320,384 Z" id="Combined-Shape" fill="#707E90"></path>
            </g>
        </g>
    </g>
</svg>
