<?xml version="1.0" encoding="UTF-8"?>
<svg width="1024px" height="1024px" viewBox="0 0 1024 1024" version="1.1" xmlns="http://www.w3.org/2000/svg" xmlns:xlink="http://www.w3.org/1999/xlink">
    <!-- Generator: sketchtool 61.2 (101010) - https://sketch.com -->
    <title>9BDCBF30-ED30-4C71-AB8B-66E0B3F12425</title>
    <desc>Created with sketchtool.</desc>
    <g id="Page-2" stroke="none" stroke-width="1" fill="none" fill-rule="evenodd">
        <g id="Icon-切圖" transform="translate(-148.000000, -17391.000000)">
            <g id="Nav/Icon/ic_more-items" transform="translate(148.000000, 17391.000000)">
                <rect id="bg" fill="#D8D8D8" opacity="0" x="0" y="0" width="1024" height="1024"></rect>
                <path d="M384,554.666667 C431.128299,554.666667 469.333333,592.871701 469.333333,640 L469.333333,640 L469.333333,810.666667 C469.333333,857.794965 431.128299,896 384,896 L384,896 L213.333333,896 C166.205035,896 128,857.794965 128,810.666667 L128,810.666667 L128,640 C128,592.871701 166.205035,554.666667 213.333333,554.666667 L213.333333,554.666667 Z M810.666667,554.666667 C857.794965,554.666667 896,592.871701 896,640 L896,640 L896,810.666667 C896,857.794965 857.794965,896 810.666667,896 L810.666667,896 L640,896 C592.871701,896 554.666667,857.794965 554.666667,810.666667 L554.666667,810.666667 L554.666667,640 C554.666667,592.871701 592.871701,554.666667 640,554.666667 L640,554.666667 Z M384,640 L213.333333,640 L213.333333,810.666667 L384,810.666667 L384,640 Z M810.666667,640 L640,640 L640,810.666667 L810.666667,810.666667 L810.666667,640 Z M384,128 C431.128299,128 469.333333,166.205035 469.333333,213.333333 L469.333333,213.333333 L469.333333,384 C469.333333,431.128299 431.128299,469.333333 384,469.333333 L384,469.333333 L213.333333,469.333333 C166.205035,469.333333 128,431.128299 128,384 L128,384 L128,213.333333 C128,166.205035 166.205035,128 213.333333,128 L213.333333,128 Z M810.666667,128 C857.794965,128 896,166.205035 896,213.333333 L896,213.333333 L896,384 C896,431.128299 857.794965,469.333333 810.666667,469.333333 L810.666667,469.333333 L640,469.333333 C592.871701,469.333333 554.666667,431.128299 554.666667,384 L554.666667,384 L554.666667,213.333333 C554.666667,166.205035 592.871701,128 640,128 L640,128 Z M384,213.333333 L213.333333,213.333333 L213.333333,384 L384,384 L384,213.333333 Z M810.666667,213.333333 L640,213.333333 L640,384 L810.666667,384 L810.666667,213.333333 Z" id="Combined-Shape" fill="#707E90"></path>
            </g>
        </g>
    </g>
</svg>