<svg width="1024" height="1024" viewBox="0 0 1024 1024" fill="none" xmlns="http://www.w3.org/2000/svg">
<mask id="mask0_2362_12006" style="mask-type:alpha" maskUnits="userSpaceOnUse" x="120" y="232" width="784" height="616">
<path d="M532.364 232C582.973 232 624 273.027 624 323.636V344H790.545C808.111 344 824.273 353.794 832.684 369.536C880.087 458.252 904 520.907 904 564.5V687C904 714.062 882.51 736 856 736H848C848 797.856 797.856 848 736 848C674.144 848 624 797.856 624 736H400C400 797.856 349.856 848 288 848C226.144 848 176 797.856 176 736H152C134.327 736 120 721.673 120 704V323.636C120 273.027 161.027 232 211.636 232H532.364ZM288 680C257.072 680 232 705.072 232 736C232 766.928 257.072 792 288 792C318.928 792 344 766.928 344 736C344 705.072 318.928 680 288 680ZM736 680C705.072 680 680 705.072 680 736C680 766.928 705.072 792 736 792C766.928 792 792 766.928 792 736C792 705.072 766.928 680 736 680ZM524.444 288H219.556C195.5 288 176 307.5 176 331.556V680L190.986 679.996C210.352 646.521 246.546 624 288 624C329.454 624 365.648 646.521 385.014 679.996L568 680V331.556C568 307.5 548.5 288 524.444 288ZM786.909 400H624V680L638.986 679.996C658.352 646.521 694.546 624 736 624C777.454 624 813.648 646.521 833.014 679.996L848 680V563.333C848 532.222 827.636 477.778 786.909 400ZM372 568C387.464 568 400 580.536 400 596C400 611.464 387.464 624 372 624C356.536 624 344 611.464 344 596C344 580.536 356.536 568 372 568ZM372 344C387.464 344 400 356.017 400 370.841V513.159C400 527.983 387.464 540 372 540C356.536 540 344 527.983 344 513.159V370.841C344 356.017 356.536 344 372 344Z" fill="white"/>
</mask>
<g mask="url(#mask0_2362_12006)">
<path d="M532.364 232C582.973 232 624 273.027 624 323.636V344H790.545C808.111 344 824.273 353.794 832.684 369.536C880.087 458.252 904 520.907 904 564.5V687C904 714.062 882.51 736 856 736H848C848 797.856 797.856 848 736 848C674.144 848 624 797.856 624 736H400C400 797.856 349.856 848 288 848C226.144 848 176 797.856 176 736H120V323.636C120 273.027 161.027 232 211.636 232H532.364ZM288 680C257.072 680 232 705.072 232 736C232 766.928 257.072 792 288 792C318.928 792 344 766.928 344 736C344 705.072 318.928 680 288 680ZM736 680C705.072 680 680 705.072 680 736C680 766.928 705.072 792 736 792C766.928 792 792 766.928 792 736C792 705.072 766.928 680 736 680ZM524.444 288H219.556C195.5 288 176 307.5 176 331.556V680L190.986 679.996C210.352 646.521 246.546 624 288 624C329.454 624 365.648 646.521 385.014 679.996L568 680V331.556C568 307.5 548.5 288 524.444 288ZM786.909 400H624V680L638.986 679.996C658.352 646.521 694.546 624 736 624C777.454 624 813.648 646.521 833.014 679.996L848 680V563.333C848 532.222 827.636 477.778 786.909 400ZM372 568C387.464 568 400 580.536 400 596C400 611.464 387.464 624 372 624C356.536 624 344 611.464 344 596C344 580.536 356.536 568 372 568ZM372 344C387.464 344 400 356.017 400 370.841V513.159C400 527.983 387.464 540 372 540C356.536 540 344 527.983 344 513.159V370.841C344 356.017 356.536 344 372 344Z" fill="black"/>
</g>
</svg>
