<?xml version="1.0" encoding="UTF-8"?>
<svg width="1024px" height="1024px" viewBox="0 0 1024 1024" version="1.1" xmlns="http://www.w3.org/2000/svg" xmlns:xlink="http://www.w3.org/1999/xlink">
    <title>ic_notification_outlines</title>
    <g id="icon-重構切圖" stroke="none" stroke-width="1" fill="none" fill-rule="evenodd">
        <g id="ic_notification_outlines" fill="#6F727D" fill-rule="nonzero">
            <g>
                <rect id="Rectangle" opacity="0" x="64" y="64" width="896" height="896"></rect>
                <path d="M834,162 C830.675,162 827.2625,162.6125 823.85,164.0125 L319.5,366.6625 L176,366.6625 C168.3,366.6625 162,373.1375 162,381.1875 L162,642.8125 C162,650.8625 168.3,657.3375 176,657.3375 L264.9875,657.3375 C261.75,667.4875 260,678.25 260,689.1875 C260,746.85 307.075,793.75 365,793.75 C413.475,793.75 454.3375,760.85 466.4125,716.4 L823.9375,860.075 C827.35,861.3875 830.7625,862.0875 834.0875,862.0875 C848.875,862.0875 862.0875,849.6625 862.0875,833.0375 L862.0875,191.05 C862,174.425 848.875,162 834,162 Z M365,731.0125 C341.8125,731.0125 323,712.2875 323,689.1875 C323,679.3875 326.4125,670.025 332.625,662.5875 L406.9125,692.425 C405.1625,713.95 387.05,731.0125 365,731.0125 L365,731.0125 Z M799,782.1125 L342.95,598.8875 L331.6625,594.3375 L225,594.3375 L225,429.6625 L331.6625,429.6625 L342.95,425.1125 L799,241.8875 L799,782.1125 L799,782.1125 Z" id="Shape"></path>
            </g>
        </g>
    </g>
</svg>