<?xml version="1.0" encoding="UTF-8"?>
<svg width="24px" height="24px" viewBox="0 0 24 24" version="1.1" xmlns="http://www.w3.org/2000/svg" xmlns:xlink="http://www.w3.org/1999/xlink">
    <!-- Generator: sketchtool 61.2 (101010) - https://sketch.com -->
    <title>4F9CB93A-A7C5-4C98-8371-3D9AD76627E1</title>
    <desc>Created with sketchtool.</desc>
    <g id="確定檔案" stroke="none" stroke-width="1" fill="none" fill-rule="evenodd">
        <g id="slice" transform="translate(-50.000000, -432.000000)">
            <g id="Group-4" transform="translate(50.000000, 432.000000)">
                <g id="icon-icon/fill/one-page-store">
                    <g id="Group">
                        <path d="M19.5721154,1.546875 C19.9206496,1.546875 20.203125,1.821059 20.203125,2.15936279 L20.203125,2.15936279 L20.203125,21.8406372 C20.203125,22.178941 19.9206496,22.453125 19.5721154,22.453125 L19.5721154,22.453125 L4.42788462,22.453125 C4.07935041,22.453125 3.796875,22.178941 3.796875,21.8406372 L3.796875,21.8406372 L3.796875,2.15936279 C3.796875,1.821059 4.07935041,1.546875 4.42788462,1.546875 L4.42788462,1.546875 Z M10.7379807,18.7373657 L6.95192304,18.7373657 C6.60338884,18.7373657 6.32091343,19.0115497 6.32091343,19.3498535 C6.32091343,19.6881573 6.60338884,19.9623413 6.95192304,19.9623413 L6.95192304,19.9623413 L10.7379807,19.9623413 C11.0865149,19.9623413 11.3689903,19.6881573 11.3689903,19.3498535 C11.3689903,19.0115497 11.0865149,18.7373657 10.7379807,18.7373657 L10.7379807,18.7373657 Z M17.0480766,18.7373657 L13.2620189,18.7373657 C12.9134847,18.7373657 12.6310093,19.0115497 12.6310093,19.3498535 C12.6310093,19.6881573 12.9134847,19.9623413 13.2620189,19.9623413 L13.2620189,19.9623413 L17.0480766,19.9623413 C17.3966108,19.9623413 17.6790862,19.6881573 17.6790862,19.3498535 C17.6790862,19.0115497 17.3966108,18.7373657 17.0480766,18.7373657 L17.0480766,18.7373657 Z M10.7379807,16.2874146 L6.95192304,16.2874146 C6.60338884,16.2874146 6.32091343,16.5615985 6.32091343,16.8999023 C6.32091343,17.2382061 6.60338884,17.5123901 6.95192304,17.5123901 L6.95192304,17.5123901 L10.7379807,17.5123901 C11.0865149,17.5123901 11.3689903,17.2382061 11.3689903,16.8999023 C11.3689903,16.5615985 11.0865149,16.2874146 10.7379807,16.2874146 L10.7379807,16.2874146 Z M17.0480766,16.2874146 L13.2620189,16.2874146 C12.9134847,16.2874146 12.6310093,16.5615985 12.6310093,16.8999023 C12.6310093,17.2382061 12.9134847,17.5123901 13.2620189,17.5123901 L13.2620189,17.5123901 L17.0480766,17.5123901 C17.3966108,17.5123901 17.6790862,17.2382061 17.6790862,16.8999023 C17.6790862,16.5615985 17.3966108,16.2874146 17.0480766,16.2874146 L17.0480766,16.2874146 Z M17.0480769,6.48760986 L6.95192305,6.48760986 C6.60338884,6.48760986 6.32091343,6.76179386 6.32091343,7.10009766 L6.32091343,7.10009766 L6.32091343,14.4499512 C6.32091343,14.788255 6.60338884,15.062439 6.95192305,15.062439 L6.95192305,15.062439 L17.0480769,15.062439 C17.3966112,15.062439 17.6790866,14.788255 17.6790866,14.4499512 L17.6790866,14.4499512 L17.6790866,7.10009766 C17.6790866,6.76179386 17.3966112,6.48760986 17.0480769,6.48760986 L17.0480769,6.48760986 Z M13.2739955,10.40625 L16.4296875,13.4693299 L16.4296875,13.828125 L7.59375,13.828125 L7.59375,13.4693299 L9.48716518,11.6314819 L10.3032074,12.4234157 C10.5495815,12.6627188 10.9493025,12.6627188 11.1956765,12.4234157 L11.1956765,12.4234157 L13.2739955,10.40625 Z M16.4296875,7.7109375 L16.4296875,11.7421875 L13.7202301,9.11451835 C13.473856,8.87540747 13.074135,8.87540747 12.827761,9.11451835 L12.827761,9.11451835 L10.749442,11.1300637 L9.93339976,10.338766 C9.68702567,10.0996552 9.28730469,10.0996552 9.0409306,10.338766 L9.0409306,10.338766 L7.59375,11.7421875 L7.59375,7.7109375 L16.4296875,7.7109375 Z M17.0480769,4.03765869 L6.95192305,4.03765869 C6.60338884,4.03765869 6.32091343,4.31184269 6.32091343,4.65014648 C6.32091343,4.98845028 6.60338884,5.26263428 6.95192305,5.26263428 L6.95192305,5.26263428 L17.0480769,5.26263428 C17.3966112,5.26263428 17.6790866,4.98845028 17.6790866,4.65014648 C17.6790866,4.31184269 17.3966112,4.03765869 17.0480769,4.03765869 L17.0480769,4.03765869 Z" id="Combined-Shape" fill="#626C82"></path>
                    </g>
                </g>
            </g>
        </g>
    </g>
</svg>
