<?xml version="1.0" encoding="UTF-8"?>
<svg width="1024px" height="1024px" viewBox="0 0 1024 1024" version="1.1" xmlns="http://www.w3.org/2000/svg" xmlns:xlink="http://www.w3.org/1999/xlink">
    <title>8786A408-C08C-456B-92B2-02CCDF9AB397</title>
    <g id="站內付-付款確認頁" stroke="none" stroke-width="1" fill="none" fill-rule="evenodd">
        <g id="Slice" transform="translate(0.000000, -1024.000000)">
            <g id="Icon/ic_order_outline" transform="translate(0.000000, 1024.000000)">
                <rect id="bg" fill-opacity="0" fill="#FFFFFF" x="64" y="64" width="896" height="896"></rect>
                <path d="M738.333333,103 C797.383619,103 845.365139,150.391017 846.318864,209.214023 L846.333333,211 L846.333333,813.666667 C846.333333,872.716952 798.942316,920.698472 740.119311,921.652198 L738.333333,921.666667 L285,921.666667 C225.949715,921.666667 177.968194,874.275649 177.014469,815.452644 L177,813.666667 L177,211 C177,151.949715 224.391017,103.968194 283.214023,103.014469 L285,103 L738.333333,103 Z M323.666,175 L285,175 C265.316572,175 249.322731,190.797006 249,210.404674 L249,211 L249,813.666667 C249,833.350095 264.797006,849.343935 284.404674,849.666667 L285,849.666667 L738.333333,849.666667 C758.016762,849.666667 774.010602,833.869661 774.333333,814.261992 L774.333333,813.666667 L774.333333,211 C774.333333,191.316572 758.536328,175.322731 738.928659,175 L738.333333,175 L706.666,175 L706.666667,209.333333 C706.666667,268.383619 659.275649,316.365139 600.452644,317.318864 L598.666667,317.333333 L431.666667,317.333333 C372.616381,317.333333 324.634861,269.942316 323.681136,211.119311 L323.666667,209.333333 L323.666,175 Z M640.666667,609.996667 C660.548918,609.996667 676.666667,626.114416 676.666667,645.996667 C676.666667,665.680095 660.869661,681.673935 641.261992,681.991844 L640.666667,681.996667 L382.666667,681.996667 C362.784416,681.996667 346.666667,665.878918 346.666667,645.996667 C346.666667,626.313238 362.463672,610.319398 382.071341,610.00149 L382.666667,609.996667 L640.666667,609.996667 Z M640.666667,442.666667 C660.548918,442.666667 676.666667,458.784416 676.666667,478.666667 C676.666667,498.350095 660.869661,514.343935 641.261992,514.661844 L640.666667,514.666667 L382.666667,514.666667 C362.784416,514.666667 346.666667,498.548918 346.666667,478.666667 C346.666667,458.983238 362.463672,442.989398 382.071341,442.67149 L382.666667,442.666667 L640.666667,442.666667 Z M634.666667,175 L395.666,175 L395.666,209.333333 C395.666,229.016762 411.463672,245.010602 431.071341,245.32851 L431.666667,245.333333 L598.666667,245.333333 C618.350095,245.333333 634.343935,229.536328 634.661844,209.928659 L634.666667,209.333333 L634.666667,175 Z" id="shape" fill="#262626" fill-rule="nonzero"></path>
            </g>
        </g>
    </g>
</svg>