<?xml version="1.0" encoding="UTF-8"?>
<svg width="1024px" height="1024px" viewBox="0 0 1024 1024" version="1.1" xmlns="http://www.w3.org/2000/svg" xmlns:xlink="http://www.w3.org/1999/xlink">
    <!-- Generator: sketchtool 61.2 (101010) - https://sketch.com -->
    <title>889AB57A-ED31-4989-8AE4-AF2EA75E859D</title>
    <desc>Created with sketchtool.</desc>
    <g id="Page-2" stroke="none" stroke-width="1" fill="none" fill-rule="evenodd">
        <g id="Icon-切圖" transform="translate(-56.000000, -1542.000000)">
            <g id="Nav/Icon/ic_order" transform="translate(56.000000, 1542.000000)">
                <rect id="bg" fill="#D8D8D8" opacity="0" x="0" y="0" width="1024" height="1024"></rect>
                <path d="M597.333333,85.3333333 C644.461632,85.3333333 682.666667,123.538368 682.666667,170.666667 L682.666667,170.666667 L768,170.666667 C815.128299,170.666667 853.333333,208.871701 853.333333,256 L853.333333,853.333333 C853.333333,900.461632 815.128299,938.666667 768,938.666667 L256,938.666667 C208.871701,938.666667 170.666667,900.461632 170.666667,853.333333 L170.666667,256 C170.666667,208.871701 208.871701,170.666667 256,170.666667 L341.333333,170.666667 C341.333333,123.538368 379.538368,85.3333333 426.666667,85.3333333 L426.666667,85.3333333 Z M341.333333,256 L256,256 L256,853.333333 L768,853.333333 L768,256 L682.666667,256 C682.666667,303.128299 644.461632,341.333333 597.333333,341.333333 L597.333333,341.333333 L426.666667,341.333333 C379.538368,341.333333 341.333333,303.128299 341.333333,256 L341.333333,256 Z M640,597.333333 C663.564149,597.333333 682.666667,616.435851 682.666667,640 C682.666667,663.564149 663.564149,682.666667 640,682.666667 L384,682.666667 C360.435851,682.666667 341.333333,663.564149 341.333333,640 C341.333333,616.435851 360.435851,597.333333 384,597.333333 L640,597.333333 Z M640,426.666667 C663.564149,426.666667 682.666667,445.769184 682.666667,469.333333 C682.666667,492.897483 663.564149,512 640,512 L384,512 C360.435851,512 341.333333,492.897483 341.333333,469.333333 C341.333333,445.769184 360.435851,426.666667 384,426.666667 L640,426.666667 Z M597.333333,170.666667 L426.666667,170.666667 L426.666667,256 L597.333333,256 L597.333333,170.666667 Z" id="Shape" fill="#707E90"></path>
            </g>
        </g>
    </g>
</svg>
