<?xml version="1.0" encoding="UTF-8"?>
<svg width="1024px" height="1024px" viewBox="0 0 1024 1024" version="1.1" xmlns="http://www.w3.org/2000/svg" xmlns:xlink="http://www.w3.org/1999/xlink">
    <!-- Generator: sketchtool 61.2 (101010) - https://sketch.com -->
    <title>9226351E-E46E-4782-9D99-5C23EBDC70EF</title>
    <desc>Created with sketchtool.</desc>
    <g id="Page-2" stroke="none" stroke-width="1" fill="none" fill-rule="evenodd">
        <g id="Icon-切圖" transform="translate(-56.000000, -2646.000000)">
            <g id="Nav/Icon/ic_package" transform="translate(56.000000, 2646.000000)">
                <rect id="bg" fill="#D8D8D8" opacity="0" x="-2.27373675e-13" y="0" width="1024" height="1024"></rect>
                <path d="M537.663512,91.2620764 L542.116194,93.4681067 L874.666865,282.613428 C887.187847,289.735005 894.658596,302.164551 895.8413,315.351132 L896,321.830092 L896,700.120736 C896,709.175233 893.093817,717.561042 888.150246,724.422273 C885.260437,731.04057 880.625123,736.991034 874.442752,741.51839 L870.277116,744.214213 L537.726446,933.359535 C529.635874,937.961221 520.651361,939.655842 512.019211,938.772382 C504.94047,939.500732 497.611046,938.494054 490.733361,935.565565 L486.280678,933.359535 L153.730008,744.214213 C145.465188,739.51342 139.400767,732.499931 135.892736,724.482585 C131.845648,718.884229 129.144114,712.231586 128.294171,705.022589 L128,700.120736 L128.040461,320.882211 C127.437652,307.272318 133.590255,293.792495 145.174624,285.309251 L149.34026,282.613428 L481.89093,93.4681067 C491.379088,88.0715135 499.21607,86.5787578 512,86.0731019 C524.78393,85.5674459 529.360342,87.7266226 537.663512,91.2620764 Z M213.332542,407.863713 L213.332542,681.03159 L469.330167,826.631455 L469.330167,553.421546 L213.332542,407.863713 Z M810.660334,407.821681 L554.662709,553.421546 L554.662709,826.631455 L810.660334,681.03159 L810.660334,407.821681 Z M337.576723,272.603792 L241.876277,327.035612 L511.996438,480.621613 L607.526218,426.31589 L340.012031,274.166539 L337.576723,272.603792 Z M511.953772,173.407579 L422.738599,224.140557 L678.278897,369.493646 C682.913865,372.129883 686.856799,375.493473 690.044908,379.353569 L782.073933,326.99358 L511.953772,173.407579 Z" id="Shape" fill="#707E90"></path>
            </g>
        </g>
    </g>
</svg>
