<?xml version="1.0" encoding="UTF-8"?>
<svg width="1024px" height="1024px" viewBox="0 0 1024 1024" version="1.1" xmlns="http://www.w3.org/2000/svg" xmlns:xlink="http://www.w3.org/1999/xlink">
    <!-- Generator: sketchtool 61.2 (101010) - https://sketch.com -->
    <title>9E2D7712-D71B-468F-9C68-2B37DF8A2F61</title>
    <desc>Created with sketchtool.</desc>
    <g id="確定檔案" stroke="none" stroke-width="1" fill="none" fill-rule="evenodd">
        <g id="slice" transform="translate(-32.000000, -1997.000000)" fill="#000000">
            <g id="Group-12" transform="translate(32.000000, 1997.000000)">
                <path d="M812.679245,128 C858.566038,128 896,165.63522 896,211.320755 L896,211.320755 L896,812.679245 C896,858.566038 858.566038,896 812.679245,896 L812.679245,896 L211.320755,896 C165.433962,896 128,858.36478 128,812.679245 L128,812.679245 L128,211.320755 C128,165.433962 165.63522,128 211.320755,128 L211.320755,128 Z M833.006289,300.679245 L190.993711,300.679245 L190.993711,824.553459 L833.006289,824.553459 L833.006289,300.679245 Z M508.922328,435.451407 C519.811513,435.451407 528.775837,444.41573 528.775837,455.304915 L528.775837,455.304915 L528.775837,524.206124 L597.677045,524.206124 C608.56623,524.206124 617.530554,533.170447 617.530554,544.059632 C617.530554,554.948817 608.56623,563.91314 597.677045,563.91314 L597.677045,563.91314 L528.775837,563.91314 L528.775837,632.814349 C528.775837,643.703534 519.811513,652.667857 508.922328,652.667857 C498.033143,652.667857 489.06882,643.703534 489.06882,632.814349 L489.06882,632.814349 L489.06882,563.91314 L420.167611,563.91314 C409.121445,563.91314 400.314103,554.994313 400.314103,544.059632 C400.314103,533.170447 409.278426,524.206124 420.167611,524.206124 L420.167611,524.206124 L489.06882,524.206124 L489.06882,455.304915 C489.06882,444.41573 498.033143,435.451407 508.922328,435.451407 Z M377.761006,179.320755 C363.069182,179.320755 351.194969,191.194969 351.194969,205.886792 C351.194969,220.578616 363.069182,232.45283 377.761006,232.45283 C392.45283,232.45283 404.327044,220.578616 404.327044,205.886792 C404.327044,191.194969 392.45283,179.320755 377.761006,179.320755 Z M297.660377,179.320755 C282.968553,179.320755 271.09434,191.194969 271.09434,205.886792 C271.09434,220.578616 282.968553,232.45283 297.660377,232.45283 C312.352201,232.45283 324.226415,220.578616 324.226415,205.886792 C324.226415,191.194969 312.352201,179.320755 297.660377,179.320755 Z M217.559748,179.320755 C203.069182,179.320755 190.993711,191.194969 190.993711,205.886792 C190.993711,220.578616 202.867925,232.45283 217.559748,232.45283 C232.251572,232.45283 244.125786,220.578616 244.125786,205.886792 C244.125786,191.194969 232.251572,179.320755 217.559748,179.320755 Z" id="Mask"></path>
            </g>
        </g>
    </g>
</svg>