<?xml version="1.0" encoding="UTF-8"?>
<svg width="1024px" height="1024px" viewBox="0 0 1024 1024" version="1.1" xmlns="http://www.w3.org/2000/svg" xmlns:xlink="http://www.w3.org/1999/xlink">
    <title>ic_payments_outlines</title>
    <g id="icon-重構切圖" stroke="none" stroke-width="1" fill="none" fill-rule="evenodd">
        <g id="ic_payments_outlines">
            <g>
                <rect id="Rectangle" fill="#000000" opacity="0" x="64" y="64" width="896" height="896"></rect>
                <path d="M512,120 C295.525,120 120,295.525 120,512 C120,728.475 295.525,904 512,904 C728.475,904 904,728.475 904,512 C904,295.525 728.475,120 512,120 Z M512,837.5 C332.275,837.5 186.5,691.725 186.5,512 C186.5,332.275 332.275,186.5 512,186.5 C691.725,186.5 837.5,332.275 837.5,512 C837.5,691.725 691.725,837.5 512,837.5 Z M553.7375,491.7 L531.5125,486.5375 L531.5125,369.025 C564.7625,373.575 585.325,394.4 588.825,419.95 C589.2625,423.45 592.2375,425.9875 595.7375,425.9875 L635.025,425.9875 C639.1375,425.9875 642.375,422.4 642.025,418.2875 C636.6875,363.775 591.8,328.775 531.8625,322.7375 L531.8625,294.125 C531.8625,290.275 528.7125,287.125 524.8625,287.125 L500.275,287.125 C496.425,287.125 493.275,290.275 493.275,294.125 L493.275,323 C431.325,329.0375 382.85,363.25 382.85,427.125 C382.85,486.275 426.425,514.8 472.1875,525.7375 L493.8,531.25 L493.8,656.1125 C455.125,650.95 433.425,630.3 428.9625,602.475 C428.4375,599.15 425.4625,596.7 422.05,596.7 L381.625,596.7 C377.5125,596.7 374.275,600.2 374.625,604.3125 C378.5625,652.4375 415.05,696.7125 492.925,702.4 L492.925,729.875 C492.925,733.725 496.075,736.875 499.925,736.875 L524.775,736.875 C528.625,736.875 531.775,733.725 531.775,729.7875 L531.6,702.05 C600.1125,696.0125 649.1125,659.35 649.1125,593.55 C649.025,532.825 610.4375,505.7 553.7375,491.7 Z M493.7125,477.525 C488.8125,476.125 484.7,474.8125 480.5875,473.15 C451.0125,462.475 437.275,445.2375 437.275,423.0125 C437.275,391.25 461.3375,373.1375 493.7125,369.025 L493.7125,477.525 Z M531.5125,656.375 L531.5125,539.3875 C534.225,540.175 536.675,540.7875 539.2125,541.3125 C580.6,553.9125 594.5125,571.4125 594.5125,598.275 C594.5125,632.4875 568.7875,653.05 531.5125,656.375 Z" id="Shape" fill="#6F727D" fill-rule="nonzero"></path>
            </g>
        </g>
    </g>
</svg>