<?xml version="1.0" encoding="UTF-8"?>
<svg width="1024px" height="1024px" viewBox="0 0 1024 1024" version="1.1" xmlns="http://www.w3.org/2000/svg" xmlns:xlink="http://www.w3.org/1999/xlink">
    <title>E85699B4-5AC2-4709-8179-35736F7F1878</title>
    <g id="切圖" stroke="none" stroke-width="1" fill="none" fill-rule="evenodd">
        <g id="確認付款頁-slice" transform="translate(0.000000, -3072.000000)">
            <g id="Icon/ic_payment-info_outline" transform="translate(0.000000, 3072.000000)">
                <rect id="bg" fill-opacity="0" fill="#FFFFFF" x="64" y="64" width="896" height="896"></rect>
                <path d="M817,94 C876.050285,94 924.031806,141.391017 924.985531,200.214023 L925,202 L925,859 C925,898.366857 893.405988,930.354537 854.190652,930.990354 L853,931 L339.654489,931 C300.357408,930.936472 268.424528,899.424025 267.693162,860.222356 L267.680575,859.032098 L267.391,535 L170,535 C131.179905,535 99.6364981,503.844794 99.009512,465.174115 L99,464 L99,214 C99,148.388572 151.656686,95.0757714 217.015581,94.0160766 L219,94 L817,94 Z M817,165.999369 L329.014676,165.999369 C335.311227,180.410411 338.859181,196.297181 338.995896,212.997038 L339,214 L339,398.498 L339.270172,398.498529 L339.680447,858.909776 L339.687316,858.943033 L339.713,858.992279 L339.712644,859 L853,859 L853,202 C853,182.316572 837.202994,166.322731 817.595326,165.999369 L817,165.999369 Z M477.499854,735.500067 L721.065691,736.000067 C738.738765,736.036347 753.036212,750.392616 753.00007,768.065691 C752.964016,785.562035 738.893078,799.749926 721.463496,799.996732 L720.934309,799.999933 L477.368473,799.499933 C459.695398,799.463653 445.397951,785.107384 445.434094,767.434309 C445.470148,749.937965 459.541086,735.750074 476.970668,735.503268 L477.499854,735.500067 Z M477.499854,622.500067 L721.065691,623.000067 C738.738765,623.036347 753.036212,637.392616 753.00007,655.065691 C752.964016,672.562035 738.893078,686.749926 721.463496,686.996732 L720.934309,686.999933 L477.368473,686.499933 C459.695398,686.463653 445.397951,672.107384 445.434094,654.434309 C445.470148,636.937965 459.541086,622.750074 476.970668,622.503268 L477.499854,622.500067 Z M598.865008,202.000196 L599.394199,202.000196 C616.889253,202.217961 630.931944,216.433811 630.999804,233.865008 L630.997572,234.394199 L630.803974,250.117138 C648.140119,256.049096 664.910602,265.139797 679.187727,276.238621 C693.140692,287.085448 695.658714,307.189652 684.811887,321.142617 C674.073529,334.956052 654.262015,337.5621 640.328311,327.088175 L639.907892,326.766777 C614.657271,307.137321 582.890138,301.13023 569.672461,311.716863 C563.154219,316.937617 559.526436,325.282055 560.048216,332.924551 C560.496577,339.49168 563.686063,343.953126 570.596428,346.525462 L572.161899,347.105144 L574.575399,347.987585 L577.084349,348.89202 L579.707982,349.825753 L582.465535,350.796086 L602.588545,357.732263 L605.316134,358.679511 L607.947019,359.600649 L611.312255,360.791756 L613.735085,361.659933 L616.076285,362.508825 L618.340378,363.340481 L620.531886,364.156947 L621.954798,364.693831 L624.035379,365.489534 L626.055433,366.275507 L628.019482,367.053801 L629.932048,367.826461 L631.180724,368.33945 L632.409869,368.851453 L634.219895,369.618934 L635.406073,370.131125 L636.577408,370.644453 L637.735242,371.159524 L638.880914,371.676946 L640.579548,372.458814 L641.700675,372.984767 L642.814331,373.515195 L643.921853,374.050703 L645.024583,374.591899 L646.123859,375.139389 C663.287035,383.749766 676.401122,393.659003 685.664666,406.743056 C714.029016,446.805549 702.379259,499.765774 657.454375,527.535265 C649.176592,532.652024 640.154323,536.189851 630.629806,538.264217 L630.497572,548.979726 C630.279862,566.651497 615.777572,580.800808 598.105801,580.585577 C580.610747,580.367565 566.568056,566.151715 566.500196,548.720518 L566.502428,548.191327 L566.68791,533.186392 C544.925502,525.873555 524.147718,513.485716 508.130269,498.111972 C495.379914,485.874025 494.964526,465.617004 507.202473,452.866649 C519.31804,440.243798 539.293102,439.710447 552.063048,451.57551 L552.447795,451.938853 C574.292686,472.905848 609.341426,482.035603 623.803738,473.095991 C637.718476,464.494851 640.18797,453.268437 633.430953,443.724662 C632.227293,442.024584 630.470319,440.310016 628.038479,438.528267 L627.416389,438.081399 C626.886147,437.707793 626.326175,437.331079 625.735372,436.950783 L625.011541,436.492678 L624.25769,436.03095 C624.001357,435.876417 623.73995,435.721249 623.4734,435.565416 L622.658246,435.095895 L621.811808,434.622201 C621.668104,434.542895 621.523079,434.463407 621.376725,434.383733 L620.482568,433.90344 L619.556071,433.418518 L618.596812,432.928784 L617.351024,432.309571 L617.351024,432.309571 L616.052561,431.682197 C615.875885,431.597988 615.697781,431.513551 615.518243,431.428883 L613.863401,430.660531 L613.863401,430.660531 L612.716407,430.141063 L611.533908,429.615593 L610.315481,429.08394 L609.060705,428.54592 L607.769157,428.00135 L606.440416,427.450047 L605.07406,426.891829 L603.669665,426.326511 L602.226811,425.753913 L600.745076,425.17385 L599.224036,424.586139 L597.663271,423.990598 L596.062357,423.387043 L594.420874,422.775292 L591.881657,421.841897 L590.136903,421.208855 L588.350101,420.566976 L585.590137,419.587188 L582.733192,418.586489 L562.269748,411.533243 L559.305584,410.494305 L556.396954,409.463058 L553.602241,408.459816 L551.791892,407.802518 L550.016431,407.151624 L548.269561,406.504717 C517.29283,394.973841 498.324014,368.440296 496.196858,337.283908 C494.252794,308.80927 506.714868,280.144648 529.6632,261.764296 C540.713033,252.913987 553.312007,247.248991 566.868156,244.481271 L567.002428,233.605801 C567.217961,216.110747 581.433811,202.068056 598.865008,202.000196 Z M219,166 C192.755429,166 171.430309,187.062674 171.006431,213.206232 L171,214 L171,463 L267,463 L267,214 C267,188.017874 246.356473,166.857303 220.576534,166.025401 L219.793768,166.006431 L219,166 Z" id="Shape" fill="#000000" fill-rule="nonzero"></path>
            </g>
        </g>
    </g>
</svg>