<?xml version="1.0" encoding="UTF-8"?>
<svg width="1024px" height="1024px" viewBox="0 0 1024 1024" version="1.1" xmlns="http://www.w3.org/2000/svg" xmlns:xlink="http://www.w3.org/1999/xlink">
    <!-- Generator: sketchtool 61.2 (101010) - https://sketch.com -->
    <title>7F6196FD-C1B2-4A0C-8D5C-8B0A3C74E762</title>
    <desc>Created with sketchtool.</desc>
    <g id="確定檔案" stroke="none" stroke-width="1" fill="none" fill-rule="evenodd">
        <g id="slice" transform="translate(-32.000000, -3053.000000)" fill="#000000">
            <g id="Group-13" transform="translate(32.000000, 3053.000000)">
                <path d="M539.993096,68.4281143 L883.993096,266.971324 C901.323447,276.973718 912,295.463011 912,315.472732 L912,712.527268 C912,732.536989 901.323447,751.026282 883.993096,761.028676 L539.993096,959.571886 C522.670145,969.570009 501.329855,969.570009 484.006904,959.571886 L140.006904,761.028676 C122.676553,751.026282 112,732.536989 112,712.527268 L112,315.472732 C112,295.463011 122.676553,276.973718 140.006904,266.971324 L484.006904,68.4281143 C501.329855,58.4299913 522.670145,58.4299913 539.993096,68.4281143 Z M168,357.385522 L168,712.527268 L484,894.909522 L484,539.193522 L412,497.768522 L412,666 C412,688.427818 384.066265,698.49291 369.729758,681.564277 L369.299523,681.04301 L311.346,608.999 L258.133591,613.748829 C244.232762,614.98952 232.242042,604.160903 232.003618,590.265846 L232,589.843855 L232,394.207522 L168,357.385522 Z M856,357.385522 L540,539.193522 L540,894.909522 L856,712.527268 L856,357.385522 Z M785.320508,674.776479 C790.782665,684.237212 787.636823,696.30563 778.313076,701.912497 L778,702.096987 L607,800.823883 C597.434148,806.34673 585.202339,803.069227 579.679492,793.503375 C574.217335,784.042642 577.363177,771.974223 586.686924,766.367357 L587,766.182867 L758,667.455971 C767.565852,661.933123 779.797661,665.210626 785.320508,674.776479 Z M721.320508,614 C726.782665,623.460733 723.636823,635.529152 714.313076,641.136018 L714,641.320508 L607,703.096987 C597.434148,708.619834 585.202339,705.342331 579.679492,695.776479 C574.217335,686.315746 577.363177,674.247327 586.686924,668.640461 L587,668.455971 L694,606.679492 C703.565852,601.156644 715.797661,604.434148 721.320508,614 Z M280,421.823522 L280,563.606 L319.866409,560.048182 C327.712979,559.347852 335.393736,562.542827 340.428493,568.578137 L340.700477,568.910146 L364,597.875 L364,470.152522 L280,421.823522 Z M512,116.929522 L187.691,304.107522 L255.3,343.005522 L453.326585,225.366295 C460.670329,221.00367 469.768134,220.878156 477.219161,225.008821 L477.609781,225.230154 L609.025536,301.31858 C624.729597,310.411076 625.012236,332.904724 609.725656,342.43726 L609.25766,342.72213 L434.869,446.318522 L512,490.695522 L836.308,304.107522 L512,116.929522 Z M465.74,273.822 L303.042,370.474522 L387.125,418.850522 L549.561,322.354 L465.74,273.822 Z" id="Combined-Shape"></path>
            </g>
        </g>
    </g>
</svg>