<?xml version="1.0" encoding="UTF-8"?>
<svg width="1024px" height="1024px" viewBox="0 0 1024 1024" version="1.1" xmlns="http://www.w3.org/2000/svg" xmlns:xlink="http://www.w3.org/1999/xlink">
    <title>89B5511A-3E49-4A6D-8A86-9836080C2C28</title>
    <g id="頁面設計" stroke="none" stroke-width="1" fill="none" fill-rule="evenodd">
        <g id="slice" transform="translate(0.000000, -1184.000000)" fill="#000000" fill-rule="nonzero">
            <g id="ic_question" transform="translate(0.000000, 1184.000000)">
                <rect id="Rectangle" opacity="0" x="0" y="0" width="1024" height="1024"></rect>
                <path d="M504.311347,802.54823 C481.483767,802.54823 463.143661,809.960082 449.681242,824.583465 C433.877533,838.605888 426.073232,857.235678 426.073232,880.673154 C426.073232,902.708389 433.877533,921.338179 449.681242,936.762843 C463.924091,952.187507 482.264198,960 504.311347,960 C525.773175,960 544.698604,952.588148 561.087636,937.964765 C576.110915,922.5401 583.525001,903.50967 583.525001,880.673153 C583.525001,857.235676 575.915808,838.605887 561.087636,824.583465 C546.844787,809.759762 527.919358,802.54823 504.311347,802.54823 Z M705.397177,125.076018 C660.062401,84.3586729 599.616033,64 524.267956,64 C439.685017,64 373.152035,88.5563371 324.878895,137.878895 C275.556337,186.361919 251,252.475134 251,336.21854 L373.152035,336.21854 C373.152035,284.79715 383.436313,245.129221 404.214752,217.424636 C427.301906,185.10262 464.871003,168.941611 517.131926,168.941611 C558.688803,168.941611 591.01082,180.485188 614.097974,203.572343 C636.345596,227.499031 647.469407,258.981514 647.469407,298.229676 C647.469407,327.403444 636.975245,355.527796 616.40669,382.392848 L596.677667,404.220703 C525.107488,468.025203 481.451778,515.668694 465.29077,547.151178 C450.598944,576.324946 443.462914,612.844626 443.462914,656.71022 L443.462914,676.229359 L566.874249,676.229359 L566.874249,656.71022 C566.874249,627.536452 572.960862,601.720816 585.343972,579.473194 C595.208484,559.534287 611.159608,540.015148 632.567697,520.705892 C686.297802,474.531583 719.039585,444.518282 730.583162,430.665989 C758.917397,393.096892 773.189456,346.083051 773.189456,290.04423 C773.609224,220.572884 750.731952,165.793363 705.397177,125.076018 Z" id="Shape"></path>
            </g>
        </g>
    </g>
</svg>