<?xml version="1.0" encoding="UTF-8"?>
<svg width="1024px" height="1024px" viewBox="0 0 1024 1024" version="1.1" xmlns="http://www.w3.org/2000/svg" xmlns:xlink="http://www.w3.org/1999/xlink">
    <title>24C85211-E174-4CB8-81B3-B888EADC77F6</title>
    <g id="前台加購區塊" stroke="none" stroke-width="1" fill="none" fill-rule="evenodd">
        <g id="ic_right-arrow_circle">
            <rect id="bg" fill-opacity="0" fill="#FFFFFF" x="0" y="0" width="1024" height="1024"></rect>
            <path d="M512,64 C759.423568,64 960,264.576432 960,512 C960,759.423568 759.423568,960 512,960 C264.576432,960 64,759.423568 64,512 C64,264.576432 264.576432,64 512,64 Z M512,101.333333 C285.195063,101.333333 101.333333,285.195063 101.333333,512 C101.333333,738.804937 285.195063,922.666667 512,922.666667 C738.804937,922.666667 922.666667,738.804937 922.666667,512 C922.666667,285.195063 738.804937,101.333333 512,101.333333 Z M471.925105,354.17538 L472.204333,354.433216 L624.204333,497.433216 C632.505325,505.242701 632.597558,518.373856 624.481033,526.3016 L624.204333,526.566842 L472.204333,669.566842 C464.159305,677.13552 451.501894,676.749362 443.933216,668.704333 C436.451534,660.751776 436.74287,648.29226 444.521346,640.696207 L444.795725,640.433216 L581.313029,512.000029 L444.795725,383.566842 C436.843168,376.08516 436.374427,363.631056 443.67538,355.574953 L443.933216,355.295725 C451.414898,347.343168 463.869002,346.874427 471.925105,354.17538 Z" id="Shape" fill="#000000" fill-rule="nonzero"></path>
        </g>
    </g>
</svg>