<svg width="1024" height="1024" viewBox="0 0 1024 1024" fill="none" xmlns="http://www.w3.org/2000/svg">
  <path d="M128 286.667C128 310.133 147.2 329.333 170.667 329.333H853.333C876.8 329.333 896 310.133 896 286.667C896 263.2 876.8 244 853.333 244H170.667C147.2 244 128 263.2 128 286.667Z" fill="#8C8C8C"/>
  <path d="M733.333 554.666H290.667C267.2 554.666 248 535.466 248 512C248 488.533 267.2 469.333 290.667 469.333H733.333C756.8 469.333 776 488.533 776 512C776 535.466 756.8 554.666 733.333 554.666Z" fill="#8C8C8C"/>
  <path d="M618.667 780H405.333C381.867 780 362.667 760.8 362.667 737.334C362.667 713.867 381.867 694.667 405.333 694.667H618.667C642.133 694.667 661.333 713.867 661.333 737.334C661.333 760.8 642.133 780 618.667 780Z" fill="#8C8C8C"/>
</svg>
