<?xml version="1.0" encoding="UTF-8"?>
<svg width="1024px" height="1024px" viewBox="0 0 1024 1024" version="1.1" xmlns="http://www.w3.org/2000/svg" xmlns:xlink="http://www.w3.org/1999/xlink">
    <!-- Generator: sketchtool 61.2 (101010) - https://sketch.com -->
    <title>466D7485-4BA1-42A2-867E-AD01A234FA7B</title>
    <desc>Created with sketchtool.</desc>
    <g id="Page-2" stroke="none" stroke-width="1" fill="none" fill-rule="evenodd">
        <g id="Icon-切圖" transform="translate(-8.000000, -10374.000000)">
            <g id="Nav/Icon/ic_setting" transform="translate(8.000000, 10374.000000)">
                <rect id="bg" fill="#D8D8D8" opacity="0" x="0" y="0" width="1024" height="1024"></rect>
                <path d="M512,85.3333333 L519.520972,85.5506216 C581.636036,89.149651 631.868328,137.041302 639.104393,198.112118 L639.573333,203.904 L644.570056,199.783849 C694.789272,160.601909 767.505449,164.107662 813.698893,210.301107 L818.863378,215.772883 C860.090546,262.071406 861.883031,331.121387 824.240834,379.398297 L820.053333,384.384 L825.594171,384.86115 C889.253522,392.255083 938.666667,446.357013 938.666667,512 L938.449378,519.520972 C934.850349,581.636036 886.958698,631.868328 825.887882,639.104393 L820.053333,639.573333 L824.216151,644.570056 C863.398091,694.789272 859.892338,767.505449 813.698893,813.698893 L808.227117,818.863378 C761.928594,860.090546 692.878613,861.883031 644.601703,824.240834 L639.573333,820.053333 L639.13885,825.594171 C631.744917,889.253522 577.642987,938.666667 512,938.666667 L504.479028,938.449378 C442.363964,934.850349 392.131672,886.958698 384.895607,825.887882 L384.384,820.053333 L379.429944,824.216151 C329.210728,863.398091 256.494551,859.892338 210.301107,813.698893 L205.136622,808.227117 C163.909454,761.928594 162.116969,692.878613 199.759166,644.601703 L203.904,639.573333 L198.405829,639.13885 C134.746478,631.744917 85.3333333,577.642987 85.3333333,512 L85.5506216,504.479028 C89.149651,442.363964 137.041302,392.131672 198.112118,384.895607 L203.904,384.384 L199.783849,379.429944 C160.601909,329.210728 164.107662,256.494551 210.301107,210.301107 L215.772883,205.136622 C262.071406,163.909454 331.121387,162.116969 379.398297,199.759166 L384.384,203.904 L384.86115,198.405829 C392.255083,134.746478 446.357013,85.3333333 512,85.3333333 Z M512,170.666667 L507.024165,170.953717 C485.804381,173.418361 469.333333,191.452338 469.333333,213.333333 L469.507398,217.243756 L469.507398,217.243756 L471.053848,227.317506 C471.889694,235.972848 470.038062,244.401527 466.105596,251.66434 C458.843654,272.119817 442.842848,286.010858 421.383576,293.11671 C401.139448,303.297778 379.982058,304.800998 360.363196,295.465513 C352.450876,293.107734 345.181598,288.457059 339.652379,281.745776 L333.314267,273.164018 L330.980664,270.640885 C315.600015,255.260236 291.398157,254.077109 274.660398,267.091505 L270.640885,270.640885 L267.325414,274.362307 C254.063528,291.109727 255.168685,315.508464 270.640885,330.980664 L273.529054,333.622668 L273.529054,333.622668 L281.745776,339.652379 C288.457059,345.181598 293.107734,352.450876 295.462645,360.367134 C304.80002,379.983402 303.297444,401.139906 293.124079,421.354476 C286.01077,442.843411 272.119558,458.845299 251.663583,466.110408 C244.401527,470.038062 235.972848,471.889694 227.317506,471.053848 L216.767564,469.467351 L213.333333,469.333333 C191.452338,469.333333 173.418361,485.804381 170.953717,507.024165 L170.666667,512 L170.953717,516.975835 C173.418361,538.195619 191.452338,554.666667 213.333333,554.666667 L218.837333,554.282667 L227.317506,552.946152 C235.972848,552.110306 244.401527,553.961938 251.66434,557.894404 C272.078381,565.141636 285.954554,581.092363 293.073445,602.486083 C303.291391,622.771336 304.820679,643.976581 295.465513,663.636804 C293.107734,671.549124 288.457059,678.818402 281.745776,684.347621 L273.164018,690.685733 L270.640885,693.019336 C255.260236,708.399985 254.077109,732.601843 267.091505,749.339602 L270.640885,753.359115 L274.362307,756.674586 C291.109727,769.936472 315.508464,768.831315 330.980664,753.359115 L333.622668,750.470946 L333.622668,750.470946 L339.652379,742.254224 C345.181598,735.542941 352.450876,730.892266 360.367134,728.537355 C379.983402,719.19998 401.139906,720.702556 421.354476,730.875921 C442.843411,737.98923 458.845299,751.880442 466.110408,772.336417 C470.038062,779.598473 471.889694,788.027152 471.053848,796.682494 L469.467351,807.232436 L469.333333,810.666667 C469.333333,832.547662 485.804381,850.581639 507.024165,853.046283 L512,853.333333 L516.975835,853.046283 C538.195619,850.581639 554.666667,832.547662 554.666667,810.666667 L554.492602,806.756244 L554.492602,806.756244 L554.282667,805.162667 L552.946152,796.682494 C552.110306,788.027152 553.961938,779.598473 557.894404,772.33566 C565.156346,751.880183 581.157152,737.989142 602.616424,730.88329 C622.860552,720.702222 644.017942,719.199002 663.636804,728.534487 C671.549124,730.892266 678.818402,735.542941 684.347621,742.254224 L690.685733,750.835982 L693.019336,753.359115 C708.399985,768.739764 732.601843,769.922891 749.339602,756.908495 L753.359115,753.359115 L756.674586,749.637693 C769.936472,732.890273 768.831315,708.491536 753.359115,693.019336 L750.470946,690.377332 L750.470946,690.377332 L742.254224,684.347621 C735.542941,678.818402 730.892266,671.549124 728.537355,663.632866 C719.19998,644.016598 720.702556,622.860094 730.875921,602.645524 C737.98923,581.156589 751.880442,565.154701 772.336417,557.889592 C779.598473,553.961938 788.027152,552.110306 796.682494,552.946152 L807.232436,554.532649 L810.666667,554.666667 C832.547662,554.666667 850.581639,538.195619 853.046283,516.975835 L853.333333,512 L853.046283,507.024165 C850.581639,485.804381 832.547662,469.333333 810.666667,469.333333 L806.756244,469.507398 L806.756244,469.507398 L796.682494,471.053848 C788.027152,471.889694 779.598473,470.038062 772.33566,466.105596 C751.880183,458.843654 737.989142,442.842848 730.88329,421.383576 C720.702222,401.139448 719.199002,379.982058 728.534487,360.363196 C730.892266,352.450876 735.542941,345.181598 742.254224,339.652379 L750.835982,333.314267 L753.359115,330.980664 C768.739764,315.600015 769.922891,291.398157 756.908495,274.660398 L753.359115,270.640885 L749.637693,267.325414 C732.890273,254.063528 708.491536,255.168685 693.019336,270.640885 L690.377332,273.529054 L690.377332,273.529054 L684.347621,281.745776 C678.818402,288.457059 671.549124,293.107734 663.632866,295.462645 C644.016598,304.80002 622.860094,303.297444 602.645524,293.124079 C581.156589,286.01077 565.154701,272.119558 557.889592,251.663583 C553.961938,244.401527 552.110306,235.972848 552.946152,227.317506 L554.532649,216.767564 L554.666667,213.333333 C554.666667,191.452338 538.195619,173.418361 516.975835,170.953717 L512,170.666667 Z M512,341.333333 C606.256597,341.333333 682.666667,417.743403 682.666667,512 C682.666667,606.256597 606.256597,682.666667 512,682.666667 C417.743403,682.666667 341.333333,606.256597 341.333333,512 C341.333333,417.743403 417.743403,341.333333 512,341.333333 Z M512,426.666667 C464.871701,426.666667 426.666667,464.871701 426.666667,512 C426.666667,559.128299 464.871701,597.333333 512,597.333333 C559.128299,597.333333 597.333333,559.128299 597.333333,512 C597.333333,464.871701 559.128299,426.666667 512,426.666667 Z" id="Shape" fill="#707E90"></path>
            </g>
        </g>
    </g>
</svg>
