<?xml version="1.0" encoding="UTF-8"?>
<svg width="1024px" height="1024px" viewBox="0 0 1024 1024" version="1.1" xmlns="http://www.w3.org/2000/svg" xmlns:xlink="http://www.w3.org/1999/xlink">
    <title>C2412E2C-0425-4455-ACD1-7396F5CCC6DE</title>
    <g id="站內付-付款確認頁" stroke="none" stroke-width="1" fill="none" fill-rule="evenodd">
        <g id="Icon/ic_shield_outline">
            <rect id="bg" fill-opacity="0" fill="#FFFFFF" x="64" y="64" width="896" height="896"></rect>
            <path d="M499.359556,82.0421496 C507.33225,79.0523892 516.100486,78.9873945 524.107769,81.8471652 L524.640444,82.0421496 L841.640444,200.91715 C855.549449,206.133027 864.811463,219.348068 865,234.170749 L865,234.625 L865,512 C865,574.852335 845.624169,635.401806 810.128449,693.082351 C780.813754,740.718731 741.319192,785.150113 694.206166,826.374011 C658.617353,857.514222 620.674383,885.118203 582.683477,908.998597 L580.611212,910.29747 L577.912017,911.978042 L576.571978,912.807588 L573.250308,914.850067 L573.250308,914.850067 L569.970093,916.84762 L568.669853,917.634037 L566.090052,919.185222 L563.538276,920.707495 L562.273068,921.457771 L559.764349,922.936566 L557.285014,924.386303 L556.056535,925.100256 L553.622293,926.506298 L551.218792,927.883135 L550.028739,928.560585 L547.672368,929.893509 L545.348096,931.197084 L543.056466,932.471253 L542.256576,932.913345 L539.926036,934.193139 L537.700619,935.40305 L534.900095,936.907199 L532.294079,938.286251 L529.987012,939.487296 L528.598065,940.19814 L527.607901,940.690625 C517.744733,945.436458 506.255267,945.436458 496.392099,940.690625 L495.900311,940.449379 L495.401935,940.19814 L493.29387,939.115283 L491.07289,937.953243 L489.099905,936.907199 L486.299381,935.40305 L484.827541,934.604217 L483.308707,933.774295 L480.943534,932.471253 L478.651904,931.197084 L475.741527,929.563027 L475.741527,929.563027 L472.781208,927.883135 L470.377707,926.506298 L467.943465,925.100256 L466.714986,924.386303 L466.714986,924.386303 L465.479025,923.66507 L462.98493,922.200797 L460.461724,920.707495 L457.909948,919.185222 L456.623517,918.41324 L454.029907,916.84762 L452.722864,916.053998 L450.088641,914.445162 L448.761597,913.629963 L446.087983,911.978042 L443.388788,910.29747 C404.70614,886.120815 366.029716,858.080408 329.793834,826.374011 C282.680808,785.150113 243.186246,740.718731 213.871551,693.082351 C178.730788,635.978612 159.389129,576.063038 159,513.884879 L159,512 L159,234.625 C159,219.770176 168.121519,206.457771 181.935227,201.079311 L182.359556,200.91715 L499.359556,82.0421496 Z M512,154.197 L231,259.572 L231,512 C231,559.625977 245.693319,606.490356 273.482093,652.543165 L274.328184,653.938456 L275.190949,655.347336 C293.632015,685.314069 317.243929,714.342397 345.086022,742.189791 L346.458711,743.558382 L348.907,745.978049 C357.922987,754.839125 367.366263,763.578574 377.206166,772.188489 C409.700925,800.621403 444.616071,826.025147 479.570153,848.001321 L481.548712,849.241592 L484.216462,850.902128 L486.855073,852.531062 L489.463848,854.128293 L490.756829,854.91499 L493.319542,856.464483 L495.850674,857.982025 L497.10418,858.728783 L499.586633,860.198213 L502.035762,861.635445 L504.450868,863.040378 L505.645445,863.730701 L508.008209,865.087001 L510.335207,866.410753 L512,867.349 L512.514925,867.060393 L514.827825,865.750649 L517.176965,864.408195 L519.561643,863.033132 C520.362381,862.569353 521.168925,862.100157 521.981159,861.625558 L523.203762,860.909611 L525.674219,859.45346 L528.17776,857.965049 L529.441717,857.208777 L531.993569,855.672163 L534.576751,854.103538 L537.190563,852.503003 L539.834302,850.870658 L541.167176,850.042587 L542.451288,849.241592 C578.065515,826.982701 613.685966,801.157873 646.793834,772.188489 C655.930887,764.193568 664.72595,756.086957 673.154474,747.874986 L675.093,745.978049 L677.541289,743.558382 C705.980521,715.293894 730.065672,685.805327 748.809051,655.347336 C777.415007,608.862658 792.692719,561.548895 793,513.457551 L793,512 L793,259.572 L512,154.197 Z M512,611.2 C536.300529,611.2 556,630.899471 556,655.2 C556,679.500529 536.300529,699.2 512,699.2 C487.699471,699.2 468,679.500529 468,655.2 C468,630.899471 487.699471,611.2 512,611.2 Z M512,312 C536.300529,312 556,331.699471 556,356 L556,523.2 C556,547.500529 536.300529,567.2 512,567.2 C487.699471,567.2 468,547.500529 468,523.2 L468,356 C468,331.699471 487.699471,312 512,312 Z" id="shape" fill="#363B4A"></path>
        </g>
    </g>
</svg>