<svg width="15" height="12" viewBox="0 0 15 12" fill="none" xmlns="http://www.w3.org/2000/svg">
<path fill-rule="evenodd" clip-rule="evenodd" d="M14.3326 8.08906H13.9906V5.72965C13.9906 5.45246 13.8816 5.18618 13.6893 4.98975L11.5539 2.80931C11.3615 2.61288 11.1007 2.50156 10.8293 2.50156H9.88664V1.45391C9.88664 0.875513 9.42708 0.40625 8.86064 0.40625H2.02063C1.45419 0.40625 0.994629 0.875513 0.994629 1.45391V8.43828C0.994629 9.01667 1.45419 9.48594 2.02063 9.48594H2.36263C2.36263 10.6427 3.28176 11.5813 4.41463 11.5813C5.54751 11.5813 6.46664 10.6427 6.46664 9.48594H9.20264C9.20264 10.6427 10.1218 11.5813 11.2546 11.5813C12.3875 11.5813 13.3066 10.6427 13.3066 9.48594H14.3326C14.5207 9.48594 14.6746 9.32879 14.6746 9.13672V8.43828C14.6746 8.24621 14.5207 8.08906 14.3326 8.08906ZM12.9646 5.99375H9.88664V3.54922H10.8293L12.9646 5.72965V5.99375ZM5.2792 9.48438C5.2792 9.95899 4.9024 10.3438 4.43759 10.3438C3.97278 10.3438 3.59597 9.95899 3.59597 9.48438C3.59597 9.00976 3.97278 8.625 4.43759 8.625C4.9024 8.625 5.2792 9.00976 5.2792 9.48438ZM11.3082 10.3438C11.773 10.3438 12.1498 9.95899 12.1498 9.48438C12.1498 9.00976 11.773 8.625 11.3082 8.625C10.8434 8.625 10.4666 9.00976 10.4666 9.48438C10.4666 9.95899 10.8434 10.3438 11.3082 10.3438Z" fill="#51B7BE" fill-opacity="0.6"/>
</svg>
