<svg width="1046" height="1024" viewBox="0 0 1046 1024" fill="none" xmlns="http://www.w3.org/2000/svg">
<path fill-rule="evenodd" clip-rule="evenodd" d="M936.65 645.7H914.3V494.698C914.3 476.957 907.176 459.916 894.604 447.344L755.056 307.796C742.484 295.224 725.443 288.1 707.702 288.1H646.1V221.05C646.1 184.033 616.067 154 579.05 154H132.05C95.0328 154 65 184.033 65 221.05V668.05C65 705.067 95.0328 735.1 132.05 735.1H154.4C154.4 809.134 214.466 869.2 288.5 869.2C362.534 869.2 422.6 809.134 422.6 735.1H601.4C601.4 809.134 661.466 869.2 735.5 869.2C809.534 869.2 869.6 809.134 869.6 735.1H936.65C948.943 735.1 959 725.042 959 712.75V668.05C959 655.758 948.943 645.7 936.65 645.7ZM847.25 511.6H646.1V355.15H707.702L847.25 494.698V511.6ZM345 735C345 765.376 320.376 790 290 790C259.624 790 235 765.376 235 735C235 704.624 259.624 680 290 680C320.376 680 345 704.624 345 735ZM739 790C769.376 790 794 765.376 794 735C794 704.624 769.376 680 739 680C708.624 680 684 704.624 684 735C684 765.376 708.624 790 739 790Z" fill="#8C8C8C"/>
</svg>
