<?xml version="1.0" encoding="UTF-8"?>
<svg width="1024px" height="1024px" viewBox="0 0 1024 1024" version="1.1" xmlns="http://www.w3.org/2000/svg" xmlns:xlink="http://www.w3.org/1999/xlink">
    <title>ic_shop_outlines</title>
    <g id="icon-重構切圖" stroke="none" stroke-width="1" fill="none" fill-rule="evenodd">
        <g id="ic_shop_outlines">
            <g>
                <rect id="Rectangle" fill="#000000" opacity="0" x="65" y="65" width="894.340741" height="894.340741"></rect>
                <path d="M837.167407,301.449319 L837.167407,188.930074 C837.167407,173.382919 824.606711,160.822222 809.059556,160.822222 L215.281185,160.822222 C199.73403,160.822222 187.173333,173.382919 187.173333,188.930074 L187.173333,301.449319 C172.504548,302.327689 160.822222,314.537037 160.822222,329.469333 L160.822222,445.150711 C160.822222,466.582948 165.0384,487.400326 173.470756,506.987985 C177.247748,515.947363 181.903111,524.379719 187.173333,532.372889 L187.173333,835.410667 C187.173333,850.869985 199.73403,863.518519 215.281185,863.518519 L809.059556,863.518519 C824.606711,863.518519 837.167407,850.957822 837.167407,835.410667 L837.167407,532.372889 C842.525467,524.379719 847.092993,515.859526 850.869985,506.987985 C859.214504,487.400326 863.518519,466.582948 863.518519,445.150711 L863.518519,329.469333 C863.518519,314.537037 851.836193,302.327689 837.167407,301.449319 Z M250.416,224.064889 L773.924741,224.064889 L773.924741,301.361481 L250.416,301.361481 L250.416,224.064889 Z M568.386074,800.363689 L455.954667,800.363689 L455.954667,708.925333 L568.386074,708.925333 L568.386074,800.363689 Z M773.924741,800.363689 L624.601778,800.363689 L624.601778,680.817481 C624.601778,665.270326 612.041081,652.70963 596.493926,652.70963 L427.846815,652.70963 C412.299659,652.70963 399.738963,665.270326 399.738963,680.817481 L399.738963,800.363689 L250.416,800.363689 L250.416,587.622385 C252.963274,588.852104 255.598385,590.081822 258.321333,591.135867 C277.908993,599.392548 298.72637,603.520889 320.158607,603.520889 C341.590844,603.520889 362.320385,599.392548 381.995881,591.135867 C394.117393,586.041319 405.536207,579.541378 415.988815,571.723881 C416.164489,571.636044 416.340163,571.636044 416.515837,571.723881 C426.968444,579.541378 438.299422,586.041319 450.50877,591.135867 C470.09643,599.392548 490.913807,603.520889 512.346044,603.520889 C533.778281,603.520889 554.507822,599.392548 574.183319,591.135867 C586.30483,586.041319 597.723644,579.541378 608.176252,571.723881 C608.351926,571.636044 608.5276,571.636044 608.703274,571.723881 C619.155881,579.541378 630.486859,586.041319 642.696207,591.135867 C662.283867,599.392548 683.101244,603.520889 704.533481,603.520889 C725.965719,603.520889 746.695259,599.392548 766.370756,591.135867 C769.005867,589.993985 771.640978,588.852104 774.276089,587.622385 L774.276089,800.363689 L773.924741,800.363689 Z M800.275852,445.150711 C800.275852,497.677259 757.235704,540.278222 704.26997,540.278222 C668.432459,540.278222 637.162474,520.866237 620.649111,492.055689 C618.101837,487.663837 613.534311,484.940889 608.439763,484.940889 L607.912741,484.940889 C602.90603,484.940889 598.250667,487.663837 595.703393,492.055689 C579.277867,520.866237 548.007881,540.278222 512.17037,540.278222 C476.420696,540.278222 445.238548,520.954074 428.725185,492.231363 C426.090074,487.751674 421.346874,484.940889 416.164489,484.940889 C410.982104,484.940889 406.151067,487.751674 403.603793,492.231363 C387.002593,520.954074 355.820444,540.278222 320.07077,540.278222 C267.105037,540.278222 224.064889,497.677259 224.064889,445.150711 L224.064889,365.043333 C224.064889,364.779822 224.240563,364.604148 224.504074,364.604148 L799.836667,364.604148 C800.100178,364.604148 800.275852,364.779822 800.275852,365.043333 L800.275852,445.150711 L800.275852,445.150711 Z" id="Shape" fill="#6F727D" fill-rule="nonzero"></path>
            </g>
        </g>
    </g>
</svg>