<?xml version="1.0" encoding="UTF-8"?>
<svg width="1024px" height="1024px" viewBox="0 0 1024 1024" version="1.1" xmlns="http://www.w3.org/2000/svg" xmlns:xlink="http://www.w3.org/1999/xlink">
    <!-- Generator: sketchtool 61.2 (101010) - https://sketch.com -->
    <title>A6AFA7D5-FAC0-4517-9352-93D20456D767</title>
    <desc>Created with sketchtool.</desc>
    <g id="Page-2" stroke="none" stroke-width="1" fill="none" fill-rule="evenodd">
        <g id="Icon-切圖" transform="translate(-56.000000, -7062.000000)">
            <g id="Nav/Icon/ic_store" transform="translate(56.000000, 7062.000000)">
                <rect id="bg" fill="#D8D8D8" opacity="0" x="0" y="0" width="1024" height="1024"></rect>
                <path d="M768.023487,85.3333333 C783.90964,85.3333333 798.480343,94.159282 805.838049,108.238842 L933.838049,353.177114 C937.025448,359.276457 938.690154,366.056303 938.690154,372.938272 C938.690154,420.897735 916.278548,459.4955 874.599168,483.422552 C867.876739,487.281724 860.788531,490.499309 853.334522,493.093722 L853.333333,811.720165 C853.333333,878.291931 805.6286,934.516107 743.016572,938.447207 L736,938.666667 L288,938.666667 C224.328719,938.666667 174.350011,884.820054 170.861316,819.072314 L170.666667,811.720165 L170.665948,493.085708 C163.220364,490.492684 156.139828,487.277751 149.424319,483.422552 C107.744939,459.4955 85.3333333,420.897735 85.3333333,372.938272 C85.3333333,366.056303 86.9980396,359.276457 90.1854383,353.177114 L90.1854383,353.177114 L218.185438,108.238842 C225.543144,94.159282 240.113848,85.3333333 256,85.3333333 L256,85.3333333 L768.023487,85.3333333 Z M505.897891,482.47055 L505.854369,482.498995 C476.5598,502.01325 442.742767,512 405.333333,512 C370.905444,512 339.520143,503.541708 311.902369,486.98308 C311.418306,487.139562 310.930156,487.289218 310.438245,487.430415 C291.19709,492.953339 273.050756,496.888012 255.999137,499.139117 L256,811.720165 C256,833.925286 269.253926,850.593712 284.227465,853.026694 L288,853.333333 L384,853.334335 L384,853.334335 L384,725.333333 C384,678.205035 422.205035,640 469.333333,640 L554.666667,640 C601.794965,640 640,678.205035 640,725.333333 L639.999333,853.333333 L736,853.333333 C751.180042,853.333333 765.601663,838.372994 767.730551,817.151063 L768,811.720165 L768.000379,499.135952 C750.955725,496.884324 732.817381,492.950751 713.585242,487.430415 C710.649209,486.587665 707.847129,485.443525 705.213634,484.033245 C669.95212,502.523214 633.914388,512 597.331024,512 C560.462979,512 529.297683,502.030343 505.897891,482.47055 Z M554.666667,725.333333 L469.333333,725.333333 L469.333333,853.333333 L554.666667,853.333333 L554.666667,725.333333 Z M469.330333,170.666333 L416.738333,170.666333 L352.188773,411.532285 C365.2764,420.225242 379.811836,425.06851 396.340096,426.331207 L397.222164,426.395066 L405.333333,426.666667 C430.140165,426.666667 450.627091,419.363081 468.414191,403.955954 L468.414191,403.955954 L469.330333,403.073333 L469.330333,170.666333 Z M607.284333,170.666333 L554.666333,170.666333 L554.666333,410.029333 L555.090962,410.735184 C562.67713,421.651897 575.149841,426.666667 597.331024,426.666667 L605.527133,426.397464 C626.580253,425.016522 648.120017,418.306908 670.326583,405.905403 L607.284333,170.666333 Z M327.110333,170.666333 L281.813333,170.666667 L171.349333,382.037333 L171.594921,383.535913 C173.485929,393.217851 178.368701,400.327461 187.174742,406.437784 L187.174742,406.437784 L191.909014,409.416954 C204.546819,416.67199 226.158466,418.354398 256.741931,412.647931 C256.996814,411.299451 257.318083,409.957048 257.706667,408.624762 L257.706667,408.624762 L327.110333,170.666333 Z M742.210154,170.666667 L696.886333,170.666333 L766.291024,408.624762 C766.679781,409.957641 767.000822,411.298524 767.255563,412.643113 C797.853224,418.355316 819.473219,416.67397 832.114473,409.416954 L836.848745,406.437784 C845.654786,400.327461 850.537558,393.217851 852.428566,383.535913 L852.674154,382.037333 L742.210154,170.666667 Z" id="Combined-Shape" fill="#707E90"></path>
            </g>
        </g>
    </g>
</svg>
