<?xml version="1.0" encoding="UTF-8"?>
<svg width="1024px" height="1024px" viewBox="0 0 1024 1024" version="1.1" xmlns="http://www.w3.org/2000/svg" xmlns:xlink="http://www.w3.org/1999/xlink">
    <title>ic_third-party_outlines</title>
    <g id="icon-重構切圖" stroke="none" stroke-width="1" fill="none" fill-rule="evenodd">
        <g id="ic_third-party_outlines">
            <g>
                <rect id="Rectangle" fill="#000000" opacity="0" x="64" y="64" width="896" height="896"></rect>
                <path d="M866.9875,194.2 L829.8875,157.1 C828.4875,155.7 826.7375,155.0875 824.9,155.0875 C823.0625,155.0875 821.3125,155.7875 819.9125,157.1 L753.325,223.6875 C723.8375,203.65 689.5375,193.675 655.2375,193.675 C610.4375,193.675 565.6375,210.7375 531.425,244.95 L442.2625,334.1125 C439.55,336.825 439.55,341.2875 442.2625,344 L680,581.7375 C681.4,583.1375 683.15,583.75 684.9875,583.75 C686.7375,583.75 688.575,583.05 689.975,581.7375 L779.1375,492.575 C839.425,432.2 846.5125,338.8375 800.4,270.7625 L866.9875,204.175 C869.7,201.375 869.7,196.9125 866.9875,194.2 Z M736.9625,450.4875 L684.9875,502.4625 L521.5375,339.0125 L573.5125,287.0375 C595.3,265.25 624.35,253.175 655.2375,253.175 C686.125,253.175 715.0875,265.1625 736.9625,287.0375 C758.75,308.825 770.825,337.875 770.825,368.7625 C770.825,399.65 758.75,428.6125 736.9625,450.4875 L736.9625,450.4875 Z M570.5375,542.3625 C567.825,539.65 563.3625,539.65 560.65,542.3625 L502.375,600.6375 L423.3625,521.625 L481.725,463.2625 C484.4375,460.55 484.4375,456.0875 481.725,453.375 L449.875,421.525 C447.1625,418.8125 442.7,418.8125 439.9875,421.525 L381.625,479.8875 L344,442.2625 C342.6,440.8625 340.85,440.25 339.0125,440.25 C337.2625,440.25 335.425,440.95 334.025,442.2625 L244.95,531.425 C184.6625,591.8 177.575,685.1625 223.6875,753.2375 L157.1,819.825 C154.3875,822.5375 154.3875,827 157.1,829.7125 L194.2,866.8125 C195.6,868.2125 197.35,868.825 199.1875,868.825 C201.025,868.825 202.775,868.125 204.175,866.8125 L270.7625,800.225 C300.25,820.2625 334.55,830.2375 368.85,830.2375 C413.65,830.2375 458.45,813.175 492.6625,778.9625 L581.825,689.8 C584.5375,687.0875 584.5375,682.625 581.825,679.9125 L544.2,642.2875 L602.5625,583.925 C605.275,581.2125 605.275,576.75 602.5625,574.0375 L570.5375,542.3625 L570.5375,542.3625 Z M450.4875,736.9625 C428.7,758.75 399.65,770.825 368.7625,770.825 C337.875,770.825 308.9125,758.8375 287.0375,736.9625 C265.25,715.175 253.175,686.125 253.175,655.2375 C253.175,624.35 265.1625,595.3875 287.0375,573.5125 L339.0125,521.5375 L502.4625,684.9875 L450.4875,736.9625 L450.4875,736.9625 Z" id="Shape" fill="#6F727D" fill-rule="nonzero"></path>
            </g>
        </g>
    </g>
</svg>