<?xml version="1.0" encoding="UTF-8"?>
<svg width="1024px" height="1024px" viewBox="0 0 1024 1024" version="1.1" xmlns="http://www.w3.org/2000/svg" xmlns:xlink="http://www.w3.org/1999/xlink">
    <!-- Generator: sketchtool 61.2 (101010) - https://sketch.com -->
    <title>BAD7A887-953B-49BC-B7FA-000F1C3B5FA4</title>
    <desc>Created with sketchtool.</desc>
    <g id="Page-2" stroke="none" stroke-width="1" fill="none" fill-rule="evenodd">
        <g id="Icon-切圖" transform="translate(-56.000000, -5958.000000)">
            <g id="Nav/Icon/ic_users" transform="translate(56.000000, 5958.000000)">
                <rect id="bg" fill="#D8D8D8" opacity="0" x="0" y="0" width="1024" height="1024"></rect>
                <path d="M810.666667,597.333333 C878.834384,597.333333 934.556198,650.620585 938.449378,717.812361 L938.666667,725.333333 L938.666667,810.666667 C938.666667,834.230816 919.564149,853.333333 896,853.333333 C874.119004,853.333333 856.085028,836.862285 853.620383,815.642501 L853.333333,810.666667 L853.333333,725.333333 C853.333333,703.452338 836.862285,685.418361 815.642501,682.953717 L810.666667,682.666667 C787.102417,682.666667 768,663.564149 768,640 C768,616.435851 787.102417,597.333333 810.666667,597.333333 Z M597.333333,597.333333 C665.501051,597.333333 721.222864,650.620585 725.116045,717.812361 L725.333333,725.333333 L725.333333,810.666667 C725.333333,834.230816 706.230816,853.333333 682.666667,853.333333 C660.785671,853.333333 642.751694,836.862285 640.28705,815.642501 L640,810.666667 L640,725.333333 C640,703.452338 623.528952,685.418361 602.309168,682.953717 L597.333333,682.666667 L213.333333,682.666667 C191.452338,682.666667 173.418361,699.137715 170.953717,720.357499 L170.666667,725.333333 L170.666667,810.666667 C170.666667,834.230816 151.564149,853.333333 128,853.333333 C106.119004,853.333333 88.0850278,836.862285 85.6203832,815.642501 L85.3333333,810.666667 L85.3333333,725.333333 C85.3333333,657.165616 138.620585,601.443802 205.812361,597.550622 L213.333333,597.333333 L597.333333,597.333333 Z M405.333333,170.666667 C499.589931,170.666667 576,247.076736 576,341.333333 C576,435.589931 499.589931,512 405.333333,512 C311.076736,512 234.666667,435.589931 234.666667,341.333333 C234.666667,247.076736 311.076736,170.666667 405.333333,170.666667 Z M640,170.666667 C734.256597,170.666667 810.666667,247.076736 810.666667,341.333333 C810.666667,435.589931 734.256597,512 640,512 C616.435851,512 597.333333,492.897483 597.333333,469.333333 C597.333333,447.452338 613.804381,429.418361 635.024165,426.953717 L640,426.666667 C687.128299,426.666667 725.333333,388.461632 725.333333,341.333333 C725.333333,294.205035 687.128299,256 640,256 C616.435851,256 597.333333,236.897483 597.333333,213.333333 C597.333333,189.769184 616.435851,170.666667 640,170.666667 Z M405.333333,256 C358.205035,256 320,294.205035 320,341.333333 C320,388.461632 358.205035,426.666667 405.333333,426.666667 C452.461632,426.666667 490.666667,388.461632 490.666667,341.333333 C490.666667,294.205035 452.461632,256 405.333333,256 Z" id="Shape" fill="#707E90"></path>
            </g>
        </g>
    </g>
</svg>
