<?xml version="1.0" encoding="UTF-8"?>
<svg width="24px" height="24px" viewBox="0 0 24 24" version="1.1" xmlns="http://www.w3.org/2000/svg" xmlns:xlink="http://www.w3.org/1999/xlink">
    <title>E0F7839C-0D7F-49A1-9EEC-912C3CC430A6</title>
    <g id="元件＿商品QA" stroke="none" stroke-width="1" fill="none" fill-rule="evenodd">
        <g id="Artboard" transform="translate(-619.000000, -47.000000)">
            <g id="Group" transform="translate(439.000000, 47.000000)">
                <g id="ic_view-reply" transform="translate(180.000000, 0.000000)">
                    <path d="M9,6.25 C9.41421356,6.25 9.75,6.58578644 9.75,7 C9.75,7.37655778 9.47249055,7.68829976 9.1108295,7.74186807 L9,7.75 L8,7.75 C6.20507456,7.75 4.75,9.20507456 4.75,11 C4.75,12.7284467 6.09928725,14.1417505 7.80201906,14.2440687 L8,14.25 L17.19,14.25 L14.4696699,11.5303301 C14.2093204,11.2699806 14.1803927,10.865844 14.3828867,10.5735417 L14.4696699,10.4696699 C14.7300194,10.2093204 15.134156,10.1803927 15.4264583,10.3828867 L15.5303301,10.4696699 L19.5303301,14.4696699 C19.5652717,14.5046116 19.5960449,14.5421432 19.6226496,14.5816468 C19.6522253,14.625643 19.677302,14.6729757 19.6971747,14.7229582 L19.7319347,14.8359421 L19.7448264,14.9114405 L19.75,15 C19.75,15.0564837 19.743756,15.111509 19.7319207,15.1644234 L19.7229731,15.2000145 C19.7084937,15.2525765 19.6884491,15.3027644 19.6635179,15.3499502 L19.6061785,15.4417304 L19.5303301,15.5303301 L15.5303301,19.5303301 C15.2374369,19.8232233 14.7625631,19.8232233 14.4696699,19.5303301 C14.2093204,19.2699806 14.1803927,18.865844 14.3828867,18.5735417 L14.4696699,18.4696699 L17.19,15.75 L8,15.75 C5.37664744,15.75 3.25,13.6233526 3.25,11 C3.25,8.45862721 5.24580878,6.38340053 7.75556563,6.25618067 L8,6.25 L9,6.25 Z" id="Shape" fill="#000000" fill-rule="nonzero"></path>
                </g>
            </g>
        </g>
    </g>
</svg>