<?xml version="1.0" encoding="UTF-8"?>
<svg width="1024px" height="1024px" viewBox="0 0 1024 1024" version="1.1" xmlns="http://www.w3.org/2000/svg" xmlns:xlink="http://www.w3.org/1999/xlink">
    <title>44D95E0C-6B92-46CB-AC91-4DA55BE9CBA9</title>
    <g id="站內付-付款確認頁" stroke="none" stroke-width="1" fill="none" fill-rule="evenodd">
        <g id="Slice" transform="translate(0.000000, -2048.000000)">
            <g id="Icon/ic_wallet_outline" transform="translate(0.000000, 2048.000000)">
                <rect id="bg" fill-opacity="0" fill="#FFFFFF" x="64" y="64" width="896" height="896"></rect>
                <path d="M748.7628,133 C801.782135,133 844.7628,175.980664 844.7628,229 L844.7628,229 L844.763017,297.291885 C887.664657,310.80449 919.203403,348.886847 919.985138,394.765275 L920,396.511139 L920,787.514372 C920,845.24928 871.316847,891.075434 812.113588,891.986184 L810.316369,892 L213.683631,892 C154.271739,892 104.994466,846.751195 104.014862,789.260236 L104,787.514372 L104,239.264231 L104.433196,239.263875 C109.557558,179.726095 159.509794,133 220.375493,133 L220.375493,133 Z M175.998919,356.990918 L176,787.514372 C176,804.670129 191.982444,819.696651 213.043863,819.995466 L213.683631,820 L810.316369,820 C831.479281,820 847.673354,805.145036 847.995119,788.033579 L848,787.514372 L848,736.45 L615.475709,736.450608 C536.741995,736.450608 472.766634,673.262585 471.495,594.831912 L471.475709,592.450608 C471.475709,512.921604 535.946705,448.450608 615.475709,448.450608 L615.475709,448.450608 L848,448.45 L848,396.511139 C848,382.658172 837.579008,370.193524 822.477707,365.750297 L220.375493,365.750987 C204.66131,365.750987 189.674574,362.636419 175.998919,356.990918 Z M837.475709,520.450608 L615.475709,520.450608 C575.711207,520.450608 543.475709,552.686106 543.475709,592.450608 C543.475709,632.21511 575.711207,664.450608 615.475709,664.450608 L615.475709,664.450608 L837.475709,664.450608 L837.475709,520.450608 Z M622.475709,548.450608 C646.776238,548.450608 666.475709,568.150079 666.475709,592.450608 C666.475709,616.751137 646.776238,636.450608 622.475709,636.450608 C598.17518,636.450608 578.475709,616.751137 578.475709,592.450608 C578.475709,568.150079 598.17518,548.450608 622.475709,548.450608 Z M748.7628,205 L220.375493,205 C195.867585,205 176,224.867585 176,249.375493 C176,273.883402 195.867585,293.750987 220.375493,293.750987 L220.375493,293.750987 L772.7628,293.750987 L772.7628,229 C772.7628,215.877714 762.231462,205.215154 749.159683,205.003215 L749.159683,205.003215 L748.7628,205 Z" id="shape" fill="#262626" fill-rule="nonzero"></path>
            </g>
        </g>
    </g>
</svg>