<?xml version="1.0" encoding="UTF-8"?>
<svg width="32px" height="32px" viewBox="0 0 32 32" version="1.1" xmlns="http://www.w3.org/2000/svg" xmlns:xlink="http://www.w3.org/1999/xlink">
    <title>A1D033CD-E5EF-42CA-89AC-9BD8746F7947</title>
    <g id="數據結算" stroke="none" stroke-width="1" fill="none" fill-rule="evenodd">
        <g id="UI/數據結算/分頁spec" transform="translate(-1299.000000, -1650.000000)" fill-rule="nonzero">
            <g id="Group-7" transform="translate(158.000000, 34.000000)">
                <g id="ic_crown_color" transform="translate(1141.000000, 1616.000000)">
                    <path d="M16,0 C7.17733333,0 0,7.17733333 0,16 C0,24.8226667 7.17733333,32 16,32 C24.8226667,32 32,24.8226667 32,16 C32,7.17733333 24.8226667,0 16,0 Z" id="Path" fill="#FFCB48"></path>
                    <path d="M21.8999354,21.7904762 L10.0992977,21.7904762 C9.68217268,21.7904762 9.32561652,21.4982892 9.25476241,21.0983373 L8.01252988,14.0625181 C7.95767508,13.7547774 8.0856696,13.4425927 8.34280145,13.2548376 C8.60107611,13.0659714 8.94277577,13.0359751 9.23304905,13.1726253 L12.540336,14.7379923 L15.2510771,9.99745213 C15.5527785,9.46751596 16.4475973,9.46751596 16.7492987,9.99745213 L19.4600398,14.7379923 L22.7673268,13.1726253 C23.0564573,13.0359751 23.3992997,13.0659714 23.6575744,13.2548376 C23.9147063,13.4425927 24.041558,13.7536664 23.987846,14.0625181 L22.7456134,21.0983373 C22.6736165,21.4982892 22.3170604,21.7904762 21.8999354,21.7904762 Z" id="Path" fill="#FFFFFF"></path>
                </g>
            </g>
        </g>
    </g>
</svg>