<?xml version="1.0" encoding="UTF-8"?>
<svg width="480px" height="320px" viewBox="0 0 480 320" version="1.1" xmlns="http://www.w3.org/2000/svg" xmlns:xlink="http://www.w3.org/1999/xlink">
    <title>6D9522D8-9123-4EA7-ADB2-0CA64F3EDD56</title>
    <defs>
        <circle id="path-1" cx="149.5" cy="149.5" r="149.5"></circle>
        <polygon id="path-3" points="0.0107341916 0.233968358 141.97989 0.233968358 141.97989 70.0855377 0.0107341916 70.0855377"></polygon>
        <path d="M141.871542,0.465576471 C135.755171,0.465576471 130.031626,2.38207059 126.819511,5.36131765 L126.819511,5.36131765 C118.77874,12.8204941 121.072793,31.7476706 123.300639,42.5211765 L123.300639,42.5211765 C125.529589,53.2946824 128.502257,53.1885176 127.199094,57.1066588 L127.199094,57.1066588 C125.895931,61.0248 58.246206,71.0429882 49.337028,68.0736941 L49.337028,68.0736941 C31.0563306,61.9824941 37.1120116,35.0089176 33.9043103,30.2713176 L33.9043103,30.2713176 C24.7027207,16.6756 14.8776872,22.6252471 12.0826726,24.1403059 L12.0826726,24.1403059 C3.81238665,28.6257647 -6.53457416,45.6309176 6.62505628,72.3755765 L6.62505628,72.3755765 C19.7846867,99.1180235 47.4567656,91.3591529 47.4567656,91.3591529 L47.4567656,91.3591529 C42.0201146,123.088024 55.8087061,142.8988 52.235766,145.866988 L52.235766,145.866988 C49.5963365,148.058847 46.7351155,146.066047 43.291278,144.073247 L43.291278,144.073247 C39.7944753,142.048376 35.697401,140.023506 30.623782,142.384565 L30.623782,142.384565 C20.5780604,147.061341 23.9766569,157.535153 25.1794069,161.145859 L25.1794069,161.145859 C26.382157,164.756565 31.4315003,165.473176 32.3241836,174.629882 L32.3241836,174.629882 C33.2146601,183.787694 24.8285129,184.933388 24.8285129,184.933388 L24.8285129,184.933388 C24.8285129,184.933388 26.464915,190.253788 34.650236,185.078259 L34.650236,185.078259 C42.8366605,179.906047 38.4902087,172.008941 36.7258075,163.232659 L36.7258075,163.232659 C34.9636131,154.457482 45.5014691,152.699129 52.1088704,156.2468 L52.1088704,156.2468 C58.7140647,159.795576 71.4676291,163.3532 88.9207462,162.219671 L88.9207462,162.219671 C106.374967,161.083929 116.344551,156.347435 128.430534,139.601059 L128.430534,139.601059 C140.516517,122.852471 132.077404,96.0492 130.572312,91.1512471 L130.572312,91.1512471 C129.066116,86.2521882 124.37539,78.6315529 124.37539,78.6315529 L124.37539,78.6315529 L134.896695,80.0238588 C145.419103,81.4161647 150.471756,73.1021412 155.937097,66.2301882 L155.937097,66.2301882 C161.40023,59.3593412 171.242919,35.5850824 164.940067,16.3482588 L164.940067,16.3482588 C161.155266,4.79621176 151.070924,0.465576471 141.874852,0.465576471 L141.874852,0.465576471 C141.873748,0.465576471 141.872645,0.465576471 141.871542,0.465576471 L141.871542,0.465576471 Z" id="path-5"></path>
        <path d="M124.454748,6.45763707 C116.35242,13.9057838 118.664035,32.804973 120.908937,43.5625483 L120.908937,43.5625483 C123.154951,54.3201236 126.150378,54.2141158 124.837238,58.1264633 L124.837238,58.1264633 C123.524098,62.0388108 55.3564615,72.0421853 46.3790769,69.0772819 L46.3790769,69.0772819 C27.9584266,62.9950888 34.0604685,36.0613977 30.8282098,31.3308031 L30.8282098,31.3308031 C21.5561748,17.7551892 11.6559231,23.6960386 8.83951049,25.2088571 L8.83951049,25.2088571 C0.505909091,29.6876834 -5.32483217,43.7734595 7.93554545,70.4774672 L7.93554545,70.4774672 C21.1959231,97.1814749 46.8238322,85.6696988 46.8238322,85.6696988 L46.8238322,85.6696988 C44.3432098,111.734347 59.0568252,142.611305 50.6431678,148.69129 L50.6431678,148.69129 C47.8901329,150.680039 45.0392517,148.755336 41.6513287,146.830633 L41.6513287,146.830633 C38.1333147,144.831946 34.0337832,142.832154 28.8657273,145.216224 L28.8657273,145.216224 C18.741986,149.886085 21.3226783,156.232193 23.014972,160.789421 L23.014972,160.789421 C24.7094895,165.346649 28.9846993,164.750355 30.2822727,175.330147 L30.2822727,175.330147 C31.1495455,182.382973 28.281986,185.861351 21.6829301,185.764178 L21.6829301,185.764178 C24.6071958,187.347668 27.9195105,187.023019 31.620986,184.789127 L31.620986,184.789127 C37.1748671,181.44105 34.5574825,169.504139 33.5011888,165.619398 L33.5011888,165.619398 C29.5695524,151.138301 47.6810979,154.141853 47.6810979,154.141853 L47.6810979,154.141853 C47.6810979,154.141853 68.2365734,161.09088 85.8233077,159.959027 L85.8233077,159.959027 C103.410042,158.827174 123.200538,143.683529 126.577343,123.656903 L126.577343,123.656903 C129.954147,103.631382 115.922119,72.7047336 115.922119,72.7047336 L115.922119,72.7047336 C115.922119,72.7047336 124.498112,77.9311351 136.105112,74.0751042 L136.105112,74.0751042 C147.713224,70.2201776 162.958322,43.1661236 157.046413,18.1781158 L157.046413,18.1781158 C153.808594,4.49759846 146.77479,0.0507953668 139.74321,0.0507953668 L139.74321,0.0507953668 C133.931371,0.0507953668 128.121755,3.08637066 124.454748,6.45763707 L124.454748,6.45763707 Z" id="path-7"></path>
        <path d="M64.9381666,35.5530752 C46.7197263,40.3236313 20.0240733,37.8419536 5.08079347,24.7983355 L5.08079347,24.7983355 C4.35676018,31.7298401 6.65763421,34.5321152 7.36534433,36.2813348 L7.36534433,36.2813348 C18.0351397,55.8741737 39.9305231,60.7757769 62.4676663,55.4986587 L62.4676663,55.4986587 C84.0768289,50.4370009 94.3729272,33.7567858 89.5805307,12.1355696 L89.5805307,12.1355696 C85.9721381,24.0431373 76.9188175,32.417004 64.9381666,35.5530752 L64.9381666,35.5530752 Z" id="path-9"></path>
        <path d="M57.1676038,39.0920209 C38.9976205,41.6276025 19.177623,35.2513175 4.83215165,23.7878214 L4.83215165,23.7878214 C4.68327439,27.9034186 5.63708733,30.3448995 5.91730397,31.4604568 L5.91730397,31.4604568 C6.19858677,32.5760138 9.22914915,35.8504175 9.64484081,36.529228 L9.64484081,36.529228 C23.4110585,49.9681255 39.4921376,55.6301961 61.4037059,50.5783366 L61.4037059,50.5783366 C82.4132653,45.7338852 95.1771395,34.2838855 89.6399665,12.0245439 L89.6399665,12.0245439 C85.3268418,27.8964358 69.4714186,37.3737557 57.1676038,39.0920209 L57.1676038,39.0920209 Z" id="path-11"></path>
        <path d="M29.144192,0.43456 C28.6648853,0.43456 28.1833493,0.45024 27.7051573,0.48384 L27.7051573,0.48384 C19.0475413,1.08304 11.9203627,7.07728 9.19277333,15.94656 L9.19277333,15.94656 C7.25659733,22.24096 7.39816,29.11328 8.097056,35.76832 L8.097056,35.76832 C8.608688,40.64032 9.407904,45.48432 10.4891307,50.25888 L10.4891307,50.25888 C10.7343573,51.34864 12.872288,61.23936 14.9366507,57.23648 L14.9366507,57.23648 C15.477264,56.1848 15.2075147,54.86432 14.93888,53.67488 L14.93888,53.67488 C13.0885333,45.51232 11.9805547,37.17056 11.635008,28.80864 L11.635008,28.80864 C11.354112,22.00464 11.8077813,14.54096 16.055776,9.64208 L16.055776,9.64208 C22.21208,2.54576 34.0219733,3.37008 41.1168267,8.7248 L41.1168267,8.7248 C50.6483413,15.92192 51.4542453,29.01248 50.087664,40.28752 L50.087664,40.28752 C49.168064,47.8744 46.937616,55.32576 43.4052373,62.11408 L43.4052373,62.11408 C41.7187467,65.35312 39.76808,68.60672 37.333648,71.33952 L37.333648,71.33952 C33.270688,75.89904 30.27112,80.45072 23.5474507,80.68256 L23.5474507,80.68256 C17.2250613,80.90096 10.3531413,78.26672 5.12646933,74.86192 L5.12646933,74.86192 C3.92485867,74.07792 2.68534933,73.19648 1.31319467,72.88176 L1.31319467,72.88176 C1.007776,72.81008 0.695669333,72.76976 0.374645333,72.76304 L0.374645333,72.76304 C4.76531733,78.0472 10.986272,81.9672 17.7433813,83.37056 L17.7433813,83.37056 C20.9569653,84.03808 24.3266027,84.0672 27.5334987,83.33248 L27.5334987,83.33248 C28.5467307,83.09952 32.2786347,82.1576 33.3888427,80.67696 L33.3888427,80.67696 C35.481072,79.25792 37.8998987,76.92496 38.4717227,76.32352 L38.4717227,76.32352 C53.3168533,60.6984 61.5988267,27.888 46.392544,8.8648 L46.392544,8.8648 C42.0063307,3.3768 35.5635573,0.43456 29.147536,0.43456 L29.147536,0.43456 C29.1464213,0.43456 29.1453067,0.43456 29.144192,0.43456 L29.144192,0.43456 Z" id="path-13"></path>
        <path d="M20.3446533,0.968637681 C18.6439445,1.20633333 16.9809553,1.6806087 15.412265,2.39815942 L15.412265,2.39815942 C6.17651772,6.61865217 0.4398151,17.9755942 0.33220339,29.4374348 L0.33220339,29.4374348 C0.199075501,43.602087 8.0003698,57.7845942 17.5212327,66.7366812 L17.5212327,66.7366812 C21.9887827,70.937087 27.168567,74.2759855 32.7621572,75.7322899 L32.7621572,75.7322899 C38.3557473,77.1908261 44.3786749,76.6618696 49.3032974,73.6008406 L49.3032974,73.6008406 C56.4777812,69.1370725 60.366225,60.1905652 63.7731895,51.7138696 L63.7731895,51.7138696 C54.6317411,65.1855217 43.0074576,78.3804203 26.9233898,68.5121449 L26.9233898,68.5121449 C20.8949153,64.815029 15.6030817,59.2888841 11.6525116,52.9313623 L11.6525116,52.9313623 C7.43235747,46.1442029 4.4059168,38.2065072 4.11858243,30.0255362 L4.11858243,30.0255362 C3.83013867,21.8456812 6.55260401,13.4526812 12.131772,8.52802899 L12.131772,8.52802899 C16.9099538,4.31311594 23.9690601,3.22284058 29.7767643,5.75156522 L29.7767643,5.75156522 C38.7706626,9.66628986 35.566718,22.2496522 37.8254545,31.1515217 L37.8254545,31.1515217 C39.0480123,35.9690435 39.1167951,36.6955217 42.1166102,43.2818116 L42.1166102,43.2818116 C43.8195378,47.0235652 55.5048382,52.7204493 57.3697381,47.8404348 L57.3697381,47.8404348 C52.8833282,46.3305652 47.8477658,46.7825217 44.5916795,42.2060435 L44.5916795,42.2060435 C38.766225,34.015029 41.5186441,13.0922319 37.3861325,6.75926087 L37.3861325,6.75926087 C34.451772,2.25866667 29.0789522,0.711971014 23.9834823,0.711971014 L23.9834823,0.711971014 C22.7409553,0.711971014 21.5139599,0.804594203 20.3446533,0.968637681 L20.3446533,0.968637681 Z" id="path-15"></path>
    </defs>
    <g id="數據結算" stroke="none" stroke-width="1" fill="none" fill-rule="evenodd">
        <g id="call-api-錯誤/page" transform="translate(-480.000000, -105.000000)">
            <g id="Group-5" transform="translate(473.000000, 105.000000)">
                <g id="img_genius-nervous" transform="translate(7.000000, 0.000000)">
                    <rect id="Rectangle" fill="#9B9B9B" opacity="0" x="0" y="0" width="480" height="320"></rect>
                    <g id="Group-2" transform="translate(20.000000, 10.000000)">
                        <path d="M106.5,22 C125.93939,22 141.729427,37.6247364 141.99656,57.0006569 L177,57 C196.882251,57 213,73.117749 213,93 C213,112.882251 196.882251,129 177,129 L36,129 C16.117749,129 2.4348735e-15,112.882251 0,93 C-2.4348735e-15,73.117749 16.117749,57 36,57 L71.003,57 L71.004756,56.9129426 C71.318249,37.5776029 87.0899525,22 106.5,22 Z" id="Combined-Shape-Copy-2" fill="#F8FFFE"></path>
                        <g id="genie_colorful" transform="translate(70.000000, 0.000000)">
                            <mask id="mask-2" fill="white">
                                <use xlink:href="#path-1"></use>
                            </mask>
                            <use id="Mask" fill="#B3F1E8" xlink:href="#path-1"></use>
                            <g id="Group-13" mask="url(#mask-2)" opacity="0.799999952">
                                <g transform="translate(17.000000, 75.000000)">
                                    <g id="Group-11" transform="translate(242.000000, 26.500000) scale(-1, 1) rotate(-31.000000) translate(-242.000000, -26.500000) translate(221.000000, 9.000000)">
                                        <path d="M21.8130065,32.1646593 L21.5384548,31.5854214 C18.188238,24.6310593 14.4789326,21.0723663 10.4105385,20.9093424 C3.75684976,20.6427238 0.962767328,23.7385451 2.34423414,27.1958309 C3.72570094,30.6531167 8.41267394,30.4594032 11.7253077,30.1876366 C13.6512015,30.0296373 16.6130825,30.8624318 20.6109508,32.6860199 L20.9127376,32.8246401 C21.2275629,32.970259 21.6174658,32.8766501 21.7836101,32.6155589 C21.871407,32.4775885 21.8821447,32.3128865 21.8130065,32.1646593 Z" id="Path-2-Copy-2" fill="#FAFBFC" transform="translate(11.929060, 26.893294) rotate(12.000000) translate(-11.929060, -26.893294) "></path>
                                        <path d="M40.0172792,17.2590489 L39.7477129,16.6771223 C36.4567006,9.690995 32.7536223,6.13512713 28.6384779,6.00951864 C21.908331,5.8040912 19.0361881,8.95504046 20.3847948,12.4308347 C21.7334016,15.906629 26.4796986,15.6663108 29.8361929,15.3603678 C31.7875864,15.1824992 34.7732726,15.9946065 38.7932517,17.7966898 L39.0966938,17.9336955 C39.4132315,18.0776393 39.8091796,17.9794425 39.9810687,17.7143667 C40.0719014,17.5742906 40.0851282,17.4079748 40.0172792,17.2590489 Z" id="Path-2-Copy" fill="#FAFBFC" transform="translate(30.060122, 12.000000) rotate(41.000000) translate(-30.060122, -12.000000) "></path>
                                    </g>
                                    <g id="Group-11-Copy" transform="translate(28.000000, 26.500000) rotate(-31.000000) translate(-28.000000, -26.500000) translate(7.000000, 9.000000)">
                                        <path d="M21.8130065,32.1646593 L21.5384548,31.5854214 C18.188238,24.6310593 14.4789326,21.0723663 10.4105385,20.9093424 C3.75684976,20.6427238 0.962767328,23.7385451 2.34423414,27.1958309 C3.72570094,30.6531167 8.41267394,30.4594032 11.7253077,30.1876366 C13.6512015,30.0296373 16.6130825,30.8624318 20.6109508,32.6860199 L20.9127376,32.8246401 C21.2275629,32.970259 21.6174658,32.8766501 21.7836101,32.6155589 C21.871407,32.4775885 21.8821447,32.3128865 21.8130065,32.1646593 Z" id="Path-2-Copy-2" fill="#FAFBFC" transform="translate(11.929060, 26.893294) rotate(12.000000) translate(-11.929060, -26.893294) "></path>
                                        <path d="M40.0172792,17.2590489 L39.7477129,16.6771223 C36.4567006,9.690995 32.7536223,6.13512713 28.6384779,6.00951864 C21.908331,5.8040912 19.0361881,8.95504046 20.3847948,12.4308347 C21.7334016,15.906629 26.4796986,15.6663108 29.8361929,15.3603678 C31.7875864,15.1824992 34.7732726,15.9946065 38.7932517,17.7966898 L39.0966938,17.9336955 C39.4132315,18.0776393 39.8091796,17.9794425 39.9810687,17.7143667 C40.0719014,17.5742906 40.0851282,17.4079748 40.0172792,17.2590489 Z" id="Path-2-Copy" fill="#FAFBFC" transform="translate(30.060122, 12.000000) rotate(41.000000) translate(-30.060122, -12.000000) "></path>
                                    </g>
                                </g>
                            </g>
                            <g id="Group-8" mask="url(#mask-2)">
                                <g transform="translate(148.500000, 205.000000) rotate(-8.000000) translate(-148.500000, -205.000000) translate(22.000000, 24.000000)">
                                    <g id="Group-32" stroke-width="1" fill="none" transform="translate(138.500000, 118.000000) rotate(8.000000) translate(-138.500000, -118.000000) translate(38.000000, 13.000000)">
                                        <g id="Group-4" transform="translate(0.000000, 33.847511)">
                                            <path d="M30.818282,33.3718369 C11.1052548,53.7839952 -0.973867931,82.0309318 0.0616658498,110.64463 C0.57311851,124.79023 5.24564899,138.531128 15.4368168,148.617062 C24.8134489,157.893591 37.23354,163.527802 49.6915166,167.366148 C78.0234683,176.086212 108.925312,177.515316 137.844487,170.894643 C163.86543,164.931612 191.736443,152.221439 198.40427,123.791122 C201.845526,109.09538 199.869172,93.4068528 195.922778,79.014637 C192.228953,65.5393243 186.034693,53.8092891 177.245284,42.9455691 C160.165291,21.8251823 144.082946,7.51517163 108.761142,2.27301572 C94.1436984,0.104065815 79.1158301,3.53770955 65.6854621,9.29838992 C52.5644914,14.9326009 40.7442521,23.0961996 30.818282,33.3718369 Z" id="Fill-2" fill="#BCDFF1"></path>
                                            <path d="M34.6366204,29.9778053 C16.0266212,49.2478162 4.62337707,75.914216 5.60096831,102.926855 C6.08380301,116.280949 10.4948854,129.252985 20.1158139,138.774567 C28.9677834,147.532035 40.6929173,152.850988 52.4538168,156.474562 C79.2004748,164.706701 108.373228,166.055841 135.674252,159.805623 C160.239212,154.176249 186.550723,142.177265 192.845457,115.337745 C196.094159,101.464292 194.228391,86.6536056 190.502814,73.0666958 C187.015675,60.3453844 181.16801,49.2716948 172.870406,39.0158464 C156.746112,19.0772354 141.563643,5.56793099 108.218244,0.619096111 C94.4187092,-1.42849178 80.2317143,1.81302491 67.5528328,7.25137061 C55.1660364,12.5703234 44.0071901,20.2771338 34.6366204,29.9778053 Z" id="Fill-2-Copy" fill="#D1EBF9"></path>
                                        </g>
                                        <path d="M168.639833,95.9535852 C168.639833,103.870569 162.30666,110.295213 154.502272,110.295213 C146.691569,110.295213 140.36471,103.870569 140.36471,95.9535852 C140.36471,88.0366019 146.691569,81.6119572 154.502272,81.6119572 C162.30666,81.6119572 168.639833,88.0366019 168.639833,95.9535852" id="Fill-5" fill="#FFFFFF"></path>
                                        <path d="M46.1829124,110.295213 C53.9936153,110.295213 60.3204742,103.870569 60.3204742,95.9535852 C60.3204742,88.0366019 53.9936153,81.6119572 46.1829124,81.6119572 C38.3785236,81.6119572 32.0453506,88.0366019 32.0453506,95.9535852 C32.0453506,103.870569 38.3785236,110.295213 46.1829124,110.295213 Z" id="Fill-7" fill="#FFFFFF"></path>
                                        <path d="M173.602187,120.875009 C167.319528,120.875009 162.223944,118.143271 162.223944,114.766538 C162.223944,111.389806 167.319528,108.658067 173.602187,108.658067 C179.884846,108.658067 184.98043,111.389806 184.98043,114.766538 C184.98043,118.143271 179.884846,120.875009 173.602187,120.875009 Z" id="Fill-9" fill="#EDF9FF"></path>
                                        <path d="M39.1678024,115.381179 C39.1678024,118.757912 34.0722185,121.489651 27.7895593,121.489651 C21.5069001,121.489651 16.4113162,118.757912 16.4113162,115.381179 C16.4113162,112.004447 21.5069001,109.272708 27.7895593,109.272708 C34.0722185,109.272708 39.1678024,112.004447 39.1678024,115.381179" id="Fill-11" fill="#EDF9FF"></path>
                                        <g id="Group-21" transform="translate(27.782614, 0.000000)">
                                            <mask id="mask-4" fill="white">
                                                <use xlink:href="#path-3"></use>
                                            </mask>
                                            <g id="Clip-20"></g>
                                            <path d="M141.97989,67.5877674 C141.97989,67.5877674 124.659956,40.8711103 91.3776477,33.9911759 C81.7863317,32.0056066 83.6932293,17.7841246 94.0359387,16.5953124 C104.384962,15.4065002 112.328264,9.4624392 107.144281,0.230174276 C105.395239,7.7424556 103.12843,10.227579 93.688656,8.77950453 C93.688656,8.77950453 68.8547879,1.33678137 57.1608333,29.8240098 C52.6335301,40.8647869 25.659138,35.6732187 0.0107341916,70.0855377 C52.5830163,32.7264821 119.425459,51.4502742 141.97989,67.5877674" id="Fill-19" fill="#757D97" mask="url(#mask-4)"></path>
                                        </g>
                                        <path d="M83.0251704,144.272701 C83.0251704,144.272701 101.582693,135.634842 117.469297,144.272701 C117.469297,144.272701 102.365658,140.80744 83.0251704,144.272701" id="Fill-22" fill="#C6E7F9"></path>
                                        <path d="M164.193984,95.7594547 C164.193984,101.330431 159.742451,105.845388 154.249071,105.845388 C148.75569,105.845388 144.304158,101.330431 144.304158,95.7594547 C144.304158,90.1948019 148.75569,85.6735214 154.249071,85.6735214 C159.742451,85.6735214 164.193984,90.1948019 164.193984,95.7594547" id="Fill-24" fill="#757D97"></path>
                                        <path d="M45.9246603,105.845388 C51.4180408,105.845388 55.8695732,101.330431 55.8695732,95.7594547 C55.8695732,90.1948019 51.4180408,85.6735214 45.9246603,85.6735214 C40.4312799,85.6735214 35.9797475,90.1948019 35.9797475,95.7594547 C35.9797475,101.330431 40.4312799,105.845388 45.9246603,105.845388 Z" id="Fill-26" fill="#757D97"></path>
                                        <path d="M130.896521,140.258339 C125.680967,140.258339 120.579069,138.734383 115.647655,137.267338 C113.241933,136.552786 110.754126,135.806617 108.323148,135.269122 C105.866912,134.725304 103.429619,134.459718 100.872356,134.459718 C96.9575331,134.459718 92.7522556,135.111035 88.0228971,136.445287 L86.3938256,136.913224 C80.9257021,138.475121 75.2681517,140.087606 69.6674294,140.087606 C65.68315,140.087606 62.0966672,139.284525 58.7059255,137.6341 C54.2670215,135.477797 46.6836308,130.05226 46.4310616,123.399971 C46.3994905,122.495715 46.6141743,121.800133 47.0814273,121.313226 C47.4539669,120.921171 47.9591054,120.71882 48.552643,120.71882 C49.8344318,120.71882 51.2551336,121.736898 51.7918432,123.045856 C52.2212109,124.095552 52.7768631,125.138925 53.4398573,126.15068 C56.3128321,130.494903 60.8275069,133.384728 66.1440888,134.288984 C67.4700772,134.510306 68.8718364,134.624128 70.3114809,134.624128 C73.0392284,134.624128 76.0195451,134.213103 79.1766603,133.403699 C84.676355,131.980918 90.0813362,130.67196 95.7262581,130.235641 C97.2416734,130.115495 98.8076026,130.05226 100.367217,130.05226 C102.785568,130.05226 105.279689,130.1977 107.799067,130.488579 C111.252951,130.880635 114.618435,131.715332 117.870264,132.518413 C120.11813,133.074878 122.448081,133.650314 124.765404,134.067663 C126.703872,134.421777 128.61077,134.598834 130.435582,134.598834 C135.91002,134.598834 140.645693,132.992673 144.143777,129.944761 C146.549498,127.851693 147.976514,125.322305 149.169904,122.894093 C149.182532,122.875123 149.226732,122.773947 149.239361,122.748653 C149.270932,122.685419 149.308817,122.622184 149.353017,122.565273 C149.933926,121.673664 151.203086,120.88323 152.131278,120.668232 C152.301762,120.630291 152.465932,120.611321 152.617474,120.611321 C153.116298,120.611321 153.545666,120.801025 153.867691,121.167786 C154.581199,121.970867 154.4928,123.355706 154.423344,123.912172 C154.183403,125.809212 153.280468,127.756841 151.550369,130.039613 C147.471376,135.446179 140.936148,139.189673 134.066265,140.062312 C133.04336,140.188781 131.976255,140.258339 130.896521,140.258339" id="Fill-30" fill="#757D97"></path>
                                    </g>
                                    <g id="Group-10" stroke-width="1" fill="none" transform="translate(112.477691, 243.845508) rotate(-1.000000) translate(-112.477691, -243.845508) translate(2.977691, 128.345508)">
                                        <g id="Group-22" transform="translate(109.500000, 115.500000) rotate(16.000000) translate(-109.500000, -115.500000) translate(24.000000, 20.000000)">
                                            <g id="Group-3" transform="translate(1.809017, 2.951057)">
                                                <mask id="mask-6" fill="white">
                                                    <use xlink:href="#path-5"></use>
                                                </mask>
                                                <g id="Clip-2"></g>
                                                <polygon id="Fill-1" fill="#BCDFF1" mask="url(#mask-6)" points="167.567248 -9.02588 -10.1627966 16.0079788 14.9239213 194.903249 192.652863 169.870496"></polygon>
                                            </g>
                                            <g id="Group-6" transform="translate(4.085418, 1.382432)">
                                                <mask id="mask-8" fill="white">
                                                    <use xlink:href="#path-7"></use>
                                                </mask>
                                                <g id="Clip-5"></g>
                                                <polygon id="Fill-4" fill="#D1EBF9" mask="url(#mask-8)" points="159.101515 -8.39570116 -9.81986224 15.182183 15.4600259 193.81182 184.380292 170.236144"></polygon>
                                            </g>
                                            <g id="Group-9" transform="translate(91.219117, 118.628694) rotate(-17.000000) translate(-91.219117, -118.628694) translate(43.219117, 84.103657)">
                                                <mask id="mask-10" fill="white">
                                                    <use xlink:href="#path-9"></use>
                                                </mask>
                                                <g id="Clip-8" transform="translate(47.839651, 34.806819) rotate(17.000000) translate(-47.839651, -34.806819) "></g>
                                                <polygon id="Fill-7" fill="#BBD81E" mask="url(#mask-10)" transform="translate(48.828513, 38.125600) rotate(17.000000) translate(-48.828513, -38.125600) " points="93.3557468 6.49925344 -2.63978503 20.0678178 4.30127953 69.7519463 100.296812 56.1823113"></polygon>
                                            </g>
                                            <g id="Group-12" transform="translate(90.320440, 117.399403) rotate(-17.000000) translate(-90.320440, -117.399403) translate(42.820440, 85.271939)">
                                                <mask id="mask-12" fill="white">
                                                    <use xlink:href="#path-11"></use>
                                                </mask>
                                                <g id="Clip-11" transform="translate(47.875063, 32.214957) rotate(17.000000) translate(-47.875063, -32.214957) "></g>
                                                <polygon id="Fill-10" fill="#CCEA2C" mask="url(#mask-12)" transform="translate(48.712513, 35.417907) rotate(17.000000) translate(-48.712513, -35.417907) " points="93.5212577 6.33131653 -2.43463525 19.7217281 3.90270116 64.5044978 99.8596603 51.1140861"></polygon>
                                            </g>
                                            <g id="Group-15" transform="translate(115.778508, 0.365911)">
                                                <mask id="mask-14" fill="white">
                                                    <use xlink:href="#path-13"></use>
                                                </mask>
                                                <g id="Clip-14"></g>
                                                <polygon id="Fill-13" fill="#ADD8EE" mask="url(#mask-14)" points="54.5466651 -9.014208 -15.3128389 0.851872 -2.3827056 93.288832 67.4767984 83.423872"></polygon>
                                            </g>
                                            <g id="Group-18" transform="translate(0.136926, 22.628874)">
                                                <mask id="mask-16" fill="white">
                                                    <use xlink:href="#path-15"></use>
                                                </mask>
                                                <g id="Clip-17"></g>
                                                <polygon id="Fill-16" fill="#ADD8EE" mask="url(#mask-16)" points="60.7008197 -10.3721232 -9.87360247 -0.394485507 2.4063359 87.4971087 72.9807581 77.520587"></polygon>
                                            </g>
                                        </g>
                                        <g id="Group-6" transform="translate(185.671572, 82.627588) rotate(-91.000000) translate(-185.671572, -82.627588) translate(167.171572, 59.627588)">
                                            <path d="M23.74914,44.4568259 C10.0391737,40.6839138 3.55273798,31.5893048 3.55273798,31.5893048 C3.55273798,31.5893048 18.4881247,19.7122857 10.6841317,1.68514985 C15.8714375,0.397497286 30.5856957,4.92679267 30.8805337,6.03435396 C30.8805337,6.03435396 42.7754037,20.6577649 23.74914,44.4568259 Z" id="Fill-15" fill="#FFE473"></path>
                                            <path d="M20.7899643,41.7438304 C35.4708697,25.2636328 30.7026376,7.63522473 28.5678695,6.48701424 C26.7743143,5.50765823 19.4776068,3.51517533 14.5956371,4.01329606 C18.5589566,16.8462368 10.8772909,30.278611 5.68035538,32.6679019 C9.14497908,37.3282856 14.0969412,40.5534063 20.7899643,41.7438304 Z M24.7441113,45.9567497 C24.2617664,45.9567497 23.7690444,45.9567497 23.2659454,45.9567497 C9.54743537,42.2335084 3.2408665,35.242068 2.96964596,34.8621454 L0.278285039,31.8287664 L1.42989852,31.0923705 C1.9373434,30.6786771 15.820504,19.4803667 9.24121863,4.48608861 L8.11259121,1.91950046 L10.9210362,1.2356398 C14.3506637,0.39981011 20.8020508,0.796632021 24.0425574,1.46467681 C30.2158287,2.73732406 32.9957362,3.99685224 33.4506868,4.90866645 C35.2179948,7.35705646 41.8314289,23.6764007 25.8906603,45.1293628 C25.6086391,45.6809541 25.2264561,45.9567497 24.7441113,45.9567497 Z" id="Fill-17" fill="#FFDA2A"></path>
                                            <ellipse id="Oval" fill="#FFF0B3" transform="translate(22.529825, 12.962298) rotate(109.000000) translate(-22.529825, -12.962298) " cx="22.5298246" cy="12.9622982" rx="1.90464356" ry="3.97264629"></ellipse>
                                            <ellipse id="Oval-Copy-2" fill="#FFDA2A" transform="translate(19.533748, 29.520773) rotate(109.000000) translate(-19.533748, -29.520773) " cx="19.5337485" cy="29.5207733" rx="7.61602929" ry="10.4286621"></ellipse>
                                            <ellipse id="Oval-Copy-3" fill="#FFE473" transform="translate(21.031787, 26.682178) rotate(109.000000) translate(-21.031787, -26.682178) " cx="21.0317865" cy="26.6821776" rx="6.18801235" ry="8.44225519"></ellipse>
                                            <ellipse id="Oval-Copy" fill="#FFF0B3" transform="translate(27.957304, 15.034445) rotate(109.000000) translate(-27.957304, -15.034445) " cx="27.9573042" cy="15.0344452" rx="1" ry="1.9862728"></ellipse>
                                        </g>
                                    </g>
                                    <path d="M204.993263,101.989746 C202.157082,98.9471645 194.225811,95.7411463 193.057184,95.1850117 C191.723854,94.5517224 189.777844,94.147762 189.13793,95.9399481 C188.204504,98.5530606 192.254202,99.4980432 193.910627,100.320738 C196.711517,101.71416 199.403745,103.330337 202.123709,104.886753 C203.08211,105.434063 204.435476,106.111692 205.400449,105.203956 C206.406947,104.256393 206.061411,103.13378 204.993263,101.989746" id="Fill-4" fill="#757D97" transform="translate(197.500000, 100.148068) scale(-1, -1) rotate(6.000000) translate(-197.500000, -100.148068) "></path>
                                    <path d="M96.9932631,85.9897458 C94.1570823,82.9471645 86.2258114,79.7411463 85.0571838,79.1850117 C83.7238543,78.5517224 81.7778437,78.147762 81.1379302,79.9399481 C80.2045042,82.5530606 84.2542015,83.4980432 85.9106266,84.3207383 C88.7115173,85.7141596 91.4037447,87.3303368 94.1237094,88.8867535 C95.0821097,89.4340626 96.4354765,90.1116918 97.4004489,89.2039565 C98.4069466,88.2563929 98.0614108,87.1337803 96.9932631,85.9897458" id="Fill-4-Copy" fill="#757D97" transform="translate(89.500000, 84.148068) scale(1, -1) rotate(-18.000000) translate(-89.500000, -84.148068) "></path>
                                    <path d="M100,218.524037 C99.9182163,218.549331 116.631984,220.749898 123.868092,220.749898 C131.053686,220.749898 137.17849,220.136521 148.411506,218.758005 C148.37362,218.701094 132.505959,213.402027 124.41743,195.000732 C124.354288,194.867939 117.699089,212.851885 100,218.524037 Z" id="Fill-28" fill="#757D97" transform="translate(124.205753, 207.874949) rotate(9.000000) translate(-124.205753, -207.874949) "></path>
                                </g>
                            </g>
                        </g>
                        <path d="M351.5,240 C362.10257,240 370.728777,248.461814 370.993728,259.000547 L392.5,259 C403.821837,259 413,268.178163 413,279.5 C413,290.821837 403.821837,300 392.5,300 L313.5,300 C302.178163,300 293,290.821837 293,279.5 C293,268.178163 302.178163,259 313.5,259 L332.006272,259.000547 C332.271223,248.461814 340.89743,240 351.5,240 Z" id="Combined-Shape-Copy-3" fill="#F8FFFE"></path>
                    </g>
                </g>
            </g>
        </g>
    </g>
</svg>