<?xml version="1.0" encoding="UTF-8"?>
<svg width="160px" height="160px" viewBox="0 0 160 160" version="1.1" xmlns="http://www.w3.org/2000/svg" xmlns:xlink="http://www.w3.org/1999/xlink">
    <title>F61325BA-AE08-4447-96D9-273B7D61D7C0</title>
    <defs>
        <circle id="path-1" cx="80" cy="80" r="80"></circle>
        <polygon id="path-3" points="0.00574404903 0.125200459 75.9758608 0.125200459 75.9758608 37.5039667 0.00574404903 37.5039667"></polygon>
        <path d="M75.9178818,0.249137911 C72.6449077,0.249137911 69.5821409,1.2746866 67.8632834,2.86893252 L67.8632834,2.86893252 C63.56053,6.86046508 64.7881167,16.98872 65.9802752,22.7538068 L65.9802752,22.7538068 C67.1730242,28.5188936 68.7637498,28.462083 68.066405,30.5587472 L68.066405,30.5587472 C67.3690602,32.6554114 31.1685383,38.0163148 26.4010852,36.4273948 L26.4010852,36.4273948 C16.6187722,33.1678898 19.8592704,18.733869 18.1427748,16.1986984 L18.1427748,16.1986984 C13.2188472,8.92339799 7.96130417,12.1071556 6.4656442,12.9178894 L6.4656442,12.9178894 C2.04007312,15.318135 -3.49676209,24.4178824 3.54518062,38.7294055 L3.54518062,38.7294055 C10.5871233,53.039745 25.3949247,48.887841 25.3949247,48.887841 L25.3949247,48.887841 C22.4856801,65.8665009 29.8641905,76.4675853 27.9522494,78.0559134 L27.9522494,78.0559134 C26.5398456,79.2288145 25.0087575,78.1624332 23.1659013,77.0960519 L23.1659013,77.0960519 C21.2947025,76.0125091 19.1022882,74.9289664 16.3873081,76.1924092 L16.3873081,76.1924092 C11.0116711,78.6950321 12.8303181,84.2997474 13.4739301,86.2318977 L13.4739301,86.2318977 C14.1175422,88.164048 16.819532,88.5475192 17.297222,93.4474287 L17.297222,93.4474287 C17.7737311,98.34793 13.2861607,98.9610104 13.2861607,98.9610104 L13.2861607,98.9610104 C13.2861607,98.9610104 14.1618274,101.808047 18.5419323,99.0385331 L18.5419323,99.0385331 C22.9226277,96.2707944 20.5967672,92.0449184 19.652606,87.34858 L19.652606,87.34858 C18.7096258,82.6528334 24.3486122,81.7119087 27.8843453,83.6103278 L27.8843453,83.6103278 C31.4188975,85.5093386 38.2435473,87.4130836 47.583008,86.8065127 L47.583008,86.8065127 C56.9230591,86.1987582 62.2579537,83.6641794 68.7253693,74.7029077 L68.7253693,74.7029077 C75.1927849,65.7404525 70.6768719,51.3975652 69.8714711,48.7765871 L69.8714711,48.7765871 C69.0654799,46.1550171 66.5553928,42.0770852 66.5553928,42.0770852 L66.5553928,42.0770852 L72.1855222,42.8221318 C77.8162422,43.5671784 80.5200033,39.1182026 83.4446002,35.4409034 L83.4446002,35.4409034 C86.3680161,31.7641959 91.6350066,19.0421845 88.2622432,8.74823215 L88.2622432,8.74823215 C86.2369318,2.56653472 80.8406284,0.249137911 75.9196532,0.249137911 L75.9196532,0.249137911 C75.9190627,0.249137911 75.9184723,0.249137911 75.9178818,0.249137911 L75.9178818,0.249137911 Z" id="path-5"></path>
        <path d="M66.5978586,3.45559174 C62.2621643,7.44122209 63.4991491,17.5545006 64.7004345,23.3110626 L64.7004345,23.3110626 C65.9023149,29.0676246 67.5052188,29.0108981 66.8025353,31.104462 L66.8025353,31.104462 C66.0998517,33.1980259 29.6221868,38.5510022 24.8182351,36.9644318 L24.8182351,36.9644318 C14.9610309,33.7097465 18.2263377,19.297069 16.4967009,16.7656471 L16.4967009,16.7656471 C11.5350768,9.50110458 6.23728325,12.6801544 4.73017284,13.4896894 L4.73017284,13.4896894 C0.270720584,15.8863858 -2.84940852,23.4239248 4.24644573,37.7136948 L4.24644573,37.7136948 C11.3423,52.0034648 25.0562313,45.8433171 25.0562313,45.8433171 L25.0562313,45.8433171 C23.7288079,59.7909552 31.6023145,76.3137418 27.1000229,79.5672453 L27.1000229,79.5672453 C25.626827,80.6314588 24.1012718,79.6015175 22.2883364,78.5715763 L22.2883364,78.5715763 C20.4057871,77.5020447 18.2120579,76.4319221 15.446543,77.7076784 L15.446543,77.7076784 C10.0291564,80.2066006 11.4101289,83.6025113 12.3157041,86.0411617 L12.3157041,86.0411617 C13.2224693,88.479812 15.510207,88.1607252 16.2045607,93.8221521 L16.2045607,93.8221521 C16.6686531,97.5962397 15.1341731,99.4575793 11.6029057,99.40558 L11.6029057,99.40558 C13.1677302,100.252933 14.9402063,100.079208 16.920929,98.883814 L16.920929,98.883814 C19.8929055,97.0922008 18.4922983,90.704556 17.9270576,88.6257646 L17.9270576,88.6257646 C15.8231719,80.8766829 25.5149688,82.4839349 25.5149688,82.4839349 L25.5149688,82.4839349 C25.5149688,82.4839349 36.5145543,86.2024778 45.9255158,85.5968038 L45.9255158,85.5968038 C55.3364773,84.9911298 65.9267095,76.8875071 67.7336951,66.1709182 L67.7336951,66.1709182 C69.5406806,55.4549203 62.0319031,38.9055431 62.0319031,38.9055431 L62.0319031,38.9055431 C62.0319031,38.9055431 66.6210632,41.7022797 72.8321669,39.6388518 L72.8321669,39.6388518 C79.0438656,37.5760148 87.2017775,23.098929 84.0382141,9.72741984 L84.0382141,9.72741984 C82.3056024,2.40674165 78.5416938,0.0271814672 74.7789751,0.0271814672 L74.7789751,0.0271814672 C71.6689609,0.0271814672 68.5601366,1.65156958 66.5978586,3.45559174 L66.5978586,3.45559174 Z" id="path-7"></path>
        <path d="M34.7495206,19.0250569 C25.0005224,21.5778629 10.7152232,20.2498748 2.71881925,13.2700123 L2.71881925,13.2700123 C2.33137669,16.9791787 3.56261363,18.4787239 3.94132138,19.4147611 L3.94132138,19.4147611 C9.65091087,29.8992234 21.367504,32.5221549 33.4275137,29.6982789 L33.4275137,29.6982789 C44.9909452,26.9896995 50.500563,18.0638319 47.9360699,6.49395031 L47.9360699,6.49395031 C46.0051575,12.8658929 41.1605712,17.3468918 34.7495206,19.0250569 L34.7495206,19.0250569 Z" id="path-9"></path>
        <path d="M30.5913599,20.9188072 C20.8682919,22.2756401 10.2622732,18.8635813 2.58576677,12.729269 L2.58576677,12.729269 C2.50610001,14.9315952 3.01650158,16.2380733 3.16645029,16.835027 L3.16645029,16.835027 C3.31696951,17.4319807 4.93867513,19.1841699 5.16111883,19.547413 L5.16111883,19.547413 C12.5276567,26.7387962 21.1329165,29.7686668 32.8581704,27.0653306 L32.8581704,27.0653306 C44.1007439,24.4729821 50.9309108,18.3458919 47.9678751,6.43453852 L47.9678751,6.43453852 C45.6598485,14.9278586 37.1753411,19.9993342 30.5913599,20.9188072 L30.5913599,20.9188072 Z" id="path-11"></path>
        <path d="M15.5955542,0.232540468 C15.3390691,0.232540468 15.0813909,0.240931104 14.8255023,0.258911037 L14.8255023,0.258911037 C10.1926643,0.579553177 6.37878939,3.78717324 4.91920981,8.53327625 L4.91920981,8.53327625 C3.88312901,11.9015171 3.95888161,15.5790127 4.33287278,19.1402381 L4.33287278,19.1402381 C4.60665579,21.7473284 5.0343299,24.3394355 5.61291273,26.8943839 L5.61291273,26.8943839 C5.7441377,27.4775331 6.88818087,32.7702261 7.99285654,30.6282167 L7.99285654,30.6282167 C8.28214796,30.0654448 8.13780049,29.3588334 7.9940495,28.7223438 L7.9940495,28.7223438 C7.00389744,24.3544187 6.41099915,19.8906007 6.22609124,15.4159946 L6.22609124,15.4159946 C6.075779,11.7750582 6.3185452,7.78111572 8.5917196,5.15964147 L8.5917196,5.15964147 C11.8860629,1.3622796 18.2057382,1.80338729 22.0023153,4.6687893 L22.0023153,4.6687893 C27.1027913,8.52009097 27.5340443,15.5250729 26.8027633,21.5585391 L26.8027633,21.5585391 C26.3106697,25.618408 25.1171189,29.6057579 23.2268829,33.2383037 L23.2268829,33.2383037 C22.3244129,34.9715692 21.2805779,36.7126261 19.9778718,38.174994 L19.9778718,38.174994 C17.8037126,40.6148709 16.1985926,43.0505525 12.6006425,43.174614 L12.6006425,43.174614 C9.21742412,43.2914836 5.54014252,41.8818569 2.74326118,40.0598903 L2.74326118,40.0598903 C2.10025882,39.6403585 1.43697623,39.1686849 0.702712865,39.0002729 L0.702712865,39.0002729 C0.539278127,38.9619157 0.372264526,38.9403398 0.200479108,38.9367438 L0.200479108,38.9367438 C2.55000259,41.764388 5.87894154,43.8620468 9.494786,44.6130087 L9.494786,44.6130087 C11.2144296,44.97021 13.01758,44.9857926 14.7336448,44.5926314 L14.7336448,44.5926314 C15.2758425,44.4679706 17.272848,43.9639331 17.8669392,43.1716174 L17.8669392,43.1716174 C18.9865268,42.4122649 20.2808822,41.1638582 20.586875,40.8420174 L20.586875,40.8420174 C28.5307576,32.4807492 32.9625828,14.9233445 24.8254416,4.74370569 L24.8254416,4.74370569 C22.478304,1.80698328 19.0306661,0.232540468 15.5973437,0.232540468 L15.5973437,0.232540468 C15.5967472,0.232540468 15.5961507,0.232540468 15.5955542,0.232540468 L15.5955542,0.232540468 Z" id="path-13"></path>
        <path d="M10.886771,0.518334545 C9.97669273,0.645529543 9.08679883,0.899322379 8.2473659,1.28329601 L8.2473659,1.28329601 C3.30515998,3.54175367 0.235352562,9.61904707 0.1777677,15.7524735 L0.1777677,15.7524735 C0.106528696,23.3322204 4.28113434,30.921522 9.37591046,35.7119364 L9.37591046,35.7119364 C11.7665727,37.9596452 14.5383636,39.7463468 17.5315891,40.5256401 L17.5315891,40.5256401 C20.5248146,41.3061277 23.7477859,41.023074 26.3830354,39.3850652 L26.3830354,39.3850652 C30.2222241,36.9964267 32.3029966,32.2089981 34.1261215,27.6729737 L34.1261215,27.6729737 C29.2343765,34.8818845 23.0140241,41.9426998 14.4071651,36.6620174 L14.4071651,36.6620174 C11.1812256,34.6836276 8.34947514,31.7264931 6.23545769,28.3244748 L6.23545769,28.3244748 C3.97718126,24.69255 2.35768123,20.4449537 2.20392371,16.0671766 L2.20392371,16.0671766 C2.04957254,11.6899966 3.50641017,7.19875915 6.4919181,4.56349377 L6.4919181,4.56349377 C9.0488047,2.30802191 12.8262529,1.72459697 15.9340544,3.07776065 L15.9340544,3.07776065 C20.7468428,5.17259658 19.0323575,11.9061684 20.2410459,16.6697106 L20.2410459,16.6697106 C20.8952574,19.2476487 20.9320643,19.6363996 22.5373165,23.1608356 L22.5373165,23.1608356 C23.4485821,25.1631118 29.7015857,28.2116117 30.6995254,25.6002327 L30.6995254,25.6002327 C28.2987709,24.7922757 25.6041556,25.0341253 23.8617683,22.5851738 L23.8617683,22.5851738 C20.7444682,18.2020222 22.2173346,7.00587659 20.0059572,3.61699578 L20.0059572,3.61699578 C18.4357308,1.20865106 15.5606433,0.380987834 12.8339705,0.380987834 L12.8339705,0.380987834 C12.1690731,0.380987834 11.5124869,0.430552082 10.886771,0.518334545 L10.886771,0.518334545 Z" id="path-15"></path>
    </defs>
    <g id="數據結算" stroke="none" stroke-width="1" fill="none" fill-rule="evenodd">
        <g id="call-api-錯誤/mail-spec" transform="translate(-431.000000, -363.000000)">
            <g id="Group-7" transform="translate(0.000000, 126.000000)">
                <g id="Group-23" transform="translate(231.000000, 100.000000)">
                    <g id="Group" transform="translate(48.000000, 137.000000)">
                        <g id="img_genius-nervous_mail" transform="translate(152.000000, 0.000000)">
                            <mask id="mask-2" fill="white">
                                <use xlink:href="#path-1"></use>
                            </mask>
                            <use id="Mask" fill="#E6EBF1" xlink:href="#path-1"></use>
                            <g id="Group-13" mask="url(#mask-2)">
                                <g transform="translate(9.096990, 40.133779)">
                                    <g id="Group-11" transform="translate(129.203523, 14.161488) scale(-1, 1) rotate(-31.000000) translate(-129.203523, -14.161488) translate(117.703523, 4.661488)">
                                        <path d="M11.6725118,17.2118578 L11.5255945,16.9018978 C9.73283638,13.1804999 7.74792378,11.2761826 5.57085674,11.1889458 C2.01035439,11.0462736 0.515193219,12.7029004 1.25443967,14.552953 C1.99368612,16.4030056 4.50176532,16.2993462 6.27441214,16.1539192 C7.30499078,16.0693711 8.88994384,16.5150137 11.0292713,17.4908468 L11.1907626,17.5650248 C11.359231,17.6429479 11.5678747,17.5928563 11.6567813,17.4531419 C11.7037629,17.3793115 11.7095089,17.2911767 11.6725118,17.2118578 Z" id="Path-2-Copy-2" fill="#FFFFFF" transform="translate(6.383444, 14.391061) rotate(12.000000) translate(-6.383444, -14.391061) "></path>
                                        <path d="M21.4139287,9.23561143 L21.2696792,8.92421258 C19.5086023,5.18581672 17.5270219,3.28301118 15.324938,3.21579593 C11.7235216,3.1058682 10.1865889,4.79199489 10.9082514,6.65195169 C11.6299139,8.51190848 14.1697384,8.38331011 15.9658558,8.21959482 C17.0100797,8.12441428 18.6077713,8.55898676 20.7589307,9.52331226 L20.9213077,9.59662634 C21.0906924,9.67365316 21.302571,9.62110636 21.3945518,9.47925977 C21.4431579,9.40430267 21.4502358,9.31530424 21.4139287,9.23561143 Z" id="Path-2-Copy" fill="#FFFFFF" transform="translate(16.085684, 6.421405) rotate(41.000000) translate(-16.085684, -6.421405) "></path>
                                    </g>
                                    <g id="Group-11-Copy" transform="translate(15.278083, 14.161488) rotate(-31.000000) translate(-15.278083, -14.161488) translate(3.778083, 4.661488)">
                                        <path d="M11.6725118,17.2118578 L11.5255945,16.9018978 C9.73283638,13.1804999 7.74792378,11.2761826 5.57085674,11.1889458 C2.01035439,11.0462736 0.515193219,12.7029004 1.25443967,14.552953 C1.99368612,16.4030056 4.50176532,16.2993462 6.27441214,16.1539192 C7.30499078,16.0693711 8.88994384,16.5150137 11.0292713,17.4908468 L11.1907626,17.5650248 C11.359231,17.6429479 11.5678747,17.5928563 11.6567813,17.4531419 C11.7037629,17.3793115 11.7095089,17.2911767 11.6725118,17.2118578 Z" id="Path-2-Copy-2" fill="#FFFFFF" transform="translate(6.383444, 14.391061) rotate(12.000000) translate(-6.383444, -14.391061) "></path>
                                        <path d="M21.4139287,9.23561143 L21.2696792,8.92421258 C19.5086023,5.18581672 17.5270219,3.28301118 15.324938,3.21579593 C11.7235216,3.1058682 10.1865889,4.79199489 10.9082514,6.65195169 C11.6299139,8.51190848 14.1697384,8.38331011 15.9658558,8.21959482 C17.0100797,8.12441428 18.6077713,8.55898676 20.7589307,9.52331226 L20.9213077,9.59662634 C21.0906924,9.67365316 21.302571,9.62110636 21.3945518,9.47925977 C21.4431579,9.40430267 21.4502358,9.31530424 21.4139287,9.23561143 Z" id="Path-2-Copy" fill="#FFFFFF" transform="translate(16.085684, 6.421405) rotate(41.000000) translate(-16.085684, -6.421405) "></path>
                                    </g>
                                </g>
                            </g>
                            <g id="Group-8" mask="url(#mask-2)">
                                <g transform="translate(79.859182, 110.293721) rotate(-8.000000) translate(-79.859182, -110.293721) translate(11.859182, 12.793721)">
                                    <g id="Group-32" stroke-width="1" fill="none" transform="translate(74.288779, 63.484199) rotate(8.000000) translate(-74.288779, -63.484199) translate(20.288779, 6.984199)">
                                        <g id="Group-4" transform="translate(0.000000, 18.112381)">
                                            <path d="M16.4913884,17.8578391 C5.94261125,28.7807332 -0.521133341,43.8961508 0.0329984481,59.2078285 C0.30668549,66.7773806 2.80703625,74.1303697 8.26050398,79.5275247 C13.2780997,84.4915537 19.9243024,87.5065161 26.5907781,89.5604803 C41.7516887,94.2267353 58.2877922,94.9914732 73.7629361,91.4486386 C87.6871867,88.2577188 102.601441,81.4562885 106.169509,66.2427408 C108.010984,58.3787985 106.953403,49.9836001 104.84162,42.28208 C102.864992,35.0712103 99.5503374,28.7942684 94.8469749,22.9809066 C85.7071792,11.6790273 77.1012422,4.02149652 58.199942,1.21632948 C50.3778988,0.0556873925 42.3362302,1.89308872 35.1494112,4.97572705 C28.1281559,7.99068945 21.8029443,12.3591703 16.4913884,17.8578391 Z" id="Fill-2" fill="#BCDFF1"></path>
                                            <path d="M18.5346464,16.041635 C8.57611839,26.3533465 2.47404793,40.6229918 2.99717368,55.0779158 C3.25554676,62.2239191 5.61599221,69.165477 10.7643151,74.2606381 C15.501155,78.9469085 21.7754742,81.7931708 28.0689321,83.732207 C42.381525,88.1373651 57.9923628,88.8593127 72.6016063,85.5147148 C85.7467356,82.5023406 99.8264737,76.0814793 103.194893,61.7191947 C104.933329,54.2952735 103.934925,46.3698224 101.941305,39.0992352 C100.075277,32.2918445 96.9460923,26.3661243 92.505903,20.8780449 C83.877518,10.2085541 75.7531199,2.97949485 57.9094283,0.331288889 C50.5250618,-0.76441032 42.9333588,0.970180555 36.1486731,3.8803321 C29.5202871,6.72659447 23.548998,10.8506402 18.5346464,16.041635 Z" id="Fill-2-Copy" fill="#D1EBF9"></path>
                                        </g>
                                        <path d="M90.2420513,51.3464001 C90.2420513,55.5829129 86.8530624,59.0208499 82.6768008,59.0208499 C78.4971604,59.0208499 75.1115504,55.5829129 75.1115504,51.3464001 C75.1115504,47.1098873 78.4971604,43.6719504 82.6768008,43.6719504 C86.8530624,43.6719504 90.2420513,47.1098873 90.2420513,51.3464001" id="Fill-5" fill="#FFFFFF"></path>
                                        <path d="M24.7132641,59.0208499 C28.8929045,59.0208499 32.2785146,55.5829129 32.2785146,51.3464001 C32.2785146,47.1098873 28.8929045,43.6719504 24.7132641,43.6719504 C20.5370026,43.6719504 17.1480137,47.1098873 17.1480137,51.3464001 C17.1480137,55.5829129 20.5370026,59.0208499 24.7132641,59.0208499 Z" id="Fill-7" fill="#FFFFFF"></path>
                                        <path d="M92.8974914,64.6822793 C89.5355333,64.6822793 86.8087994,63.2204793 86.8087994,61.4135321 C86.8087994,59.606585 89.5355333,58.144785 92.8974914,58.144785 C96.2594495,58.144785 98.9861833,59.606585 98.9861833,61.4135321 C98.9861833,63.2204793 96.2594495,64.6822793 92.8974914,64.6822793 Z" id="Fill-9" fill="#EDF9FF"></path>
                                        <path d="M20.9593592,61.7424371 C20.9593592,63.5493843 18.2326253,65.0111843 14.8706672,65.0111843 C11.5087091,65.0111843 8.7819752,63.5493843 8.7819752,61.7424371 C8.7819752,59.93549 11.5087091,58.47369 14.8706672,58.47369 C18.2326253,58.47369 20.9593592,59.93549 20.9593592,61.7424371" id="Fill-11" fill="#EDF9FF"></path>
                                        <g id="Group-21" transform="translate(14.866950, 0.000000)">
                                            <mask id="mask-4" fill="white">
                                                <use xlink:href="#path-3"></use>
                                            </mask>
                                            <g id="Clip-20"></g>
                                            <path d="M75.9758608,36.1673672 C75.9758608,36.1673672 66.7076687,21.8708283 48.8977379,18.189258 C43.7652611,17.126746 44.7856745,9.5165884 50.3202347,8.88043471 C55.8581738,8.24428103 60.1087701,5.06351261 57.3347323,0.123170181 C56.3987902,4.14312005 55.1857822,5.47295195 50.1343979,4.69806263 C50.1343979,4.69806263 36.8453715,0.715334514 30.5877369,15.9593363 C28.1650997,21.8674445 13.7306424,19.0893478 0.00574404903,37.5039667 C28.1380689,17.5124988 63.9066001,27.5319193 75.9758608,36.1673672" id="Fill-19" fill="#757D97" mask="url(#mask-4)"></path>
                                        </g>
                                        <path d="M44.4281848,77.2027833 C44.4281848,77.2027833 54.3586319,72.5805177 62.8598245,77.2027833 C62.8598245,77.2027833 54.7776096,75.348463 44.4281848,77.2027833" id="Fill-22" fill="#C6E7F9"></path>
                                        <path d="M87.8630013,51.2425176 C87.8630013,54.223642 85.4809104,56.6396725 82.5413088,56.6396725 C79.6017073,56.6396725 77.2196164,54.223642 77.2196164,51.2425176 C77.2196164,48.2647769 79.6017073,45.8453626 82.5413088,45.8453626 C85.4809104,45.8453626 87.8630013,48.2647769 87.8630013,51.2425176" id="Fill-24" fill="#757D97"></path>
                                        <path d="M24.5750691,56.6396725 C27.5146706,56.6396725 29.8967616,54.223642 29.8967616,51.2425176 C29.8967616,48.2647769 27.5146706,45.8453626 24.5750691,45.8453626 C21.6354675,45.8453626 19.2533766,48.2647769 19.2533766,51.2425176 C19.2533766,54.223642 21.6354675,56.6396725 24.5750691,56.6396725 Z" id="Fill-26" fill="#757D97"></path>
                                        <path d="M70.0449612,75.0546297 C67.2540292,75.0546297 64.5239165,74.2391348 61.8850328,73.4540941 C60.59769,73.0717252 59.2664222,72.6724372 57.965564,72.3848145 C56.6511904,72.0938081 55.3469534,71.9516886 53.9785182,71.9516886 C51.8836297,71.9516886 49.633314,72.3002196 47.1025536,73.0142006 L46.2308097,73.2646015 C43.3047236,74.1003992 40.2772718,74.9632672 37.2802298,74.9632672 C35.1481739,74.9632672 33.2289858,74.5335251 31.4145421,73.6503543 C29.0392088,72.4964798 24.9812071,69.5931827 24.846053,66.0334291 C24.8291588,65.5495462 24.9440398,65.1773286 25.1940748,64.9167763 C25.3934271,64.706981 25.6637353,64.5986995 25.9813474,64.5986995 C26.6672545,64.5986995 27.4274963,65.1434907 27.7146987,65.8439365 C27.9444607,66.4056467 28.2417997,66.963973 28.5965792,67.5053804 C30.133957,69.8300484 32.5498364,71.3764433 35.3948301,71.8603261 C36.1043891,71.978759 36.8544944,72.0396673 37.6248727,72.0396673 C39.0845369,72.0396673 40.6793553,71.8197206 42.3687814,71.3865946 C45.3117619,70.6252405 48.2040595,69.9247947 51.2247535,69.6913128 C52.0356781,69.6270206 52.8736335,69.5931827 53.70821,69.5931827 C55.0023105,69.5931827 56.3369572,69.67101 57.6851193,69.8266646 C59.5333515,70.03646 61.3342798,70.4831211 63.0743888,70.9128632 C64.2772602,71.2106372 65.5240568,71.5185627 66.7640956,71.7418932 C67.8014033,71.9313858 68.8218167,72.0261321 69.798305,72.0261321 C72.72777,72.0261321 75.2619093,71.1666479 77.1337935,69.5356581 C78.4211363,68.4156216 79.1847569,67.0621031 79.82336,65.7627254 C79.8301177,65.752574 79.8537697,65.6984333 79.8605274,65.6848981 C79.8774216,65.6510601 79.8976948,65.6172221 79.9213467,65.586768 C80.2322011,65.1096527 80.9113505,64.6866782 81.4080418,64.5716291 C81.4992708,64.5513264 81.5871209,64.541175 81.6682134,64.541175 C81.9351427,64.541175 82.1649047,64.6426888 82.3372262,64.838949 C82.7190365,65.2686911 82.6717325,66.0097425 82.6345652,66.3075166 C82.5061688,67.3226554 82.0229929,68.3648647 81.0971873,69.5864151 C78.9144487,72.4795608 75.4173365,74.4827682 71.7411451,74.949732 C71.193771,75.017408 70.622745,75.0546297 70.0449612,75.0546297" id="Fill-30" fill="#757D97"></path>
                                    </g>
                                    <g id="Group-10" stroke-width="1" fill="none" transform="translate(60.605463, 131.172702) rotate(-1.000000) translate(-60.605463, -131.172702) translate(1.605463, 68.672702)">
                                        <g id="Group-22" transform="translate(58.723981, 62.255206) rotate(16.000000) translate(-58.723981, -62.255206) translate(12.723981, 10.755206)">
                                            <g id="Group-3" transform="translate(0.968036, 1.579161)">
                                                <mask id="mask-6" fill="white">
                                                    <use xlink:href="#path-5"></use>
                                                </mask>
                                                <g id="Clip-2"></g>
                                                <polygon id="Fill-1" fill="#BCDFF1" mask="url(#mask-6)" points="89.6680927 -4.82990234 -5.43828581 8.56614251 7.98604486 104.296053 103.091833 90.9006001"></polygon>
                                            </g>
                                            <g id="Group-6" transform="translate(2.186177, 0.739763)">
                                                <mask id="mask-8" fill="white">
                                                    <use xlink:href="#path-7"></use>
                                                </mask>
                                                <g id="Clip-5"></g>
                                                <polygon id="Fill-4" fill="#D1EBF9" mask="url(#mask-8)" points="85.1379347 -4.49268289 -5.25477578 8.12424509 8.27292354 103.712011 98.665039 91.0962646"></polygon>
                                            </g>
                                            <g id="Group-9" transform="translate(49.120878, 63.412290) rotate(-17.000000) translate(-49.120878, -63.412290) translate(23.120878, 44.912290)">
                                                <mask id="mask-10" fill="white">
                                                    <use xlink:href="#path-9"></use>
                                                </mask>
                                                <g id="Clip-8" transform="translate(25.599813, 18.625723) rotate(17.000000) translate(-25.599813, -18.625723) "></g>
                                                <polygon id="Fill-7" fill="#BBD81E" mask="url(#mask-10)" transform="translate(26.128970, 20.401659) rotate(17.000000) translate(-26.128970, -20.401659) " points="49.9562525 3.47786137 -1.412594 10.7386316 2.30168804 37.3254562 53.6705347 30.0641131"></polygon>
                                            </g>
                                            <g id="Group-12" transform="translate(48.500431, 63.093052) rotate(-17.000000) translate(-48.500431, -63.093052) translate(23.000431, 45.593052)">
                                                <mask id="mask-12" fill="white">
                                                    <use xlink:href="#path-11"></use>
                                                </mask>
                                                <g id="Clip-11" transform="translate(25.618763, 17.238773) rotate(17.000000) translate(-25.618763, -17.238773) "></g>
                                                <polygon id="Fill-10" fill="#CCEA2C" mask="url(#mask-12)" transform="translate(26.066896, 18.952726) rotate(17.000000) translate(-26.066896, -18.952726) " points="50.0448202 3.38799547 -1.30281485 10.5534331 2.08840196 34.517457 53.4366075 27.3520193"></polygon>
                                            </g>
                                            <g id="Group-15" transform="translate(61.955055, 0.195805)">
                                                <mask id="mask-14" fill="white">
                                                    <use xlink:href="#path-13"></use>
                                                </mask>
                                                <g id="Clip-14"></g>
                                                <polygon id="Fill-13" fill="#ADD8EE" mask="url(#mask-14)" points="29.1888509 -4.82365645 -8.1941613 0.455851237 -1.27502641 49.9204452 36.1079858 44.6415369"></polygon>
                                            </g>
                                            <g id="Group-18" transform="translate(0.073272, 12.109096)">
                                                <mask id="mask-16" fill="white">
                                                    <use xlink:href="#path-15"></use>
                                                </mask>
                                                <g id="Clip-17"></g>
                                                <polygon id="Fill-16" fill="#ADD8EE" mask="url(#mask-16)" points="32.482044 -5.55030003 -5.28353309 -0.211095924 1.28767139 46.8211953 39.0532485 41.4825883"></polygon>
                                            </g>
                                        </g>
                                        <g id="Group-6" transform="translate(99.546553, 44.111756) rotate(-91.000000) translate(-99.546553, -44.111756) translate(89.546553, 31.611756)">
                                            <path d="M12.7085699,23.7896058 C5.37213306,21.7706562 1.90113069,16.9039758 1.90113069,16.9039758 C1.90113069,16.9039758 9.89331086,10.5483803 5.71726114,0.901752428 C8.49307695,0.212707578 16.3669275,2.63641079 16.5247003,3.22908573 C16.5247003,3.22908573 22.8898481,11.0543223 12.7085699,23.7896058 Z" id="Fill-15" fill="#FFE473"></path>
                                            <path d="M11.1250645,22.3378357 C18.9810674,13.5190008 16.4295051,4.08573898 15.2871542,3.47131197 C14.3273923,2.94724186 10.4227996,1.88103028 7.81037435,2.14758317 C9.93121423,9.01470865 5.82062391,16.2026012 3.03965505,17.4811515 C4.89363429,19.9750023 7.5435137,21.7008194 11.1250645,22.3378357 Z M13.240996,24.5922407 C12.982885,24.5922407 12.7192211,24.5922407 12.4500042,24.5922407 C5.10899551,22.5998707 1.73424294,18.8586317 1.58910821,18.6553286 L0.148915071,17.0321158 L0.765163087,16.6380578 C1.0367055,16.4166834 8.46582155,10.4242765 4.94513371,2.40058253 L4.34118593,1.02715744 L5.84403274,0.661211935 C7.67928491,0.213945209 11.1315322,0.426291382 12.8655825,0.783773542 C16.1690053,1.46478879 17.6565812,2.13878381 17.900033,2.62671114 C18.8457497,3.9368864 22.3847111,12.6696458 13.8545339,24.1494918 C13.7036196,24.4446577 13.499107,24.5922407 13.240996,24.5922407 Z" id="Fill-17" fill="#FFDA2A"></path>
                                            <ellipse id="Oval" fill="#FFF0B3" transform="translate(12.056093, 6.936347) rotate(109.000000) translate(-12.056093, -6.936347) " cx="12.0560934" cy="6.93634685" rx="1.01920726" ry="2.12583079"></ellipse>
                                            <ellipse id="Oval-Copy-2" fill="#FFDA2A" transform="translate(10.452842, 15.797069) rotate(109.000000) translate(-10.452842, -15.797069) " cx="10.452842" cy="15.7970693" rx="4.07546718" ry="5.580555"></ellipse>
                                            <ellipse id="Oval-Copy-3" fill="#FFE473" transform="translate(11.254468, 14.278088) rotate(109.000000) translate(-11.254468, -14.278088) " cx="11.2544677" cy="14.2780883" rx="3.31131096" ry="4.51759475"></ellipse>
                                            <ellipse id="Oval-Copy" fill="#FFF0B3" transform="translate(14.960430, 8.045188) rotate(109.000000) translate(-14.960430, -8.045188) " cx="14.9604303" cy="8.04518806" rx="1" ry="1.06288846"></ellipse>
                                        </g>
                                    </g>
                                    <path d="M109.695392,54.5764526 C108.177703,52.9483155 103.933545,51.2327204 103.308192,50.9351233 C102.594705,50.5962394 101.553361,50.3800733 101.210933,51.3391027 C100.71144,52.7374237 102.878502,53.2431001 103.764884,53.6833382 C105.263688,54.4289817 106.704345,55.2938257 108.159845,56.1266908 C108.672701,56.4195653 109.39691,56.7821762 109.913284,56.2964315 C110.451878,55.7893742 110.266976,55.188645 109.695392,54.5764526" id="Fill-4" fill="#757D97" transform="translate(105.685619, 53.590939) scale(-1, -1) rotate(6.000000) translate(-105.685619, -53.590939) "></path>
                                    <path d="M51.9027495,46.0145797 C50.3850608,44.3864426 46.1409024,42.6708475 45.5155498,42.3732504 C44.8020625,42.0343665 43.760719,41.8182004 43.4182904,42.7772297 C42.9187983,44.1755508 45.0858603,44.6812271 45.9722417,45.1214653 C47.4710461,45.8671088 48.9117029,46.7319528 50.3672024,47.5648179 C50.8800587,47.8576924 51.6042684,48.2203033 52.1206415,47.7345586 C52.6592356,47.2275012 52.4743335,46.6267721 51.9027495,46.0145797" id="Fill-4-Copy" fill="#757D97" transform="translate(47.892977, 45.029066) scale(1, -1) rotate(-18.000000) translate(-47.892977, -45.029066) "></path>
                                    <path d="M53.5117057,116.935939 C53.4679418,116.949475 62.411764,118.127036 66.2839289,118.127036 C70.1290629,118.127036 73.4065497,117.798807 79.417528,117.06114 C79.3972549,117.030686 70.9061989,114.195064 66.577889,104.348218 C66.5441005,104.277158 62.9827901,113.900674 53.5117057,116.935939 Z" id="Fill-28" fill="#757D97" transform="translate(66.464617, 111.237431) rotate(9.000000) translate(-66.464617, -111.237431) "></path>
                                </g>
                            </g>
                        </g>
                    </g>
                </g>
            </g>
        </g>
    </g>
</svg>