<?xml version="1.0" encoding="UTF-8"?>
<svg width="289px" height="273px" viewBox="0 0 289 273" version="1.1" xmlns="http://www.w3.org/2000/svg" xmlns:xlink="http://www.w3.org/1999/xlink">
    <title>06B435BB-D18D-4EF1-8AF0-93CC13F1B73D</title>
    <defs>
        <linearGradient x1="12.8579826%" y1="23.8138439%" x2="58.9756%" y2="47.728974%" id="linearGradient-1">
            <stop stop-color="#4EEFF5" offset="0%"></stop>
            <stop stop-color="#00C5DC" offset="100%"></stop>
        </linearGradient>
        <linearGradient x1="70.4570355%" y1="71.6382675%" x2="25.9838236%" y2="13.6022567%" id="linearGradient-2">
            <stop stop-color="#52C41A" offset="0%"></stop>
            <stop stop-color="#BBD81E" offset="100%"></stop>
        </linearGradient>
    </defs>
    <g id="付款頁" stroke="none" stroke-width="1" fill="none" fill-rule="evenodd">
        <g id="付款成功" transform="translate(-576.000000, -253.000000)">
            <g id="Group-4" transform="translate(506.000000, 253.000000)">
                <g id="img_check-out-success" transform="translate(70.000000, 0.000000)">
                    <g id="Group-2" transform="translate(0.000000, 0.200000)">
                        <path d="M102.224176,66.8245269 C102.224176,72.1557636 106.238853,76.4775849 111.191209,76.4775849 C116.143564,76.4775849 120.158242,72.1557636 120.158242,66.8245269 L120.155,66.5998593 L140.784816,66.5990533 C140.78322,66.6740032 140.782418,66.7491642 140.782418,66.8245269 C140.782418,72.1557636 144.797095,76.4775849 149.749451,76.4775849 C154.701806,76.4775849 158.716484,72.1557636 158.716484,66.8245269 L158.713,66.5998593 L200.544,66.6000372 C202.452696,66.6000372 204,68.1473411 204,70.0560372 L204,173.144 C204,175.052696 202.452696,176.6 200.544,176.6 L86.8494066,176.6 C84.9407105,176.6 83.3934066,175.052696 83.3934066,173.144 L83.393,146.517859 L69.0443956,146.518378 C67.8072778,146.518378 66.8043956,145.515495 66.8043956,144.278378 L66.8043956,141.125727 C66.8043956,139.888609 67.8072778,138.885727 69.0443956,138.885727 L83.393,138.884859 L83.393,129.007859 L2.24,129.008179 C1.00288216,129.008179 1.14498313e-15,128.005297 0,126.768179 L0,123.615529 C-1.5150324e-16,122.378411 1.00288216,121.375529 2.24,121.375529 L83.393,121.374859 L83.393,110.599859 L34.5213187,110.600022 C33.2842008,110.600022 32.2813187,109.59714 32.2813187,108.360022 L32.2813187,105.207372 C32.2813187,103.970254 33.2842008,102.967372 34.5213187,102.967372 L83.393,102.966859 L83.3934066,70.0560372 C83.3934066,68.1473411 84.9407105,66.6000372 86.8494066,66.6000372 L102.226574,66.5990533 C102.224978,66.6740032 102.224176,66.7491642 102.224176,66.8245269 Z M58.0615385,138.885727 C60.1662896,138.885727 61.8725275,140.594354 61.8725275,142.702052 C61.8725275,144.809751 60.1662896,146.518378 58.0615385,146.518378 C55.9567873,146.518378 54.2505495,144.809751 54.2505495,142.702052 C54.2505495,140.594354 55.9567873,138.885727 58.0615385,138.885727 Z M21.2967033,102.967372 C23.4014544,102.967372 25.1076923,104.675999 25.1076923,106.783697 C25.1076923,108.891395 23.4014544,110.600022 21.2967033,110.600022 C19.1919522,110.600022 17.4857143,108.891395 17.4857143,106.783697 C17.4857143,104.675999 19.1919522,102.967372 21.2967033,102.967372 Z" id="Combined-Shape" fill="#EDF9FF"></path>
                        <path d="M147.742609,119.95 C148.537899,119.95 149.182609,120.59471 149.182609,121.39 L149.182609,124.36 C149.182609,125.15529 148.537899,125.8 147.742609,125.8 L110.24,125.8 C109.44471,125.8 108.8,125.15529 108.8,124.36 L108.8,121.39 C108.8,120.59471 109.44471,119.95 110.24,119.95 L147.742609,119.95 Z M158.96,107.8 C159.75529,107.8 160.4,108.44471 160.4,109.24 L160.4,112.21 C160.4,113.00529 159.75529,113.65 158.96,113.65 L110.24,113.65 C109.44471,113.65 108.8,113.00529 108.8,112.21 L108.8,109.24 C108.8,108.44471 109.44471,107.8 110.24,107.8 L158.96,107.8 Z" id="Combined-Shape" fill="#C6E7F9"></path>
                        <g id="Group" transform="translate(106.400000, 119.800000)">
                            <path d="M13.4346686,13.3293523 L168.551011,13.3183895 C170.459707,13.3177663 172.00712,14.8649608 172.007255,16.7736569 C172.007255,16.7738197 172.007255,16.7739825 172.006767,16.7741453 L171.998429,134.79028 C171.997806,136.698785 170.45069,138.245901 168.542185,138.246524 L13.4258428,138.257487 C11.5171467,138.25811 9.96973348,136.710916 9.96959858,134.80222 C9.96959857,134.802057 9.96959857,134.801894 9.97008695,134.801731 L9.97842444,16.7855966 C9.97904772,14.8770912 11.5261633,13.3299756 13.4346686,13.3293523 Z" id="Rectangle-21" fill="url(#linearGradient-1)" transform="translate(90.988427, 75.787938) rotate(-10.000000) translate(-90.988427, -75.787938) "></path>
                            <polygon id="Rectangle-22" fill="#1B257D" transform="translate(85.647776, 45.508364) rotate(-10.000000) translate(-85.647776, -45.508364) " points="5.15038463 34.6732735 166.146699 34.6618951 166.145168 56.3434537 5.1488529 56.354832"></polygon>
                            <path d="M22.694091,76.7400061 L71.9834463,76.7365226 C72.3369085,76.7364072 72.6234665,77.0229247 72.6234915,77.3763869 C72.6234915,77.3764171 72.6234915,77.3764472 72.6234011,77.3764773 L72.6223245,92.6159001 C72.622209,92.9693271 72.3357062,93.2558299 71.9822793,93.2559454 L22.692924,93.2594289 C22.3394618,93.2595443 22.0529038,92.9730268 22.0528788,92.6195645 C22.0528788,92.6195344 22.0528788,92.6195042 22.0529692,92.6194741 L22.0540458,77.3800513 C22.0541613,77.0266244 22.3406641,76.7401215 22.694091,76.7400061 Z" id="Rectangle-23" fill="#FCFAF5" transform="translate(47.338185, 84.997976) rotate(-10.000000) translate(-47.338185, -84.997976) "></path>
                        </g>
                        <g id="check" transform="translate(102.800000, 0.200000)">
                            <ellipse id="Oval-3" fill="url(#linearGradient-2)" cx="41.2" cy="41" rx="41.2" ry="41"></ellipse>
                            <path d="M53.8839628,27.2826743 C54.9261052,26.2098074 56.599574,26.1569528 57.703154,27.1298252 L57.8568018,27.2757853 L58.0030179,27.438209 C58.8804975,28.4909349 58.8865166,30.0359757 58.0174983,31.0942053 L57.8645592,31.2659015 L34.2834233,55.6158046 C33.7578968,56.1568246 33.0426309,56.4590164 32.2958869,56.4590164 C32.1547229,56.4590164 32.0242191,56.4494199 31.9177129,56.4306921 C31.1223543,56.3184363 30.4219529,55.8689988 29.9797456,55.2012953 L29.8656678,55.0138722 L22.753278,42.2036838 C22.0012126,40.852287 22.4573103,39.1349723 23.7853145,38.3517056 C25.0757799,37.5905796 26.7046519,38.0001868 27.5128342,39.2393458 L27.6178451,39.4134319 L32.9063391,48.9443478 L53.8839628,27.2826743 Z" id="Path" fill="#FFFFFF" fill-rule="nonzero"></path>
                        </g>
                        <path d="M52.9464044,184.6 C48.3986512,191.8 44.2165164,195.218578 40.4,194.855733 C44.108629,195.218578 48.2907638,199 52.9464044,206.2 C57.8405264,198.637155 62.191725,195.037155 66,195.4 C62.2269382,195.037155 57.8757397,191.437155 52.9464044,184.6 Z" id="Path-8" fill="#FFDA2A"></path>
                        <ellipse id="Oval-9-Copy" fill="#FFDA2A" cx="26.2" cy="170.2" rx="3.8" ry="3.6"></ellipse>
                        <path d="M41.2868441,81.8 L42.0098247,78.4518356 C43.7696382,78.3185753 45.3669211,77.8632694 46.8016735,77.0859178 C49.1555641,75.8199452 50.629548,73.787726 51.2236251,70.9892603 C51.6831942,68.8682009 51.2796701,67.2246575 50.0130528,66.0586301 C49.2396316,65.3590137 47.6199307,64.5538995 45.15395,63.6432877 L45.15395,63.6432877 L46.5158439,57.2967671 C47.6143262,57.3745023 48.2924709,57.8075982 48.5502779,58.5960548 C48.707204,59.0513607 48.7240175,59.7731872 48.6007184,60.7615342 L48.6007184,60.7615342 L53.0226701,60.7615342 C53.5270752,58.0963288 52.9554161,56.1696073 51.3076926,54.9813699 C50.4333904,54.2373333 49.0939146,53.7931324 47.2892651,53.6487671 L47.2892651,53.6487671 L47.7768567,51.4 L46.1795738,51.4 L45.7087957,53.6154521 C44.5430594,53.7042922 43.6407347,53.843105 43.0018215,54.0318904 C41.9705932,54.331726 40.972992,54.8758721 40.0090177,55.6643288 C39.2580145,56.275105 38.6219036,57.002484 38.100685,57.8464658 C37.5794664,58.6904475 37.206767,59.6288219 36.982587,60.661589 C36.6463169,62.2273973 36.7976384,63.5655525 37.4365516,64.6760548 C38.0754647,65.7865571 39.3981271,66.6527489 41.4045386,67.2746301 L41.4045386,67.2746301 L42.6823649,67.674411 L41.1691495,74.7871781 C39.9361592,74.5650776 39.1795515,74.0820091 38.8993264,73.3379726 C38.7199824,72.8604566 38.7031689,71.9220822 38.8488859,70.5228493 L38.8488859,70.5228493 L34.3092398,70.5228493 C33.6142816,73.5989406 34.0906642,75.7755251 35.7383876,77.0526027 C36.6687349,77.7633242 38.2099728,78.2408402 40.3621013,78.4851507 L40.3621013,78.4851507 L39.6559341,81.8 L41.2868441,81.8 Z M43.4612979,63.0235294 C42.6924807,62.7696442 42.13848,62.4936819 41.7992959,62.1956427 C41.2113768,61.6547567 41.0191725,60.9206972 41.2226829,59.9934641 C41.4035811,59.1435004 41.7851632,58.4729121 42.3674292,57.9816993 C42.9496953,57.4904866 43.7326452,57.2338417 44.7162791,57.2117647 L44.7162791,57.2117647 L43.4612979,63.0235294 Z M42.9302326,74.6470588 L44.2484706,67.9411765 C45.0743547,68.2956221 45.6408265,68.638634 45.9478859,68.9702121 C46.4561223,69.5418986 46.6149461,70.3193922 46.4243575,71.3026929 C46.1702393,72.5947044 45.6567088,73.5036859 44.8837661,74.0296374 C44.4390592,74.3269144 43.7878814,74.5327215 42.9302326,74.6470588 L42.9302326,74.6470588 Z" id="$" fill="#C6E7F9" fill-rule="nonzero"></path>
                        <ellipse id="Oval-9" fill="#FFDA2A" cx="254.2" cy="96.2" rx="3.8" ry="3.6"></ellipse>
                        <path d="M233.354329,51.4 C228.948693,58.8666667 224.89725,62.4118582 221.2,62.0355746 C224.792734,62.4118582 228.844177,66.3333333 233.354329,73.8 C238.09551,65.9570497 242.310734,62.2237164 246,62.6 C242.344846,62.2237164 238.129623,58.490383 233.354329,51.4 Z" id="Path-8-Copy" fill="#FFDA2A"></path>
                    </g>
                </g>
            </g>
        </g>
    </g>
</svg>