<svg width="90" height="90" viewBox="0 0 90 90" fill="none" xmlns="http://www.w3.org/2000/svg">
<path fill-rule="evenodd" clip-rule="evenodd" d="M51.4324 10.3812C47.8263 7.45367 42.6622 7.45367 39.0561 10.3812L37.7456 11.4451C35.8554 12.9795 33.4626 13.757 31.0315 13.6266L29.3459 13.5362C24.7078 13.2874 20.5299 16.3228 19.3333 20.8108L18.8984 22.4418C18.2712 24.7942 16.7923 26.8297 14.7489 28.1532L13.3321 29.0708C9.43351 31.5957 7.83771 36.5071 9.50758 40.8414L10.1144 42.4165C10.9897 44.6883 10.9897 47.2043 10.1144 49.4761L9.50758 51.0512C7.83771 55.3855 9.43352 60.2969 13.3321 62.8218L14.7489 63.7394C16.7923 65.0629 18.2712 67.0983 18.8984 69.4507L19.3333 71.0818C19.4364 71.4683 19.5615 71.8441 19.7072 72.2079V68.7956H70.7792V72.2131C70.9258 71.8477 71.0517 71.4701 71.1553 71.0818L71.5901 69.4507C72.2174 67.0983 73.6962 65.0629 75.7397 63.7394L77.1565 62.8218C81.055 60.2969 82.6508 55.3855 80.981 51.0512L80.3741 49.4761C79.4988 47.2043 79.4988 44.6883 80.3741 42.4165L80.981 40.8413C82.6508 36.5071 81.055 31.5957 77.1565 29.0708L75.7396 28.1532C73.6962 26.8297 72.2174 24.7942 71.5901 22.4418L71.1553 20.8108C69.9586 16.3228 65.7807 13.2874 61.1426 13.5362L59.457 13.6266C57.0259 13.757 54.6331 12.9795 52.743 11.4451L51.4324 10.3812Z" fill="#C4EAEE"/>
<path d="M37.7835 43.5297C36.7219 41.1995 37.7503 38.45 40.0805 37.3884L41.8288 36.5919C44.159 35.5304 46.9085 36.5588 47.9701 38.8889L49.2307 41.6559C50.2922 43.9861 49.2638 46.7357 46.9337 47.7972L45.1853 48.5937C42.8552 49.6553 40.1056 48.6269 39.044 46.2967L37.7835 43.5297Z" fill="#F3AF99"/>
<path fill-rule="evenodd" clip-rule="evenodd" d="M36.7907 43.9824C35.4793 41.104 36.7497 37.7075 39.6282 36.3961L41.3765 35.5996C44.2549 34.2883 47.6514 35.5587 48.9628 38.4371L50.2234 41.2041C51.5347 44.0826 50.2643 47.4791 47.3859 48.7904L45.6375 49.5869C42.7591 50.8982 39.3626 49.6279 38.0512 46.7494L36.7907 43.9824ZM40.5327 38.3816C38.7508 39.1934 37.9644 41.296 38.7761 43.0779L40.0367 45.8449C40.8485 47.6268 42.9511 48.4132 44.733 47.6014L46.4813 46.8049C48.2632 45.9931 49.0497 43.8905 48.2379 42.1086L46.9773 39.3416C46.1655 37.5597 44.0629 36.7733 42.281 37.5851L40.5327 38.3816Z" fill="white"/>
<path d="M33.6643 46.6754C32.4804 44.6649 33.1504 42.0754 35.1608 40.8915C37.1712 39.7077 39.7607 40.3777 40.9446 42.3881L48.8119 55.748C49.9958 57.7584 49.3258 60.3479 47.3154 61.5318C45.3049 62.7157 42.7154 62.0457 41.5316 60.0353L33.6643 46.6754Z" fill="#F3AF99"/>
<path fill-rule="evenodd" clip-rule="evenodd" d="M32.7243 47.2287C31.2347 44.6991 32.0777 41.4409 34.6073 39.9513C37.1369 38.4617 40.3951 39.3047 41.8847 41.8343L49.752 55.1942C51.2416 57.7238 50.3986 60.982 47.869 62.4716C45.3394 63.9612 42.0812 63.1181 40.5916 60.5885L32.7243 47.2287ZM35.7144 41.8313C34.2232 42.7095 33.7262 44.6303 34.6043 46.1215L42.4716 59.4814C43.3498 60.9727 45.2706 61.4697 46.7618 60.5915C48.2531 59.7134 48.7501 57.7926 47.872 56.3013L40.0047 42.9414C39.1265 41.4502 37.2057 40.9532 35.7144 41.8313Z" fill="white"/>
<path d="M23.6665 35.2457C22.5425 32.7784 23.6314 29.8671 26.0987 28.7431L35.1286 24.6293L42.5539 40.9279L33.5239 45.0417C31.0567 46.1658 28.1454 45.0768 27.0214 42.6096L23.6665 35.2457Z" fill="#F3AF99"/>
<path fill-rule="evenodd" clip-rule="evenodd" d="M22.6737 35.6974C21.3 32.6819 22.6308 29.1236 25.6464 27.7498L35.6691 23.1838L43.9988 41.4679L33.9761 46.0339C30.9606 47.4077 27.4024 46.0768 26.0286 43.0613L22.6737 35.6974ZM26.5509 29.7353C24.6319 30.6096 23.785 32.8739 24.6592 34.7929L28.0141 42.1568C28.8883 44.0758 31.1526 44.9227 33.0716 44.0485L41.1088 40.3869L34.5881 26.0738L26.5509 29.7353Z" fill="white"/>
<path d="M50.0094 11.3913C49.0483 9.28156 49.9794 6.79214 52.0892 5.831C54.1989 4.86987 56.6883 5.80099 57.6494 7.91071L69.9474 34.9053C70.9086 37.015 69.9775 39.5045 67.8677 40.4656C65.758 41.4267 63.2686 40.4956 62.3075 38.3859L50.0094 11.3913Z" fill="#F3AF99"/>
<path fill-rule="evenodd" clip-rule="evenodd" d="M49.0166 11.844C47.8057 9.18598 48.9788 6.04961 51.6368 4.8387C54.2948 3.62778 57.4312 4.80088 58.6421 7.45888L70.9401 34.4535C72.151 37.1115 70.978 40.2479 68.32 41.4588C65.662 42.6697 62.5256 41.4966 61.3147 38.8386L49.0166 11.844ZM52.5414 6.82418C50.9799 7.53554 50.2908 9.378 51.0021 10.9394L63.3002 37.9341C64.0115 39.4955 65.854 40.1846 67.4154 39.4733C68.9769 38.7619 69.666 36.9195 68.9547 35.358L56.6566 8.36341C55.9453 6.80197 54.1028 6.11283 52.5414 6.82418Z" fill="white"/>
<path d="M35.1286 24.6289L49.3134 9.86363L63.0036 39.9142L42.5538 40.9275L35.1286 24.6289Z" fill="#F3AF99"/>
<path fill-rule="evenodd" clip-rule="evenodd" d="M49.6399 7.94934L64.6626 40.9245L41.8681 42.054L33.8288 24.4075L49.6399 7.94934ZM36.4284 24.8509L43.2395 39.8016L61.3447 38.9044L48.9868 11.7785L36.4284 24.8509Z" fill="white"/>
<path fill-rule="evenodd" clip-rule="evenodd" d="M28.7403 52.2022C25.8591 50.9497 22.7783 50.5043 20.4467 50.3653C19.2754 50.2955 18.8176 50.3022 18.1121 50.3266C17.7591 50.3389 17.478 50.3555 17.2829 50.3694C17.1854 50.3763 17.1093 50.3825 17.0565 50.3871C17.0301 50.3894 17.0095 50.3913 16.9949 50.3927L16.9723 50.4586V50.3949L16.9699 50.3951C16.9699 50.3951 17.1838 50.4196 17.2829 51.3914L16.9694 50.3952C16.4614 50.447 16.0789 50.881 16.0912 51.3914L16.6278 73.6102C16.6408 74.1497 17.0886 74.5767 17.6282 74.564L24.1185 74.399C24.9535 74.3793 25.6824 73.8685 25.9984 73.1222L35.1814 79.531C35.2658 79.5899 35.331 79.6366 35.4004 79.6863L35.4008 79.6867C35.4619 79.7304 35.5263 79.7766 35.61 79.8355C36.0751 80.1629 37.2151 80.9216 38.5517 81.4771C39.8311 82.0088 41.5719 82.4746 43.0748 81.8299C43.6106 81.6001 44.0098 81.5354 44.332 81.5371C44.661 81.5388 44.9662 81.6093 45.3373 81.7261C45.4348 81.7568 45.5379 81.7916 45.6469 81.8283C46.3479 82.0648 47.2913 82.3831 48.5454 82.2159C49.3328 82.1109 49.8924 81.817 50.3239 81.4237C50.5258 81.2397 50.6842 81.0479 50.8098 80.8861C50.8742 80.8033 50.9212 80.7405 50.9627 80.6851L50.963 80.6848C51.0176 80.6119 51.0626 80.5518 51.1247 80.4758C51.2898 80.2737 51.4056 80.1819 51.5785 80.1258C51.7828 80.0594 52.1813 80.0093 52.9648 80.1575C53.9967 80.3529 54.8289 80.2474 55.5194 79.8909C56.1797 79.55 56.6016 79.0291 56.8911 78.6614L56.9174 78.628C57.2344 78.2253 57.371 78.0517 57.5379 77.9495C57.6138 77.903 57.7709 77.8176 58.232 77.9532C59.1623 78.2268 60.0002 78.0887 60.6969 77.71C61.3634 77.3478 61.8584 76.7905 62.2123 76.273C62.5706 75.7492 62.823 75.2091 62.9844 74.8097C63.0337 74.6876 63.0754 74.5765 63.1097 74.4804L65.6137 73.5854C66.0092 74.1389 66.6615 74.4802 67.3724 74.462L72.7935 74.3091C73.3103 74.2959 73.7276 73.8825 73.7455 73.3657L74.4844 52.1084C74.5016 51.6141 74.147 51.1849 73.6584 51.1084C69.7702 50.5001 65.4116 51.0114 61.6359 52.4785C60.89 52.7683 60.4374 53.4361 60.3597 54.1598L48.4929 51.6231C46.8522 51.2724 45.1425 51.6244 43.7758 52.5884L29.9475 53.8804C29.8796 53.171 29.4513 52.5113 28.7403 52.2022ZM46.6816 75.4385C46.1745 76.1057 46.1747 76.1058 46.1747 76.1058L46.6816 75.4385ZM52.6736 73.5463L52.1465 74.1978C52.1465 74.1978 52.1463 74.1977 52.6736 73.5463ZM53.2007 72.8948L52.6736 73.5463C53.2009 72.8949 53.2007 72.8948 53.2007 72.8948Z" fill="white"/>
<path fill-rule="evenodd" clip-rule="evenodd" d="M43.6911 52.6783C45.0472 51.6611 46.7773 51.2806 48.4351 51.635L61.6524 54.4604C62.1679 54.5706 62.4965 55.0779 62.3863 55.5934C62.2761 56.1089 61.7688 56.4375 61.2533 56.3273L48.036 53.5019C46.918 53.2629 45.7512 53.5195 44.8366 54.2055L41.1234 56.9906L37.9039 63.2733L38.6813 63.6102C40.0774 64.2152 41.7053 63.8218 42.6711 62.6461L44.2096 60.7731C44.3909 60.5524 44.6615 60.4245 44.9472 60.4245L48.2585 60.4245C48.7857 60.4245 49.2131 60.8518 49.2131 61.379C49.2131 61.9062 48.7857 62.3335 48.2585 62.3335L45.3984 62.3335L44.1463 63.8578C42.6397 65.6919 40.1001 66.3056 37.9222 65.3619L36.2104 64.6201C35.9683 64.5152 35.7804 64.3147 35.6914 64.0663C35.6024 63.8179 35.6201 63.5438 35.7405 63.3089L39.5249 55.9239C39.591 55.7948 39.6856 55.6826 39.8016 55.5956L43.6911 52.6783Z" fill="#60638F"/>
<path fill-rule="evenodd" clip-rule="evenodd" d="M20.7425 50.3893C22.9546 50.5296 25.9002 50.9783 28.7535 52.2321C29.6445 52.6237 30.0821 53.581 29.8948 54.4808L26.0932 72.7489C25.8997 73.6787 25.0916 74.3531 24.1421 74.377L17.6293 74.5411C17.376 74.5475 17.1306 74.4529 16.9471 74.2782C16.7636 74.1036 16.6571 73.8631 16.651 73.6099L16.1144 51.3912C16.1024 50.8959 16.4713 50.4738 16.9637 50.4194L17.0686 51.3681C16.9637 50.4194 16.964 50.4193 16.9643 50.4193L16.9667 50.419L16.9718 50.4185L16.9883 50.4168C17.0022 50.4153 17.0216 50.4134 17.0464 50.4111C17.0961 50.4064 17.1673 50.4001 17.2586 50.3931C17.4412 50.3792 17.7042 50.3624 18.0352 50.3501C18.6966 50.3256 19.6324 50.3189 20.7425 50.3893ZM18.045 52.2602L18.5364 72.6085L24.094 72.4685C24.1573 72.4669 24.2112 72.4219 24.2241 72.36L28.0258 54.0919C28.0324 54.06 28.0271 54.032 28.0172 54.0122C28.0082 53.9939 27.9973 53.9851 27.9855 53.9799C25.4069 52.8468 22.7021 52.4265 20.6217 52.2946C19.5856 52.2289 18.7146 52.2353 18.1059 52.2579C18.0853 52.2587 18.065 52.2594 18.045 52.2602Z" fill="#60638F"/>
<path fill-rule="evenodd" clip-rule="evenodd" d="M44.9012 53.4659C44.9502 53.9908 44.5645 54.456 44.0396 54.5051L28.9568 55.9144C28.4319 55.9634 27.9666 55.5776 27.9176 55.0528C27.8685 54.5279 28.2543 54.0626 28.7792 54.0135L43.862 52.6043C44.3869 52.5552 44.8521 52.941 44.9012 53.4659ZM47.7018 60.9039C48.0515 60.5094 48.6548 60.473 49.0493 60.8227L62.9254 73.122C63.1985 73.364 63.3097 73.7406 63.2119 74.0921L62.2922 73.8363C63.2119 74.0921 63.2118 74.0925 63.2117 74.0928L63.2115 74.0935L63.2097 74.1L63.2058 74.1135C63.2026 74.1245 63.1983 74.1391 63.1928 74.1572C63.1818 74.1934 63.1662 74.2435 63.1457 74.3053C63.1049 74.4287 63.0443 74.6001 62.9629 74.8017C62.8018 75.2001 62.5502 75.7386 62.1932 76.2606C61.8404 76.7765 61.3479 77.3305 60.6859 77.6903C59.9942 78.0662 59.1626 78.2034 58.2385 77.9316C57.7724 77.7945 57.6083 77.8798 57.5258 77.9304C57.3553 78.0349 57.2163 78.2115 56.9029 78.6096L56.8729 78.6477C56.5835 79.0154 56.1642 79.5325 55.5088 79.871C54.8238 80.2246 53.9971 80.33 52.9691 80.1355C52.1837 79.9868 51.7808 80.0364 51.5713 80.1044C51.3926 80.1624 51.2733 80.2579 51.1068 80.4618C51.0445 80.5381 50.999 80.5987 50.9441 80.672C50.9025 80.7275 50.8555 80.7903 50.7915 80.8726C50.6662 81.0339 50.5088 81.2245 50.3083 81.4072C49.8803 81.7974 49.3251 82.0892 48.5423 82.1936C47.2939 82.3601 46.3558 82.0436 45.6548 81.8072C45.5456 81.7704 45.4422 81.7355 45.3442 81.7046C44.9722 81.5876 44.6645 81.5163 44.3321 81.5146C44.0063 81.5129 43.604 81.5784 43.0656 81.8093C41.5693 82.4512 39.8327 81.9861 38.5529 81.4532C37.217 80.8969 36.0785 80.138 35.618 79.8135C35.5391 79.7579 35.4765 79.713 35.4169 79.6704C35.3472 79.6204 35.2818 79.5735 35.1998 79.5163L25.4325 72.6996C25.0002 72.3979 24.8943 71.8029 25.196 71.3706C25.4977 70.9382 26.0927 70.8324 26.525 71.1341L36.2924 77.9507C36.3694 78.0045 36.463 78.0714 36.5499 78.1335C36.6121 78.178 36.6708 78.22 36.7175 78.2529C37.1301 78.5436 38.1376 79.2123 39.2868 79.6908C40.492 80.1926 41.5797 80.3694 42.313 80.0548C43.0612 79.7339 43.7223 79.6023 44.342 79.6055C44.9551 79.6087 45.4747 79.7444 45.9172 79.8836C46.0536 79.9265 46.182 79.9688 46.3048 80.0093C46.9936 80.2364 47.507 80.4057 48.29 80.3013C48.6898 80.248 48.8836 80.1227 49.0222 79.9963C49.1051 79.9208 49.1854 79.8282 49.2837 79.7017C49.3083 79.6699 49.3412 79.6264 49.3783 79.5772C49.4547 79.476 49.5493 79.3508 49.6281 79.2542C49.915 78.903 50.318 78.5041 50.9819 78.2886C51.615 78.0831 52.3751 78.08 53.3241 78.2597C54.0306 78.3934 54.4062 78.2917 54.6329 78.1746C54.8891 78.0423 55.0907 77.8252 55.3729 77.4668C55.3976 77.4354 55.424 77.4013 55.4519 77.3653C55.691 77.0566 56.0461 76.598 56.5284 76.3025C57.1604 75.9154 57.9029 75.843 58.7772 76.1001C59.1934 76.2225 59.5049 76.1593 59.7742 76.013C60.073 75.8506 60.3591 75.5605 60.6174 75.1829C60.8616 74.8258 61.0483 74.4384 61.1776 74.1239L47.783 62.2514C47.3884 61.9017 47.3521 61.2984 47.7018 60.9039Z" fill="#60638F"/>
<path fill-rule="evenodd" clip-rule="evenodd" d="M66.8804 72.0946C67.0579 72.5911 66.7993 73.1373 66.3028 73.3148L62.7712 74.5771C62.2748 74.7545 61.7285 74.4959 61.5511 73.9995C61.3737 73.5031 61.6322 72.9568 62.1287 72.7794L65.6603 71.5171C66.1567 71.3396 66.703 71.5982 66.8804 72.0946Z" fill="#60638F"/>
<path fill-rule="evenodd" clip-rule="evenodd" d="M72.5232 52.9065C69.1772 52.5406 65.4489 53.0398 62.3204 54.282C62.3061 54.2877 62.2945 54.2971 62.2852 54.3165C62.2749 54.3378 62.27 54.368 62.2794 54.4023L67.1665 72.4283C67.1829 72.4891 67.2389 72.5307 67.3019 72.5289L71.8456 72.4024L72.5232 52.9065ZM61.6159 52.5077C65.3178 51.0377 69.7595 50.5218 73.6548 51.1312C74.1318 51.2059 74.478 51.6249 74.4612 52.1075L73.7224 73.3648C73.7049 73.8685 73.2988 74.2718 72.795 74.2858L67.355 74.4373C66.4106 74.4636 65.5711 73.8397 65.3239 72.9278L60.4368 54.9019C60.1776 53.946 60.641 52.8948 61.6159 52.5077Z" fill="#60638F"/>
<path fill-rule="evenodd" clip-rule="evenodd" d="M41.5231 76.8549C41.5231 76.8549 41.5231 76.8549 41.5231 76.8549L41.5317 76.8619L41.5595 76.8845C41.5842 76.9045 41.6212 76.9344 41.669 76.9727C41.7646 77.0494 41.9036 77.16 42.0755 77.2944C42.4199 77.5635 42.8942 77.9265 43.4156 78.3031C43.9386 78.6808 44.5008 79.0663 45.0223 79.3834C45.5592 79.7099 45.9973 79.9292 46.286 80.0158C46.7188 80.1456 46.9644 80.6018 46.8345 81.0346C46.7047 81.4674 46.2486 81.713 45.8158 81.5831C45.316 81.4332 44.7292 81.1203 44.1721 80.7816C43.5997 80.4335 42.999 80.0207 42.4576 79.6297C41.9147 79.2376 41.4232 78.8614 41.0678 78.5836C40.8899 78.4445 40.7455 78.3297 40.6453 78.2493C40.5951 78.2091 40.556 78.1775 40.5292 78.1557L40.4983 78.1307L40.4872 78.1216C40.4871 78.1216 40.4869 78.1213 41.005 77.4881L40.4869 78.1213C40.1371 77.8352 40.0856 77.3197 40.3717 76.97C40.6579 76.6203 41.1734 76.5688 41.5231 76.8549Z" fill="#60638F"/>
<path fill-rule="evenodd" clip-rule="evenodd" d="M47.1768 74.7869L47.1865 74.7943L47.2182 74.8182C47.2463 74.8393 47.2884 74.8708 47.3428 74.9113C47.4517 74.9922 47.61 75.1088 47.8063 75.2505C48.1991 75.5343 48.7415 75.9168 49.3406 76.313C49.9411 76.7101 50.5904 77.1154 51.1985 77.4478C51.8204 77.7877 52.3466 78.0216 52.7144 78.1136C53.1528 78.2232 53.4193 78.6674 53.3097 79.1058C53.2001 79.5442 52.7559 79.8107 52.3175 79.7011C51.7393 79.5565 51.0631 79.2386 50.4137 78.8837C49.7505 78.5212 49.0594 78.0889 48.438 77.6779C47.815 77.2659 47.2535 76.8699 46.8482 76.5771C46.6453 76.4306 46.4809 76.3095 46.3668 76.2247C46.3097 76.1823 46.2652 76.1489 46.2347 76.126L46.1996 76.0996L46.1868 76.0898C46.1867 76.0898 46.1866 76.0897 46.6817 75.4383L46.1868 76.0898C45.827 75.8164 45.7569 75.303 46.0303 74.9432C46.3037 74.5835 46.817 74.5135 47.1768 74.7869Z" fill="#60638F"/>
<path fill-rule="evenodd" clip-rule="evenodd" d="M52.0377 73.0319C52.322 72.6808 52.8371 72.6265 53.1883 72.9107C53.1883 72.9107 53.1883 72.9107 53.1883 72.9107L53.1895 72.9117L53.1954 72.9164C53.2008 72.9208 53.2093 72.9276 53.2208 72.9367C53.2438 72.955 53.2786 72.9826 53.3243 73.0182C53.4156 73.0895 53.5501 73.1931 53.7198 73.3198C54.0598 73.5735 54.5386 73.9183 55.093 74.2815C56.225 75.0231 57.5866 75.7844 58.7063 76.0643C59.1447 76.1739 59.4112 76.6181 59.3016 77.0565C59.192 77.4949 58.7478 77.7614 58.3094 77.6518C56.9062 77.301 55.3507 76.4066 54.1963 75.6503C53.6075 75.2645 53.1008 74.8996 52.741 74.6311C52.5609 74.4966 52.417 74.3858 52.3173 74.3081C52.2675 74.2692 52.2287 74.2385 52.202 74.2172C52.1886 74.2066 52.1782 74.1983 52.171 74.1925L52.1625 74.1856L52.159 74.1828C52.1589 74.1827 52.1588 74.1827 52.6736 73.5467L52.159 74.1828C51.8078 73.8985 51.7534 73.3831 52.0377 73.0319Z" fill="#60638F"/>
</svg>
