<?xml version="1.0" encoding="UTF-8"?>
<svg width="80px" height="80px" viewBox="0 0 80 80" version="1.1" xmlns="http://www.w3.org/2000/svg" xmlns:xlink="http://www.w3.org/1999/xlink">
    <title>67358F88-E56A-42E7-97EF-8B73A580E3BE</title>
    <defs>
        <filter color-interpolation-filters="auto" id="filter-1">
            <feColorMatrix in="SourceGraphic" type="matrix" values="0 0 0 0 0.954031 0 0 0 0 0.687302 0 0 0 0 0.601039 0 0 0 1.000000 0"></feColorMatrix>
        </filter>
        <filter color-interpolation-filters="auto" id="filter-2">
            <feColorMatrix in="SourceGraphic" type="matrix" values="0 0 0 0 0.767500 0 0 0 0 0.916000 0 0 0 0 0.932500 0 0 0 1.000000 0"></feColorMatrix>
        </filter>
        <filter color-interpolation-filters="auto" id="filter-3">
            <feColorMatrix in="SourceGraphic" type="matrix" values="0 0 0 0 0.376471 0 0 0 0 0.388235 0 0 0 0 0.560784 0 0 0 1.000000 0"></feColorMatrix>
        </filter>
    </defs>
    <g id="擴充功能" stroke="none" stroke-width="1" fill="none" fill-rule="evenodd">
        <g id="切圖" transform="translate(-59.000000, -45.000000)">
            <g id="ext/統計分析_fin" transform="translate(59.000000, 45.000000)">
                <rect id="Rectangle" stroke="#979797" stroke-width="0.5" fill="#D8D8D8" opacity="0" x="0.25" y="0.25" width="79.5" height="79.5"></rect>
                <g id="Group" transform="translate(6.385542, 8.072289)">
                    <g filter="url(#filter-1)" id="A">
                        <g transform="translate(39.579795, 5.180723)">
                            <path d="M0.181374225,17.4586709 L5.7862434,9.66597685 C6.0970676,9.23382442 6.69936915,9.13546845 7.13152159,9.44629264 C7.17216352,9.47552422 7.21046627,9.50787777 7.24608215,9.5430596 L11.7767423,14.0185053 C12.1554518,14.3925996 12.7657198,14.3888582 13.1398141,14.0101486 C13.2083129,13.9408047 13.2658971,13.8614717 13.3106017,13.7748565 L19.8856343,1.03573089 C20.1297803,0.562697984 20.7111687,0.3771485 21.1842016,0.621294514 C21.2381651,0.649146641 21.2893756,0.682036332 21.3371501,0.719524911 L26.3238195,4.63255404 L26.3238195,4.63255404 L26.3238195,32.1686747 C26.3238195,32.834078 25.7844035,33.373494 25.1190002,33.373494 L0,33.373494 L0,33.373494 L0,18.0214679 C-3.46642537e-15,17.8194995 0.0634444888,17.6226337 0.181374225,17.4586709 Z" id="Path-6" fill="#919191"></path>
                        </g>
                    </g>
                    <g filter="url(#filter-2)" id="B">
                        <g transform="translate(0.000000, 11.686747)">
                            <path d="M19.0361446,13.9759036 C19.5684672,13.9759036 20,14.4074364 20,14.939759 L20,33.373494 C20,33.9058166 19.5684672,34.3373494 19.0361446,34.3373494 L14.3373494,34.3373494 C13.8050267,34.3373494 13.373494,33.9058166 13.373494,33.373494 L13.373494,14.939759 C13.373494,14.4074364 13.8050267,13.9759036 14.3373494,13.9759036 L19.0361446,13.9759036 Z M28.6746988,18.1927711 C29.2070214,18.1927711 29.6385542,18.6243039 29.6385542,19.1566265 L29.6385542,33.373494 C29.6385542,33.9058166 29.2070214,34.3373494 28.6746988,34.3373494 L22.1686747,34.3373494 C21.636352,34.3373494 21.2048193,33.9058166 21.2048193,33.373494 L21.2048193,19.1566265 C21.2048193,18.6243039 21.636352,18.1927711 22.1686747,18.1927711 L28.6746988,18.1927711 Z" id="Shape" fill="#D8D8D8"></path>
                            <path d="M4.81927711,0 L34.939759,0 C37.6013723,0 39.7590361,2.15766386 39.7590361,4.81927711 L39.7590361,8.19277108 L0,8.19277108 L0,4.81927711 C0,2.15766386 2.15766386,0 4.81927711,0 Z" id="Rectangle" fill="#D8D8D8"></path>
                        </g>
                    </g>
                    <g filter="url(#filter-3)" id="line">
                        <g>
                            <path d="M53.9156627,40.9638554 C54.4479853,40.9638554 54.8795181,41.3953882 54.8795181,41.9277108 C54.8795181,42.4499897 54.4641159,42.8752461 53.9456843,42.8911076 L53.9156627,42.8915663 L28.373494,42.8915663 C27.8411713,42.8915663 27.4096386,42.4600335 27.4096386,41.9277108 C27.4096386,41.405432 27.8250407,40.9801756 28.3434724,40.9643141 L28.373494,40.9638554 L53.9156627,40.9638554 Z M68.1325301,0 C68.6548089,0 69.0800654,0.415402141 69.0959269,0.933833816 L69.0963855,0.963855422 L69.0963855,8.88621385 C69.0963855,9.4185365 68.6648528,9.85006927 68.1325301,9.85006927 C67.6102513,9.85006927 67.1849948,9.43466713 67.1691334,8.91623545 L67.1686747,8.88621385 L67.1686747,0.963855422 C67.1686747,0.431532771 67.6002075,0 68.1325301,0 Z" id="Shape" fill="#000000" fill-rule="nonzero" transform="translate(48.253012, 21.445783) scale(-1, 1) translate(-48.253012, -21.445783) "></path>
                            <path d="M34.939759,11.686747 C37.6013723,11.686747 39.7590361,13.8444108 39.7590361,16.5060241 L39.7590361,59.0361446 C39.7590361,61.6977578 37.6013723,63.8554217 34.939759,63.8554217 L4.81927711,63.8554217 C2.15766386,63.8554217 0,61.6977578 0,59.0361446 L0,16.5060241 C0,13.8444108 2.15766386,11.686747 4.81927711,11.686747 L34.939759,11.686747 Z M34.939759,13.6144578 L4.81927711,13.6144578 C3.23827884,13.6144578 1.95363305,14.8832936 1.92809823,16.4582068 L1.92771084,16.5060241 L1.92771084,59.0361446 C1.92771084,60.6171429 3.19654665,61.9017886 4.77145977,61.9277108 L4.81927711,61.9277108 L34.939759,61.9277108 C36.5207573,61.9277108 37.8054031,60.658875 37.8309379,59.0839619 L37.8313253,59.0361446 L37.8313253,16.5060241 C37.8313253,14.9250258 36.5624895,13.64038 34.9875764,13.6144578 L34.939759,13.6144578 Z" id="Rectangle" fill="#000000" fill-rule="nonzero"></path>
                            <path d="M6.92698988,30 C8.03813595,30 9.00309925,30.759371 9.26705853,31.8347834 L9.27724172,31.8779674 L9.75186747,33.975 L31.5296731,33.9759036 C33.126641,33.9759036 34.4212393,35.2705019 34.4212393,36.8674699 C34.4212393,37.0822878 34.3973009,37.2964368 34.3498673,37.5059525 L32.2768375,46.662579 C31.9785316,47.9802037 30.8076138,48.9156627 29.4566433,48.9156627 L13.5113734,48.9156627 C13.380671,48.9156627 13.2516553,48.906907 13.1249531,48.8898971 L13.3731988,49.9841405 C13.531898,50.6856704 14.1472555,51.1872805 14.8630958,51.2043688 L30,51.2048193 C30.5323227,51.2048193 30.9638554,51.636352 30.9638554,52.1686747 C30.9638554,52.6909535 30.5484533,53.11621 30.0300216,53.1320715 L29.7955137,53.1318425 C30.0038824,53.5702127 30.1204819,54.0606463 30.1204819,54.5783133 C30.1204819,56.4414425 28.6101172,57.9518072 26.746988,57.9518072 C24.8838587,57.9518072 23.373494,56.4414425 23.373494,54.5783133 C23.373494,54.0606463 23.4900935,53.5702127 23.6984622,53.1318425 L19.9159956,53.1318425 C20.1243644,53.5702127 20.2409639,54.0606463 20.2409639,54.5783133 C20.2409639,56.4414425 18.7305992,57.9518072 16.8674699,57.9518072 C15.0043406,57.9518072 13.4939759,56.4414425 13.4939759,54.5783133 C13.4939759,54.0013969 13.6387936,53.4583045 13.8940598,52.9834052 C12.7276724,52.6336823 11.8004621,51.6869085 11.5042354,50.4575902 L11.4929973,50.4094774 L7.39704025,32.3033043 C7.34912757,32.0915064 7.16593736,31.9389315 6.95099748,31.9283034 L6.92698988,31.9277108 L5.18072289,31.9277108 C4.64840024,31.9277108 4.21686747,31.4961781 4.21686747,30.9638554 C4.21686747,30.4415766 4.63226961,30.0163201 5.15070129,30.0004587 L6.92698988,30 Z M16.8674699,53.1325301 C16.0689859,53.1325301 15.4216867,53.7798293 15.4216867,54.5783133 C15.4216867,55.3767972 16.0689859,56.0240964 16.8674699,56.0240964 C17.6659539,56.0240964 18.313253,55.3767972 18.313253,54.5783133 C18.313253,53.7798293 17.6659539,53.1325301 16.8674699,53.1325301 Z M26.746988,53.1325301 C25.948504,53.1325301 25.3012048,53.7798293 25.3012048,54.5783133 C25.3012048,55.3767972 25.948504,56.0240964 26.746988,56.0240964 C27.5454719,56.0240964 28.1927711,55.3767972 28.1927711,54.5783133 C28.1927711,53.7798293 27.5454719,53.1325301 26.746988,53.1325301 Z M15.5508675,42.108 L11.6408675,42.108 L12.5711116,46.2360518 C12.6679084,46.6654547 13.04271,46.9733586 13.4800326,46.9874475 L16.1498675,46.987 L15.5508675,42.108 Z M26.2468675,42.108 L22.1078675,42.108 L22.1078675,46.987 L25.6468675,46.987 L26.2468675,42.108 Z M31.3308675,42.108 L27.4608675,42.108 L26.8618675,46.987 L29.4566433,46.9879518 C29.8964941,46.9879518 30.2790865,46.6904668 30.3893016,46.2673573 L30.396708,46.2369239 L31.3308675,42.108 Z M20.9028675,42.108 L16.7638675,42.108 L17.3638675,46.987 L20.9028675,46.987 L20.9028675,42.108 Z M14.7898675,35.903 L10.2419277,35.9036145 L11.3688675,40.903 L15.4038675,40.903 L14.7898675,35.903 Z M27.0078675,35.903 L22.1078675,35.903 L22.1078675,40.903 L26.3938675,40.903 L27.0078675,35.903 Z M31.5296731,35.9036145 L28.2218675,35.903 L27.6078675,40.903 L31.6028675,40.903 L32.4697378,37.0802974 C32.485549,37.0104589 32.4935285,36.9390759 32.4935285,36.8674699 C32.4935285,36.3451911 32.0781263,35.9199346 31.5596947,35.9040731 L31.5296731,35.9036145 Z M20.9028675,35.903 L16.0028675,35.903 L16.6168675,40.903 L20.9028675,40.903 L20.9028675,35.903 Z" id="Combined-Shape" fill="#000000" fill-rule="nonzero"></path>
                            <path d="M5.30120482,16.0240964 C5.70044681,16.0240964 6.02409639,16.347746 6.02409639,16.746988 C6.02409639,17.1462299 5.70044681,17.4698795 5.30120482,17.4698795 C4.90196283,17.4698795 4.57831325,17.1462299 4.57831325,16.746988 C4.57831325,16.347746 4.90196283,16.0240964 5.30120482,16.0240964 Z M8.19277108,16.0240964 C8.59201307,16.0240964 8.91566265,16.347746 8.91566265,16.746988 C8.91566265,17.1462299 8.59201307,17.4698795 8.19277108,17.4698795 C7.7935291,17.4698795 7.46987952,17.1462299 7.46987952,16.746988 C7.46987952,16.347746 7.7935291,16.0240964 8.19277108,16.0240964 Z M11.0843373,16.0240964 C11.4835793,16.0240964 11.8072289,16.347746 11.8072289,16.746988 C11.8072289,17.1462299 11.4835793,17.4698795 11.0843373,17.4698795 C10.6850954,17.4698795 10.3614458,17.1462299 10.3614458,16.746988 C10.3614458,16.347746 10.6850954,16.0240964 11.0843373,16.0240964 Z" id="Combined-Shape" fill="#919191"></path>
                        </g>
                    </g>
                </g>
            </g>
        </g>
    </g>
</svg>