<?xml version="1.0" encoding="UTF-8"?>
<svg width="80px" height="80px" viewBox="0 0 80 80" version="1.1" xmlns="http://www.w3.org/2000/svg" xmlns:xlink="http://www.w3.org/1999/xlink">
    <title>55B8B211-77F7-428B-83CE-BC1D05C18DB6</title>
    <defs>
        <filter color-interpolation-filters="auto" id="filter-1">
            <feColorMatrix in="SourceGraphic" type="matrix" values="0 0 0 0 0.767500 0 0 0 0 0.916000 0 0 0 0 0.932500 0 0 0 1.000000 0"></feColorMatrix>
        </filter>
        <filter color-interpolation-filters="auto" id="filter-2">
            <feColorMatrix in="SourceGraphic" type="matrix" values="0 0 0 0 0.376471 0 0 0 0 0.388235 0 0 0 0 0.560784 0 0 0 1.000000 0"></feColorMatrix>
        </filter>
        <filter color-interpolation-filters="auto" id="filter-3">
            <feColorMatrix in="SourceGraphic" type="matrix" values="0 0 0 0 0.954031 0 0 0 0 0.687302 0 0 0 0 0.601039 0 0 0 1.000000 0"></feColorMatrix>
        </filter>
    </defs>
    <g id="擴充功能" stroke="none" stroke-width="1" fill="none" fill-rule="evenodd">
        <g id="切圖" transform="translate(-59.000000, -295.000000)">
            <g id="ext/訂單滿額折扣_fin" transform="translate(59.000000, 295.000000)">
                <rect id="Rectangle" stroke="#979797" stroke-width="0.5" fill="#D8D8D8" opacity="0" x="0.25" y="0.25" width="79.5" height="79.5"></rect>
                <g id="Group" transform="translate(7.590361, 6.867470)">
                    <g filter="url(#filter-1)" id="B">
                        <g transform="translate(0.963855, 0.963855)">
                            <path d="M2.89156627,25.060241 L22.1686747,25.060241 L22.1686747,50.1204819 L2.89156627,50.1204819 C1.29459831,50.1204819 0,48.8258836 0,47.2289157 L0,27.9518072 C0,26.3548393 1.29459831,25.060241 2.89156627,25.060241 Z" id="Rectangle" fill="#D8D8D8"></path>
                            <path d="M10.2409639,0 L22.1686747,0 L22.1686747,12.7904871 C22.1686747,13.1897291 21.8450251,13.5133786 21.4457831,13.5133786 C21.2622627,13.5133786 21.085612,13.4435787 20.951658,13.3181352 L19.2401395,11.7153544 C18.9500684,11.4437124 18.4951204,11.4571559 18.2215952,11.7454519 L16.7292385,13.3183981 C16.4544488,13.6080268 15.9968973,13.6200562 15.7072686,13.3452666 C15.6980785,13.3365474 15.6891193,13.3275881 15.6804001,13.3183981 L14.1880434,11.7454519 C13.9145182,11.4571559 13.4595701,11.4437124 13.1694991,11.7153544 L11.4579806,13.3181352 C11.1665685,13.591033 10.709105,13.5760242 10.4362073,13.2846122 C10.3107638,13.1506582 10.2409639,12.9740075 10.2409639,12.7904871 L10.2409639,0 Z" id="Rectangle" fill="#D8D8D8"></path>
                            <path d="M27.9518072,14.8192771 L53.0120482,14.8192771 L53.0120482,19.3975904 C53.0120482,20.9945583 51.7174499,22.2891566 50.1204819,22.2891566 L30.8433735,22.2891566 C29.2464055,22.2891566 27.9518072,20.9945583 27.9518072,19.3975904 L27.9518072,14.8192771 Z" id="Rectangle" fill="#D8D8D8"></path>
                        </g>
                    </g>
                    <path d="M11.3253012,26.0240964 L22.8915663,26.0240964 L22.8915663,38.6900093 C22.8915663,39.0892513 22.5679167,39.4129016 22.1686747,39.4129016 C21.9723135,39.4129016 21.7844009,39.3330206 21.6481448,39.1916275 L20.0761644,37.5603812 C19.7991283,37.2729005 19.341497,37.2644334 19.0540162,37.5414695 C19.0435815,37.5515251 19.0334516,37.5618922 19.02364,37.5725567 L17.6404281,39.0760238 C17.3701164,39.3698361 16.9128034,39.3888872 16.618991,39.1185754 C16.6042226,39.1049883 16.5900265,39.0907921 16.5764393,39.0760238 L15.1932274,37.5725567 C14.9229157,37.2787443 14.4656027,37.2596933 14.1717903,37.530005 C14.1611258,37.5398165 14.1507587,37.5499465 14.1407031,37.5603812 L12.5687227,39.1916275 C12.2916866,39.4791082 11.8340553,39.4875753 11.5465746,39.2105392 C11.4051814,39.0742831 11.3253012,38.8863705 11.3253012,38.6900093 L11.3253012,26.0240964 Z" id="Rectangle" fill="#FFFFFF"></path>
                    <g filter="url(#filter-2)" id="line">
                        <g>
                            <path d="M30.3614458,0 C32.4241961,0 34.1085906,1.61993357 34.2118508,3.6570222 L34.2168675,3.85542169 L34.216,14.819 L32.289,14.819 L32.2891566,3.85542169 C32.2891566,2.79077639 31.4260911,1.92771084 30.3614458,1.92771084 L3.85542169,1.92771084 C2.84147378,1.92771084 2.01036466,2.71053673 1.93351061,3.70477222 L1.92771084,3.85542169 L1.92771084,23.1325301 C1.92771084,24.146478 2.71053673,24.9775871 3.70477222,25.0544412 L3.85542169,25.060241 L23.012,25.06 L23.012,26.987 L3.85542169,26.9879518 C2.84147378,26.9879518 2.01036466,27.7707777 1.93351061,28.7650132 L1.92771084,28.9156627 L1.92771084,48.1927711 C1.92771084,49.206719 2.71053673,50.0378281 3.70477222,50.1146822 L3.85542169,50.1204819 L23.012,50.12 L23.012,52.048 L3.85542169,52.0481928 C1.79267142,52.0481928 0.108276903,50.4282592 0.00501665077,48.3911706 L0,48.1927711 L0,28.9156627 C0,27.7640396 0.504922326,26.7303475 1.30546337,26.02389 C0.558291729,25.3649149 0.0686368377,24.4205225 0.00667028179,23.3612202 L0,23.1325301 L0,3.85542169 C0,1.79267142 1.61993357,0.108276903 3.6570222,0.00501665077 L3.85542169,0 L30.3614458,0 Z" id="Combined-Shape" fill="#363B4A" fill-rule="nonzero"></path>
                            <path d="M55.060241,13.8554217 C58.2222375,13.8554217 60.7915291,16.3930933 60.8425987,19.5429195 L60.8433735,19.6385542 L60.8433735,30.0164281 C60.8433735,30.5487507 60.4118407,30.9802835 59.8795181,30.9802835 C59.3572392,30.9802835 58.9319828,30.5648814 58.9161213,30.0464497 L58.9156627,19.6385542 C58.9156627,17.5305565 57.2238816,15.8176955 55.1239974,15.783649 L55.060241,15.7831325 L27.8313253,15.7831325 C25.7233276,15.7831325 24.0104666,17.4749136 23.9764201,19.5747978 L23.9759036,19.6385542 L23.9759036,60.2409639 C23.9759036,62.3489616 25.6676847,64.0618226 27.7675689,64.095869 L55.060241,64.0963855 C57.1682387,64.0963855 58.8810997,62.4046045 58.9151461,60.3047203 L58.9156627,60.2409639 C58.9156627,59.7086412 59.3471954,59.2771084 59.8795181,59.2771084 C60.4118407,59.2771084 60.8433735,59.7086412 60.8433735,60.2409639 C60.8433735,63.4029604 58.3057019,65.972252 55.1558756,66.0233216 L55.060241,66.0240964 L27.8313253,66.0240964 C24.6693288,66.0240964 22.1000372,63.4864248 22.0489675,60.3365985 L22.0481928,19.6385542 C22.0481928,16.4765577 24.5858644,13.9072661 27.7356906,13.8561965 L55.060241,13.8554217 Z M34.8192771,53.1927711 C35.3515998,53.1927711 35.7831325,53.6243039 35.7831325,54.1566265 C35.7831325,54.6789053 35.3677304,55.1041618 34.8492987,55.1200233 L29.7590361,55.1204819 C29.2267135,55.1204819 28.7951807,54.6889492 28.7951807,54.1566265 C28.7951807,53.6343477 29.2105829,53.2090912 29.7290145,53.1932297 L34.8192771,53.1927711 Z M37.4698795,45.8433735 C38.0022022,45.8433735 38.4337349,46.2749063 38.4337349,46.8072289 C38.4337349,47.3295077 38.0183328,47.7547642 37.4999011,47.7706257 L29.7590361,47.7710843 C29.2267135,47.7710843 28.7951807,47.3395516 28.7951807,46.8072289 C28.7951807,46.2849501 29.2105829,45.8596936 29.7290145,45.8438321 L37.4698795,45.8433735 Z M31.686747,41.8674699 C32.0194486,41.8674699 32.2891566,42.1371779 32.2891566,42.4698795 C32.2891566,42.7938259 32.033457,43.0580504 31.7128783,43.0717326 L30.7228916,43.0722892 C30.3901899,43.0722892 30.1204819,42.8025812 30.1204819,42.4698795 C30.1204819,42.1459332 30.3761815,41.8817087 30.6967603,41.8680264 L31.686747,41.8674699 Z M38.4337349,41.8674699 C38.7664366,41.8674699 39.0361446,42.1371779 39.0361446,42.4698795 C39.0361446,42.7938259 38.780445,43.0580504 38.4598662,43.0717326 L34.5783133,43.0722892 C34.2456116,43.0722892 33.9759036,42.8025812 33.9759036,42.4698795 C33.9759036,42.1459332 34.2316032,41.8817087 34.552182,41.8680264 L38.4337349,41.8674699 Z M40.4819277,37.2891566 C41.0142504,37.2891566 41.4457831,37.7206894 41.4457831,38.253012 C41.4457831,38.7752909 41.030381,39.2005473 40.5119493,39.2164088 L29.7590361,39.2168675 C29.2267135,39.2168675 28.7951807,38.7853347 28.7951807,38.253012 C28.7951807,37.7307332 29.2105829,37.3054768 29.7290145,37.2896153 L40.4819277,37.2891566 Z M31.686747,33.1927711 C32.0194486,33.1927711 32.2891566,33.4624791 32.2891566,33.7951807 C32.2891566,34.1191271 32.033457,34.3833516 31.7128783,34.3970338 L30.7228916,34.3975904 C30.3901899,34.3975904 30.1204819,34.1278824 30.1204819,33.7951807 C30.1204819,33.4712344 30.3761815,33.2070099 30.6967603,33.1933277 L31.686747,33.1927711 Z M38.4337349,33.1927711 C38.7664366,33.1927711 39.0361446,33.4624791 39.0361446,33.7951807 C39.0361446,34.1191271 38.780445,34.3833516 38.4598662,34.3970338 L34.5783133,34.3975904 C34.2456116,34.3975904 33.9759036,34.1278824 33.9759036,33.7951807 C33.9759036,33.4712344 34.2316032,33.2070099 34.552182,33.1933277 L38.4337349,33.1927711 Z M49.2771084,28.4939759 C49.8094311,28.4939759 50.2409639,28.9255087 50.2409639,29.4578313 C50.2409639,29.9801102 49.8255617,30.4053666 49.30713,30.4212281 L29.7590361,30.4216867 C29.2267135,30.4216867 28.7951807,29.990154 28.7951807,29.4578313 C28.7951807,28.9355525 29.2105829,28.510296 29.7290145,28.4944346 L49.2771084,28.4939759 Z" id="Combined-Shape" fill="#000000" fill-rule="nonzero"></path>
                        </g>
                    </g>
                    <g id="badge_discount" transform="translate(40.481928, 30.963855)">
                        <g filter="url(#filter-3)" id="A">
                            <g transform="translate(0.120482, 0.000000)">
                                <path d="M14.3336011,0 C12.5035074,0 11.0637483,1.92607764 9.47041499,2.58516734 C7.8194913,3.26985274 5.44548862,2.94990629 4.20409639,4.19769746 C2.95630522,5.44548862 3.27625167,7.81309237 2.59156627,9.46401606 C1.92607764,11.0637483 0,12.4971084 0,14.3336011 C0,16.1636948 1.92607764,17.6034538 2.58516734,19.1967871 C3.26985274,20.8477108 2.94990629,23.2217135 4.19769746,24.4631058 C5.44548862,25.7108969 7.81309237,25.3909505 9.46401606,26.0756359 C11.0573494,26.7347256 12.4971084,28.6608032 14.3272021,28.6608032 C16.1572959,28.6608032 17.5970549,26.7347256 19.1903882,26.0756359 C20.8413119,25.3909505 23.2153146,25.7108969 24.4567068,24.4631058 C25.704498,23.2153146 25.3845515,20.8477108 26.0692369,19.1967871 C26.7283266,17.6034538 28.6544043,16.1636948 28.6544043,14.3336011 C28.6544043,12.5035074 26.7283266,11.0637483 26.0692369,9.47041499 C25.3845515,7.8194913 25.704498,5.44548862 24.4567068,4.20409639 C23.2217135,2.94990629 20.8477108,3.26985274 19.1967871,2.58516734 C17.6034538,1.92607764 16.1636948,0 14.3336011,0 L14.3336011,0 Z" id="Path" fill="#919191"></path>
                            </g>
                        </g>
                        <path d="M18.8554217,14.1566265 C20.5854703,14.1566265 21.9879518,15.559108 21.9879518,17.2891566 C21.9879518,19.0192052 20.5854703,20.4216867 18.8554217,20.4216867 C17.1253731,20.4216867 15.7228916,19.0192052 15.7228916,17.2891566 C15.7228916,15.559108 17.1253731,14.1566265 18.8554217,14.1566265 Z M18.247395,8.25220011 C18.6054875,8.4767666 18.7194101,8.94347386 18.5099286,9.30657238 L18.4947878,9.33173238 L11.8080409,19.994383 C11.5782519,20.3608032 11.0949288,20.4715648 10.7285086,20.2417758 C10.3704161,20.0172093 10.2564935,19.550502 10.4659751,19.1874035 L10.4811158,19.1622435 L17.1678628,8.49959292 C17.3976517,8.13317268 17.8809748,8.02241115 18.247395,8.25220011 Z M18.8554217,15.7228916 C17.9903974,15.7228916 17.2891566,16.4241323 17.2891566,17.2891566 C17.2891566,18.1541809 17.9903974,18.8554217 18.8554217,18.8554217 C19.720446,18.8554217 20.4216867,18.1541809 20.4216867,17.2891566 C20.4216867,16.4241323 19.720446,15.7228916 18.8554217,15.7228916 Z M10.060241,8.13253012 C11.7902896,8.13253012 13.1927711,9.53501163 13.1927711,11.2650602 C13.1927711,12.9951089 11.7902896,14.3975904 10.060241,14.3975904 C8.33019235,14.3975904 6.92771084,12.9951089 6.92771084,11.2650602 C6.92771084,9.53501163 8.33019235,8.13253012 10.060241,8.13253012 Z M10.060241,9.69879518 C9.19521666,9.69879518 8.4939759,10.4000359 8.4939759,11.2650602 C8.4939759,12.1300845 9.19521666,12.8313253 10.060241,12.8313253 C10.9252653,12.8313253 11.626506,12.1300845 11.626506,11.2650602 C11.626506,10.4000359 10.9252653,9.69879518 10.060241,9.69879518 Z" id="Combined-Shape" fill="#FFFFFF"></path>
                    </g>
                </g>
            </g>
        </g>
    </g>
</svg>