<?xml version="1.0" encoding="UTF-8"?>
<svg width="80px" height="80px" viewBox="0 0 80 80" version="1.1" xmlns="http://www.w3.org/2000/svg" xmlns:xlink="http://www.w3.org/1999/xlink">
    <title>AEB6E43D-8682-4710-845B-7450BE6D209A</title>
    <defs>
        <filter color-interpolation-filters="auto" id="filter-1">
            <feColorMatrix in="SourceGraphic" type="matrix" values="0 0 0 0 0.819608 0 0 0 0 0.905882 0 0 0 0 1.000000 0 0 0 1.000000 0"></feColorMatrix>
        </filter>
        <filter color-interpolation-filters="auto" id="filter-2">
            <feColorMatrix in="SourceGraphic" type="matrix" values="0 0 0 0 0.376471 0 0 0 0 0.388235 0 0 0 0 0.560784 0 0 0 1.000000 0"></feColorMatrix>
        </filter>
        <filter color-interpolation-filters="auto" id="filter-3">
            <feColorMatrix in="SourceGraphic" type="matrix" values="0 0 0 0 0.954031 0 0 0 0 0.687302 0 0 0 0 0.601039 0 0 0 1.000000 0"></feColorMatrix>
        </filter>
    </defs>
    <g id="擴充功能" stroke="none" stroke-width="1" fill="none" fill-rule="evenodd">
        <g id="切圖" transform="translate(-193.000000, -545.000000)">
            <g id="ext/優惠碼_fin" transform="translate(193.000000, 545.000000)">
                <rect id="Rectangle" stroke="#979797" stroke-width="0.5" fill="#D8D8D8" opacity="0" x="0.25" y="0.25" width="79.5" height="79.5"></rect>
                <g id="Group" transform="translate(2.771084, 14.457831)">
                    <g filter="url(#filter-1)" id="B">
                        <g transform="translate(5.783133, 0.000000)">
                            <path d="M13.9759036,7.71084337 C15.1273894,7.71084337 16.1609724,8.2156454 16.8674238,9.01602065 C17.5739673,8.2156454 18.6075503,7.71084337 19.7590361,7.71084337 L57.3493976,7.71084337 C59.4786882,7.71084337 61.2048193,9.43697446 61.2048193,11.5662651 L61.2048193,39.8795181 C61.2048193,42.0088087 59.4786882,43.7349398 57.3493976,43.7349398 L55.421,43.7348434 L55.4216867,18.313253 C55.4216867,15.7235753 53.3790773,13.6109745 50.8170791,13.4986715 L50.6024096,13.4939759 L14.939759,13.4939759 C13.3632112,13.4939759 11.9634751,14.2509974 11.0844494,15.421366 C10.2540468,14.3160179 8.95938333,13.5793652 7.48997757,13.5009264 L7.22891566,13.4939759 L0,13.4938434 L0,11.5662651 C0,9.43697446 1.72613108,7.71084337 3.85542169,7.71084337 L13.9759036,7.71084337 Z M21.686747,0 C22.8382328,0 23.8718158,0.504802031 24.5782672,1.30517728 C25.2848107,0.504802031 26.3183937,0 27.4698795,0 L65.060241,0 C67.1895316,0 68.9156627,1.72613108 68.9156627,3.85542169 L68.9156627,32.1686747 C68.9156627,34.2979653 67.1895316,36.0240964 65.060241,36.0240964 L63.1318434,36.024 L63.1325301,11.5662651 C63.1325301,8.37232916 60.5433335,5.78313253 57.3493976,5.78313253 L19.6871166,5.7835744 C18.709177,5.79559476 17.7712651,6.0525178 16.9458775,6.51245125 L16.8674699,6.55686747 L16.8595771,6.55240808 C15.9972321,6.05586601 15.0077768,5.78313253 13.9759036,5.78313253 L7.71084337,5.783 L7.71084337,3.85542169 C7.71084337,1.72613108 9.43697446,0 11.5662651,0 L21.686747,0 Z" id="Combined-Shape" fill="#FFFFFF" fill-rule="nonzero"></path>
                        </g>
                    </g>
                    <g filter="url(#filter-2)" id="line">
                        <g transform="translate(0.000000, 13.493976)">
                            <path d="M13.0120482,0 C14.5885961,0 15.9883321,0.757021505 16.8675819,1.92739013 C17.7466076,0.757021505 19.1463437,0 20.7228916,0 L56.3855422,0 C59.0471554,0 61.2048193,2.15766386 61.2048193,4.81927711 L61.2048193,31.2048193 C61.2048193,33.8664325 59.0471554,36.0240964 56.3855422,36.0240964 L20.7228916,36.0240964 C19.1463437,36.0240964 17.7466076,35.2670749 16.8673578,34.0967063 C15.9883321,35.2670749 14.5885961,36.0240964 13.0120482,36.0240964 L4.81927711,36.0240964 C2.15766386,36.0240964 0,33.8664325 0,31.2048193 L0,24.7664264 C0,23.5966627 0.704517392,22.5439353 1.7817158,22.0963318 L1.82810865,22.0775207 C3.5812571,21.3841535 4.45783133,20.0490763 4.45783133,18.0722892 C4.45783133,16.1167578 3.60000679,14.7892103 1.88435771,14.0896468 L1.82810859,14.0670576 C0.724790285,13.6306969 0,12.5646265 0,11.3781519 L0,4.81927711 C0,2.15766386 2.15766386,0 4.81927711,0 L13.0120482,0 Z M13.0120482,1.92771084 L4.81927711,1.92771084 C3.23827884,1.92771084 1.95363305,3.19654665 1.92771084,4.77145977 L1.92771084,11.3781519 C1.92771084,11.7736435 2.16930763,12.1290003 2.53708029,12.2744538 C5.03749661,13.2633642 6.38554217,15.3165216 6.38554217,18.0722892 C6.38554217,20.8280567 5.03749664,22.8812141 2.53708037,23.8701245 C2.17981536,24.0114222 1.94161935,24.3508 1.92829981,24.7326294 L1.92771084,24.7664264 L1.92771084,31.2048193 C1.92771084,32.7858175 3.19654665,34.0704633 4.77145977,34.0959982 L4.81927711,34.0963855 L13.0120482,34.0963855 C13.9172641,34.0963855 14.7497089,33.6798761 15.2948492,32.9797336 L15.3259793,32.939027 C16.0886666,31.9235558 17.6040055,31.9124259 18.3831764,32.9057283 L18.4085947,32.9388384 C18.9428622,33.6500014 19.7683897,34.0799529 20.6707487,34.0959244 L20.7228916,34.0963855 L56.3855422,34.0963855 C57.9665404,34.0963855 59.2511862,32.8275497 59.2771084,31.2526366 L59.2771084,4.81927711 C59.2771084,3.23827884 58.0082726,1.95363305 56.4333595,1.92809823 L56.3855422,1.92771084 L20.7228916,1.92771084 C19.8176756,1.92771084 18.9852308,2.34422025 18.4400906,3.04436278 L18.4089605,3.08506935 C17.6462731,4.10054058 16.1309342,4.11167053 15.3517633,3.1183681 L15.326345,3.08525799 C14.7920776,2.37409502 13.96655,1.94414344 13.0641911,1.92817203 L13.0120482,1.92771084 Z M56.1445783,30.7228916 C56.47728,30.7228916 56.746988,30.9925995 56.746988,31.3253012 C56.746988,31.6492476 56.4912883,31.9134721 56.1707096,31.9271543 L52.2891566,31.9277108 C51.956455,31.9277108 51.686747,31.6580029 51.686747,31.3253012 C51.686747,31.0013549 51.9424466,30.7371303 52.2630253,30.7234481 L52.2891566,30.7228916 L56.1445783,30.7228916 Z M17.1021615,28.3734268 C17.4348622,28.3726231 17.7052224,28.6416772 17.706028,28.9743779 L17.706028,28.9743779 L17.7080719,29.8177489 C17.7088756,30.1504496 17.4398215,30.4208098 17.1071208,30.4216172 C16.7744201,30.422421 16.5040599,30.1533668 16.5032543,29.8206661 L16.5032543,29.8206661 L16.5012105,28.9772951 C16.5004067,28.6445944 16.7694608,28.3742342 17.1021615,28.3734268 Z M56.1445783,28.313253 C56.47728,28.313253 56.746988,28.582961 56.746988,28.9156627 C56.746988,29.239609 56.4912883,29.5038335 56.1707096,29.5175157 L56.1445783,29.5180723 L55.1807229,29.5180723 C54.8480212,29.5180723 54.5783133,29.2483643 54.5783133,28.9156627 C54.5783133,28.5917163 54.8340129,28.3274918 55.1545916,28.3138096 L56.1445783,28.313253 Z M17.091076,23.795127 C17.4237767,23.7943232 17.694137,24.0633774 17.6949425,24.3960781 L17.6949425,24.3960781 L17.6969864,25.2394491 C17.6977902,25.5721498 17.428736,25.84251 17.0960353,25.8433174 C16.7633347,25.8441211 16.4929744,25.575067 16.4921688,25.2423663 L16.4921688,25.2423663 L16.490125,24.3989953 C16.4893212,24.0662946 16.7583754,23.7959344 17.091076,23.795127 Z M17.0799906,19.2168272 C17.4126913,19.2160234 17.6830515,19.4850776 17.6838571,19.8177782 L17.6838571,19.8177782 L17.6859009,20.6611493 C17.6867047,20.9938499 17.4176505,21.2642102 17.0849499,21.2650175 C16.7522492,21.2658213 16.4818889,20.9967672 16.4810834,20.6640665 L16.4810834,20.6640665 L16.4790395,19.8206955 C16.4782357,19.4879948 16.7472899,19.2176345 17.0799906,19.2168272 Z M17.0689051,14.6385273 C17.4016058,14.6377236 17.671966,14.9067777 17.6727716,15.2394784 L17.6727716,15.2394784 L17.6748155,16.0828494 C17.6756192,16.4155501 17.4065651,16.6859103 17.0738644,16.6867177 C16.7411637,16.6875215 16.4708035,16.4184673 16.4699979,16.0857667 L16.4699979,16.0857667 L16.467954,15.2423956 C16.4671503,14.9096949 16.7362044,14.6393347 17.0689051,14.6385273 Z M17.0578196,10.0602275 C17.3905203,10.0594237 17.6608805,10.3284779 17.6616861,10.6611786 L17.6616861,10.6611786 L17.66373,11.5045496 C17.6645337,11.8372503 17.3954796,12.1076105 17.0627789,12.1084179 C16.7300782,12.1092216 16.459718,11.8401675 16.4589124,11.5074668 L16.4589124,11.5074668 L16.4568686,10.6640958 C16.4560648,10.3313951 16.7251189,10.0610349 17.0578196,10.0602275 Z M17.0467342,5.48192767 C17.3794348,5.48112391 17.6497951,5.75017805 17.6506006,6.08287873 L17.6506006,6.08287873 L17.6526445,6.92624976 C17.6534483,7.25895044 17.3843941,7.52931067 17.0516934,7.53011805 C16.7189928,7.53092181 16.4486325,7.26186767 16.447827,6.92916699 L16.447827,6.92916699 L16.4457831,6.08579596 C16.4449793,5.75309528 16.7140335,5.48273505 17.0467342,5.48192767 Z" id="Combined-Shape" fill="#000000" fill-rule="nonzero"></path>
                        </g>
                    </g>
                    <g id="badge_discount" transform="translate(23.855422, 17.349398)">
                        <g filter="url(#filter-3)" id="A">
                            <g transform="translate(0.119893, 0.000000)">
                                <path d="M14.2635257,0 C12.4423791,0 11.0096589,1.92514428 9.42411519,2.58391458 C7.78126267,3.26826819 5.41886623,2.94847679 4.18354303,4.19566328 C2.94185217,5.44284977 3.26023444,7.80930619 2.57889639,9.45942986 C1.91666126,11.0583869 0,12.4910524 0,14.3266551 C0,16.155862 1.91666126,17.5949233 2.57252874,19.1874845 C3.2538668,20.8376082 2.93548453,23.2104604 4.17717538,24.4512511 C5.41886623,25.6984376 7.77489503,25.3786462 9.41774754,26.0629998 C11.0032912,26.7217701 12.4360115,28.6469144 14.257158,28.6469144 C16.0783046,28.6469144 17.5110248,26.7217701 19.0965685,26.0629998 C20.7394211,25.3786462 23.1018175,25.6984376 24.3371407,24.4512511 C25.5788316,23.2040646 25.2604493,20.8376082 25.9417873,19.1874845 C26.5976548,17.5949233 28.5143161,16.155862 28.5143161,14.3266551 C28.5143161,12.4974482 26.5976548,11.0583869 25.9417873,9.46582569 C25.2604493,7.81570202 25.5788316,5.44284977 24.3371407,4.20205911 C23.1081851,2.94847679 20.7457887,3.26826819 19.1029362,2.58391458 C17.5173925,1.92514428 16.0846723,0 14.2635257,0 L14.2635257,0 Z" id="Path" fill="#919191"></path>
                            </g>
                        </g>
                        <path d="M18.7632396,14.1497663 C20.4848302,14.1497663 21.8804552,15.5515682 21.8804552,17.2807784 C21.8804552,19.0099887 20.4848302,20.4117905 18.7632396,20.4117905 C17.041649,20.4117905 15.6460241,19.0099887 15.6460241,17.2807784 C15.6460241,15.5515682 17.041649,14.1497663 18.7632396,14.1497663 Z M18.1581855,8.24820115 C18.5145274,8.47265881 18.627893,8.93913991 18.4194356,9.30206247 L18.4043689,9.32721028 L11.7503127,19.9846938 C11.5216471,20.3509365 11.040687,20.4616444 10.6760581,20.2319668 C10.3197163,20.0075091 10.2063506,19.541028 10.4148081,19.1781054 L10.4298748,19.1529576 L17.083931,8.49547407 C17.3125965,8.12923139 17.7935567,8.01852353 18.1581855,8.24820115 Z M18.7632396,15.7152723 C17.9024443,15.7152723 17.2046319,16.4161733 17.2046319,17.2807784 C17.2046319,18.1453835 17.9024443,18.8462845 18.7632396,18.8462845 C19.6240349,18.8462845 20.3218474,18.1453835 20.3218474,17.2807784 C20.3218474,16.4161733 19.6240349,15.7152723 18.7632396,15.7152723 Z M10.0110576,8.12858915 C11.7326482,8.12858915 13.1282731,9.53039102 13.1282731,11.2596013 C13.1282731,12.9888115 11.7326482,14.3906134 10.0110576,14.3906134 C8.28946697,14.3906134 6.89384203,12.9888115 6.89384203,11.2596013 C6.89384203,9.53039102 8.28946697,8.12858915 10.0110576,8.12858915 Z M10.0110576,9.6940952 C9.15026226,9.6940952 8.4524498,10.3949961 8.4524498,11.2596013 C8.4524498,12.1242064 9.15026226,12.8251073 10.0110576,12.8251073 C10.8718529,12.8251073 11.5696653,12.1242064 11.5696653,11.2596013 C11.5696653,10.3949961 10.8718529,9.6940952 10.0110576,9.6940952 Z" id="Combined-Shape" fill="#FFFFFF"></path>
                    </g>
                </g>
            </g>
        </g>
    </g>
</svg>