<?xml version="1.0" encoding="UTF-8"?>
<svg width="80px" height="80px" viewBox="0 0 80 80" version="1.1" xmlns="http://www.w3.org/2000/svg" xmlns:xlink="http://www.w3.org/1999/xlink">
    <title>E97F19CE-5A25-41A8-9A87-7DD244BD3A08</title>
    <defs>
        <filter color-interpolation-filters="auto" id="filter-1">
            <feColorMatrix in="SourceGraphic" type="matrix" values="0 0 0 0 0.767500 0 0 0 0 0.916000 0 0 0 0 0.932500 0 0 0 1.000000 0"></feColorMatrix>
        </filter>
        <filter color-interpolation-filters="auto" id="filter-2">
            <feColorMatrix in="SourceGraphic" type="matrix" values="0 0 0 0 0.376471 0 0 0 0 0.388235 0 0 0 0 0.560784 0 0 0 1.000000 0"></feColorMatrix>
        </filter>
        <filter color-interpolation-filters="auto" id="filter-3">
            <feColorMatrix in="SourceGraphic" type="matrix" values="0 0 0 0 0.954031 0 0 0 0 0.687302 0 0 0 0 0.601039 0 0 0 1.000000 0"></feColorMatrix>
        </filter>
        <filter color-interpolation-filters="auto" id="filter-4">
            <feColorMatrix in="SourceGraphic" type="matrix" values="0 0 0 0 1.000000 0 0 0 0 1.000000 0 0 0 0 1.000000 0 0 0 1.000000 0"></feColorMatrix>
        </filter>
    </defs>
    <g id="擴充功能" stroke="none" stroke-width="1" fill="none" fill-rule="evenodd">
        <g id="切圖" transform="translate(-59.000000, -545.000000)">
            <g id="ext/訂單滿額免運_fin" transform="translate(59.000000, 545.000000)">
                <rect id="Rectangle" stroke="#979797" stroke-width="0.5" fill="#D8D8D8" opacity="0" x="0.25" y="0.25" width="79.5" height="79.5"></rect>
                <g id="Group-2" transform="translate(6.626506, 12.650602)">
                    <g filter="url(#filter-1)" id="B">
                        <g transform="translate(0.843373, 0.000000)">
                            <polygon id="Rectangle" fill="#D8D8D8" points="17.5903614 18.313253 41.0843373 18.313253 41.0843373 35.1807229 17.5903614 35.1807229"></polygon>
                            <path d="M20.4819277,0 L41.0843373,0 L41.0843373,16.8674699 L17.5903614,16.8674699 L17.5903614,2.89156627 C17.5903614,1.29459831 18.8849598,0 20.4819277,0 Z" id="Rectangle" fill="#D8D8D8"></path>
                            <path d="M42.5301205,0 L63.1325301,0 C64.7294981,0 66.0240964,1.29459831 66.0240964,2.89156627 L66.0240964,16.8674699 L42.5301205,16.8674699 L42.5301205,0 Z" id="Rectangle" fill="#D8D8D8"></path>
                            <polygon id="Rectangle" fill="#D8D8D8" points="42.5301205 18.313253 66.0240964 18.313253 66.0240964 35.1807229 42.5301205 35.1807229"></polygon>
                            <path d="M0.481927711,36.1445783 L4.93975904,36.1445783 C5.20592036,36.1445783 5.42168675,36.3603447 5.42168675,36.626506 L5.42168675,39.5180723 C5.42168675,39.7842336 5.20592036,40 4.93975904,40 L0.481927711,40 C0.215766386,40 0,39.7842336 0,39.5180723 L0,36.626506 C0,36.3603447 0.215766386,36.1445783 0.481927711,36.1445783 Z" id="Rectangle" fill="#D8D8D8"></path>
                        </g>
                    </g>
                    <g filter="url(#filter-2)" id="line">
                        <g transform="translate(0.000000, 5.060241)">
                            <path d="M14.5783133,0 C16.6863109,0 18.399172,1.69178108 18.4332184,3.79166524 L18.4337349,3.85542169 L18.4337349,28.1927711 C18.4337349,29.244742 19.2763736,30.0999042 20.3235096,30.1201161 L20.3614458,30.1204819 L66.8674699,30.1204819 L66.8674699,38.5542169 C66.8674699,41.7162134 64.3297983,44.285505 61.179972,44.3365746 L61.0843373,44.3373494 L60.2125537,44.3373494 C59.6802311,44.3373494 59.2486983,43.9058166 59.2486983,43.373494 C59.2486983,42.8512151 59.6641004,42.4259587 60.1825321,42.4100972 L60.2125537,42.4096386 L61.0843373,42.4096386 C63.192335,42.4096386 64.9051961,40.7178575 64.9392425,38.6179733 L64.939759,38.5542169 L64.939759,32.0481928 L20.3614458,32.0481928 C18.2534481,32.0481928 16.540587,30.3564117 16.5065406,28.2565275 L16.5060241,28.1927711 L16.5060241,3.85542169 C16.5060241,2.80345073 15.6633854,1.94828859 14.6162495,1.92807668 L14.5783133,1.92771084 L10.7228916,1.92771084 C9.07936824,1.92771084 7.61448995,2.96869373 7.07578936,4.51374423 L7.06337349,4.54975904 L2.1312068,21.2934075 L2.12579721,21.3096256 C2.00279872,21.6783804 1.93632305,22.0634729 1.92849406,22.4518236 L1.92771084,22.5295333 L1.92771084,38.5542169 C1.92771084,40.6622146 3.61949192,42.3750756 5.71937608,42.409122 L5.78313253,42.4096386 L10.326036,42.4096386 C10.8583587,42.4096386 11.2898914,42.8411713 11.2898914,43.373494 C11.2898914,43.8957728 10.8744893,44.3210293 10.3560576,44.3368907 L10.326036,44.3373494 L5.78313253,44.3373494 C2.62113599,44.3373494 0.0518444065,41.7996778 0.000774774531,38.6498515 L0,38.5542169 L0,22.5295333 C0,21.9386683 0.0905496011,21.3514786 0.268333889,20.7883791 L0.290361446,20.720241 L5.2248349,3.96948918 L5.23024448,3.95327101 C6.00954336,1.6168997 8.1888689,0.031942667 10.6482794,0.000477163369 L10.7228916,0 L14.5783133,0 Z M46.9269745,42.4096386 C47.4592971,42.4096386 47.8908299,42.8411713 47.8908299,43.373494 C47.8908299,43.8957728 47.4754278,44.3210293 46.9569961,44.3368907 L46.9269745,44.3373494 L23.4575714,44.3373494 C22.9252487,44.3373494 22.4937159,43.9058166 22.4937159,43.373494 C22.4937159,42.8512151 22.9091181,42.4259587 23.4275498,42.4100972 L23.4575714,42.4096386 L46.9269745,42.4096386 Z" id="Shape" fill="#000000" fill-rule="nonzero"></path>
                            <path d="M13.4939759,0 L13.4939759,18.4337349 C13.4939759,21.0953482 11.336312,23.253012 8.6746988,23.253012 L0,23.253012 L6.19805893,3.38412142 C6.82604102,1.37102224 8.6899105,0 10.798685,0 L13.4939759,0 Z M12.2891566,1.20481928 L10.798685,1.20481928 C9.23411036,1.20481928 7.84928566,2.21109158 7.36372915,3.69437404 L7.34821545,3.74291034 L1.63783133,22.0481928 L8.6746988,22.0481928 C10.6509466,22.0481928 12.2567539,20.462148 12.2886724,18.4935066 L12.2891566,18.4337349 L12.2891566,1.20481928 Z" id="Rectangle" fill="#000000" fill-rule="nonzero"></path>
                            <path d="M17.2289157,35.060241 C21.2213355,35.060241 24.4578313,38.2967367 24.4578313,42.2891566 C24.4578313,46.2815765 21.2213355,49.5180723 17.2289157,49.5180723 C13.2364958,49.5180723 10,46.2815765 10,42.2891566 C10,38.2967367 13.2364958,35.060241 17.2289157,35.060241 Z M17.2289157,36.9879518 C14.3011411,36.9879518 11.9277108,39.361382 11.9277108,42.2891566 C11.9277108,45.2169312 14.3011411,47.5903614 17.2289157,47.5903614 C20.1566902,47.5903614 22.5301205,45.2169312 22.5301205,42.2891566 C22.5301205,39.361382 20.1566902,36.9879518 17.2289157,36.9879518 Z" id="Oval" fill="#000000" fill-rule="nonzero"></path>
                            <path d="M53.373494,35.1807229 C57.3659139,35.1807229 60.6024096,38.4172187 60.6024096,42.4096386 C60.6024096,46.4020584 57.3659139,49.6385542 53.373494,49.6385542 C49.3810741,49.6385542 46.1445783,46.4020584 46.1445783,42.4096386 C46.1445783,38.4172187 49.3810741,35.1807229 53.373494,35.1807229 Z M53.373494,37.1084337 C50.4457194,37.1084337 48.0722892,39.481864 48.0722892,42.4096386 C48.0722892,45.3374131 50.4457194,47.7108434 53.373494,47.7108434 C56.3012686,47.7108434 58.6746988,45.3374131 58.6746988,42.4096386 C58.6746988,39.481864 56.3012686,37.1084337 53.373494,37.1084337 Z" id="Oval" fill="#000000" fill-rule="nonzero"></path>
                        </g>
                    </g>
                    <g filter="url(#filter-3)" id="A">
                        <g transform="translate(25.180723, 8.915663)">
                            <path d="M2.89156627,0 L32.0481928,0 C33.6451607,0 34.939759,1.29459831 34.939759,2.89156627 L34.939759,14.3373494 C34.939759,15.9343173 33.6451607,17.2289157 32.0481928,17.2289157 L2.89156627,17.2289157 C1.29459831,17.2289157 0,15.9343173 0,14.3373494 L0,2.89156627 C0,1.29459831 1.29459831,0 2.89156627,0 Z" id="Rectangle" fill="#919191"></path>
                        </g>
                    </g>
                    <g filter="url(#filter-4)" id="Group">
                        <g transform="translate(24.216867, 7.951807)">
                            <path d="M7.21989387,13.9759036 C7.48015889,13.9759036 7.66792152,13.919923 7.78318174,13.8079617 C7.89844196,13.6960004 7.95607208,13.5819658 7.95607208,13.4658578 L7.95607208,13.4658578 L7.95607208,10.0696989 L10.3207657,10.0696989 C10.5587223,10.0696989 10.7297536,10.017865 10.8338596,9.9141971 C10.9379656,9.81052925 10.9900186,9.63429389 10.9900186,9.38549104 C10.9900186,9.14498162 10.9379656,8.96667292 10.8338596,8.85056492 C10.7074452,8.73445692 10.5364139,8.67640292 10.3207657,8.67640292 L10.3207657,8.67640292 L7.95607208,8.67640292 L7.95607208,6.57401885 L10.6553922,6.57401885 C10.8710403,6.57401885 11.0383536,6.52218492 11.1573318,6.41851707 C11.2763101,6.31484921 11.3320812,6.13446715 11.3246451,5.87737087 C11.3172089,5.62027459 11.2595788,5.43989253 11.1517547,5.33622467 C11.0439307,5.23255682 10.8821945,5.18072289 10.6665464,5.18072289 L10.6665464,5.18072289 L7.21989387,5.18072289 C6.98193728,5.18072289 6.80346984,5.23048346 6.68449154,5.3300046 C6.56551324,5.42952574 6.5060241,5.60783445 6.5060241,5.86493073 L6.5060241,5.86493073 L6.5060241,13.4658578 C6.5060241,13.5819658 6.55993614,13.6960004 6.66776022,13.8079617 C6.7755843,13.919923 6.95962885,13.9759036 7.21989387,13.9759036 Z M16.820954,13.7867388 C16.9475234,13.9276851 17.1150417,13.9898673 17.3235089,13.9732854 C17.5319761,13.9567035 17.7106623,13.8655029 17.8595675,13.6996838 C18.0084727,13.5338646 18.0792026,13.3431725 18.0717574,13.1276076 C18.0643121,12.9120426 17.9861369,12.7213505 17.8372317,12.5555313 L17.8372317,12.5555313 L15.6483258,10.1552986 C15.7302237,10.1470076 15.8083989,10.1345712 15.8828515,10.1179893 L15.8828515,10.1179893 L16.1062092,10.0682435 C16.6050415,9.94387911 17.0015015,9.69100485 17.2955892,9.30962071 C17.5896769,8.92823658 17.7367207,8.37688777 17.7367207,7.6555743 C17.7367207,7.18298961 17.67902,6.78709629 17.5636185,6.46789435 C17.448217,6.14869241 17.276976,5.89374541 17.0498957,5.70305334 C16.8228153,5.51236127 16.5398955,5.37763318 16.2011363,5.29886906 C15.862377,5.22010495 15.4733623,5.18072289 15.034092,5.18072289 L15.034092,5.18072289 L13.3477411,5.18072289 C13.1541644,5.18072289 12.9959526,5.19108659 12.8731059,5.21181399 C12.7502591,5.23254139 12.6553321,5.27192345 12.5883247,5.32996016 C12.5213174,5.38799688 12.4747846,5.47090647 12.4487262,5.57868895 C12.4226678,5.68647142 12.4096386,5.82741773 12.4096386,6.00152788 L12.4096386,6.00152788 L12.4096386,13.3265906 C12.4096386,13.4758278 12.4617554,13.6209196 12.565989,13.761866 C12.6702226,13.9028123 12.8526314,13.9732854 13.1132154,13.9732854 C13.3737995,13.9732854 13.5636536,13.9069577 13.6827777,13.7743024 C13.8019018,13.641647 13.8614639,13.4924098 13.8614639,13.3265906 L13.8614639,13.3265906 L13.8614639,10.3169723 L16.820954,13.7867388 Z M15.0213758,8.79518072 L13.8554217,8.79518072 L13.8554217,6.62650602 L15.0213758,6.62650602 C15.1842393,6.62650602 15.3415505,6.64080049 15.4933096,6.66938942 C15.6450688,6.69797835 15.7783207,6.75107208 15.8930653,6.82867061 C16.00781,6.90626914 16.0984954,7.01449867 16.1651213,7.1533592 C16.2317473,7.29221973 16.2650602,7.46783745 16.2650602,7.68021237 C16.2650602,8.13763529 16.1595692,8.43781907 15.948587,8.58076373 C15.7376048,8.72370839 15.4285344,8.79518072 15.0213758,8.79518072 L15.0213758,8.79518072 Z M23.3140708,13.8554217 C23.5971942,13.8554217 23.7983609,13.8056386 23.9175707,13.7060725 C24.0367806,13.6065064 24.0963855,13.4239685 24.0963855,13.1584588 C24.0963855,12.8929491 24.0367806,12.7104112 23.9175707,12.6108451 C23.7983609,12.511279 23.5971942,12.4614959 23.3140708,12.4614959 L23.3140708,12.4614959 L20.6094968,12.4614959 L20.6094968,10.0719089 L23.2023115,10.0719089 C23.4407313,10.0719089 23.6120954,10.0200515 23.7164041,9.9163368 C23.8207127,9.81262208 23.872867,9.63630706 23.872867,9.38739175 C23.872867,9.13847643 23.8207127,8.95801283 23.7164041,8.84600093 C23.6120954,8.73398904 23.4407313,8.67798309 23.2023115,8.67798309 L23.2023115,8.67798309 L20.6094968,8.67798309 L20.6094968,6.57464867 L23.3140708,6.57464867 C23.5301387,6.57464867 23.6977775,6.52279131 23.8169874,6.41907659 C23.9361973,6.31536188 23.9920769,6.13489827 23.9846263,5.87768578 C23.9771757,5.62047328 23.9194334,5.44000968 23.8113994,5.33629496 C23.7033655,5.23258025 23.5413146,5.18072289 23.3252467,5.18072289 L23.3252467,5.18072289 L19.8718857,5.18072289 C19.633466,5.18072289 19.4546512,5.23050595 19.3354413,5.33007208 C19.2162314,5.42963821 19.1566265,5.60802752 19.1566265,5.86524001 L19.1566265,5.86524001 L19.1566265,13.1709046 C19.1566265,13.4364142 19.2199568,13.6168778 19.3466172,13.7122954 C19.4732777,13.8077129 19.6483672,13.8554217 19.8718857,13.8554217 L19.8718857,13.8554217 L23.3140708,13.8554217 Z M29.579131,13.8554217 C29.8622544,13.8554217 30.0634211,13.8056386 30.182631,13.7060725 C30.3018408,13.6065064 30.3614458,13.4239685 30.3614458,13.1584588 C30.3614458,12.8929491 30.3018408,12.7104112 30.182631,12.6108451 C30.0634211,12.511279 29.8622544,12.4614959 29.579131,12.4614959 L29.579131,12.4614959 L26.8745571,12.4614959 L26.8745571,10.0719089 L29.4673717,10.0719089 C29.7057915,10.0719089 29.8771557,10.0200515 29.9814643,9.9163368 C30.085773,9.81262208 30.1379273,9.63630706 30.1379273,9.38739175 C30.1379273,9.13847643 30.085773,8.95801283 29.9814643,8.84600093 C29.8771557,8.73398904 29.7057915,8.67798309 29.4673717,8.67798309 L29.4673717,8.67798309 L26.8745571,8.67798309 L26.8745571,6.57464867 L29.579131,6.57464867 C29.7951989,6.57464867 29.9628378,6.52279131 30.0820476,6.41907659 C30.2012575,6.31536188 30.2571371,6.13489827 30.2496865,5.87768578 C30.2422359,5.62047328 30.1844936,5.44000968 30.0764597,5.33629496 C29.9684257,5.23258025 29.8063748,5.18072289 29.5903069,5.18072289 L29.5903069,5.18072289 L26.136946,5.18072289 C25.8985262,5.18072289 25.7197114,5.23050595 25.6005016,5.33007208 C25.4812917,5.42963821 25.4216867,5.60802752 25.4216867,5.86524001 L25.4216867,5.86524001 L25.4216867,13.1709046 C25.4216867,13.4364142 25.485017,13.6168778 25.6116775,13.7122954 C25.738338,13.8077129 25.9134275,13.8554217 26.136946,13.8554217 L26.136946,13.8554217 L29.579131,13.8554217 Z" id="FREE" fill="#FFFFFF" fill-rule="nonzero"></path>
                            <path d="M33.9759036,0 C35.5728716,0 36.8674699,1.29459831 36.8674699,2.89156627 L36.8674699,16.2650602 C36.8674699,17.8620282 35.5728716,19.1566265 33.9759036,19.1566265 L2.89156627,19.1566265 C1.29459831,19.1566265 0,17.8620282 0,16.2650602 L0,2.89156627 C0,1.29459831 1.29459831,0 2.89156627,0 L33.9759036,0 Z M33.9759036,1.56626506 L2.89156627,1.56626506 C2.17124077,1.56626506 1.58513673,2.14093537 1.56671174,2.85681838 L1.56626506,2.89156627 L1.56626506,16.2650602 C1.56626506,16.9853857 2.14093537,17.5714898 2.85681838,17.5899148 L2.89156627,17.5903614 L33.9759036,17.5903614 C34.6962291,17.5903614 35.2823332,17.0156911 35.3007581,16.2998081 L35.3012048,16.2650602 L35.3012048,2.89156627 C35.3012048,2.17124077 34.7265345,1.58513673 34.0106515,1.56671174 L33.9759036,1.56626506 Z" id="Rectangle" fill="#FFFFFF" fill-rule="nonzero"></path>
                        </g>
                    </g>
                </g>
            </g>
        </g>
    </g>
</svg>