<?xml version="1.0" encoding="UTF-8"?>
<svg width="80px" height="80px" viewBox="0 0 80 80" version="1.1" xmlns="http://www.w3.org/2000/svg" xmlns:xlink="http://www.w3.org/1999/xlink">
    <title>6F330E22-A57D-49EE-BFBD-51AA86352414</title>
    <defs>
        <filter color-interpolation-filters="auto" id="filter-1">
            <feColorMatrix in="SourceGraphic" type="matrix" values="0 0 0 0 0.819608 0 0 0 0 0.905882 0 0 0 0 1.000000 0 0 0 1.000000 0"></feColorMatrix>
        </filter>
        <filter color-interpolation-filters="auto" id="filter-2">
            <feColorMatrix in="SourceGraphic" type="matrix" values="0 0 0 0 0.954031 0 0 0 0 0.687302 0 0 0 0 0.601039 0 0 0 1.000000 0"></feColorMatrix>
        </filter>
        <filter color-interpolation-filters="auto" id="filter-3">
            <feColorMatrix in="SourceGraphic" type="matrix" values="0 0 0 0 0.376471 0 0 0 0 0.388235 0 0 0 0 0.560784 0 0 0 1.000000 0"></feColorMatrix>
        </filter>
    </defs>
    <g id="擴充功能" stroke="none" stroke-width="1" fill="none" fill-rule="evenodd">
        <g id="切圖" transform="translate(-59.000000, -420.000000)">
            <g id="ext/訂單滿額贈_fin" transform="translate(59.000000, 420.000000)">
                <rect id="Rectangle" stroke="#979797" stroke-width="0.5" fill="#D8D8D8" opacity="0" x="0.25" y="0.25" width="79.5" height="79.5"></rect>
                <g id="Group" transform="translate(7.951807, 9.277108)">
                    <g filter="url(#filter-1)" id="B">
                        <g transform="translate(4.819277, 4.819277)">
                            <path d="M29.1566265,0 C29.6889492,0 30.1204819,0.431532771 30.1204819,0.963855422 L30.1204819,17.7108434 L24.3373494,17.7108434 C21.7023523,17.7108434 19.561276,19.8255697 19.5187179,22.4504249 L19.5180723,22.5301205 L19.5180723,42.5301205 L0.963855422,42.5301205 C0.431532771,42.5301205 0,42.0985877 0,41.5662651 L0,0.963855422 C0,0.431532771 0.431532771,0 0.963855422,0 L29.1566265,0 Z" id="Path" fill="#D8D8D8"></path>
                        </g>
                    </g>
                    <g filter="url(#filter-2)" id="A">
                        <g transform="translate(29.277108, 15.662651)">
                            <rect id="Rectangle" fill="#919191" x="10.6024096" y="6.86746988" width="8.6746988" height="39.7590361"></rect>
                            <path d="M25.0192898,0.723592653 L29.8795181,6.86746988 L29.8795181,6.86746988 L14.939759,6.86746988 L23.6989691,0.540252492 C24.1172106,0.238135635 24.6991893,0.318949377 25.0192898,0.723592653 Z" id="Triangle" fill="#919191"></path>
                            <path d="M10.0795308,0.723592653 L14.939759,6.86746988 L14.939759,6.86746988 L0,6.86746988 L8.75921004,0.540252492 C9.17745155,0.238135635 9.75943022,0.318949377 10.0795308,0.723592653 Z" id="Triangle" fill="#919191" transform="translate(7.469880, 3.433735) scale(-1, 1) translate(-7.469880, -3.433735) "></path>
                        </g>
                    </g>
                    <g filter="url(#filter-3)" id="line">
                        <g>
                            <path d="M59.2771084,22.5301205 C61.9387217,22.5301205 64.0963855,24.6877843 64.0963855,27.3493976 L64.0963855,57.4698795 C64.0963855,60.1314928 61.9387217,62.2891566 59.2771084,62.2891566 L29.1566265,62.2891566 C26.4950133,62.2891566 24.3373494,60.1314928 24.3373494,57.4698795 L24.3373494,27.3493976 C24.3373494,24.6877843 26.4950133,22.5301205 29.1566265,22.5301205 L59.2771084,22.5301205 Z M59.2771084,24.4578313 L29.1566265,24.4578313 C27.5756282,24.4578313 26.2909824,25.7266671 26.2654476,27.3015803 L26.2650602,27.3493976 L26.2650602,57.4698795 C26.2650602,59.0508778 27.533896,60.3355236 29.1088092,60.3610584 L29.1566265,60.3614458 L59.2771084,60.3614458 C60.8581067,60.3614458 62.1427525,59.09261 62.1682873,57.5176969 L62.1686747,57.4698795 L62.1686747,27.3493976 C62.1686747,25.7683993 60.8998389,24.4837535 59.3249258,24.4582187 L59.2771084,24.4578313 Z" id="Rectangle" fill="#000000" fill-rule="nonzero"></path>
                            <path d="M59.2771084,22.5301205 C61.9387217,22.5301205 64.0963855,24.6877843 64.0963855,27.3493976 L64.0963855,35.060241 L24.3373494,35.060241 L24.3373494,27.3493976 C24.3373494,24.6877843 26.4950133,22.5301205 29.1566265,22.5301205 L59.2771084,22.5301205 Z M59.2771084,24.4578313 L29.1566265,24.4578313 C27.5756282,24.4578313 26.2909824,25.7266671 26.2654476,27.3015803 L26.2650602,27.3493976 L26.2650602,33.1325301 L62.1686747,33.1325301 L62.1686747,27.3493976 C62.1686747,25.7683993 60.8998389,24.4837535 59.3249258,24.4582187 L59.2771084,24.4578313 Z" id="Rectangle" fill="#000000" fill-rule="nonzero"></path>
                            <path d="M14.6987952,39.3373494 C15.2311178,39.3373494 15.6626506,39.7688822 15.6626506,40.3012048 C15.6626506,40.8234836 15.2472485,41.2487401 14.7288168,41.2646016 L9.63855422,41.2650602 C9.10623157,41.2650602 8.6746988,40.8335275 8.6746988,40.3012048 C8.6746988,39.778926 9.09010094,39.3536695 9.60853261,39.3378081 L9.63855422,39.3373494 L14.6987952,39.3373494 Z M20.3614458,31.9879518 C20.8937684,31.9879518 21.3253012,32.4194846 21.3253012,32.9518072 C21.3253012,33.4740861 20.9098991,33.8993425 20.3914674,33.915204 L20.3614458,33.9156627 L9.63855422,33.9156627 C9.10623157,33.9156627 8.6746988,33.4841299 8.6746988,32.9518072 C8.6746988,32.4295284 9.09010094,32.0042719 9.60853261,31.9884105 L20.3614458,31.9879518 Z M11.5662651,28.0120482 C11.8989667,28.0120482 12.1686747,28.2817562 12.1686747,28.6144578 C12.1686747,28.9384042 11.9129751,29.2026287 11.5923963,29.2163109 L11.5662651,29.2168675 L10.6024096,29.2168675 C10.269708,29.2168675 10,28.9471595 10,28.6144578 C10,28.2905115 10.2556996,28.026287 10.5762784,28.0126048 L10.6024096,28.0120482 L11.5662651,28.0120482 Z M18.313253,28.0120482 C18.6459547,28.0120482 18.9156627,28.2817562 18.9156627,28.6144578 C18.9156627,28.9384042 18.659963,29.2026287 18.3393843,29.2163109 L18.313253,29.2168675 L14.4578313,29.2168675 C14.1251297,29.2168675 13.8554217,28.9471595 13.8554217,28.6144578 C13.8554217,28.2905115 14.1111213,28.026287 14.4317,28.0126048 L14.4578313,28.0120482 L18.313253,28.0120482 Z M20.3614458,23.4337349 C20.8937684,23.4337349 21.3253012,23.8652677 21.3253012,24.3975904 C21.3253012,24.9198692 20.9098991,25.3451256 20.3914674,25.3609871 L9.63855422,25.3614458 C9.10623157,25.3614458 8.6746988,24.929913 8.6746988,24.3975904 C8.6746988,23.8753115 9.09010094,23.4500551 9.60853261,23.4341936 L20.3614458,23.4337349 Z M11.5662651,19.3373494 C11.8989667,19.3373494 12.1686747,19.6070574 12.1686747,19.939759 C12.1686747,20.2637054 11.9129751,20.5279299 11.5923963,20.5416121 L10.6024096,20.5421687 C10.269708,20.5421687 10,20.2724607 10,19.939759 C10,19.6158127 10.2556996,19.3515882 10.5762784,19.337906 L10.6024096,19.3373494 L11.5662651,19.3373494 Z M18.313253,19.3373494 C18.6459547,19.3373494 18.9156627,19.6070574 18.9156627,19.939759 C18.9156627,20.2637054 18.659963,20.5279299 18.3393843,20.5416121 L14.4578313,20.5421687 C14.1251297,20.5421687 13.8554217,20.2724607 13.8554217,19.939759 C13.8554217,19.6158127 14.1111213,19.3515882 14.4317,19.337906 L14.4578313,19.3373494 L18.313253,19.3373494 Z M28.7951807,14.6385542 C29.3275034,14.6385542 29.7590361,15.070087 29.7590361,15.6024096 C29.7590361,16.1246885 29.343634,16.5499449 28.8252023,16.5658064 L9.63855422,16.5662651 C9.10623157,16.5662651 8.6746988,16.1347323 8.6746988,15.6024096 C8.6746988,15.0801308 9.09010094,14.6548744 9.60853261,14.6390129 L28.7951807,14.6385542 Z" id="Combined-Shape" fill="#000000" fill-rule="nonzero"></path>
                            <path d="M33.9759036,0 C37.1379002,0 39.7071917,2.53767161 39.7582614,5.68749786 L39.7590361,5.78313253 L39.7590361,14.9089141 C39.7590361,15.4412367 39.3275034,15.8727695 38.7951807,15.8727695 C38.2729019,15.8727695 37.8476454,15.4573674 37.831784,14.9389357 L37.8313253,14.9089141 L37.8313253,5.78313253 C37.8313253,3.67513483 36.1395442,1.96227378 34.0396601,1.92822736 L33.9759036,1.92771084 L5.78313253,1.92771084 C3.67513483,1.92771084 1.96227378,3.61949192 1.92822736,5.71937608 L1.92771084,5.78313253 L1.92771084,46.3855422 C1.92771084,48.4935399 3.61949192,50.2064009 5.71937608,50.2404473 L5.78313253,50.2409639 L21.2654463,50.2409639 C21.7977689,50.2409639 22.2293017,50.6724966 22.2293017,51.2048193 C22.2293017,51.7270981 21.8138996,52.1523546 21.2954679,52.1686747 L21.2654463,52.1686747 L5.78313253,52.1686747 C2.62113599,52.1686747 0.0518444065,49.6310031 0.000774774531,46.4811768 L0,46.3855422 L0,5.78313253 C0,2.62113599 2.53767161,0.0518444065 5.68749786,0.000774774531 L5.78313253,0 L33.9759036,0 Z" id="Path" fill="#000000" fill-rule="nonzero"></path>
                            <path d="M30.9638554,0 L30.9638554,6.5060241 C30.9638554,8.10299205 29.6692571,9.39759036 28.0722892,9.39759036 L11.686747,9.39759036 C10.089779,9.39759036 8.79518072,8.10299205 8.79518072,6.5060241 L8.79518072,0 L30.9638554,0 Z M29.0361446,1.92771084 L10.7228916,1.92771084 L10.7228916,6.5060241 C10.7228916,7.02830292 11.1382937,7.45355938 11.6567254,7.46942086 L11.686747,7.46987952 L28.0722892,7.46987952 C28.594568,7.46987952 29.0198244,7.05447738 29.0356859,6.5360457 L29.0361446,6.5060241 L29.0361446,1.92771084 Z" id="Rectangle" fill="#000000" fill-rule="nonzero"></path>
                        </g>
                    </g>
                </g>
            </g>
        </g>
    </g>
</svg>