<svg width="120" height="120" viewBox="0 0 120 120" fill="none" xmlns="http://www.w3.org/2000/svg">
<g clip-path="url(#clip0_821_11937)">
<path fill-rule="evenodd" clip-rule="evenodd" d="M25.8378 85.7788C20.5137 79.07 12.288 74.3109 10.0797 66.0357C7.83574 57.6299 10.9183 48.8683 13.7996 40.6684C16.6582 32.5258 19.8982 24.0498 26.6934 18.7325C33.3744 13.5052 42.3673 13.2273 50.7363 11.7747C58.9344 10.3447 67.2443 7.93551 75.2348 10.2758C83.3733 12.6555 89.6477 18.7775 95.5424 24.8752C101.667 31.21 108.139 37.8032 110.152 46.388C112.197 55.0808 110.378 64.3407 106.694 72.4592C103.179 80.1965 95.6959 84.8414 89.8787 91.0346C83.3813 97.9517 79.3988 108.136 70.3862 111.116C61.2654 114.132 50.7357 111.496 42.3754 106.74C34.506 102.266 31.4659 92.8723 25.8378 85.7788Z" fill="#F5F5F5"/>
<path d="M30.6207 85.3747C34.5117 89.2117 49.4052 93.3337 49.4052 93.3337C49.4052 93.3337 51.2157 95.4622 45.6327 96.2677C38.2529 97.3208 30.7259 96.2392 23.9412 93.1507C10.3497 86.9257 6.64618 78.2392 5.27218 75.2572C3.89818 72.2752 3.72868 65.8867 10.1787 63.2392C18.0777 60.0037 21.4167 66.2782 23.0487 71.3677C24.2382 75.0712 25.7517 80.5822 30.6207 85.3747Z" fill="#D2E6F3"/>
<path d="M89.3427 85.3743C85.4517 89.2113 70.5567 93.3333 70.5567 93.3333C70.5567 93.3333 68.7462 95.4618 74.3292 96.2673C81.7095 97.3205 89.237 96.2388 96.0222 93.1503C109.612 86.9208 113.316 78.2343 114.69 75.2523C116.064 72.2703 116.235 65.8818 109.785 63.2343C101.884 60.0003 98.5497 66.2778 96.9132 71.3673C95.7237 75.0708 94.2102 80.5818 89.3427 85.3743Z" fill="#D2E6F3"/>
<path d="M111.321 81.2153C111.321 81.2153 107.925 85.5754 105.628 87.2333C105.628 87.2333 99.0567 83.9573 93.7542 79.3643C93.7542 79.3643 95.1146 76.9418 95.6201 75.1973C95.6201 75.1973 105.3 80.7623 111.321 81.2153Z" fill="#FFD800"/>
<path d="M78.7213 96.7873C78.7213 106.933 70.6708 114.709 60.7393 114.709C50.8078 114.709 42.7588 106.95 42.7588 96.7873C42.7588 86.6248 50.8093 67.9873 60.7393 67.9873C70.6693 67.9873 78.7213 86.6398 78.7213 96.7873Z" fill="#D2E6F3"/>
<path d="M78.8707 94.1582C79.8372 104.763 71.8438 114.969 60.7378 114.947C52.6446 115.022 45.5724 109.199 43.3884 101.619C42.6678 99.201 42.4037 96.6716 42.6095 94.1582C43.0148 99.0242 44.8131 103.796 48.1466 107.369C53.0394 112.749 60.9299 114.578 67.6014 111.522C74.3727 108.5 78.3399 101.36 78.8707 94.1582Z" fill="#BBD3E4"/>
<path d="M77.9621 102C77.9621 102.618 77.7521 103.677 77.4791 104.793C76.9006 107.297 75.4995 109.536 73.4996 111.15C70.8131 113.25 66.9806 114.891 60.7421 114.891C54.5036 114.891 50.6681 113.25 47.9816 111.15C45.9822 109.537 44.5807 107.301 44.0006 104.799C43.7291 103.683 43.5176 102.624 43.5176 102.006C43.5176 102.006 49.7951 108.456 60.7406 108.456C71.6861 108.456 77.9621 102 77.9621 102Z" fill="#BBD81E"/>
<path opacity="0.5" d="M77.6997 103.95C77.4157 106.204 76.4136 108.314 74.8353 109.981C73.8565 110.97 72.7343 111.814 71.5047 112.484C68.6586 114.076 65.375 114.731 62.1279 114.872C57.9757 115.034 53.6624 114.525 49.9931 112.489C47.0468 110.87 44.8734 108.5 44.0442 105.254C43.9377 104.824 43.8561 104.389 43.7997 103.95C44.1084 104.765 44.4944 105.55 44.9524 106.295C46.3011 108.522 48.3301 110.079 50.7054 111.14C54.2335 112.737 58.2065 113.064 62.0505 112.955C65.8944 112.847 69.8067 112.052 73.0265 109.918C75.2135 108.524 76.7976 106.337 77.6966 103.95H77.6997Z" fill="#89B31B"/>
<path d="M92.8243 78.5017C91.1203 86.7007 84.0703 91.0507 76.6498 93.4237L76.6078 93.4387C75.4333 93.8122 74.2498 94.1377 73.0768 94.4212C71.3968 94.8142 69.7058 95.1292 68.0038 95.3662C69.1162 95.9609 66.802 94.9829 68.0038 95.3662C65.9074 95.5177 62.7666 95.9666 59.3997 95.9257C56.5799 95.8913 53.1868 95.4562 52.1998 95.3722C53.3044 94.9646 51.1922 95.9813 52.1998 95.3722C49.3341 94.9732 46.503 94.3569 43.7308 93.5287L43.3678 93.4192L43.3393 93.4102C39.3013 92.1652 35.2753 90.3532 32.1733 87.3772C28.6963 84.0442 27.0283 79.4722 26.7403 74.7517C26.2168 66.3412 29.0908 57.9907 34.1488 51.4192C34.8318 50.5332 35.5538 49.6797 36.3148 48.8587C39.5233 45.3982 43.4019 42.6261 47.7148 40.7107C48.5578 40.3357 49.4203 39.9892 50.2978 39.6787H50.3098C50.6218 39.5677 50.9353 39.4617 51.2503 39.3607C54.7003 38.2552 58.3663 37.7317 61.9873 38.2402C68.3608 39.1162 72.8893 40.8997 76.6258 43.4587C77.7719 44.248 78.8634 45.114 79.8928 46.0507C81.6763 47.6602 83.3278 49.4782 85.0078 51.4837L85.0213 51.5002C85.0468 51.5287 85.0708 51.5587 85.0948 51.5872C88.0766 55.0852 90.2972 59.1658 91.6153 63.5692C93.0553 68.3542 93.8473 73.5877 92.8243 78.5017Z" fill="#D2E6F3"/>
<path d="M87.1948 69.767C87.1258 68.2775 85.3183 67.1525 83.1598 67.2545C81.0013 67.3565 79.3063 68.645 79.3768 70.133C79.4473 71.621 81.2533 72.746 83.4118 72.6455C85.5703 72.545 87.2653 71.2505 87.1948 69.767Z" fill="#EDF6FB"/>
<path d="M32.7673 69.767C32.8378 68.2775 34.6438 67.1525 36.8023 67.2545C38.9608 67.3565 40.6558 68.645 40.5853 70.133C40.5148 71.621 38.7088 72.7505 36.5503 72.6455C34.3918 72.5405 32.6998 71.2505 32.7673 69.767Z" fill="#EDF6FB"/>
<path d="M67.7726 72.1113C61.7636 66.2253 58.1996 66.7608 52.5896 71.7288C52.8716 73.7778 54.2756 78.4053 59.4896 78.8193C64.7036 79.2333 67.1771 74.3568 67.7726 72.1113Z" fill="white"/>
<path d="M60.3852 79.665C60.0845 79.6647 59.784 79.6476 59.4852 79.614C53.8572 78.984 51.7917 73.6545 51.4872 70.923L53.0217 70.752C53.2797 73.0575 54.9987 77.5575 59.6577 78.0795C64.2642 78.5955 66.5577 73.9845 67.1382 71.4795L68.6382 71.8245C67.9992 74.6325 65.4657 79.665 60.3852 79.665Z" fill="#326681"/>
<path d="M69.8624 72.7499C67.8958 72.7245 65.9728 72.1673 64.2974 71.1374C61.4144 69.3674 58.5719 69.3209 55.6079 70.9949C53.1599 72.3764 49.8569 72.7949 47.5724 72.0194C46.2314 71.5694 45.2699 70.7234 44.7914 69.5939C44.7001 69.3784 44.6981 69.1356 44.7859 68.9187C44.8736 68.7018 45.044 68.5287 45.2594 68.4374C45.4748 68.3461 45.7177 68.3441 45.9346 68.4319C46.1514 68.5196 46.3246 68.6899 46.4159 68.9054C46.6964 69.5684 47.2769 70.0544 48.1409 70.3484C49.9559 70.9664 52.7309 70.5914 54.7409 69.4574C58.2644 67.4684 61.7909 67.5284 65.2199 69.6329C67.1114 70.7939 69.5084 71.2589 71.3279 70.8209C72.3689 70.5704 73.1354 70.0514 73.6049 69.2774C73.7272 69.0775 73.9239 68.9343 74.1518 68.8795C74.3797 68.8246 74.62 68.8625 74.8199 68.9849C75.0198 69.1072 75.1629 69.3039 75.2178 69.5318C75.2726 69.7597 75.2347 70 75.1124 70.1999C74.3984 71.3699 73.2329 72.1799 71.7419 72.5384C71.1259 72.6828 70.495 72.7538 69.8624 72.7499Z" fill="#326681"/>
<path d="M85.5717 52.2452C85.5717 52.2452 78.6267 42.0077 66.9882 38.7977C63.6477 37.8737 64.3857 32.1542 68.0532 31.8107C71.5332 31.4822 74.2272 29.4002 72.9897 25.9292C72.9744 25.8894 72.9472 25.8554 72.9117 25.8317C72.8756 25.8086 72.8331 25.7976 72.7902 25.8002C72.7481 25.8037 72.7082 25.8205 72.6762 25.8482C72.644 25.8763 72.6218 25.9142 72.6132 25.9562C71.9502 28.5062 71.0487 29.3177 67.9347 28.6562C67.9347 28.6562 59.2572 25.3277 54.9837 36.6857C53.3247 41.0762 43.0407 38.1002 33.8232 51.6632C52.5357 37.2617 77.7537 45.4382 85.5717 52.2452Z" fill="#326681"/>
<path d="M73.4999 61.6156C73.3858 62.8144 73.7216 64.0128 74.442 64.9779C75.1624 65.9429 76.2158 66.6056 77.3976 66.8371C78.5794 67.0687 79.8051 66.8525 80.8364 66.2306C81.8676 65.6087 82.6308 64.6256 82.9775 63.4723C83.3243 62.3191 83.2298 61.0781 82.7125 59.9906C82.1951 58.9031 81.2919 58.0469 80.1784 57.5883C79.0649 57.1297 77.8206 57.1015 76.6875 57.5093C75.5543 57.9171 74.6133 58.7316 74.0473 59.7946C73.7471 60.3598 73.5611 60.9785 73.4999 61.6156Z" fill="white"/>
<path d="M74.8497 61.4445C74.7686 62.265 74.9746 63.0882 75.4326 63.7738C75.8906 64.4594 76.5722 64.9649 77.3612 65.2042C78.1502 65.4434 78.9978 65.4015 79.7594 65.0858C80.521 64.77 81.1495 64.1998 81.5377 63.4724C81.926 62.745 82.0499 61.9055 81.8884 61.097C81.7269 60.2885 81.2899 59.5611 80.652 59.0387C80.0141 58.5163 79.2148 58.2314 78.3903 58.2324C77.5658 58.2335 76.7672 58.5205 76.1307 59.0445C75.7697 59.3405 75.4707 59.7049 75.2509 60.1168C75.031 60.5286 74.8947 60.9799 74.8497 61.4445Z" fill="#326681"/>
<path d="M36.7586 61.6156C36.6446 62.8144 36.9804 64.0128 37.7008 64.9779C38.4211 65.9429 39.4746 66.6056 40.6564 66.8371C41.8382 67.0687 43.0639 66.8525 44.0951 66.2306C45.1264 65.6087 45.8896 64.6256 46.2363 63.4723C46.5831 62.3191 46.4886 61.0781 45.9713 59.9906C45.4539 58.9031 44.5507 58.0469 43.4372 57.5883C42.3237 57.1297 41.0794 57.1015 39.9463 57.5093C38.8131 57.9171 37.8721 58.7316 37.3061 59.7946C37.0059 60.3598 36.8198 60.9785 36.7586 61.6156Z" fill="white"/>
<path d="M38.1132 61.4445C38.0321 62.265 38.2381 63.0882 38.6961 63.7738C39.1541 64.4594 39.8357 64.9649 40.6247 65.2042C41.4138 65.4434 42.2613 65.4015 43.0229 65.0858C43.7846 64.77 44.4131 64.1998 44.8013 63.4724C45.1895 62.745 45.3134 61.9055 45.1519 61.097C44.9904 60.2885 44.5535 59.5611 43.9156 59.0387C43.2777 58.5163 42.4783 58.2314 41.6538 58.2324C40.8294 58.2335 40.0308 58.5205 39.3942 59.0445C39.0332 59.3405 38.7342 59.7049 38.5144 60.1168C38.2946 60.5286 38.1583 60.9799 38.1132 61.4445Z" fill="#326681"/>
<path d="M26.6742 74.165C27.2832 79.3235 29.5137 84.251 33.7632 87.389C39.9522 92.0765 50.4567 94.04 58.1487 94.322C62.88 94.4828 67.6136 94.0775 72.2487 93.1145C79.1982 91.625 86.7402 88.871 90.7797 82.6595C91.7101 81.191 92.415 79.5912 92.8707 77.9135C92.612 79.6645 92.0635 81.3602 91.2477 82.931C85.4997 93.782 68.0082 96.9005 56.7507 96.2045C54.0877 96.046 51.4391 95.7002 48.8247 95.1695C44.9127 94.325 41.0247 93.2075 37.4547 91.358C30.5112 87.8105 26.7282 82.0175 26.6742 74.165Z" fill="#BBD3E4"/>
<path d="M51.9838 95.7229C56.4088 94.0729 57.9388 92.2489 59.7763 89.5459C61.2343 92.1679 63.2908 94.1299 67.9783 95.6719C66.0598 95.8294 64.2058 96.1999 60.5728 96.2119C56.5813 96.2254 56.2318 96.2749 51.9838 95.7229Z" fill="#326681"/>
<path d="M67.9976 95.6656C67.8941 95.6806 67.7906 95.6956 67.6856 95.7076H67.6751C66.7466 95.7961 65.8046 95.9266 64.6421 96.0331C60.4914 96.3679 56.3164 96.2462 52.1921 95.6701C53.3004 95.2632 54.3672 94.7514 55.3781 94.1416C56.3576 94.2256 57.3086 94.2826 58.2281 94.3156C60.3288 94.3862 62.4317 94.3457 64.5281 94.1941C65.6376 94.7888 66.7989 95.2814 67.9976 95.6656Z" fill="#255473"/>
<rect width="4.5" height="7.65" transform="matrix(-0.866025 0.5 0.5 0.866025 83.5471 9.90039)" fill="#6FF1D5"/>
<rect width="4.5" height="7.65" transform="matrix(-0.866025 0.5 0.5 0.866025 29.097 32.4004)" fill="#9164DD"/>
<rect x="30.7538" y="100.35" width="3.88688" height="6.60769" transform="rotate(30 30.7538 100.35)" fill="#E067B2"/>
<path fill-rule="evenodd" clip-rule="evenodd" d="M55.05 14.6006C55.7675 15.0148 56.0133 15.9322 55.5991 16.6496L53.9491 19.5075C53.5348 20.2249 52.6175 20.4708 51.9 20.0565C51.1826 19.6423 50.9368 18.7249 51.351 18.0075L53.001 15.1496C53.4152 14.4322 54.3326 14.1864 55.05 14.6006Z" fill="#E067B2"/>
<path fill-rule="evenodd" clip-rule="evenodd" d="M95.799 99.4502C96.5165 99.8644 96.7623 100.782 96.3481 101.499L94.6981 104.357C94.2839 105.075 93.3665 105.32 92.649 104.906C91.9316 104.492 91.6858 103.575 92.1 102.857L93.75 99.9992C94.1642 99.2818 95.0816 99.036 95.799 99.4502Z" fill="#9164DD"/>
<path fill-rule="evenodd" clip-rule="evenodd" d="M111.699 42.9004C112.417 43.3146 112.662 44.232 112.248 44.9494L110.598 47.8073C110.184 48.5248 109.267 48.7706 108.549 48.3564C107.832 47.9421 107.586 47.0248 108 46.3073L109.65 43.4494C110.064 42.732 110.982 42.4862 111.699 42.9004Z" fill="#6FF1D5"/>
<path fill-rule="evenodd" clip-rule="evenodd" d="M8.11071 21.911C8.6965 21.3252 9.64624 21.3252 10.232 21.911L12.5655 24.2445C13.1513 24.8303 13.1513 25.78 12.5655 26.3658C11.9797 26.9516 11.0299 26.9516 10.4442 26.3658L8.11071 24.0323C7.52492 23.4466 7.52492 22.4968 8.11071 21.911Z" fill="#6FF1D5"/>
<path fill-rule="evenodd" clip-rule="evenodd" d="M18.1606 95.8612C18.7464 95.2754 19.6962 95.2754 20.282 95.8612L22.6154 98.1947C23.2012 98.7805 23.2012 99.7302 22.6154 100.316C22.0296 100.902 21.0799 100.902 20.4941 100.316L18.1606 97.9825C17.5748 97.3967 17.5748 96.447 18.1606 95.8612Z" fill="#FBE361"/>
<circle cx="95.775" cy="38.3254" r="2.925" fill="#E067B2"/>
<circle cx="105.15" cy="15" r="3.75" fill="#9164DD"/>
<circle cx="11.4" cy="103.5" r="2.25" fill="#9164DD"/>
<circle cx="105.375" cy="108.225" r="3.225" fill="#6FF1D5"/>
<circle cx="32.85" cy="13.7998" r="3" fill="#FBE361"/>
<circle cx="107.475" cy="93.6746" r="2.325" fill="#FBE361"/>
<circle cx="18.225" cy="52.1252" r="2.175" fill="#E067B2"/>
</g>
<defs>
<clipPath id="clip0_821_11937">
<rect width="120" height="120" fill="white"/>
</clipPath>
</defs>
</svg>
