<svg width="120" height="120" viewBox="0 0 120 120" fill="none" xmlns="http://www.w3.org/2000/svg">
<g clip-path="url(#clip0_821_11980)">
<path fill-rule="evenodd" clip-rule="evenodd" d="M102.64 75.9528C99.4191 84.0153 99.375 93.6484 93.2073 99.7587C86.9426 105.966 77.6823 107.667 69.0176 109.262C60.4147 110.848 51.3264 112.266 43.2264 108.966C35.2632 105.721 30.4897 97.9499 24.997 91.319C19.6103 84.8271 13.3058 78.73 11.3404 70.5219C9.33525 62.1639 11.561 53.5609 13.9566 45.3043C16.4448 36.7256 18.986 27.7124 25.5242 21.6175C32.1419 15.4411 41.2036 12.3771 50.2014 11.53C58.7779 10.7249 66.633 14.969 75.011 16.9675C84.3683 19.1999 95.3338 17.5742 102.494 24.0021C109.74 30.5072 112.725 41.0977 112.751 50.8477C112.778 60.0242 106.046 67.4293 102.64 75.9528Z" fill="#F5F5F5"/>
<path opacity="0.65" fill-rule="evenodd" clip-rule="evenodd" d="M14.5589 105.017C14.8207 105.017 15.0765 105.095 15.2942 105.24C15.5118 105.386 15.6815 105.592 15.7817 105.834C15.8818 106.076 15.908 106.342 15.857 106.599C15.8059 106.856 15.6799 107.092 15.4948 107.277C15.3097 107.462 15.0738 107.588 14.8171 107.639C14.5603 107.69 14.2942 107.664 14.0524 107.564C13.8105 107.463 13.6038 107.294 13.4584 107.076C13.313 106.858 13.2354 106.603 13.2354 106.341C13.2354 105.99 13.3748 105.653 13.623 105.405C13.8712 105.157 14.2079 105.017 14.5589 105.017ZM25.9787 105.017C26.2405 105.017 26.4964 105.095 26.714 105.24C26.9317 105.386 27.1013 105.592 27.2015 105.834C27.3017 106.076 27.3279 106.342 27.2768 106.599C27.2258 106.856 27.0997 107.092 26.9146 107.277C26.7295 107.462 26.4937 107.588 26.2369 107.639C25.9802 107.69 25.7141 107.664 25.4722 107.564C25.2304 107.463 25.0237 107.294 24.8783 107.076C24.7328 106.858 24.6552 106.603 24.6552 106.341C24.6552 105.991 24.7937 105.655 25.0405 105.407C25.2873 105.159 25.6222 105.019 25.9721 105.017H25.9787ZM37.3964 105.017C37.6582 105.017 37.914 105.095 38.1317 105.24C38.3493 105.386 38.519 105.592 38.6192 105.834C38.7193 106.076 38.7456 106.342 38.6945 106.599C38.6434 106.856 38.5174 107.092 38.3323 107.277C38.1472 107.462 37.9113 107.588 37.6546 107.639C37.3979 107.69 37.1317 107.664 36.8899 107.564C36.648 107.463 36.4413 107.294 36.2959 107.076C36.1505 106.858 36.0729 106.603 36.0729 106.341C36.0728 105.991 36.2114 105.655 36.4582 105.407C36.7049 105.159 37.0399 105.019 37.3898 105.017H37.3964ZM48.814 105.017C49.0758 105.017 49.3317 105.095 49.5493 105.24C49.767 105.386 49.9366 105.592 50.0368 105.834C50.137 106.076 50.1632 106.342 50.1121 106.599C50.0611 106.856 49.935 107.092 49.7499 107.277C49.5648 107.462 49.329 107.588 49.0722 107.639C48.8155 107.69 48.5494 107.664 48.3075 107.564C48.0657 107.463 47.859 107.294 47.7136 107.076C47.5681 106.858 47.4905 106.603 47.4905 106.341C47.4905 105.991 47.629 105.655 47.8758 105.407C48.1226 105.159 48.4575 105.019 48.8074 105.017H48.814ZM60.2339 105.017C60.4957 105.017 60.7515 105.095 60.9692 105.24C61.1869 105.386 61.3565 105.592 61.4567 105.834C61.5568 106.076 61.583 106.342 61.532 106.599C61.4809 106.856 61.3549 107.092 61.1698 107.277C60.9847 107.462 60.7488 107.588 60.4921 107.639C60.2354 107.69 59.9692 107.664 59.7274 107.564C59.4855 107.463 59.2788 107.294 59.1334 107.076C58.988 106.858 58.9104 106.603 58.9104 106.341C58.9103 105.992 59.048 105.657 59.2933 105.41C59.5387 105.162 59.8719 105.021 60.2206 105.017H60.2339ZM14.5589 95.3797C14.8207 95.3797 15.0765 95.4574 15.2942 95.6028C15.5118 95.7482 15.6815 95.9549 15.7817 96.1968C15.8818 96.4386 15.908 96.7047 15.857 96.9615C15.8059 97.2182 15.6799 97.4541 15.4948 97.6391C15.3097 97.8242 15.0738 97.9503 14.8171 98.0014C14.5603 98.0524 14.2942 98.0262 14.0524 97.9261C13.8105 97.8259 13.6038 97.6562 13.4584 97.4386C13.313 97.2209 13.2354 96.965 13.2354 96.7033C13.2354 96.3523 13.3748 96.0156 13.623 95.7674C13.8712 95.5192 14.2079 95.3797 14.5589 95.3797ZM25.9787 95.3797C26.2405 95.3797 26.4964 95.4574 26.714 95.6028C26.9317 95.7482 27.1013 95.9549 27.2015 96.1968C27.3017 96.4386 27.3279 96.7047 27.2768 96.9615C27.2258 97.2182 27.0997 97.4541 26.9146 97.6391C26.7295 97.8242 26.4937 97.9503 26.2369 98.0014C25.9802 98.0524 25.7141 98.0262 25.4722 97.9261C25.2304 97.8259 25.0237 97.6562 24.8783 97.4386C24.7328 97.2209 24.6552 96.965 24.6552 96.7033C24.6552 96.3534 24.7937 96.0177 25.0405 95.7697C25.2873 95.5217 25.6222 95.3815 25.9721 95.3797H25.9787ZM37.3964 95.3797C37.6582 95.3797 37.914 95.4574 38.1317 95.6028C38.3493 95.7482 38.519 95.9549 38.6192 96.1968C38.7193 96.4386 38.7456 96.7047 38.6945 96.9615C38.6434 97.2182 38.5174 97.4541 38.3323 97.6391C38.1472 97.8242 37.9113 97.9503 37.6546 98.0014C37.3979 98.0524 37.1317 98.0262 36.8899 97.9261C36.648 97.8259 36.4413 97.6562 36.2959 97.4386C36.1505 97.2209 36.0729 96.965 36.0729 96.7033C36.0728 96.3534 36.2114 96.0177 36.4582 95.7697C36.7049 95.5217 37.0399 95.3815 37.3898 95.3797H37.3964ZM48.814 95.3797C49.0758 95.3797 49.3317 95.4574 49.5493 95.6028C49.767 95.7482 49.9366 95.9549 50.0368 96.1968C50.137 96.4386 50.1632 96.7047 50.1121 96.9615C50.0611 97.2182 49.935 97.4541 49.7499 97.6391C49.5648 97.8242 49.329 97.9503 49.0722 98.0014C48.8155 98.0524 48.5494 98.0262 48.3075 97.9261C48.0657 97.8259 47.859 97.6562 47.7136 97.4386C47.5681 97.2209 47.4905 96.965 47.4905 96.7033C47.4905 96.3534 47.629 96.0177 47.8758 95.7697C48.1226 95.5217 48.4575 95.3815 48.8074 95.3797H48.814ZM60.2339 95.3797C60.4957 95.3797 60.7515 95.4574 60.9692 95.6028C61.1869 95.7482 61.3565 95.9549 61.4567 96.1968C61.5568 96.4386 61.583 96.7047 61.532 96.9615C61.4809 97.2182 61.3549 97.4541 61.1698 97.6391C60.9847 97.8242 60.7488 97.9503 60.4921 98.0014C60.2354 98.0524 59.9692 98.0262 59.7274 97.9261C59.4855 97.8259 59.2788 97.6562 59.1334 97.4386C58.988 97.2209 58.9104 96.965 58.9104 96.7033C58.9103 96.3545 59.048 96.0199 59.2933 95.772C59.5387 95.5242 59.8719 95.3832 60.2206 95.3797H60.2339ZM14.5589 85.74C14.8207 85.74 15.0765 85.8177 15.2942 85.9631C15.5118 86.1085 15.6815 86.3152 15.7817 86.5571C15.8818 86.7989 15.908 87.065 15.857 87.3218C15.8059 87.5785 15.6799 87.8143 15.4948 87.9994C15.3097 88.1845 15.0738 88.3106 14.8171 88.3617C14.5603 88.4127 14.2942 88.3865 14.0524 88.2864C13.8105 88.1862 13.6038 88.0165 13.4584 87.7989C13.313 87.5812 13.2354 87.3253 13.2354 87.0636C13.2354 86.7125 13.3748 86.3759 13.623 86.1277C13.8712 85.8795 14.2079 85.74 14.5589 85.74ZM25.9787 85.74C26.2405 85.74 26.4964 85.8177 26.714 85.9631C26.9317 86.1085 27.1013 86.3152 27.2015 86.5571C27.3017 86.7989 27.3279 87.065 27.2768 87.3218C27.2258 87.5785 27.0997 87.8143 26.9146 87.9994C26.7295 88.1845 26.4937 88.3106 26.2369 88.3617C25.9802 88.4127 25.7141 88.3865 25.4722 88.2864C25.2304 88.1862 25.0237 88.0165 24.8783 87.7989C24.7328 87.5812 24.6552 87.3253 24.6552 87.0636C24.6552 86.7137 24.7937 86.378 25.0405 86.13C25.2873 85.882 25.6222 85.7418 25.9721 85.74H25.9787ZM37.3964 85.74C37.6582 85.74 37.914 85.8177 38.1317 85.9631C38.3493 86.1085 38.519 86.3152 38.6192 86.5571C38.7193 86.7989 38.7456 87.065 38.6945 87.3218C38.6434 87.5785 38.5174 87.8143 38.3323 87.9994C38.1472 88.1845 37.9113 88.3106 37.6546 88.3617C37.3979 88.4127 37.1317 88.3865 36.8899 88.2864C36.648 88.1862 36.4413 88.0165 36.2959 87.7989C36.1505 87.5812 36.0729 87.3253 36.0729 87.0636C36.0728 86.7137 36.2114 86.378 36.4582 86.13C36.7049 85.882 37.0399 85.7418 37.3898 85.74H37.3964ZM48.814 85.74C49.0758 85.74 49.3317 85.8177 49.5493 85.9631C49.767 86.1085 49.9366 86.3152 50.0368 86.5571C50.137 86.7989 50.1632 87.065 50.1121 87.3218C50.0611 87.5785 49.935 87.8143 49.7499 87.9994C49.5648 88.1845 49.329 88.3106 49.0722 88.3617C48.8155 88.4127 48.5494 88.3865 48.3075 88.2864C48.0657 88.1862 47.859 88.0165 47.7136 87.7989C47.5681 87.5812 47.4905 87.3253 47.4905 87.0636C47.4905 86.7137 47.629 86.378 47.8758 86.13C48.1226 85.882 48.4575 85.7418 48.8074 85.74H48.814ZM60.2339 85.74C60.4957 85.74 60.7515 85.8177 60.9692 85.9631C61.1869 86.1085 61.3565 86.3152 61.4567 86.5571C61.5568 86.7989 61.583 87.065 61.532 87.3218C61.4809 87.5785 61.3549 87.8143 61.1698 87.9994C60.9847 88.1845 60.7488 88.3106 60.4921 88.3617C60.2354 88.4127 59.9692 88.3865 59.7274 88.2864C59.4855 88.1862 59.2788 88.0165 59.1334 87.7989C58.988 87.5812 58.9104 87.3253 58.9104 87.0636C58.9103 86.7148 59.048 86.3802 59.2933 86.1323C59.5387 85.8845 59.8719 85.7435 60.2206 85.74H60.2339ZM14.5589 76.1025C14.8207 76.1025 15.0765 76.1802 15.2942 76.3256C15.5118 76.471 15.6815 76.6777 15.7817 76.9196C15.8818 77.1614 15.908 77.4275 15.857 77.6843C15.8059 77.941 15.6799 78.1768 15.4948 78.3619C15.3097 78.547 15.0738 78.6731 14.8171 78.7242C14.5603 78.7752 14.2942 78.749 14.0524 78.6488C13.8105 78.5487 13.6038 78.379 13.4584 78.1614C13.313 77.9437 13.2354 77.6878 13.2354 77.4261C13.2354 77.075 13.3748 76.7384 13.623 76.4902C13.8712 76.242 14.2079 76.1025 14.5589 76.1025ZM25.9787 76.1025C26.2405 76.1025 26.4964 76.1802 26.714 76.3256C26.9317 76.471 27.1013 76.6777 27.2015 76.9196C27.3017 77.1614 27.3279 77.4275 27.2768 77.6843C27.2258 77.941 27.0997 78.1768 26.9146 78.3619C26.7295 78.547 26.4937 78.6731 26.2369 78.7242C25.9802 78.7752 25.7141 78.749 25.4722 78.6488C25.2304 78.5487 25.0237 78.379 24.8783 78.1614C24.7328 77.9437 24.6552 77.6878 24.6552 77.4261C24.6552 77.0762 24.7937 76.7405 25.0405 76.4925C25.2873 76.2445 25.6222 76.1043 25.9721 76.1025H25.9787ZM37.3964 76.1025C37.6582 76.1025 37.914 76.1802 38.1317 76.3256C38.3493 76.471 38.519 76.6777 38.6192 76.9196C38.7193 77.1614 38.7456 77.4275 38.6945 77.6843C38.6434 77.941 38.5174 78.1768 38.3323 78.3619C38.1472 78.547 37.9113 78.6731 37.6546 78.7242C37.3979 78.7752 37.1317 78.749 36.8899 78.6488C36.648 78.5487 36.4413 78.379 36.2959 78.1614C36.1505 77.9437 36.0729 77.6878 36.0729 77.4261C36.0728 77.0762 36.2114 76.7405 36.4582 76.4925C36.7049 76.2445 37.0399 76.1043 37.3898 76.1025H37.3964ZM48.814 76.1025C49.0758 76.1025 49.3317 76.1802 49.5493 76.3256C49.767 76.471 49.9366 76.6777 50.0368 76.9196C50.137 77.1614 50.1632 77.4275 50.1121 77.6843C50.0611 77.941 49.935 78.1768 49.7499 78.3619C49.5648 78.547 49.329 78.6731 49.0722 78.7242C48.8155 78.7752 48.5494 78.749 48.3075 78.6488C48.0657 78.5487 47.859 78.379 47.7136 78.1614C47.5681 77.9437 47.4905 77.6878 47.4905 77.4261C47.4905 77.0762 47.629 76.7405 47.8758 76.4925C48.1226 76.2445 48.4575 76.1043 48.8074 76.1025H48.814ZM60.2206 76.1025C60.4824 76.1025 60.7383 76.1802 60.956 76.3256C61.1736 76.471 61.3433 76.6777 61.4434 76.9196C61.5436 77.1614 61.5698 77.4275 61.5187 77.6843C61.4677 77.941 61.3416 78.1768 61.1565 78.3619C60.9714 78.547 60.7356 78.6731 60.4789 78.7242C60.2221 78.7752 59.956 78.749 59.7142 78.6488C59.4723 78.5487 59.2656 78.379 59.1202 78.1614C58.9747 77.9437 58.8971 77.6878 58.8971 77.4261C58.8971 77.075 59.0366 76.7384 59.2848 76.4902C59.533 76.242 59.8696 76.1025 60.2206 76.1025Z" fill="#DBDFE3"/>
<path d="M82.1492 88.6433C82.1492 98.8124 74.0801 107.058 64.125 107.058C54.1698 107.058 46.1029 98.8234 46.1029 88.6433C46.1029 78.4631 54.172 59.7793 64.125 59.7793C74.0779 59.7793 82.1492 78.4719 82.1492 88.6433Z" fill="#D2E6F3"/>
<path d="M38.1773 80.3715C42.0684 84.2075 56.9626 88.3303 56.9626 88.3303C56.9626 88.3303 58.7736 90.459 53.1905 91.2641C45.8107 92.3188 38.2833 91.2388 31.4978 88.1516C17.9074 81.9222 14.2037 73.2355 12.8295 70.2531C11.4552 67.2708 11.2853 60.8825 17.7353 58.2355C25.6346 54.9994 28.9743 61.2752 30.6067 66.3641C31.7956 70.0678 33.3089 75.5781 38.1773 80.3715Z" fill="#D2E6F3"/>
<path d="M66.6022 106.884C58.5706 107.559 49.4184 104.698 46.811 96.265C46.0263 93.7117 45.7851 91.0223 46.1029 88.3701C46.5441 90.9554 47.1044 93.4811 48.1081 95.7753C51.2867 103.421 59.1794 105.45 66.6022 106.884Z" fill="#BBD3E4"/>
<path d="M46.2949 94.0127C51.8405 98.645 61.414 100.467 69.3596 99.748C71.8854 99.5517 77.3273 99.2605 80.6427 94.4671C84.5604 101.513 74.6493 106.264 65.2589 106.928C58.4052 107.413 54.1677 105.285 51.2096 103.178C49.0545 101.629 47.5051 99.3781 46.8265 96.812C46.5265 95.6936 46.2949 94.6325 46.2949 94.0127Z" fill="#BBD81E"/>
<path d="M79.714 99.9684C81.8405 97.8353 77.0471 81.7566 80.914 82.3345C82.2486 82.5331 84.0022 85.822 85.1052 89.0051C86.5677 93.214 88.9169 99.3353 87.2427 103.564C84.7611 109.853 77.7265 113.34 75.8824 114.073C74.0383 114.805 68.8081 115.024 67.1956 111.148C65.4022 106.837 67.9169 104.874 71.1552 104.029C73.5199 103.412 77.0559 102.637 79.714 99.9684Z" fill="#D2E6F3"/>
<path opacity="0.5" fill-rule="evenodd" clip-rule="evenodd" d="M67.497 106.738C66.7706 106.838 66.0407 106.914 65.3138 106.965C58.4601 107.451 54.2226 105.322 51.2646 103.215C49.4312 101.897 48.0362 100.072 47.2427 97.976C47.0913 97.5457 46.9616 97.0996 46.8549 96.6374C46.7575 96.3202 46.6686 95.9958 46.5882 95.6658C46.4432 95.0148 46.3499 94.4434 46.3499 94.0498C46.8406 94.4598 47.363 94.8477 47.9129 95.2138C47.9931 95.415 48.0763 95.6146 48.1629 95.8124C50.4175 103.338 58.8002 106.218 67.497 106.738Z" fill="#89B31B"/>
<path d="M81.0266 82.416C83.1398 82.7601 85.1869 87.7344 85.8398 89.6138C87.1215 93.3109 88.2773 97.2329 87.8582 101.188C87.7533 102.175 87.4794 103.136 87.0487 104.029C87.4129 102.624 87.5242 101.165 87.3773 99.7212C87.1788 97.319 86.5943 94.9697 85.9104 92.6623C85.2266 90.355 83.2237 83.2212 81.0266 82.4182V82.416Z" fill="#BBD3E4"/>
<path d="M54.6176 32.056C49.9205 33.7534 45.6172 36.3876 41.9691 39.7987C34.7073 46.5773 29.9978 56.2898 29.9051 66.4148C29.8522 71.42 31.2683 76.3744 34.6875 80.1553C37.8375 83.6406 42.1191 85.8906 46.4272 87.5229C56.2809 91.2524 66.9383 92.3413 77.3426 90.6818C86.5853 89.1376 96.5956 85.2597 99.4014 75.3641C100.853 70.2531 100.412 64.6678 99.2536 59.5016C98.194 54.7531 96.1574 50.2773 93.2735 46.359C87.6308 38.5325 82.2088 33.1237 69.8757 30.5207C64.7669 29.4266 59.4353 30.3112 54.6176 32.056Z" fill="#D2E6F3"/>
<path d="M76.4536 113.823C76.4536 113.823 79.1007 112.873 80.9139 111.145C80.9139 111.145 80.2941 106.908 76.5 101.55C76.5 101.55 74.4 102.825 72.9 103.275C72.9 103.275 76.211 107.867 76.4536 113.823Z" fill="#FFD800"/>
<path opacity="0.65" d="M102.699 94.9634C103.001 94.9635 103.292 95.0743 103.517 95.2748C103.742 95.4752 103.886 95.7514 103.921 96.0509V96.1943V98.034C103.926 98.3504 103.808 98.6563 103.592 98.888C103.377 99.1197 103.08 99.2593 102.764 99.2778C102.449 99.2963 102.138 99.1922 101.897 98.9872C101.656 98.7822 101.503 98.4921 101.471 98.1774V98.034V96.1943C101.471 95.8682 101.6 95.5555 101.83 95.3247C102.061 95.0939 102.373 94.964 102.699 94.9634ZM98.4904 90.7546C98.8067 90.7502 99.1126 90.868 99.3443 91.0835C99.576 91.2989 99.7157 91.5955 99.7341 91.9114C99.7526 92.2273 99.6485 92.5381 99.4435 92.7791C99.2386 93.0202 98.9485 93.1728 98.6337 93.2053H98.4904H96.6507C96.3343 93.2097 96.0284 93.0919 95.7967 92.8765C95.565 92.661 95.4254 92.3644 95.4069 92.0485C95.3884 91.7327 95.4925 91.4218 95.6975 91.1808C95.9025 90.9397 96.1925 90.7871 96.5073 90.7546H96.6507H98.4904ZM108.75 90.7546C109.066 90.7502 109.372 90.868 109.604 91.0835C109.836 91.2989 109.975 91.5955 109.994 91.9114C110.012 92.2273 109.908 92.5381 109.703 92.7791C109.498 93.0202 109.208 93.1728 108.893 93.2053H108.75H106.91C106.594 93.2097 106.288 93.0919 106.056 92.8765C105.825 92.661 105.685 92.3644 105.666 92.0485C105.648 91.7327 105.752 91.4218 105.957 91.1808C106.162 90.9397 106.452 90.7871 106.767 90.7546H106.91H108.75ZM102.699 84.7061C103.001 84.7056 103.292 84.8159 103.517 85.016C103.742 85.2161 103.886 85.4921 103.921 85.7914V85.9347V87.7766C103.926 88.093 103.808 88.3989 103.592 88.6306C103.377 88.8623 103.08 89.0019 102.764 89.0204C102.449 89.0389 102.138 88.9348 101.897 88.7298C101.656 88.5248 101.503 88.2348 101.471 87.92V87.7766V85.9347C101.471 85.6089 101.6 85.2963 101.83 85.0659C102.061 84.8355 102.373 84.7061 102.699 84.7061Z" fill="#DBDFE3"/>
<path opacity="0.65" d="M28.7934 37.7798C29.0945 37.7794 29.3852 37.8898 29.6102 38.09C29.8352 38.2901 29.9786 38.566 30.0133 38.8651V39.0085V40.8504C30.0177 41.1668 29.8999 41.4727 29.6844 41.7044C29.4689 41.9361 29.1724 42.0757 28.8565 42.0942C28.5406 42.1127 28.2298 42.0086 27.9888 41.8036C27.7477 41.5986 27.595 41.3085 27.5625 40.9938V40.8504V39.0085C27.5631 38.6824 27.6931 38.3699 27.9238 38.1396C28.1546 37.9092 28.4674 37.7798 28.7934 37.7798ZM24.5846 33.571C24.901 33.5666 25.2069 33.6844 25.4386 33.8999C25.6703 34.1153 25.8099 34.4119 25.8284 34.7278C25.8469 35.0437 25.7428 35.3545 25.5378 35.5955C25.3328 35.8366 25.0427 35.9892 24.728 36.0217H24.5846H22.7427C22.4263 36.0262 22.1204 35.9084 21.8887 35.6929C21.657 35.4774 21.5174 35.1808 21.4989 34.8649C21.4804 34.5491 21.5845 34.2382 21.7895 33.9972C21.9945 33.7562 22.2846 33.6035 22.5993 33.571H22.7427H24.5846ZM34.842 33.571C35.1583 33.5666 35.4642 33.6844 35.6959 33.8999C35.9276 34.1153 36.0673 34.4119 36.0857 34.7278C36.1042 35.0437 36.0001 35.3545 35.7951 35.5955C35.5902 35.8366 35.3001 35.9892 34.9853 36.0217H34.842H33.0023C32.6859 36.0262 32.38 35.9084 32.1483 35.6929C31.9166 35.4774 31.777 35.1808 31.7585 34.8649C31.74 34.5491 31.8441 34.2382 32.0491 33.9972C32.2541 33.7562 32.5441 33.6035 32.8589 33.571H33.0023H34.842ZM28.7934 27.5225C29.0945 27.5221 29.3852 27.6325 29.6102 27.8326C29.8352 28.0328 29.9786 28.3087 30.0133 28.6078V28.7511V30.5908C30.0177 30.9072 29.8999 31.2131 29.6844 31.4448C29.4689 31.6765 29.1724 31.8161 28.8565 31.8346C28.5406 31.8531 28.2298 31.749 27.9888 31.544C27.7477 31.339 27.595 31.049 27.5625 30.7342V30.5908V28.7511C27.5625 28.5896 27.5944 28.4297 27.6563 28.2804C27.7182 28.1312 27.8089 27.9957 27.9232 27.8816C28.0375 27.7674 28.1732 27.677 28.3226 27.6154C28.4719 27.5537 28.6319 27.5222 28.7934 27.5225Z" fill="#DBDFE3"/>
<path d="M46.3235 91.5243C35.6293 91.9963 23.0845 86.0096 16.394 77.6912C14.5969 75.4282 13.1067 72.9375 11.9624 70.2838C10.8242 67.403 11.0051 64.0059 12.6242 61.3302C14.5411 58.1691 18.408 56.3978 22.0455 56.3691C26.0382 56.3691 28.8529 59.4177 30.3617 62.8169C31.7646 65.8919 32.3845 69.2978 33.7521 72.3309C34.9221 75.0971 36.5793 77.6306 38.6448 79.8111C39.5757 80.7927 40.6742 81.5559 41.8389 82.2927C43.7335 83.4583 45.695 84.5116 47.7132 85.4471C49.7337 86.4088 51.7896 87.3022 53.8632 88.1471C51.7058 87.525 49.5815 86.7905 47.4815 85.9853C44.3183 84.7147 41.1462 83.4066 38.4374 81.278C37.5567 80.524 36.7399 79.6984 35.9955 78.8096C34.5198 77.0362 33.2794 75.0795 32.3051 72.9883C30.3352 69.0618 29.8058 64.3544 27.0463 60.9464C25.0058 58.3302 22.1249 57.7478 19.0588 58.8463C16.0808 59.8125 13.7646 61.95 13.2793 65.1265C12.9979 66.8914 13.2627 68.7001 14.0382 70.3103L14.3801 71.0625C19.6124 82.6324 33.8051 90.9419 46.3235 91.5243Z" fill="#BBD3E4"/>
<path d="M70.9588 104.034C74.175 102.825 76.7691 101.874 78.9926 99.7123C79.2654 99.4765 79.46 99.1634 79.5507 98.8145C79.7422 98.1674 79.8656 97.502 79.9191 96.8292C80.0691 95.4307 80.1198 93.9814 80.3602 92.5498C80.5935 93.9788 80.7328 95.4216 80.7772 96.8689C80.7617 98.0799 80.7441 99.5711 79.7448 100.502C77.422 102.825 74.122 103.765 70.95 104.031L70.9588 104.034Z" fill="#BBD3E4"/>
<path opacity="0.5" fill-rule="evenodd" clip-rule="evenodd" d="M77.0915 102.405C75.8743 103.03 74.5477 103.448 73.1971 103.713C73.0124 103.422 72.9001 103.266 72.9001 103.266C73.9573 102.949 75.3124 102.222 76.0204 101.82C76.184 101.733 76.3461 101.643 76.5065 101.55C76.7106 101.838 76.9054 102.123 77.0915 102.405Z" fill="#BBB300"/>
<path d="M79.6942 55.8092C79.4939 56.9872 79.7083 58.1982 80.3009 59.2357C80.8935 60.2733 81.8275 61.0733 82.9439 61.4993C84.0602 61.9253 85.2898 61.951 86.423 61.5721C87.5561 61.1931 88.5228 60.4328 89.1583 59.4209C89.7937 58.409 90.0586 57.2081 89.9077 56.0228C89.7569 54.8375 89.1996 53.7411 88.331 52.9207C87.4624 52.1002 86.3361 51.6063 85.1441 51.5232C83.9521 51.4402 82.7682 51.773 81.7942 52.4651C81.2414 52.8571 80.7715 53.3542 80.4111 53.928C80.0508 54.5018 79.8071 55.1411 79.6942 55.8092Z" fill="white"/>
<path d="M41.4507 51.8385C41.2505 53.0165 41.4649 54.2274 42.0575 55.265C42.6501 56.3026 43.5841 57.1026 44.7005 57.5286C45.8168 57.9546 47.0464 57.9803 48.1796 57.6014C49.3127 57.2224 50.2794 56.4621 50.9149 55.4502C51.5503 54.4383 51.8152 53.2374 51.6643 52.0521C51.5135 50.8668 50.9562 49.7704 50.0876 48.95C49.219 48.1295 48.0927 47.6356 46.9007 47.5525C45.7087 47.4695 44.5248 47.8023 43.5507 48.4944C42.9975 48.8858 42.5272 49.3828 42.1668 49.9567C41.8064 50.5306 41.563 51.1702 41.4507 51.8385Z" fill="white"/>
<path d="M93.7992 65.7839C93.8724 64.2079 92.079 62.8443 89.7936 62.7381C87.5081 62.6319 85.596 63.8234 85.5228 65.3994C85.4496 66.9754 87.243 68.339 89.5284 68.4452C91.8139 68.5514 93.726 67.3599 93.7992 65.7839Z" fill="#EDF6FB"/>
<path d="M42.9656 60.6872C43.145 59.1197 41.4478 57.6381 39.1747 57.378C36.9016 57.1178 34.9135 58.1775 34.734 59.7449C34.5546 61.3124 36.2519 62.7939 38.525 63.0541C40.798 63.3143 42.7862 62.2546 42.9656 60.6872Z" fill="#EDF6FB"/>
<path d="M46.5795 60.5762C47.839 63.5453 54.0971 63.9865 58.2089 62.5615C62.3206 61.1365 66.2273 61.5247 69.9265 63.7526C73.6258 65.9806 79.3501 66.7593 81.7324 64.1607" stroke="#326681" stroke-width="1.76471" stroke-linecap="round"/>
<path d="M93.75 47.0953C93.75 47.0953 87.1897 35.7615 75.1434 31.4931C71.6868 30.2645 72.8978 24.2821 76.7956 24.1961C80.4949 24.1122 83.4971 22.1115 82.4515 18.3593C82.4393 18.3158 82.4131 18.2774 82.3771 18.2501C82.341 18.2228 82.2971 18.208 82.2518 18.208C82.2066 18.208 82.1626 18.2228 82.1266 18.2501C82.0906 18.2774 82.0644 18.3158 82.0522 18.3593C81.1588 21.0064 80.1463 21.7895 76.9081 20.8564C76.9081 20.8564 67.9985 16.6872 62.6272 28.3564C60.5449 32.8674 49.9103 28.9475 39.1544 42.5733C60 28.7799 86.0096 39.3174 93.75 47.0953Z" fill="#326681"/>
<path d="M80.8391 55.7094C80.7195 56.4397 80.8187 57.189 81.1241 57.863C81.4295 58.537 81.9275 59.1056 82.5554 59.4972C83.1833 59.8888 83.913 60.0859 84.6527 60.0636C85.3924 60.0413 86.1089 59.8007 86.7121 59.372C87.3153 58.9434 87.7782 58.3458 88.0425 57.6546C88.3068 56.9634 88.3606 56.2095 88.1973 55.4877C88.034 54.766 87.6609 54.1087 87.1248 53.5986C86.5887 53.0885 85.9136 52.7484 85.1847 52.6211C84.1989 52.4545 83.1872 52.6862 82.3723 53.2653C81.5574 53.8445 81.0058 54.7236 80.8391 55.7094Z" fill="#326681"/>
<path d="M42.5956 51.73C42.4481 52.5893 42.6031 53.4732 43.0341 54.2311C43.4651 54.9891 44.1456 55.5741 44.9595 55.8867C45.7735 56.1993 46.6706 56.2201 47.4982 55.9456C48.3257 55.6711 49.0325 55.1182 49.4982 54.381C49.9639 53.6439 50.1597 52.7681 50.0522 51.9029C49.9448 51.0376 49.5407 50.2363 48.9088 49.6355C48.277 49.0347 47.4564 48.6715 46.5868 48.6078C45.7172 48.544 44.8524 48.7836 44.1397 49.2858C43.7343 49.5718 43.3893 49.9348 43.1243 50.3542C42.8594 50.7736 42.6797 51.2411 42.5956 51.73Z" fill="#326681"/>
<path d="M53.2721 88.0146C57.9044 86.8014 60.1619 85.6104 62.6184 83.1748C63.825 85.575 64.425 88.725 69.9 91.2C67.875 90.975 65.8729 90.9854 62.0956 90.2623C57.9461 89.4678 57.5736 89.4484 53.2721 88.0146Z" fill="#326681"/>
<path d="M46.4094 85.0984C54.5425 88.1867 63.2381 89.6558 71.9028 89.9889C75.591 90.1367 79.2815 89.7904 82.8043 88.6654C87.4852 87.2205 92.0381 84.9485 95.4947 81.4124C97.2432 79.6412 98.5708 77.4994 99.3793 75.1455C98.5322 78.8404 96.1035 82.0632 93.1719 84.4279C88.7116 87.9992 83.2168 90.2404 77.5763 91.0698C74.4263 91.4426 71.2388 91.3632 68.091 91.0698C60.6175 90.3264 53.069 88.6433 46.4094 85.0874V85.0984Z" fill="#BBD3E4"/>
<path fill-rule="evenodd" clip-rule="evenodd" d="M66.7569 90.8863C62.8613 90.4402 58.9606 89.7243 55.1911 88.6068C54.6371 88.4306 54.0039 88.2227 53.25 87.9714C53.7224 87.8477 54.1701 87.7242 54.5958 87.5996C58.7341 88.616 62.9605 89.2815 67.2052 89.6529C67.9397 90.1726 68.8174 90.6773 69.8779 91.1568C69.3063 91.0933 68.7365 91.0485 68.1282 91.0007C67.6955 90.9667 67.2433 90.9312 66.7569 90.8863Z" fill="#255473"/>
</g>
<defs>
<clipPath id="clip0_821_11980">
<rect width="120" height="120" fill="white"/>
</clipPath>
</defs>
</svg>
