<?xml version="1.0" encoding="UTF-8"?>
<svg width="80px" height="80px" viewBox="0 0 80 80" version="1.1" xmlns="http://www.w3.org/2000/svg" xmlns:xlink="http://www.w3.org/1999/xlink">
    <title>9FDE38D0-FBA2-40DD-95D5-42A7AB2036AF</title>
    <defs>
        <filter color-interpolation-filters="auto" id="filter-1">
            <feColorMatrix in="SourceGraphic" type="matrix" values="0 0 0 0 0.376471 0 0 0 0 0.388235 0 0 0 0 0.560784 0 0 0 1.000000 0"></feColorMatrix>
        </filter>
        <filter color-interpolation-filters="auto" id="filter-2">
            <feColorMatrix in="SourceGraphic" type="matrix" values="0 0 0 0 0.954031 0 0 0 0 0.687302 0 0 0 0 0.601039 0 0 0 1.000000 0"></feColorMatrix>
        </filter>
        <filter color-interpolation-filters="auto" id="filter-3">
            <feColorMatrix in="SourceGraphic" type="matrix" values="0 0 0 0 0.819608 0 0 0 0 0.905882 0 0 0 0 1.000000 0 0 0 1.000000 0"></feColorMatrix>
        </filter>
    </defs>
    <g id="擴充功能" stroke="none" stroke-width="1" fill="none" fill-rule="evenodd">
        <g id="切圖" transform="translate(-193.000000, -295.000000)">
            <g id="ext/商品選選樂_fin" transform="translate(193.000000, 295.000000)">
                <rect id="Rectangle" stroke="#979797" stroke-width="0.5" fill="#D8D8D8" opacity="0" x="0.25" y="0.25" width="79.5" height="79.5"></rect>
                <g id="Group-2-Copy-2" transform="translate(2.168675, 13.253012)">
                    <g filter="url(#filter-1)" id="line">
                        <g>
                            <path d="M23.0120482,43.6144578 C23.3447498,43.6144578 23.6144578,43.8841658 23.6144578,44.2168675 C23.6144578,44.5408138 23.3587582,44.8050383 23.0381795,44.8187205 L21.8072289,44.8192771 C21.4745273,44.8192771 21.2048193,44.5495691 21.2048193,44.2168675 C21.2048193,43.8929211 21.4605189,43.6286966 21.7810976,43.6150144 L23.0120482,43.6144578 Z M18.1927711,43.6144578 C18.5254727,43.6144578 18.7951807,43.8841658 18.7951807,44.2168675 C18.7951807,44.5408138 18.5394811,44.8050383 18.2189024,44.8187205 L12.4096386,44.8192771 C12.0769369,44.8192771 11.8072289,44.5495691 11.8072289,44.2168675 C11.8072289,43.8929211 12.0629285,43.6286966 12.3835073,43.6150144 L18.1927711,43.6144578 Z" id="Combined-Shape" fill="#000000" fill-rule="nonzero"></path>
                            <path d="M63.253012,43.6144578 C63.5857137,43.6144578 63.8554217,43.8841658 63.8554217,44.2168675 C63.8554217,44.5408138 63.5997221,44.8050383 63.2791433,44.8187205 L62.0481928,44.8192771 C61.7154911,44.8192771 61.4457831,44.5495691 61.4457831,44.2168675 C61.4457831,43.8929211 61.7014827,43.6286966 62.0220615,43.6150144 L63.253012,43.6144578 Z M58.4337349,43.6144578 C58.7664366,43.6144578 59.0361446,43.8841658 59.0361446,44.2168675 C59.0361446,44.5408138 58.780445,44.8050383 58.4598662,44.8187205 L52.6506024,44.8192771 C52.3179008,44.8192771 52.0481928,44.5495691 52.0481928,44.2168675 C52.0481928,43.8929211 52.3038924,43.6286966 52.6244711,43.6150144 L58.4337349,43.6144578 Z" id="Combined-Shape" fill="#000000" fill-rule="nonzero"></path>
                            <path d="M29.6385542,0 C32.8005508,0 35.3698423,2.53767161 35.420912,5.68749786 L35.4216867,5.78313253 L35.4216867,47.7108434 C35.4216867,50.8728399 32.8840151,53.4421315 29.7341889,53.4932011 L29.6385542,53.4939759 L5.78313253,53.4939759 C2.62113599,53.4939759 0.0518444065,50.9563043 0.000774774531,47.806478 L0,47.7108434 L0,37.1084337 C0,36.5761111 0.431532771,36.1445783 0.963855422,36.1445783 C1.48613425,36.1445783 1.91139071,36.5599805 1.92725219,37.0784121 L1.92771084,37.1084337 L1.92771084,47.7108434 C1.92771084,49.8188411 3.61949192,51.5317021 5.71937608,51.5657485 L5.78313253,51.5662651 L29.6385542,51.5662651 C31.7465519,51.5662651 33.459413,49.874484 33.4934594,47.7745998 L33.4939759,47.7108434 L33.4939759,5.78313253 C33.4939759,3.67513483 31.8021948,1.96227378 29.7023107,1.92822736 L29.6385542,1.92771084 L5.78313253,1.92771084 C3.67513483,1.92771084 1.96227378,3.61949192 1.92822736,5.71937608 L1.92771084,5.78313253 L1.92771084,16.3855422 C1.92771084,16.9178648 1.49617807,17.3493976 0.963855422,17.3493976 C0.441576595,17.3493976 0.0163201366,16.9339954 0.000458653571,16.4155638 L0,16.3855422 L0,5.78313253 C0,2.62113599 2.53767161,0.0518444065 5.68749786,0.000774774531 L5.78313253,0 L29.6385542,0 Z" id="Path" fill="#000000" fill-rule="nonzero" transform="translate(17.710843, 26.746988) scale(-1, 1) translate(-17.710843, -26.746988) "></path>
                            <path d="M69.8795181,0 C73.0415146,0 75.6108062,2.53767161 75.6618758,5.68749786 L75.6626506,5.78313253 L75.6626506,47.7108434 C75.6626506,50.8728399 73.124979,53.4421315 69.9751527,53.4932011 L69.8795181,53.4939759 L46.0240964,53.4939759 C42.8620998,53.4939759 40.2928083,50.9563043 40.2417386,47.806478 L40.2409639,47.7108434 L40.2409639,37.1084337 C40.2409639,36.5761111 40.6724966,36.1445783 41.2048193,36.1445783 C41.7270981,36.1445783 42.1523546,36.5599805 42.168216,37.0784121 L42.1686747,37.1084337 L42.1686747,47.7108434 C42.1686747,49.8188411 43.8604558,51.5317021 45.9603399,51.5657485 L46.0240964,51.5662651 L69.8795181,51.5662651 C71.9875158,51.5662651 73.7003768,49.874484 73.7344232,47.7745998 L73.7349398,47.7108434 L73.7349398,5.78313253 C73.7349398,3.67513483 72.0431587,1.96227378 69.9432745,1.92822736 L69.8795181,1.92771084 L46.0240964,1.92771084 C43.9160987,1.92771084 42.2032376,3.61949192 42.1691912,5.71937608 L42.1686747,5.78313253 L42.1686747,16.3855422 C42.1686747,16.9178648 41.7371419,17.3493976 41.2048193,17.3493976 C40.6825405,17.3493976 40.257284,16.9339954 40.2414225,16.4155638 L40.2409639,16.3855422 L40.2409639,5.78313253 C40.2409639,2.62113599 42.7786355,0.0518444065 45.9284617,0.000774774531 L46.0240964,0 L69.8795181,0 Z" id="Path" fill="#000000" fill-rule="nonzero"></path>
                        </g>
                    </g>
                    <g filter="url(#filter-2)" id="A">
                        <g transform="translate(26.265060, 5.301205)">
                            <circle id="Oval" fill="#919191" cx="42.1686747" cy="1.92771084" r="1.92771084"></circle>
                            <circle id="Oval" fill="#919191" cx="1.92771084" cy="1.92771084" r="1.92771084"></circle>
                            <circle id="Oval" fill="#919191" cx="11.5662651" cy="21.4457831" r="7.8313253"></circle>
                        </g>
                    </g>
                    <g filter="url(#filter-3)" id="B">
                        <g transform="translate(7.969723, 10.361446)">
                            <path d="M9.74112013,0 C12.2443674,0 14.2783899,2.00899003 14.31882,4.50260247 L14.3194334,4.57831325 L14.319,5.421 L14.9910747,5.42168675 C16.4921703,5.42168675 17.7436455,6.57032521 17.8720436,8.06591934 L19.3511609,25.294835 C19.4877595,26.8859502 18.3086409,28.2865389 16.7175257,28.4231375 C16.6352703,28.4301992 16.5527501,28.4337349 16.4701921,28.4337349 L2.89156627,28.4337349 C1.29459831,28.4337349 0,27.1391366 0,25.5421687 C0,25.4596106 0.00353571094,25.3770905 0.0105974142,25.294835 L1.48971476,8.06591934 C1.61811281,6.57032521 2.86958805,5.42168675 4.37068361,5.42168675 L5.162,5.421 L5.16280688,4.57831325 C5.16280688,2.04978066 7.21258754,0 9.74112013,0 Z M9.74112013,1.92771084 C8.29187172,1.92771084 7.11427974,3.09081033 7.09087283,4.5344807 L7.09,5.421 L12.391,5.421 L12.3917225,4.57831325 C12.3917225,3.11442596 11.2050074,1.92771084 9.74112013,1.92771084 Z" id="Combined-Shape" fill="#D8D8D8"></path>
                            <path d="M49.982084,0 C52.4853313,0 54.5193538,2.00899003 54.5597839,4.50260247 L54.5603972,4.57831325 L54.5599639,5.421 L55.2320386,5.42168675 C56.7331341,5.42168675 57.9846094,6.57032521 58.1130074,8.06591934 L59.5921248,25.294835 C59.7287234,26.8859502 58.5496048,28.2865389 56.9584896,28.4231375 C56.8762341,28.4301992 56.793714,28.4337349 56.7111559,28.4337349 L43.1325301,28.4337349 C41.5355622,28.4337349 40.2409639,27.1391366 40.2409639,25.5421687 C40.2409639,25.4596106 40.2444996,25.3770905 40.2515613,25.294835 L41.7306786,8.06591934 C41.8590767,6.57032521 43.1105519,5.42168675 44.6116475,5.42168675 L45.4029639,5.421 L45.4037707,4.57831325 C45.4037707,2.04978066 47.4535514,0 49.982084,0 Z M49.982084,1.92771084 C48.5328356,1.92771084 47.3552436,3.09081033 47.3318367,4.5344807 L47.3309639,5.421 L52.6319639,5.421 L52.6326864,4.57831325 C52.6326864,3.11442596 51.4459713,1.92771084 49.982084,1.92771084 Z" id="Combined-Shape" fill="#D8D8D8"></path>
                        </g>
                    </g>
                    <path d="M37.8012425,22.2891566 C38.323521,22.2891938 38.7487775,22.704596 38.764639,23.2230277 L38.764494,25.7441566 L41.2567166,25.7230962 C41.7890191,25.7184675 42.2242879,26.1462316 42.2289538,26.6785341 C42.233458,27.2007932 41.8217693,27.6296456 41.3034951,27.6500145 L41.2734787,27.6507341 L38.764494,27.6721566 L38.7650976,30.181022 C38.7650976,30.7133447 38.3335649,31.1448774 37.8012419,31.1449146 C37.2789634,31.1448774 36.8537069,30.7294753 36.8378454,30.2110436 L36.8373868,30.181022 L36.836494,27.6881566 L34.3457678,27.7109751 C33.8134653,27.7156038 33.3781965,27.2878397 33.3735306,26.7555372 C33.3690264,26.2332781 33.7807151,25.8044256 34.2989893,25.7840568 L34.3290057,25.7833371 L36.836494,25.7611566 L36.8373868,23.2530493 C36.8373868,22.7207266 37.2689196,22.2891938 37.8012425,22.2891566 Z" id="Combined-Shape" fill="#FFFFFF"></path>
                </g>
            </g>
        </g>
    </g>
</svg>