<?xml version="1.0" encoding="UTF-8"?>
<svg width="80px" height="80px" viewBox="0 0 80 80" version="1.1" xmlns="http://www.w3.org/2000/svg" xmlns:xlink="http://www.w3.org/1999/xlink">
    <title>C110BC02-E038-48EC-ACC5-B184AA6BBADA</title>
    <defs>
        <filter color-interpolation-filters="auto" id="filter-1">
            <feColorMatrix in="SourceGraphic" type="matrix" values="0 0 0 0 0.954031 0 0 0 0 0.687302 0 0 0 0 0.601039 0 0 0 1.000000 0"></feColorMatrix>
        </filter>
        <filter color-interpolation-filters="auto" id="filter-2">
            <feColorMatrix in="SourceGraphic" type="matrix" values="0 0 0 0 0.819608 0 0 0 0 0.905882 0 0 0 0 1.000000 0 0 0 1.000000 0"></feColorMatrix>
        </filter>
        <filter color-interpolation-filters="auto" id="filter-3">
            <feColorMatrix in="SourceGraphic" type="matrix" values="0 0 0 0 1.000000 0 0 0 0 1.000000 0 0 0 0 1.000000 0 0 0 1.000000 0"></feColorMatrix>
        </filter>
        <filter color-interpolation-filters="auto" id="filter-4">
            <feColorMatrix in="SourceGraphic" type="matrix" values="0 0 0 0 0.376471 0 0 0 0 0.388235 0 0 0 0 0.560784 0 0 0 1.000000 0"></feColorMatrix>
        </filter>
    </defs>
    <g id="擴充功能" stroke="none" stroke-width="1" fill="none" fill-rule="evenodd">
        <g id="切圖" transform="translate(-327.000000, -170.000000)">
            <g id="ext/會員群組_fin" transform="translate(327.000000, 170.000000)">
                <rect id="Rectangle" stroke="#979797" stroke-width="0.5" fill="#D8D8D8" opacity="0" x="0.25" y="0.25" width="79.5" height="79.5"></rect>
                <g id="Group" transform="translate(9.638554, 8.795181)">
                    <g filter="url(#filter-1)" id="A">
                        <g transform="translate(0.000000, 0.000000)">
                            <path d="M4.81927711,0 L45.3012048,0 C47.9628181,0 50.1204819,2.15766386 50.1204819,4.81927711 L50.1204819,12.8915663 C50.1204819,15.5531795 47.9628181,17.7108434 45.3012048,17.7108434 L4.81927711,17.7108434 C2.15766386,17.7108434 0,15.5531795 0,12.8915663 L0,4.81927711 C0,2.15766386 2.15766386,0 4.81927711,0 Z" id="Rectangle" fill="#919191"></path>
                        </g>
                    </g>
                    <g filter="url(#filter-2)" id="B">
                        <g transform="translate(0.000000, 19.638554)">
                            <path d="M28.323,19.638 L28.3234458,19.9870476 C28.3234458,22.7214343 29.5203138,25.1762774 31.4182784,26.8559134 C25.450539,28.1680798 22.0733305,31.6657901 21.2866528,37.3490442 L4.81927711,37.3493976 C2.15766386,37.3493976 0,35.1917337 0,32.5301205 L0,24.4578313 C0,21.7962181 2.15766386,19.6385542 4.81927711,19.6385542 L28.323,19.638 Z M45.3012048,0 C47.9628181,0 50.1204819,2.15766386 50.1204819,4.81927711 L50.1206594,6.17893745 C49.5738581,6.07725549 49.0100046,6.02409639 48.433735,6.02409639 C46.383479,6.02409639 44.4903843,6.6969841 42.9634391,7.83390956 C41.4363117,6.69696145 39.5432462,6.02409639 37.4930247,6.02409639 C32.4288061,6.02409639 28.3234458,10.1294567 28.3234458,15.1936753 L28.3234458,15.1936753 L28.323,17.71 L4.81927711,17.7108434 C2.15766386,17.7108434 0,15.5531795 0,12.8915663 L0,4.81927711 C0,2.15766386 2.15766386,0 4.81927711,0 L45.3012048,0 Z" id="Combined-Shape" fill="#D8D8D8"></path>
                        </g>
                    </g>
                    <g filter="url(#filter-3)" id="white">
                        <g transform="translate(4.939759, 3.610361)">
                            <path d="M6.98795181,1.90168675 C6.46167828,1.90168675 6.03504929,1.47689668 6.03504929,0.952891566 C6.03504929,0.428886457 6.46167828,0.00409638554 6.98795181,0.00409638554 C7.51422534,0.00409638554 7.94085433,0.428886457 7.94085433,0.952891566 C7.94085433,1.47689668 7.51422534,1.90168675 6.98795181,1.90168675 Z M0.952902519,2.53421687 C0.42662899,2.53421687 0,2.1094268 0,1.58542169 C0,1.06141658 0.42662899,0.636626506 0.952902519,0.636626506 C1.47917605,0.636626506 1.90580504,1.06141658 1.90580504,1.58542169 C1.90580504,2.1094268 1.47917605,2.53421687 0.952902519,2.53421687 L0.952902519,2.53421687 Z M13.0230011,2.53421687 C12.4967276,2.53421687 12.0700986,2.1094268 12.0700986,1.58542169 C12.0700986,1.06141658 12.4967276,0.636626506 13.0230011,0.636626506 C13.5492746,0.636626506 13.9759036,1.06141658 13.9759036,1.58542169 C13.9759036,2.1094268 13.5492746,2.53421687 13.0230011,2.53421687 L13.0230011,2.53421687 Z M9.73739321,5.50584337 L12.1377547,3.21134036 C12.2648083,3.08989458 12.4744469,3.08704819 12.6053122,3.20501506 C12.6860148,3.27597528 12.7215516,3.38503431 12.6980613,3.48965361 L11.5094743,8.66659639 C11.3141292,9.51671687 10.5057503,10.1245783 9.57,10.1245783 L4.40558598,10.1245783 C3.46983571,10.1245783 2.66145674,9.51671687 2.46611172,8.66659639 L1.27784228,3.48933735 C1.23972618,3.32361446 1.35375685,3.16042169 1.53194962,3.12531627 C1.64312158,3.10317771 1.75874042,3.13575301 1.83814896,3.21134036 L4.23851041,5.50584337 C4.49293538,5.7490512 4.91157722,5.75442771 5.17330778,5.51786145 C5.22825849,5.4685241 5.27336254,5.41033133 5.30671413,5.34644578 L6.69096386,2.70689759 C6.77069003,2.55445783 6.96857612,2.49088855 7.13247536,2.56521084 C7.19917853,2.59525602 7.25285871,2.6452259 7.28493976,2.70689759 L8.66918949,5.34644578 C8.82895947,5.65164157 9.22473165,5.77814759 9.55284775,5.62981928 C9.62177437,5.59850904 9.68403067,5.55676205 9.73739321,5.50584337 L9.73739321,5.50584337 Z" id="Shape" fill="#FFFFFF" fill-rule="nonzero"></path>
                            <path d="M23.0858303,10.5390361 C23.3856922,10.5390361 23.6282275,10.3185542 23.8134363,9.87759036 L23.8134363,9.87759036 L26.5915679,1.07301205 C26.7679572,0.494859438 26.6224361,0.15188755 26.1550044,0.0440963855 C26.0579903,0.024497992 25.9543615,0.012248996 25.8441182,0.00734939759 C25.7338749,0.0024497992 25.6280413,0.0195983936 25.5266175,0.0587951807 C25.4251936,0.0979919679 25.3303843,0.161686747 25.2421897,0.249879518 C25.153995,0.338072289 25.0834393,0.460562249 25.0305225,0.617349398 L25.0305225,0.617349398 L23.0858303,6.99662651 L21.1411382,0.632048193 C21.0882214,0.445863454 21.0198705,0.308674699 20.9360856,0.220481928 C20.8523007,0.132289157 20.7619011,0.0734939759 20.664887,0.0440963855 C20.5678729,0.0146987952 20.4708588,0.00489959839 20.3738447,0.0146987952 C20.2768305,0.024497992 20.1842262,0.0391967871 20.0960315,0.0587951807 C19.9461006,0.0979919679 19.8292427,0.156787149 19.7454577,0.235180723 C19.6616728,0.313574297 19.6021414,0.399317269 19.5668636,0.492409639 C19.5315857,0.585502008 19.5183565,0.685943775 19.527176,0.79373494 C19.5359954,0.901526104 19.5580441,1.00931727 19.593322,1.11710843 L19.593322,1.11710843 L22.3449952,9.83349398 C22.4596483,10.1274699 22.5743013,10.3185542 22.6889544,10.406747 C22.8036074,10.4949398 22.9358994,10.5390361 23.0858303,10.5390361 Z M28.8218807,10.5390361 C29.130562,10.5390361 29.3532535,10.4606426 29.4899552,10.3038554 C29.6266569,10.1470683 29.6950078,9.91188755 29.6950078,9.59831325 L29.6950078,9.59831325 L29.6950078,0.926024096 C29.6950078,0.583052209 29.6200423,0.342971888 29.4701114,0.205783133 C29.3201805,0.0685943775 29.1041036,0 28.8218807,0 C28.2574349,0 27.975212,0.313574297 27.975212,0.940722892 L27.975212,0.940722892 L27.975212,9.61301205 C27.975212,9.91678715 28.0391531,10.1470683 28.1670353,10.3038554 C28.2949176,10.4606426 28.5131994,10.5390361 28.8218807,10.5390361 Z M32.3486549,10.5390361 C32.6573362,10.5390361 32.8778228,10.4606426 33.0101148,10.3038554 C33.1424068,10.1470683 33.2085528,9.97068273 33.2085528,9.7746988 L33.2085528,9.7746988 L33.2085528,6.80554217 L34.5976186,6.80554217 C35.1620644,6.80554217 35.6449301,6.74184739 36.0462158,6.61445783 C36.4475015,6.48706827 36.7760266,6.28618474 37.0317911,6.01180723 C37.2875556,5.73742972 37.4771741,5.38465863 37.6006466,4.95349398 C37.7241192,4.52232932 37.7858554,4.00297189 37.7858554,3.39542169 C37.7858554,2.78787149 37.7285289,2.27586345 37.6138758,1.85939759 C37.4992228,1.44293173 37.314014,1.10730924 37.0582495,0.85253012 C36.802485,0.597751004 36.4739599,0.416465863 36.0726742,0.308674699 C35.6713885,0.200883534 35.1797033,0.146987952 34.5976186,0.146987952 L34.5976186,0.146987952 L32.7323016,0.146987952 C32.4677176,0.146987952 32.2538456,0.159236948 32.0906855,0.18373494 C31.9275254,0.208232932 31.801848,0.254779116 31.7136533,0.323373494 C31.6254587,0.391967871 31.5659273,0.489959839 31.5350592,0.617349398 C31.504191,0.744738956 31.488757,0.911325301 31.488757,1.11710843 L31.488757,1.11710843 L31.488757,9.7746988 C31.488757,9.95108434 31.5549029,10.1225703 31.6871949,10.2891566 C31.8194869,10.455743 32.0399736,10.5390361 32.3486549,10.5390361 Z M34.5976186,5.15927711 L33.2085528,5.15927711 L33.2085528,1.80795181 L34.5976186,1.80795181 C34.8092858,1.80795181 35.003314,1.83 35.1797033,1.87409639 C35.3560926,1.91819277 35.5104333,2.00148594 35.6427253,2.1239759 C35.7750173,2.24646586 35.878646,2.41060241 35.9536114,2.61638554 C36.0285769,2.82216867 36.0660596,3.08674699 36.0660596,3.41012048 C36.0660596,4.02746988 35.9624309,4.47333333 35.7551735,4.74771084 C35.547916,5.02208835 35.1620644,5.15927711 34.5976186,5.15927711 L34.5976186,5.15927711 Z" id="VIP" fill="#FFFFFF" fill-rule="nonzero"></path>
                            <path d="M7.04819277,28.0161446 L4.26464472,29.4653346 C4.02856253,29.5882454 3.73754126,29.4965018 3.61463051,29.2604196 C3.56586772,29.1667579 3.54921658,29.0596731 3.56723683,28.955627 L4.09762587,25.893245 L4.09762587,25.893245 L1.85520108,23.7286426 C1.66370301,23.5437904 1.65831547,23.2386982 1.84316768,23.0472002 C1.91749414,22.9702015 2.01533571,22.9201332 2.12126432,22.9048903 L5.22464214,22.4583213 L5.22464214,22.4583213 L6.61686232,19.6647629 C6.73558217,19.4265457 7.02493685,19.3296739 7.26315408,19.4483938 C7.35686674,19.4950972 7.43281982,19.5710502 7.47952322,19.6647629 L8.8717434,22.4583213 L8.8717434,22.4583213 L11.9751212,22.9048903 C12.238569,22.9427999 12.4214038,23.1870982 12.3834943,23.450546 C12.3682514,23.5564746 12.3181831,23.6543162 12.2411845,23.7286426 L9.99875967,25.893245 L9.99875967,25.893245 L10.5291487,28.955627 C10.5745703,29.217884 10.3987905,29.4673067 10.1365335,29.5127283 C10.0324874,29.5307486 9.92540251,29.5140974 9.83174082,29.4653346 L7.04819277,28.0161446 L7.04819277,28.0161446 Z" id="Star" fill="#FFFFFF"></path>
                            <path d="M6.95122321,39.040241 C8.28569572,39.040241 9.39778086,40.1626169 9.39778086,41.5094111 C9.39778086,42.8562502 8.28571055,43.9786261 6.95122321,43.9786261 C5.61692857,43.9786261 4.50484345,42.8562502 4.50484345,41.5094111 C4.50484345,40.1626318 5.61692857,39.040241 6.95122321,39.040241 L6.95122321,39.040241 L6.95122321,39.040241 Z M2.65142257,49.2825571 C2.61436543,46.7385709 4.11874139,44.5688147 6.98836189,44.5688147 C9.85798239,44.5688147 11.3253012,46.813387 11.3253012,49.2825571 C8.58227153,50.3675325 5.72812967,50.4423486 2.65142257,49.2825571 Z" id="Shape" fill="#FFFFFF" fill-rule="nonzero"></path>
                        </g>
                    </g>
                    <g filter="url(#filter-4)" id="line">
                        <g transform="translate(21.107482, 25.662651)">
                            <path d="M16.3855423,0 C18.4357638,0 20.3288293,0.67286506 21.8559567,1.80981317 C21.3271837,2.20340559 20.8424479,2.65253945 20.4102113,3.14861446 C19.2902439,2.39803737 17.9491292,1.95209054 16.5052998,1.92868105 L16.3855423,1.92771084 C12.4259647,1.92771084 9.20859587,5.10548393 9.14464445,9.04982134 L9.14367424,9.16957887 L9.14367424,13.9629513 C9.14367424,16.0419431 10.022098,17.9747752 11.5340638,19.3397145 L11.5883315,19.3882201 C12.7689059,20.4329895 12.2644691,22.3760091 10.7247658,22.7145539 C4.27464553,24.1327846 1.46235887,28.259446 1.9882763,35.7303342 C2.02310186,36.2250461 2.42705363,36.6108061 2.91949472,36.6260386 L11.1638868,36.627138 C11.5627716,37.756091 12.6387472,38.5542169 13.8904627,38.5542169 L13.8904627,38.5542169 L2.94975236,38.5542169 C1.43158078,38.5542169 0.171933071,37.3801255 0.0653242064,35.8657017 C-0.525357004,27.4748154 2.88980026,22.4635206 10.310796,20.831817 C8.41283137,19.1521811 7.2159634,16.6973379 7.2159634,13.9629513 L7.2159634,9.16957887 C7.2159634,4.1053603 11.3213237,0 16.3855423,0 Z M20.6276383,20.2248643 C20.8258988,20.4368565 21.0341031,20.6394224 21.2515063,20.831817 C21.0103431,20.8848432 20.7734104,20.9414385 20.5407082,21.0016029 C20.5163766,20.756454 20.5398646,20.5061313 20.6132324,20.2654387 Z" id="Combined-Shape" fill="#000000"></path>
                            <path d="M27.3262526,0 C32.3904712,0 36.4958315,4.1053603 36.4958315,9.16957887 L36.4958315,13.9629513 C36.4958315,16.6973379 35.2989635,19.1521811 33.40053,20.8321783 C40.8219945,22.4635205 44.2371518,27.4748154 43.6464707,35.8657015 C43.5409281,37.3649812 42.3052918,38.530701 40.8075092,38.5542169 L40.7620425,38.5542169 L13.8904627,38.5542169 C12.3722911,38.5542169 11.1126434,37.3801255 11.0060346,35.8657017 C10.4153533,27.4748154 13.8305106,22.4635206 21.2515063,20.831817 C19.3535417,19.1521811 18.1566737,16.6973379 18.1566737,13.9629513 L18.1566737,9.16957887 C18.1566737,4.1053603 22.262034,0 27.3262526,0 Z M27.3262526,1.92771084 C23.3666751,1.92771084 20.1493062,5.10548393 20.0853548,9.04982134 L20.0843846,9.16957887 L20.0843846,13.9629513 C20.0843846,16.066693 20.9838476,18.0207743 22.5290419,19.3882201 C23.7096163,20.4329895 23.2051795,22.3760091 21.6654762,22.7145539 C15.2153559,24.1327846 12.4030692,28.259446 12.9289866,35.7303342 C12.9638122,36.2250461 13.367764,36.6108061 13.8602051,36.6260386 L13.8904627,36.626506 L40.7470959,36.626506 L40.7778188,36.626506 L40.8081507,36.6254381 C41.2834314,36.6032065 41.6725778,36.2351115 41.7208995,35.7607544 L41.7235186,35.7303343 C42.2494416,28.2593659 39.4370956,24.1328335 32.9866726,22.7149398 C31.4622817,22.3798573 30.9525701,20.4720579 32.088103,19.420172 L32.1230174,19.3885611 C33.6504271,18.0368971 34.5468663,16.1126567 34.5677476,14.0371404 L34.5681206,13.9629513 L34.5681206,9.16957887 C34.5681206,5.21000133 31.3903476,1.99263247 27.4460101,1.92868105 L27.3262526,1.92771084 Z" id="Combined-Shape-Copy-3" fill="#000000" fill-rule="nonzero"></path>
                        </g>
                    </g>
                </g>
            </g>
        </g>
    </g>
</svg>