<?xml version="1.0" encoding="UTF-8"?>
<svg width="80px" height="80px" viewBox="0 0 80 80" version="1.1" xmlns="http://www.w3.org/2000/svg" xmlns:xlink="http://www.w3.org/1999/xlink">
    <title>EAD5A618-6402-48D0-839D-95471A6BEA06</title>
    <defs>
        <filter color-interpolation-filters="auto" id="filter-1">
            <feColorMatrix in="SourceGraphic" type="matrix" values="0 0 0 0 0.767500 0 0 0 0 0.916000 0 0 0 0 0.932500 0 0 0 1.000000 0"></feColorMatrix>
        </filter>
        <filter color-interpolation-filters="auto" id="filter-2">
            <feColorMatrix in="SourceGraphic" type="matrix" values="0 0 0 0 0.376471 0 0 0 0 0.388235 0 0 0 0 0.560784 0 0 0 1.000000 0"></feColorMatrix>
        </filter>
        <filter color-interpolation-filters="auto" id="filter-3">
            <feColorMatrix in="SourceGraphic" type="matrix" values="0 0 0 0 0.954031 0 0 0 0 0.687302 0 0 0 0 0.601039 0 0 0 1.000000 0"></feColorMatrix>
        </filter>
        <filter color-interpolation-filters="auto" id="filter-4">
            <feColorMatrix in="SourceGraphic" type="matrix" values="0 0 0 0 1.000000 0 0 0 0 1.000000 0 0 0 0 1.000000 0 0 0 1.000000 0"></feColorMatrix>
        </filter>
        <filter color-interpolation-filters="auto" id="filter-5">
            <feColorMatrix in="SourceGraphic" type="matrix" values="0 0 0 0 1.000000 0 0 0 0 1.000000 0 0 0 0 1.000000 0 0 0 1.000000 0"></feColorMatrix>
        </filter>
    </defs>
    <g id="擴充功能" stroke="none" stroke-width="1" fill="none" fill-rule="evenodd">
        <g id="切圖" transform="translate(-327.000000, -295.000000)">
            <g id="ext/會員群組代碼_fin" transform="translate(327.000000, 295.000000)">
                <rect id="Rectangle" stroke="#979797" stroke-width="0.5" fill="#D8D8D8" opacity="0" x="0.25" y="0.25" width="79.5" height="79.5"></rect>
                <g id="Group" transform="translate(7.469880, 4.819277)">
                    <g filter="url(#filter-1)" id="B">
                        <g>
                            <path d="M27.285568,20.7228916 C22.5232869,20.7228916 18.6626954,24.7063045 18.6626954,29.6200935 L18.6626954,29.6200935 L18.6626954,34.2710815 L18.6630612,34.353904 C18.6862151,36.9737866 19.8068003,39.3231484 21.5734495,40.9362622 L21.5734495,40.9362622 L21.4060172,40.9750371 C21.2889702,41.0027077 21.1730015,41.0313169 21.0581112,41.0608649 L21.4060172,40.9750371 C20.9627077,41.079838 20.5348665,41.1981041 20.1224934,41.3298351 C20.0907472,41.3399756 20.0588121,41.3502875 20.0269704,41.3606807 C19.9714427,41.3788054 19.9163272,41.3971336 19.8614941,41.4157077 C19.8079952,41.4338302 19.7548422,41.4521597 19.7019573,41.4707225 C19.6393155,41.4927112 19.5772775,41.514944 19.5156128,41.5375018 C19.4571924,41.558872 19.3989375,41.5805984 19.3410197,41.6026182 C19.3016314,41.6175925 19.2621939,41.6327826 19.2229139,41.6481099 C19.1621962,41.6718027 19.1019529,41.6957834 19.0420848,41.7200908 C18.9975338,41.7381804 18.9535039,41.7563199 18.9096787,41.7746377 C18.8388719,41.8042308 18.7682325,41.8344501 18.6981333,41.8651397 C18.6693807,41.8777286 18.6410426,41.8902523 18.6127934,41.9028533 C18.5417517,41.9345405 18.4709821,41.9668522 18.4007791,41.9996573 C18.366771,42.0155486 18.3328273,42.0315885 18.299017,42.0477446 C18.2412588,42.0753464 18.1842633,42.1031022 18.1276524,42.1311928 C18.0852856,42.1522136 18.0427549,42.1736154 18.0004434,42.1952081 C17.941614,42.2252324 17.8835147,42.2554633 17.8258348,42.2860593 C17.7862626,42.3070493 17.7466788,42.3283249 17.7072944,42.3497743 C17.6594815,42.3758168 17.6124363,42.401849 17.5656794,42.4281322 C17.5136358,42.4573856 17.4617276,42.4870789 17.4101796,42.5170857 C17.3829956,42.5329085 17.3555194,42.5490511 17.3281463,42.5652834 C17.1757522,42.6556649 17.0270778,42.7484839 16.8815761,42.8440649 C16.8482267,42.8659724 16.8150744,42.8880046 16.7820885,42.9101817 L16.6347887,43.0109463 L16.6347887,43.0109463 L16.6159027,43.0241207 C16.362776,43.2010911 16.11979,43.386889 15.8869446,43.5815143 C15.8690776,43.5964473 15.8509473,43.6117061 15.8328788,43.6270187 C15.7712256,43.6792739 15.7106994,43.7317956 15.6508842,43.7849363 C15.5316811,43.8908253 15.4148613,43.9996018 15.3008871,44.1108553 C15.2727292,44.1383402 15.2446311,44.1660901 15.216708,44.1939924 C15.1836914,44.2269795 15.1503983,44.2607154 15.1173578,44.2946712 C15.0807915,44.3322543 15.0448806,44.3697401 15.0092733,44.4074902 C14.9814213,44.4370155 14.9534497,44.4670344 14.9256679,44.4972185 C14.8866685,44.5395866 14.8477641,44.5825944 14.8092394,44.6259326 C14.7656108,44.6750151 14.7226444,44.7243162 14.6801608,44.7740378 C14.6614786,44.7959023 14.6428046,44.8179496 14.6242248,44.840079 C14.5835992,44.8884671 14.5435062,44.9371461 14.5038618,44.9862157 C14.4762014,45.0204532 14.4488442,45.0547731 14.421704,45.089282 C14.3880481,45.1320731 14.3545403,45.175399 14.3213701,45.2190188 C14.2960448,45.2523212 14.2708183,45.285927 14.2457902,45.3197054 C14.2049926,45.3747686 14.1648179,45.4301555 14.1251676,45.485999 C14.1129858,45.5031553 14.1007667,45.5204786 14.0885979,45.5378456 C14.0444928,45.6007921 14.0011033,45.6642292 13.9583718,45.728239 C13.9425911,45.7518784 13.9269632,45.7754997 13.9114243,45.7991985 C13.8731897,45.857507 13.8353171,45.9165667 13.7979885,45.9761 C13.7831881,45.9997067 13.7687313,46.022969 13.7543569,46.0463033 C13.7158898,46.1087397 13.6776982,46.1722278 13.6401077,46.2362391 C13.6277567,46.2572718 13.6155533,46.278218 13.6034139,46.2992199 C13.5659698,46.3639963 13.5289874,46.4295705 13.4926191,46.4956791 C13.4811183,46.5165851 13.4697153,46.5374773 13.4583733,46.5584227 C13.3121111,46.8285085 13.1758752,47.1076963 13.0498034,47.3957319 C12.8915447,47.7573036 12.7492989,48.132828 12.62307,48.5222953 C12.6073567,48.5707692 12.5917085,48.6200474 12.5763145,48.6695469 C12.5575314,48.7299445 12.5391354,48.7906422 12.5211173,48.8516689 C12.5062843,48.9019101 12.4917496,48.952225 12.4774697,49.0027615 C12.4653956,49.0454878 12.4534218,49.0886731 12.4416326,49.1320192 L12.4130607,49.2387575 L12.4130607,49.2387575 C4.95255075,44.5081893 0,36.1758332 0,26.686747 C0,11.9480636 11.9480636,0 26.686747,0 C39.660306,0 50.4716366,9.25759989 52.8751185,21.5271793 L52.853567,21.5174065 C52.7627037,21.4747534 52.6709969,21.4336795 52.5784793,21.394219 L52.8751185,21.5271793 C52.7549078,21.4703678 52.6332037,21.4163193 52.5100838,21.3651136 C52.4158734,21.3262045 52.3212809,21.2888392 52.2259049,21.2531608 C52.2169462,21.2495856 52.2082275,21.2463428 52.1995023,21.243114 C52.1012269,21.2069431 52.0018221,21.172241 51.9016234,21.1393771 C51.8711823,21.1292334 51.8405566,21.1193884 51.8098579,21.1097151 C51.6027673,21.0445748 51.3923514,20.9871093 51.1789477,20.937806 C51.1594785,20.9332443 51.1401373,20.9288506 51.1207718,20.924524 C51.0165297,20.9012835 50.9114766,20.8799077 50.8057572,20.8605195 L50.7884927,20.8573381 L50.7884927,20.8573381 C50.665152,20.8351081 50.5468082,20.8163514 50.4276975,20.8001033 C50.4218461,20.7992904 50.4165189,20.7985695 50.4111901,20.7978536 C50.3007118,20.7830148 50.1890827,20.7702727 50.0768322,20.7597502 C50.0592572,20.7580978 50.0415939,20.7564985 50.0239155,20.7549542 C49.9143662,20.7453882 49.8043307,20.737936 49.6937511,20.7326329 C49.6763175,20.7317958 49.6586488,20.7310035 49.6409663,20.7302662 L49.5408793,20.7266848 L49.5408793,20.7266848 L49.2866365,20.7228916 L49.2866365,20.7228916 C47.4566719,20.7228916 45.7598485,21.3110721 44.3641603,22.3142842 L44.1060387,22.5072079 C42.6636612,21.3869291 40.8695821,20.7228916 38.9251907,20.7228916 L38.9251907,20.7228916 C36.7889451,20.7228916 34.8341379,21.5244362 33.3279717,22.85194 L33.105445,23.0549758 C31.5716371,21.6065898 29.52862,20.7228916 27.285568,20.7228916 Z" id="Combined-Shape" fill="#D8D8D8"></path>
                        </g>
                    </g>
                    <g filter="url(#filter-2)" id="line">
                        <g transform="translate(11.642858, 19.759036)">
                            <path d="M37.7672089,0 C42.8728954,0 46.9963422,4.34005674 47.0783005,9.69837574 L47.0795439,9.86105731 L47.0795439,14.5120454 C47.0795439,16.7622006 46.3631294,18.8933234 45.0895876,20.6064703 L45.0429247,20.6685542 L45.1888765,20.717861 C49.9287288,22.3471545 52.7169375,25.8235947 53.4514103,31.0363535 L53.4753898,31.2127219 C53.5445657,31.7405307 53.1727702,32.2244823 52.6449614,32.2936582 C52.1171527,32.362834 51.633201,31.9910386 51.5640251,31.4632298 C50.8950659,26.3591008 48.1146102,23.295627 43.0777162,22.115675 C42.3296444,21.9404303 42.0772945,21.0031743 42.6362504,20.4760212 C44.2047857,18.9967304 45.1303942,16.878566 45.1514653,14.5918811 L45.151833,9.86105731 C45.151833,5.46635928 41.8314258,1.92771084 37.7672089,1.92771084 C33.7436344,1.92771084 30.4490675,5.3959402 30.3835785,9.72947586 L30.3825849,9.86105731 L30.3825849,14.5120454 C30.3825849,16.8291426 31.3113425,18.9794856 32.8977519,20.4756812 C33.4566743,21.0028195 33.2043613,21.9400265 32.4563342,22.1153105 C27.7605715,23.2156616 25.0343041,25.9501289 24.1393739,30.4349658 C24.0352048,30.9569966 23.5275695,31.2957406 23.0055387,31.1915715 C22.4835078,31.0874025 22.1447639,30.5797672 22.2489329,30.0577363 C23.1894956,25.3442177 25.9581058,22.1902676 30.4540462,20.6806346 L30.4911175,20.6683133 L30.4445874,20.6062534 C29.187364,18.9149287 28.4730993,16.8160067 28.4552181,14.5974335 L28.4548741,14.5120454 L28.4548741,9.86105731 C28.4548741,7.19220394 29.4575676,4.76580306 31.0891943,2.98769108 C29.9820812,2.29811441 28.718763,1.92771084 27.4028024,1.92771084 C23.3802015,1.92771084 20.0863428,5.39590045 20.0208679,9.72947467 L20.0198745,9.86105731 L20.0198745,14.5120454 C20.0198745,16.8291847 20.948455,18.9795544 22.5345402,20.4757483 C23.0933626,21.0028994 22.8410507,21.9399974 22.0930937,22.1153006 C17.3983735,23.215631 14.6726883,25.9500699 13.7779354,30.4349289 C13.6737868,30.9569639 13.1661646,31.2957276 12.6441297,31.1915789 C12.1220948,31.0874302 11.7833311,30.5798081 11.8874798,30.0577732 C12.8278474,25.3442746 15.5959176,22.1903034 20.0910137,20.6806509 L20.1281054,20.6683133 L20.0814634,20.6061889 C18.8244975,18.9148716 18.1103851,16.8159729 18.0925077,14.5974322 L18.0921637,9.86105731 C18.0921637,7.47737462 18.8918835,5.28708705 20.2250825,3.57936071 C18.9462373,2.5159946 17.3738235,1.92771084 15.7164627,1.92771084 C11.6522459,1.92771084 8.33183856,5.46635928 8.33183856,9.86105731 L8.33183856,9.86105731 L8.33183856,14.5120454 L8.33220628,14.5918811 C8.35327741,16.878566 9.27888588,18.9967304 10.8474212,20.4760212 C11.4063771,21.0031743 11.1540272,21.9404303 10.4059554,22.115675 C5.36906136,23.295627 2.58860566,26.3591008 1.91964647,31.4632298 C1.85047061,31.9910386 1.36651894,32.362834 0.838710159,32.2936582 C0.310901383,32.2244823 -0.0608940526,31.7405307 0.0082818106,31.2127219 L0.0082818106,31.2127219 L0.0322613413,31.0363535 C0.766734069,25.8235947 3.55494282,22.3471545 8.29479511,20.717861 L8.29479511,20.717861 L8.44072303,20.6685542 L8.394084,20.6064703 C7.12054221,18.8933234 6.40412771,16.7622006 6.40412771,14.5120454 L6.40412771,14.5120454 L6.40412771,9.86105731 L6.40537108,9.69837574 C6.48732945,4.34005674 10.6107762,0 15.7164627,0 C17.8774021,0 19.9229031,0.782991064 21.5602693,2.18229602 C23.1548122,0.818294498 25.1862179,0 27.4028024,0 C29.2769019,0 31.0675499,0.588632121 32.5842017,1.66638372 C34.0630131,0.614815637 35.8455386,0 37.7672089,0 Z" id="Combined-Shape" fill="#000000" fill-rule="nonzero"></path>
                        </g>
                    </g>
                    <g filter="url(#filter-3)" id="A">
                        <g transform="translate(12.168675, 53.132530)">
                            <path d="M4.81927711,0 L48.9156627,0 C51.5772759,0 53.7349398,2.15766386 53.7349398,4.81927711 L53.7349398,12.8915663 C53.7349398,15.5531795 51.5772759,17.7108434 48.9156627,17.7108434 L4.81927711,17.7108434 C2.15766386,17.7108434 0,15.5531795 0,12.8915663 L0,4.81927711 C0,2.15766386 2.15766386,0 4.81927711,0 Z" id="Rectangle" fill="#919191"></path>
                        </g>
                    </g>
                    <g filter="url(#filter-4)" id="white">
                        <g transform="translate(1.937485, 5.421687)">
                            <path d="M24.809503,1.89759036 C24.2832295,1.89759036 23.8566005,1.47280029 23.8566005,0.948795181 C23.8566005,0.424790072 24.2832295,0 24.809503,0 C25.3357765,0 25.7624055,0.424790072 25.7624055,0.948795181 C25.7624055,1.47280029 25.3357765,1.89759036 24.809503,1.89759036 Z M18.7744537,2.53012048 C18.2481802,2.53012048 17.8215512,2.10533041 17.8215512,1.5813253 C17.8215512,1.05732019 18.2481802,0.63253012 18.7744537,0.63253012 C19.3007272,0.63253012 19.7273562,1.05732019 19.7273562,1.5813253 C19.7273562,2.10533041 19.3007272,2.53012048 18.7744537,2.53012048 L18.7744537,2.53012048 Z M30.8445523,2.53012048 C30.3182787,2.53012048 29.8916498,2.10533041 29.8916498,1.5813253 C29.8916498,1.05732019 30.3182787,0.63253012 30.8445523,0.63253012 C31.3708258,0.63253012 31.7974548,1.05732019 31.7974548,1.5813253 C31.7974548,2.10533041 31.3708258,2.53012048 30.8445523,2.53012048 L30.8445523,2.53012048 Z M27.5589444,5.50174699 L29.9593058,3.20724398 C30.0863595,3.08579819 30.2959981,3.08295181 30.4268633,3.20091867 C30.507566,3.27187889 30.5431027,3.38093793 30.5196125,3.48555723 L29.3310254,8.6625 C29.1356804,9.51262048 28.3273015,10.1204819 27.3915512,10.1204819 L22.2271372,10.1204819 C21.2913869,10.1204819 20.4830079,9.51262048 20.2876629,8.6625 L19.0993935,3.48524096 C19.0612774,3.31951807 19.175308,3.1563253 19.3535008,3.12121988 C19.4646728,3.09908133 19.5802916,3.13165663 19.6597001,3.20724398 L22.0600616,5.50174699 C22.3144866,5.74495482 22.7331284,5.75033133 22.994859,5.51376506 C23.0498097,5.46442771 23.0949137,5.40623494 23.1282653,5.3423494 L24.512515,2.7028012 C24.5922412,2.55036145 24.7901273,2.48679217 24.9540265,2.56111446 C25.0207297,2.59115964 25.0744099,2.64112952 25.1064909,2.7028012 L26.4907407,5.3423494 C26.6505107,5.64754518 27.0462828,5.7740512 27.3743989,5.62572289 C27.4433256,5.59441265 27.5055818,5.55266566 27.5589444,5.50174699 L27.5589444,5.50174699 Z" id="Shape" fill="#FFFFFF" fill-rule="nonzero"></path>
                            <g filter="url(#filter-5)">
                                <g transform="translate(10.379586, 19.646967) scale(-1, 1) rotate(-142.000000) translate(-10.379586, -19.646967) translate(3.564790, 11.510266)">
                                    <path d="M1.61352697,0.0405444911 C2.01464801,0.174510814 2.23532079,0.601622433 2.11685197,1.00403054 L2.10824716,1.03142544 L1.99223489,1.37878857 C0.554201802,5.68453731 2.87894467,10.3407925 7.18469341,11.7788256 C8.45120949,12.2018163 9.79399055,12.3074948 11.0974083,12.097262 L8.36782009,10.0049763 C8.02450323,9.74191677 7.95944179,9.25035161 8.22250129,8.90703476 C8.47944313,8.57170202 8.95438604,8.50183307 9.29625467,8.74389473 L9.32044281,8.76171597 L13.1718893,11.711092 C13.2848893,11.7625948 13.3872487,11.8417951 13.4680495,11.9472476 C13.580069,12.0934433 13.632589,12.2665215 13.6294601,12.43739 C13.6296544,12.4475556 13.6296262,12.4579298 13.6293923,12.4683055 C13.6291291,12.4857586 13.6281559,12.5027794 13.6266326,12.5197092 C13.6250549,12.5366232 13.6229803,12.553724 13.6203361,12.5707702 C13.617699,12.5876122 13.6144403,12.6046785 13.6106257,12.6215943 C13.6074742,12.6360537 13.6039235,12.6500535 13.5999741,12.6639782 C13.5945589,12.6824552 13.5885572,12.7009124 13.5818875,12.7191123 C13.5763886,12.7347222 13.5699362,12.7507248 13.5629226,12.766565 C13.5566393,12.7803088 13.5504119,12.7933833 13.5438279,12.8062785 C13.5358614,12.8221475 13.5269444,12.8381764 13.5174085,12.8539718 C13.5088548,12.8681062 13.4999765,12.8818764 13.4906666,12.8953686 C13.4835188,12.9056222 13.4759315,12.9160419 13.4680495,12.9263285 L13.4549747,12.943108 C13.4426374,12.9583637 13.4297045,12.9731834 13.4161945,12.9875272 L13.3928333,13.0111663 L13.3928333,13.0111663 L13.378228,13.0251637 C13.3632957,13.0389831 13.3477722,13.0522626 13.3316776,13.0649593 C13.32188,13.0726613 13.3123071,13.079863 13.3025998,13.0868223 C13.2924385,13.0940929 13.2817244,13.1013725 13.2707957,13.1084029 C13.2391972,13.1287747 13.2070034,13.1463638 13.1738882,13.1615697 L9.32044281,16.1118601 L9.29625467,16.1296814 C8.95438604,16.371743 8.47944313,16.3018741 8.22250129,15.9665413 C7.95944179,15.6232245 8.02450323,15.1316593 8.36782009,14.8685998 L8.36782009,14.8685998 L9.80505267,13.7683908 C8.7530581,13.7701743 7.70035298,13.6023543 6.68853264,13.2644267 C1.61357129,11.5694921 -1.1498309,6.11933866 0.456613914,1.03653546 L0.506633753,0.882627808 L0.622646021,0.535264677 C0.759657033,0.125027251 1.20328955,-0.0964665208 1.61352697,0.0405444911 Z" id="Combined-Shape" fill="#000000" fill-rule="nonzero"></path>
                                </g>
                            </g>
                            <path d="M25.9111125,61.6390206 L25.9496889,61.6380723 C26.2230833,61.6380723 26.4413579,61.5523293 26.6045126,61.3808434 C26.7676673,61.2093574 26.7963297,60.9374297 26.6904996,60.5650602 L26.6904996,60.5650602 L23.9389172,51.7016867 C23.8948213,51.5448996 23.8000152,51.405261 23.6544988,51.2827711 C23.5089825,51.1602811 23.3127558,51.0990361 23.0658189,51.0990361 C22.8188821,51.0990361 22.6226554,51.1602811 22.4771391,51.2827711 C22.3316227,51.405261 22.2368166,51.5448996 22.1927207,51.7016867 L22.1927207,51.7016867 L19.4675958,60.5356627 C19.3441274,60.9374297 19.3639705,61.2216064 19.5271253,61.3881928 C19.69028,61.5547791 19.9085546,61.6380723 20.181949,61.6380723 C20.4553434,61.6380723 20.662594,61.5670281 20.8037007,61.4249398 C20.9448075,61.2828514 21.0550472,61.0942169 21.1344198,60.8590361 L21.1344198,60.8590361 L21.7164853,59.1686747 L24.4019238,59.1686747 L25.0369044,60.9325301 C25.1074578,61.1285141 25.2088783,61.2975502 25.3411659,61.4396386 C25.4734535,61.5817269 25.6762945,61.6478715 25.9496889,61.6380723 L25.9111125,61.6390206 Z M24.0844336,57.5077108 L22.0472043,57.5077108 L23.0658189,53.8624096 L24.0844336,57.5077108 Z M31.063798,61.6380723 C31.6105868,61.6380723 32.0868222,61.4959839 32.4925042,61.2118072 C32.8981862,60.9276305 33.2333148,60.5454618 33.4978901,60.0653012 C33.7624653,59.5851406 33.9608967,59.0265863 34.0931843,58.3896386 C34.2254719,57.7526908 34.2916157,57.0814458 34.2916157,56.3759036 C34.2916157,55.6703614 34.2342911,54.9991165 34.1196418,54.3621687 C34.0049926,53.7252209 33.8197899,53.1642169 33.5640339,52.6791566 C33.3082778,52.1940964 32.975354,51.8070281 32.5652624,51.5179518 C32.1551708,51.2288755 31.6590922,51.0843373 31.0770267,51.0843373 C30.5037804,51.0843373 30.0121114,51.2288755 29.6020198,51.5179518 C29.1919282,51.8070281 28.8590044,52.1965462 28.6032483,52.686506 C28.3474923,53.1764659 28.1600848,53.7448193 28.041026,54.3915663 C27.9219671,55.0383133 27.8624377,55.7144578 27.8624377,56.42 C27.8624377,57.1255422 27.9263767,57.7943373 28.0542547,58.4263855 C28.1821328,59.0584337 28.3783594,59.6120884 28.6429346,60.0873494 C28.9075099,60.5626104 29.2404337,60.9398795 29.6417061,61.2191566 C30.0429785,61.4984337 30.5170092,61.6380723 31.063798,61.6380723 Z M31.0770267,59.7860241 C30.785994,59.7860241 30.5434667,59.6880321 30.3494448,59.4920482 C30.155423,59.2960643 29.9966779,59.0412851 29.8732094,58.7277108 C29.749741,58.4141365 29.6615493,58.0540161 29.6086342,57.6473494 C29.5557192,57.2406827 29.5292616,56.8315663 29.5292616,56.42 C29.5292616,55.9790361 29.557924,55.5405221 29.6152486,55.1044578 C29.6725732,54.6683936 29.7629698,54.2739759 29.8864382,53.9212048 C30.0099066,53.5684337 30.1686518,53.2818072 30.3626736,53.0613253 C30.5566954,52.8408434 30.7948131,52.7306024 31.0770267,52.7306024 C31.3592403,52.7306024 31.597358,52.8408434 31.7913798,53.0613253 C31.9854017,53.2818072 32.1441468,53.5684337 32.2676152,53.9212048 C32.3910837,54.2739759 32.4792754,54.6683936 32.5321905,55.1044578 C32.5851055,55.5405221 32.611563,55.9692369 32.611563,56.3906024 C32.611563,56.8021687 32.5851055,57.2088353 32.5321905,57.6106024 C32.4792754,58.0123695 32.3932885,58.3749398 32.2742296,58.6983133 C32.1551708,59.0216867 31.9964256,59.2838153 31.7979942,59.4846988 C31.5995628,59.6855823 31.3592403,59.7860241 31.0770267,59.7860241 Z M38.8765743,61.6380723 C39.4233631,61.6380723 39.8995985,61.4959839 40.3052805,61.2118072 C40.7109626,60.9276305 41.0460912,60.5454618 41.3106664,60.0653012 C41.5752416,59.5851406 41.7736731,59.0265863 41.9059607,58.3896386 C42.0382483,57.7526908 42.1043921,57.0814458 42.1043921,56.3759036 C42.1043921,55.6703614 42.0470675,54.9991165 41.9324182,54.3621687 C41.8177689,53.7252209 41.6325663,53.1642169 41.3768102,52.6791566 C41.1210542,52.1940964 40.7881303,51.8070281 40.3780387,51.5179518 C39.9679471,51.2288755 39.4718686,51.0843373 38.8898031,51.0843373 C38.3165567,51.0843373 37.8248878,51.2288755 37.4147962,51.5179518 C37.0047046,51.8070281 36.6717807,52.1965462 36.4160247,52.686506 C36.1602686,53.1764659 35.9728612,53.7448193 35.8538023,54.3915663 C35.7347435,55.0383133 35.6752141,55.7144578 35.6752141,56.42 C35.6752141,57.1255422 35.7391531,57.7943373 35.8670311,58.4263855 C35.9949091,59.0584337 36.1911358,59.6120884 36.455711,60.0873494 C36.7202862,60.5626104 37.05321,60.9398795 37.4544825,61.2191566 C37.8557549,61.4984337 38.3297855,61.6380723 38.8765743,61.6380723 Z M38.8898031,59.7860241 C38.5987703,59.7860241 38.356243,59.6880321 38.1622212,59.4920482 C37.9681994,59.2960643 37.8094542,59.0412851 37.6859858,58.7277108 C37.5625173,58.4141365 37.4743256,58.0540161 37.4214106,57.6473494 C37.3684955,57.2406827 37.342038,56.8315663 37.342038,56.42 C37.342038,55.9790361 37.3707003,55.5405221 37.4280249,55.1044578 C37.4853496,54.6683936 37.5757461,54.2739759 37.6992146,53.9212048 C37.822683,53.5684337 37.9814281,53.2818072 38.17545,53.0613253 C38.3694718,52.8408434 38.6075895,52.7306024 38.8898031,52.7306024 C39.1720167,52.7306024 39.4101344,52.8408434 39.6041562,53.0613253 C39.798178,53.2818072 39.9569232,53.5684337 40.0803916,53.9212048 C40.20386,54.2739759 40.2920518,54.6683936 40.3449668,55.1044578 C40.3978819,55.5405221 40.4243394,55.9692369 40.4243394,56.3906024 C40.4243394,56.8021687 40.3978819,57.2088353 40.3449668,57.6106024 C40.2920518,58.0123695 40.2060648,58.3749398 40.087006,58.6983133 C39.9679471,59.0216867 39.809202,59.2838153 39.6107706,59.4846988 C39.4123392,59.6855823 39.1720167,59.7860241 38.8898031,59.7860241 Z M46.6893507,61.6380723 C47.2361395,61.6380723 47.7123749,61.4959839 48.1180569,61.2118072 C48.5237389,60.9276305 48.8588675,60.5454618 49.1234428,60.0653012 C49.388018,59.5851406 49.5864494,59.0265863 49.718737,58.3896386 C49.8510246,57.7526908 49.9171684,57.0814458 49.9171684,56.3759036 C49.9171684,55.6703614 49.8598438,54.9991165 49.7451945,54.3621687 C49.6305453,53.7252209 49.4453426,53.1642169 49.1895866,52.6791566 C48.9338305,52.1940964 48.6009067,51.8070281 48.1908151,51.5179518 C47.7807235,51.2288755 47.2846449,51.0843373 46.7025794,51.0843373 C46.1293331,51.0843373 45.6376641,51.2288755 45.2275725,51.5179518 C44.8174809,51.8070281 44.4845571,52.1965462 44.2288011,52.686506 C43.973045,53.1764659 43.7856375,53.7448193 43.6665787,54.3915663 C43.5475198,55.0383133 43.4879904,55.7144578 43.4879904,56.42 C43.4879904,57.1255422 43.5519294,57.7943373 43.6798075,58.4263855 C43.8076855,59.0584337 44.0039121,59.6120884 44.2684873,60.0873494 C44.5330626,60.5626104 44.8659864,60.9398795 45.2672588,61.2191566 C45.6685312,61.4984337 46.1425619,61.6380723 46.6893507,61.6380723 Z M46.7025794,59.7860241 C46.4115467,59.7860241 46.1690194,59.6880321 45.9749976,59.4920482 C45.7809757,59.2960643 45.6222306,59.0412851 45.4987621,58.7277108 C45.3752937,58.4141365 45.287102,58.0540161 45.2341869,57.6473494 C45.1812719,57.2406827 45.1548143,56.8315663 45.1548143,56.42 C45.1548143,55.9790361 45.1834767,55.5405221 45.2408013,55.1044578 C45.2981259,54.6683936 45.3885225,54.2739759 45.5119909,53.9212048 C45.6354593,53.5684337 45.7942045,53.2818072 45.9882263,53.0613253 C46.1822481,52.8408434 46.4203659,52.7306024 46.7025794,52.7306024 C46.984793,52.7306024 47.2229107,52.8408434 47.4169325,53.0613253 C47.6109544,53.2818072 47.7696995,53.5684337 47.893168,53.9212048 C48.0166364,54.2739759 48.1048281,54.6683936 48.1577432,55.1044578 C48.2106582,55.5405221 48.2371158,55.9692369 48.2371158,56.3906024 C48.2371158,56.8021687 48.2106582,57.2088353 48.1577432,57.6106024 C48.1048281,58.0123695 48.0188412,58.3749398 47.8997823,58.6983133 C47.7807235,59.0216867 47.6219783,59.2838153 47.4235469,59.4846988 C47.2251155,59.6855823 46.984793,59.7860241 46.7025794,59.7860241 Z M53.4570549,61.6380723 C54.0126629,61.6380723 54.2904668,61.446988 54.2904668,61.0648193 L54.2904668,61.0648193 L54.2904668,52.039759 C54.2904668,51.5302008 53.9862053,51.2754217 53.3776823,51.2754217 L53.3776823,51.2754217 L52.0548062,51.2754217 C51.8784227,51.2754217 51.7483399,51.3440161 51.6645577,51.4812048 C51.5807756,51.6183936 51.5388845,51.8633735 51.5388845,52.2161446 C51.5388845,52.5885141 51.5697516,52.833494 51.6314858,52.9510843 C51.69322,53.0686747 51.8078693,53.1274699 51.9754336,53.1274699 L51.9754336,53.1274699 L52.6236429,53.1274699 L52.6236429,61.0648193 C52.6236429,61.446988 52.9014469,61.6380723 53.4570549,61.6380723 Z" id="A0001" fill="#FFFFFF" fill-rule="nonzero"></path>
                        </g>
                    </g>
                </g>
            </g>
        </g>
    </g>
</svg>