<?xml version="1.0" encoding="UTF-8"?>
<svg width="80px" height="80px" viewBox="0 0 80 80" version="1.1" xmlns="http://www.w3.org/2000/svg" xmlns:xlink="http://www.w3.org/1999/xlink">
    <title>C840ADC2-AD69-401D-BE11-7746211C6CF3</title>
    <defs>
        <filter color-interpolation-filters="auto" id="filter-1">
            <feColorMatrix in="SourceGraphic" type="matrix" values="0 0 0 0 0.767500 0 0 0 0 0.916000 0 0 0 0 0.932500 0 0 0 1.000000 0"></feColorMatrix>
        </filter>
        <filter color-interpolation-filters="auto" id="filter-2">
            <feColorMatrix in="SourceGraphic" type="matrix" values="0 0 0 0 0.954031 0 0 0 0 0.687302 0 0 0 0 0.601039 0 0 0 1.000000 0"></feColorMatrix>
        </filter>
        <filter color-interpolation-filters="auto" id="filter-3">
            <feColorMatrix in="SourceGraphic" type="matrix" values="0 0 0 0 0.376471 0 0 0 0 0.388235 0 0 0 0 0.560784 0 0 0 1.000000 0"></feColorMatrix>
        </filter>
    </defs>
    <g id="擴充功能" stroke="none" stroke-width="1" fill="none" fill-rule="evenodd">
        <g id="切圖" transform="translate(-327.000000, -45.000000)">
            <g id="ext/會員電子報_fin" transform="translate(327.000000, 45.000000)">
                <rect id="Rectangle" stroke="#979797" stroke-width="0.5" fill="#D8D8D8" opacity="0" x="0.25" y="0.25" width="79.5" height="79.5"></rect>
                <g id="Group" transform="translate(8.313253, 7.469880)">
                    <g filter="url(#filter-1)" id="B">
                        <g transform="translate(11.737388, 8.796195)">
                            <path d="M39.6385542,8.6746988 C42.0340061,8.6746988 43.9759036,10.6165963 43.9759036,13.0120482 L43.9759036,40.3614458 C43.9759036,42.7568977 42.0340061,44.6987952 39.6385542,44.6987952 L36.22,44.6986988 L36.2202459,19.6260081 C36.2202459,19.2191482 36.1677248,18.824552 36.0690852,18.4486218 L35.9865582,18.170274 C35.698743,17.1488435 35.0641087,16.2436324 34.1711256,15.6237342 C32.1390125,14.2130656 30.5850437,13.134319 29.5092191,12.3874944 L29.3131052,12.2513545 L0,13.7116988 L0,13.0120482 C0,10.6165963 1.94189747,8.6746988 4.3373494,8.6746988 L39.6385542,8.6746988 Z M48.313253,0 C50.7087049,0 52.6506024,1.94189747 52.6506024,4.3373494 L52.6506024,31.686747 C52.6506024,34.0821989 50.7087049,36.0240964 48.313253,36.0240964 L45.9026988,36.024 L45.9036145,13.0120482 C45.9036145,9.55195096 43.0986514,6.74698795 39.6385542,6.74698795 L8.6746988,6.746 L8.6746988,4.3373494 C8.6746988,1.94189747 10.6165963,0 13.0120482,0 L48.313253,0 Z" id="Combined-Shape" fill="#D8D8D8"></path>
                        </g>
                    </g>
                    <path d="M39.5017036,7.26223369 C39.5402831,7.42319638 39.5621601,7.58764421 39.5670266,7.75296851 L39.5680699,7.82386784 L39.5680699,33.2560854 C39.5680699,34.586892 38.489238,35.6657239 37.1584313,35.6657239 C36.9929098,35.6657239 36.8278922,35.6486693 36.665987,35.6148682 L36.5967972,35.5993577 L35.3810327,35.3079639 C34.6724224,35.1381246 34.100412,34.6650534 33.7893091,34.0463725 C33.5555402,34.1096273 33.301534,34.1148928 33.0467409,34.0476665 L32.9989627,34.0342085 L22.0012478,30.7396778 L22.0015903,40.4815498 C22.0015903,42.5443001 20.3816568,44.2286946 18.3445681,44.3319549 L18.1461687,44.3369715 L15.5385536,44.3369715 C13.409263,44.3369715 11.6831319,42.6108404 11.6831319,40.4815581 L11.6831319,40.4815581 L11.6830551,28.1235574 L11.6150094,28.0911165 C9.30607985,26.9692858 7.78608599,24.6269768 7.75183883,22.0054613 L7.75183883,22.0054613 L7.75124783,19.3229458 C7.75124783,16.3024749 9.72476617,13.6365915 12.6136284,12.7547072 L12.6136284,12.7547072 L20.1336831,10.4590565 C20.5581405,10.3294822 20.9846382,10.4041723 21.3227169,10.616161 C21.433731,10.5396945 21.5574354,10.4778771 21.6907296,10.4342494 L21.7258099,10.4232554 L32.9989627,7.04574469 C33.2697042,6.96462874 33.5409296,6.96637243 33.7892882,7.03359552 C34.0933438,6.42895876 34.6465585,5.96340653 35.3329316,5.78403722 L35.3810327,5.77198926 L36.5967972,5.48059554 C37.8909507,5.17041357 39.1915216,5.96808013 39.5017036,7.26223369 Z" id="Combined-Shape" fill="#FFFFFF" transform="translate(23.659659, 24.875325) rotate(-31.000000) translate(-23.659659, -24.875325) "></path>
                    <g filter="url(#filter-2)" id="A">
                        <g transform="translate(7.628623, 2.343136)">
                            <path d="M6.65777702,12.9589167 L20.3639435,35.7674612 C17.5860499,35.1196691 14.6673583,35.2588271 11.9499569,36.1849354 L8.16500289,29.8875947 L8.07057288,29.9111724 C5.75706584,30.4890289 3.33759203,29.4874466 2.10944133,27.4434606 L0.774457954,25.2216751 C-0.453692747,23.1776891 -0.202163316,20.5712061 1.39417949,18.7997879 L6.65777702,12.9589167 Z M21.3780846,30.0207258 C22.2284547,31.4359792 22.108496,32.6570488 21.0182087,33.6839346 L20.9806639,33.7188669 L17.9262422,28.6354554 C19.3674372,28.1276332 20.5180513,28.58939 21.3780846,30.0207258 Z M15.9224515,3.41258887 L28.3959247,24.1719345 L16.9934002,27.0829456 L7.99902016,12.1137835 L15.9224515,3.41258887 Z M19.5073184,0.288540121 L19.5818149,0.373910628 L19.5818149,0.373910628 L19.6457784,0.467433432 L32.7443387,22.2670987 L32.7594079,22.2930684 C32.9888319,22.7027752 32.8871449,23.2129179 32.5336474,23.5054386 L32.4400729,23.5738509 L32.4145756,23.5897063 L32.3751479,23.6121512 L32.2934253,23.6513206 L32.2934253,23.6513206 L32.2083374,23.6826567 L31.016145,24.0590485 L30.9864308,24.0679119 C30.6075814,24.17437 30.2048227,24.0390432 29.9662378,23.733149 L29.8997756,23.636335 L17.101373,2.33621606 L17.085828,2.30938615 C16.8959186,1.96922005 16.9309942,1.55103257 17.1663915,1.24840046 L17.2522428,1.15206845 L18.1442775,0.276130306 L18.1792934,0.243387 L18.2527946,0.184103639 L18.2527946,0.184103639 L18.3303973,0.133070838 L18.3554148,0.11885276 C18.7245114,-0.084156971 19.1976858,-0.026782336 19.5073184,0.288540121 Z" id="Combined-Shape" fill="#FFFFFF" fill-rule="nonzero"></path>
                        </g>
                    </g>
                    <g filter="url(#filter-3)" id="line">
                        <g transform="translate(0.171123, 20.083608)">
                            <path d="M0,8.13733983 C0,6.32681459 0.876729766,4.6298168 2.35004563,3.58170014 L4.70393822,1.94720292 C5.14122458,1.64364396 5.74179838,1.75205143 6.04535734,2.18933779 C6.34891631,2.62662415 6.24050883,3.22719795 5.80322247,3.53075691 L3.50220147,5.12809818 C2.73836747,5.65834261 2.21329901,6.45222042 2.01529922,7.34091596 C2.23101262,7.41096522 2.43605989,7.51009242 2.62608564,7.63561471 L19.1342718,18.5404676 C22.4926984,17.3243182 26.1794915,17.3225901 29.5388514,18.5352831 L46.0397171,7.63561471 C46.2392293,7.50382609 46.4553003,7.40113375 46.6812713,7.32947179 C46.6756064,7.30664755 46.6686464,7.28318509 46.6614503,7.25979729 L46.63124,7.16517569 L46.6250944,7.14427331 C46.3951628,6.3282668 45.8886277,5.61464007 45.1877486,5.12809818 L40.3297282,1.75571848 C39.8924418,1.45215952 39.7840343,0.851585725 40.0875933,0.414299365 C40.3911523,-0.0229869943 40.9917261,-0.131394469 41.4290124,0.172164494 L46.2870328,3.54454419 C47.336763,4.27325432 48.1009256,5.33594434 48.4606246,6.55242808 L48.4750602,6.60249571 L48.4964814,6.66891523 C48.6548005,7.17530908 48.7405316,7.70424814 48.7495686,8.24335546 L48.7503664,8.33859508 L48.7503664,34.5670183 C48.7503664,34.8569576 48.7282934,35.1417416 48.6857359,35.4197826 L48.6874627,35.3452916 C48.6874627,37.9902126 46.5433306,40.1343446 43.8984097,40.1343446 L43.6776315,40.1345356 C43.5366321,40.147529 43.3941168,40.1552895 43.2502817,40.157621 L43.1578001,40.1583701 L5.59256632,40.1583701 C5.41980263,40.1583701 5.24886833,40.1505379 5.08009929,40.1352094 L4.78905301,40.1343446 C2.14413207,40.1343446 0,37.9902126 0,35.3452916 L0,8.13733983 Z M17.1624499,21.6464321 L17.0287321,21.7326772 L3.23765565,30.743525 C2.43495207,31.2679975 1.94540889,32.1555094 1.92818117,33.1119557 L1.92771084,33.1641921 L1.92771084,34.5670183 C1.92771084,36.4480121 3.34575865,37.9979993 5.1715609,38.2067484 L43.5718737,38.2075343 C45.1760486,38.0272094 46.4667931,36.8116814 46.7600276,35.2449879 L46.7597518,33.1641921 C46.7597518,32.2053363 46.2845427,31.3100675 45.4932793,30.7724909 L45.449807,30.743525 L31.6587306,21.7326772 C27.2587969,18.8578376 21.5878048,18.8290892 17.1624499,21.6464321 Z M46.822,9.429 L31.621826,19.4685769 C31.9922212,19.6689924 32.3563359,19.8857665 32.7131449,20.1188992 L46.5042213,29.129747 C46.6141877,29.2015971 46.7206277,29.2775352 46.8233939,29.3572891 L46.822,9.429 Z M1.927,9.484 L1.92616819,29.3098968 C2.00955208,29.2473234 2.09526828,29.187227 2.18324135,29.129747 L15.9743178,20.1188992 C16.3274122,19.8881935 16.6876609,19.6735077 17.0540705,19.4748416 L1.927,9.484 Z" id="Combined-Shape" fill="#000000" fill-rule="nonzero"></path>
                        </g>
                    </g>
                </g>
            </g>
        </g>
    </g>
</svg>