<svg width="90" height="90" viewBox="0 0 90 90" fill="none" xmlns="http://www.w3.org/2000/svg">
<path fill-rule="evenodd" clip-rule="evenodd" d="M12 39.9546C12.6778 39.9546 13.2273 40.5041 13.2273 41.1819V41.4366C13.2273 42.1145 12.6778 42.6639 12 42.6639C11.3222 42.6639 10.7727 42.1145 10.7727 41.4366V41.1819C10.7727 40.5041 11.3222 39.9546 12 39.9546ZM12 44.5407C12.6778 44.5407 13.2273 45.0902 13.2273 45.768V46.2776C13.2273 46.9554 12.6778 47.5048 12 47.5048C11.3222 47.5048 10.7727 46.9554 10.7727 46.2776V45.768C10.7727 45.0902 11.3222 44.5407 12 44.5407ZM12 49.3816C12.6778 49.3816 13.2273 49.9311 13.2273 50.6089V51.1185C13.2273 51.7963 12.6778 52.3457 12 52.3457C11.3222 52.3457 10.7727 51.7963 10.7727 51.1185V50.6089C10.7727 49.9311 11.3222 49.3816 12 49.3816ZM12 54.2225C12.6778 54.2225 13.2273 54.772 13.2273 55.4498V55.9594C13.2273 56.6372 12.6778 57.1866 12 57.1866C11.3222 57.1866 10.7727 56.6372 10.7727 55.9594V55.4498C10.7727 54.772 11.3222 54.2225 12 54.2225ZM12 59.0634C12.6778 59.0634 13.2273 59.6129 13.2273 60.2907V60.5455C13.2273 60.6302 13.2284 60.7145 13.2307 60.7986C13.2491 61.4761 12.7147 62.0403 12.0371 62.0587C11.3596 62.077 10.7954 61.5427 10.777 60.8651C10.7742 60.7589 10.7727 60.6524 10.7727 60.5455V60.2907C10.7727 59.6129 11.3222 59.0634 12 59.0634ZM12.6622 64.4C13.258 64.0769 14.003 64.298 14.3261 64.8938C14.4062 65.0415 14.4903 65.1869 14.5782 65.3296C14.9337 65.9067 14.7541 66.6627 14.177 67.0182C13.5999 67.3737 12.8439 67.1941 12.4884 66.617C12.3768 66.4359 12.2701 66.2514 12.1684 66.0639C11.8453 65.4681 12.0664 64.7231 12.6622 64.4ZM15.8909 68.7321C16.2464 68.155 17.0024 67.9754 17.5795 68.3309C17.7222 68.4188 17.8676 68.5029 18.0153 68.583C18.6112 68.9061 18.8322 69.6511 18.5091 70.2469C18.186 70.8428 17.4411 71.0638 16.8452 70.7407C16.6577 70.639 16.4732 70.5323 16.2922 70.4207C15.7151 70.0652 15.5354 69.3092 15.8909 68.7321ZM20.8504 70.872C20.8688 70.1944 21.433 69.66 22.1105 69.6784C22.1946 69.6807 22.279 69.6819 22.3636 69.6819H22.6162C23.294 69.6819 23.8435 70.2313 23.8435 70.9091C23.8435 71.5869 23.294 72.1364 22.6162 72.1364H22.3636C22.2568 72.1364 22.1502 72.135 22.044 72.1321C21.3664 72.1137 20.8321 71.5495 20.8504 70.872ZM25.6837 70.9091C25.6837 70.2313 26.2332 69.6819 26.911 69.6819H27.4162C28.094 69.6819 28.6435 70.2313 28.6435 70.9091C28.6435 71.5869 28.094 72.1364 27.4162 72.1364H26.911C26.2332 72.1364 25.6837 71.5869 25.6837 70.9091ZM30.4837 70.9091C30.4837 70.2313 31.0332 69.6819 31.711 69.6819H32.2162C32.894 69.6819 33.4435 70.2313 33.4435 70.9091C33.4435 71.5869 32.894 72.1364 32.2162 72.1364H31.711C31.0332 72.1364 30.4837 71.5869 30.4837 70.9091ZM35.2837 70.9091C35.2837 70.2313 35.8332 69.6819 36.511 69.6819H37.0162C37.694 69.6819 38.2435 70.2313 38.2435 70.9091C38.2435 71.5869 37.694 72.1364 37.0162 72.1364H36.511C35.8332 72.1364 35.2837 71.5869 35.2837 70.9091ZM40.0837 70.9091C40.0837 70.2313 40.6332 69.6819 41.311 69.6819H41.8162C42.494 69.6819 43.0435 70.2313 43.0435 70.9091C43.0435 71.5869 42.494 72.1364 41.8162 72.1364H41.311C40.6332 72.1364 40.0837 71.5869 40.0837 70.9091ZM44.8837 70.9091C44.8837 70.2313 45.4332 69.6819 46.111 69.6819H46.3636C47.0414 69.6819 47.5909 70.2313 47.5909 70.9091C47.5909 71.5869 47.0414 72.1364 46.3636 72.1364H46.111C45.4332 72.1364 44.8837 71.5869 44.8837 70.9091Z" fill="#60638F"/>
<path fill-rule="evenodd" clip-rule="evenodd" d="M78 50.0454C77.3222 50.0454 76.7727 49.4959 76.7727 48.8181L76.7727 48.5634C76.7727 47.8855 77.3222 47.3361 78 47.3361C78.6778 47.3361 79.2273 47.8855 79.2273 48.5634L79.2273 48.8181C79.2273 49.4959 78.6778 50.0454 78 50.0454ZM78 45.4593C77.3222 45.4593 76.7727 44.9098 76.7727 44.232L76.7727 43.7224C76.7727 43.0446 77.3222 42.4952 78 42.4952C78.6778 42.4952 79.2273 43.0446 79.2273 43.7224L79.2273 44.232C79.2273 44.9098 78.6778 45.4593 78 45.4593ZM78 40.6184C77.3222 40.6184 76.7727 40.0689 76.7727 39.3911L76.7727 38.8815C76.7727 38.2037 77.3222 37.6543 78 37.6543C78.6778 37.6543 79.2273 38.2037 79.2273 38.8815L79.2273 39.3911C79.2273 40.0689 78.6778 40.6184 78 40.6184ZM78 35.7775C77.3222 35.7775 76.7727 35.228 76.7727 34.5502L76.7727 34.0406C76.7727 33.3628 77.3222 32.8134 78 32.8134C78.6778 32.8134 79.2273 33.3628 79.2273 34.0406L79.2273 34.5502C79.2273 35.228 78.6778 35.7775 78 35.7775ZM78 30.9366C77.3222 30.9366 76.7727 30.3871 76.7727 29.7093L76.7727 29.4545C76.7727 29.3698 76.7716 29.2855 76.7693 29.2014C76.7509 28.5239 77.2853 27.9597 77.9629 27.9413C78.6404 27.923 79.2046 28.4573 79.223 29.1349C79.2258 29.2411 79.2273 29.3476 79.2273 29.4545L79.2273 29.7093C79.2273 30.3871 78.6778 30.9366 78 30.9366ZM77.3378 25.6C76.742 25.9231 75.997 25.702 75.6739 25.1062C75.5938 24.9585 75.5097 24.8131 75.4217 24.6704C75.0663 24.0933 75.2459 23.3373 75.823 22.9818C76.4001 22.6263 77.1561 22.8059 77.5116 23.383C77.6232 23.5641 77.7299 23.7486 77.8316 23.9361C78.1547 24.5319 77.9336 25.2769 77.3378 25.6ZM74.1091 21.2679C73.7536 21.845 72.9976 22.0246 72.4205 21.6691C72.2778 21.5812 72.1324 21.4971 71.9847 21.417C71.3888 21.0939 71.1678 20.3489 71.4909 19.7531C71.814 19.1572 72.5589 18.9362 73.1548 19.2593C73.3423 19.361 73.5268 19.4677 73.7078 19.5793C74.2849 19.9348 74.4646 20.6908 74.1091 21.2679ZM69.1496 19.128C69.1312 19.8056 68.567 20.34 67.8895 20.3216C67.8054 20.3193 67.721 20.3181 67.6364 20.3181L67.3838 20.3181C66.7059 20.3181 66.1565 19.7687 66.1565 19.0909C66.1565 18.4131 66.7059 17.8636 67.3838 17.8636L67.6364 17.8636C67.7432 17.8636 67.8498 17.865 67.956 17.8679C68.6336 17.8863 69.1679 18.4505 69.1496 19.128ZM64.3163 19.0909C64.3163 19.7687 63.7668 20.3181 63.089 20.3181L62.5838 20.3181C61.9059 20.3181 61.3565 19.7687 61.3565 19.0909C61.3565 18.4131 61.9059 17.8636 62.5838 17.8636L63.089 17.8636C63.7668 17.8636 64.3163 18.4131 64.3163 19.0909ZM59.5163 19.0909C59.5163 19.7687 58.9668 20.3181 58.289 20.3181L57.7838 20.3181C57.1059 20.3181 56.5565 19.7687 56.5565 19.0909C56.5565 18.4131 57.1059 17.8636 57.7838 17.8636L58.289 17.8636C58.9668 17.8636 59.5163 18.4131 59.5163 19.0909ZM54.7163 19.0909C54.7163 19.7687 54.1668 20.3181 53.489 20.3181L52.9838 20.3181C52.306 20.3181 51.7565 19.7687 51.7565 19.0909C51.7565 18.4131 52.306 17.8636 52.9838 17.8636L53.489 17.8636C54.1668 17.8636 54.7163 18.4131 54.7163 19.0909ZM49.9163 19.0909C49.9163 19.7687 49.3668 20.3181 48.689 20.3181L48.1838 20.3181C47.506 20.3181 46.9565 19.7687 46.9565 19.0909C46.9565 18.4131 47.506 17.8636 48.1838 17.8636L48.689 17.8636C49.3668 17.8636 49.9163 18.4131 49.9163 19.0909ZM45.1163 19.0909C45.1163 19.7687 44.5668 20.3181 43.889 20.3181L43.6364 20.3181C42.9586 20.3181 42.4091 19.7687 42.4091 19.0909C42.4091 18.4131 42.9586 17.8636 43.6364 17.8636L43.889 17.8636C44.5668 17.8636 45.1163 18.4131 45.1163 19.0909Z" fill="#60638F"/>
<path d="M84.8181 73.091V58.9092C84.8181 56.9511 83.2307 55.3638 81.2726 55.3638H67.0908H52.909C50.9509 55.3638 49.3635 56.9511 49.3635 58.9092V66.0001V73.091C49.3635 75.0491 50.9509 76.6365 52.909 76.6365H81.2726C83.2307 76.6365 84.8181 75.0491 84.8181 73.091Z" fill="white"/>
<path fill-rule="evenodd" clip-rule="evenodd" d="M54.5454 62.182C54.5454 61.7301 54.9117 61.3638 55.3636 61.3638H68.7272C69.1791 61.3638 69.5454 61.7301 69.5454 62.182C69.5454 62.6338 69.1791 63.0001 68.7272 63.0001H55.3636C54.9117 63.0001 54.5454 62.6338 54.5454 62.182Z" fill="#D1E7FF"/>
<path fill-rule="evenodd" clip-rule="evenodd" d="M54.5454 66.2728C54.5454 65.8209 54.9117 65.4546 55.3636 65.4546H78.8181C79.27 65.4546 79.6363 65.8209 79.6363 66.2728C79.6363 66.7246 79.27 67.091 78.8181 67.091H55.3636C54.9117 67.091 54.5454 66.7246 54.5454 66.2728Z" fill="#D1E7FF"/>
<path fill-rule="evenodd" clip-rule="evenodd" d="M54.5454 70.3636C54.5454 69.9117 54.9117 69.5454 55.3636 69.5454H78.8181C79.27 69.5454 79.6363 69.9117 79.6363 70.3636C79.6363 70.8155 79.27 71.1818 78.8181 71.1818H55.3636C54.9117 71.1818 54.5454 70.8155 54.5454 70.3636Z" fill="#D1E7FF"/>
<path d="M5.18188 16.9092C5.18188 14.9511 6.76924 13.3638 8.72734 13.3638H37.091C39.0491 13.3638 40.6364 14.9511 40.6364 16.9092V31.091C40.6364 33.0491 39.0491 34.6365 37.091 34.6365H8.72734C6.76924 34.6365 5.18188 33.0491 5.18188 31.091V16.9092Z" fill="#D1E7FF"/>
<path fill-rule="evenodd" clip-rule="evenodd" d="M10.3638 19.3636C10.3638 18.9117 10.7301 18.5454 11.182 18.5454H24.5456C24.9975 18.5454 25.3638 18.9117 25.3638 19.3636C25.3638 19.8155 24.9975 20.1818 24.5456 20.1818H11.182C10.7301 20.1818 10.3638 19.8155 10.3638 19.3636Z" fill="white"/>
<path fill-rule="evenodd" clip-rule="evenodd" d="M10.3638 23.4544C10.3638 23.0025 10.7301 22.6362 11.182 22.6362H34.6365C35.0884 22.6362 35.4547 23.0025 35.4547 23.4544C35.4547 23.9063 35.0884 24.2726 34.6365 24.2726H11.182C10.7301 24.2726 10.3638 23.9063 10.3638 23.4544Z" fill="white"/>
<path fill-rule="evenodd" clip-rule="evenodd" d="M10.3638 27.5452C10.3638 27.0934 10.7301 26.7271 11.182 26.7271H34.6365C35.0884 26.7271 35.4547 27.0934 35.4547 27.5452C35.4547 27.9971 35.0884 28.3634 34.6365 28.3634H11.182C10.7301 28.3634 10.3638 27.9971 10.3638 27.5452Z" fill="white"/>
<path fill-rule="evenodd" clip-rule="evenodd" d="M48.4509 26.7274C48.4509 25.9743 47.8404 25.3638 47.0873 25.3638H43.0214C42.2683 25.3638 41.6578 25.9743 41.6578 26.7274V27.9655C41.6578 28.6112 41.203 29.1624 40.5815 29.3374C39.3542 29.6829 38.1858 30.1687 37.0946 30.7765C36.5321 31.0898 35.8232 31.0207 35.3679 30.5653L34.4738 29.6713C33.9413 29.1388 33.0779 29.1388 32.5454 29.6713L29.6704 32.5463C29.1378 33.0788 29.1378 33.9422 29.6704 34.4748L30.5646 35.369C31.0199 35.8243 31.0891 36.5332 30.7758 37.0957C30.1531 38.2139 29.6584 39.4131 29.3116 40.6736C29.1394 41.2992 28.5864 41.7585 27.9375 41.7585H26.7274C25.9743 41.7585 25.3638 42.369 25.3638 43.1221V47.188C25.3638 47.9411 25.9743 48.5516 26.7274 48.5516H28.0253C28.6642 48.5516 29.2115 48.9972 29.3922 49.6101C29.7336 50.7677 30.2003 51.8716 30.7765 52.9062C31.0899 53.4687 31.0207 54.1776 30.5653 54.633L29.6715 55.5268C29.139 56.0593 29.139 56.9227 29.6715 57.4553L32.5465 60.3302C33.079 60.8628 33.9424 60.8628 34.475 60.3302L35.3692 59.436C35.8245 58.9808 36.5333 58.9115 37.0958 59.2248C38.1867 59.8323 39.3547 60.3179 40.5815 60.6633C41.203 60.8383 41.6578 61.3894 41.6578 62.0351V63.2729C41.6578 64.026 42.2683 64.6365 43.0214 64.6365H47.0873C47.8404 64.6365 48.4509 64.026 48.4509 63.2729V62.0044C48.4509 61.3622 48.9009 60.813 49.518 60.635C50.7086 60.2916 51.8432 59.8158 52.9047 59.2246C53.4673 58.9113 54.1761 58.9805 54.6314 59.4358L55.5119 60.3163C56.0444 60.8489 56.9079 60.8489 57.4404 60.3163L60.3154 57.4413C60.8479 56.9088 60.8479 56.0454 60.3154 55.5129L59.4351 54.6326C58.9798 54.1773 58.9106 53.4684 59.2239 52.9058C59.8001 51.8714 60.2667 50.7676 60.608 49.6101C60.7887 48.9972 61.336 48.5516 61.975 48.5516H63.2729C64.026 48.5516 64.6365 47.9411 64.6365 47.188V43.1221C64.6365 42.369 64.026 41.7585 63.2729 41.7585H62.0628C61.4138 41.7585 60.8608 41.2992 60.6886 40.6736C60.3418 39.4132 59.8472 38.2141 59.2246 37.096C58.9113 36.5335 58.9806 35.8247 59.4358 35.3694L60.3165 34.4887C60.8491 33.9562 60.8491 33.0928 60.3165 32.5602L57.4415 29.6852C56.909 29.1527 56.0456 29.1527 55.5131 29.6852L54.6328 30.5655C54.1774 31.0209 53.4685 31.0901 52.906 30.7767C51.8441 30.1852 50.7091 29.7092 49.518 29.3656C48.9009 29.1877 48.4509 28.6385 48.4509 27.9963V26.7274ZM45.0001 56.2206C51.1972 56.2206 56.2209 51.1969 56.2209 44.9998C56.2209 38.8027 51.1972 33.779 45.0001 33.779C38.8031 33.779 33.7794 38.8027 33.7794 44.9998C33.7794 51.1969 38.8031 56.2206 45.0001 56.2206Z" fill="#F3AF99"/>
<path fill-rule="evenodd" clip-rule="evenodd" d="M43.0213 23.4546H47.0872C48.8947 23.4546 50.3599 24.9198 50.3599 26.7273V27.6246C51.4716 27.9672 52.5377 28.4133 53.5466 28.9517L54.163 28.3352C55.4411 27.0571 57.5133 27.0571 58.7914 28.3352L61.6664 31.2102C62.9444 32.4883 62.9444 34.5605 61.6664 35.8386L61.0495 36.4554C61.6211 37.5269 62.0887 38.6627 62.4387 39.8493H63.2728C65.0803 39.8493 66.5455 41.3146 66.5455 43.122V47.1879C66.5455 48.9954 65.0803 50.4606 63.2728 50.4606H62.3444C62.0061 51.536 61.5708 52.568 61.0488 53.5464L61.6652 54.1628C62.9433 55.4409 62.9433 57.5131 61.6652 58.7912L58.7902 61.6662C57.5121 62.9442 55.44 62.9442 54.1619 61.6662L53.5453 61.0495C52.5367 61.5875 51.4712 62.0335 50.3599 62.3759V63.2728C50.3599 65.0802 48.8947 66.5455 47.0872 66.5455H43.0213C41.2139 66.5455 39.7486 65.0803 39.7486 63.2728V62.4089C38.5984 62.0624 37.4964 61.6051 36.4552 61.0497L35.8248 61.6801C34.5467 62.9582 32.4746 62.9582 31.1965 61.6801L28.3215 58.8051C27.0434 57.527 27.0434 55.4548 28.3215 54.1768L28.9514 53.5468C28.4294 52.5683 27.994 51.5361 27.6557 50.4606H26.7273C24.9198 50.4606 23.4546 48.9954 23.4546 47.1879V43.122C23.4546 41.3146 24.9198 39.8493 26.7273 39.8493H27.5614C27.9114 38.6626 28.3791 37.5266 28.9507 36.455L28.3204 35.8246C27.0423 34.5465 27.0423 32.4744 28.3204 31.1963L31.1953 28.3213C32.4734 27.0432 34.5456 27.0432 35.8237 28.3213L36.4538 28.9514C37.4954 28.3957 38.5979 27.9382 39.7486 27.5915V26.7273C39.7486 24.9198 41.2139 23.4546 43.0213 23.4546ZM45.0001 54.3114C50.1428 54.3114 54.3117 50.1424 54.3117 44.9997C54.3117 39.857 50.1428 35.688 45.0001 35.688C39.8573 35.688 35.6884 39.857 35.6884 44.9997C35.6884 50.1424 39.8573 54.3114 45.0001 54.3114ZM47.0872 25.3637C47.8403 25.3637 48.4508 25.9742 48.4508 26.7273V27.9962C48.4508 28.6384 48.9008 29.1876 49.5179 29.3655C50.709 29.7091 51.844 30.1851 52.9059 30.7766C53.4684 31.09 54.1773 31.0208 54.6327 30.5655L55.513 29.6852C56.0455 29.1526 56.9089 29.1526 57.4414 29.6852L60.3164 32.5601C60.849 33.0927 60.849 33.9561 60.3164 34.4886L59.4358 35.3693C58.9805 35.8246 58.9112 36.5334 59.2245 37.096C59.8471 38.214 60.3417 39.4131 60.6886 40.6735C60.8607 41.2992 61.4137 41.7584 62.0627 41.7584H63.2728C64.0259 41.7584 64.6364 42.3689 64.6364 43.122V47.1879C64.6364 47.941 64.0259 48.5515 63.2728 48.5515H61.9749C61.3359 48.5515 60.7886 48.9971 60.6079 49.61C60.2666 50.7675 59.8 51.8713 59.2238 52.9057C58.9105 53.4683 58.9797 54.1772 59.435 54.6325L60.3153 55.5128C60.8478 56.0453 60.8478 56.9087 60.3153 57.4412L57.4403 60.3162C56.9078 60.8488 56.0444 60.8488 55.5118 60.3162L54.6313 59.4357C54.176 58.9805 53.4672 58.9112 52.9047 59.2245C51.8431 59.8157 50.7086 60.2915 49.5179 60.6349C48.9008 60.8129 48.4508 61.3621 48.4508 62.0043V63.2728C48.4508 64.0259 47.8403 64.6364 47.0872 64.6364H43.0213C42.2682 64.6364 41.6577 64.0259 41.6577 63.2728V62.035C41.6577 61.3894 41.2029 60.8382 40.5814 60.6632C39.3546 60.3178 38.1866 59.8322 37.0958 59.2247C36.5332 58.9115 35.8244 58.9807 35.3691 59.436L34.4749 60.3302C33.9424 60.8627 33.079 60.8627 32.5464 60.3302L29.6714 57.4552C29.1389 56.9226 29.1389 56.0592 29.6714 55.5267L30.5653 54.6329C31.0206 54.1775 31.0898 53.4686 30.7764 52.9061C30.2002 51.8715 29.7335 50.7676 29.3922 49.61C29.2114 48.9971 28.6641 48.5515 28.0252 48.5515H26.7273C25.9742 48.5515 25.3637 47.941 25.3637 47.1879V43.122C25.3637 42.3689 25.9742 41.7584 26.7273 41.7584H27.9374C28.5863 41.7584 29.1393 41.2991 29.3115 40.6735C29.6583 39.413 30.153 38.2138 30.7757 37.0956C31.089 36.5331 31.0198 35.8242 30.5645 35.3689L29.6703 34.4747C29.1377 33.9422 29.1377 33.0788 29.6703 32.5462L32.5453 29.6712C33.0778 29.1387 33.9412 29.1387 34.4737 29.6712L35.3678 30.5652C35.8231 31.0206 36.532 31.0898 37.0945 30.7764C38.1857 30.1686 39.3542 29.6828 40.5814 29.3373C41.2029 29.1623 41.6577 28.6111 41.6577 27.9654V26.7273C41.6577 25.9742 42.2682 25.3637 43.0213 25.3637H47.0872ZM56.2208 44.9997C56.2208 51.1968 51.1971 56.2205 45.0001 56.2205C38.803 56.2205 33.7793 51.1968 33.7793 44.9997C33.7793 38.8026 38.803 33.7789 45.0001 33.7789C51.1971 33.7789 56.2208 38.8026 56.2208 44.9997Z" fill="white"/>
<path d="M56.5014 44.9998C56.5014 51.3518 51.3521 56.5011 45.0001 56.5011C38.6481 56.5011 33.4988 51.3518 33.4988 44.9998C33.4988 38.6478 38.6481 33.4985 45.0001 33.4985C51.3521 33.4985 56.5014 38.6478 56.5014 44.9998Z" fill="white"/>
<path fill-rule="evenodd" clip-rule="evenodd" d="M40.2489 41.0551C39.9294 40.7355 39.4113 40.7355 39.0918 41.0551L35.7256 44.4213C35.406 44.7408 35.406 45.2589 35.7256 45.5784L39.0918 48.9446C39.4113 49.2641 39.9294 49.2641 40.2489 48.9446C40.5684 48.6251 40.5684 48.1071 40.2489 47.7875L37.4612 44.9998L40.2489 42.2122C40.5684 41.8926 40.5684 41.3746 40.2489 41.0551Z" fill="#60638F"/>
<path fill-rule="evenodd" clip-rule="evenodd" d="M49.7516 41.0551C50.0711 40.7355 50.5892 40.7355 50.9087 41.0551L54.2749 44.4213C54.5944 44.7408 54.5944 45.2589 54.2749 45.5784L50.9087 48.9446C50.5892 49.2641 50.0711 49.2641 49.7516 48.9446C49.4321 48.6251 49.4321 48.1071 49.7516 47.7875L52.5393 44.9998L49.7516 42.2122C49.4321 41.8926 49.4321 41.3746 49.7516 41.0551Z" fill="#60638F"/>
<path fill-rule="evenodd" clip-rule="evenodd" d="M47.5481 38.6295C47.9676 38.7974 48.1717 39.2735 48.0039 39.6931L43.5156 50.9138C43.3477 51.3334 42.8716 51.5375 42.452 51.3696C42.0325 51.2018 41.8284 50.7257 41.9962 50.3061L46.4845 39.0853C46.6524 38.6658 47.1285 38.4617 47.5481 38.6295Z" fill="#60638F"/>
<path fill-rule="evenodd" clip-rule="evenodd" d="M62.0455 55.3637C62.0455 54.8365 62.4729 54.4092 63.0001 54.4092H81.2728C83.7581 54.4092 85.7728 56.4239 85.7728 58.9092V73.091C85.7728 75.5763 83.7581 77.591 81.2728 77.591H52.9092C50.4239 77.591 48.4092 75.5763 48.4092 73.091V66.5455C48.4092 66.0184 48.8365 65.591 49.3637 65.591C49.8909 65.591 50.3183 66.0184 50.3183 66.5455V73.091C50.3183 74.5219 51.4783 75.6819 52.9092 75.6819H81.2728C82.7037 75.6819 83.8637 74.5219 83.8637 73.091V58.9092C83.8637 57.4783 82.7037 56.3183 81.2728 56.3183H63.0001C62.4729 56.3183 62.0455 55.8909 62.0455 55.3637Z" fill="#60638F"/>
<path d="M82.3637 55.3636C82.3637 57.7736 80.4101 59.7273 78.0001 59.7273C75.5901 59.7273 73.6365 57.7736 73.6365 55.3636C73.6365 52.9537 75.5901 51 78.0001 51C80.4101 51 82.3637 52.9537 82.3637 55.3636Z" fill="white"/>
<path fill-rule="evenodd" clip-rule="evenodd" d="M78.0001 57.8182C79.3557 57.8182 80.4547 56.7192 80.4547 55.3636C80.4547 54.008 79.3557 52.9091 78.0001 52.9091C76.6445 52.9091 75.5456 54.008 75.5456 55.3636C75.5456 56.7192 76.6445 57.8182 78.0001 57.8182ZM78.0001 59.7273C80.4101 59.7273 82.3637 57.7736 82.3637 55.3636C82.3637 52.9537 80.4101 51 78.0001 51C75.5901 51 73.6365 52.9537 73.6365 55.3636C73.6365 57.7736 75.5901 59.7273 78.0001 59.7273Z" fill="#60638F"/>
<path fill-rule="evenodd" clip-rule="evenodd" d="M4.22729 16.9092C4.22729 14.4239 6.24201 12.4092 8.72729 12.4092H37.0909C39.5762 12.4092 41.5909 14.4239 41.5909 16.9092V23.4546C41.5909 23.9818 41.1636 24.4092 40.6364 24.4092C40.1092 24.4092 39.6818 23.9818 39.6818 23.4546V16.9092C39.6818 15.4783 38.5219 14.3183 37.0909 14.3183H8.72729C7.29638 14.3183 6.13639 15.4783 6.13639 16.9092V31.091C6.13639 32.5219 7.29638 33.6819 8.72729 33.6819H27C27.5272 33.6819 27.9546 34.1093 27.9546 34.6365C27.9546 35.1636 27.5272 35.591 27 35.591H8.72729C6.24201 35.591 4.22729 33.5763 4.22729 31.091V16.9092Z" fill="#60638F"/>
<path d="M16.3637 35.182C16.3637 37.592 14.4101 39.5456 12.0001 39.5456C9.59014 39.5456 7.63647 37.592 7.63647 35.182C7.63647 32.772 9.59014 30.8184 12.0001 30.8184C14.4101 30.8184 16.3637 32.772 16.3637 35.182Z" fill="white"/>
<path fill-rule="evenodd" clip-rule="evenodd" d="M12.0001 37.6365C13.3557 37.6365 14.4547 36.5376 14.4547 35.182C14.4547 33.8264 13.3557 32.7275 12.0001 32.7275C10.6445 32.7275 9.54557 33.8264 9.54557 35.182C9.54557 36.5376 10.6445 37.6365 12.0001 37.6365ZM12.0001 39.5456C14.4101 39.5456 16.3637 37.592 16.3637 35.182C16.3637 32.772 14.4101 30.8184 12.0001 30.8184C9.59014 30.8184 7.63647 32.772 7.63647 35.182C7.63647 37.592 9.59014 39.5456 12.0001 39.5456Z" fill="#60638F"/>
</svg>
