<?xml version="1.0" encoding="UTF-8"?>
<svg width="80px" height="80px" viewBox="0 0 80 80" version="1.1" xmlns="http://www.w3.org/2000/svg" xmlns:xlink="http://www.w3.org/1999/xlink">
    <title>32A1BB8B-06E1-421E-BA37-3AC521AABF80</title>
    <defs>
        <filter color-interpolation-filters="auto" id="filter-1">
            <feColorMatrix in="SourceGraphic" type="matrix" values="0 0 0 0 0.767500 0 0 0 0 0.916000 0 0 0 0 0.932500 0 0 0 1.000000 0"></feColorMatrix>
        </filter>
        <filter color-interpolation-filters="auto" id="filter-2">
            <feColorMatrix in="SourceGraphic" type="matrix" values="0 0 0 0 0.376471 0 0 0 0 0.388235 0 0 0 0 0.560784 0 0 0 1.000000 0"></feColorMatrix>
        </filter>
        <filter color-interpolation-filters="auto" id="filter-3">
            <feColorMatrix in="SourceGraphic" type="matrix" values="0 0 0 0 0.954031 0 0 0 0 0.687302 0 0 0 0 0.601039 0 0 0 1.000000 0"></feColorMatrix>
        </filter>
    </defs>
    <g id="擴充功能" stroke="none" stroke-width="1" fill="none" fill-rule="evenodd">
        <g id="切圖" transform="translate(-193.000000, -420.000000)">
            <g id="ext/購物金_fin" transform="translate(193.000000, 420.000000)">
                <rect id="Rectangle" stroke="#979797" stroke-width="0.5" fill="#D8D8D8" opacity="0" x="0.25" y="0.25" width="79.5" height="79.5"></rect>
                <g id="Group" transform="translate(8.433735, 8.192771)">
                    <g filter="url(#filter-1)" id="B">
                        <g transform="translate(14.873140, 8.931686)">
                            <path d="M0.963855422,0 L10.9031325,0 C11.4354552,0 11.866988,0.431532771 11.866988,0.963855422 L11.866988,35.6626506 C11.866988,36.1949733 11.4354552,36.626506 10.9031325,36.626506 L0.963855422,36.626506 C0.431532771,36.626506 0,36.1949733 0,35.6626506 L0,0.963855422 C0,0.431532771 0.431532771,0 0.963855422,0 Z" id="Rectangle" fill="#D8D8D8"></path>
                            <path d="M15.0284337,7.61831325 L28.3373494,7.61831325 C28.869672,7.61831325 29.3012048,8.04984602 29.3012048,8.58216867 L29.3012048,35.6626506 C29.3012048,36.1949733 28.869672,36.626506 28.3373494,36.626506 L15.0284337,36.626506 C14.4961111,36.626506 14.0645783,36.1949733 14.0645783,35.6626506 L14.0645783,8.58216867 C14.0645783,8.04984602 14.4961111,7.61831325 15.0284337,7.61831325 Z" id="Rectangle-Copy-6" fill="#D8D8D8"></path>
                        </g>
                    </g>
                    <g filter="url(#filter-2)" id="line">
                        <g transform="translate(0.000000, 16.385542)">
                            <path d="M4.7934056,0 C5.9055307,0 6.87107327,0.760680812 7.13409591,1.83731982 L7.14424082,1.88055283 L7.887,5.18 L17.9220031,5.17987345 C17.9618144,5.16900656 18.0027751,5.16057137 18.0447427,5.15475586 C18.1773447,5.13644009 18.3073721,5.14602098 18.4288947,5.17901149 L34.6504534,5.18072289 C35.182776,5.18072289 35.6143088,5.61225566 35.6143088,6.14457831 C35.6143088,6.66685714 35.1989067,7.0921136 34.680475,7.10797508 L34.6504534,7.10843373 L30.361,7.108 L30.361,18.072 L38.382,18.072 L39.0475554,13.4820201 C39.1224961,12.9651457 39.5946189,12.603895 40.1099618,12.6625863 L40.1397625,12.6662454 C40.6566129,12.7413808 41.0178636,13.2135036 40.9591723,13.7288465 L40.9553185,13.7586232 L40.33,18.072 L48.684,18.072 L48.7902628,17.6198632 L48.9142453,17.0803525 L48.9341375,16.9928335 L48.9341375,16.9928335 C49.0519372,16.4737086 49.5682666,16.1483703 50.0873915,16.26617 C50.6065163,16.3839697 50.9318547,16.9002991 50.814055,17.4194239 L50.6889326,17.9655402 L50.5557324,18.5366979 L50.438561,19.0317946 L50.2394164,19.8601328 L50.053381,20.6214673 L49.9137641,21.186161 L49.7388152,21.8867689 L49.5557834,22.6124454 L49.2991661,23.619017 L49.0628357,24.5363399 L48.7428104,25.7659237 L48.4045894,27.0519611 L48.1289469,28.0912514 L47.8422941,29.1647086 L47.7196386,29.6215663 L47.7121754,29.6539742 C47.275562,31.4617889 45.6689974,32.744952 43.8097188,32.77069 L43.7527242,32.7710843 L15.3823528,32.7710843 C14.9170142,32.7710843 14.466849,32.6922835 14.0461126,32.5460813 L14.689157,35.4041467 C14.8472237,36.106469 15.4629354,36.6089371 16.1794001,36.6260548 L43.6144578,36.626506 C44.1467805,36.626506 44.5783133,37.0580388 44.5783133,37.5903614 C44.5783133,38.1126403 44.1629111,38.5378967 43.6444794,38.5537582 L43.6144578,38.5542169 L41.7919936,38.5544004 C42.6274704,39.5247671 43.1325301,40.7877394 43.1325301,42.1686747 C43.1325301,45.2295299 40.6512167,47.7108434 37.5903614,47.7108434 C34.5295062,47.7108434 32.0481928,45.2295299 32.0481928,42.1686747 C32.0481928,40.7877394 32.5532525,39.5247671 33.3887293,38.5544004 L24.6835598,38.5544004 C25.5190367,39.5247671 26.0240964,40.7877394 26.0240964,42.1686747 C26.0240964,45.2295299 23.542783,47.7108434 20.4819277,47.7108434 C17.4210725,47.7108434 14.939759,45.2295299 14.939759,42.1686747 C14.939759,40.7877394 15.4448187,39.5247671 16.2802956,38.5544004 L16.2171999,38.5542169 C14.5996233,38.5542169 13.1959102,37.4443858 12.8196841,35.8755825 L12.8084888,35.8274153 L10.456,25.378 L6.30162268,6.98972867 C6.2857814,6.91961669 6.2751935,6.84954172 6.26959916,6.77991566 L5.26357264,2.30382141 C5.21585095,2.09178424 5.0325594,1.93895064 4.81743414,1.92830441 L4.7934056,1.92771084 L0.963855422,1.92771084 C0.431532771,1.92771084 0,1.49617807 0,0.963855422 C0,0.441576595 0.415402141,0.0163201366 0.933833816,0.000458653571 L4.7934056,0 Z M20.4819277,38.5542169 C18.4857178,38.5542169 16.8674699,40.1724648 16.8674699,42.1686747 C16.8674699,44.1648846 18.4857178,45.7831325 20.4819277,45.7831325 C22.4781376,45.7831325 24.0963855,44.1648846 24.0963855,42.1686747 C24.0963855,40.1724648 22.4781376,38.5542169 20.4819277,38.5542169 Z M37.5903614,38.5542169 C35.5941515,38.5542169 33.9759036,40.1724648 33.9759036,42.1686747 C33.9759036,44.1648846 35.5941515,45.7831325 37.5903614,45.7831325 C39.5865714,45.7831325 41.2048193,44.1648846 41.2048193,42.1686747 C41.2048193,40.1724648 39.5865714,38.5542169 37.5903614,38.5542169 Z M19.126,20 L11.222,20 L12.45,25.457 L13.2893789,29.1699324 C13.507286,30.1343679 14.3545469,30.8231741 15.3388407,30.8429369 L15.3823528,30.8433735 L20.626,30.843 L19.126,20 Z M38.102,20 L30.361,20 L30.361,30.843 L36.53,30.843 L38.102,20 Z M48.22,20 L40.05,20 L38.478,30.843 L43.7527242,30.8433735 C44.740206,30.8433735 45.5981945,30.1695277 45.8352053,29.2142072 L45.849628,29.1534582 L46.2217129,27.7620854 L46.5712378,26.4444315 L46.830763,25.4578913 L47.1485865,24.2387394 L47.4485743,23.0750148 L47.7002547,22.0871361 L47.8797644,21.3749808 L48.1067747,20.4637866 L48.22,20 Z M28.433,20 L21.071,20 L22.571,30.843 L28.433,30.843 L28.433,20 Z M17.342,7.108 L8.321,7.108 L10.788,18.072 L18.859,18.072 L17.342,7.108 Z M28.433,7.108 L19.287,7.108 L20.804,18.072 L28.433,18.072 L28.433,7.108 Z" id="Combined-Shape" fill="#000000" fill-rule="nonzero"></path>
                        </g>
                    </g>
                    <g filter="url(#filter-3)" id="A">
                        <g transform="translate(35.903614, 0.000000)">
                            <circle id="Oval" fill="#919191" cx="15.3012048" cy="15.3012048" r="15.3012048"></circle>
                        </g>
                    </g>
                    <path d="M51.6586231,6.62650602 C52.1809019,6.62650602 52.6061584,7.04190816 52.6220199,7.56033984 L52.6225965,8.66217402 C53.837044,8.93979977 54.8440107,9.73890386 55.1982943,10.9426052 C55.3485969,11.453268 55.0564672,11.9890864 54.5458044,12.139389 C54.044962,12.2868011 53.5199223,12.008634 53.3581167,11.5161163 L53.3490206,11.4868991 C53.1513426,10.8152755 52.3192548,10.3910389 51.3543024,10.4972663 C50.3682773,10.6058136 49.7394262,11.1938382 49.7394262,12.1154313 C49.7394262,12.5297612 49.8830285,12.8201595 50.3185688,13.128943 L50.3745426,13.167647 C50.3841286,13.1741171 50.3938439,13.1805977 50.40369,13.1870901 L50.4643461,13.2261972 C50.4747204,13.2327422 50.4852282,13.2393015 50.4958708,13.2458766 L50.5613539,13.2855258 L50.6301356,13.3256135 L50.7022802,13.3662016 L50.7778522,13.4073518 L50.8569158,13.4491259 L50.9395355,13.4915857 L51.0257756,13.534793 L51.1157006,13.5788094 L51.2093749,13.6236968 L51.3570568,13.6927962 L51.4603858,13.7401313 L52.0271706,13.9931086 L52.1721441,14.0586423 L52.311658,14.1228187 C52.334468,14.133412 52.3570601,14.1439565 52.379439,14.1544561 L52.5111924,14.2169458 L52.6380582,14.278544 L52.7602652,14.3394367 L52.7901159,14.3545715 L52.7901159,14.3545715 L52.9353412,14.4298607 C53.4842461,14.7200201 53.8899473,15.0017778 54.2687163,15.369766 C55.0416402,16.1206904 55.4538038,17.0829748 55.4538038,18.2862676 C55.4538038,20.2335501 54.2754874,21.5858908 52.6226914,22.0193904 L52.6224785,23.1325301 C52.6224785,23.6648528 52.1909458,24.0963855 51.6586231,24.0963855 C51.1363443,24.0963855 50.7110878,23.6809834 50.6952263,23.1625517 L50.6947677,23.1325301 L50.6939588,22.1153231 C48.7068375,21.8254021 47.0986612,20.377472 46.9037179,18.2786404 C46.8544867,17.7485992 47.2442602,17.2790061 47.7743014,17.2297749 C48.2943418,17.1814726 48.7561937,17.5557651 48.8199337,18.0705079 L48.8231669,18.1003584 C48.9400152,19.3583904 50.001522,20.2004782 51.3394277,20.2396858 C52.6400832,20.2778018 53.526093,19.557518 53.526093,18.2862676 C53.526093,17.5571795 53.3243651,17.0695581 52.7898668,16.6287846 L52.729102,16.5799927 C52.6773124,16.539477 52.6226282,16.4993011 52.5649454,16.4593105 L52.49428,16.4114009 C52.422162,16.3635605 52.3456661,16.3158981 52.2646126,16.2681465 L52.1820331,16.2203555 L52.0963753,16.1724457 L52.0523795,16.1484277 L52.0523795,16.1484277 L51.9620291,16.1002287 L51.8685005,16.0517626 L51.7717537,16.0029703 C51.7553589,15.9948077 51.7388282,15.9866291 51.722161,15.9784331 L51.5684457,15.9041692 L51.4618047,15.8540418 L51.3517856,15.8033509 L50.7034411,15.5136609 L50.5710964,15.453672 L50.4448514,15.3955812 L50.32439,15.3391704 L50.2093959,15.2842216 L50.0995532,15.2305166 L49.9945454,15.1778375 L49.8940566,15.1259662 C49.8776675,15.1173761 49.8614535,15.1088107 49.845408,15.1002653 L49.7511048,15.0491968 C49.735707,15.0407133 49.7204647,15.0322408 49.7053711,15.0237746 L49.616542,14.9730183 C49.3405694,14.812303 49.1135463,14.6506184 48.8902943,14.4568052 C48.1925655,13.8510815 47.8117154,13.0762316 47.8117154,12.1154313 C47.8117154,10.2901227 49.0231027,9.01029315 50.6939538,8.65343732 L50.6947677,7.59036145 C50.6947677,7.0580388 51.1263005,6.62650602 51.6586231,6.62650602 Z M61.3140245,14.3373494 C61.8463471,14.3373494 62.2778799,14.7688822 62.2778799,15.3012048 C62.2778799,15.8234836 61.8624777,16.2487401 61.3440461,16.2646016 L59.7825653,16.2650602 C59.2502426,16.2650602 58.8187099,15.8335275 58.8187099,15.3012048 C58.8187099,14.778926 59.234112,14.3536695 59.7525437,14.3378081 L59.7825653,14.3373494 L61.3140245,14.3373494 Z M42.8802895,14.3373494 C43.4126122,14.3373494 43.8441449,14.7688822 43.8441449,15.3012048 C43.8441449,15.8234836 43.4287428,16.2487401 42.9103111,16.2646016 L41.3488303,16.2650602 C40.8165077,16.2650602 40.3849749,15.8335275 40.3849749,15.3012048 C40.3849749,14.778926 40.8003771,14.3536695 41.3188087,14.3378081 L41.3488303,14.3373494 L42.8802895,14.3373494 Z" id="Combined-Shape" fill="#FFFFFF"></path>
                </g>
            </g>
        </g>
    </g>
</svg>