<?xml version="1.0" encoding="UTF-8"?>
<svg width="80px" height="80px" viewBox="0 0 80 80" version="1.1" xmlns="http://www.w3.org/2000/svg" xmlns:xlink="http://www.w3.org/1999/xlink">
    <title>C98F0507-FCA1-42DC-9AD7-A7E566B9D14C</title>
    <defs>
        <filter color-interpolation-filters="auto" id="filter-1">
            <feColorMatrix in="SourceGraphic" type="matrix" values="0 0 0 0 0.767500 0 0 0 0 0.916000 0 0 0 0 0.932500 0 0 0 1.000000 0"></feColorMatrix>
        </filter>
        <filter color-interpolation-filters="auto" id="filter-2">
            <feColorMatrix in="SourceGraphic" type="matrix" values="0 0 0 0 0.847000 0 0 0 0 0.847000 0 0 0 0 0.847000 0 0 0 1.000000 0"></feColorMatrix>
        </filter>
        <path d="M32.0768454,46.8877649 C32.6091681,46.8877649 33.0407009,47.3192977 33.0407009,47.8516203 L33.0407009,54.3576444 C33.0407009,55.27744 32.6112383,56.0969293 31.9418952,56.6265301 L24.7419161,56.6265301 C24.072573,56.0969293 23.6431105,55.27744 23.6431105,54.3576444 L23.6431105,47.8516203 C23.6431105,47.3192977 24.0746433,46.8877649 24.6069659,46.8877649 L32.0768454,46.8877649 Z M33.3364142,31.6865262 C33.815424,32.5857512 34.0775262,33.5603511 34.0775262,34.5783133 C34.0775262,39.1030558 28.8991329,42.7710843 22.5112611,42.7710843 C16.1233893,42.7710843 10.944996,39.1030558 10.944996,34.5783133 C10.944996,33.5603511 11.2070982,32.5857512 11.686108,31.6865262 L12.5886153,31.6868172 C12.5375608,31.963079 12.5112611,32.2445275 12.5112611,32.5301205 C12.5112611,36.256379 16.9884136,39.2771084 22.5112611,39.2771084 C28.0341086,39.2771084 32.5112611,36.256379 32.5112611,32.5301205 C32.5112611,32.2445275 32.4849614,31.963079 32.4339069,31.6868172 Z" id="path-3"></path>
        <filter color-interpolation-filters="auto" id="filter-5">
            <feColorMatrix in="SourceGraphic" type="matrix" values="0 0 0 0 0.376471 0 0 0 0 0.388235 0 0 0 0 0.560784 0 0 0 1.000000 0"></feColorMatrix>
        </filter>
        <filter color-interpolation-filters="auto" id="filter-6">
            <feColorMatrix in="SourceGraphic" type="matrix" values="0 0 0 0 0.954031 0 0 0 0 0.687302 0 0 0 0 0.601039 0 0 0 1.000000 0"></feColorMatrix>
        </filter>
    </defs>
    <g id="擴充功能" stroke="none" stroke-width="1" fill="none" fill-rule="evenodd">
        <g id="切圖" transform="translate(-193.000000, -170.000000)">
            <g id="ext/商品折扣_fin" transform="translate(193.000000, 170.000000)">
                <rect id="Rectangle" stroke="#979797" stroke-width="0.5" fill="#D8D8D8" opacity="0" x="0.25" y="0.25" width="79.5" height="79.5"></rect>
                <g id="Group-2" transform="translate(2.067052, 7.560653)">
                    <g filter="url(#filter-1)" id="B">
                        <g transform="translate(0.000000, 0.632118)">
                            <g filter="url(#filter-2)" id="Group">
                                <g transform="translate(13.955680, 22.377506) rotate(16.000000) translate(-13.955680, -22.377506) translate(1.655990, 14.641038)">
                                    <path d="M3.65008364,0.0375867352 L16.5975215,3.75020479 C16.9306034,3.84571449 17.1867857,4.11266301 17.2685104,4.44939243 L18.4247801,9.21358413 C21.0814611,9.82901115 23.3038931,11.8045639 24.54806,14.6274159 C24.6822426,14.9318587 24.5442195,15.2874348 24.2397767,15.4216175 C23.9353339,15.5558001 23.5797577,15.4177769 23.4455751,15.1133341 C22.3396672,12.6041738 20.3922106,10.8852544 18.0953325,10.3742862 L14.5854112,13.8064714 C14.3376653,14.0487266 13.9789492,14.1393559 13.6458673,14.0438462 L0.698429473,10.3312281 C0.186728099,10.1845001 -0.109141273,9.65073764 0.0375867352,9.13903626 L2.45789179,0.698429473 C2.60461979,0.186728099 3.13838227,-0.109141273 3.65008364,0.0375867352 Z M13.5682661,8.50176733 C13.3920333,9.11636421 13.7473975,9.75745835 14.3619944,9.93369117 C14.9765913,10.109924 15.6176855,9.75455971 15.7939183,9.13996283 C15.9701511,8.52536595 15.6147868,7.8842718 15.0001899,7.70803898 C14.385593,7.53180616 13.7444989,7.88717045 13.5682661,8.50176733 Z" id="Shape" fill="#D8D8D8"></path>
                                </g>
                            </g>
                            <path d="M56.5784439,12.3072913 C57.1107666,12.3072913 57.5422993,12.7388241 57.5422993,13.2711467 L57.5422993,19.4963034 C57.5422993,21.0932714 56.247701,22.3878697 54.6507331,22.3878697 L51.280657,22.3878697 C49.6836891,22.3878697 48.3890908,21.0932714 48.3890908,19.4963034 L48.3890908,13.2711467 C48.3890908,12.7388241 48.8206235,12.3072913 49.3529462,12.3072913 L56.5784439,12.3072913 Z M56.9845946,0.0364801913 L58.3510869,0.584 L58.3550618,0.735414072 C58.3550618,5.06289284 53.4808563,8.58489505 47.4049008,8.70304178 L47.0895744,8.70610396 C40.8678174,8.70610396 35.8240869,5.13750454 35.8240869,0.735414072 C35.8240869,0.684892246 35.8247512,0.634480205 35.8260741,0.584182083 L37.1945541,0.0364801913 C38.361935,-0.463896951 39.214805,4.34865384 46.9923264,4.34865384 C54.7698478,4.34865384 55.8172137,-0.463896951 56.9845946,0.0364801913 Z" id="Combined-Shape" fill="#FFFFFF"></path>
                            <mask id="mask-4" fill="white">
                                <use xlink:href="#path-3"></use>
                            </mask>
                            <use id="Combined-Shape" fill="#FFFFFF" xlink:href="#path-3"></use>
                        </g>
                    </g>
                    <g filter="url(#filter-5)" id="line">
                        <g transform="translate(6.005237, 0.000000)">
                            <path d="M27.1084337,32.3188646 C30.3023696,32.3188646 32.8915663,34.9080612 32.8915663,38.1019971 L32.8915663,38.1019971 L32.8915663,51.4754911 C32.8915663,51.5196561 32.8910712,51.5637056 32.8900863,51.6076341 L32.8915663,51.6071378 L32.8915663,60.0690516 C32.8915663,62.7808856 30.4503926,64.9261854 27.4810228,64.9688202 L27.3908822,64.969467 L5.50068405,64.969467 C2.52083878,64.969467 0.0498667072,62.8512855 0.000745250266,60.1510534 L0,51.5533819 L0.001,51.5528646 L0,51.4754911 L0,38.1019971 C0,34.9080612 2.58919663,32.3188646 5.78313253,32.3188646 L5.78313253,32.3188646 Z M27.4810228,61.1133985 L27.3908822,61.1140453 L5.50068405,61.1140453 C4.14354064,61.1140453 2.89195097,60.6746785 1.92663492,59.9410639 L1.92771084,60.0690516 C1.92771084,61.6619396 3.4681099,63.0144571 5.44077515,63.0413482 L27.3908822,63.0417562 C29.372167,63.0417562 30.932379,61.7051676 30.9633851,60.1172462 L30.9642697,59.9415667 C30.0204556,60.6586117 28.8030927,61.094416 27.4810228,61.1133985 Z M30.964065,55.7858702 C29.9408949,56.7017214 28.5897001,57.2586236 27.1084337,57.2586236 L27.1084337,57.2586236 L5.78313253,57.2586236 C4.30186619,57.2586236 2.95067134,56.7017214 1.92750122,55.7858702 L1.92771084,56.2136299 C1.92771084,57.8065179 3.4681099,59.1590354 5.44077515,59.1859265 L27.3908822,59.1863345 C29.372167,59.1863345 30.932379,57.8497459 30.9633851,56.2618245 Z M27.1084337,34.2465754 L26.5086187,34.2468753 C25.173764,38.2931455 21.6080291,40.7525995 16.5060241,40.7525995 C11.4040191,40.7525995 7.83828417,38.2931455 6.50342947,34.2468753 L5.78313253,34.2465754 C3.65384193,34.2465754 1.92771084,35.9727065 1.92771084,38.1019971 L1.92771084,38.1019971 L1.92771084,51.4754911 C1.92771084,53.6047817 3.65384193,55.3309128 5.78313253,55.3309128 L5.78313253,55.3309128 L27.1084337,55.3309128 C29.2377243,55.3309128 30.9638554,53.6047817 30.9638554,51.4754911 L30.9638554,51.4754911 L30.9638554,38.1019971 C30.9638554,35.9727065 29.2377243,34.2465754 27.1084337,34.2465754 L27.1084337,34.2465754 Z M24.4518072,34.2467098 L8.56012048,34.2467098 L8.57465421,34.2814928 C9.77956855,37.1106995 12.4553942,38.7865165 16.3705286,38.8242379 L16.3705286,38.8242379 L16.5060241,38.8248887 C20.4949465,38.8248887 23.2186301,37.1432191 24.437394,34.2814928 L24.437394,34.2814928 L24.4518072,34.2467098 Z" id="Combined-Shape" fill="#000000" fill-rule="nonzero"></path>
                            <path d="M39.123097,46.5357321 C39.6554196,46.5357321 40.0869524,46.9672648 40.0869524,47.4995875 C40.0869524,48.0218663 39.6715502,48.4471228 39.1531186,48.4629842 L39.123097,48.4634429 L32.7772295,48.4634429 C32.2449069,48.4634429 31.8133741,48.0319101 31.8133741,47.4995875 C31.8133741,46.9773086 32.2287762,46.5520522 32.7472079,46.5361907 L32.7772295,46.5357321 L39.123097,46.5357321 Z M33.3043587,0.791278003 L33.3294875,0.826534006 C35.0478091,3.29496964 37.6009572,4.53601809 41.0930081,4.5674334 C44.5760161,4.59876737 47.1193535,3.36606532 48.8355889,0.845739307 C49.3281978,0.122332604 50.2448889,-0.177017593 51.0672855,0.111791427 L51.1076529,0.126470067 L65.6746868,5.60599989 C65.6882903,5.61111699 65.7017763,5.61654112 65.7151345,5.62226814 C66.5879302,5.99645839 67.048992,6.95553082 66.8008165,7.86767183 L66.7943373,7.8900833 L64.166985,17.718072 L64.1601731,17.7422808 C63.8753274,18.7061888 62.8905444,19.2795105 61.9188354,19.0585343 L61.8804869,19.0493981 L57.1321687,17.8891194 L57.5994368,24.415616 C57.636735,24.9365613 57.2527629,25.3903976 56.7367876,25.4432421 L56.7068754,25.4458435 C56.1859301,25.4831417 55.7320938,25.0991696 55.6792494,24.5831944 L55.6766479,24.5532822 L55.1149332,16.7077904 C55.068976,16.0659038 55.6518381,15.5631866 56.2758343,15.6959571 L56.305112,15.7026481 L62.3174699,17.17177 L64.9336145,7.38670981 L50.4289545,1.93075317 L50.3658794,2.02244908 C48.2738841,5.03313498 45.1407381,6.53163659 41.0756666,6.49506624 C37.0222083,6.45860037 33.9001158,4.96033489 31.8103743,2.01749654 L31.7473649,1.92787747 L17.2349398,7.38670981 L19.8510843,17.17177 L25.8635627,15.7026481 C26.4865785,15.550416 27.0785616,16.037194 27.0556324,16.6726177 L27.054105,16.7025102 L25.9925045,32.7679043 C25.9574052,33.2990686 25.4983579,33.7012086 24.9671936,33.6661093 C24.4460514,33.6316723 24.0491104,33.1891343 24.0674668,32.670785 L24.0689886,32.6407985 L25.0437349,17.8873122 L20.2923827,19.0483631 C19.339032,19.2858453 18.3648069,18.7583348 18.0395326,17.8379799 L18.0218775,17.7854544 L18.0071014,17.7374973 L15.3740964,7.8900833 L15.3677935,7.86743214 C15.1292826,6.99028882 15.5464556,6.06706166 16.3601495,5.66530822 L16.3979852,5.64713809 L16.4395211,5.62841069 L16.4665833,5.61678916 L16.4939879,5.60599989 L31.0686655,0.123594805 C31.8808044,-0.181899745 32.7949903,0.093193209 33.3043587,0.791278003 Z" id="Shape" fill="#000000" fill-rule="nonzero"></path>
                        </g>
                    </g>
                    <g id="badge_discount" transform="translate(46.125719, 27.258624)">
                        <g filter="url(#filter-6)" id="A">
                            <g transform="translate(0.120482, 0.000000)">
                                <path d="M14.3336011,0 C12.5035074,0 11.0637483,1.92607764 9.47041499,2.58516734 C7.8194913,3.26985274 5.44548862,2.94990629 4.20409639,4.19769746 C2.95630522,5.44548862 3.27625167,7.81309237 2.59156627,9.46401606 C1.92607764,11.0637483 0,12.4971084 0,14.3336011 C0,16.1636948 1.92607764,17.6034538 2.58516734,19.1967871 C3.26985274,20.8477108 2.94990629,23.2217135 4.19769746,24.4631058 C5.44548862,25.7108969 7.81309237,25.3909505 9.46401606,26.0756359 C11.0573494,26.7347256 12.4971084,28.6608032 14.3272021,28.6608032 C16.1572959,28.6608032 17.5970549,26.7347256 19.1903882,26.0756359 C20.8413119,25.3909505 23.2153146,25.7108969 24.4567068,24.4631058 C25.704498,23.2153146 25.3845515,20.8477108 26.0692369,19.1967871 C26.7283266,17.6034538 28.6544043,16.1636948 28.6544043,14.3336011 C28.6544043,12.5035074 26.7283266,11.0637483 26.0692369,9.47041499 C25.3845515,7.8194913 25.704498,5.44548862 24.4567068,4.20409639 C23.2217135,2.94990629 20.8477108,3.26985274 19.1967871,2.58516734 C17.6034538,1.92607764 16.1636948,0 14.3336011,0 L14.3336011,0 Z" id="Path" fill="#919191"></path>
                            </g>
                        </g>
                        <path d="M18.8554217,14.1566265 C20.5854703,14.1566265 21.9879518,15.559108 21.9879518,17.2891566 C21.9879518,19.0192052 20.5854703,20.4216867 18.8554217,20.4216867 C17.1253731,20.4216867 15.7228916,19.0192052 15.7228916,17.2891566 C15.7228916,15.559108 17.1253731,14.1566265 18.8554217,14.1566265 Z M18.247395,8.25220011 C18.6054875,8.4767666 18.7194101,8.94347386 18.5099286,9.30657238 L18.4947878,9.33173238 L11.8080409,19.994383 C11.5782519,20.3608032 11.0949288,20.4715648 10.7285086,20.2417758 C10.3704161,20.0172093 10.2564935,19.550502 10.4659751,19.1874035 L10.4811158,19.1622435 L17.1678628,8.49959292 C17.3976517,8.13317268 17.8809748,8.02241115 18.247395,8.25220011 Z M18.8554217,15.7228916 C17.9903974,15.7228916 17.2891566,16.4241323 17.2891566,17.2891566 C17.2891566,18.1541809 17.9903974,18.8554217 18.8554217,18.8554217 C19.720446,18.8554217 20.4216867,18.1541809 20.4216867,17.2891566 C20.4216867,16.4241323 19.720446,15.7228916 18.8554217,15.7228916 Z M10.060241,8.13253012 C11.7902896,8.13253012 13.1927711,9.53501163 13.1927711,11.2650602 C13.1927711,12.9951089 11.7902896,14.3975904 10.060241,14.3975904 C8.33019235,14.3975904 6.92771084,12.9951089 6.92771084,11.2650602 C6.92771084,9.53501163 8.33019235,8.13253012 10.060241,8.13253012 Z M10.060241,9.69879518 C9.19521666,9.69879518 8.4939759,10.4000359 8.4939759,11.2650602 C8.4939759,12.1300845 9.19521666,12.8313253 10.060241,12.8313253 C10.9252653,12.8313253 11.626506,12.1300845 11.626506,11.2650602 C11.626506,10.4000359 10.9252653,9.69879518 10.060241,9.69879518 Z" id="Combined-Shape" fill="#FFFFFF"></path>
                    </g>
                </g>
            </g>
        </g>
    </g>
</svg>