<?xml version="1.0" encoding="UTF-8"?>
<svg width="80px" height="80px" viewBox="0 0 80 80" version="1.1" xmlns="http://www.w3.org/2000/svg" xmlns:xlink="http://www.w3.org/1999/xlink">
    <title>B24A55A2-1846-4E2C-BFF9-B9633A8ACB8E</title>
    <defs>
        <filter color-interpolation-filters="auto" id="filter-1">
            <feColorMatrix in="SourceGraphic" type="matrix" values="0 0 0 0 0.954031 0 0 0 0 0.687302 0 0 0 0 0.601039 0 0 0 1.000000 0"></feColorMatrix>
        </filter>
        <filter color-interpolation-filters="auto" id="filter-2">
            <feColorMatrix in="SourceGraphic" type="matrix" values="0 0 0 0 0.819608 0 0 0 0 0.905882 0 0 0 0 1.000000 0 0 0 1.000000 0"></feColorMatrix>
        </filter>
        <filter color-interpolation-filters="auto" id="filter-3">
            <feColorMatrix in="SourceGraphic" type="matrix" values="0 0 0 0 1.000000 0 0 0 0 1.000000 0 0 0 0 1.000000 0 0 0 1.000000 0"></feColorMatrix>
        </filter>
        <filter color-interpolation-filters="auto" id="filter-4">
            <feColorMatrix in="SourceGraphic" type="matrix" values="0 0 0 0 0.376471 0 0 0 0 0.388235 0 0 0 0 0.560784 0 0 0 1.000000 0"></feColorMatrix>
        </filter>
    </defs>
    <g id="擴充功能" stroke="none" stroke-width="1" fill="none" fill-rule="evenodd">
        <g id="切圖" transform="translate(-327.000000, -420.000000)">
            <g id="ext/商品大量更新_fin" transform="translate(327.000000, 420.000000)">
                <rect id="Rectangle" stroke="#979797" stroke-width="0.5" fill="#D8D8D8" opacity="0" x="0.25" y="0.25" width="79.5" height="79.5"></rect>
                <g id="Group" transform="translate(13.614458, 7.479724)">
                    <g filter="url(#filter-1)" id="A">
                        <g transform="translate(4.748774, 0.000000)">
                            <path d="M38.1436867,5.61802221 L38.262,5.8 C38.5797656,5.76780511 44.2159617,5.56537885 48.0162772,10.5820194 C51.3012956,14.9184375 50.3411765,19.8699761 49.8970845,21.4904735 L49.8475062,21.6655141 C49.7775714,21.9043089 49.7295212,22.0345496 49.7295212,22.0345496 C51.5148197,23.2431679 53.925925,25.7450139 53.925925,31.6430744 C53.925925,37.5411348 49.1517963,40.9540781 44.3972527,40.9540781 L41.516,40.954 L41.5162865,37.8214812 L41.5104867,37.6708317 C41.4336327,36.6765962 40.6025235,35.8937703 39.5885756,35.8937703 L39.5885756,35.8937703 L20.7933949,35.8937703 L20.6427454,35.8995701 C19.6485099,35.9764241 18.8656841,36.8075333 18.8656841,37.8214812 L18.8656841,37.8214812 L18.8656841,26.375698 L18.8598843,26.2250486 C18.7830302,25.2308131 17.9519211,24.4479872 16.9379732,24.4479872 L16.9379732,24.4479872 L-9.75400316e-14,24.4465817 C0.569570497,17.7160258 5.81574455,15.7678975 5.81574455,15.7678975 C5.41502344,10.5820194 8.96682938,3.61735342 17.8319194,0.95401128 C26.5666404,-1.67016406 35.3820834,1.52480484 38.1436867,5.61802221 Z" id="Combined-Shape" fill="#D8D8D8"></path>
                        </g>
                    </g>
                    <g filter="url(#filter-2)" id="B">
                        <g transform="translate(0.963855, 24.447987)">
                            <path d="M1.92771084,20 L20.7228916,20 C21.7875369,20 22.6506024,20.8630655 22.6506024,21.9277108 L22.6506024,40 L0,40 L0,21.9277108 C0,20.8630655 0.863065542,20 1.92771084,20 Z" id="Rectangle" fill="#D8D8D8"></path>
                            <path d="M6.98795181,0 L15.6626506,0 L15.6626506,9.55035437 C15.6626506,9.93365388 15.351925,10.2444288 14.9686254,10.2444288 C14.7464374,10.2444288 14.537681,10.1379983 14.4071021,9.9582299 L13.7348773,9.03277619 C13.5002446,8.70975663 13.048178,8.63810497 12.7251585,8.87273772 C12.6642372,8.91698931 12.6106036,8.97048726 12.5661979,9.03129627 L11.909102,9.93112031 C11.6736519,10.2535446 11.2214054,10.3240511 10.8989811,10.088601 C10.8386679,10.0445574 10.785544,9.99143349 10.7415004,9.93112031 L10.0844046,9.03129627 C9.84895446,8.70887198 9.39670792,8.63836547 9.07428364,8.87381556 C9.01347463,8.9182213 8.95997668,8.97185491 8.9157251,9.03277619 L8.24350032,9.9582299 C8.01823689,10.2683507 7.58422223,10.3371412 7.27410144,10.1118777 C7.09433306,9.98129879 6.98795181,9.77254242 6.98795181,9.55035437 L6.98795181,0 Z" id="Rectangle" fill="#D8D8D8"></path>
                            <path d="M29.6385542,11.4457831 L38.313253,11.4457831 L38.313253,23.526258 C38.313253,23.9095575 38.0025274,24.2203324 37.6192279,24.2203324 C37.3970398,24.2203324 37.1882834,24.1139019 37.0577045,23.9341335 L36.3854797,23.0086798 C36.150847,22.6856602 35.6987804,22.6140086 35.3757609,22.8486413 C35.3148396,22.8928929 35.261206,22.9463909 35.2168003,23.0071999 L34.5597044,23.9070239 C34.3242543,24.2294482 33.8720078,24.2999547 33.5495835,24.0645046 C33.4892703,24.020461 33.4361465,23.9673371 33.3921028,23.9070239 L32.735007,23.0071999 C32.4995569,22.6847756 32.0473103,22.6142691 31.7248861,22.8497192 C31.664077,22.8941249 31.6105791,22.9477585 31.5663275,23.0086798 L30.8941027,23.9341335 C30.6688393,24.2442543 30.2348246,24.3130448 29.9247039,24.0877813 C29.7449355,23.9572024 29.6385542,23.748446 29.6385542,23.526258 L29.6385542,11.4457831 Z" id="Rectangle" fill="#D8D8D8"></path>
                        </g>
                    </g>
                    <g filter="url(#filter-3)" id="white">
                        <g transform="translate(8.072289, 11.074443)">
                            <path d="M22.2891566,8.91571271 C22.8214793,8.91571271 23.253012,9.34724548 23.253012,9.87956813 C23.253012,11.7343323 24.7415597,13.2414276 26.589185,13.271384 L26.6452824,13.2718385 L33.6580723,13.2717368 L32.4480634,12.3466915 C32.0251637,12.023391 31.9444225,11.4184762 32.267723,10.9955764 C32.5844256,10.5813073 33.1713652,10.4953736 33.5927228,10.7959464 L33.6188381,10.815236 L36.9314432,13.347662 C37.06098,13.4112369 37.1781648,13.5049841 37.2717518,13.6274024 C37.3997271,13.7948031 37.4643934,13.9907236 37.4695888,14.1864078 L37.4699013,14.2438015 L37.4689986,14.2788293 L37.4660536,14.3222553 L37.462642,14.354795 L37.4567882,14.3951488 L37.4470755,14.4450675 L37.4403671,14.4733179 L37.4298318,14.5115507 L37.4248332,14.5277658 L37.4186683,14.5465036 C37.3965352,14.6115145 37.3676496,14.6734041 37.3328479,14.7313353 L37.3079475,14.7704856 L37.2906953,14.7955276 L37.2717518,14.8210813 L37.257725,14.8389959 L37.233857,14.8675997 L37.2173976,14.8861347 L37.1871491,14.9178066 L37.1763242,14.9283097 C37.1096835,14.9931418 37.0352312,15.0466108 36.9557371,15.0884675 L36.9314962,15.1007989 L33.6188381,17.6332477 C33.1959384,17.9565482 32.5910235,17.875807 32.267723,17.4529073 C31.9510205,17.0386381 32.0220364,16.4497073 32.4225996,16.1219341 L32.4480634,16.1017922 L33.6281928,15.1994476 L26.6452824,15.1995494 C23.7071379,15.1995494 21.3253012,12.8177126 21.3253012,9.87956813 C21.3253012,9.34724548 21.756834,8.91571271 22.2891566,8.91571271 Z" id="Combined-Shape" fill="#000000" fill-rule="nonzero"></path>
                            <path d="M22.2891566,0 C22.8214793,0 23.253012,0.431532771 23.253012,0.963855422 C23.253012,2.81861963 24.7415597,4.32571491 26.589185,4.35567133 L26.6452824,4.3561258 L33.6583012,4.356 L32.4480634,3.43097876 C32.0251637,3.10767826 31.9444225,2.50276345 32.267723,2.07986371 C32.5844256,1.66559457 33.1713652,1.57966089 33.5927228,1.88023374 L33.6188381,1.89952333 L36.936866,4.43463197 C37.0642502,4.49814967 37.1794725,4.59098192 37.2717518,4.71168971 C37.4031408,4.88355571 37.4677982,5.08548332 37.4698777,5.28635335 C37.4696884,5.29761943 37.4698795,5.308778 37.4698795,5.31998122 L37.4696488,5.34399653 C37.4692852,5.35908377 37.4685681,5.37417311 37.4674959,5.38925137 L37.4698795,5.31998122 C37.4698795,5.36890087 37.4662351,5.41696931 37.4592029,5.46392986 C37.4578205,5.4734704 37.4562155,5.48316298 37.4544603,5.49283826 C37.4496931,5.51890454 37.4440035,5.54427786 37.437336,5.56925188 C37.4337085,5.58292654 37.4295162,5.59730713 37.4249764,5.61161459 C37.4180878,5.63330078 37.4105836,5.65433561 37.4023842,5.67501917 C37.3972793,5.68785628 37.3919207,5.70055822 37.3862718,5.71317543 C37.3758248,5.73659083 37.3643716,5.75965098 37.3520458,5.78216533 C37.3466996,5.79182491 37.3412428,5.80139148 37.3356054,5.81089093 C37.2961096,5.87763104 37.2486219,5.9392914 37.1945523,5.99447862 L37.2717518,5.90536856 C37.2104545,5.98554969 37.1390339,6.05343104 37.0606499,6.10859086 C37.0499635,6.11590467 37.0391437,6.12320683 37.0281707,6.13029217 C37.0127018,6.14042937 36.9970529,6.14988168 36.9811855,6.15885967 C36.9705028,6.16483936 36.9592665,6.17093353 36.9478983,6.1768081 L36.9343012,6.182 L33.6188381,8.71753495 L33.5927228,8.73682454 C33.1713652,9.03739738 32.5844256,8.9514637 32.267723,8.53719457 C31.9444225,8.11429483 32.0251637,7.50938001 32.4480634,7.18607951 L32.4480634,7.18607951 L33.6283012,6.283 L26.6452824,6.28383665 C23.7071379,6.28383665 21.3253012,3.90199992 21.3253012,0.963855422 C21.3253012,0.431532771 21.756834,0 22.2891566,0 Z" id="Combined-Shape" fill="#000000" fill-rule="nonzero" transform="translate(29.397590, 4.457856) scale(-1, -1) translate(-29.397590, -4.457856) "></path>
                            <path d="M0,33.373544 L8.43373494,33.373544 L8.43373494,42.9442069 C8.43373494,43.3152666 8.13293167,43.6161251 7.76187203,43.6161251 C7.54361787,43.6161251 7.33896362,43.5100542 7.21306278,43.3317739 L6.58131258,42.4371922 C6.35100813,42.1110725 5.89993727,42.033399 5.57381763,42.2637034 C5.5070227,42.3108738 5.4487152,42.3690351 5.40137737,42.4357114 L4.80631081,43.2738752 C4.57518855,43.5994157 4.12392416,43.6759569 3.79838359,43.4448346 C3.73220395,43.3978494 3.67440932,43.3400548 3.62742413,43.2738752 L3.03235757,42.4357114 C2.8012353,42.1101708 2.34997091,42.0336297 2.02443034,42.2647519 C1.95775402,42.3120898 1.89959268,42.3703973 1.85242236,42.4371922 L1.22067216,43.3317739 C1.00662482,43.6348729 0.587394895,43.7070635 0.284295915,43.4930162 C0.106015644,43.3671153 0,43.1624611 0,42.9442069 L0,33.373544 Z" id="Rectangle" fill="#D8D8D8"></path>
                        </g>
                    </g>
                    <g filter="url(#filter-4)" id="line">
                        <g transform="translate(0.000000, 23.484132)">
                            <path d="M21.686747,0 C23.2837149,0 24.5783133,1.29459831 24.5783133,2.89156627 L24.5783133,2.89156627 L24.578,11.445 L44.3373494,11.4457831 C45.8772828,11.4457831 47.1360587,12.6495614 47.224007,14.1674479 L47.2289157,14.3373494 L47.2289157,39.0361446 C47.2289157,40.6331125 45.9343173,41.9277108 44.3373494,41.9277108 L44.3373494,41.9277108 L22.6506024,41.9277108 L22.6510618,41.7630128 C22.3494583,41.869672 22.0248805,41.9277108 21.686747,41.9277108 L21.686747,41.9277108 L2.89156627,41.9277108 C1.29459831,41.9277108 0,40.6331125 0,39.0361446 L0,39.0361446 L0,22.8915663 C0,22.1510596 0.278356011,21.4755664 0.736142106,20.9640127 C0.278710491,20.4530043 0,19.7771226 0,19.0361446 L0,19.0361446 L0,2.89156627 C0,1.29459831 1.29459831,0 2.89156627,0 L2.89156627,0 Z M21.686747,21.9277108 L2.89156627,21.9277108 C2.35924361,21.9277108 1.92771084,22.3592436 1.92771084,22.8915663 L1.92771084,22.8915663 L1.92771084,39.0361446 C1.92771084,39.5684672 2.35924361,40 2.89156627,40 L2.89156627,40 L21.686747,40 C22.2190696,40 22.6506024,39.5684672 22.6506024,39.0361446 L22.6506024,39.0361446 L22.6506024,22.8915663 C22.6506024,22.3592436 22.2190696,21.9277108 21.686747,21.9277108 L21.686747,21.9277108 Z M44.3373494,13.373494 L24.5783133,13.373494 L24.5783133,40 L44.3373494,40 C44.869672,40 45.3012048,39.5684672 45.3012048,39.0361446 L45.3012048,39.0361446 L45.3012048,14.3373494 C45.3012048,13.8050267 44.869672,13.373494 44.3373494,13.373494 L44.3373494,13.373494 Z M21.686747,1.92771084 L2.89156627,1.92771084 C2.35924361,1.92771084 1.92771084,2.35924361 1.92771084,2.89156627 L1.92771084,2.89156627 L1.92771084,19.0361446 C1.92771084,19.5684672 2.35924361,20 2.89156627,20 L2.89156627,20 L21.686747,20 C22.2190696,20 22.6506024,19.5684672 22.6506024,19.0361446 L22.6506024,19.0361446 L22.6506024,2.89156627 C22.6506024,2.35924361 22.2190696,1.92771084 21.686747,1.92771084 L21.686747,1.92771084 Z" id="Combined-Shape" fill="#000000" fill-rule="nonzero"></path>
                        </g>
                    </g>
                </g>
            </g>
        </g>
    </g>
</svg>