<?xml version="1.0" encoding="UTF-8"?>
<svg width="80px" height="80px" viewBox="0 0 80 80" version="1.1" xmlns="http://www.w3.org/2000/svg" xmlns:xlink="http://www.w3.org/1999/xlink">
    <title>6A4B3B65-46C9-4778-B00E-CF679AE532CF</title>
    <defs>
        <filter color-interpolation-filters="auto" id="filter-1">
            <feColorMatrix in="SourceGraphic" type="matrix" values="0 0 0 0 0.376471 0 0 0 0 0.388235 0 0 0 0 0.560784 0 0 0 1.000000 0"></feColorMatrix>
        </filter>
        <filter color-interpolation-filters="auto" id="filter-2">
            <feColorMatrix in="SourceGraphic" type="matrix" values="0 0 0 0 0.767500 0 0 0 0 0.916000 0 0 0 0 0.932500 0 0 0 1.000000 0"></feColorMatrix>
        </filter>
        <filter color-interpolation-filters="auto" id="filter-3">
            <feColorMatrix in="SourceGraphic" type="matrix" values="0 0 0 0 0.954031 0 0 0 0 0.687302 0 0 0 0 0.601039 0 0 0 1.000000 0"></feColorMatrix>
        </filter>
    </defs>
    <g id="擴充功能" stroke="none" stroke-width="1" fill="none" fill-rule="evenodd">
        <g id="切圖" transform="translate(-327.000000, -545.000000)">
            <g id="ext/商品瀏覽權限_fin" transform="translate(327.000000, 545.000000)">
                <rect id="Rectangle" stroke="#979797" stroke-width="0.5" fill="#D8D8D8" opacity="0" x="0.25" y="0.25" width="79.5" height="79.5"></rect>
                <g id="Group" transform="translate(1.325096, 10.000000)">
                    <g filter="url(#filter-1)" id="line">
                        <g>
                            <path d="M31.5666756,0.423059326 C34.2282888,0.423059326 36.3859527,2.58072318 36.3859527,5.24233643 L36.3859527,54.7576636 C36.3859527,57.4192768 34.2282888,59.5769407 31.5666756,59.5769407 L4.81927711,59.5769407 C2.15766386,59.5769407 0,57.4192768 0,54.7576636 L0,5.24233643 C0,2.58072318 2.15766386,0.423059326 4.81927711,0.423059326 L31.5666756,0.423059326 Z M31.5666756,2.35077017 L4.81927711,2.35077017 C3.23827884,2.35077017 1.95363305,3.61960598 1.92809823,5.1945191 L1.92771084,5.24233643 L1.92771084,54.7576636 C1.92771084,56.3386618 3.19654665,57.6233076 4.77145977,57.6492298 L4.81927711,57.6492298 L31.5666756,57.6492298 C33.1476738,57.6492298 34.4323196,56.380394 34.4578544,54.8054809 L34.4582418,54.7576636 L34.4582418,5.24233643 C34.4582418,3.66133816 33.189406,2.37669237 31.6144929,2.35077017 L31.5666756,2.35077017 Z" id="Rectangle" fill="#000000" fill-rule="nonzero"></path>
                            <path d="M60.2435717,0.00173303152 C60.5762706,0.00309646006 60.844871,0.273907455 60.8435127,0.606606317 C60.8421441,0.93930518 60.5713331,1.20790562 60.2386343,1.20654736 C59.9583547,1.20539358 59.6780752,1.20481928 59.3977956,1.20481928 C59.065094,1.20481928 58.795386,0.935111295 58.795386,0.602409639 C58.795386,0.269707982 59.065094,0 59.3977956,0 C59.679721,0 59.9616463,0.000577677185 60.2435717,0.00173303152 Z M64.8353211,0.0716305841 C65.1679073,0.0803931578 65.4304183,0.357111049 65.4216557,0.689697293 C65.4128932,1.02228354 65.1361753,1.28479449 64.803589,1.27603191 C64.5233095,1.26864745 64.24303,1.2618373 63.9627507,1.25560145 C63.6301313,1.2482011 63.3664892,0.97256068 63.3738896,0.639941337 C63.3812899,0.307321995 63.6569303,0.0436799079 63.9895497,0.051080255 C64.2714735,0.0573526938 64.5533974,0.0642028036 64.8353211,0.0716305841 Z M69.4242593,0.243552157 C69.7565691,0.259696412 70.0128718,0.542174177 69.9967276,0.874483905 C69.9805833,1.20679363 69.6981055,1.46309639 69.3657958,1.44695214 C69.0857738,1.43334812 68.8057519,1.42031736 68.5257302,1.40785984 C68.1933573,1.39307335 67.9359026,1.11164504 67.9506891,0.77927213 C67.9654756,0.446899219 68.2469039,0.189444562 68.5792768,0.204231058 C68.8609378,0.216761498 69.1425986,0.229868531 69.4242593,0.243552157 Z M74.1461004,0.765995094 C74.4568031,0.884966794 74.6122317,1.23328666 74.49326,1.5439893 C74.3742883,1.85469193 74.0259684,2.01012056 73.7152658,1.89114886 C73.4860754,1.80338917 73.2489819,1.73571458 73.0060314,1.689083 C72.6792938,1.62636947 72.4652601,1.31065702 72.5279736,0.983919505 C72.5906872,0.657181987 72.9063996,0.443148253 73.2331371,0.505861779 C73.5457217,0.565858803 73.8509796,0.652989849 74.1461004,0.765995094 Z M77.4578724,4.47859744 C77.5406255,4.80084318 77.3464783,5.1291596 77.0242326,5.21191269 C76.7019868,5.29466578 76.3736704,5.10051863 76.2909173,4.77827289 C76.2295491,4.53930126 76.1473283,4.30680911 76.0453642,4.08307648 C75.9073914,3.78033252 76.0409648,3.42306101 76.3437088,3.28508824 C76.6464527,3.14711546 77.0037243,3.28068889 77.141697,3.58343285 C77.2729625,3.87145942 77.3788438,4.17085506 77.4578724,4.47859744 Z M77.6564426,9.18264593 C77.6592413,9.51533582 77.3918116,9.78730303 77.0591217,9.7901017 C76.7264318,9.79290037 76.4544646,9.5254707 76.451666,9.19278082 L76.4445715,8.34943716 C76.4417729,8.01674728 76.7092025,7.74478007 77.0418924,7.7419814 C77.3745823,7.73918273 77.6465495,8.00661239 77.6493482,8.33930228 L77.6564426,9.18264593 Z M77.6949552,13.7607972 C77.6977538,14.0934871 77.4303242,14.3654543 77.0976343,14.368253 C76.7649444,14.3710516 76.4929772,14.103622 76.4901785,13.7709321 L76.4830841,12.9275884 C76.4802854,12.5948985 76.7477151,12.3229313 77.080405,12.3201327 C77.4130949,12.317334 77.6850621,12.5847637 77.6878607,12.9174535 L77.6949552,13.7607972 Z M77.7334677,18.3389485 C77.7362664,18.6716384 77.4688367,18.9436056 77.1361468,18.9464042 C76.803457,18.9492029 76.5314897,18.6817732 76.5286911,18.3490834 L76.5215967,17.5057397 C76.518798,17.1730498 76.7862276,16.9010826 77.1189175,16.8982839 C77.4516074,16.8954853 77.7235746,17.1629149 77.7263733,17.4956048 L77.7334677,18.3389485 Z M77.7719803,22.9170997 C77.7747789,23.2497896 77.5073493,23.5217568 77.1746594,23.5245555 C76.8419695,23.5273542 76.5700023,23.2599245 76.5672036,22.9272346 L76.5601092,22.083891 C76.5573105,21.7512011 76.8247402,21.4792339 77.1574301,21.4764352 C77.49012,21.4736365 77.7620872,21.7410662 77.7648859,22.0737561 L77.7719803,22.9170997 Z M77.8104928,27.495251 C77.8132915,27.8279409 77.5458618,28.0999081 77.213172,28.1027068 C76.8804821,28.1055054 76.6085149,27.8380758 76.6057162,27.5053859 L76.5986218,26.6620422 C76.5958231,26.3293523 76.8632528,26.0573851 77.1959427,26.0545865 C77.5286325,26.0517878 77.8005997,26.3192175 77.8033984,26.6519073 L77.8104928,27.495251 Z M77.8140131,32.0835372 C77.8112144,32.416227 77.5392472,32.6836567 77.2065573,32.680858 C76.8738674,32.6780594 76.6064378,32.4060922 76.6092364,32.0734023 L76.6163309,31.2300586 C76.6191295,30.8973687 76.8910967,30.6299391 77.2237866,30.6327377 C77.5564765,30.6355364 77.8239062,30.9075036 77.8211075,31.2401935 L77.8140131,32.0835372 Z M77.7755005,36.6616884 C77.7727019,36.9943783 77.5007346,37.261808 77.1680448,37.2590093 C76.8353549,37.2562106 76.5679252,36.9842434 76.5707239,36.6515535 L76.5778183,35.8082099 C76.580617,35.47552 76.8525842,35.2080903 77.1852741,35.210889 C77.5179639,35.2136877 77.7853936,35.4856549 77.7825949,35.8183448 L77.7755005,36.6616884 Z M77.736988,41.2398397 C77.7341893,41.5725296 77.4622221,41.8399592 77.1295322,41.8371606 C76.7968423,41.8343619 76.5294126,41.5623947 76.5322113,41.2297048 L76.5393057,40.3863612 C76.5421044,40.0536713 76.8140716,39.7862416 77.1467615,39.7890403 C77.4794514,39.7918389 77.7468811,40.0638061 77.7440824,40.396496 L77.736988,41.2398397 Z M77.6984754,45.817991 C77.6956767,46.1506808 77.4237095,46.4181105 77.0910196,46.4153118 C76.7583298,46.4125132 76.4909001,46.140546 76.4936988,45.8078561 L76.5007932,44.9645124 C76.5035918,44.6318225 76.7755591,44.3643929 77.1082489,44.3671915 C77.4409388,44.3699902 77.7083685,44.6419574 77.7055698,44.9746473 L77.6984754,45.817991 Z M77.6599628,50.3961422 C77.6571642,50.7288321 77.385197,50.9962618 77.0525071,50.9934631 C76.7198172,50.9906644 76.4523875,50.7186972 76.4551862,50.3860073 L76.4622806,49.5426637 C76.4650793,49.2099738 76.7370465,48.9425441 77.0697364,48.9453428 C77.4024263,48.9481415 77.6698559,49.2201087 77.6670573,49.5527986 L77.6599628,50.3961422 Z M77.553709,55.065563 C77.4988767,55.3937151 77.1884066,55.6152847 76.8602545,55.5604524 C76.5321023,55.5056202 76.3105328,55.19515 76.365365,54.8669979 C76.4018083,54.6488975 76.4211917,54.4270731 76.4230778,54.2028642 L76.4237681,54.120815 C76.4265667,53.7881251 76.6985339,53.5206954 77.0312238,53.5234941 C77.3639137,53.5262927 77.6313434,53.79826 77.6285447,54.1309498 L77.6278545,54.2129991 C77.6254366,54.5004213 77.6005478,54.7852486 77.553709,55.065563 Z M74.5757049,59.0449873 C74.2764929,59.190461 73.916004,59.0658314 73.7705304,58.7666194 C73.6250567,58.4674074 73.7496863,58.1069185 74.0488983,57.9614449 C74.270527,57.8536914 74.4821632,57.7266392 74.6814917,57.5818979 C74.950704,57.386411 75.3274171,57.4461771 75.5229041,57.7153893 C75.7183911,57.9846016 75.658625,58.3613147 75.3894127,58.5568017 C75.1331282,58.7429013 74.8609021,58.9063275 74.5757049,59.0449873 Z M69.8430271,59.7329333 C69.5107507,59.7497501 69.2277547,59.4940197 69.2109379,59.1617433 C69.194121,58.8294669 69.4498515,58.546471 69.7821278,58.5296541 C70.061973,58.5154908 70.3418184,58.5007551 70.6216638,58.4854467 C70.9538688,58.4672742 71.2379059,58.7218478 71.2560784,59.0540528 C71.274251,59.3862578 71.0196773,59.6702949 70.6874724,59.6884674 C70.4059907,59.7038652 70.124509,59.7186872 69.8430271,59.7329333 Z M65.2548069,59.9141458 C64.9222391,59.9235839 64.6449886,59.6616355 64.6355506,59.3290678 C64.6261125,58.9965 64.8880609,58.7192495 65.2206286,58.7098114 C65.5007734,58.7018611 65.7809182,58.6933371 66.061063,58.6842392 C66.3935894,58.6734403 66.6719095,58.9342519 66.6827085,59.2667782 C66.6935074,59.5993046 66.4326958,59.8776247 66.1001694,59.8884237 C65.818382,59.8975748 65.5365945,59.9061489 65.2548069,59.9141458 Z M60.6638759,59.993383 C60.3311805,59.9954123 60.0598231,59.727364 60.0577705,59.3946686 C60.0557412,59.0619732 60.3237895,58.7906157 60.6564849,58.7885748 C60.9367561,58.7868554 61.2170273,58.7845618 61.4972986,58.7816939 C61.8299828,58.7782897 62.1024363,59.0452239 62.1058406,59.3779081 C62.1092448,59.7105924 61.8423106,59.9830459 61.5096263,59.9864501 C61.2277095,59.9893348 60.9457927,59.9916419 60.6638759,59.993383 Z M56.0715772,59.970451 C55.7389187,59.9650896 55.473592,59.6910704 55.4789534,59.358412 C55.4843147,59.0257535 55.758334,58.7604268 56.0909924,58.7657882 C56.3713106,58.770306 56.6516288,58.7742493 56.931947,58.7776182 C57.2646246,58.7816163 57.531072,59.054546 57.5270738,59.3872236 C57.5230757,59.7199012 57.250146,59.9863486 56.9174684,59.9823505 C56.6355046,59.9789618 56.3535409,59.9749953 56.0715772,59.970451 Z M51.4817751,59.8454415 C51.1493179,59.8326898 50.8901454,59.5528426 50.9028971,59.2203854 C50.9156489,58.8879282 51.195496,58.6287558 51.5279532,58.6415075 C51.8080292,58.6522501 52.0881051,58.6624192 52.3681809,58.6720149 C52.7006874,58.6834069 52.9610022,58.9621917 52.9496102,59.2946983 C52.9382183,59.6272049 52.6594334,59.8875197 52.3269268,59.8761277 C52.0452095,59.8664758 51.7634922,59.856247 51.4817751,59.8454415 Z M46.895224,59.6185546 C46.5631311,59.5984366 46.3102256,59.3129132 46.3303437,58.9808203 C46.3504618,58.6487275 46.6359852,58.395822 46.968078,58.4159401 C47.2479111,58.4328923 47.5277441,58.449272 47.8075768,58.4650793 C48.139749,58.4838431 48.3938166,58.7683329 48.3750528,59.100505 C48.3562889,59.4326771 48.0717992,59.6867447 47.7396271,59.6679809 C47.4581592,59.6520813 47.1766915,59.6356059 46.895224,59.6185546 Z M42.4123429,57.6241062 C42.2001484,57.3678565 42.2358622,56.9881075 42.4921119,56.775913 C42.7483615,56.5637185 43.1281105,56.5994323 43.340305,56.855682 C43.497588,57.0456196 43.6712147,57.2215567 43.8590511,57.3813102 C44.1124879,57.5968564 44.1432043,57.9770423 43.9276581,58.2304791 C43.7121119,58.4839159 43.3319261,58.5146323 43.0784892,58.2990861 C42.837259,58.0939216 42.6143136,57.8680094 42.4123429,57.6241062 Z M41.1568577,52.9197629 C41.154059,52.587073 41.4214887,52.3151058 41.7541786,52.3123072 C42.0868685,52.3095085 42.3588357,52.5769382 42.3616344,52.909628 L42.3687288,53.7529717 C42.3715274,54.0856616 42.1040978,54.3576288 41.7714079,54.3604275 C41.438718,54.3632261 41.1667508,54.0957965 41.1639521,53.7631066 L41.1568577,52.9197629 Z M41.1183451,48.3416117 C41.1155465,48.0089218 41.3829761,47.7369546 41.715666,47.7341559 C42.0483559,47.7313572 42.3203231,47.9987869 42.3231218,48.3314768 L42.3302162,49.1748204 C42.3330149,49.5075103 42.0655852,49.7794775 41.7328953,49.7822762 C41.4002054,49.7850749 41.1282382,49.5176452 41.1254396,49.1849553 L41.1183451,48.3416117 Z M41.0798326,43.7634604 C41.0770339,43.4307705 41.3444636,43.1588033 41.6771535,43.1560046 C42.0098434,43.153206 42.2818106,43.4206356 42.2846092,43.7533255 L42.2917037,44.5966692 C42.2945023,44.929359 42.0270727,45.2013263 41.6943828,45.2041249 C41.3616929,45.2069236 41.0897257,44.9394939 41.086927,44.606804 L41.0798326,43.7634604 Z M41.04132,39.1853091 C41.0385214,38.8526192 41.305951,38.580652 41.6386409,38.5778534 C41.9713308,38.5750547 42.243298,38.8424844 42.2460967,39.1751742 L42.2531911,40.0185179 C42.2559898,40.3512078 41.9885601,40.623175 41.6558702,40.6259737 C41.3231803,40.6287723 41.0512131,40.3613427 41.0484144,40.0286528 L41.04132,39.1853091 Z M41.0028075,34.6071579 C41.0000088,34.274468 41.2674385,34.0025008 41.6001284,33.9997021 C41.9328182,33.9969034 42.2047855,34.2643331 42.2075841,34.597023 L42.2146785,35.4403666 C42.2174772,35.7730565 41.9500475,36.0450237 41.6173577,36.0478224 C41.2846678,36.0506211 41.0127006,35.7831914 41.0099019,35.4505015 L41.0028075,34.6071579 Z M40.9642949,30.0290066 C40.9614962,29.6963167 41.2289259,29.4243495 41.5616158,29.4215508 C41.8943057,29.4187522 42.1662729,29.6861818 42.1690716,30.0188717 L42.176166,30.8622154 C42.1789647,31.1949052 41.911535,31.4668725 41.5788451,31.4696711 C41.2461552,31.4724698 40.974188,31.2050401 40.9713893,30.8723502 L40.9642949,30.0290066 Z M41.0023816,25.4407204 C41.0051803,25.1080306 41.2771475,24.8406009 41.6098374,24.8433996 C41.9425273,24.8461982 42.2099569,25.1181654 42.2071583,25.4508553 L42.2000638,26.294199 C42.1972652,26.6268889 41.925298,26.8943185 41.5926081,26.8915199 C41.2599182,26.8887212 40.9924885,26.616754 40.9952872,26.2840641 L41.0023816,25.4407204 Z M41.0408942,20.8625692 C41.0436928,20.5298793 41.3156601,20.2624496 41.6483499,20.2652483 C41.9810398,20.268047 42.2484695,20.5400142 42.2456708,20.8727041 L42.2385764,21.7160477 C42.2357777,22.0487376 41.9638105,22.3161673 41.6311206,22.3133686 C41.2984308,22.3105699 41.0310011,22.0386027 41.0337998,21.7059128 L41.0408942,20.8625692 Z M41.0794067,16.2844179 C41.0822054,15.951728 41.3541726,15.6842984 41.6868625,15.687097 C42.0195524,15.6898957 42.2869821,15.9618629 42.2841834,16.2945528 L42.277089,17.1378964 C42.2742903,17.4705863 42.0023231,17.738016 41.6696332,17.7352173 C41.3369433,17.7324187 41.0695136,17.4604514 41.0723123,17.1277616 L41.0794067,16.2844179 Z M41.1179193,11.7062666 C41.120718,11.3735768 41.3926852,11.1061471 41.7253751,11.1089458 C42.0580649,11.1117444 42.3254946,11.3837116 42.3226959,11.7164015 L42.3156015,12.5597452 C42.3128028,12.8924351 42.0408356,13.1598647 41.7081458,13.1570661 C41.3754559,13.1542674 41.1080262,12.8823002 41.1108249,12.5496103 L41.1179193,11.7062666 Z M41.1564318,7.12811537 C41.1592305,6.79542549 41.4311977,6.52799582 41.7638876,6.53079449 C42.0965775,6.53359316 42.3640072,6.80556037 42.3612085,7.13825026 L42.3541141,7.98159391 C42.3513154,8.3142838 42.0793482,8.58171346 41.7466583,8.57891479 C41.4139684,8.57611612 41.1465388,8.30414891 41.1493374,7.97145903 L41.1564318,7.12811537 Z M42.3769977,2.41627993 C42.5865562,2.15787013 42.9659194,2.11826833 43.2243292,2.32782684 C43.482739,2.53738535 43.5223408,2.91674861 43.3127823,3.17515841 C43.176885,3.34273546 43.0539941,3.520427 42.945285,3.70662928 L42.899567,3.78694664 C42.7381641,4.07787528 42.3714769,4.18287659 42.0805482,4.02147362 C41.7896196,3.86007065 41.6846183,3.49338343 41.8460212,3.20245479 C41.999743,2.92537147 42.1774843,2.66230287 42.3769977,2.41627993 Z M47.4823634,0.946503865 C47.5025629,1.27859177 47.2497273,1.56417708 46.9176394,1.58437651 C46.7186447,1.59648047 46.5197717,1.60886652 46.3202128,1.62158515 C46.2489419,1.62614094 46.1780008,1.63245648 46.1074298,1.64051709 C45.7768774,1.67827274 45.4783047,1.44091405 45.4405491,1.11036163 C45.4027934,0.779809211 45.6401521,0.481236529 45.9707045,0.443480883 C46.06118,0.433146792 46.1520831,0.425054127 46.2434678,0.419212627 L46.8444908,0.38177983 C47.1765787,0.3615804 47.462164,0.614415962 47.4823634,0.946503865 Z M51.4308431,0.153773176 C51.7632972,0.140939519 52.0432082,0.400043034 52.0560418,0.732497075 C52.0688755,1.06495112 51.809772,1.3448621 51.4773179,1.35769576 C51.1972146,1.36850853 50.9171113,1.37989488 50.6370078,1.39185482 C50.304609,1.40604768 50.023641,1.1480908 50.0094481,0.815692015 C49.9952552,0.483293225 50.2532121,0.202325182 50.5856109,0.188132325 C50.8673549,0.176102341 51.149099,0.164649291 51.4308431,0.153773176 Z M56.0210419,0.0276245054 C56.3536991,0.0221817095 56.6277832,0.28744134 56.633226,0.620098473 C56.6386688,0.952755607 56.3734092,1.22683975 56.040752,1.23228255 C55.7604964,1.23686797 55.4802407,1.24202761 55.1999849,1.24776144 C54.8673529,1.25456687 54.5921845,0.9904322 54.585379,0.657800153 C54.5785736,0.325168106 54.8427083,0.0499996694 55.1753403,0.0431942473 C55.4572408,0.0374267579 55.7391413,0.0322368439 56.0210419,0.0276245054 Z" id="Rectangle" fill="#000000" fill-rule="nonzero"></path>
                            <path d="M22.048398,48.9156627 C22.3810997,48.9156627 22.6508077,49.1853706 22.6508077,49.5180723 C22.6508077,49.8420186 22.3951081,50.1062431 22.0745293,50.1199254 L14.3375546,50.1204819 C14.004853,50.1204819 13.735145,49.8507739 13.735145,49.5180723 C13.735145,49.1941259 13.9908446,48.9299014 14.3114234,48.9162192 L14.3375546,48.9156627 L22.048398,48.9156627 Z M26.3857474,44.6987952 C26.9180701,44.6987952 27.3496028,45.130328 27.3496028,45.6626506 C27.3496028,46.1849294 26.9342007,46.6101859 26.415769,46.6260474 L10.0002053,46.626506 C9.4678826,46.626506 9.03634983,46.1949733 9.03634983,45.6626506 C9.03634983,45.1403718 9.45175197,44.7151153 9.97018364,44.6992538 L26.3857474,44.6987952 Z" id="Combined-Shape" fill="#000000" fill-rule="nonzero"></path>
                            <path d="M63.2532173,48.974531 C63.585919,48.974531 63.8556269,49.244239 63.8556269,49.5769407 C63.8556269,49.900887 63.5999273,50.1651115 63.2793486,50.1787937 L55.5423739,50.1793503 C55.2096723,50.1793503 54.9399643,49.9096423 54.9399643,49.5769407 C54.9399643,49.2529943 55.1956639,48.9887698 55.5162426,48.9750876 L55.5423739,48.974531 L63.2532173,48.974531 Z M67.5905667,44.7576636 C68.1228893,44.7576636 68.5544221,45.1891963 68.5544221,45.721519 C68.5544221,46.2437978 68.13902,46.6690543 67.6205883,46.6849158 L51.2050245,46.6853744 C50.6727019,46.6853744 50.2411691,46.2538416 50.2411691,45.721519 C50.2411691,45.1992402 50.6565712,44.7739837 51.1750029,44.7581222 L67.5905667,44.7576636 Z" id="Combined-Shape" fill="#000000" fill-rule="nonzero"></path>
                        </g>
                    </g>
                    <g filter="url(#filter-2)" id="B">
                        <g transform="translate(5.272536, 12.439625)">
                            <path d="M8.87531861,0.0833895075 C9.24645793,0.316964921 10.313153,2.68923052 12.9775059,2.68923052 C15.6418589,2.68923052 16.5918605,0.34530286 16.9560432,0.0833895075 C17.1988317,-0.0912193941 18.1920637,0.00838127902 19.9357391,0.382191527 L25.6104004,4.19636983 C25.7849386,4.31368427 25.8632523,4.53062874 25.8038911,4.73237735 L24.4011689,9.49975519 L24.4011689,9.49975519 C24.3258311,9.75580276 24.0571175,9.90231838 23.8009802,9.82700699 C23.786473,9.82274148 23.772174,9.81779786 23.7581304,9.81219245 L20.6191909,8.55926255 L21.7272693,21.6438655 C21.7948338,22.4416924 21.2026127,23.1432115 20.4045064,23.2107524 C20.3638185,23.2141957 20.3230033,23.2159196 20.2821699,23.2159196 L5.61241412,23.2159196 C4.81145301,23.2159196 4.16214573,22.5668397 4.16214573,21.7661591 C4.16214573,21.72534 4.16387027,21.6845391 4.16731475,21.6438655 L5.27504914,8.56300776 L2.14548407,9.81219245 C2.13612166,9.81592939 2.12664574,9.8193722 2.1170703,9.82251605 L2.10263425,9.82700699 C1.8514227,9.90087008 1.58811386,9.76135593 1.5070051,9.51440484 L1.50244561,9.49975519 L0.0997233875,4.73237735 C0.0403621893,4.53062874 0.118675889,4.31368427 0.293214067,4.19636983 L5.96787537,0.382191527 L5.96787537,0.382191527 C7.65874465,0.0272732382 8.62789239,-0.0723274349 8.87531861,0.0833895075 Z" id="Path" fill="#D8D8D8"></path>
                        </g>
                    </g>
                    <g filter="url(#filter-3)" id="A">
                        <g transform="translate(49.397796, 10.420314)">
                            <path d="M10.1204819,-1.77635684e-15 C13.0848537,-1.77635684e-15 15.4935645,2.37906714 15.5414423,5.33202924 L15.5421687,5.42168675 L15.542,8.072 L17.2289157,8.07228916 C18.8258836,8.07228916 20.1204819,9.36688747 20.1204819,10.9638554 L20.1204819,24.5783133 C20.1204819,26.1752812 18.8258836,27.4698795 17.2289157,27.4698795 L2.89156627,27.4698795 C1.29459831,27.4698795 0,26.1752812 0,24.5783133 L0,10.9638554 C0,9.36688747 1.29459831,8.07228916 2.89156627,8.07228916 L4.698,8.072 L4.69879518,5.42168675 C4.69879518,2.42737184 7.12616702,-1.77635684e-15 10.1204819,-1.77635684e-15 Z M10.1204819,13.4939759 C9.53231293,13.4939759 9.05351911,13.9622667 9.03660688,14.5463419 L9.03610959,16.9782289 C8.11287513,17.3926652 7.46987952,18.3200379 7.46987952,19.3975904 C7.46987952,20.8614777 8.65659464,22.0481928 10.1204819,22.0481928 C11.5843692,22.0481928 12.7710843,20.8614777 12.7710843,19.3975904 C12.7710843,18.3366619 12.1477753,17.421315 11.2473824,16.9977749 L11.2049749,16.978283 L11.2048193,14.5783133 C11.2048193,13.9794503 10.7193449,13.4939759 10.1204819,13.4939759 Z M10.1204819,2.89156627 C8.73724959,2.89156627 7.61327275,4.00157105 7.59070728,5.37942478 L7.59,8.072 L12.65,8.072 L12.6506024,5.42168675 C12.6506024,4.02433979 11.5178289,2.89156627 10.1204819,2.89156627 Z" id="Combined-Shape" fill="#919191"></path>
                        </g>
                    </g>
                </g>
            </g>
        </g>
    </g>
</svg>