<?xml version="1.0" encoding="UTF-8"?>
<svg width="80px" height="80px" viewBox="0 0 80 80" version="1.1" xmlns="http://www.w3.org/2000/svg" xmlns:xlink="http://www.w3.org/1999/xlink">
    <title>C67B73FD-DE73-49AB-8FA3-1C3D2A501BF5</title>
    <defs>
        <filter color-interpolation-filters="auto" id="filter-1">
            <feColorMatrix in="SourceGraphic" type="matrix" values="0 0 0 0 0.819608 0 0 0 0 0.905882 0 0 0 0 1.000000 0 0 0 1.000000 0"></feColorMatrix>
        </filter>
        <filter color-interpolation-filters="auto" id="filter-2">
            <feColorMatrix in="SourceGraphic" type="matrix" values="0 0 0 0 0.376471 0 0 0 0 0.388235 0 0 0 0 0.560784 0 0 0 1.000000 0"></feColorMatrix>
        </filter>
        <filter color-interpolation-filters="auto" id="filter-3">
            <feColorMatrix in="SourceGraphic" type="matrix" values="0 0 0 0 0.954031 0 0 0 0 0.687302 0 0 0 0 0.601039 0 0 0 1.000000 0"></feColorMatrix>
        </filter>
    </defs>
    <g id="擴充功能" stroke="none" stroke-width="1" fill="none" fill-rule="evenodd">
        <g id="切圖" transform="translate(-193.000000, -45.000000)">
            <g id="ext/商品滿額折扣_fin" transform="translate(193.000000, 45.000000)">
                <rect id="Rectangle" stroke="#979797" stroke-width="0.5" fill="#D8D8D8" opacity="0" x="0.25" y="0.25" width="79.5" height="79.5"></rect>
                <g id="Group-2" transform="translate(7.590361, 9.638554)">
                    <g filter="url(#filter-1)" id="B">
                        <g transform="translate(0.963855, 0.963855)">
                            <path d="M26.87,25.060241 L24.7353012,50.1204819 L2.89156627,50.1204819 C1.29459831,50.1204819 0,48.8258836 0,47.2289157 L0,27.9518072 C0,26.3548393 1.29459831,25.060241 2.89156627,25.060241 L26.87,25.060241 Z M22.1686747,0 L22.1686747,12.7904871 C22.1686747,13.1897291 21.8450251,13.5133786 21.4457831,13.5133786 C21.2622627,13.5133786 21.085612,13.4435787 20.951658,13.3181352 L19.2401395,11.7153544 C18.9500684,11.4437124 18.4951204,11.4571559 18.2215952,11.7454519 L16.7292385,13.3183981 C16.4544488,13.6080268 15.9968973,13.6200562 15.7072686,13.3452666 C15.6980785,13.3365474 15.6891193,13.3275881 15.6804001,13.3183981 L14.1880434,11.7454519 C13.9145182,11.4571559 13.4595701,11.4437124 13.1694991,11.7153544 L11.4579806,13.3181352 C11.1665685,13.591033 10.709105,13.5760242 10.4362073,13.2846122 C10.3107638,13.1506582 10.2409639,12.9740075 10.2409639,12.7904871 L10.2409639,0 L22.1686747,0 Z" id="Shape" fill="#D8D8D8"></path>
                        </g>
                    </g>
                    <path d="M11.3253012,26.0240964 L22.8915663,26.0240964 L22.8915663,38.6900093 C22.8915663,39.0892513 22.5679167,39.4129009 22.1686747,39.4129009 C21.9723135,39.4129009 21.7844009,39.3330206 21.6481448,39.1916275 L20.0761644,37.5603812 C19.7991283,37.2729005 19.341497,37.2644334 19.0540162,37.5414695 C19.0435815,37.5515251 19.0334516,37.5618922 19.02364,37.5725567 L17.6404281,39.0760238 C17.3701164,39.3698361 16.9128034,39.3888872 16.618991,39.1185754 C16.6042226,39.1049883 16.5900265,39.0907921 16.5764393,39.0760238 L15.1932274,37.5725567 C14.9229157,37.2787443 14.4656027,37.2596933 14.1717903,37.530005 C14.1611258,37.5398165 14.1507587,37.5499465 14.1407031,37.5603812 L12.5687227,39.1916275 C12.2916866,39.4791082 11.8340553,39.4875753 11.5465746,39.2105392 C11.4051814,39.0742831 11.3253012,38.8863705 11.3253012,38.6900093 L11.3253012,26.0240964 L11.3253012,26.0240964 Z" id="Rectangle" fill="#FFFFFF"></path>
                    <g filter="url(#filter-2)" id="line">
                        <g>
                            <path d="M30.3614458,0 C32.4241961,0 34.1085906,1.61993357 34.2118508,3.6570222 L34.2168675,3.85542169 L34.216,16.987 L33.0298215,16.9879518 C32.77826,16.9879518 32.5309071,17.0073068 32.2892421,17.0446582 L32.2891566,3.85542169 C32.2891566,2.79077639 31.4260911,1.92771084 30.3614458,1.92771084 L3.85542169,1.92771084 C2.84147378,1.92771084 2.01036466,2.71053673 1.93351061,3.70477222 L1.92771084,3.85542169 L1.92771084,23.1325301 C1.92771084,24.146478 2.71053673,24.9775871 3.70477222,25.0544412 L3.85542169,25.060241 L27.915,25.06 L27.751,26.987 L3.85542169,26.9879518 C2.84147378,26.9879518 2.01036466,27.7707777 1.93351061,28.7650132 L1.92771084,28.9156627 L1.92771084,48.1927711 C1.92771084,49.206719 2.71053673,50.0378281 3.70477222,50.1146822 L3.85542169,50.1204819 L25.781,50.12 L25.617,52.048 L3.85542169,52.0481928 C1.79267142,52.0481928 0.108276903,50.4282592 0.00501665077,48.3911706 L0,48.1927711 L0,28.9156627 C0,27.7640396 0.504922326,26.7303475 1.30546337,26.02389 C0.558291729,25.3649149 0.0686368377,24.4205225 0.00667028179,23.3612202 L0,23.1325301 L0,3.85542169 C0,1.79267142 1.61993357,0.108276903 3.6570222,0.00501665077 L3.85542169,0 L30.3614458,0 Z" id="Combined-Shape" fill="#363B4A" fill-rule="nonzero"></path>
                            <path d="M43.4337349,7.10843373 C47.0897934,7.10843373 50.0605368,10.0426165 50.1195861,13.6846031 L50.1204819,13.7951807 L50.1198714,16.0234337 L53.7171664,16.0240964 C56.6907953,16.0240964 59.1743734,18.2778017 59.4711104,21.226813 L59.4794314,21.3163882 L59.6936901,23.8316966 C59.7388707,24.3620984 59.3455212,24.8287002 58.8151194,24.8738808 C58.2947251,24.918209 57.8357461,24.5403992 57.7759402,24.0251845 L57.7729351,23.9953101 L57.5586764,21.4800018 C57.3904195,19.5047358 55.7528424,17.982513 53.7771386,17.9522661 L50.1198714,17.9514337 L50.1204819,22.1686747 C50.1204819,22.7009973 49.6889492,23.1325301 49.1566265,23.1325301 C48.6343477,23.1325301 48.2090912,22.717128 48.1932297,22.1986963 L48.1927711,22.1686747 L48.1918714,17.9514337 L38.6738714,17.9514337 L38.6746988,22.1686747 C38.6746988,22.7009973 38.243166,23.1325301 37.7108434,23.1325301 C37.1885645,23.1325301 36.7633081,22.717128 36.7474466,22.1986963 L36.7468714,17.9514337 L33.0298215,17.9518072 C31.0474023,17.9518072 29.3916836,19.4542774 29.1938588,21.420285 L29.1883116,21.4800018 L26.345494,54.8534958 C26.3362237,54.9623252 26.3315823,55.0714994 26.3315823,55.1807229 C26.3315823,57.2887206 28.0233633,59.0015816 30.1232475,59.0356281 L56.559984,59.0361446 C56.6692075,59.0361446 56.7783817,59.0315032 56.8872111,59.0222329 C59.0088185,58.8415103 60.5822165,56.9751031 60.401494,54.8534958 L60.3503402,54.252972 C60.3051596,53.7225702 60.6985091,53.2559684 61.2289109,53.2107878 C61.7493052,53.1664596 62.2082842,53.5442694 62.2680901,54.0594841 L62.3222489,54.6898822 C62.5933328,57.8722933 60.2332357,60.671904 57.0508247,60.9429878 C56.9202294,60.9541122 56.7893031,60.9607928 56.6582727,60.9630201 L56.559984,60.9638554 L30.1870039,60.9638554 C26.993068,60.9638554 24.4038714,58.3746588 24.4038714,55.1807229 C24.4038714,55.0496547 24.4083272,54.9186338 24.4172291,54.7878872 L24.424739,54.6898822 L27.2675566,21.3163882 C27.5199419,18.3534893 29.9763076,16.070155 32.9398633,16.0247846 L33.0298215,16.0240964 L36.7468714,16.0234337 L36.746988,13.7951807 C36.746988,10.1021923 39.7407466,7.10843373 43.4337349,7.10843373 Z M43.4337349,9.03614458 C40.8316753,9.03614458 38.7173624,11.1244368 38.6753364,13.7164814 L38.6746988,13.7951807 L38.6738714,16.0234337 L48.1918714,16.0234337 L48.1927711,13.7951807 C48.1927711,11.1668376 46.062078,9.03614458 43.4337349,9.03614458 Z" id="Combined-Shape" fill="#000000" fill-rule="nonzero"></path>
                        </g>
                    </g>
                    <g id="badge_discount" transform="translate(40.963855, 25.783133)">
                        <g filter="url(#filter-3)" id="A">
                            <g transform="translate(0.120482, 0.000000)">
                                <path d="M14.3336011,0 C12.5035074,0 11.0637483,1.92607764 9.47041499,2.58516734 C7.8194913,3.26985274 5.44548862,2.94990629 4.20409639,4.19769746 C2.95630522,5.44548862 3.27625167,7.81309237 2.59156627,9.46401606 C1.92607764,11.0637483 0,12.4971084 0,14.3336011 C0,16.1636948 1.92607764,17.6034538 2.58516734,19.1967871 C3.26985274,20.8477108 2.94990629,23.2217135 4.19769746,24.4631058 C5.44548862,25.7108969 7.81309237,25.3909505 9.46401606,26.0756359 C11.0573494,26.7347256 12.4971084,28.6608032 14.3272021,28.6608032 C16.1572959,28.6608032 17.5970549,26.7347256 19.1903882,26.0756359 C20.8413119,25.3909505 23.2153146,25.7108969 24.4567068,24.4631058 C25.704498,23.2153146 25.3845515,20.8477108 26.0692369,19.1967871 C26.7283266,17.6034538 28.6544043,16.1636948 28.6544043,14.3336011 C28.6544043,12.5035074 26.7283266,11.0637483 26.0692369,9.47041499 C25.3845515,7.8194913 25.704498,5.44548862 24.4567068,4.20409639 C23.2217135,2.94990629 20.8477108,3.26985274 19.1967871,2.58516734 C17.6034538,1.92607764 16.1636948,0 14.3336011,0 L14.3336011,0 Z" id="Path" fill="#919191"></path>
                            </g>
                        </g>
                        <path d="M18.8554217,14.1566265 C20.5854703,14.1566265 21.9879518,15.559108 21.9879518,17.2891566 C21.9879518,19.0192052 20.5854703,20.4216867 18.8554217,20.4216867 C17.1253731,20.4216867 15.7228916,19.0192052 15.7228916,17.2891566 C15.7228916,15.559108 17.1253731,14.1566265 18.8554217,14.1566265 Z M18.247395,8.25220011 C18.6054875,8.4767666 18.7194101,8.94347386 18.5099286,9.30657238 L18.4947878,9.33173238 L11.8080409,19.994383 C11.5782519,20.3608032 11.0949288,20.4715648 10.7285086,20.2417758 C10.3704161,20.0172093 10.2564935,19.550502 10.4659751,19.1874035 L10.4811158,19.1622435 L17.1678628,8.49959292 C17.3976517,8.13317268 17.8809748,8.02241115 18.247395,8.25220011 Z M18.8554217,15.7228916 C17.9903974,15.7228916 17.2891566,16.4241323 17.2891566,17.2891566 C17.2891566,18.1541809 17.9903974,18.8554217 18.8554217,18.8554217 C19.720446,18.8554217 20.4216867,18.1541809 20.4216867,17.2891566 C20.4216867,16.4241323 19.720446,15.7228916 18.8554217,15.7228916 Z M10.060241,8.13253012 C11.7902896,8.13253012 13.1927711,9.53501163 13.1927711,11.2650602 C13.1927711,12.9951089 11.7902896,14.3975904 10.060241,14.3975904 C8.33019235,14.3975904 6.92771084,12.9951089 6.92771084,11.2650602 C6.92771084,9.53501163 8.33019235,8.13253012 10.060241,8.13253012 Z M10.060241,9.69879518 C9.19521666,9.69879518 8.4939759,10.4000359 8.4939759,11.2650602 C8.4939759,12.1300845 9.19521666,12.8313253 10.060241,12.8313253 C10.9252653,12.8313253 11.626506,12.1300845 11.626506,11.2650602 C11.626506,10.4000359 10.9252653,9.69879518 10.060241,9.69879518 Z" id="Combined-Shape" fill="#FFFFFF"></path>
                    </g>
                </g>
            </g>
        </g>
    </g>
</svg>