<?xml version="1.0" encoding="UTF-8"?>
<svg width="80px" height="80px" viewBox="0 0 80 80" version="1.1" xmlns="http://www.w3.org/2000/svg" xmlns:xlink="http://www.w3.org/1999/xlink">
    <title>4FD6D119-BC13-46E4-92C6-FF28A1C4CA90</title>
    <defs>
        <filter color-interpolation-filters="auto" id="filter-1">
            <feColorMatrix in="SourceGraphic" type="matrix" values="0 0 0 0 0.819608 0 0 0 0 0.905882 0 0 0 0 1.000000 0 0 0 1.000000 0"></feColorMatrix>
        </filter>
        <filter color-interpolation-filters="auto" id="filter-2">
            <feColorMatrix in="SourceGraphic" type="matrix" values="0 0 0 0 0.954031 0 0 0 0 0.687302 0 0 0 0 0.601039 0 0 0 1.000000 0"></feColorMatrix>
        </filter>
        <filter color-interpolation-filters="auto" id="filter-3">
            <feColorMatrix in="SourceGraphic" type="matrix" values="0 0 0 0 0.376471 0 0 0 0 0.388235 0 0 0 0 0.560784 0 0 0 1.000000 0"></feColorMatrix>
        </filter>
    </defs>
    <g id="擴充功能" stroke="none" stroke-width="1" fill="none" fill-rule="evenodd">
        <g id="切圖" transform="translate(-59.000000, -170.000000)">
            <g id="ext/廣告分析_fin" transform="translate(59.000000, 170.000000)">
                <rect id="Rectangle" stroke="#979797" stroke-width="0.5" fill="#D8D8D8" opacity="0" x="0.25" y="0.25" width="79.5" height="79.5"></rect>
                <g id="Group-2" transform="translate(6.024096, 7.831325)">
                    <g filter="url(#filter-1)" id="B">
                        <g transform="translate(0.000000, 8.915663)">
                            <path d="M44.3373494,5.90361446 L47.2289157,5.90361446 C47.7612383,5.90361446 48.1927711,6.33514723 48.1927711,6.86746988 L48.1927711,28.6746988 C48.1927711,29.2070214 47.7612383,29.6385542 47.2289157,29.6385542 L44.3373494,29.6385542 C43.8050267,29.6385542 43.373494,29.2070214 43.373494,28.6746988 L43.373494,6.86746988 C43.373494,6.33514723 43.8050267,5.90361446 44.3373494,5.90361446 Z" id="Rectangle-Copy-3" fill="#D8D8D8"></path>
                            <path d="M53.4939759,13.4939759 L56.3855422,13.4939759 C56.9178648,13.4939759 57.3493976,13.9255087 57.3493976,14.4578313 L57.3493976,28.6746988 C57.3493976,29.2070214 56.9178648,29.6385542 56.3855422,29.6385542 L53.4939759,29.6385542 C52.9616533,29.6385542 52.5301205,29.2070214 52.5301205,28.6746988 L52.5301205,14.4578313 C52.5301205,13.9255087 52.9616533,13.4939759 53.4939759,13.4939759 Z" id="Rectangle-Copy-4" fill="#D8D8D8"></path>
                            <path d="M62.6506024,0 L65.5421687,0 C66.0744913,0 66.5060241,0.431532771 66.5060241,0.963855422 L66.5060241,28.6746988 C66.5060241,29.2070214 66.0744913,29.6385542 65.5421687,29.6385542 L62.6506024,29.6385542 C62.1182798,29.6385542 61.686747,29.2070214 61.686747,28.6746988 L61.686747,0.963855422 C61.686747,0.431532771 62.1182798,0 62.6506024,0 Z" id="Rectangle-Copy-5" fill="#D8D8D8"></path>
                            <path d="M5.78313253,6.98795181 L33.9759036,6.98795181 C37.1698395,6.98795181 39.7590361,9.57714843 39.7590361,12.7710843 L39.7590361,15.1807229 L0,15.1807229 L0,12.7710843 C0,9.57714843 2.58919663,6.98795181 5.78313253,6.98795181 Z" id="Rectangle" fill="#D8D8D8"></path>
                        </g>
                    </g>
                    <g filter="url(#filter-2)" id="A">
                        <g transform="translate(5.783133, 27.951807)">
                            <path d="M27.2289157,0 C27.7612383,0 28.1927711,0.431532771 28.1927711,0.963855422 L28.1927711,14.0098795 L25.5192018,12.7104866 C25.1968214,12.5538117 24.8333166,12.504088 24.4814428,12.567793 L24.4335371,12.5771838 C23.5345441,12.7669504 22.9551634,13.6400734 23.1240618,14.5384907 L23.1315334,14.5759377 L25.1920482,24.3373494 L0.963855422,24.3373494 C0.431532771,24.3373494 0,23.9058166 0,23.373494 L0,0.963855422 C0,0.431532771 0.431532771,0 0.963855422,0 L27.2289157,0 Z" id="Path" fill="#919191"></path>
                        </g>
                    </g>
                    <path d="M18.4510047,44.9978158 L18.489581,44.9968675 C18.7629753,44.9968675 18.9812498,44.9111245 19.1444045,44.7396386 C19.3075591,44.5681526 19.3362214,44.2962249 19.2303914,43.9238554 L19.2303914,43.9238554 L16.4788101,35.0604819 C16.4347142,34.9036948 16.3399081,34.7640562 16.1943918,34.6415663 C16.0488755,34.5190763 15.8526489,34.4578313 15.6057121,34.4578313 C15.3587754,34.4578313 15.1625488,34.5190763 15.0170325,34.6415663 C14.8715162,34.7640562 14.7767101,34.9036948 14.7326142,35.0604819 L14.7326142,35.0604819 L12.0074904,43.8944578 C11.884022,44.2962249 11.9038652,44.5804016 12.0670198,44.746988 C12.2301745,44.9135743 12.448449,44.9968675 12.7218433,44.9968675 C12.9952376,44.9968675 13.2024881,44.9258233 13.3435948,44.7837349 C13.4847015,44.6416466 13.5949412,44.453012 13.6743137,44.2178313 L13.6743137,44.2178313 L14.256379,42.5274699 L16.9418165,42.5274699 L17.5767968,44.2913253 C17.6473502,44.4873092 17.7487707,44.6563454 17.8810582,44.7984337 C18.0133458,44.9405221 18.2161867,45.0066667 18.489581,44.9968675 L18.4510047,44.9978158 Z M16.6243264,40.866506 L14.5870979,40.866506 L15.6057121,37.2212048 L16.6243264,40.866506 Z M23.828577,44.8498795 C24.4811956,44.8498795 25.0500321,44.7273896 25.5350865,44.4824096 C26.0201409,44.2374297 26.4258228,43.8895582 26.7521321,43.4387952 C27.0784414,42.9880321 27.3209686,42.4466265 27.4797137,41.8145783 C27.6384588,41.1825301 27.7178313,40.4794378 27.7178313,39.7053012 C27.7178313,38.9801606 27.6406636,38.3064659 27.4863281,37.6842169 C27.3319926,37.0619679 27.093875,36.523012 26.7719752,36.0673494 C26.4500755,35.6116867 26.0399841,35.2540161 25.5417009,34.9943373 C25.0434178,34.7346586 24.4503285,34.6048193 23.7624332,34.6048193 L23.7624332,34.6048193 L21.3151133,34.6048193 C20.9976231,34.6048193 20.7991918,34.6611647 20.7198192,34.7738554 C20.6404467,34.8865462 20.6007604,35.0506827 20.6007604,35.2662651 L20.6007604,35.2662651 L20.6007604,44.1884337 C20.6007604,44.4040161 20.6426515,44.5681526 20.7264336,44.6808434 C20.8102157,44.7935341 21.0064423,44.8498795 21.3151133,44.8498795 L21.3151133,44.8498795 L23.828577,44.8498795 Z M23.828577,43.3212048 L22.3204987,43.3212048 L22.3204987,36.133494 L23.4978581,36.133494 C23.9829125,36.133494 24.3841847,36.2118876 24.7016749,36.3686747 C25.019165,36.5254618 25.274921,36.7532932 25.4689427,37.0521687 C25.6629645,37.3510442 25.7996617,37.7209639 25.8790342,38.1619277 C25.9584067,38.6028916 25.998093,39.1026506 25.998093,39.6612048 C25.998093,42.1012048 25.274921,43.3212048 23.828577,43.3212048 L23.828577,43.3212048 Z" id="AD" fill="#FFFFFF"></path>
                    <g filter="url(#filter-3)" id="line">
                        <g>
                            <path d="M68.373494,40.9638554 L68.4035156,40.9643141 C68.9219473,40.9801756 69.3373494,41.405432 69.3373494,41.9277108 C69.3373494,42.4600335 68.9058166,42.8915663 68.373494,42.8915663 L68.373494,42.8915663 L43.1627495,42.8911076 C42.6443178,42.8752461 42.2289157,42.4499897 42.2289157,41.9277108 C42.2289157,41.3953882 42.6604484,40.9638554 43.1927711,40.9638554 L43.1927711,40.9638554 L68.373494,40.9638554 Z M28.6144578,0 C29.1467805,0 29.5783133,0.431532771 29.5783133,0.963855422 L29.5783133,0.963855422 L29.5778546,12.6362699 C29.5619931,13.1547015 29.1367367,13.5701037 28.6144578,13.5701037 C28.0821352,13.5701037 27.6506024,13.1385709 27.6506024,12.6062483 L27.6506024,12.6062483 L27.6510611,0.933833816 C27.6669225,0.415402141 28.092179,0 28.6144578,0 Z M64.0814233,2.35947004 C64.1467496,2.72906749 64.0141995,3.12578209 63.6274464,3.35720886 L63.6722105,3.32875068 C63.6666727,3.33248594 63.6610846,3.3361723 63.6554464,3.33980884 L63.6346024,3.352 L63.6274464,3.35720886 L63.3756024,3.507 L53.5161701,9.42397541 C52.0147945,10.3248008 50.0973321,10.0999427 48.8452858,8.88254018 L48.8063772,8.8441734 L47.179923,7.21771919 C46.5648664,6.60266258 45.6158016,6.47683838 44.8631263,6.9055415 L44.8250265,6.92781818 L34.712767,12.9951739 C34.2563041,13.2690516 33.664246,13.1210371 33.3903683,12.6645742 C33.1219681,12.2172406 33.2587532,11.6396813 33.6939512,11.3589863 L33.7209679,11.3421755 L43.8332275,5.27481977 C45.3346031,4.37399439 47.2520655,4.5988525 48.5041118,5.81625501 L48.5430204,5.85462178 L50.1694746,7.48107599 C50.7845312,8.0961326 51.7335959,8.2219568 52.4862713,7.79325368 L52.5243711,7.770977 L57.7896024,4.611 L56.8244722,3.19303045 C56.4157247,2.5926485 56.7938063,1.78885954 57.4879787,1.69565529 L57.6001431,1.68697722 L63.1114645,1.56649529 C63.1278353,1.56613741 63.1440381,1.56614279 63.1600701,1.56650182 C63.1756037,1.56697972 63.192205,1.56788155 63.2087586,1.56920883 C63.6399577,1.59856443 63.9393792,1.88741937 64.0504728,2.2361128 C64.0539262,2.24623462 64.0569563,2.25623677 64.0598165,2.26626488 C64.0636948,2.28075796 64.0674968,2.29532846 64.0709733,2.30997668 L64.0814233,2.35947004 L64.0814233,2.35947004 Z" id="Combined-Shape" fill="#000000" fill-rule="nonzero"></path>
                            <path d="M34.2095655,15.9036145 C37.2444267,15.9036145 39.7092989,18.3452267 39.7582929,21.3744641 L39.7590361,21.4664372 L39.7590361,44.6184076 C39.7590361,44.6687529 39.7551762,44.7181967 39.7477361,44.7664592 L47.999524,48.7770258 C49.0767699,49.3005607 49.5256413,50.59825 49.0021064,51.6754959 C48.8576505,51.9727341 48.6471728,52.2330262 48.3867497,52.436491 L45.0496779,55.0436973 L50.8354123,62.4490995 C51.4908733,63.2880515 51.3421246,64.4995126 50.5031727,65.1549737 L48.0347053,67.0835518 C47.1957533,67.7390129 45.9842922,67.5902642 45.3288311,66.7513122 L39.5430967,59.34591 L36.2060249,61.9531162 C35.262204,62.6905099 33.8993102,62.5231676 33.1619165,61.5793467 C32.9584517,61.3189236 32.8171964,61.0154441 32.7489399,60.692088 L32.195,58.0716145 L5.54947061,58.0722892 C2.51460944,58.0722892 0.0497372417,55.6306769 0.00074328389,52.6014395 L0,21.4664372 C0,18.4255177 2.43452358,15.9534962 5.45768149,15.9043599 L34.2095655,15.9036145 Z M30.902422,42.611193 L34.6350871,60.2939451 C34.6426711,60.3298735 34.6583662,60.3635935 34.6809734,60.3925294 C34.7591818,60.4926316 34.9007156,60.5141234 35.0046296,60.4446102 L35.0192076,60.4340593 L38.3562794,57.8268531 C39.1852439,57.1791951 40.377901,57.3167131 41.0385095,58.1294238 L41.0621536,58.1590927 L46.847888,65.5644949 L49.3163554,63.6359168 L43.530621,56.2305146 C42.882963,55.4015501 43.020481,54.208893 43.8331917,53.5482845 L43.8628606,53.5246404 L47.1999324,50.9174342 C47.2288683,50.894827 47.2522547,50.8659056 47.2683054,50.8328791 C47.3237059,50.7188849 47.2811063,50.5826741 47.1735274,50.5197102 L47.1569073,50.5108269 L30.902422,42.611193 Z M34.2694395,17.8318121 L34.2095655,17.8313253 L5.54947061,17.8313253 C3.56985242,17.8313253 1.9601915,19.4258193 1.92819624,21.4063055 L1.92771084,21.4664372 L1.92771084,52.5094664 C1.92771084,54.4976272 3.51757558,56.1120028 5.48959666,56.1440915 L31.788,56.1436145 L28.9146659,42.5277449 C28.7222637,41.6162658 29.3051906,40.7213932 30.2166696,40.528991 C30.5833183,40.4515959 30.9653002,40.4984974 31.3023343,40.6622939 L37.831,43.8346145 L37.8313253,21.4664372 C37.8313253,19.4782764 36.2414606,17.8639008 34.2694395,17.8318121 Z" id="Combined-Shape" fill="#000000" fill-rule="nonzero"></path>
                            <path d="M5.54216867,20.1204819 C5.94141066,20.1204819 6.26506024,20.4441315 6.26506024,20.8433735 C6.26506024,21.2426155 5.94141066,21.5662651 5.54216867,21.5662651 C5.14292669,21.5662651 4.81927711,21.2426155 4.81927711,20.8433735 C4.81927711,20.4441315 5.14292669,20.1204819 5.54216867,20.1204819 Z M8.43373494,20.1204819 C8.83297693,20.1204819 9.15662651,20.4441315 9.15662651,20.8433735 C9.15662651,21.2426155 8.83297693,21.5662651 8.43373494,21.5662651 C8.03449295,21.5662651 7.71084337,21.2426155 7.71084337,20.8433735 C7.71084337,20.4441315 8.03449295,20.1204819 8.43373494,20.1204819 Z M11.3253012,20.1204819 C11.7245432,20.1204819 12.0481928,20.4441315 12.0481928,20.8433735 C12.0481928,21.2426155 11.7245432,21.5662651 11.3253012,21.5662651 C10.9260592,21.5662651 10.6024096,21.2426155 10.6024096,20.8433735 C10.6024096,20.4441315 10.9260592,20.1204819 11.3253012,20.1204819 Z" id="Combined-Shape" fill="#919191"></path>
                        </g>
                    </g>
                </g>
            </g>
        </g>
    </g>
</svg>