<svg xmlns="http://www.w3.org/2000/svg" xmlns:xlink="http://www.w3.org/1999/xlink" viewBox="0 0 720 424"><defs><style>.cls-1,.cls-16{fill:none;}.cls-2{clip-path:url(#clip-path);}.cls-3{fill:#e6e6e6;}.cls-14,.cls-4{fill:#d2d2d2;}.cls-5{fill:#aaa;}.cls-6,.cls-7,.cls-9{isolation:isolate;}.cls-7{font-size:24px;fill:#080808;letter-spacing:0.07em;}.cls-7,.cls-9{font-family:PingFangTC-Regular-B5pc-H, PingFang TC;}.cls-8{fill:#fbf9fa;}.cls-9{font-size:14px;fill:#5a5a5a;letter-spacing:0.02em;}.cls-10{fill:#dbdbdb;}.cls-10,.cls-11,.cls-12,.cls-13,.cls-14,.cls-15{stroke:#999;}.cls-10,.cls-11,.cls-12,.cls-15{stroke-linecap:round;stroke-linejoin:round;}.cls-11{fill:gray;}.cls-12{fill:#ccc;}.cls-13{fill:#adadad;}.cls-13,.cls-14,.cls-16{stroke-miterlimit:10;}.cls-15{fill:#ededed;}.cls-16{stroke:gray;}.cls-17{fill:#666;}</style><clipPath id="clip-path"><rect class="cls-1" x="-900" width="864" height="648"/></clipPath></defs><title>product2.6</title><g id="圖層_5" data-name="圖層 5"><g id="景物"><g class="cls-2"><path class="cls-3" d="M7.86,68.62H-120.09c2.62-4.51,6.6-1.68,9.42-4.3,2.52-2.3.63-9.94,2.83-13.3,7-10.57,21.36-13,30-4.81,1.36-18.85,9.42-34.87,30.68-35.6,9.63-.32,17.06,2.82,22.61,11.1,4.82,7,2.73,16.44,3.25,24.39C-10.25,45-8.16,51.65-7.84,61.29c5.34.83,5.23-.74,9.21,2.2C3.36,64.74,6.08,67.25,7.86,68.62Z"/><path class="cls-4" d="M-.49,316.25l1.26-1.37-1.26-1.15-.21-.21L-42.47,358q4.08-38.16,10.68-76c-1.16.62-2.41,1.36-3.56,2.09-2.1,12.36-4,24.82-5.76,37.28l-10-24.82-1.57,1.57,10.89,27.23c-.73,5.44-1.36,10.89-2.1,16.23l-19.47-30.27c-.42.63-.84,1.26-1.26,2l19.9,30.89.62-.42c-.73,6-1.36,11.94-2,17.91l-.84.84.63.63c-1,10.26-2,20.62-2.83,30.88l-28.06-46-.21.21,2.3-5,.94-2-1.88-.84-.32.74-9.11,19.89q.48-15.24.32-30.47c-.73-.73-1.36-1.46-2.1-2.2.21,12.46,0,24.92-.41,37.28h.1l-21.78,47.54c-4.08-15.71-8.38-31.31-12.88-47l20.21-50.47c-.52-.42-1.15-.84-1.78-1.25l-6.39,16-2.61-21.57a16.61,16.61,0,0,0-2.31-1.16l3.14,26.18h.32l-11.63,29.11q-8.79-30.78-18.53-61.25c-1,.1-2.09.21-3.14.41,2,6.29,4,12.57,6,19l-22.41-10.47-1.57,1.57,24.71,11.62q6.75,21.83,13,44l-.21.63.41.21c1,3.56,2,7.12,3,10.68l-47.54-36a9.61,9.61,0,0,0,1,2.4,89.22,89.22,0,0,0-9.22-6.17l20.63,15.6h0a116.09,116.09,0,0,1,2.93,30.05h.31q-8.48,14.76-16.33,29.84c-11.73-29.95-24.5-59.47-38-88.48L-212,326a1510.07,1510.07,0,0,1,62.62,154.87l2.93-1.05c-5-14.76-10.26-29.42-15.81-44l.1.11,43-46.91q12.72,46.34,23.45,92.77l3-.73c-5-21.57-10.26-43-15.92-64.5l30.16-66.07,29,47.43c-1.88,25.23-2.93,50.57-3.24,75.81h3.14c.21-17.7.84-35.39,1.78-53.19L-3,378.44l-1.47-1.57-43.14,40.52c1-18.63,2.62-37.38,4.51-55.91Zm-154,40.62,12,9.22c-3.25,5.23-6.39,10.47-9.53,15.81A118,118,0,0,0-154.51,356.87ZM-163,433.52c-2-5.34-4.09-10.79-6.18-16.13,8.69-17.06,18.22-33.92,28.37-50.15l19.9,15.08c.31,1.36.73,2.61,1.05,4Z"/><path class="cls-5" d="M19.3,398.55V514.36H-940.88l8.06-15.71c-7.85-5.45-10.89-15.18-4.92-21.89s21.36-7.53,26.91-.62a343.9,343.9,0,0,1-23.56-65c-.94-3.77-1.67-8.06,1.57-11,2.1-2,5.55-2.83,8.9-3.46a79.66,79.66,0,0,1,18.64-.94c.63,0,1.26.1,1.89.1a61.85,61.85,0,0,1,7.75,1.16c.73.1,1.46.31,2.2.42a59.55,59.55,0,0,1,8.79,2.51l.94.31a63.21,63.21,0,0,1,7.65,3.35c-3.88-2.41-2.31-7.75,2.09-9.84a16.64,16.64,0,0,1,2.41-.84,3.21,3.21,0,0,1,1-.21,28.73,28.73,0,0,1,8-.31,3.71,3.71,0,0,1,1,.1c1.15.11,2.41.32,3.56.42,5.76.84,11.52,1.89,17.17,3.25.42.1.84.21,1.16.31,3.66.84,7.22,1.89,10.68,2.93.62.21,1.36.42,2,.63A170.5,170.5,0,0,1-784,420.22c-4.4-4.5-2.2-10.68,3-14.87.32-.21.63-.52,1-.73a21,21,0,0,1,8.48-3.56c.42-.1.73-.1,1.15-.21a16.22,16.22,0,0,1,2.2-.21c9.63-.73,19.37,2.62,27.85,6.49.1,0,.1.11.21.11a3.14,3.14,0,0,1,.84.42l5.65,2.82a4.23,4.23,0,0,1,.94.53c4.61,2.41,9.22,5.13,13.62,8a5.27,5.27,0,0,1,.83.62c16.86,11.1,31.63,25,40.94,39.58,16.44-11.2,43.56-11.93,61-1.78-3.46-6.8,9.63-11.62,19.26-10.89a74.92,74.92,0,0,1,33.4,10.27c-2.61-6.29,9.85-9.95,18.43-8.7,16.44,2.41,31.1,11,38.33,22.41,17.9-.84,35.18,10.79,36.12,24.29,18.12-5.44,40.31-7.32,59.68-4.18-4.18-2.1-6.7-6.5-5.34-10.27,1.89-5.54,9.32-9.21,16.86-10.05s15.08.53,22.52,1.89c-6.5-6.7,2.09-16.86,12.77-18.64s21.57,1.78,31.52,5.34c-.11-12.36,12.35-24.08,28.37-26.6s33.72,4.3,40.32,15.61c2.93-10.27,18.43-16.23,32.35-15.71s26.6,5.86,38.74,11.1c-6.91-4.92-14.45-10.79-13.71-17.91.94-8.37,13.61-13.61,24.71-12.67s20.52,6.08,29.53,11c-2.62-2.31-2.52-5.24-.74-7.86.21-.31.53-.62.84-1a13,13,0,0,1,2.83-2.41,13.15,13.15,0,0,1,2.09-1.15,12.2,12.2,0,0,1,3.35-1.15c.42-.11.84-.21,1.36-.32a16.87,16.87,0,0,1,4.61-.1,17.73,17.73,0,0,1,4.19,1c.94.32,1.78.74,2.62,1.05,6.18,3,10.47,8.59,13.09,13.93.1-.21.21-.32.31-.53.52-.73,1-1.57,1.68-2.3,6.49-8.17,18.42-14.24,30.78-13.72h0a4.48,4.48,0,0,1,1.15.11c.53,0,.94.1,1.47.1a24.6,24.6,0,0,1,5.65,1.26c.73.21,1.36.52,2,.73a26.39,26.39,0,0,1,5.13,2.83l.94.63c4.09,3.24,6.92,7.43,7.23,11.72a8.34,8.34,0,0,1,0,1.58h0a11.34,11.34,0,0,1-2.3,6.17,234.26,234.26,0,0,1,25-14.45c.32-.21.63-.31.94-.52,2.62-1.26,5.24-2.51,8-3.77.94-.42,1.78-.84,2.72-1.26h0A265.86,265.86,0,0,1,19.3,398.55Z"/></g></g></g><g id="圖層_1" data-name="圖層 1"><g id="產品尺寸" class="cls-6"><text class="cls-7" transform="translate(308.4 39.1)">尺寸規格</text></g><rect id="Rectangle" class="cls-8" x="392.04" y="89" width="304.67" height="294"/><g id="尺寸" class="cls-6"><text class="cls-9" transform="translate(405.69 121.21)">商品材質：防水防刮皮革 <tspan x="0" y="24.07">內裡材質：絲織內裡</tspan><tspan x="0" y="48.14">尺寸：W33cm / H26cm / D16cm</tspan><tspan x="0" y="72.21">手提高度：23 公分</tspan><tspan x="0" y="96.28">重量：210g</tspan><tspan x="0" y="120.35">功能：肩背 / 斜背／手提</tspan><tspan x="0" y="144.42">容量：可放置A4資料</tspan><tspan x="0" y="168.49">收納：收納插袋X2 / 拉鍊夾層X1 / 票卡層X1</tspan><tspan x="0" y="192.56">包面硬度：表面硬挺，可站立</tspan><tspan x="0" y="216.63">背帶：可拆卸，調整長度 70～120 公分</tspan><tspan x="0" y="240.7">所屬配件：專屬防塵袋</tspan></text></g><path class="cls-10" d="M91,318.21c8.62-1.38,22.62-.38,30.62-2.38,1.94-.48,3,3.32,1,8C95.52,326.18,82.51,319.56,91,318.21Z"/><path class="cls-11" d="M167.62,346.83c-19-5-33-173-33-173l-21,7s6,78-5,142C104.14,348.93,142.62,345.83,167.62,346.83Z"/><g id="包包"><path class="cls-12" d="M195.62,95.83c-8,23-14.73,77.78-10,79h-12C172.62,169.83,177.62,105.83,195.62,95.83Z"/><path class="cls-13" d="M320.62,325.83c28-7-10-140-10-140l-175-4s12.49,166,33,165C188.68,345.81,303.2,326.73,320.62,325.83Z"/><polygon class="cls-14" points="310.39 186.17 135.62 184.83 134.62 173.83 308.62 177.83 310.39 186.17"/><path class="cls-12" d="M258.62,141.83c-.62,7.48,2.62,28.09,2,35l5.1,0S265.77,138.09,258.62,141.83Z"/><path class="cls-10" d="M219.54,88c42.59,5,59.3,107.22,59.3,107.22a102.94,102.94,0,0,0-10.48,1.47c-.12-6.9-11.25-63.26-26.07-84.62-11.57-16.67-20.66-22.62-30-21.67s-16.23,8.51-22,27c-7.43,23.61,0,80.34,2.14,87a103.48,103.48,0,0,0-10.61.66s-16.9-102.23,22.69-115.52a30.06,30.06,0,0,1,7.36-1.93A31.87,31.87,0,0,1,219.54,88Z"/><path class="cls-15" d="M273.85,199.58l-5.15.75s-1.92,14.86.93,20.25c2,3.81,8.38,7.17,8.38,7.17s5.58-5.09,6.41-9.32c1.17-6-5-19.67-5-19.67l-5.15.75Z"/><path class="cls-15" d="M274.48,203.43l-3.81.55s-1.42,11,.69,15c1.49,2.82,6.2,5.31,6.2,5.31s4.12-3.77,4.74-6.89c.87-4.42-3.67-14.55-3.67-14.55l-3.81.55Z"/><polygon class="cls-15" points="279.68 192.03 266.68 193.92 267.76 201.25 280.76 199.36 279.68 192.03"/><path class="cls-15" d="M186.59,204.89l5.19-.44s5.31,14,3.79,19.92c-1.08,4.17-6.49,8.89-6.49,8.89s-6.61-3.69-8.4-7.62c-2.53-5.55.27-20.27.27-20.27l5.18-.44Z"/><path class="cls-15" d="M186.87,208.78l3.84-.33s3.93,10.38,2.8,14.74c-.8,3.09-4.8,6.58-4.8,6.58s-4.89-2.74-6.21-5.64c-1.87-4.1.2-15,.2-15l3.83-.33Z"/><polygon class="cls-15" points="179.16 198.87 192.26 197.75 192.9 205.13 179.81 206.25 179.16 198.87"/></g><path class="cls-15" d="M122.86,177.8a6.7,6.7,0,0,0-5.63,7.87l1,6.45A7.27,7.27,0,0,0,126,198.4a6.71,6.71,0,0,0,5.64-7.86l-1-6.45A7.3,7.3,0,0,0,122.86,177.8Zm5.9,11.76a4,4,0,0,1-3.39,4.72,4.36,4.36,0,0,1-4.67-3.77l-.59-3.87a4,4,0,0,1,3.38-4.72,4.38,4.38,0,0,1,4.68,3.77Z"/><path class="cls-15" d="M120.62,186.83c-3.56-1.43-2.85-5.91-2-8l7.18-2.65c-1.67,4.94.5,8,1.82,8.65Z"/><path class="cls-10" d="M95.62,322.83c-27.95-1.39,22-67,27.24-103.78,1.5-10.59-.86-25.21-1.36-26.14l6.2-1c10.72,30.42-7,59.15-11.08,68.88C91.62,311.83,94.13,320.05,95.62,322.83Z"/><line class="cls-16" x1="169.06" y1="364.23" x2="172.51" y2="374.11"/><line class="cls-16" x1="333.34" y1="338.71" x2="336.78" y2="348.59"/><line class="cls-16" x1="170.91" y1="369.35" x2="334.35" y2="343.76"/><path class="cls-17" d="M254.61,369.85a2.3,2.3,0,0,1,.81,1.85,2,2,0,0,1-1.52,2.07,2.53,2.53,0,0,1,1.25.79,2,2,0,0,1,.46,1.36,2.7,2.7,0,0,1-.88,2.07,3.34,3.34,0,0,1-2.33.81,3.38,3.38,0,0,1-2.16-.67,3.26,3.26,0,0,1-1.1-2.38h1.08a2.16,2.16,0,0,0,.72,1.67,2.26,2.26,0,0,0,1.46.47,2.21,2.21,0,0,0,1.59-.57,1.85,1.85,0,0,0,.56-1.36,1.57,1.57,0,0,0-.55-1.29,2.16,2.16,0,0,0-1.5-.46h-.75v-.83h.71a2.14,2.14,0,0,0,1.41-.41,1.52,1.52,0,0,0,.5-1.21,1.58,1.58,0,0,0-.48-1.21,2.43,2.43,0,0,0-2.87,0,2.25,2.25,0,0,0-.64,1.44h-1a3,3,0,0,1,3.13-2.85A3.27,3.27,0,0,1,254.61,369.85Z"/><path class="cls-17" d="M263.78,369.85a2.32,2.32,0,0,1,.8,1.85,2,2,0,0,1-1.51,2.07,2.49,2.49,0,0,1,1.24.79,2,2,0,0,1,.47,1.36,2.7,2.7,0,0,1-.88,2.07,3.78,3.78,0,0,1-4.49.14,3.27,3.27,0,0,1-1.11-2.38h1.08a2.17,2.17,0,0,0,.73,1.67,2.5,2.5,0,0,0,3.05-.1,1.85,1.85,0,0,0,.55-1.36,1.6,1.6,0,0,0-.54-1.29,2.18,2.18,0,0,0-1.51-.46h-.75v-.83h.71A2.17,2.17,0,0,0,263,373a1.55,1.55,0,0,0,.49-1.21,1.58,1.58,0,0,0-.48-1.21,2.41,2.41,0,0,0-2.86,0,2.2,2.2,0,0,0-.64,1.44H258.5a3.08,3.08,0,0,1,1-2.1,3,3,0,0,1,2.13-.75A3.3,3.3,0,0,1,263.78,369.85Z"/><path class="cls-17" d="M272.5,372.32a2.68,2.68,0,0,1,.95,1.83h-1a1.85,1.85,0,0,0-.62-1.17,2,2,0,0,0-1.3-.38,1.86,1.86,0,0,0-1.54.74,3.18,3.18,0,0,0-.54,2,3.05,3.05,0,0,0,.53,1.93,1.81,1.81,0,0,0,1.54.71,1.79,1.79,0,0,0,2-1.73h1a3.24,3.24,0,0,1-1,1.95,3,3,0,0,1-2,.65,2.86,2.86,0,0,1-2.35-1,3.74,3.74,0,0,1-.79-2.49,3.82,3.82,0,0,1,.79-2.5,2.84,2.84,0,0,1,2.36-1.07A3.17,3.17,0,0,1,272.5,372.32Z"/><path class="cls-17" d="M281.12,373a2.48,2.48,0,0,1,.94-1,2.18,2.18,0,0,1,1.18-.31,2.26,2.26,0,0,1,1.7.67,2.61,2.61,0,0,1,.63,1.82v4.4h-1v-4.23a2,2,0,0,0-.37-1.32,1.54,1.54,0,0,0-1.25-.45,1.37,1.37,0,0,0-1.1.49,1.83,1.83,0,0,0-.45,1.31v4.2h-1v-4.23c0-1.19-.52-1.77-1.54-1.77a1.44,1.44,0,0,0-1.19.57,2,2,0,0,0-.46,1.35v4.08h-1v-6.7h1v.89a2.22,2.22,0,0,1,1.89-1.08A2.08,2.08,0,0,1,281.12,373Z"/><path class="cls-17" d="M28.61,253.78a2.54,2.54,0,0,1,.83,2,3.17,3.17,0,0,1-.9,2.18,13.33,13.33,0,0,1-1.92,1.49,4.62,4.62,0,0,0-2,2.13h4.87v.95H23.28a3.34,3.34,0,0,1,.92-2.3,11.74,11.74,0,0,1,2-1.65,11.85,11.85,0,0,0,1.46-1.15,2.47,2.47,0,0,0,.71-1.66,1.67,1.67,0,0,0-.51-1.31,2,2,0,0,0-1.41-.47,1.72,1.72,0,0,0-1.46.65,2.84,2.84,0,0,0-.58,1.85H23.36a3.49,3.49,0,0,1,.87-2.47A3,3,0,0,1,26.5,253,3.05,3.05,0,0,1,28.61,253.78Z"/><path class="cls-17" d="M38.62,255.52h-1a1.76,1.76,0,0,0-1.92-1.58A1.88,1.88,0,0,0,33.94,255a4.82,4.82,0,0,0-.61,2.59c0,.05,0,.17,0,.34h0a2.66,2.66,0,0,1,2.44-1.52,2.82,2.82,0,0,1,2.14.85,3.39,3.39,0,0,1-.07,4.48,3,3,0,0,1-2.25.91,2.88,2.88,0,0,1-2.54-1.26,5.73,5.73,0,0,1-.81-3.31,6.66,6.66,0,0,1,.87-3.6A2.8,2.8,0,0,1,35.66,253,2.66,2.66,0,0,1,38.62,255.52Zm-4.51,2.41a2.45,2.45,0,0,0,0,3.18,2,2,0,0,0,1.54.66,2,2,0,0,0,1.52-.63,2.4,2.4,0,0,0,.59-1.65,2.19,2.19,0,0,0-.57-1.57,2.2,2.2,0,0,0-3,0Z"/><path class="cls-17" d="M46.5,256.18a2.68,2.68,0,0,1,1,1.83h-1a1.85,1.85,0,0,0-.62-1.17,2,2,0,0,0-1.3-.37,1.83,1.83,0,0,0-1.54.74,3.17,3.17,0,0,0-.54,1.94,3.06,3.06,0,0,0,.53,1.94,1.84,1.84,0,0,0,1.54.71,1.8,1.8,0,0,0,2-1.74h1a3.24,3.24,0,0,1-1,2,3,3,0,0,1-2,.65,2.89,2.89,0,0,1-2.35-1,3.77,3.77,0,0,1-.79-2.49,3.83,3.83,0,0,1,.79-2.51,2.86,2.86,0,0,1,2.36-1.06A3.17,3.17,0,0,1,46.5,256.18Z"/><path class="cls-17" d="M55.12,256.87a2.48,2.48,0,0,1,.94-1,2.1,2.1,0,0,1,1.18-.31,2.29,2.29,0,0,1,1.7.66,2.62,2.62,0,0,1,.63,1.83v4.4h-1v-4.23a2,2,0,0,0-.37-1.32,1.51,1.51,0,0,0-1.25-.46,1.4,1.4,0,0,0-1.1.49,1.85,1.85,0,0,0-.45,1.31v4.21h-1v-4.23c0-1.2-.52-1.78-1.54-1.78a1.44,1.44,0,0,0-1.19.57,2,2,0,0,0-.46,1.35v4.09h-1v-6.71h1v.9A2.22,2.22,0,0,1,53,255.6,2.06,2.06,0,0,1,55.12,256.87Z"/><path class="cls-17" d="M100.29,371.23v9.26H99.23v-8a5,5,0,0,1-2.18,1.27v-1.06a5.73,5.73,0,0,0,1.3-.56,5.15,5.15,0,0,0,1.11-.94Z"/><path class="cls-17" d="M110,373.52H109a1.76,1.76,0,0,0-1.92-1.58,1.88,1.88,0,0,0-1.71,1.08,4.82,4.82,0,0,0-.61,2.59c0,.05,0,.17,0,.34h0a2.66,2.66,0,0,1,2.44-1.52,2.82,2.82,0,0,1,2.14.85,3.39,3.39,0,0,1-.07,4.48,3,3,0,0,1-2.25.91,2.88,2.88,0,0,1-2.54-1.26,5.73,5.73,0,0,1-.81-3.31,6.66,6.66,0,0,1,.87-3.6,2.8,2.8,0,0,1,2.49-1.46A2.66,2.66,0,0,1,110,373.52Zm-4.51,2.41a2.45,2.45,0,0,0,0,3.18,2,2,0,0,0,1.54.66,2,2,0,0,0,1.52-.63,2.4,2.4,0,0,0,.59-1.65,2.19,2.19,0,0,0-.57-1.57,2.2,2.2,0,0,0-3,0Z"/><path class="cls-17" d="M117.92,374.18a2.68,2.68,0,0,1,1,1.83h-1a1.81,1.81,0,0,0-.62-1.17,2,2,0,0,0-1.3-.37,1.83,1.83,0,0,0-1.54.74,3.17,3.17,0,0,0-.54,1.94,3.13,3.13,0,0,0,.53,1.94,1.84,1.84,0,0,0,1.54.71,1.8,1.8,0,0,0,2-1.74h1a3.24,3.24,0,0,1-1,2,3,3,0,0,1-2,.65,2.89,2.89,0,0,1-2.35-1,3.77,3.77,0,0,1-.79-2.49,3.83,3.83,0,0,1,.79-2.51,2.87,2.87,0,0,1,2.36-1.06A3.17,3.17,0,0,1,117.92,374.18Z"/><path class="cls-17" d="M126.54,374.87a2.48,2.48,0,0,1,.94-1,2.1,2.1,0,0,1,1.18-.31,2.29,2.29,0,0,1,1.7.66,2.62,2.62,0,0,1,.63,1.83v4.4h-1v-4.23a2,2,0,0,0-.37-1.32,1.51,1.51,0,0,0-1.25-.46,1.4,1.4,0,0,0-1.1.49,1.85,1.85,0,0,0-.45,1.31v4.21h-1v-4.23c0-1.2-.52-1.78-1.54-1.78a1.44,1.44,0,0,0-1.19.57,2,2,0,0,0-.46,1.35v4.09h-1v-6.71h1v.9a2.22,2.22,0,0,1,1.89-1.08A2.06,2.06,0,0,1,126.54,374.87Z"/><path class="cls-17" d="M28.61,128.78a2.54,2.54,0,0,1,.83,2,3.17,3.17,0,0,1-.9,2.18,13.33,13.33,0,0,1-1.92,1.49,4.62,4.62,0,0,0-2,2.13h4.87v1H23.28a3.34,3.34,0,0,1,.92-2.3,11.74,11.74,0,0,1,2-1.65,11.85,11.85,0,0,0,1.46-1.15,2.47,2.47,0,0,0,.71-1.66,1.67,1.67,0,0,0-.51-1.31,2,2,0,0,0-1.41-.47,1.72,1.72,0,0,0-1.46.65,2.84,2.84,0,0,0-.58,1.85H23.36a3.49,3.49,0,0,1,.87-2.47A3,3,0,0,1,26.5,128,3.05,3.05,0,0,1,28.61,128.78Z"/><path class="cls-17" d="M37.78,128.78a2.57,2.57,0,0,1,.83,2,3.14,3.14,0,0,1-.91,2.18,12.77,12.77,0,0,1-1.92,1.49,4.59,4.59,0,0,0-2,2.13h4.86v1H32.45a3.34,3.34,0,0,1,.92-2.3,11,11,0,0,1,2-1.65,11.52,11.52,0,0,0,1.45-1.15,2.43,2.43,0,0,0,.71-1.66,1.67,1.67,0,0,0-.5-1.31,2,2,0,0,0-1.42-.47,1.73,1.73,0,0,0-1.46.65,2.84,2.84,0,0,0-.57,1.85H32.53a3.49,3.49,0,0,1,.86-2.47,3,3,0,0,1,2.27-.94A3.09,3.09,0,0,1,37.78,128.78Z"/><path class="cls-17" d="M46.5,131.18a2.68,2.68,0,0,1,1,1.83h-1a1.85,1.85,0,0,0-.62-1.17,2,2,0,0,0-1.3-.37,1.83,1.83,0,0,0-1.54.74,3.17,3.17,0,0,0-.54,1.94,3.06,3.06,0,0,0,.53,1.94,1.84,1.84,0,0,0,1.54.71,1.8,1.8,0,0,0,2-1.74h1a3.24,3.24,0,0,1-1,2,3,3,0,0,1-2,.65,2.89,2.89,0,0,1-2.35-1,3.77,3.77,0,0,1-.79-2.49,3.83,3.83,0,0,1,.79-2.51,2.86,2.86,0,0,1,2.36-1.06A3.17,3.17,0,0,1,46.5,131.18Z"/><path class="cls-17" d="M55.12,131.87a2.48,2.48,0,0,1,.94-1,2.1,2.1,0,0,1,1.18-.31,2.29,2.29,0,0,1,1.7.66,2.62,2.62,0,0,1,.63,1.83v4.4h-1v-4.23a2,2,0,0,0-.37-1.32,1.51,1.51,0,0,0-1.25-.46,1.4,1.4,0,0,0-1.1.49,1.85,1.85,0,0,0-.45,1.31v4.21h-1v-4.23c0-1.2-.52-1.78-1.54-1.78a1.44,1.44,0,0,0-1.19.57,2,2,0,0,0-.46,1.35v4.09h-1v-6.71h1v.9A2.22,2.22,0,0,1,53,130.6,2.06,2.06,0,0,1,55.12,131.87Z"/><line class="cls-16" x1="61.78" y1="336.5" x2="76.18" y2="336.5"/><line class="cls-16" x1="61.78" y1="180.33" x2="76.18" y2="180.33"/><line class="cls-16" x1="68.98" y1="336.5" x2="68.98" y2="180.33"/><line class="cls-16" x1="61.78" y1="180.5" x2="76.18" y2="180.5"/><line class="cls-16" x1="61.78" y1="87.33" x2="76.18" y2="87.33"/><line class="cls-16" x1="68.98" y1="180.5" x2="68.98" y2="87.33"/><line class="cls-16" x1="151.54" y1="374.33" x2="154.56" y2="364.39"/><line class="cls-16" x1="94.69" y1="351.83" x2="97.71" y2="341.89"/><line class="cls-16" x1="153.05" y1="369.36" x2="96.2" y2="346.86"/></g></svg>