<svg xmlns="http://www.w3.org/2000/svg" xmlns:xlink="http://www.w3.org/1999/xlink" viewBox="0 0 864 648"><defs><style>.cls-1,.cls-24,.cls-26{fill:none;}.cls-2{clip-path:url(#clip-path);}.cls-3{fill:#f5f5f5;}.cls-4{fill:#e6e6e6;}.cls-5{fill:#e8e8e8;}.cls-6{fill:#f0f0f0;}.cls-7{fill:#e9e9e9;}.cls-8{fill:#e0e0e0;}.cls-25,.cls-9{fill:#ccc;}.cls-10{fill:#d9d9d9;}.cls-11{fill:#8b8b8b;}.cls-12{fill:#aaa;}.cls-13,.cls-28{fill:#d2d2d2;}.cls-14{fill:#dcdcdc;}.cls-15{fill:#b9b9b9;}.cls-16{fill:#999;}.cls-17,.cls-30{fill:#fff;}.cls-17,.cls-18,.cls-19,.cls-20,.cls-21,.cls-22,.cls-23,.cls-24,.cls-25,.cls-26,.cls-27,.cls-28,.cls-29{stroke:#999;}.cls-17,.cls-18,.cls-19,.cls-20,.cls-21,.cls-22,.cls-25,.cls-26,.cls-29{stroke-linecap:round;stroke-linejoin:round;}.cls-18{fill:#e3e3e3;}.cls-19{fill:#ededed;}.cls-20{fill:#b3b3b3;}.cls-21{fill:#666;}.cls-22{fill:#525252;}.cls-23{fill:gray;}.cls-23,.cls-24,.cls-27,.cls-28{stroke-miterlimit:10;}.cls-27{fill:#adadad;}.cls-29{fill:#dbdbdb;}</style><clipPath id="clip-path"><rect class="cls-1" width="864" height="648"/></clipPath></defs><title>product2.5</title><g id="圖層_5" data-name="圖層 5"><g id="景物"><g class="cls-2"><rect id="背景" class="cls-3" width="864" height="648"/><rect class="cls-3" x="-10.43" width="881.54" height="623.33"/><path class="cls-4" d="M-56.61,134H227.78c-27.22-.52-54.45-2-81.46-4.29-4-.31-8.69-1.15-10.47-4.71-1-2.3-.84-5.34-2.73-6.91-1.46-1.15-3.56-1.05-5.34-.84-5.65.63-11.2,1.26-16.86,2a10.29,10.29,0,0,0-4-11.83c-3.88-2.41-8.38-3.67-11.42-.42,4.09-9.32-2.83-20.73-12.25-24.71s-20.21-2.51-30.05,0c2.09-6.6,2.51-14.35-1.36-20.11S38.78,54.17,34,59.19c-.52-7.64-1.46-16-7-21.36C20.35,31.44,9.78,32.07.77,33.64c-11.62,2-24.71,6.18-29.21,17.07-6.08,14.56-18.22,23.87-18,39.69.1,8.69,2.09,17.59,0,26-3.67-.52-7.33,1.78-9.32,4.82C-58,124.32-56.19,130.29-56.61,134Z"/><path class="cls-5" d="M146.21,129.66c-4-.31-8.69-1.15-10.47-4.71-1.05-2.3-.84-5.34-2.72-6.91-1.47-1.15-3.56-1.05-5.34-.84-5.66.63-11.21,1.26-16.86,2a10.28,10.28,0,0,0-4-11.83c-3.87-2.41-8.38-3.67-11.41-.42,4.08-9.32-2.83-20.73-12.25-24.71s-20.21-2.51-30.06,0c2.1-6.6,2.52-14.35-1.36-20.11s-13.08-7.95-17.9-2.93c-.53-7.64-1.47-16-7-21.36C20.25,31.44,9.67,32.07.67,33.64A91.92,91.92,0,0,0-9.7,36.05a4,4,0,0,0-1.36,1.89c-.94,2.82,2.62,5,5.55,5.44,4.4.63,9-.21,13.19,1.15S15.53,51,13.13,54.69a10.64,10.64,0,0,0-7.86,6.39c3.35-.95,6.91-2,10.37-1.57s7,2.4,8.17,5.76c4.5-.42,9.42.41,12.88,3.35s5.23,8.16,3.24,12.25c-3.87-4.3-8.27-8.17-13.72-10.16S14.28,69,9.88,72.8a8.21,8.21,0,0,1,10.26,3.36C28.2,74.27,37.21,81,37.73,89.24c.42-1.46,1-2.93,1.36-4.29a6.47,6.47,0,0,1,2.41,6.91,6.69,6.69,0,0,0,2.72-6.7c4.72-.31,9.64.1,13.83,2.3s7.43,6.6,7.33,11.31c2.82-1,6.17.53,8,3s2.2,5.65,2.31,8.79a14.9,14.9,0,0,0-12.67.32A14.13,14.13,0,0,0,43.28,97.2a7.45,7.45,0,0,1,8,5.87,22.74,22.74,0,0,0-23.45,1.15,17.6,17.6,0,0,1,18.42,2.41c6.39-2.83,14.66,2.61,14.77,9.63a11.19,11.19,0,0,1,11.83-4A11.51,11.51,0,0,1,81,121.7a7.69,7.69,0,0,0-3.14-9.11,17.27,17.27,0,0,1,11.83,1.78,8.79,8.79,0,0,0-.94-2.72,24,24,0,0,1,10.57.63c3.67,1.26,6.91,4.4,7.23,8.27a9.06,9.06,0,0,0-7.86,5.24c3.14-2.52,7.65-2.73,11.52-1.78s7.54,2.93,11.31,4.29c6.91,2.51,14.24,2.93,21.57,3.46,10.37.73,20.84,1.36,31.2,2.09h53.51C200.56,133.43,173.33,132,146.21,129.66Z"/><path class="cls-6" d="M78.05,126.1A168,168,0,0,1,39,124.53a23,23,0,0,0,14.45-4.19l-28.9-1.57-6.07-.31c-2.2-.11-5.45,1.25-4.3,3.14a3.49,3.49,0,0,0,2,1.15c2.41.63,4.82,1.36,7.23,2-9.53,3.25-19.9-.94-29.95-1.68,1.36-3.66-2-7.74-5.86-8.69s-7.86.42-11.52,1.78c-4.82,1.68-9.63,3.35-14.45,5.13a81.33,81.33,0,0,0-8.69.21,42.4,42.4,0,0,1-9,0c-1.78,3.15-.1,8.9-.52,12.46H79.72c-6.28-.94-12.56-2.09-18.85-3.56A29.28,29.28,0,0,0,78.05,126.1Z"/><path class="cls-7" d="M197.52,212.8H19c7.85,0,12.56-3.87,20-6.07a3.86,3.86,0,0,0,1.47-.63c.94-.84.94-2.3,1.25-3.46a5.48,5.48,0,0,1,7.23-3.45,14.11,14.11,0,0,1,9.53-13.82A14.31,14.31,0,0,1,74.28,191a7.39,7.39,0,0,1,10.89-.21c2.09-8.58,7.74-16.33,15.6-20.21a26.05,26.05,0,0,1,25.23.94c7.44,4.72,11.73,14,10.05,22.73a9,9,0,0,1,10.16.52,9.1,9.1,0,0,1,2.93,9.74c4-1.89,8.17-3.77,12.46-3.77s9.11,2.51,10.16,6.8C180.56,206.1,190.29,207.67,197.52,212.8Z"/><path class="cls-5" d="M66.11,204.53a5.33,5.33,0,0,1,5.55,1.36c.73.84.63,2.41,1.25,3s2.2.1,3,.21c1.36.1,2.62.73,3.88.94C80.14,204,69.46,203.17,66.11,204.53Z"/><path class="cls-5" d="M171.86,207.46c-1-4.29-5.75-6.81-10.15-6.81s-8.48,1.89-12.46,3.77a8.86,8.86,0,0,0-2.93-9.73,9,9,0,0,0-10.16-.53c1.67-8.58-2.72-18-10-22.72A26.07,26.07,0,0,0,101.92,170a13.54,13.54,0,0,1,6.49,2.31c2,1.36,3,3.45,4.08,5.55.63,1.46,1.16,4.71,2.52,5.65s3.77-.31,5.23-.52a10.66,10.66,0,0,1,6.29.94c3,1.68,5.23,5.65,3.77,9-3.15.2-8,.73-7.12,5.44,2-.1,3.56-1,5.54-.42s1.89,1.68,2.83,2.72c1.78,1.78,4.5-.41,6.08,2.41,1-2.62-1.16-3.66-2.62-5.23,4.6-4.09,9.63.1,11.62,4.5a8.49,8.49,0,0,0-5,1.15c2.41-.1,4.61,3.46,3.67,5.66,6.49-2.83,13.82-4.3,20.31-.32a19.35,19.35,0,0,0-6.49,1.78c3-.73,7.12.42,9.95,1.26a25.33,25.33,0,0,1,3,1.15h25.55C190.29,207.67,180.56,206.1,171.86,207.46Z"/><path class="cls-5" d="M83.91,198.14c-.52-1.78,0-2.51-2.09-3.35a9.31,9.31,0,0,0-6.08.21,25.56,25.56,0,0,0-1.36-4l-.1.11a14.23,14.23,0,0,0-15.19-5.87,12,12,0,0,1,4.82,1.89c2.51,1.67,3.46,4.71,4.19,7.54-3,1.36-.32,2.61,1.57,2.3,1.46-.31,2.83-1.26,4.19,0-1,1-2.62,1.15-2.73,3.14,4.3.52,11.42-3.77,13.72,2.09.84,2,.42,4.3.53,6.39,1.36-.21,2.51-1.67,3.76-2.41,1-.52,4.3-1.36,4.82-2.4.32-.63-.21-2.83-.52-3.46C92,197.83,86.32,197.72,83.91,198.14Z"/><path class="cls-5" d="M48.94,199.08a5.29,5.29,0,0,0-5.24.63c2.1.53,4,2.31,5.45,4,.62.73.83,1.68,1.78,1.78,1.15.11,1.46-.84,1.46-1.47,0-1.36-1.88-3.35-3.45-4.92Z"/><path class="cls-6" d="M137.42,210.92c.1-.63-.21-1.58-.11-2.1-3.45-.21-7,.32-10.37-.31.63-1.57,6.6-4.71.74-4.92-2.52-.11-5.24,2.19-7.44,3-3,1.15-7.33,2.62-10.57,1.68s-1.47-3.14-3.35-4.19c-.74-.42-2,.31-2.62.52-1.26.42-2.2,1.78-3.67,2.1s-2.61-.42-4.08.21a3.7,3.7,0,0,0,3.46,2C94,211.86,85.38,211,79.2,211c-.74,0-9.74,1.15-7.54-1.78a21.64,21.64,0,0,0-10-1.57c1.15.94,3.14.63,4,1.78-7.86.73-14.35-1.36-21.89,1.05-6.28,2-12.77,2.4-19.27,2.4H160c-1.88-.31-3.87-.62-5.86-.83C148.51,211.65,143,211.33,137.42,210.92Z"/><path class="cls-7" d="M740.75,173.53H443.58c13,0,20.84-6.38,33.3-10.15a5.25,5.25,0,0,0,2.41-1.15c1.57-1.37,1.47-3.77,2-5.87,1.26-4.92,7.54-7.85,12.15-5.65-.53-10.05,6.28-20,15.81-23a23.86,23.86,0,0,1,26.38,9.43c4.3-5.34,13.62-5.55,18.12-.32,3.45-14.24,12.88-27.12,26-33.71s29.63-6.29,42,1.57,19.59,23.45,16.76,37.8a14.66,14.66,0,0,1,21.78,17.06c6.59-3.14,13.51-6.28,20.83-6.28s15.19,4.19,17,11.2C712.58,162.33,728.71,165,740.75,173.53Z"/><path class="cls-5" d="M522.12,159.61c3.45-.94,7-.42,9.32,2.3,1.25,1.47,1,4,2.09,5s3.66.21,4.92.31c2.3.21,4.29,1.26,6.49,1.57C545.47,158.77,527.67,157.51,522.12,159.61Z"/><path class="cls-5" d="M698,164.53c-1.78-7.12-9.64-11.2-17-11.2s-14.24,3.14-20.83,6.28a14.67,14.67,0,0,0-21.78-17.07c2.83-14.34-4.5-29.84-16.76-37.8-11.83-7.54-27.53-8.17-40.31-2.41a22.44,22.44,0,0,1,10.89,3.88c3.35,2.3,5.13,5.65,6.7,9.21,1.15,2.41,2,8,4.19,9.32s6.28-.63,8.69-.94c3.46-.42,7.44-.11,10.47,1.57,5,2.72,8.8,9.32,6.29,15-5.24.32-13.3,1.26-11.84,9,3.35-.21,6-1.68,9.32-.63,3.14.94,3,2.72,4.82,4.5,2.93,3,7.54-.73,10.05,4,1.78-4.29-1.88-6.18-4.4-8.8,7.75-6.91,16,.21,19.37,7.54-2.82-.1-6,.21-8.27,2,4-.1,7.65,5.66,6.08,9.43,10.78-4.61,23-7.12,33.82-.63a32.16,32.16,0,0,0-10.89,2.93c5.13-1.15,11.83.73,16.65,2.09a44.87,44.87,0,0,1,5.13,1.89H741C728.71,165,712.58,162.33,698,164.53Z"/><path class="cls-5" d="M551.75,149c-.84-3,0-4.19-3.56-5.65-3.35-1.26-6.91-.73-10.05.31a42.23,42.23,0,0,0-2.31-6.7l-.1.11a23.47,23.47,0,0,0-25.24-9.74,19.66,19.66,0,0,1,8.07,3.14c4.18,2.83,5.76,7.85,6.91,12.46-5,2.2-.53,4.4,2.72,3.77,2.41-.52,4.71-2,6.91,0-1.78,1.78-4.29,1.88-4.61,5.23,7.23.84,19-6.17,22.83,3.36,1.36,3.35.63,7.12.84,10.57,2.3-.42,4.08-2.83,6.28-3.87,1.68-.84,7.12-2.31,8-4.09.42-.94-.32-4.6-.94-5.65C565.15,148.51,555.73,148.4,551.75,149Z"/><path class="cls-5" d="M493.43,150.71a8.68,8.68,0,0,0-8.69,1c3.45.95,6.7,3.88,9.11,6.6,1,1.15,1.36,2.83,2.93,2.93,2,.11,2.41-1.46,2.41-2.51,0-2.09-3.15-5.55-5.76-8.06Z"/><path class="cls-6" d="M640.75,170.29c.21-.94-.42-2.62-.21-3.46-5.65-.31-11.62.53-17.17-.52,1-2.51,11-7.75,1.26-8.27-4.09-.21-8.69,3.66-12.46,5-4.93,1.89-12.25,4.3-17.7,2.83s-2.41-5.13-5.65-7c-1.16-.74-3.35.52-4.4.83-2.1.74-3.67,2.93-6,3.46s-4.4-.73-6.81.31a6.15,6.15,0,0,0,5.66,3.25c-9.11,4.81-23.35,3.45-33.61,3.45-1.26,0-16.23,1.89-12.57-3-4.92-2.31-11.2-3-16.75-2.73,1.88,1.47,5.23,1.16,6.59,2.94-13,1.25-23.87-2.2-36.33,1.78-10.37,3.24-21.26,4-32.15,4.08H678.13a60.64,60.64,0,0,0-9.74-1.26C659.18,171.65,650,171,640.75,170.29Z"/><path class="cls-4" d="M907.86,68.62h-128c2.62-4.51,6.6-1.68,9.42-4.3,2.52-2.3.63-9.94,2.83-13.3,7-10.57,21.36-13,30-4.81,1.36-18.85,9.42-34.87,30.68-35.6,9.63-.32,17.06,2.82,22.61,11.1,4.82,7,2.73,16.44,3.25,24.39,11.1-1.15,13.19,5.55,13.51,15.19,5.34.83,5.23-.74,9.21,2.2C903.36,64.74,906.08,67.25,907.86,68.62Z"/><path class="cls-5" d="M842,49.77c4.61-4.09,17.38-6.28,21.36-.32,3.56,5.24.42,10.68-5.65,9.64C859.28,48,849.23,51.13,842,49.77Z"/><path class="cls-5" d="M814.78,49.77c3.45,6.39-.53,10,8.9,9.32,1.57-5.55,1.15-9-1.47-13.82,0,.31-.1.62-.1.94a18.2,18.2,0,0,0-17.17-4.29C809.12,43.59,812.89,46.31,814.78,49.77Z"/><path class="cls-5" d="M878.65,46.1c-.52-8,1.57-17.38-3.25-24.39-5.65-8.28-13-11.42-22.61-11.1a34.68,34.68,0,0,0-9.11,1.46,22.2,22.2,0,0,1,13.09,4.19c7.33,5.55,4.29,12.57,4.08,20.21,0,2.51-.21,4.92,2.2,6.39s3.24-1.26,5.65-.42c4.92,1.78.84,6.7,1.68,10.89,4.08.42,7.43-3.56,11.41-.94,3.46,2.19,2.51,6.8,2.62,10.36a41.07,41.07,0,0,0,9.32-1.36,7.86,7.86,0,0,1-1.47-.21C891.84,51.55,889.75,45,878.65,46.1Z"/><path class="cls-4" d="M326.31,101.91H198.36c2.61-4.5,6.59-1.67,9.42-4.29,2.51-2.3.63-10,2.83-13.3,7-10.57,21.36-13,29.94-4.81,1.37-18.85,9.43-34.87,30.68-35.61,9.64-.31,17.07,2.83,22.62,11.1,4.82,7,2.72,16.44,3.25,24.4,11.1-1.15,13.19,5.55,13.5,15.18,5.34.84,5.24-.73,9.22,2.2C321.81,98,324.53,100.55,326.31,101.91Z"/><path class="cls-5" d="M260.45,83.07c4.61-4.09,17.38-6.29,21.36-.32,3.56,5.24.42,10.68-5.65,9.63C277.73,81.29,267.78,84.53,260.45,83.07Z"/><path class="cls-5" d="M233.22,83.07c3.46,6.38-.52,10.05,8.9,9.31,1.58-5.54,1.16-9-1.46-13.82,0,.32-.11.63-.11,1a18.21,18.21,0,0,0-17.17-4.3C227.67,76.89,231.34,79.61,233.22,83.07Z"/><path class="cls-5" d="M297.2,79.4c-.52-8,1.57-17.38-3.24-24.4-5.66-8.27-13-11.41-22.62-11.1a34.67,34.67,0,0,0-9.11,1.47,22.2,22.2,0,0,1,13.09,4.19c7.33,5.55,4.29,12.56,4.08,20.21,0,2.51-.21,4.92,2.2,6.39s3.25-1.26,5.65-.42c4.93,1.78.84,6.7,1.68,10.89,4.08.41,7.43-3.56,11.41-.95,3.46,2.2,2.52,6.81,2.62,10.37a41.07,41.07,0,0,0,9.32-1.36,8.79,8.79,0,0,1-1.47-.21C310.29,84.85,308.2,78.25,297.2,79.4Z"/><path class="cls-8" d="M154.13,401.34V503.39l142.33-9h188l64.47-9.34,13.34-21.43-14.45-62.32Z"/><polygon class="cls-9" points="672.92 138.63 595.09 139.63 599.21 222.54 579.02 223.52 578.9 316.86 574.81 317.42 566.96 267.15 533.75 267.15 531.85 357.86 519.23 357.86 517.83 378.37 508.46 378.37 508.64 251.25 461.58 251.25 457.57 326.09 428.5 325.06 419.89 371.18 402.51 370.34 396.77 335.32 368.06 332.18 371.14 284.58 301.23 284.58 296.06 349.68 278.68 349.68 278.03 346.08 278.03 263.52 201.37 263.52 199.49 326.61 188.72 327.11 195.05 190.79 134.58 189.32 135.32 148.75 81.82 147.21 73.06 323.5 63.54 322.99 59.1 274.33 41.71 273.48 42.82 194.88 42.44 195.39 -7.5 195.39 -6.79 196.92 -6.79 408.63 5.87 410.66 667.65 410.66 672.92 138.63 672.92 138.63"/><polygon class="cls-10" points="504.13 255.36 503.78 265.35 500.44 265.35 500.09 255.36 504.13 255.36"/><polygon class="cls-10" points="496.49 255.36 496.13 265.35 492.79 265.35 492.44 255.36 496.49 255.36"/><polygon class="cls-10" points="487.96 255.36 487.61 265.35 484.27 265.35 483.91 255.36 487.96 255.36"/><polygon class="cls-10" points="487.96 269.43 487.61 279.42 484.27 279.42 483.91 269.43 487.96 269.43"/><polygon class="cls-10" points="480.02 279.76 479.67 289.76 476.32 289.76 475.97 279.76 480.02 279.76"/><polygon class="cls-10" points="473.01 279.76 472.66 289.76 469.32 289.76 468.97 279.76 473.01 279.76"/><polygon class="cls-10" points="489.98 341.14 489.63 351.14 486.29 351.14 485.94 341.14 489.98 341.14"/><polygon class="cls-10" points="439.7 335.25 439.34 345.24 436 345.24 435.65 335.25 439.7 335.25"/><polygon class="cls-10" points="364.58 291.43 363.96 300.27 358.07 300.27 357.45 291.43 364.58 291.43"/><polygon class="cls-10" points="354.03 291.43 353.41 300.27 347.52 300.27 346.9 291.43 354.03 291.43"/><polygon class="cls-10" points="343.37 291.43 342.75 300.27 336.86 300.27 336.24 291.43 343.37 291.43"/><polygon class="cls-10" points="322.03 291.43 321.41 300.27 315.52 300.27 314.91 291.43 322.03 291.43"/><polygon class="cls-10" points="364.64 303.3 364.02 312.14 358.13 312.14 357.51 303.3 364.64 303.3"/><polygon class="cls-10" points="343.43 303.3 342.81 312.14 336.92 312.14 336.3 303.3 343.43 303.3"/><polygon class="cls-10" points="332.76 303.3 332.14 312.14 326.25 312.14 325.63 303.3 332.76 303.3"/><polygon class="cls-10" points="354.09 315.17 353.47 324.02 347.58 324.02 346.96 315.17 354.09 315.17"/><polygon class="cls-10" points="343.43 315.17 342.81 324.02 336.92 324.02 336.3 315.17 343.43 315.17"/><polygon class="cls-10" points="332.76 315.17 332.14 324.02 326.25 324.02 325.63 315.17 332.76 315.17"/><polygon class="cls-10" points="343.43 329.01 342.81 337.86 336.92 337.86 336.3 329.01 343.43 329.01"/><polygon class="cls-10" points="557.43 270.13 556.97 278.98 552.59 278.98 552.12 270.13 557.43 270.13"/><polygon class="cls-10" points="549.58 270.13 549.11 278.98 544.73 278.98 544.26 270.13 549.58 270.13"/><polygon class="cls-10" points="541.63 270.13 541.17 278.98 536.78 278.98 536.32 270.13 541.63 270.13"/><polygon class="cls-10" points="557.48 282.01 557.01 290.85 552.63 290.85 552.17 282.01 557.48 282.01"/><polygon class="cls-10" points="566.62 282.01 566.16 290.85 561.77 290.85 561.31 282.01 566.62 282.01"/><polygon class="cls-10" points="565.04 321.99 564.58 330.83 560.19 330.83 559.73 321.99 565.04 321.99"/><polygon class="cls-10" points="545.47 336.72 545.01 345.56 540.63 345.56 540.16 336.72 545.47 336.72"/><polygon class="cls-10" points="541.67 282.01 541.21 290.85 536.83 290.85 536.36 282.01 541.67 282.01"/><polygon class="cls-10" points="549.62 293.88 549.16 302.73 544.77 302.73 544.31 293.88 549.62 293.88"/><polygon class="cls-10" points="541.67 293.88 541.21 302.73 536.83 302.73 536.36 293.88 541.67 293.88"/><polygon class="cls-10" points="541.67 307.72 541.21 316.56 536.83 316.56 536.36 307.72 541.67 307.72"/><polygon class="cls-10" points="379.82 337.86 379.2 346.7 373.31 346.7 372.69 337.86 379.82 337.86"/><polygon class="cls-10" points="355.91 348.54 355.29 357.38 349.4 357.38 348.78 348.54 355.91 348.54"/><polygon class="cls-10" points="390.6 337.86 389.98 346.7 384.09 346.7 383.47 337.86 390.6 337.86"/><polygon class="cls-10" points="311.89 315.17 311.27 324.02 305.39 324.02 304.77 315.17 311.89 315.17"/><polygon class="cls-10" points="322.09 303.3 321.47 312.14 315.58 312.14 314.96 303.3 322.09 303.3"/><polygon class="cls-10" points="311.37 291.43 310.75 300.27 304.86 300.27 304.24 291.43 311.37 291.43"/><polygon class="cls-10" points="35.71 203.19 35.09 221.68 29.2 221.68 28.59 203.19 35.71 203.19"/><polygon class="cls-10" points="25.16 203.19 24.55 221.68 18.66 221.68 18.04 203.19 25.16 203.19"/><polygon class="cls-10" points="14.5 203.19 13.88 221.68 7.99 221.68 7.37 203.19 14.5 203.19"/><polygon class="cls-10" points="50 285.82 49.38 304.31 43.49 304.31 42.88 285.82 50 285.82"/><polygon class="cls-10" points="35.77 228.02 35.15 246.51 29.26 246.51 28.64 228.02 35.77 228.02"/><polygon class="cls-10" points="14.56 228.02 13.94 246.51 8.05 246.51 7.43 228.02 14.56 228.02"/><polygon class="cls-10" points="3.89 228.02 3.27 246.51 -2.62 246.51 -3.24 228.02 3.89 228.02"/><polygon class="cls-10" points="25.22 252.84 24.6 271.33 18.71 271.33 18.09 252.84 25.22 252.84"/><polygon class="cls-10" points="14.56 252.84 13.94 271.33 8.05 271.33 7.43 252.84 14.56 252.84"/><polygon class="cls-10" points="3.89 252.84 3.27 271.33 -2.62 271.33 -3.24 252.84 3.89 252.84"/><polygon class="cls-10" points="14.56 281.78 13.94 300.27 8.05 300.27 7.43 281.78 14.56 281.78"/><polygon class="cls-10" points="39.86 335.47 39.24 353.96 33.36 353.96 32.74 335.47 39.86 335.47"/><polygon class="cls-10" points="50.06 310.65 49.44 329.14 43.55 329.14 42.93 310.65 50.06 310.65"/><polygon class="cls-10" points="39.34 285.82 38.72 304.31 32.83 304.31 32.21 285.82 39.34 285.82"/><polygon class="cls-10" points="447.43 335.25 447.08 345.24 443.74 345.24 443.39 335.25 447.43 335.25"/><polygon class="cls-10" points="500.09 296.42 499.74 306.42 496.4 306.42 496.05 296.42 500.09 296.42"/><polygon class="cls-10" points="482.04 313.06 481.69 323.05 478.35 323.05 478 313.06 482.04 313.06"/><polygon class="cls-10" points="473.01 255.36 472.66 265.35 469.32 265.35 468.97 255.36 473.01 255.36"/><polygon class="cls-10" points="496.49 269.43 496.13 279.42 492.79 279.42 492.44 269.43 496.49 269.43"/><polygon class="cls-10" points="186.21 198.7 185.77 211.2 181.59 211.2 181.15 198.7 186.21 198.7"/><polygon class="cls-10" points="176.65 198.7 176.21 211.2 172.03 211.2 171.59 198.7 176.65 198.7"/><polygon class="cls-10" points="165.98 198.7 165.54 211.2 161.37 211.2 160.93 198.7 165.98 198.7"/><polygon class="cls-10" points="165.98 216.29 165.54 228.79 161.37 228.79 160.93 216.29 165.98 216.29"/><polygon class="cls-10" points="156.05 229.22 155.61 241.72 151.44 241.72 151 229.22 156.05 229.22"/><polygon class="cls-10" points="147.29 229.22 146.85 241.72 142.68 241.72 142.24 229.22 147.29 229.22"/><polygon class="cls-10" points="168.51 305.98 168.07 318.48 163.9 318.48 163.46 305.98 168.51 305.98"/><polygon class="cls-10" points="105.63 298.61 105.19 311.11 101.01 311.11 100.57 298.61 105.63 298.61"/><polygon class="cls-10" points="115.3 298.61 114.86 311.11 110.69 311.11 110.25 298.61 115.3 298.61"/><polygon class="cls-10" points="132.67 344.1 132.23 356.6 128.06 356.6 127.62 344.1 132.67 344.1"/><polygon class="cls-10" points="181.15 250.05 180.71 262.55 176.54 262.55 176.1 250.05 181.15 250.05"/><polygon class="cls-10" points="158.58 270.86 158.14 283.36 153.96 283.36 153.52 270.86 158.58 270.86"/><polygon class="cls-10" points="132.67 259.83 132.23 272.33 128.06 272.33 127.62 259.83 132.67 259.83"/><polygon class="cls-10" points="147.29 198.7 146.85 211.2 142.68 211.2 142.24 198.7 147.29 198.7"/><polygon class="cls-10" points="176.65 216.29 176.21 228.79 172.03 228.79 171.59 216.29 176.65 216.29"/><polygon class="cls-10" points="127.62 153.92 127.18 166.41 123 166.41 122.56 153.92 127.62 153.92"/><polygon class="cls-10" points="118.05 153.92 117.61 166.41 113.44 166.41 113 153.92 118.05 153.92"/><polygon class="cls-10" points="107.39 153.92 106.95 166.41 102.77 166.41 102.33 153.92 107.39 153.92"/><polygon class="cls-10" points="107.39 171.51 106.95 184.01 102.77 184.01 102.33 171.51 107.39 171.51"/><polygon class="cls-10" points="107.39 190.69 106.95 203.19 102.77 203.19 102.33 190.69 107.39 190.69"/><polygon class="cls-10" points="98.63 190.69 98.19 203.19 94.01 203.19 93.57 190.69 98.63 190.69"/><polygon class="cls-10" points="122.56 205.27 122.12 217.77 117.94 217.77 117.5 205.27 122.56 205.27"/><polygon class="cls-10" points="107.39 232.22 106.95 244.72 102.77 244.72 102.33 232.22 107.39 232.22"/><polygon class="cls-10" points="94.93 153.92 94.49 166.41 90.31 166.41 89.87 153.92 94.93 153.92"/><polygon class="cls-10" points="118.05 171.51 117.61 184.01 113.44 184.01 113 171.51 118.05 171.51"/><polygon class="cls-10" points="272.2 268.83 271.69 278.82 266.9 278.82 266.39 268.83 272.2 268.83"/><polygon class="cls-10" points="261.22 268.83 260.71 278.82 255.92 278.82 255.41 268.83 261.22 268.83"/><polygon class="cls-10" points="248.97 268.83 248.47 278.82 243.68 278.82 243.17 268.83 248.97 268.83"/><polygon class="cls-10" points="248.97 282.9 248.47 292.89 243.68 292.89 243.17 282.9 248.97 282.9"/><polygon class="cls-10" points="237.57 293.24 237.07 303.23 232.27 303.23 231.77 293.24 237.57 293.24"/><polygon class="cls-10" points="227.52 293.24 227.02 303.23 222.22 303.23 221.72 293.24 227.52 293.24"/><polygon class="cls-10" points="209.49 336.53 209.99 346.52 214.79 346.52 215.29 336.53 209.49 336.53"/><polygon class="cls-10" points="198.38 336.53 198.89 346.52 203.68 346.52 204.19 336.53 198.38 336.53"/><polygon class="cls-10" points="266.39 309.9 265.89 319.89 261.09 319.89 260.59 309.9 266.39 309.9"/><polygon class="cls-10" points="240.48 326.53 239.97 336.53 235.18 336.53 234.67 326.53 240.48 326.53"/><polygon class="cls-10" points="227.52 268.83 227.02 278.82 222.22 278.82 221.72 268.83 227.52 268.83"/><polygon class="cls-10" points="261.22 282.9 260.71 292.89 255.92 292.89 255.41 282.9 261.22 282.9"/><polygon class="cls-10" points="588.96 233.6 589.47 248.09 594.31 248.09 594.82 233.6 588.96 233.6"/><polygon class="cls-10" points="600.05 233.6 600.56 248.09 605.4 248.09 605.91 233.6 600.05 233.6"/><polygon class="cls-10" points="612.4 233.6 612.91 248.09 617.75 248.09 618.26 233.6 612.4 233.6"/><polygon class="cls-10" points="612.4 254 612.91 268.48 617.75 268.48 618.26 254 612.4 254"/><polygon class="cls-10" points="623.91 268.98 624.42 283.46 629.26 283.46 629.77 268.98 623.91 268.98"/><polygon class="cls-10" points="634.06 268.98 634.57 283.46 639.41 283.46 639.92 268.98 634.06 268.98"/><polygon class="cls-10" points="594.82 293.12 595.33 307.6 600.17 307.6 600.68 293.12 594.82 293.12"/><polygon class="cls-10" points="620.98 317.23 621.49 331.71 626.33 331.71 626.84 317.23 620.98 317.23"/><polygon class="cls-10" points="634.06 233.6 634.57 248.09 639.41 248.09 639.92 233.6 634.06 233.6"/><polygon class="cls-10" points="600.05 254 600.56 268.48 605.4 268.48 605.91 254 600.05 254"/><polygon class="cls-10" points="604.34 170.56 604.85 185.04 609.69 185.04 610.2 170.56 604.34 170.56"/><polygon class="cls-10" points="603.61 148.79 604.12 163.28 608.97 163.28 609.47 148.79 603.61 148.79"/><polygon class="cls-10" points="616.7 170.56 617.21 185.04 622.05 185.04 622.56 170.56 616.7 170.56"/><polygon class="cls-10" points="616.7 190.95 617.21 205.44 622.05 205.44 622.56 190.95 616.7 190.95"/><polygon class="cls-10" points="608.72 210.14 609.23 224.63 614.07 224.63 614.58 210.14 608.72 210.14"/><polygon class="cls-10" points="604.34 190.95 604.85 205.44 609.69 205.44 610.2 190.95 604.34 190.95"/><polyline class="cls-9" points="867.81 435.03 867.81 328 867.81 191.67 807.34 190.2 808.08 149.63 754.58 148.09 745.82 324.38 736.3 323.87 731.86 275.21 714.47 274.36 715.58 195.75 715.2 196.27 665.26 196.27 665.97 197.8 665.97 409.51 678.63 411.54"/><polygon class="cls-10" points="708.47 204.07 707.85 222.56 701.96 222.56 701.34 204.07 708.47 204.07"/><polygon class="cls-10" points="697.92 204.07 697.3 222.56 691.41 222.56 690.79 204.07 697.92 204.07"/><polygon class="cls-10" points="687.26 204.07 686.64 222.56 680.75 222.56 680.13 204.07 687.26 204.07"/><polygon class="cls-10" points="722.76 286.7 722.14 305.19 716.25 305.19 715.63 286.7 722.76 286.7"/><polygon class="cls-10" points="708.53 228.9 707.91 247.39 702.02 247.39 701.4 228.9 708.53 228.9"/><polygon class="cls-10" points="687.32 228.9 686.7 247.39 680.81 247.39 680.19 228.9 687.32 228.9"/><polygon class="cls-10" points="676.65 228.9 676.03 247.39 670.14 247.39 669.52 228.9 676.65 228.9"/><polygon class="cls-10" points="697.98 253.72 697.36 272.21 691.47 272.21 690.85 253.72 697.98 253.72"/><polygon class="cls-10" points="687.32 253.72 686.7 272.21 680.81 272.21 680.19 253.72 687.32 253.72"/><polygon class="cls-10" points="676.65 253.72 676.03 272.21 670.14 272.21 669.52 253.72 676.65 253.72"/><polygon class="cls-10" points="687.32 282.66 686.7 301.15 680.81 301.15 680.19 282.66 687.32 282.66"/><polygon class="cls-10" points="712.62 336.35 712 354.84 706.11 354.84 705.49 336.35 712.62 336.35"/><polygon class="cls-10" points="722.82 311.53 722.2 330.02 716.31 330.02 715.69 311.53 722.82 311.53"/><polygon class="cls-10" points="712.1 286.7 711.48 305.19 705.59 305.19 704.97 286.7 712.1 286.7"/><polygon class="cls-10" points="858.97 199.58 858.53 212.08 854.35 212.08 853.91 199.58 858.97 199.58"/><polygon class="cls-10" points="849.4 199.58 848.97 212.08 844.79 212.08 844.35 199.58 849.4 199.58"/><polygon class="cls-10" points="838.74 199.58 838.3 212.08 834.13 212.08 833.68 199.58 838.74 199.58"/><polygon class="cls-10" points="838.74 217.18 838.3 229.67 834.13 229.67 833.68 217.18 838.74 217.18"/><polygon class="cls-10" points="828.81 230.1 828.37 242.6 824.19 242.6 823.75 230.1 828.81 230.1"/><polygon class="cls-10" points="820.05 230.1 819.61 242.6 815.44 242.6 815 230.1 820.05 230.1"/><polygon class="cls-10" points="841.27 306.86 840.83 319.36 836.65 319.36 836.21 306.86 841.27 306.86"/><polygon class="cls-10" points="778.39 299.49 777.95 311.99 773.77 311.99 773.33 299.49 778.39 299.49"/><polygon class="cls-10" points="788.06 299.49 787.62 311.99 783.45 311.99 783.01 299.49 788.06 299.49"/><polyline class="cls-10" points="804.99 357.48 800.82 357.48 800.38 344.98 805.43 344.98"/><polygon class="cls-10" points="853.91 250.93 853.47 263.43 849.3 263.43 848.86 250.93 853.91 250.93"/><polygon class="cls-10" points="831.34 271.74 830.9 284.24 826.72 284.24 826.28 271.74 831.34 271.74"/><polygon class="cls-10" points="805.43 260.72 804.99 273.21 800.82 273.21 800.38 260.72 805.43 260.72"/><polygon class="cls-10" points="820.05 199.58 819.61 212.08 815.44 212.08 815 199.58 820.05 199.58"/><polygon class="cls-10" points="849.4 217.18 848.97 229.67 844.79 229.67 844.35 217.18 849.4 217.18"/><polygon class="cls-10" points="800.38 154.8 799.94 167.29 795.76 167.29 795.32 154.8 800.38 154.8"/><polygon class="cls-10" points="790.81 154.8 790.37 167.29 786.19 167.29 785.75 154.8 790.81 154.8"/><polygon class="cls-10" points="780.15 154.8 779.71 167.29 775.53 167.29 775.09 154.8 780.15 154.8"/><polygon class="cls-10" points="780.15 172.39 779.71 184.89 775.53 184.89 775.09 172.39 780.15 172.39"/><polygon class="cls-10" points="780.15 191.57 779.71 204.07 775.53 204.07 775.09 191.57 780.15 191.57"/><polygon class="cls-10" points="771.39 191.57 770.95 204.07 766.77 204.07 766.33 191.57 771.39 191.57"/><polygon class="cls-10" points="795.32 206.15 794.88 218.65 790.7 218.65 790.26 206.15 795.32 206.15"/><polygon class="cls-10" points="780.15 233.11 779.71 245.6 775.53 245.6 775.09 233.11 780.15 233.11"/><polygon class="cls-10" points="767.69 154.8 767.25 167.29 763.07 167.29 762.63 154.8 767.69 154.8"/><polygon class="cls-10" points="790.81 172.39 790.37 184.89 786.19 184.89 785.75 172.39 790.81 172.39"/><path class="cls-11" d="M156.79,49.56l.73-1.57a203.2,203.2,0,0,0-73.3-19.48l-2.51-.21.11,2.52c1.15,51.93,1.36,103.45.83,154.23a25.55,25.55,0,0,0-6.91-.21h-2.3V171.75H46.84v91.83h26.7V250.5a33.7,33.7,0,0,0,8.07-.53c-1.78,80.21-5,158.32-8.59,233.4l4.5.1C84.22,342,89.88,189.55,86.42,33.22a201.55,201.55,0,0,1,64.29,16.55,160,160,0,0,0-29,4.08c16.86,6.49,29.84,9.53,47.85,9.32L170.08,50C165.69,49.66,161.18,49.45,156.79,49.56ZM73.54,247.35v-60h2.31a36.56,36.56,0,0,0,6.8-.21c-.21,20.41-.52,40.73-1,60.83A29.17,29.17,0,0,0,73.54,247.35Z"/><path class="cls-12" d="M899.51,279.81V490.27l-513.7-1c-2.93-10.79,6-21.89,16.55-25.34s22.09-1.58,33,.52c-12-8.59-9.74-28.8,1.36-38.53s27.33-11.1,42-9.64a134.5,134.5,0,0,1,54.13,17.91,39.73,39.73,0,0,1,14.56-36c10.68-8.38,27.54-17,37-7.23.63.63,1.88,0,2.2-.83a4.66,4.66,0,0,0-.42-2.83c-4.29-12.57,3.66-27,15.29-33.4s26-6.08,39-2.94c5.76,1.37,11.1,1,15.6,4.72-3-7.75,0-17.07,6.18-22.73S677,325,685.28,325.46a21.24,21.24,0,0,1,2.51.21,22.48,22.48,0,0,1,3.77.63,69.93,69.93,0,0,1,17.49,6.28c4.5,2.2,8.9,4.29,13.09,6.81a78.65,78.65,0,0,1,9.21,6.17c-.31-.83-.63-1.57-.94-2.4a32.15,32.15,0,0,1,1.25-22.94,34.89,34.89,0,0,1,5.24-8.06l1.57-1.57a32.65,32.65,0,0,1,12-7.33,34,34,0,0,1,4.4-1.15c1.05-.21,2.09-.31,3.14-.42,9-.84,18.33,1.89,26.7,6.07.74.42,1.47.74,2.31,1.16,1.46.73,2.82,1.57,4.18,2.4,1.58.95,3.15,2,4.72,3.15.62.41,1.15.83,1.78,1.25a106.1,106.1,0,0,1,14.66,12.67c.73.74,1.46,1.47,2.09,2.2,1.88,2,3.66,4.08,5.44,6.28,1.26,1.57,2.41,2.94,3.36,4.3a15.63,15.63,0,0,1,1.36,2.2,13,13,0,0,1,1.36,4.92c-.94-12.36,2.72-24.19,9.21-34.77.42-.62.84-1.36,1.26-2a86.16,86.16,0,0,1,10.68-13.29l1.57-1.57a93.94,93.94,0,0,1,7.64-6.81,87.42,87.42,0,0,1,8-5.76,37.76,37.76,0,0,1,3.56-2.09,48.83,48.83,0,0,1,8.69-3.67C884.23,276.14,892.6,276.14,899.51,279.81Z"/><path class="cls-13" d="M899.51,316.25l1.26-1.37-1.26-1.15-.21-.21L857.53,358q4.08-38.16,10.68-76c-1.16.62-2.41,1.36-3.56,2.09-2.1,12.36-4,24.82-5.76,37.28l-9.95-24.82-1.57,1.57,10.89,27.23c-.73,5.44-1.36,10.89-2.1,16.23l-19.47-30.27c-.42.63-.84,1.26-1.26,2l19.9,30.89.62-.42c-.73,6-1.36,11.94-2,17.91l-.84.84.63.63c-1,10.26-2,20.62-2.83,30.88l-28.06-46-.21.21,2.3-5,.94-2-1.88-.84-.32.74-9.11,19.89q.48-15.24.32-30.47c-.73-.73-1.36-1.46-2.1-2.2.21,12.46,0,24.92-.41,37.28h.1l-21.78,47.54c-4.08-15.71-8.38-31.31-12.88-47l20.21-50.47c-.52-.42-1.15-.84-1.78-1.25l-6.39,16-2.61-21.57a16.61,16.61,0,0,0-2.31-1.16l3.14,26.18h.32l-11.63,29.11Q768,332.27,758.26,301.8c-1,.1-2.09.21-3.14.41,2,6.29,4,12.57,6,19L738.68,310.7l-1.57,1.57,24.71,11.62q6.75,21.83,13,44l-.21.63.41.21c1,3.56,2,7.12,3,10.68l-47.54-36a9.61,9.61,0,0,0,1,2.4,89.22,89.22,0,0,0-9.22-6.17l20.63,15.6h0a116.09,116.09,0,0,1,2.93,30.05h.31q-8.48,14.76-16.33,29.84c-11.73-29.95-24.5-59.47-38-88.48L688,326a1510.07,1510.07,0,0,1,62.62,154.87l2.93-1.05c-5-14.76-10.26-29.42-15.81-44l.1.11,43-46.91q12.72,46.34,23.45,92.77l3-.73c-5-21.57-10.26-43-15.92-64.5l30.16-66.07,29,47.43c-1.88,25.23-2.93,50.57-3.24,75.81h3.14c.21-17.7.84-35.39,1.78-53.19L897,378.44l-1.47-1.57-43.14,40.52c1.05-18.63,2.62-37.38,4.51-55.91Zm-154,40.62,12,9.22c-3.25,5.23-6.39,10.47-9.53,15.81A118,118,0,0,0,745.49,356.87ZM737,433.52c-2-5.34-4.09-10.79-6.18-16.13,8.69-17.06,18.22-33.92,28.37-50.15l19.9,15.08c.31,1.36.73,2.61,1,4Z"/><path class="cls-12" d="M-17.74,350.07V469.33l291.09-.52c1.68-6.08-3.35-12.36-9.42-14.35s-12.46-.84-18.74.32c6.8-4.82,5.55-16.34-.84-21.89s-15.5-6.28-23.77-5.44A76,76,0,0,0,189.9,437.6a22.44,22.44,0,0,0-8.27-20.41c-6.07-4.72-15.6-9.64-20.94-4.09-.42.42-1.05,0-1.26-.52a4.23,4.23,0,0,1,.21-1.57c2.41-7.12-2.09-15.29-8.69-18.95s-14.77-3.46-22.09-1.68c-3.25.84-6.29.52-8.9,2.62,1.67-4.4,0-9.64-3.46-12.88a17.86,17.86,0,0,0-13.09-4.19c-.52,0-.94.1-1.46.1-.74.11-1.47.21-2.1.32a39.26,39.26,0,0,0-9.95,3.56c-2.51,1.26-5,2.41-7.43,3.87a57.1,57.1,0,0,0-5.24,3.46,7.64,7.64,0,0,0,.53-1.36,18,18,0,0,0-.74-13,16.34,16.34,0,0,0-3-4.5c-.32-.31-.53-.63-.84-.94a17.56,17.56,0,0,0-6.81-4.19,11.4,11.4,0,0,0-2.51-.63,10.8,10.8,0,0,0-1.78-.21A28.51,28.51,0,0,0,47,365.88l-1.25.63c-.84.42-1.57.94-2.41,1.36s-1.78,1.15-2.72,1.78c-.32.21-.63.42-1.05.73a66.77,66.77,0,0,0-8.38,7.12A11.94,11.94,0,0,0,30,378.76c-1.05,1.15-2.09,2.3-3,3.56-.73.94-1.36,1.67-1.88,2.41a7,7,0,0,0-.73,1.25,7.1,7.1,0,0,0-.74,2.83,32.84,32.84,0,0,0-5.23-19.69,7.16,7.16,0,0,0-.74-1.15,47.29,47.29,0,0,0-6.07-7.54l-.94-.94c-1.36-1.36-2.83-2.62-4.29-3.87a43.52,43.52,0,0,0-4.51-3.25,17.58,17.58,0,0,0-2-1.15,26,26,0,0,0-4.92-2.1C-9,348-13.86,348-17.74,350.07Z"/><path class="cls-10" d="M6.24,396.35c1.15,10.57,2,21.15,2.62,31.73l-24.4-22.94-.84.84L9,429.75c.53,10.05.95,20.1,1,30.16h1.78c-.1-14.35-.73-28.59-1.78-42.93l16.44-26.91,17,37.38c-3.14,12.14-6.18,24.39-9,36.54l1.78.42q6.12-26.39,13.3-52.56l24.39,26.59.11-.1c-3.14,8.27-6.08,16.65-9,24.92l1.68.52A858.46,858.46,0,0,1,102.15,376c-.73.11-1.46.21-2.09.32q-11.62,24.81-21.67,50.26c-2.94-5.66-6.08-11.31-9.22-16.86h.21a62.28,62.28,0,0,1,1.68-17.07h0l11.62-8.9a57.1,57.1,0,0,0-5.24,3.46,7.64,7.64,0,0,0,.53-1.36L51.06,406.3c.52-2,1.15-4.09,1.67-6.08l.32-.1-.11-.32c2.41-8.37,4.82-16.65,7.33-24.92l14-6.59c-.31-.32-.52-.63-.84-1l-12.67,6c1.16-3.56,2.2-7.12,3.36-10.68a10.93,10.93,0,0,0-1.78-.21c-3.67,11.52-7.13,23-10.48,34.77L45.3,380.75h.21L47.29,366l-1.26.63-1.47,12.25-3.66-9.11c-.31.21-.63.42-1,.74l11.42,28.58c-2.52,8.8-4.93,17.7-7.33,26.6L31.58,398.76h.11c-.32-7-.32-14.14-.21-21.15a12.11,12.11,0,0,0-1.16,1.25c-.1,5.76,0,11.52.21,17.28L25.4,384.83l-.21-.42-1,.53.52,1.15,1.26,2.82-.11-.1-16,26.07c-.42-5.86-.94-11.73-1.57-17.48l.42-.32-.42-.52c-.31-3.35-.73-6.7-1.15-10.16l.31.21L18.6,369.12a7.16,7.16,0,0,0-.74-1.15l-11,17.17c-.42-3-.73-6.17-1.15-9.21l6.18-15.5-1-.94-5.65,14c-.94-7-2.1-14.13-3.25-21.15a18.5,18.5,0,0,0-2-1.15c2.52,14.24,4.51,28.58,6.08,43L-17.53,369l-.1.1-.74.63.74.74Zm61.88,11.52c-1.78-3-3.56-6-5.44-9l6.81-5.23A73,73,0,0,0,68.12,407.87ZM49.9,410.48l.63-2.19,11.31-8.59c5.76,9.21,11.1,18.74,16.13,28.38l-3.46,9.1Z"/><path class="cls-12" d="M919.3,398.55V514.36H-40.88l8.06-15.71c-7.85-5.45-10.89-15.18-4.92-21.89s21.36-7.53,26.91-.62a343.9,343.9,0,0,1-23.56-65c-.94-3.77-1.67-8.06,1.57-11,2.1-2,5.55-2.83,8.9-3.46a79.66,79.66,0,0,1,18.64-.94c.63,0,1.26.1,1.89.1A61.85,61.85,0,0,1,4.36,397c.73.1,1.46.31,2.2.42a59.55,59.55,0,0,1,8.79,2.51l.94.31a63.21,63.21,0,0,1,7.65,3.35c-3.88-2.41-2.31-7.75,2.09-9.84a16.64,16.64,0,0,1,2.41-.84,3.21,3.21,0,0,1,1-.21,28.73,28.73,0,0,1,8-.31,3.71,3.71,0,0,1,1.05.1c1.15.11,2.41.32,3.56.42,5.76.84,11.52,1.89,17.17,3.25.42.1.84.21,1.16.31,3.66.84,7.22,1.89,10.68,2.93.62.21,1.36.42,2,.63A170.5,170.5,0,0,1,116,420.22c-4.4-4.5-2.2-10.68,3-14.87.32-.21.63-.52.95-.73a21,21,0,0,1,8.48-3.56c.42-.1.73-.1,1.15-.21a16.22,16.22,0,0,1,2.2-.21c9.63-.73,19.37,2.62,27.85,6.49.1,0,.1.11.21.11a3.14,3.14,0,0,1,.84.42l5.65,2.82a4.23,4.23,0,0,1,.94.53c4.61,2.41,9.22,5.13,13.62,8a5.27,5.27,0,0,1,.83.62c16.86,11.1,31.63,25,40.94,39.58,16.44-11.2,43.56-11.93,61-1.78-3.46-6.8,9.63-11.62,19.26-10.89a74.92,74.92,0,0,1,33.4,10.27c-2.61-6.29,9.85-9.95,18.43-8.7,16.44,2.41,31.1,11,38.33,22.41,17.9-.84,35.18,10.79,36.12,24.29,18.12-5.44,40.31-7.32,59.68-4.18-4.18-2.1-6.7-6.5-5.34-10.27,1.89-5.54,9.32-9.21,16.86-10.05s15.08.53,22.52,1.89c-6.5-6.7,2.09-16.86,12.77-18.64s21.57,1.78,31.52,5.34c-.11-12.36,12.35-24.08,28.37-26.6s33.72,4.3,40.32,15.61c2.93-10.27,18.43-16.23,32.35-15.71s26.6,5.86,38.74,11.1c-6.91-4.92-14.45-10.79-13.71-17.91.94-8.37,13.61-13.61,24.71-12.67s20.52,6.08,29.53,11c-2.62-2.31-2.52-5.24-.74-7.86.21-.31.53-.62.84-1a13,13,0,0,1,2.83-2.41,13.15,13.15,0,0,1,2.09-1.15,12.2,12.2,0,0,1,3.35-1.15c.42-.11.84-.21,1.36-.32a16.87,16.87,0,0,1,4.61-.1,17.73,17.73,0,0,1,4.19,1c.94.32,1.78.74,2.62,1.05,6.18,3,10.47,8.59,13.09,13.93.1-.21.21-.32.31-.53.52-.73,1.05-1.57,1.68-2.3,6.49-8.17,18.42-14.24,30.78-13.72h0a4.48,4.48,0,0,1,1.15.11c.53,0,.94.1,1.47.1a24.6,24.6,0,0,1,5.65,1.26c.73.21,1.36.52,2,.73a26.39,26.39,0,0,1,5.13,2.83l.94.63c4.09,3.24,6.92,7.43,7.23,11.72a8.34,8.34,0,0,1,0,1.58h0a11.34,11.34,0,0,1-2.3,6.17,234.26,234.26,0,0,1,25-14.45c.32-.21.63-.31.94-.52,2.62-1.26,5.24-2.51,8-3.77.94-.42,1.78-.84,2.72-1.26h0A265.86,265.86,0,0,1,919.3,398.55Z"/><path class="cls-12" d="M872.29,414.15h0a257.76,257.76,0,0,0-9.53,28,289.75,289.75,0,0,0,23.46-21.78l.73.73a318.37,318.37,0,0,1-24.71,22.83c-2.2,8.16-4.09,16.33-5.55,24.6l-2.1-.31a268.38,268.38,0,0,1,9.22-37l-3.14-11.63c.31-.21.62-.31.94-.52l2.83,10.37c1.57-4.72,3.24-9.43,5.13-14Z"/><path class="cls-12" d="M837.94,427.76h0c-6.49,7.23-13.4,14.24-20.41,20.84l-5.45,28.69-2.09-.42,8.9-47.12a209.74,209.74,0,0,0-4.5-21.05,4.48,4.48,0,0,1,1.15.11c1.57,6,2.93,11.94,4,18l3.14-16.55c.73.21,1.36.53,2,.74l-1.36,7.12,6.49-4.3.94.63-7.54,5v-.11L818,446.71c6.91-6.59,13.61-13.5,20-20.62Z"/><path class="cls-12" d="M779.1,441.27l4.61-18.64a18.32,18.32,0,0,0-1.68,2.3l-3.56,14.56-10-28.06a18.59,18.59,0,0,0-2.62-1.05l3,8.59-11.83-9.53a6.07,6.07,0,0,0-1.36.31L769.57,421l1.26,3.57-18.22,10.05q-.48-11.79-.32-23.56a13.15,13.15,0,0,0-2.09,1.15c-.11,3.77,0,7.54,0,11.31l-2.83-8.9a10.81,10.81,0,0,0-.84,1l3.67,11.63c.21,8.9.73,17.8,1.46,26.7l2.1-.21c-.52-6-.94-11.94-1.15-17.91l18.53-10.15,13.72,38.84,2-.73Z"/><path class="cls-12" d="M181.73,419.49a6,6,0,0,1-.83-.63q-12.74,13.67-24.82,28c-1.78-3.25-3.67-6.49-5.45-9.74l16.65-26.18c-.31-.21-.62-.31-.94-.52l-5.86,9.21c.21-4,.21-8.06.1-12a3.14,3.14,0,0,1-.84-.42.35.35,0,0,1-.2-.1c.1,4.71,0,9.32-.21,14h.1l-9.53,15c-2.62-4.92-5.34-9.84-7.85-14.76L145.29,404l-1-.21-3,16c-3.35-6.38-6.49-12.77-9.63-19.16a16.22,16.22,0,0,0-2.2.21c1.57,3.14,3.14,6.28,4.71,9.53A13,13,0,0,1,133,412c-4.29-2.62-8.79-5.13-13.29-7.33a6,6,0,0,0-1,.73c4.61,2.31,9.22,4.82,13.72,7.54a306.13,306.13,0,0,0-24.29,49.22l.94.41a309.35,309.35,0,0,1,24.29-49c1,.63,2.2,1.36,3.25,2,7.43,14.55,15.18,28.9,23.35,42.83l1.78-1c-1.78-3.14-3.67-6.28-5.45-9.42C164.67,438.23,173,428.7,181.73,419.49Zm-47.64-6.91c.21-.32.42-.73.63-1.05.31.73.73,1.47,1.05,2.1A9,9,0,0,0,134.09,412.58Z"/><path class="cls-12" d="M74.09,419.59l.21-.31-.42-.31c-.73-4.4-1.36-8.9-2-13.3l1-5.66c-.63-.21-1.36-.42-2-.63l-3,15.61a130.92,130.92,0,0,1-7.74-18.54c-.42-.1-.84-.21-1.16-.31a128.27,128.27,0,0,0,8.49,20.31l.1-.1L65.3,428.7l-.11.21.11.11L58,467.55l2.09.42,7.75-40.52,5.44-6.81c2.52,14.45,5.45,29,9,43.14l1-.21C79.64,449.12,76.61,434.36,74.09,419.59Zm-5.86,5.76,3.14-16.44c.52,3.46,1,7,1.68,10.47Z"/><path class="cls-12" d="M37.65,409.75l.11.11-.11.21c-.52,16.43-.52,32.87-.1,49.21h-1c-.52-15.71-.52-31.62,0-47.43L16.61,444.41h0L23.2,475.3l-2.09.42-4.92-23.14-.11.1a456.15,456.15,0,0,1-38.84-40.31l.83-.63a419.73,419.73,0,0,0,37.8,39.37L6.14,405.67c-1.89-2.83-4.72-4.92-7.75-7-1.26-.84-2.52-1.78-3.67-2.72.63,0,1.26.1,1.89.1A18.81,18.81,0,0,0-1,397.71a38.55,38.55,0,0,1,6.7,5.55l-1.36-6.18c.73.11,1.46.32,2.2.42L10,413.73c1.89-4.5,3.67-9,5.34-13.61l.94.31c-1.78,5.13-3.77,10.16-5.86,15.08l5.86,27.54,15.08-24.71h-.31a227.64,227.64,0,0,0-2.73-25.24,3.26,3.26,0,0,1,1.05-.21,237.68,237.68,0,0,1,2.72,24.4l4.51-7.43c.21-5.76.42-11.52.73-17.28a3.78,3.78,0,0,1,1,.1C38.18,398.34,37.86,404,37.65,409.75Z"/><rect class="cls-14" x="-45.73" y="512.26" width="919.87" height="115.69"/><path class="cls-15" d="M417.82,536c-8.07-.27-16-.4-24.09-.54-.1-.13-.1-.27-.21-.4-.21-.4-.73,0-.83.4-23.67-.27-47.33.14-71,.14H204.42s-.11,0-.11-.14a.39.39,0,0,0-.52.14H176.46c-.52-2.55-1.46-5.1-2.2-7.52-.94-3.22-1.67-7-3.35-9.8-.1-.27-.52-.27-.52.14.1,3.49,1.36,6.84,2.2,10.2.63,2.28,1.15,4.69,1.88,7h-75c-.84-2.29-2.41-4.16-3.46-6.31a60.56,60.56,0,0,1-3.45-10.47c-.31-1.21-1.57-.67-1.36.54a44.61,44.61,0,0,0,3.35,11.14,31.92,31.92,0,0,0,2.62,5.1H17.41c-.94-2.82-1.89-5.64-2.93-8.46s-1.78-6.58-3.56-9a.35.35,0,0,0-.63.27c.21,3.35,1.67,6.44,2.62,9.53q1.25,3.82,2.51,7.65H-8.66c-.11-.14-.32-.14-.53,0-21.67,0-43.35.13-64.92.8-.52,0-.52.94,0,1.07,21.68.54,43.35.81,65,.94,2.3,11.28,4.81,22.82,8,33.82.32,1.21,1.78.81,1.58-.53-2.2-11.14-5.14-22.41-8.17-33.29,20.21.14,40.31,0,60.52,0,.31,2.55,1.36,4.7,2.09,7.12,1,3,1.78,6,2.62,9.12,1.68,6.45,2.83,13,4,19.6.31,1.61,2.2.94,2-.67a144.28,144.28,0,0,0-4.19-20.4c-1.25-4.3-2.62-10.87-5.13-14.63,21.36-.14,42.62-.14,64-.14h26a295.18,295.18,0,0,1,6.8,33.29c.21,1.47,2,.8,1.78-.67a180.74,180.74,0,0,0-7.64-32.75h30.36c.11.27.21.4.32.67a.66.66,0,0,0,1.25-.4v-.14h28.59c12.15,11.81,25.24,22.28,37.7,33.69.94.81,1.78-1.07.83-1.88C232.27,559.51,220.44,548,208,538.57H309.65c28.06,0,56.13.54,84.29.13,2.1,5.77,4.82,11.14,7.33,16.51,2.72,6,5.24,13.56,9,18.66.52.67,1.46,0,1.25-.94-1.78-6.71-5.65-13-8.48-19.06-2.41-5.1-4.71-10.47-7.33-15.3,7.54-.14,15-.27,22.51-.54C418.65,537.76,418.65,536.15,417.82,536Z"/><path class="cls-15" d="M426,598.56c-22.3-.94-44.71-.81-67-.81-.21-.13-.42-.13-.52,0-9.22,0-18.43.14-27.75.14H225.15c-1.88-3.76-4.82-7-7.12-10.2-2.93-4.16-5.86-8.32-9-12.08-.32-.4-.95.13-.63.67,2.41,4.3,5.23,8.32,8,12.35,2,3,3.87,6.44,6.17,9.39-58.74,0-117.48-.13-176.22,0q-29.05,0-58.12.41h0A121.1,121.1,0,0,1-10.55,579c.21-1.48-1.57-2.15-1.78-.68a81.2,81.2,0,0,0-.84,20.14h0l-48.06.4c-.94,0-.94,1.74,0,1.74,33.3.14,66.6.41,99.79.54-.94,5.64-.84,11.68-1.26,17.45-.52,7.11-1.25,14.22-2,21.34-.1,1.34,1.68,1.61,1.78.26.74-6.84,1.36-13.69,1.78-20.66.42-5.91,1.26-12.35.84-18.39,29.84.13,59.79.27,89.74.27h23.14c4.19,5.1,9.63,9,14.24,13.28,5.65,5.24,11.41,11.81,17.59,15.71.73.53,1.57-.81.94-1.61-4.71-5.91-11-10.34-16.33-15-4.4-3.89-8.8-8.72-13.62-12.21H318.55c13.82,0,27.64.14,41.47.14a134.19,134.19,0,0,0,11.62,15.16c4.08,4.83,9.11,11.81,14.34,14.23.74.4,1.16-.94.74-1.61-1.89-3.09-4.92-5.37-7.33-7.79s-4.61-4.83-6.81-7.38c-3.56-4-6.91-8.59-10.47-12.75,21.36.14,42.72,0,64-.8C426.93,600.44,426.93,598.56,426,598.56Z"/><path class="cls-15" d="M747.13,536c-8.07-.27-16-.4-24.09-.54-.1-.13-.1-.27-.21-.4-.21-.4-.73,0-.83.4-23.67-.27-47.33.14-71,.14H533.73s-.11,0-.11-.14a.39.39,0,0,0-.52.14H505.77c-.52-2.55-1.46-5.1-2.2-7.52-.94-3.22-1.67-7-3.35-9.8-.1-.27-.52-.27-.52.14.1,3.49,1.36,6.84,2.2,10.2.63,2.28,1.15,4.69,1.88,7h-75c-.84-2.29-2.41-4.16-3.46-6.31a60.56,60.56,0,0,1-3.45-10.47c-.31-1.21-1.57-.67-1.36.54a44.61,44.61,0,0,0,3.35,11.14,31.92,31.92,0,0,0,2.62,5.1H346.72c-.94-2.82-1.89-5.64-2.93-8.46s-1.78-6.58-3.56-9a.35.35,0,0,0-.63.27c.21,3.35,1.67,6.44,2.62,9.53q1.25,3.82,2.51,7.65H320.65c-.11-.14-.32-.14-.53,0-21.67,0-43.35.13-64.92.8-.52,0-.52.94,0,1.07,21.68.54,43.35.81,65,.94,2.3,11.28,4.81,22.82,7.95,33.82.32,1.21,1.78.81,1.58-.53-2.2-11.14-5.14-22.41-8.17-33.29,20.21.14,40.31,0,60.52,0,.31,2.55,1.36,4.7,2.09,7.12.95,3,1.78,6,2.62,9.12,1.68,6.45,2.83,13,4,19.6.31,1.61,2.2.94,2-.67a144.28,144.28,0,0,0-4.19-20.4c-1.25-4.3-2.62-10.87-5.13-14.63,21.36-.14,42.62-.14,64-.14h26a295.18,295.18,0,0,1,6.8,33.29c.21,1.47,2,.8,1.78-.67a180.74,180.74,0,0,0-7.64-32.75h30.36c.11.27.21.4.32.67a.66.66,0,0,0,1.25-.4v-.14h28.59c12.15,11.81,25.24,22.28,37.7,33.69.94.81,1.78-1.07.83-1.88-11.83-10.73-23.66-22.28-36.12-31.67H639c28.06,0,56.12.54,84.29.13,2.1,5.77,4.82,11.14,7.33,16.51,2.72,6,5.24,13.56,9,18.66.52.67,1.46,0,1.25-.94-1.78-6.71-5.65-13-8.48-19.06-2.41-5.1-4.71-10.47-7.33-15.3,7.54-.14,15-.27,22.51-.54C748,537.76,748,536.15,747.13,536Z"/><path class="cls-15" d="M755.29,598.56c-22.3-.94-44.71-.81-67-.81-.21-.13-.42-.13-.52,0-9.22,0-18.43.14-27.75.14H554.46c-1.88-3.76-4.82-7-7.12-10.2-2.93-4.16-5.86-8.32-9-12.08-.32-.4-1,.13-.63.67,2.41,4.3,5.23,8.32,8,12.35,2,3,3.87,6.44,6.17,9.39-58.74,0-117.48-.13-176.22,0q-29.06,0-58.12.41h0A121.1,121.1,0,0,1,318.76,579c.21-1.48-1.57-2.15-1.78-.68a81.2,81.2,0,0,0-.84,20.14h0l-48.06.4c-.94,0-.94,1.74,0,1.74,33.3.14,160.73.67,190.68.67H481.9c4.19,5.1,9.63,9,14.24,13.29,5.65,5.23,11.41,11.81,17.59,15.7.73.54,1.57-.8.94-1.61-4.71-5.9-11-10.33-16.33-15-4.4-3.89-8.8-8.72-13.62-12.21H647.86c13.82,0,27.64.13,41.47.13A134.32,134.32,0,0,0,701,616.68c4.08,4.83,9.11,11.81,14.34,14.22.74.41,1.16-.94.74-1.61-1.89-3.08-4.92-5.37-7.33-7.78s-4.61-4.83-6.81-7.38c-3.56-4-6.91-8.59-10.47-12.75,21.36.13,42.72,0,64-.81C756.23,600.44,756.23,598.56,755.29,598.56Z"/><path class="cls-15" d="M1023.14,536c-8.06-.27-16-.4-24.08-.54-.11-.13-.11-.27-.21-.4-.21-.4-.74,0-.84.4-23.67-.27-47.33.14-71,.14H809.74s-.1,0-.1-.14a.4.4,0,0,0-.53.14H781.78c-.52-2.55-1.46-5.1-2.19-7.52-1-3.22-1.68-7-3.36-9.8-.1-.27-.52-.27-.52.14.11,3.49,1.36,6.84,2.2,10.2.63,2.28,1.15,4.69,1.88,7h-75c-.83-2.29-2.41-4.16-3.45-6.31a59.75,59.75,0,0,1-3.46-10.47c-.31-1.21-1.57-.67-1.36.54a44.61,44.61,0,0,0,3.35,11.14,31.92,31.92,0,0,0,2.62,5.1H622.73c-.94-2.82-1.88-5.64-2.93-8.46s-1.78-6.58-3.56-9a.35.35,0,0,0-.63.27c.21,3.35,1.68,6.44,2.62,9.53.84,2.55,1.67,5.1,2.51,7.65H596.66c-.11-.14-.32-.14-.52,0-21.68,0-43.35.13-64.92.8-.53,0-.53.94,0,1.07,21.67.54,43.34.81,65,.94,2.3,11.28,4.82,22.82,8,33.82.31,1.21,1.78.81,1.57-.53-2.2-11.14-5.13-22.41-8.17-33.29,20.21.14,40.31,0,60.52,0,.32,2.55,1.36,4.7,2.1,7.12.94,3,1.78,6,2.61,9.12,1.68,6.45,2.83,13,4,19.6.32,1.61,2.2.94,2-.67a142.89,142.89,0,0,0-4.19-20.4c-1.25-4.3-2.61-10.87-5.13-14.63,21.36-.14,42.62-.14,64-.14h26a293,293,0,0,1,6.8,33.29c.21,1.47,2,.8,1.79-.67a181.61,181.61,0,0,0-7.65-32.75h30.37c.1.27.21.4.31.67a.66.66,0,0,0,1.26-.4v-.14h28.58c12.15,11.81,25.24,22.28,37.7,33.69.94.81,1.78-1.07.84-1.88-11.84-10.73-23.67-22.28-36.13-31.67H915c28.07,0,56.13.54,84.29.13,2.1,5.77,4.82,11.14,7.33,16.51,2.73,6,5.24,13.56,9,18.66.52.67,1.47,0,1.26-.94-1.78-6.71-5.66-13-8.49-19.06-2.4-5.1-4.71-10.47-7.33-15.3,7.54-.14,15-.27,22.52-.54C1024,537.76,1024,536.15,1023.14,536Z"/><path class="cls-15" d="M593.62,598.43h0A121.1,121.1,0,0,1,594.88,579c.21-1.48-1.57-2.15-1.78-.68a81.2,81.2,0,0,0-.84,20.14h0l-48.06.4c-.94,0-.94,1.74,0,1.74,33.3.14,66.59.41,99.79.54-1,5.64-.84,11.68-1.26,17.45-.52,7.11-1.26,14.22-2,21.34-.1,1.34,1.68,1.61,1.78.26.73-6.84,1.36-13.69,1.78-20.66.42-5.91,1.26-12.35.84-18.39,29.84.13,59.79.27,89.73.27H758c4.18,5.1,9.63,9,14.24,13.28,5.65,5.24,11.41,11.81,17.59,15.71.73.53,1.57-.81.94-1.61-4.71-5.91-11-10.34-16.34-15-4.39-3.89-8.79-8.72-13.61-12.21H924c13.82,0,27.64.14,41.46.14a135.44,135.44,0,0,0,11.63,15.16c4.08,4.83,9.11,11.81,14.34,14.23.73.4,1.15-.94.73-1.61-1.88-3.09-4.92-5.37-7.33-7.79s-4.6-4.83-6.8-7.38c-3.56-4-6.91-8.59-10.47-12.75,21.36.14,42.72,0,64-.8.84-.27.84-2.15-.1-2.15-22.3-.94-44.71-.81-67-.81-.21-.13-.42-.13-.53,0-9.21,0-18.43.14-27.75.14H830.58c-1.89-3.76-4.82-7-7.12-10.2-2.93-4.16-5.87-8.32-9-12.08-.31-.4-.94.13-.63.67,2.41,4.3,5.24,8.32,8,12.35,2,3,3.88,6.44,6.18,9.39-58.74,0-117.48-.13-176.22,0"/><rect class="cls-12" x="-47.51" y="627.95" width="926.88" height="20.53"/><rect class="cls-16" x="-48.41" y="626.46" width="921.65" height="10.33"/><rect class="cls-1" x="-9.31" width="880.42" height="650.57"/></g></g><g id="右手"><path class="cls-17" d="M386.92,45.8c-1.79-12,18.13-6.29,18.13-6.29,9.54-5.06,3.22,10.06,3.22,10.06S388.71,57.86,386.92,45.8Z"/><path class="cls-18" d="M417.12,66.93s29.67,87.34,41.06,101.83c-71.87,12.79-71.41-96.18-71.41-96.18Z"/><path class="cls-19" d="M387.61,73.54c-2.2-1.89-7-12.24-7-12.24-2.36-6.57,3.25-7.2,2.23-10.78,4.27-2.33,5.53-1,13.68-5.68s16.66.18,21.6,1.31c3.49,7.42-1.21,21.43-1.21,21.43C416.92,67.92,387.61,73.54,387.61,73.54Z"/><path class="cls-20" d="M402.36,63,401,56.88"/><path class="cls-20" d="M408.21,63.17l1-4.44"/><line class="cls-20" x1="396.31" y1="64.52" x2="392" y2="60.12"/></g><path class="cls-17" d="M402.48,45.2c-1-3.75-.56-5-.72-9.48-.12-3.2,3.33-5,5.47-2.57s-.26,4.91-.87,8.57C405.83,44.87,403.32,48.29,402.48,45.2Z"/><path class="cls-17" d="M399.33,50.51c-2.78-2.84-.06-6.78-2.14-11.14-1.46-3.08,1-6.77,4-5.64s1.3,6.37,1,10.59S402,53.19,399.33,50.51Z"/><path class="cls-17" d="M395.48,48.47c-2.32-3.12-2.53-7-3.41-8.64-1.18-2.15,1.11-4.88,4-3.43s1.83,4.85,1.79,7.42C397.79,47,397.39,51,395.48,48.47Z"/><path class="cls-17" d="M392.53,47.77c-2.58-2.5-3.33-5.75-4.37-7.05-1.4-1.74.34-4.12,3.17-3s2.38,4,2.71,6.1C394.46,46.45,394.65,49.82,392.53,47.77Z"/><path class="cls-21" d="M530,591.46s-52.19,7.49-64.63-3.92c-.16-10,6.36-6.5,14.05-9.16,17.19-5.94,12.79-31.14,12.65-54.3,15.26-4.42,20-5.63,34.79-6.44,2.65,4,1.61,16.57,3.7,20.68,8,15.73,10,21.5,4.44,29C529.19,575.13,530,584.46,530,591.46Z"/><path class="cls-22" d="M472.19,591.2s24.88,2.78,30.35-.6c16.8-10.36,7.44-26.6,28.33-26.7,7.28,0,7-4.44,6.73-2.63-.61,4.59-5.38,8-6.53,14.74-2.16,12.68-.49,15.2-.49,15.2S505.44,596.49,472.19,591.2Z"/><path class="cls-23" d="M500.21,531.58l20.28-4.19c-4-25.23-.26-46.69-5.71-74.86-7.13-36.92-23-45-26.25-69.29l-14.12-67-48.37,12s30.1,92,39.31,98.75,13,20.06,13.83,31.85C479.92,468.77,490,502.57,500.21,531.58Z"/><path class="cls-24" d="M436.51,332.36c5.67-.93,5.57,27.34,24.4,65.6,2.13,4.32,20.77,27.67,22.36,32.3,14.08,41.06,23.92,82.56,21,98.18,6.24.11,13.76,0,13.76,0s-11.35-71.65-14-81.67-15.33-36.88-21.67-51.48C478,385.19,468,332.91,468,332.91Z"/><path class="cls-25" d="M526.82,517.64a15.24,15.24,0,0,1,.62,9.26c-10.54,4.16-21.81,6.2-35.44,6.68l-.13-8.87C503.75,524.36,516.8,522.13,526.82,517.64Z"/><path class="cls-21" d="M415.9,598.16s-60.61,12.3-72.8-2.12c1.24-11.12,5.82-7.92,14.73-9.78,19.93-4.16,18.61-32.74,21.73-58.47,17.56-2.74,19.81-4.44,36.33-3.24,2.38,4.82-.08,14.46,1.88,19.24,4,9.83,4.08,17.65.63,27.55C413.61,585.09,416.91,590.4,415.9,598.16Z"/><path class="cls-22" d="M347.35,597.43s26,4.66,33,3.17c13.34-2.82,14-23.86,33.61-32.92,7.38-3.42,6.69-4.74,6.69-4.74s-3.16,9.51-4.6,15.78c-3.21,14-.15,19.44-.15,19.44S378.34,611,347.35,597.43Z"/><path class="cls-23" d="M409.06,528.9l-21.48,4.4c-5.21-72.21,11.16-79.84,2.64-115.09-2.8-11.57,4.28-90.83,8.68-123.47L463,296.39s-15.13,59.9-26.64,91.25c-10.85,18.35-13.51,34.29-9.79,47.66C433.17,459.11,409.06,528.9,409.06,528.9Z"/><path class="cls-24" d="M414,320.5s-24,190.24-19.59,206.63c5.79,2.34,5.39-.88,5.39-.88s12.08-56.32,13.17-66.63-2.6-50.26.29-60.87S436,334.25,436,334.25Z"/><path class="cls-25" d="M415.64,524.4A21.05,21.05,0,0,1,416.91,535c-11.51,3.22-24.37,4.09-38.44,2.84l1.35-9.81A89.09,89.09,0,0,0,415.64,524.4Z"/><path class="cls-23" d="M439.09,176.48c-9.37,5.16-18-.81-21.09-2.54a8.08,8.08,0,0,1-3.54-3.65c2.59,1.92,4.7,3.35,7.4,3.58,5.38.48,9.17-1.07,11.36-4.54,3-4.83,1.71-10.23-.78-16-2.82,2.48-6.2,4.15-7.71,7.55-2.52,5.73-8.38,8.66-16.49,8.77-3.87.05-16.81,4.29-18.43,7.78a5.7,5.7,0,0,1,1.41-5.52c2.56-3,6.91-4.08,11-5.36a3.62,3.62,0,0,0,.63-.16c.76-.38.81.06,2-1.24.59-.66-18.13,2-10.57-1.8,11.6-5.8,3.06-9.23-4.15-7.71,8.15-4.1-2.9-24.54,6.36-38.33C406.75,106.58,407,38.7,423.4,31.64s25.49-1.75,33,.88,20.75,34.23,15.55,51.42c-5,16.64-5,24.89-5,24.89s-.11,15.38,5.72,24.68,7.26,6.74,10.81,11c3.24,3.92,1.27,4.57-6.88,6,3.25-5.47.22-6.74-4.09-7.34s-6.58-5.58-9.11-17.33-9.23-27.06-9.23-27.06,2.75,6.1-7.61,5.58-14,5.68-14,5.68L445,149S448.46,171.32,439.09,176.48Z"/><path class="cls-26" d="M408.47,116.42s-10.41,17.86-6.8,27.8-2,15.18-2,15.18"/><path class="cls-20" d="M422.55,142.08s-6.47,17.43-17.91,23.11"/><path class="cls-20" d="M432.21,153.25s.64-12.35-5.26-22"/><path class="cls-20" d="M466.59,58.92c-5.67-3.12-8.35,40.5,1,50.69"/><path class="cls-20" d="M451.15,59.3s-6.09,21.24,3,39.56"/><path class="cls-17" d="M401.2,169.15c11.27-1,45.85-11.13,46.92-28.82s-3-27.68-10.54-28.14C423.88,111.37,395.57,169.64,401.2,169.15Z"/><path class="cls-18" d="M386.11,252.88c3-5.09.31-70.16,3.43-82.35s32.6-56.32,32.49-46.47a261.53,261.53,0,0,0-21.51,49.21"/><path class="cls-18" d="M491.68,201.63C497.07,224.17,493.78,315,502.6,339c10.21,27.81-74.47-5.64-83.65-12.11-25-17.64-27.44-.49-36.75,2-13.68,3.6,9.41-99.08,9.41-117.12,0-51.56,42.63-73,50.47-100C447.29,93.83,479.69,151.49,491.68,201.63Z"/><path class="cls-27" d="M541.17,301.16c15.22-2.87,6.68-114.09,6.68-114.09l-167.5,31.18s32.56,106.68,47.78,103.81S525.94,304,541.17,301.16Z"/><rect class="cls-28" x="377.86" y="195.59" width="171.2" height="7.34" transform="translate(-28.9 89.35) rotate(-10.68)"/><path class="cls-19" d="M428.79,228.42l4.81-.9s6.11,11.76,5.17,17.08c-.67,3.76-5.33,8.44-5.33,8.44S427,250.46,425,247.2c-2.82-4.61-1.41-17.79-1.41-17.79l4.81-.91Z"/><path class="cls-19" d="M429.37,231.8l3.56-.67s4.52,8.71,3.82,12.64c-.49,2.78-3.94,6.24-3.94,6.24s-4.79-1.9-6.26-4.31c-2.09-3.41-1.05-13.17-1.05-13.17l3.56-.67Z"/><rect class="cls-19" x="421.86" y="222.69" width="12.35" height="6.52" transform="translate(890.53 368.64) rotate(169.32)"/><path class="cls-25" d="M488.5,154.1s4.28,29,4.59,35.72l7.67-1.16"/><path class="cls-29" d="M455.85,111.7c40.12,1.55,58.63,100.18,58.63,100.18a94.3,94.3,0,0,0-9.79,2.25c-.31-6.73-12.32-60.95-26.82-80.67-11.33-15.4-20-20.51-28.79-18.86s-15,9.59-19.95,28.05c-6.32,23.65,2.24,78.52,4.41,84.9A96.77,96.77,0,0,0,423.6,229s-18.69-98.6,18.11-114.65a23.19,23.19,0,0,1,14.14-2.67Z"/><path class="cls-19" d="M509.43,213.21l-4.81.91s-1.41,13.18,1.41,17.79c2,3.26,8,5.92,8,5.92s5.09-4.76,5.76-8.52c.94-5.32-5.17-17.08-5.17-17.08l-4.81.9Z"/><path class="cls-19" d="M510.12,216.57l-3.56.68s-1,9.75,1,13.16c1.48,2.41,5.95,4.37,5.95,4.37s3.77-3.52,4.26-6.3c.7-3.93-3.82-12.64-3.82-12.64l-3.56.68Z"/><rect class="cls-19" x="503.05" y="207.37" width="12.35" height="6.52" transform="translate(-30.22 98.04) rotate(-10.68)"/><path d="M430.66,66.55l.62-.5Z"/><path d="M429.45,67l.52-.41Z"/><path class="cls-17" d="M402.36,86.2a39.42,39.42,0,0,1-.47,7.83c.18,4.45,13.88,2.65,19.51,2.16,11.27-1,10.56-12.28,11.63-30s-9-26.31-16.55-26.77c-13.69-.83-11.64,14-15.78,25.55-.89,2.48-6.26,7.08-3.44,8.14a20.87,20.87,0,0,0,4.84,1.28c1.14.06.22,4.43.22,4.43a20.27,20.27,0,0,0-1.16,2.87c0,.49,5-.15,5-.15s-4.58,1.16-4.64,2.14S402.39,85.71,402.36,86.2Z"/><path class="cls-23" d="M423.7,45.83c-.19,4-4.56,6.51-9.53,6.26s-22.44-3.22,2-22.3C419.83,26.89,423.9,41.8,423.7,45.83Z"/><path class="cls-20" d="M498.67,165.29c.48-2.4-6.17,8.48-6.88,5.92"/><path class="cls-20" d="M419.55,61.72c5.59-3.37,12.95,54.32,4.32,66.53"/><path class="cls-20" d="M435.7,64.2s8.58,28.71,1,51.63"/><path class="cls-23" d="M481.31,194.77c-.5,12.81-3.68,15.8-4.79,18.54a4.24,4.24,0,0,0,.28,4.23c.34-2.85,8.5-8.84,11.23-9.78,5.7-2,9.16-5.39,9.62-10,.27-2.75,2.28-4.72,3.69-7.12,3.1,3.49,5.3,7,4.26,11.12-.74,3-3.06,4.93-7,5.84-2,.46-3.79-.06-6.06-.81a6,6,0,0,0,3.35,1.75c2.58.51,10.06,2.73,15.49-3.09s-2.18-20.79-2.18-20.79l-12.64-31.27c-7.54-17.16-17-110.57-34.84-122s-35.19-5.42-42.7-2.93-6.21,6.33-9.18,22.84a147.58,147.58,0,0,0,6.75,42.63c7,22.51-3.7,33.79-3.71,37.08-.05,8.83,4.5,6.65,7.45,14.69a41.36,41.36,0,0,1,4.06-18.41s1.72,20.23-3.39,31.7-6.86,7.93-10.12,13.13c-3,4.74-.84,5.84,7.81,8.82-4-7.6-.93-8.89,3.5-9.11s6.28-6.5,7.69-21.63a85.84,85.84,0,0,1,6.29-25.66s-2.52,7.58,8.24,8.23,15.94.62,15.94.62.53,62.52,11.51,74.18c8.73,9.29,7.55-4.11,9.61-13"/><path class="cls-26" d="M492.48,159.55s1.42,14.59,6.28,20.78,2.11,11.19,2.11,11.19"/><path class="cls-20" d="M478.82,174.76s5.38,12.74,2.08,21.65"/><path class="cls-20" d="M435.75,125.53s2.55-16.11-.36-28.43"/><g id="左手"><path class="cls-30" d="M444.59,342.46,442,323.29c-2.6,9.72-.67,18.15-2.29,21.71l-.3.36a2.24,2.24,0,0,1-1.17.77c-1.23.22-1.77-1.78-1.77-1.78s1-9.4,0-11-3.23-3.89-3.56-6.16c-.32-3.57,2-8.42,2-8.42l11.69-21.38,11.79-4.69,1.59,22.57s-.78,2.77-1.05,4.53-3.17,9.32-4.79,8.35c-1.41-.85,1-10.89,1-10.89l-.25-.2s-2.52,16.63-5.12,22.46-4.87,4.86-4.87,4.86Z"/><path class="cls-30" d="M442,323.29l2.63,19.17-.06.28c-3,4.83-4.92,2.89-5.16,2.62l.3-.36C441.29,341.44,439.36,333,442,323.29Z"/><path class="cls-26" d="M442,323.29c-2.6,9.72-.67,18.15-2.29,21.71l-.3.36a2.24,2.24,0,0,1-1.17.77c-1.23.22-1.77-1.78-1.77-1.78s1-9.4,0-11-3.23-3.89-3.56-6.16c-.32-3.57,2-8.42,2-8.42l11.69-21.38,11.79-4.69,1.59,22.57s-.78,2.77-1.05,4.53-3.17,9.32-4.79,8.35c-1.41-.85,1-10.89,1-10.89l-.25-.2s-2.52,16.63-5.12,22.46-4.87,4.86-4.87,4.86"/><path class="cls-26" d="M439.34,345.32l0,0c.24.27,2.13,2.21,5.16-2.62l.06-.28c1.53-6.66,0-11.45,2.88-16.24"/><path class="cls-26" d="M437.75,319.76c-1.51,3.39-1,13.93-1,13.93"/></g><path class="cls-18" d="M477.45,190.94s4.35,21.57,1.87,29.4c-2.24,7.12-10.69,60-9.54,76.9.29,4.18-31.84.09-31.33-6.95,1.26-17.72,9-50.44,9-65.63a261.84,261.84,0,0,0-8.6-75c-7.13-27.72.85-37.72,15.06-37.68S477.54,160.07,477.45,190.94Z"/><path class="cls-19" d="M469.65,288.37c1.68,2.57,3.59,14.47,3.59,14.47.49,7.35-5.39,6.37-5.39,10.29-5,1.14-5.9-.6-15.53,1.8s-16.86-5-21.54-7.59c-1.39-8.55,7.44-21.4,7.44-21.4C438.26,285.58,469.65,288.37,469.65,288.37Z"/><path class="cls-20" d="M451.62,294.79c-.4,6.81-.15,2.61-.39,6.61"/><path class="cls-20" d="M445.72,292.93l-2.28,4.22"/><line class="cls-20" x1="458.2" y1="295.01" x2="461.29" y2="300.73"/><ellipse class="cls-25" cx="401.17" cy="60.63" rx="2.27" ry="8.19"/><line class="cls-26" x1="403.43" y1="60.33" x2="410.72" y2="58.81"/></g></svg>