<?xml version="1.0" encoding="UTF-8"?>
<svg width="96px" height="96px" viewBox="0 0 96 96" version="1.1" xmlns="http://www.w3.org/2000/svg" xmlns:xlink="http://www.w3.org/1999/xlink">
    <!-- Generator: sketchtool 49.3 (51167) - http://www.bohemiancoding.com/sketch -->
    <title>5BB471B4-EA39-4CD5-B059-82B51BE88AF4</title>
    <desc>Created with sketchtool.</desc>
    <defs>
        <ellipse id="path-1" cx="47.6452006" cy="47.4070301" rx="47.6452006" ry="47.4070301"></ellipse>
        <polygon id="path-3" points="0.00348713603 0.074897419 46.123938 0.074897419 46.123938 22.4356231 0.00348713603 22.4356231"></polygon>
    </defs>
    <g id="dashboard" stroke="none" stroke-width="1" fill="none" fill-rule="evenodd">
        <g id="Dashboard標記" transform="translate(-702.000000, -993.000000)">
            <g id="Group-4" transform="translate(0.000000, 837.000000)">
                <g id="Group-3" transform="translate(702.000000, 156.000000)">
                    <g id="登入">
                        <g id="Mask" transform="translate(0.150146, 0.364301)" fill="#00C5DC" fill-rule="nonzero">
                            <ellipse id="path-1" cx="47.6452006" cy="47.4070301" rx="47.6452006" ry="47.4070301"></ellipse>
                        </g>
                        <g id="genie_colorful-Clipped" transform="translate(0.150146, 0.364301)">
                            <mask id="mask-2" fill="white">
                                <use xlink:href="#path-1"></use>
                            </mask>
                            <g id="path-1"></g>
                            <g id="genie_colorful" mask="url(#mask-2)">
                                <g transform="translate(14.337662, 11.844156)" id="Group">
                                    <g transform="translate(0.591167, 0.481672)">
                                        <g>
                                            <polygon id="Path-2" fill="#ADD8EE" fill-rule="nonzero" points="44.4394865 67.4273517 44.1479346 65.0544517 21.0003183 65.4821598 19.4652517 67.4273517 18.3388763 83.9420359 32.7008113 88.809711 48.1294915 83.9420359"></polygon>
                                            <g id="Page-1">
                                                <g id="Group-32">
                                                    <g id="Group-4" transform="translate(0.000000, 10.835188)" fill-rule="nonzero">
                                                        <path d="M10.0117033,10.6829166 C3.60768052,17.2172104 -0.316373143,26.2595556 0.0200329205,35.4193075 C0.186184696,39.9475649 1.7041145,44.3462701 5.01484246,47.5749562 C8.06095836,50.5445377 12.0957799,52.3481484 16.1429089,53.576871 C25.3468968,56.3683181 35.385746,56.8257996 44.7805007,54.706405 C53.2337287,52.797533 62.2879749,48.7287813 64.4541014,39.6277327 C65.5720364,34.9233651 64.9299934,29.9011895 63.6479576,25.2939861 C62.4479726,20.9802996 60.4356903,17.2253074 57.5803412,13.747638 C52.0316924,6.98662778 46.8071422,2.40573967 35.3324133,0.72763263 C30.5837546,0.0333133122 25.7017641,1.13248354 21.3387416,2.97657946 C17.0762306,4.78019028 13.2362785,7.39350296 10.0117033,10.6829166 Z" id="Fill-2" fill="#BCDFF1"></path>
                                                        <path d="M11.2521381,9.59642693 C5.2064478,15.7650991 1.5019617,24.3014864 1.81954441,32.9487111 C1.97639928,37.2235932 3.40939443,41.376172 6.53487304,44.4241993 C9.41054568,47.22762 13.2196017,48.9303111 17.0402766,50.0902813 C25.729262,52.725535 35.2063947,53.1574185 44.0754728,51.1566131 C52.0557066,49.3545506 60.603329,45.5134629 62.6482516,36.9216569 C63.7036332,32.4805188 63.0975148,27.7393553 61.8872151,23.3899447 C60.7543744,19.3176274 58.8546876,15.772743 56.1591075,12.4896641 C50.9209294,6.10696125 45.988715,1.78239342 35.1560463,0.19818364 C30.6730953,-0.457285545 26.064273,0.580381416 21.9453803,2.32129229 C17.9213749,4.02398338 14.2962845,6.49107005 11.2521381,9.59642693 Z" id="Fill-2-Copy" fill="#D1EBF9"></path>
                                                    </g>
                                                    <path d="M54.7847531,30.7164437 C54.7847531,33.2508105 52.7273429,35.3074531 50.1919899,35.3074531 C47.6545856,35.3074531 45.5992266,33.2508105 45.5992266,30.7164437 C45.5992266,28.182077 47.6545856,26.1254343 50.1919899,26.1254343 C52.7273429,26.1254343 54.7847531,28.182077 54.7847531,30.7164437" id="Fill-5" fill="#FFFFFF" fill-rule="nonzero"></path>
                                                    <path d="M15.0030951,35.3074531 C17.5404994,35.3074531 19.5958584,33.2508105 19.5958584,30.7164437 C19.5958584,28.182077 17.5404994,26.1254343 15.0030951,26.1254343 C12.467742,26.1254343 10.4103318,28.182077 10.4103318,30.7164437 C10.4103318,33.2508105 12.467742,35.3074531 15.0030951,35.3074531 Z" id="Fill-7" fill="#FFFFFF" fill-rule="nonzero"></path>
                                                    <path d="M56.3968356,38.6942334 C54.3558354,38.6942334 52.7004714,37.8197554 52.7004714,36.7388035 C52.7004714,35.6578516 54.3558354,34.7833736 56.3968356,34.7833736 C58.4378358,34.7833736 60.0931998,35.6578516 60.0931998,36.7388035 C60.0931998,37.8197554 58.4378358,38.6942334 56.3968356,38.6942334 Z" id="Fill-9" fill="#EDF9FF" fill-rule="nonzero"></path>
                                                    <path d="M12.7241491,36.935561 C12.7241491,38.016513 11.0687851,38.8909909 9.02778496,38.8909909 C6.98678475,38.8909909 5.33142074,38.016513 5.33142074,36.935561 C5.33142074,35.8546091 6.98678475,34.9801311 9.02778496,34.9801311 C11.0687851,34.9801311 12.7241491,35.8546091 12.7241491,36.935561" id="Fill-11" fill="#EDF9FF" fill-rule="nonzero"></path>
                                                    <path d="M25.2476182,67.9371946 C22.4907296,67.5687803 19.9910075,67.0444158 19.7964535,67.0444158 C17.7287869,68.1375129 8.71449095,79.8256414 17.2046416,82.3701295 C25.6947922,84.9146176 32.0311235,80.2871719 32.0311235,80.2871719 C32.0311235,80.2871719 29.4014126,78.661695 26.500936,76.4107244 C24.6732665,76.5726645 22.5194472,76.3945303 21.1533103,75.0929342 C19.9799916,73.6253498 21.5922792,70.7792478 26.1665812,69.5525498 C30.5029374,68.8724004 32.9726502,69.4634824 37.1674697,70.1719717 C44.2443046,71.621338 44.7263499,76.3054629 44.7263499,76.3054629 C44.7263499,76.3054629 44.2976373,75.3479906 43.352008,74.5018523 C41.7294641,73.044389 39.0628307,71.8338845 34.2198142,71.1861232 C26.9050335,70.2104322 25.4609489,71.0282313 23.7317397,72.538325 C21.0343375,74.8945577 26.7081129,74.3176451 26.7081129,74.3176451 C26.7081129,74.3176451 34.5295538,79.631313 37.3069552,81.2284501 C40.0843565,82.8235624 48.8473242,84.8781812 50.6483274,78.6961078 C52.26882,72.386506 44.287381,67.0930803 44.287381,67.0930803 C34.9931378,68.8339393 25.3276173,67.9371946 25.2476182,67.9371946 Z" id="Fill-13" fill="#C6E7F9" fill-rule="nonzero"></path>
                                                    <path d="M25.3876107,67.8399547 C22.2947735,67.4930836 20.9625645,67.2698032 20.7488009,67.2177918 C18.925023,68.1819541 13.2982746,77.0424075 17.9330193,79.6405016 C22.567764,82.2385957 30.7433094,79.4706552 30.7433094,79.4706552 C30.7433094,79.4706552 29.8196787,78.9481297 26.5425641,76.4547416 C24.9304747,76.5975809 23.0492058,75.8091235 21.8442098,74.6610558 C20.8092882,73.3665787 22.2314007,70.8561843 26.2661472,69.7741795 C30.0910145,69.1742562 32.2694158,69.6956185 35.9694412,70.3205386 C42.2115379,71.5989469 42.6367241,75.7305625 42.6367241,75.7305625 C42.6367241,75.7305625 42.2585797,74.8860274 41.4244909,74.1396941 C39.9933319,72.8541438 37.9836888,71.9646496 33.7119235,71.3932937 C27.2599477,70.5326892 25.4480164,71.1206855 24.705609,71.7342452 C22.2178129,73.7902747 26.7438033,73.9772148 26.7438033,73.9772148 C26.7438033,73.9772148 33.8904951,77.1379505 36.3402919,78.5466994 C38.7900887,79.953663 44.7092597,83.108198 48.896968,77.6884351 C50.3263176,72.1230739 44.5303067,67.169755 43.9465175,67.169755 C43.3627284,67.169755 32.8413032,68.7961415 25.3876107,67.8399547 Z" id="Fill-13-Copy" fill="#D1EBF9" fill-rule="nonzero"></path>
                                                    <path d="M36.4288786,80.7250759 C33.282897,79.8508725 31.7944756,77.7436046 31.7944756,77.7436046 C31.7944756,77.7436046 35.2216504,74.9916374 33.4308934,70.8146568 C34.6212077,70.5163007 37.9976409,71.5657621 38.0652964,71.82239 C38.0652964,71.82239 40.7947737,75.21071 36.4288786,80.7250759 Z" id="Fill-15" fill="#FFE473" fill-rule="nonzero"></path>
                                                    <path d="M35.765503,80.171007 C39.2075114,76.2196625 38.0895766,71.9930188 37.58907,71.7177201 C37.1685624,71.4829066 35.4578145,71.0051825 34.3132134,71.1246134 C35.2424326,74.2014807 33.4414294,77.4220694 32.222983,77.9949332 C33.0352806,79.1123221 34.1962918,79.8855871 35.765503,80.171007 Z M36.6925716,81.1811102 C36.5794836,81.1811102 36.4639626,81.1811102 36.3460086,81.1811102 C33.1296384,80.2884137 31.7040151,78.1129702 31.6404262,78.0218786 L31.3704249,77.4711023 L31.6404262,77.2945415 C31.759399,77.1953529 34.6003893,74.8330479 33.0578444,71.2379719 L32.7932323,70.6225982 L33.4516857,70.458634 C34.2557782,70.2582327 35.6424276,70.5537737 36.39729,70.748102 C38.1388068,71.1954626 38.5018791,71.5031489 38.6085445,71.7217683 C39.0228983,72.3088027 40.6987749,75.8391023 36.9613855,80.9827331 C36.8952643,81.1149843 36.8056597,81.1811102 36.6925716,81.1811102 Z" id="Fill-17" fill="#FFDA2A" fill-rule="nonzero"></path>
                                                    <g id="Group-21" transform="translate(9.025529, 0.000000)">
                                                        <g id="Fill-19-Clipped">
                                                            <mask id="mask-4" fill="white">
                                                                <use xlink:href="#path-3"></use>
                                                            </mask>
                                                            <g id="path-3"></g>
                                                            <path d="M46.123938,21.6360426 C46.123938,21.6360426 40.4973414,13.083567 29.6851685,10.881178 C26.5693099,10.2455621 27.1887894,5.69301356 30.5487475,5.3124537 C33.9107569,4.93189384 36.4912375,3.02909454 34.8071559,0.0736828663 C34.2389579,2.4784973 33.5025568,3.27402934 30.4359284,2.81047505 C30.4359284,2.81047505 22.3683366,0.427927416 18.5694096,9.54719426 C17.0986587,13.0815427 8.33569097,11.4196298 0.00348713603,22.4356231 C17.0822487,10.4763271 38.7968498,16.4701449 46.123938,21.6360426" id="Fill-19" fill="#2F7A86" fill-rule="nonzero" mask="url(#mask-4)"></path>
                                                        </g>
                                                    </g>
                                                    <path d="M26.9186389,45.3884433 C26.9186389,45.3884433 32.9472817,42.6233115 38.108243,45.3884433 C38.108243,45.3884433 33.2016375,44.2791518 26.9186389,45.3884433" id="Fill-22" fill="#C6E7F9" fill-rule="nonzero"></path>
                                                    <path d="M53.3404634,30.6542991 C53.3404634,32.4376674 51.8943276,33.8829851 50.1097345,33.8829851 C48.3251413,33.8829851 46.8790055,32.4376674 46.8790055,30.6542991 C46.8790055,28.8729551 48.3251413,27.4256131 50.1097345,27.4256131 C51.8943276,27.4256131 53.3404634,28.8729551 53.3404634,30.6542991" id="Fill-24" fill="#2F7A86" fill-rule="nonzero"></path>
                                                    <path d="M14.9191987,33.8829851 C16.7037919,33.8829851 18.1499276,32.4376674 18.1499276,30.6542991 C18.1499276,28.8729551 16.7037919,27.4256131 14.9191987,27.4256131 C13.1346055,27.4256131 11.6884697,28.8729551 11.6884697,30.6542991 C11.6884697,32.4376674 13.1346055,33.8829851 14.9191987,33.8829851 Z" id="Fill-26" fill="#2F7A86" fill-rule="nonzero"></path>
                                                    <path d="M24.5252328,66.268022 C24.4985665,66.2761191 29.9282424,66.9805596 32.2789823,66.9805596 C34.6133122,66.9805596 36.603031,66.7842065 40.2522163,66.3429195 C40.2399088,66.3247013 35.0851012,64.6283757 32.4574417,58.7377949 C32.4369291,58.6952856 30.2749047,64.4522656 24.5252328,66.268022 Z" id="Fill-28" fill="#2F7A86" fill-rule="nonzero"></path>
                                                    <path d="M42.5233675,44.8991809 C40.8290297,44.8991809 39.1716144,44.4113356 37.569583,43.9417085 C36.7880543,43.7129678 35.9798593,43.4741057 35.1901255,43.3020441 C34.3921868,43.1279582 33.6004018,43.0429395 32.7696429,43.0429395 C31.4978639,43.0429395 30.131727,43.2514377 28.5953359,43.6785554 L28.0661118,43.8283503 C26.2897236,44.3283412 24.4517978,44.8445261 22.6323333,44.8445261 C21.3379905,44.8445261 20.1728768,44.5874457 19.0713521,44.0591153 C17.6293188,43.3688445 15.1657597,41.6320341 15.0837094,39.5025182 C15.0734532,39.2130499 15.1431959,38.9903819 15.2949889,38.8345143 C15.416013,38.7090105 15.5801135,38.6442343 15.7729317,38.6442343 C16.1893367,38.6442343 16.6508694,38.9701393 16.8252262,39.38916 C16.9647116,39.7251862 17.1452222,40.0591883 17.3606042,40.383069 C18.2939259,41.7737319 19.7605742,42.6988162 21.4877322,42.9882847 C21.9184961,43.0591335 22.373875,43.0955701 22.8415615,43.0955701 C23.7277043,43.0955701 24.6958973,42.9639936 25.7215256,42.704889 C27.50817,42.2494317 29.2640455,41.830411 31.0978688,41.6907374 C31.5901704,41.6522766 32.098882,41.6320341 32.6055424,41.6320341 C33.3911736,41.6320341 34.2014199,41.6785919 35.0198712,41.7717076 C36.1419086,41.8972114 37.2352283,42.164413 38.2916254,42.4214934 C39.0218727,42.5996278 39.7787863,42.783835 40.5315975,42.9174357 C41.1613332,43.030794 41.7808126,43.0874731 42.3736258,43.0874731 C44.1520652,43.0874731 45.6905075,42.5733124 46.8269036,41.5976217 C47.6084323,40.9275935 48.0720163,40.1178916 48.4597037,39.3405779 C48.4638063,39.3345051 48.4781651,39.302117 48.4822676,39.29402 C48.4925239,39.2737775 48.5048314,39.2535349 48.5191902,39.2353166 C48.7079058,38.9498968 49.1202084,38.6968649 49.421743,38.6280403 C49.477127,38.6158948 49.5304596,38.609822 49.5796898,38.609822 C49.741739,38.609822 49.8812245,38.6705496 49.9858386,38.7879564 C50.2176305,39.0450367 50.188913,39.4883485 50.1663492,39.6664829 C50.0884014,40.2737592 49.7950717,40.8972297 49.2330274,41.6279855 C47.9079157,43.3587232 45.7848653,44.5570819 43.5530982,44.836429 C43.2207947,44.8769142 42.8741324,44.8991809 42.5233675,44.8991809" id="Fill-30" fill="#2F7A86" fill-rule="nonzero"></path>
                                                </g>
                                            </g>
                                            <ellipse id="Oval" fill="#FFF0B3" fill-rule="nonzero" transform="translate(36.156830, 73.335717) rotate(109.000000) translate(-36.156830, -73.335717) " cx="36.1568302" cy="73.3357169" rx="1" ry="1"></ellipse>
                                            <ellipse id="Oval-Copy-2" fill="#FFDA2A" fill-rule="nonzero" transform="translate(35.456391, 77.298657) rotate(109.000000) translate(-35.456391, -77.298657) " cx="35.4563906" cy="77.2986571" rx="1.85392893" ry="2.39774268"></ellipse>
                                            <ellipse id="Oval-Copy-3" fill="#FFE473" fill-rule="nonzero" transform="translate(35.804002, 76.613588) rotate(109.000000) translate(-35.804002, -76.613588) " cx="35.8040022" cy="76.6135881" rx="1.50631726" ry="1.94102979"></ellipse>
                                            <circle id="Oval-Copy" fill="#FFF0B3" fill-rule="nonzero" transform="translate(37.316285, 73.961974) rotate(109.000000) translate(-37.316285, -73.961974) " cx="37.3162847" cy="73.9619743" r="1"></circle>
                                        </g>
                                        <path d="M47.2617692,88.7312628 C47.698438,86.2878396 48.3414888,85.3920916 48.0550428,83.6133519 C42.3853871,86.6914716 33.485154,80.6463902 33.485154,80.6463902 C33.485154,80.6463902 27.8673548,86.1091399 18.6467561,83.5541791 C16.9330187,90.5280062 21.856927,96.6234134 25.7906211,98.9618107 C30.4256141,101.716303 35.3026046,102.419525 41.4340311,101.069046 C43.8219043,100.543454 46.5703045,99.4679364 48.5655492,98.4556856 C51.0324421,97.2025378 52.3486122,97.6040316 52.9338511,98.533551 C53.4771108,99.3925047 53.3931525,100.708918 53.01534,101.584904 C52.8474234,101.969365 52.5955484,102.51929 52.4597335,103.134914 C52.333796,103.701872 52.3066331,104.319929 52.5362838,104.916087 C52.9215043,105.916172 54.0302479,106.850558 56.6057928,107.342083 C56.6057928,107.342083 54.2574292,105.998904 54.9710749,103.565607 C55.0871349,103.16898 55.2822146,102.745586 55.5834767,102.292994 C57.0329924,100.346356 58.2306331,96.2949182 55.7316385,94.42128 C55.3637035,94.1438843 54.9142796,93.9151543 54.3710199,93.7472571 C52.6622212,93.2192316 50.9213208,93.958954 49.4545196,95.0563705 C48.7433433,95.5892621 48.093901,96.2048864 47.548172,96.803477 C45.9332091,98.5627505 43.9700661,97.0857394 45.6912116,92.7204062 C45.7060278,92.6814732 46.503675,89.9430446 47.2617692,88.7312628 Z" id="Fill-9" fill="#C6E7F9" fill-rule="nonzero"></path>
                                        <path d="M46.3240654,89.2812411 C47.4291414,86.7963466 47.8700609,85.4485147 47.6100431,83.8338857 C42.2106526,85.8295487 33.4648928,80.6383761 33.4648928,80.6383761 C33.4648928,80.6383761 28.7275472,85.2744667 20.3850407,83.8674845 C18.8294165,90.1978909 23.2990341,95.730922 26.8697969,97.8535742 C31.0771551,100.35393 35.6519137,101.671228 41.2176411,100.445347 C43.3852039,99.9682473 45.6741029,99.0191208 47.4852619,98.1002618 C49.7245538,96.9627323 52.2038997,96.3079724 52.9585436,97.0807736 C53.7131875,97.8535742 53.9138975,98.9355709 53.9138975,99.7663904 C53.9138975,100.225957 53.0818279,101.614951 52.9585436,102.173776 C52.8442254,102.688425 52.5267171,103.562845 52.6048586,104.12075 C52.7538683,105.184632 52.9585436,105.441245 54.7269689,106.249323 C54.7269689,106.249323 53.2660944,105.340268 53.9138975,103.131472 C54.0192496,102.771439 55.1847983,100.551278 55.4582654,100.140443 C56.7740455,98.3734068 57.2666321,97.4398865 55.4582654,94.714449 C55.2517816,94.4032519 54.6678983,94.164447 54.174761,94.0120401 C52.6236198,93.5327314 51.0825483,94.4212663 49.7510774,95.4174327 C49.1055158,95.9011593 47.7978962,96.9332004 47.3025174,97.4765642 C45.8365545,99.0735229 43.3719659,96.1505935 44.9343147,92.1880152 C44.9477638,92.1526747 45.6359147,90.381221 46.3240654,89.2812411 Z" id="Fill-9-Copy" fill="#D1EBF9" fill-rule="nonzero"></path>
                                    </g>
                                </g>
                            </g>
                        </g>
                    </g>
                </g>
            </g>
        </g>
    </g>
</svg>