<svg id="圖庫一" xmlns="http://www.w3.org/2000/svg" viewBox="0 0 400 400"><defs><style>.cls-1{fill:#f5f5f5;}.cls-2{fill:#adadad;}.cls-2,.cls-3,.cls-4,.cls-5,.cls-6{stroke:#999;}.cls-2,.cls-3{stroke-miterlimit:10;}.cls-3{fill:#d2d2d2;}.cls-4{fill:#ccc;}.cls-4,.cls-5,.cls-6{stroke-linecap:round;stroke-linejoin:round;}.cls-5{fill:#ededed;}.cls-6{fill:#dbdbdb;}</style></defs><title>product2.1</title><rect id="背景" class="cls-1" width="400" height="400"/><path class="cls-2" d="M283.75,348c22.57,0,40.39-161.56,40.39-161.56l-248.28-.59s17.82,161.56,40.39,161.56S261.18,348,283.75,348Z"/><rect class="cls-3" x="75.27" y="175.75" width="249.46" height="10.69"/><path class="cls-4" d="M156.48,123.21s1.69,42.6,3.08,52.38l-11.29.41"/><path class="cls-5" d="M142.48,213.5h7.13s5.58,18.5,2.79,25.86c-2,5.21-9.92,10.64-9.92,10.64s-8.57-5.43-10.54-10.64c-2.79-7.36,2.79-25.86,2.79-25.86h7.75Z"/><path class="cls-5" d="M142.4,218.5h5.28s4.12,13.68,2.06,19.13c-1.46,3.85-7.34,7.87-7.34,7.87s-6.34-4-7.8-7.87c-2.06-5.45,2.06-19.13,2.06-19.13h5.74Z"/><rect class="cls-5" x="133.07" y="205" width="18" height="9.5" transform="translate(284.14 419.5) rotate(180)"/><path class="cls-4" d="M248.05,123.21s-1.68,42.6-3.07,52.38l11.29.41"/><path class="cls-6" d="M212.75,53.67c57,13,56.91,159.29,56.91,159.29s-2.75-.22-14.64.57c1.38-9.72-1.18-90.59-16.62-122.75C226.34,65.67,215.27,56,202.27,56s-24.08,9.67-36.13,34.78c-15.45,32.16-18,113-16.62,122.75-11.9-.79-14.64-.57-14.64-.57s-.13-146.24,56.91-159.29A42.09,42.09,0,0,1,202.27,52,42.09,42.09,0,0,1,212.75,53.67Z"/><path class="cls-5" d="M262.05,213.5h-7.13s-5.57,18.5-2.78,25.86c2,5.21,9.91,10.64,9.91,10.64s8.58-5.43,10.55-10.64c2.79-7.36-2.79-25.86-2.79-25.86h-7.76Z"/><path class="cls-5" d="M262.13,218.5h-5.27s-4.12,13.68-2.06,19.13c1.46,3.85,7.33,7.87,7.33,7.87s6.35-4,7.81-7.87c2.06-5.45-2.07-19.13-2.07-19.13h-5.74Z"/><rect class="cls-5" x="253.47" y="205" width="18" height="9.5"/></svg>