<svg id="圖庫一" xmlns="http://www.w3.org/2000/svg" xmlns:xlink="http://www.w3.org/1999/xlink" viewBox="0 0 400 400"><defs><style>.cls-1,.cls-19,.cls-5,.cls-8{fill:none;}.cls-2{fill:#f5f5f5;}.cls-3{clip-path:url(#clip-path);}.cls-17,.cls-4,.cls-7{fill:#bfbfbf;}.cls-10,.cls-11,.cls-12,.cls-13,.cls-15,.cls-16,.cls-17,.cls-19,.cls-4,.cls-6,.cls-8,.cls-9{stroke:#999;}.cls-11,.cls-12,.cls-16,.cls-4{stroke-miterlimit:10;}.cls-5{stroke:#000;}.cls-10,.cls-13,.cls-15,.cls-17,.cls-19,.cls-5,.cls-6,.cls-8,.cls-9{stroke-linecap:round;stroke-linejoin:round;}.cls-6{fill:#dbdbdb;}.cls-18,.cls-9{fill:gray;}.cls-10{fill:#ccc;}.cls-11{fill:#adadad;}.cls-12{fill:#d2d2d2;}.cls-13{fill:#ededed;}.cls-14{fill:#fff;}.cls-15,.cls-16{fill:#f2f2f2;}.cls-19{stroke-width:2px;}</style><clipPath id="clip-path"><rect id="Main_Base_Image" data-name="Main Base Image" class="cls-1" width="399.99" height="399.99"/></clipPath></defs><title>product2.3</title><rect id="背景" class="cls-2" width="400" height="400"/><g class="cls-3"><path class="cls-4" d="M158.22,309.93c-5.61.23-34.35,188.3-27.16,196.8l185.62.32c-.22-1.93-21.93-174.68-34.78-200.34Z"/><path class="cls-5" d="M146,320.56v8.12"/><path class="cls-6" d="M172.39,127.59c-22.07,3.51-80,196.4-79.27,201.24.57,3.87,4.33,3.93,5.56,4.57C98.68,333.4,161.68,137.33,172.39,127.59Z"/><path class="cls-7" d="M280.77,181.21c-2.31,12.7-4.91,29.32-5.42,37.92-.65,3.2-.8,12.75-.84,16.24h.08l12.6-4.27c2.59-2.36-1.47-34.53-6.32-49.88ZM269.09,309.74c-1.35.9-4.4,5.52-5.75,6.43-1.87-5.15-5.91-2.31-9.81-2.37a20.25,20.25,0,0,1-4.63-.46l-.11.45c-2.36,1.54-6.75,3.08-8.2,4l-14.85-2.11s-17,0-22.61.37l0-.19-.38-.06c-7.56,5.09-14.78-1.1-21.37-3.31h0c-.16.83-.34,1.69-.52,2.58-3.46-1.16-21.62-4.67-22.74-5.34L166,128.49s106.64-25.85,121.18-8.08c17,17,29.83,104.56,29,118.94-.4,7.16-7.21,9.78-13.27,12.24-9.54,3.89-19,8.07-28.44,12.14l-.32,0c2,27.31,10.95,43.36,14.39,41.5C283,313.66,275.2,307.2,269.09,309.74Z"/><path class="cls-8" d="M248.79,313.79c-2.36,1.54-6.75,3.08-8.2,4l-14.85-2.11s-17,0-22.61.37l0-.19c.94-5.79,1.64-10,2.33-14.26"/><path class="cls-8" d="M246.09,304.33c-1.09,5.77-.65,8.14,2.81,9a20.25,20.25,0,0,0,4.63.46c3.9.06,7.94-2.78,9.81,2.37"/><path class="cls-8" d="M181.41,312.51c6.59,2.21,13.81,8.4,21.37,3.31"/><path class="cls-8" d="M280.87,181.22c4.85,15.35,8.91,47.52,6.32,49.88l-12.6,4.27"/><path class="cls-8" d="M284,165.65c-.7,2.55-1.9,8.44-3.2,15.56-2.31,12.7-4.91,29.32-5.42,37.92"/><path class="cls-8" d="M275.35,219.13c-.65,3.2-.8,12.75-.84,16.24,0,.81,0,1.29,0,1.29a161,161,0,0,0-.32,27.09c2,27.31,10.95,43.36,14.39,41.5-5.53,8.41-13.37,1.95-19.48,4.49-.73-2.43-2-4.31-2.7-6.77"/><path class="cls-8" d="M269.09,309.74c-1.35.9-4.4,5.52-5.75,6.43"/><path class="cls-8" d="M182.48,307c-.35,1.77-.7,3.54-1.09,5.47-.16.83-.34,1.69-.52,2.58-3.46-1.16-21.62-4.67-22.74-5.34L166,128.49s106.64-25.85,121.18-8.08c17,17,29.83,104.56,29,118.94-.4,7.16-7.21,9.78-13.27,12.24-9.54,3.89-19,8.07-28.44,12.14"/><line class="cls-8" x1="225.79" y1="315.15" x2="225.79" y2="301.62"/><path class="cls-9" d="M186.86,384c12.38-2.6,26.9-110.22,26.9-110.22L227,279s-9.71,47-4.74,88.5C224.33,384.39,203,384.15,186.86,384Z"/><g id="包包"><path class="cls-10" d="M177.07,221.58c4.39,15.06,6.93,50.52,3.84,51.15l7.72.39C189.44,269.94,188.32,228.6,177.07,221.58Z"/><path class="cls-11" d="M89.11,365.45c-17.78-5.42,11-89.74,11-89.74l112.71,3.16s-13.47,106.42-26.64,105.07C173.35,382.63,100.29,366.6,89.11,365.45Z"/><polygon class="cls-12" points="100.28 275.94 212.75 280.8 213.76 273.76 101.69 270.63 100.28 275.94"/><path class="cls-10" d="M135,249.11c.16,4.83-2.6,18-2.43,22.45l-3.28-.15S130.56,246.47,135,249.11Z"/><path class="cls-6" d="M161.94,215.79c-27.57,1.79-41.67,67-41.67,67a62.85,62.85,0,0,1,6.7,1.29c.3-4.44,9.31-40.33,19.55-53.59,8-10.34,14-13.88,20-13s10.17,6,13.3,18.06c4,15.44-2.65,51.69-4.23,55.93a67.41,67.41,0,0,1,6.81.78s14.22-65.22-10.82-75.07a19.31,19.31,0,0,0-4.67-1.48A20.7,20.7,0,0,0,161.94,215.79Z"/><path class="cls-13" d="M123.34,285.76l3.29.65s.75,9.62-1.26,13c-1.42,2.38-5.63,4.34-5.63,4.34s-3.42-3.46-3.81-6.21c-.56-3.88,3.83-12.49,3.83-12.49l3.29.65Z"/><path class="cls-13" d="M122.81,288.22l2.44.48s.55,7.12-.94,9.61c-1,1.77-4.16,3.21-4.16,3.21s-2.53-2.56-2.82-4.59c-.42-2.87,2.84-9.24,2.84-9.24l2.43.48Z"/><polygon class="cls-13" points="119.84 280.71 128.14 282.35 127.21 287.04 118.9 285.39 119.84 280.71"/><path class="cls-13" d="M179.31,292l-3.32-.46s-3.89,8.86-3.1,12.7c.56,2.71,3.89,5.93,3.89,5.93s4.37-2.16,5.65-4.63c1.81-3.48.49-13.05.49-13.05l-3.32-.45Z"/><path class="cls-13" d="M179,294.53l-2.46-.34s-2.87,6.55-2.29,9.4c.42,2,2.88,4.38,2.88,4.38s3.23-1.6,4.18-3.42c1.34-2.58.36-9.65.36-9.65l-2.45-.34Z"/><polygon class="cls-13" points="184.28 288.4 175.9 287.26 175.24 291.99 183.62 293.13 184.28 288.4"/></g><path class="cls-13" d="M222.23,267.55a4.32,4.32,0,0,1,4.48,4.33l.12,4.2a4.69,4.69,0,0,1-4.22,4.88,4.31,4.31,0,0,1-4.47-4.33l-.12-4.2A4.68,4.68,0,0,1,222.23,267.55Zm-2.38,8.13a2.59,2.59,0,0,0,2.69,2.6,2.82,2.82,0,0,0,2.53-2.93l-.07-2.52a2.6,2.6,0,0,0-2.69-2.6,2.82,2.82,0,0,0-2.53,2.93Z"/><path class="cls-13" d="M222.34,282.58c2.34-.8,2-3.71,1.55-5.08l-3.95-1.61c.91,3.24-1.17,4.82-2,5.18Z"/><g id="左手"><path class="cls-14" d="M140,347.84c-.26.55-8.59,17.84-12.48,23.55s-7,3.95-7,3.95l-.33-.36c-3.41,3.08-4.8,1-5,.7a2.39,2.39,0,0,1-1.41.61c-1.37,0-1.57-2.27-1.57-2.27s2.9-10,2.17-11.91-2.73-4.84-2.63-7.36c.35-3.91,3.76-8.72,3.76-8.72l16.83-20.81s8.42-44.83,18-38.93-3.85,61.35-3.85,61.35-5.76,13.1-7.41,14.25-2.55-4.1-1.72-6a66.42,66.42,0,0,0,2.45-7.29Z"/><path class="cls-8" d="M140,347.83h0c-.26.55-8.59,17.84-12.48,23.55s-7,3.95-7,3.95"/><path class="cls-8" d="M122.34,352.34c-4.72,10-4.28,19.48-6.74,23a3.66,3.66,0,0,1-.39.32,2.39,2.39,0,0,1-1.41.61c-1.37,0-1.57-2.27-1.57-2.27s2.9-10,2.17-11.91-2.73-4.84-2.63-7.36c.35-3.91,3.76-8.72,3.76-8.72l16.83-20.81s8.42-44.83,18-38.93-3.85,61.35-3.85,61.35-5.76,13.1-7.41,14.25-2.55-4.1-1.72-6a66.42,66.42,0,0,0,2.45-7.29l.21-.75"/><line class="cls-8" x1="123.3" y1="349.75" x2="122.34" y2="352.34"/><path class="cls-8" d="M115.19,375.64l0,0c.18.32,1.57,2.38,5-.7a14.74,14.74,0,0,0,1.12-1.12c3.09-7,2.3-12.6,6.41-17.28"/><path class="cls-8" d="M118.48,347.69c-2.29,3.36-3.8,14.87-3.8,14.87"/></g><path class="cls-15" d="M158.87,308.28c1.19,3.47,1.15,9.08,2.34,12.55l1.93,3.82.92,6.23-4.52,7.57c-6.14-.17-5.69-.42-17.56-.49s-18-10.81-22.71-15.19c.92-10.31,15-22.59,15-22.59C134.39,299.78,158.87,308.28,158.87,308.28Z"/><path class="cls-16" d="M147.14,314.42,144.73,322"/><path class="cls-16" d="M140.86,310.51l-3.9,4.21"/><path class="cls-17" d="M133.74,300.91c1-1.62.84-3,1.3-4.73,4.21-16.2,8.37-32.41,12.17-48.71,1.44-6.19,6.68-119,18.8-119,25,9.7,15.35,70.29,15.35,70.29s1.36,36.61-2.83,49.42c-2.6,7.93-3.77,16.33-6.3,24.29C169,282.55,167.61,289.05,164,299c-6.44,11.6-3.22,14.82-20.61,9.66C140.65,307.83,133.74,300.91,133.74,300.91Z"/><path class="cls-6" d="M180.76,121.59c4.18-1.2,10.42-3.55,12-.06,28.1,62.85,32.84,141.84,32,151.32h-4.74C217.68,253.1,210.09,153.61,180.76,121.59Z"/><path class="cls-18" d="M199.7,176.3l-9.16-6.83c-3.23.09-14.34-13.95-14.34-13.95-6.22-10.86-10.52-22.54-9.82-35A120.1,120.1,0,0,1,171.69,92c6.21-20,13.11-39.85,20.38-59.53,2.21-6,5.63-12,12.56-14.3q16.43-5.85,31.85-1c11.47,6.46,16,18.15,20,29.28,7.07,19.35,11.88,39.51,18.9,58.87,4.68,12.92,7.09,25.9,6.35,39.38-.44,8.24-.45,5.87-1.92,10.76-2.65,8.84-7.35,15.17-9.33,24.26a46.15,46.15,0,0,0-.55,5.55l-1.37.73c-3.6,3.11-7,6.46-10.85,9.27S248.85,200,246.57,205s-.09,6,0,7.64l-11.19-3.42-.53.4c1.12,1.46,2.28,2.91,3.44,4.36L227,208.74l-12-8.65-1.17.32a42,42,0,0,0,3.52,8.62l-11.05-14c-2.92-3.31-6.46-13.47-6.62-18.55Z"/><path class="cls-19" d="M249.06,66.69c.63,5.52,1.43,11,1.86,16.58,1.47,19.33-2.61,37.76-9.38,55.73"/><path class="cls-19" d="M233,86.58c0,14.55.34,29.12-.22,43.66-.34,9.07-2.08,18.09-3.2,27.13"/><path class="cls-19" d="M259.8,101,261.1,144"/><path class="cls-19" d="M194.67,101.59q-1.08,10.44-2.14,20.86"/><path class="cls-19" d="M196.93,130.63c-.31,5.09-1,10.21-.82,15.28.29,7.39,1.26,14.74,1.95,22.12"/><path class="cls-19" d="M187.82,150.31a57.91,57.91,0,0,0,11.88,26l-9.16-6.83c-3.23.09-14.34-13.95-14.34-13.95-6.22-10.86-10.52-22.54-9.82-35A120.1,120.1,0,0,1,171.69,92c6.21-20,13.11-39.85,20.38-59.53,2.21-6,5.63-12,12.56-14.3q16.43-5.85,31.85-1c11.47,6.46,16,18.15,20,29.28,7.07,19.35,11.88,39.51,18.9,58.87,4.68,12.92,7.09,25.9,6.35,39.38-.44,8.24-.45,5.87-1.92,10.76-2.65,8.84-7.35,15.17-9.33,24.26a46.15,46.15,0,0,0-.55,5.55l-1.37.73c-3.6,3.11-7,6.46-10.85,9.27S248.85,200,246.57,205s-.09,6,0,7.64l-11.19-3.42"/><path class="cls-19" d="M215,200.09l12,8.65,11.24,5.2c-1.16-1.45-2.32-2.9-3.44-4.36-6.73-8.68-12.52-17.77-11.45-29.84"/><path class="cls-19" d="M212.53,188.38a35,35,0,0,0,1.26,12,42,42,0,0,0,3.52,8.62l-11.05-14c-2.92-3.31-6.46-13.47-6.62-18.55"/></g></svg>