<svg id="圖庫一" xmlns="http://www.w3.org/2000/svg" xmlns:xlink="http://www.w3.org/1999/xlink" viewBox="0 0 400 400"><defs><style>.cls-1,.cls-11,.cls-6{fill:none;}.cls-2{fill:#f5f5f5;}.cls-3{clip-path:url(#clip-path);}.cls-10,.cls-4{fill:#bfbfbf;}.cls-11,.cls-12,.cls-13,.cls-14,.cls-15,.cls-4,.cls-5,.cls-6,.cls-7,.cls-8,.cls-9{stroke:#999;}.cls-11,.cls-12,.cls-13,.cls-4,.cls-5{stroke-miterlimit:10;}.cls-5{fill:gray;}.cls-14,.cls-15,.cls-6,.cls-7,.cls-8,.cls-9{stroke-linecap:round;stroke-linejoin:round;}.cls-7{fill:#b3b3b3;}.cls-16,.cls-8{fill:#fff;}.cls-9{fill:#ededed;}.cls-12{fill:#adadad;}.cls-13{fill:#d2d2d2;}.cls-14{fill:#ccc;}.cls-15{fill:#dbdbdb;}</style><clipPath id="clip-path"><rect id="遮色片" class="cls-1" x="0.3" width="399.99" height="399.99"/></clipPath></defs><title>product2.2</title><rect id="背景" class="cls-2" x="0.3" width="400" height="400"/><g class="cls-3"><path class="cls-4" d="M155.46,358.41c-5.61.23-34.12,188.34-26.92,196.83l185.63.09c-.23-1.93-22.14-174.65-35-200.29Z"/><path class="cls-5" d="M211.13,181.58c-10.31,5.68-19.79-.89-23.19-2.79a8.8,8.8,0,0,1-3.89-4c2.85,2.11,5.17,3.68,8.14,3.94,5.92.52,10.07-1.18,12.49-5,3.35-5.3,1.88-11.25-.86-17.57-3.1,2.72-6.82,4.56-8.47,8.3-2.78,6.29-9.22,9.51-18.13,9.64-4.26.06-18.49,4.71-20.27,8.56a6.25,6.25,0,0,1,1.56-6.07c2.81-3.33,7.59-4.49,12.14-5.9a7,7,0,0,0,.69-.17c.83-.42.88.06,2.15-1.37.64-.72-19.93,2.18-11.62-2,12.75-6.37,3.36-10.14-4.57-8.48,9-4.5-3.18-27,7-42.13,11.29-11.81,11.54-86.43,29.59-94.19s28-1.92,36.23,1S252.92,61,247.21,79.86c-5.52,18.29-5.47,27.36-5.47,27.36s-.12,16.91,6.29,27.13,8,7.41,11.89,12.14c3.56,4.3,1.39,5-7.57,6.63,3.57-6,.24-7.41-4.49-8.06s-7.24-6.14-10-19.06S227.7,96.26,227.7,96.26s3,6.7-8.38,6.13S204,108.63,204,108.63l13.65,42.76S221.43,175.91,211.13,181.58Z"/><path class="cls-6" d="M177.47,115.56S166,135.2,170,146.12s-2.19,16.69-2.19,16.69"/><path class="cls-7" d="M193,143.76s-7.11,19.17-19.69,25.41"/><path class="cls-7" d="M203.57,156.05s.7-13.58-5.79-24.22"/><path class="cls-7" d="M241.36,52.35c-6.23-3.43-9.18,44.52,1,55.73"/><path class="cls-7" d="M224.39,52.77s-6.7,23.35,3.31,43.49"/><path class="cls-8" d="M169.48,173.53c12.39-1.07,50.4-12.23,51.58-31.68s-3.28-30.43-11.6-30.94C194.41,110,163.29,174.07,169.48,173.53Z"/><g id="右手"><path class="cls-8" d="M85.7,287c-10.83,5.6-11.84-15.11-11.84-15.11-7.88-7.38,8.47-6.31,8.47-6.31S96.52,281.4,85.7,287Z"/><path class="cls-4" d="M95.88,251.59s73-56.43,83-71.9c35.43,63.82-67.78,98.77-67.78,98.77Z"/><path class="cls-9" d="M111.71,277.35c-1.08,2.7-9.29,10.63-9.29,10.63-5.45,4.37-7.87-.73-10.92,1.39-3.6-3.28-2.73-4.91-9.81-11.09s-5.24-15.82-5.78-20.85c5.89-5.72,20.66-5.82,20.66-5.82C96.88,251.45,111.71,277.35,111.71,277.35Z"/><path class="cls-7" d="M97,266.82l-5.35,3.28"/><path class="cls-7" d="M95.21,261.23l-4.52.51"/><line class="cls-7" x1="100.35" y1="272.05" x2="97.59" y2="277.55"/></g><path class="cls-8" d="M80.08,272.49c-3.21,2.19-4.51,2.13-8.73,3.76-3,1.14-5.78-1.55-4.22-4.35s4.73-1.34,8.39-1.95C78.68,269.42,82.72,270.68,80.08,272.49Z"/><path class="cls-8" d="M86.12,273.74c-1.78,3.55-6.39,2.26-9.84,5.64-2.43,2.38-6.72,1.26-6.63-1.94s5.61-3.3,9.69-4.38S87.8,270.39,86.12,273.74Z"/><path class="cls-8" d="M85.45,278c-2.2,3.21-5.84,4.68-7.07,6-1.65,1.82-5,.54-4.54-2.63s4-3.31,6.44-4.11C83.32,276.33,87.26,275.41,85.45,278Z"/><path class="cls-8" d="M85.73,281.06c-1.52,3.25-4.35,5-5.24,6.42-1.2,1.89-4,1-3.91-2s3-3.53,4.9-4.54C83.87,279.67,87,278.39,85.73,281.06Z"/><path class="cls-4" d="M152.88,265.57c3.33-5.59.35-77.12,3.77-90.53S192.5,113.13,192.38,124a287.73,287.73,0,0,0-23.66,54.1"/><path d="M201.86,60.74l.68-.56Z"/><path d="M200.53,61.22l.57-.46Z"/><path class="cls-8" d="M170.75,82.34a43.54,43.54,0,0,1-.52,8.61c.2,4.89,15.26,2.91,21.45,2.37,12.39-1.07,11.61-13.5,12.78-32.95s-9.87-28.93-18.18-29.43C171.22,30,173.47,46.35,168.93,59c-1,2.72-6.88,7.78-3.78,8.94a22.4,22.4,0,0,0,5.31,1.4c1.26.08.25,4.88.25,4.88a23.12,23.12,0,0,0-1.28,3.16c0,.53,5.51-.17,5.51-.17s-5,1.27-5.1,2.35S170.79,81.81,170.75,82.34Z"/><path class="cls-5" d="M193,37.05c.53,4.4-3.75,7.9-9.18,8.55s-24.91.66-2-24.53C185.31,17.25,192.48,32.65,193,37.05Z"/><path class="cls-10" d="M276.05,318.66A164.5,164.5,0,0,0,279,339,99,99,0,0,1,276.05,318.66Z"/><path class="cls-10" d="M275.89,315.59c0,1.05.1,2.07.16,3.07-.07-.78-.15-1.56-.22-2.36Z"/><path class="cls-11" d="M276.05,318.66A164.5,164.5,0,0,0,279,339"/><path class="cls-10" d="M211.94,369c0,.09,0,0,0,0S211.94,369,211.94,369Zm-48.78-6.35c-1.35.23-5.64,1.95-7.22,1.64-1.83-.37-9.1.47-10-.94l6.8-28.25s11.21-92.36,4.2-118.64c-13.81-51.76,48.85-78.31,57.47-106.21,5.74-18.56,41.35,41.13,54.53,93,4.46,17.54,3.51,75,6.89,113h.09c0,.8.08,1.59.13,2.37A99,99,0,0,0,279,339c4.7,17,13.08,16,16.16,13.93-4.36,8.53-13,3.48-18.71,6.62a16.77,16.77,0,0,0-2.35,3.26l-.07.1-2.43,3.35c-1.34-2.42-3-2.67-4.83-2.3a52.81,52.81,0,0,1-5.21,1.32,21.3,21.3,0,0,1-4.65.16l0,.43c-2.14,1.73-6.29,3.71-7.6,4.77l-15-.12s-16.37,3.16-20.37,1.28a3.73,3.73,0,0,1-2.07-2.4c-.77,3.51-7.08,3.34-10.93,3.34-8-6.59-15.11-5-15.11-5l-15,.12c-1.31-1.07-5.46-3-7.6-4.78Z"/><path class="cls-10" d="M276.48,359.54l-2.35,3.26A16.77,16.77,0,0,1,276.48,359.54Z"/><path class="cls-10" d="M271.63,366.25l2.43-3.35A18.72,18.72,0,0,1,271.63,366.25Z"/><path class="cls-11" d="M256.9,365.86c-2.14,1.73-6.29,3.71-7.6,4.77l-15-.12s-16.37,3.16-20.37,1.28a3.73,3.73,0,0,1-2.07-2.4c-.81-2.62.4-6.43.48-9.33a.81.81,0,0,0,0-.15"/><path class="cls-11" d="M253,357.36c-.31,5.52.44,7.68,4,8.07a21.3,21.3,0,0,0,4.65-.16A52.81,52.81,0,0,0,266.8,364c1.83-.37,3.49-.12,4.83,2.3"/><path class="cls-11" d="M275.89,315.59l0,.7c0,.8.08,1.59.13,2.37A99,99,0,0,0,279,339c4.7,17,13.08,16,16.16,13.93-4.36,8.53-13,3.48-18.71,6.62a25,25,0,0,0-1.78-3,23.82,23.82,0,0,1-1.8-3"/><path class="cls-11" d="M274.06,362.9a18.72,18.72,0,0,1-2.43,3.35"/><path class="cls-11" d="M276.48,359.54a16.77,16.77,0,0,0-2.35,3.26"/><line class="cls-11" x1="274.06" y1="362.9" x2="274.13" y2="362.8"/><polyline class="cls-11" points="234.28 369.99 233.25 362.69 232.49 357.38"/><path class="cls-11" d="M212,369s0,.11,0,0"/><path class="cls-11" d="M163.23,363c2.14,1.74,6.29,3.71,7.6,4.78l15-.12s7.11-1.55,15.11,5c3.85,0,10.16.17,10.93-3.34a1.84,1.84,0,0,0,.07-.42s0,0,0,0,0,0,0,0"/><path class="cls-11" d="M275.83,316.29c-3.38-38-2.43-95.5-6.89-113-13.18-51.9-48.79-111.59-54.53-93-8.62,27.9-71.28,54.45-57.47,106.21,7,26.28-4.2,118.64-4.2,118.64l-6.8,28.25c.9,1.41,8.17.57,10,.94,1.58.31,5.87-1.41,7.22-1.64l.11,0c3.48-.41,4.21-2.58,3.9-8.07"/><polyline class="cls-11" points="185.85 367.17 186.68 361.36 187.65 354.55"/><path class="cls-7" d="M276.62,169.28c.53-2.64-6.78,9.32-7.56,6.51"/><path class="cls-7" d="M189.65,55.42c6.14-3.7,14.24,59.72,4.75,73.14"/><path class="cls-7" d="M207.4,58.16s9.43,31.56,1.1,56.75"/><path class="cls-12" d="M323.34,318.64c16.73-3.15,7.35-125.41,7.35-125.41L146.55,227.5s35.8,117.28,52.54,114.13S306.61,321.8,323.34,318.64Z"/><rect class="cls-13" x="143.82" y="202.59" width="188.2" height="8.07" transform="translate(-34.17 47.68) rotate(-10.68)"/><path class="cls-9" d="M199.81,238.69l5.28-1s6.72,12.93,5.69,18.78c-.74,4.14-5.87,9.28-5.87,9.28s-7.12-2.83-9.3-6.42c-3.1-5.06-1.55-19.56-1.55-19.56l5.28-1Z"/><path class="cls-9" d="M200.45,242.4l3.91-.73s5,9.56,4.2,13.89c-.54,3.06-4.34,6.86-4.34,6.86s-5.26-2.09-6.88-4.74c-2.29-3.75-1.15-14.47-1.15-14.47l3.91-.74Z"/><rect class="cls-9" x="192.19" y="232.38" width="13.58" height="7.17" transform="translate(438.24 430.96) rotate(169.32)"/><path class="cls-14" d="M265.45,157s4.7,31.81,5,39.26l8.43-1.28"/><path class="cls-15" d="M229.55,110.37C273.66,112.07,294,220.5,294,220.5A103.88,103.88,0,0,0,283.24,223c-.34-7.39-13.54-67-29.48-88.68-12.45-16.92-22-22.54-31.65-20.73s-16.5,10.54-21.93,30.84c-7,26,2.46,86.31,4.85,93.33a101.93,101.93,0,0,0-10.93,1.62S173.55,131,214,113.3a25.51,25.51,0,0,1,15.54-2.93Z"/><path class="cls-9" d="M288.45,222l-5.29,1s-1.54,14.5,1.55,19.57c2.19,3.58,8.84,6.5,8.84,6.5s5.6-5.23,6.34-9.37c1-5.84-5.69-18.78-5.69-18.78l-5.28,1Z"/><path class="cls-9" d="M289.21,225.66l-3.91.74s-1.14,10.72,1.15,14.47c1.62,2.65,6.54,4.81,6.54,4.81s4.14-3.87,4.68-6.93c.77-4.32-4.21-13.89-4.21-13.89l-3.9.74Z"/><rect class="cls-9" x="281.44" y="215.55" width="13.58" height="7.17" transform="translate(-35.62 57.22) rotate(-10.68)"/><path class="cls-5" d="M253.54,202.69c-.55,14.09-4,17.38-5.26,20.38a4.65,4.65,0,0,0,.31,4.65c.36-3.13,9.34-9.71,12.34-10.75,6.26-2.15,10.07-5.92,10.57-11,.3-3,2.51-5.19,4.07-7.83,3.4,3.83,5.82,7.69,4.68,12.22-.82,3.26-3.36,5.42-7.67,6.43-2.16.5-4.16-.07-6.66-.9a6.53,6.53,0,0,0,3.68,1.93c2.84.56,11.06,3,17-3.4s-2.4-22.85-2.4-22.85l-13.89-34.38C262,138.32,251.69,35.63,232,23.1s-38.69-6-46.95-3.22S178.27,26.84,175,45a162.08,162.08,0,0,0,7.42,46.86c7.68,24.74-4.07,37.15-4.09,40.76,0,9.71,5,7.32,8.2,16.15A45.45,45.45,0,0,1,191,128.52s1.9,22.24-3.72,34.85-7.55,8.72-11.13,14.44c-3.26,5.2-.93,6.42,8.59,9.69-4.35-8.36-1-9.77,3.84-10s6.91-7.14,8.46-23.77A94.15,94.15,0,0,1,204,125.49s-2.77,8.34,9.06,9.06,17.52.68,17.52.68.58,68.72,12.65,81.55c9.61,10.2,8.3-4.53,10.57-14.34"/><path class="cls-6" d="M265.82,164s1.56,16,6.9,22.84S275,199.12,275,199.12"/><path class="cls-7" d="M250.8,180.69s5.92,14,2.29,23.8"/><path class="cls-7" d="M203.46,126.58s2.8-17.71-.4-31.26"/><g id="左手"><path class="cls-16" d="M211.43,367.24a2.47,2.47,0,0,1-1.28.85c-1.35.24-2-2-2-2s1.08-10.33,0-12.11-3.55-4.28-3.91-6.78c-.35-3.92,2.15-9.26,2.15-9.26l12.86-23.49,13-5.16L234,334.14s-.85,3.05-1.15,5-3.48,10.24-5.26,9.17c-1.56-.93,1.12-12,1.12-12l-.28-.21s-2.77,18.29-5.63,24.69-5.35,5.34-5.35,5.34l-.29-2.08L214.28,343c-2.86,10.68-.74,19.95-2.52,23.87Z"/><path class="cls-16" d="M214.28,343l2.89,21.08c0,.1,0,.2-.07.3-3.33,5.31-5.41,3.18-5.67,2.88l.33-.39C213.54,362.93,211.42,353.66,214.28,343Z"/><path class="cls-6" d="M214.28,343c-2.86,10.68-.74,19.95-2.52,23.87l-.33.39a2.47,2.47,0,0,1-1.28.85c-1.35.24-2-2-2-2s1.08-10.33,0-12.11-3.55-4.28-3.91-6.78c-.35-3.92,2.15-9.26,2.15-9.26l12.86-23.49,13-5.16L234,334.14s-.85,3.05-1.15,5-3.48,10.24-5.26,9.17c-1.56-.93,1.12-12,1.12-12l-.28-.21s-2.77,18.29-5.63,24.69-5.35,5.34-5.35,5.34"/><path class="cls-11" d="M211.4,367.2l0,0c.26.3,2.34,2.43,5.67-2.88,0-.1.05-.2.07-.3,1.68-7.33,0-12.6,3.16-17.86"/><path class="cls-11" d="M209.66,339.1c-1.66,3.72-1.09,15.31-1.09,15.31"/></g><path class="cls-4" d="M253.3,197.48s4.78,23.71,2.06,32.32c-2.47,7.83-11.76,66-10.49,84.54.31,4.59-35,.1-34.45-7.64,1.39-19.48,9.86-55.45,9.91-72.15a288.12,288.12,0,0,0-9.45-82.45c-7.84-30.47.93-41.47,16.55-41.42S253.4,163.54,253.3,197.48Z"/><path class="cls-9" d="M244.72,304.59c1.86,2.82,3.95,15.91,3.95,15.91.54,8.08-5.92,7-5.92,11.31-5.51,1.25-6.49-.66-17.08,2s-18.53-5.51-23.68-8.35c-1.53-9.39,8.18-23.52,8.18-23.52C210.22,301.52,244.72,304.59,244.72,304.59Z"/><path class="cls-4" d="M224.9,311.65c-.43,7.49-.16,2.86-.42,7.26"/><path class="cls-4" d="M218.42,309.6l-2.51,4.64"/><line class="cls-4" x1="232.13" y1="311.89" x2="235.54" y2="318.17"/></g></svg>