<svg id="圖庫一" xmlns="http://www.w3.org/2000/svg" xmlns:xlink="http://www.w3.org/1999/xlink" viewBox="0 0 400 400"><defs><style>.cls-1{fill:#f0f0f0;}.cls-2{clip-path:url(#clip-path);}.cls-3{fill:#f5f5f5;}.cls-4{fill:#dbdbdb;}.cls-4,.cls-5,.cls-6,.cls-7,.cls-8,.cls-9{stroke:#999;}.cls-4,.cls-5,.cls-6,.cls-9{stroke-linecap:round;stroke-linejoin:round;}.cls-5{fill:gray;}.cls-6{fill:#ccc;}.cls-7{fill:#adadad;}.cls-7,.cls-8{stroke-miterlimit:10;}.cls-8{fill:#d2d2d2;}.cls-9{fill:#ededed;}</style><clipPath id="clip-path"><rect id="背景" class="cls-1" width="400" height="400"/></clipPath></defs><title>product2.4</title><rect id="背景-2" data-name="背景" class="cls-1" width="400" height="400"/><g class="cls-2"><rect id="背景-3" data-name="背景" class="cls-3" x="0.5" width="400" height="400"/></g><path class="cls-4" d="M65.52,315.08c9.83-1.57,25.78-.43,34.89-2.71,2.21-.55,3.45,3.79,1.14,9.12C70.68,324.16,55.85,316.62,65.52,315.08Z"/><path class="cls-5" d="M152.81,347.69c-21.64-5.7-37.59-197.08-37.59-197.08l-23.92,8s6.83,88.86-5.7,161.77C80.49,350.07,124.33,346.55,152.81,347.69Z"/><g id="包包"><path class="cls-6" d="M184.71,61.75c-9.12,26.2-16.79,88.61-11.39,90H159.65C158.51,146.05,164.2,73.15,184.71,61.75Z"/><path class="cls-7" d="M327.1,323.76c31.9-8-11.39-159.48-11.39-159.48l-199.35-4.56s14.22,189.16,37.59,188C176.79,346.52,307.26,324.78,327.1,323.76Z"/><polygon class="cls-8" points="315.44 164.67 116.36 163.14 115.22 150.61 313.43 155.17 315.44 164.67"/><path class="cls-6" d="M256.48,114.16c-.71,8.51,3,32,2.27,39.87l5.8,0S264.61,109.89,256.48,114.16Z"/><path class="cls-4" d="M212,52.88C260.48,58.53,279.51,175,279.51,175s-2.28,0-11.94,1.67c-.14-7.85-12.82-72.06-29.71-96.39-13.18-19-23.53-25.77-34.2-24.69s-18.49,9.7-25.1,30.7c-8.47,26.9,0,91.53,2.42,99.15-9.86.36-12.08.76-12.08.76S149.65,69.76,194.76,54.62a34.51,34.51,0,0,1,8.38-2.2A36.21,36.21,0,0,1,212,52.88Z"/><path class="cls-9" d="M273.82,179.94l-5.87.85s-2.18,16.93,1.07,23.07c2.3,4.34,9.54,8.17,9.54,8.17s6.35-5.8,7.3-10.61c1.34-6.81-5.65-22.41-5.65-22.41l-5.87.85Z"/><path class="cls-9" d="M274.54,184.32l-4.34.63s-1.62,12.53.78,17.07c1.7,3.21,7.06,6,7.06,6s4.7-4.29,5.4-7.85c1-5-4.18-16.57-4.18-16.57l-4.34.63Z"/><polygon class="cls-9" points="280.46 171.34 265.65 173.49 266.88 181.84 281.7 179.69 280.46 171.34"/><path class="cls-9" d="M174.42,186l5.9-.51s6.06,16,4.32,22.7c-1.23,4.75-7.39,10.13-7.39,10.13s-7.53-4.21-9.56-8.68c-2.89-6.32.3-23.09.3-23.09l5.91-.51Z"/><path class="cls-9" d="M174.74,190.42l4.37-.37s4.48,11.82,3.19,16.79c-.91,3.51-5.47,7.49-5.47,7.49s-5.56-3.11-7.07-6.42c-2.13-4.68.22-17.08.22-17.08l4.37-.38Z"/><polygon class="cls-9" points="165.96 179.13 180.87 177.86 181.61 186.27 166.69 187.54 165.96 179.13"/></g><path class="cls-9" d="M101.82,155.13a7.65,7.65,0,0,0-6.42,9l1.12,7.35a8.3,8.3,0,0,0,8.87,7.16,7.65,7.65,0,0,0,6.43-9l-1.12-7.35A8.31,8.31,0,0,0,101.82,155.13Zm6.71,13.4a4.59,4.59,0,0,1-3.85,5.38,5,5,0,0,1-5.32-4.3l-.68-4.41a4.59,4.59,0,0,1,3.86-5.38,5,5,0,0,1,5.32,4.3Z"/><path class="cls-9" d="M99.27,165.42c-4.06-1.63-3.25-6.73-2.28-9.11l8.17-3c-1.9,5.64.57,9.15,2.08,9.86Z"/><path class="cls-4" d="M70.79,320.35C39,318.76,95.85,244,101.82,202.11c1.71-12.06-1-28.71-1.55-29.76l7.06-1.11c12.21,34.66-8,67.39-12.62,78.48C66.23,307.81,69.09,317.17,70.79,320.35Z"/></svg>