<svg width="200" height="98" viewBox="0 0 200 98" version="1.1" xmlns="http://www.w3.org/2000/svg"><title>Store Description</title><g stroke="none" stroke-width="1" fill="none" fill-rule="evenodd"><path fill="#FFF" d="M0 97.8h200V0H0z"/><path fill="#F0F2F5" d="M0 37.8h200V0H0z"/><path d="M21.106 47.733c.63 0 1.078.247 1.352.74.199-.282.406-.476.622-.581.19-.106.43-.159.721-.159.44 0 .804.15 1.103.467.282.317.431.721.431 1.223v2.983h-.945v-2.807c0-.36-.075-.625-.216-.783-.15-.167-.381-.247-.713-.247a.71.71 0 0 0-.58.282c-.166.185-.24.44-.24.774v2.78h-.946v-2.797c0-.695-.282-1.039-.846-1.039a.76.76 0 0 0-.655.335 1.227 1.227 0 0 0-.249.774v2.728H19v-4.55h.945v.467c.357-.396.747-.59 1.161-.59zm7.048 0c.705 0 1.244.247 1.617.757.34.458.514 1.1.514 1.918h-3.209c.033.423.141.748.324.968.182.22.447.335.787.335.29 0 .523-.07.705-.211.141-.115.266-.3.382-.555h.945c-.1.423-.299.783-.597 1.065-.382.343-.854.52-1.426.52-.639 0-1.145-.212-1.518-.626-.398-.43-.597-1.02-.597-1.777 0-.678.183-1.24.564-1.698.365-.467.87-.696 1.51-.696zm.025.819c-.315 0-.555.088-.738.281-.174.185-.29.458-.348.819h2.206c-.083-.74-.457-1.1-1.12-1.1zm4.677-.819c.705 0 1.244.247 1.617.757.34.458.514 1.1.514 1.918h-3.21c.034.423.142.748.324.968.183.22.448.335.788.335.29 0 .522-.07.705-.211.14-.115.265-.3.381-.555h.945c-.1.423-.298.783-.597 1.065-.381.343-.854.52-1.426.52-.638 0-1.144-.212-1.517-.626-.398-.43-.597-1.02-.597-1.777 0-.678.182-1.24.564-1.698.364-.467.87-.696 1.509-.696zm.025.819c-.315 0-.556.088-.738.281-.175.185-.29.458-.349.819H34c-.083-.74-.456-1.1-1.12-1.1zm5.024-.819c.63 0 1.128.238 1.493.713.332.44.498 1.003.498 1.707 0 .669-.166 1.223-.49 1.663-.348.475-.837.713-1.45.713-.498 0-.93-.255-1.278-.748v2.367h-.945v-6.291h.879v.484c.298-.405.73-.608 1.293-.608zm-.14.81c-.374 0-.656.15-.855.466-.182.273-.265.634-.265 1.091v.07c0 .476.108.863.332 1.154.199.264.448.396.754.396.415 0 .73-.15.929-.432.174-.264.265-.642.265-1.135 0-.492-.083-.87-.24-1.135-.2-.317-.506-.475-.92-.475zm4.577-.81c1.127 0 1.75.476 1.849 1.444h-.92c-.067-.23-.167-.396-.3-.484-.14-.097-.356-.141-.646-.141-.249 0-.44.035-.564.114-.15.08-.215.203-.215.379 0 .14.107.272.34.378.14.062.422.15.854.264.48.123.845.264 1.078.431.34.229.514.554.514.96 0 .967-.647 1.451-1.932 1.451-1.194 0-1.833-.537-1.924-1.601h.92c.05.29.15.492.29.616.142.105.365.167.68.167.664 0 .996-.194.996-.563 0-.212-.125-.379-.374-.502-.132-.07-.414-.15-.845-.255-.506-.123-.863-.255-1.07-.396a1.048 1.048 0 0 1-.498-.924c0-.422.158-.748.49-.977.323-.246.746-.36 1.277-.36zM45.078 46h.945v2.464a1.467 1.467 0 0 1 1.31-.73c.523 0 .912.158 1.17.483.24.308.364.766.364 1.373v2.816h-.945v-2.64c0-.387-.075-.686-.216-.889-.165-.22-.406-.325-.73-.325a.793.793 0 0 0-.696.37c-.174.246-.257.554-.257.94v2.544h-.945V46zm6.774 1.733c.647 0 1.17.22 1.568.678.39.449.588 1.02.588 1.725 0 .695-.199 1.267-.58 1.707-.398.457-.929.686-1.576.686-.655 0-1.177-.229-1.575-.686-.39-.44-.58-1.012-.58-1.707 0-.704.19-1.276.588-1.725.39-.458.912-.678 1.567-.678zm0 .819c-.398 0-.696.158-.912.493-.182.281-.273.65-.273 1.09 0 .44.09.801.273 1.083.216.326.514.493.912.493.39 0 .697-.167.913-.493.182-.29.281-.651.281-1.082 0-.44-.1-.81-.281-1.091a1.021 1.021 0 0 0-.913-.493zm5.158-.819c.63 0 1.128.238 1.492.713.332.44.498 1.003.498 1.707 0 .669-.166 1.223-.49 1.663-.347.475-.837.713-1.45.713-.498 0-.929-.255-1.277-.748v2.367h-.946v-6.291h.88v.484c.298-.405.73-.608 1.293-.608zm-.141.81c-.373 0-.655.15-.854.466-.182.273-.265.634-.265 1.091v.07c0 .476.107.863.331 1.154.2.264.448.396.755.396.414 0 .73-.15.929-.432.174-.264.265-.642.265-1.135 0-.492-.083-.87-.24-1.135-.2-.317-.506-.475-.921-.475z" fill="#4191EE"/><path d="M20 56.844h.515l.421 1.528.417-1.528h.43l.416 1.528.421-1.528h.515l-.71 2.068h-.434L21.57 57.4l-.425 1.512h-.434L20 56.844zm3.176 0h.515l.421 1.528.417-1.528h.43l.417 1.528.42-1.528h.516l-.712 2.068h-.433l-.421-1.512-.425 1.512h-.433l-.712-2.068zm3.177 0h.515l.42 1.528.418-1.528h.429l.417 1.528.42-1.528h.516l-.711 2.068h-.434l-.42-1.512-.426 1.512h-.433l-.711-2.068zm3.715 1.464c.09 0 .164.028.23.092.06.06.093.136.093.224s-.032.16-.094.224a.34.34 0 0 1-.453 0 .296.296 0 0 1-.094-.224.29.29 0 0 1 .094-.224.288.288 0 0 1 .224-.092zm1.848-1.52c.31 0 .532.112.667.336a.834.834 0 0 1 .306-.264.779.779 0 0 1 .356-.072c.216 0 .396.068.543.212a.768.768 0 0 1 .213.556v1.356h-.466v-1.276c0-.164-.037-.284-.106-.356-.074-.076-.188-.112-.352-.112a.361.361 0 0 0-.286.128c-.082.084-.119.2-.119.352v1.264h-.466V57.64c0-.316-.139-.472-.417-.472a.386.386 0 0 0-.322.152.53.53 0 0 0-.123.352v1.24h-.466v-2.068h.466v.212c.176-.18.368-.268.572-.268zm3.475 0c.347 0 .613.112.797.344.168.208.253.5.253.872H34.86c.017.192.07.34.16.44.09.1.22.152.388.152a.583.583 0 0 0 .348-.096.687.687 0 0 0 .188-.252h.466a.935.935 0 0 1-.295.484 1.063 1.063 0 0 1-.703.236c-.314 0-.564-.096-.748-.284-.196-.196-.294-.464-.294-.808 0-.308.09-.564.278-.772.18-.212.43-.316.744-.316zm.012.372a.491.491 0 0 0-.364.128.666.666 0 0 0-.171.372h1.087c-.04-.336-.225-.5-.552-.5zm2.306-.372c.347 0 .613.112.797.344.167.208.253.5.253.872h-1.582c.017.192.07.34.16.44.09.1.22.152.388.152a.583.583 0 0 0 .348-.096.687.687 0 0 0 .188-.252h.466a.935.935 0 0 1-.295.484 1.063 1.063 0 0 1-.703.236c-.315 0-.564-.096-.748-.284-.196-.196-.294-.464-.294-.808 0-.308.09-.564.278-.772.18-.212.429-.316.744-.316zm.012.372a.491.491 0 0 0-.364.128.666.666 0 0 0-.172.372h1.088c-.041-.336-.225-.5-.552-.5zm2.477-.372c.31 0 .556.108.736.324.164.2.245.456.245.776 0 .304-.081.556-.24.756-.173.216-.414.324-.716.324-.245 0-.458-.116-.63-.34v1.076h-.466v-2.86h.434v.22c.147-.184.36-.276.637-.276zm-.07.368a.474.474 0 0 0-.42.212c-.09.124-.131.288-.131.496v.032c0 .216.053.392.163.524.099.12.221.18.372.18.205 0 .36-.068.458-.196.086-.12.131-.292.131-.516 0-.224-.04-.396-.118-.516-.099-.144-.25-.216-.454-.216zm2.257-.368c.556 0 .863.216.912.656h-.454c-.033-.104-.082-.18-.147-.22-.07-.044-.176-.064-.319-.064a.569.569 0 0 0-.278.052.175.175 0 0 0-.106.172c0 .064.053.124.167.172.07.028.209.068.422.12.237.056.416.12.53.196a.492.492 0 0 1 .254.436c0 .44-.318.66-.952.66-.589 0-.904-.244-.948-.728h.453c.025.132.074.224.143.28.07.048.18.076.336.076.327 0 .49-.088.49-.256 0-.096-.061-.172-.184-.228a2.437 2.437 0 0 0-.417-.116c-.25-.056-.425-.116-.527-.18a.468.468 0 0 1-.245-.42c0-.192.077-.34.24-.444.16-.112.369-.164.63-.164zm1.35-.788h.465v1.12a.733.733 0 0 1 .646-.332c.258 0 .45.072.577.22.118.14.18.348.18.624v1.28h-.467v-1.2c0-.176-.036-.312-.106-.404-.082-.1-.2-.148-.36-.148a.4.4 0 0 0-.343.168.677.677 0 0 0-.127.428v1.156h-.466V56zm3.34.788c.318 0 .575.1.772.308.192.204.29.464.29.784 0 .316-.098.576-.286.776-.196.208-.458.312-.777.312-.323 0-.58-.104-.777-.312-.192-.2-.286-.46-.286-.776 0-.32.094-.58.29-.784.193-.208.45-.308.773-.308zm0 .372a.51.51 0 0 0-.45.224.85.85 0 0 0-.135.496c0 .2.044.364.134.492a.52.52 0 0 0 .45.224.525.525 0 0 0 .45-.224.855.855 0 0 0 .139-.492.85.85 0 0 0-.14-.496.515.515 0 0 0-.449-.224zm2.542-.372c.31 0 .556.108.736.324.163.2.245.456.245.776 0 .304-.082.556-.241.756-.172.216-.413.324-.716.324-.245 0-.458-.116-.63-.34v1.076h-.465v-2.86h.433v.22c.147-.184.36-.276.638-.276zm-.07.368a.474.474 0 0 0-.42.212c-.09.124-.132.288-.132.496v.032c0 .216.054.392.164.524.098.12.22.18.372.18.204 0 .36-.068.458-.196.086-.12.13-.292.13-.516 0-.224-.04-.396-.118-.516-.098-.144-.25-.216-.454-.216zm1.774 1.152c.09 0 .164.028.23.092.06.06.093.136.093.224s-.032.16-.094.224a.34.34 0 0 1-.453 0 .296.296 0 0 1-.094-.224.29.29 0 0 1 .094-.224.288.288 0 0 1 .224-.092zm1.758-1.52c.274 0 .49.06.654.18.168.128.274.32.315.58h-.462a.485.485 0 0 0-.168-.292.557.557 0 0 0-.339-.096.479.479 0 0 0-.404.188c-.099.124-.148.3-.148.524 0 .228.045.408.143.536.09.124.225.188.405.188.31 0 .482-.152.52-.452h.461c-.049.28-.16.488-.327.624-.163.132-.384.2-.658.2-.327 0-.58-.104-.76-.312-.176-.2-.262-.46-.262-.78 0-.312.086-.568.258-.764.184-.216.441-.324.772-.324zm2.326 0c.32 0 .577.1.773.308.192.204.29.464.29.784 0 .316-.098.576-.286.776-.196.208-.458.312-.777.312-.323 0-.58-.104-.776-.312-.193-.2-.287-.46-.287-.776 0-.32.094-.58.29-.784.193-.208.45-.308.773-.308zm0 .372a.51.51 0 0 0-.45.224.85.85 0 0 0-.134.496c0 .2.045.364.135.492a.52.52 0 0 0 .45.224.525.525 0 0 0 .449-.224.855.855 0 0 0 .139-.492.85.85 0 0 0-.14-.496.515.515 0 0 0-.449-.224zm2.51-.372c.31 0 .532.112.667.336a.834.834 0 0 1 .306-.264.779.779 0 0 1 .356-.072c.216 0 .396.068.543.212a.768.768 0 0 1 .213.556v1.356h-.466v-1.276c0-.164-.037-.284-.106-.356-.074-.076-.188-.112-.352-.112a.361.361 0 0 0-.286.128c-.082.084-.119.2-.119.352v1.264h-.466V57.64c0-.316-.139-.472-.417-.472a.386.386 0 0 0-.322.152.53.53 0 0 0-.123.352v1.24h-.466v-2.068h.466v.212c.176-.18.368-.268.572-.268z" fill="#3EBD4B"/><path fill="#EDD6E5" fill-rule="nonzero" d="M17 64h171v6H17zM17 74h86v6H17z"/><path stroke="#F0F2F5" fill="#FFF" fill-rule="nonzero" d="M15.5 12.5h174v18h-174z"/><path d="M181.973 25.353l-2.922-2.922a3.345 3.345 0 0 0 .699-2.056c0-.902-.352-1.748-.989-2.386a3.35 3.35 0 0 0-2.386-.989c-.901 0-1.75.352-2.386.989a3.348 3.348 0 0 0-.989 2.386c0 .901.352 1.75.989 2.386a3.348 3.348 0 0 0 2.386.989c.754 0 1.47-.245 2.055-.698l2.922 2.921a.092.092 0 0 0 .13 0l.491-.49a.092.092 0 0 0 0-.13zm-3.816-3.196a2.506 2.506 0 0 1-1.782.738 2.506 2.506 0 0 1-1.782-.738 2.506 2.506 0 0 1-.738-1.782c0-.673.262-1.306.738-1.782a2.506 2.506 0 0 1 1.782-.738 2.5 2.5 0 0 1 1.782.738c.476.477.738 1.11.738 1.782 0 .673-.262 1.306-.738 1.782z" fill="#000" fill-rule="nonzero"/><text font-family="PingFangTC-Semibold, PingFang TC" font-size="11" font-weight="500" fill="#000" fill-opacity=".65"><tspan x="19" y="25">meepshop</tspan></text></g></svg>