<?xml version="1.0" encoding="UTF-8"?>
<svg width="30px" height="30px" viewBox="0 0 30 30" version="1.1" xmlns="http://www.w3.org/2000/svg" xmlns:xlink="http://www.w3.org/1999/xlink">
    <!-- Generator: sketchtool 52.4 (67378) - http://www.bohemiancoding.com/sketch -->
    <title>30203D08-A1B3-43E0-939F-53CAE665BE53</title>
    <desc>Created with sketchtool.</desc>
    <g id="設定" stroke="none" stroke-width="1" fill="none" fill-rule="evenodd">
        <g id="商店設定-" transform="translate(-912.000000, -1744.000000)" fill="#E0E0E0">
            <g id="【說明】商店設定" transform="translate(1.000000, 1545.000000)">
                <g id="上傳圖片補充說明" transform="translate(854.000000, 82.000000)">
                    <g id="Group-27" transform="translate(27.000000, 87.000000)">
                        <path d="M37.5,39.375 C36.4640625,39.375 35.625,38.5359375 35.625,37.5 C35.625,36.465 36.4640625,35.625 37.5,35.625 C38.535,35.625 39.375,36.465 39.375,37.5 C39.375,38.5359375 38.535,39.375 37.5,39.375 L37.5,39.375 Z M37.5,33.75 C35.4290625,33.75 33.75,35.4290625 33.75,37.5 C33.75,39.5709375 35.4290625,41.25 37.5,41.25 C39.5709375,41.25 41.25,39.5709375 41.25,37.5 C41.25,35.4290625 39.5709375,33.75 37.5,33.75 L37.5,33.75 Z M58.125,46.0575 L52.5,40.3125 L43.1803125,49.7915625 L39.375,45.9375 L31.875,52.8159375 L31.875,33.75 C31.875,32.715 32.7140625,31.875 33.75,31.875 L56.25,31.875 C57.285,31.875 58.125,32.715 58.125,33.75 L58.125,46.0575 Z M58.125,56.25 C58.125,57.2859375 57.285,58.125 56.25,58.125 L51.405,58.125 L44.4975,51.1265625 L52.5,43.1240625 L58.125,48.7490625 L58.125,56.25 Z M33.75,58.125 C32.7140625,58.125 31.875,57.2859375 31.875,56.25 L31.875,55.3696875 L39.3234375,48.6984375 L48.7509375,58.125 L33.75,58.125 Z M56.25,30 L33.75,30 C31.6790625,30 30,31.6790625 30,33.75 L30,56.25 C30,58.3209375 31.6790625,60 33.75,60 L56.25,60 C58.3209375,60 60,58.3209375 60,56.25 L60,33.75 C60,31.6790625 58.3209375,30 56.25,30 L56.25,30 Z" id="Upload"></path>
                    </g>
                </g>
            </g>
        </g>
    </g>
</svg>