<?xml version="1.0" encoding="UTF-8"?>
<svg width="1024px" height="1024px" viewBox="0 0 1024 1024" version="1.1" xmlns="http://www.w3.org/2000/svg" xmlns:xlink="http://www.w3.org/1999/xlink">
    <title>ic_dnd-ic_Activity</title>
    <g id="切圖" stroke="none" stroke-width="1" fill="none" fill-rule="evenodd">
        <g id="Antd-custom-Icon-Copy-7" fill-rule="nonzero">
            <g id="ic_dnd-ic_Activity">
                <rect id="bg" fill-opacity="0" fill="#FFFFFF" opacity="0" x="64" y="64" width="896" height="896"></rect>
                <path d="M606.296119,123.909755 L636.908841,154.52183 C647.131806,164.687531 660.899048,170.476212 675.274725,170.683974 L676.045416,170.689759 L719.129016,170.689759 C792.384925,170.689759 851.909304,229.482178 853.092466,302.456908 L853.110416,304.672559 L853.11041,347.73283 C853.118475,362.150995 858.729056,375.991791 868.665558,386.267705 L869.202002,386.814773 L899.281188,416.894179 C951.22772,468.548788 951.980525,552.209934 901.437721,604.714225 L899.383332,606.805173 L869.279738,636.90839 C859.112774,647.132621 853.323966,660.899839 853.1162,675.27566 L853.110416,676.046359 L853.110416,719.128559 C853.110416,792.385248 794.318596,851.910235 721.344643,853.093409 L719.129016,853.111359 L676.067345,853.111352 C661.649326,853.119418 647.809094,858.729854 637.533224,868.667103 L636.986158,869.203588 L606.905474,899.282655 C554.728739,951.752284 469.896369,951.990973 417.504513,899.891362 L386.890688,869.27959 C376.668192,859.11355 362.901566,853.324904 348.525906,853.117143 L347.755216,853.111359 L304.671616,853.111359 C231.415706,853.111359 171.891328,794.318939 170.708166,721.344209 L170.690216,719.128559 L170.690222,676.068286 C170.682156,661.649328 165.071978,647.809704 155.134485,637.532823 L154.597987,636.985701 L124.519971,606.906062 C72.5729185,555.252895 71.8201081,471.591761 122.362911,419.085551 L124.44123,416.972173 L154.520894,386.892728 C164.687858,376.668496 170.476665,362.901278 170.684431,348.525457 L170.690216,347.754759 L170.69153,304.348124 L170.708166,302.456908 C171.879496,230.211925 230.231053,171.867025 302.478103,170.707352 L304.671616,170.689759 L347.733287,170.689765 C362.151302,170.681699 375.992141,165.071222 386.266829,155.135949 L386.81383,154.599573 L416.895157,124.518462 C469.071893,72.0488331 553.904263,71.8101445 606.296119,123.909755 Z M473.065514,179.229118 L472.409802,179.877944 L442.173041,210.114487 C417.339079,234.809339 383.831803,248.788645 348.816733,249.08497 L347.755216,249.089759 L304.671616,249.089759 C274.282017,249.089759 249.588494,273.479634 249.097662,303.75339 L249.090216,304.672559 L249.09021,347.776687 C249.070617,382.800148 235.337805,416.409216 210.78319,441.494404 L210.035802,442.251944 L179.579795,472.70773 C158.150348,494.258285 158.032852,528.965493 179.230178,550.735312 L179.879045,551.391016 L210.113538,581.627128 C234.809827,606.462523 248.789104,639.968464 249.085428,674.984802 L249.090216,676.046359 L249.090216,719.128559 C249.090216,749.519292 273.479843,774.213076 303.752481,774.703912 L304.671616,774.711359 L347.777145,774.711365 C382.80112,774.730957 416.410657,788.464173 441.492908,813.017772 L442.250358,813.765129 L472.708712,844.2223 C494.257451,865.650751 528.965042,865.767987 550.735742,844.571375 L551.391473,843.922529 L581.626488,813.689127 C606.460292,788.992473 639.967927,775.012486 674.983872,774.716147 L676.045416,774.711359 L719.129016,774.711359 C749.518615,774.711359 774.212138,750.321483 774.702969,720.047727 L774.710416,719.128559 L774.710422,676.02443 C774.730014,641.000969 788.462827,607.391901 813.016817,582.307338 L813.764187,581.549816 L844.221357,551.091462 C865.650288,529.542241 865.767778,494.835043 844.571078,473.065054 L843.92223,472.409344 L813.687094,442.17399 C788.991111,417.338902 775.011535,383.831718 774.715204,348.816287 L774.710416,347.754759 L774.710416,304.672559 C774.710416,274.281825 750.320789,249.588042 720.04815,249.097205 L719.129016,249.089759 L676.023487,249.089752 C641.000397,249.07016 607.391229,235.337606 582.307137,210.784099 L581.54963,210.036744 L551.09192,179.578817 C529.54318,158.150366 494.83559,158.03313 473.065514,179.229118 Z M673.070163,350.72947 C686.056538,363.715779 686.190471,384.687616 673.471923,397.83864 L673.070284,398.247046 L398.247484,673.071246 C385.125901,686.192896 363.851558,686.19295 350.729909,673.071367 C337.743534,660.085058 337.6096,639.113221 350.328149,625.962197 L350.729787,625.553791 L625.552587,350.729591 C638.67417,337.607942 659.948514,337.607887 673.070163,350.72947 Z M628.2,577.8 C656.034975,577.8 678.6,600.365025 678.6,628.2 C678.6,656.034975 656.034975,678.6 628.2,678.6 C600.365025,678.6 577.8,656.034975 577.8,628.2 C577.8,600.365025 600.365025,577.8 628.2,577.8 Z M398.6,348.2 C426.434975,348.2 449,370.765025 449,398.6 C449,426.434975 426.434975,449 398.6,449 C370.765025,449 348.2,426.434975 348.2,398.6 C348.2,370.765025 370.765025,348.2 398.6,348.2 Z" id="Shape" fill="#5C8EB4"></path>
            </g>
        </g>
    </g>
</svg>