<?xml version="1.0" encoding="UTF-8"?>
<svg width="1024px" height="1024px" viewBox="0 0 1024 1024" version="1.1" xmlns="http://www.w3.org/2000/svg" xmlns:xlink="http://www.w3.org/1999/xlink">
    <title>ic_dnd-ic_Carousel</title>
    <g id="切圖" stroke="none" stroke-width="1" fill="none" fill-rule="evenodd">
        <g id="圖文" transform="translate(0.000000, -3072.000000)">
            <g id="ic_dnd-ic_Carousel" transform="translate(0.000000, 3072.000000)">
                <rect id="bg" fill-opacity="0" fill="#FFFFFF" fill-rule="nonzero" opacity="0" x="64" y="64" width="896" height="896"></rect>
                <path d="M349.56486,846.25546 C377.39966,846.25546 399.96486,868.82066 399.96486,896.65546 C399.96486,924.49026 377.39966,947.05546 349.56486,947.05546 C321.73006,947.05546 299.16486,924.49026 299.16486,896.65546 C299.16486,868.82066 321.73006,846.25546 349.56486,846.25546 Z M512.56364,846.25546 C540.39844,846.25546 562.96364,868.82066 562.96364,896.65546 C562.96364,924.49026 540.39844,947.05546 512.56364,947.05546 C484.72884,947.05546 462.16364,924.49026 462.16364,896.65546 C462.16364,868.82066 484.72884,846.25546 512.56364,846.25546 Z M675.56242,846.25546 C703.39722,846.25546 725.96242,868.82066 725.96242,896.65546 C725.96242,924.49026 703.39722,947.05546 675.56242,947.05546 C647.72762,947.05546 625.16242,924.49026 625.16242,896.65546 C625.16242,868.82066 647.72762,846.25546 675.56242,846.25546 Z M893.7779,147.73694 C924.397412,147.73694 949.27589,172.310595 949.7779,202.810894 L949.7779,203.73694 L949.7779,756.42474 C949.7779,787.044252 925.205617,811.92273 894.703988,812.417238 L893.7779,812.42474 L130.2221,812.42474 C99.602588,812.42474 74.7241098,787.852457 74.2221,757.350828 L74.2221,756.42474 L74.2221,203.73694 C74.2221,173.118814 98.7943831,148.238977 129.296012,147.744443 L130.2221,147.73694 L893.7779,147.73694 Z M696.7146,430.38 L522.67425,590.345714 C501.039168,610.229226 468.405167,613.601678 442.966284,598.988247 L442.19763,598.539908 L319.3712,525.8082 L152.6221,683.68694 L152.6221,734.02474 L871.3779,734.02474 L871.3779,547.03794 L696.7146,430.38 Z M871.3779,226.13694 L152.6221,226.13694 L152.6221,575.72094 L271.434148,463.231808 C293.02787,442.791718 326.096384,439.144736 351.837867,453.927137 L352.61565,454.380732 L475.5482,527.1732 L649.915321,366.909745 C672.512893,346.140065 706.970417,343.467483 732.673367,360.125852 L733.449543,360.63657 L871.3779,452.75994 L871.3779,226.13694 Z M444.5522,267.14812 C490.943768,267.14812 528.5522,304.756552 528.5522,351.14812 C528.5522,397.539688 490.943768,435.14812 444.5522,435.14812 C398.160632,435.14812 360.5522,397.539688 360.5522,351.14812 C360.5522,304.756552 398.160632,267.14812 444.5522,267.14812 Z M444.5522,334.34812 C435.274168,334.34812 427.7522,341.870088 427.7522,351.14812 C427.7522,360.426152 435.274168,367.94812 444.5522,367.94812 C453.830232,367.94812 461.3522,360.426152 461.3522,351.14812 C461.3522,341.870088 453.830232,334.34812 444.5522,334.34812 Z" id="Shape" fill="#5C8EB4"></path>
            </g>
        </g>
    </g>
</svg>