<?xml version="1.0" encoding="UTF-8"?>
<svg width="1024px" height="1024px" viewBox="0 0 1024 1024" version="1.1" xmlns="http://www.w3.org/2000/svg" xmlns:xlink="http://www.w3.org/1999/xlink">
    <title>ic_delete_outline</title>
    <g id="切圖" stroke="none" stroke-width="1" fill="none" fill-rule="evenodd">
        <g id="slice" transform="translate(0.000000, -2163.000000)">
            <g id="ic_delete_outline" transform="translate(0.000000, 2163.000000)">
                <rect id="bg" fill-opacity="0" fill="#FFFFFF" x="64" y="64" width="896" height="896"></rect>
                <path d="M600,248 L600,192 L425,192 L425,248 L600,248 Z M723,320 L302,320 L302,827 L723,827 L723,320 Z M463,417 C467.418278,417 471,420.581722 471,425 L471,722 C471,726.418278 467.418278,730 463,730 L415,730 C410.581722,730 407,726.418278 407,722 L407,425 C407,420.581722 410.581722,417 415,417 L463,417 Z M611,417 C615.418278,417 619,420.581722 619,425 L619,722 C619,726.418278 615.418278,730 611,730 L563,730 C558.581722,730 555,726.418278 555,722 L555,425 C555,420.581722 558.581722,417 563,417 L611,417 Z M353,152 C353,134.503619 367.041783,120.286872 384.470821,120 L385,120 L640,120 C657.496381,120 671.713128,134.041783 671.995713,151.470821 L672,152 L672,248 L864,248 C868.418278,248 872,251.581722 872,256 L872,312 C872,316.418278 868.418278,320 864,320 L795,320 L795,867 C795,884.673112 780.673112,899 763,899 L262,899 C244.326888,899 230,884.673112 230,867 L230,320 L160,320 C155.581722,320 152,316.418278 152,312 L152,256 C152,251.581722 155.581722,248 160,248 L353,248 L353,152 Z" id="Shape" fill="#000000" fill-rule="nonzero"></path>
            </g>
        </g>
    </g>
</svg>