<?xml version="1.0" encoding="UTF-8"?>
<svg width="1024px" height="1024px" viewBox="0 0 1024 1024" version="1.1" xmlns="http://www.w3.org/2000/svg" xmlns:xlink="http://www.w3.org/1999/xlink">
    <title>ic_dnd-ic_Divider</title>
    <g id="切圖" stroke="none" stroke-width="1" fill="none" fill-rule="evenodd">
        <g id="Antd-custom-Icon-Copy-13" fill-rule="nonzero">
            <g id="ic_dnd-ic_Divider">
                <rect id="bg" fill-opacity="0" fill="#FFFFFF" opacity="0" x="64" y="64" width="896" height="896"></rect>
                <path d="M620.04556,675.29635 C631.33656,675.29635 637.98236,687.97615 631.55776,697.26235 L523.92576,852.83315 C518.35796,860.87895 506.46496,860.87895 500.89856,852.83315 L393.26516,697.26235 C386.84056,687.97615 393.48636,675.29635 404.77876,675.29635 L620.04556,675.29635 Z M862.82348,240.17187 C914.875213,240.17187 957.170035,281.946174 958.010726,333.797564 L958.02348,335.37187 L958.02348,689.69507 C958.02348,741.746803 916.249176,784.041625 864.397786,784.882316 L862.82348,784.89507 L763.39968,784.89507 C741.750118,784.89507 724.19968,767.344632 724.19968,745.69507 C724.19968,724.262003 741.400864,706.846489 762.751436,706.500322 L763.39968,706.49507 L862.82348,706.49507 C871.959119,706.49507 879.39163,699.203108 879.61816,690.122035 L879.62348,689.69507 L879.62348,335.37187 C879.62348,326.236231 872.331518,318.80372 863.250445,318.57719 L862.82348,318.57187 L763.39968,318.57187 C741.750118,318.57187 724.19968,301.021432 724.19968,279.37187 C724.19968,257.938803 741.400864,240.523289 762.751436,240.17187 L862.82348,240.17187 Z M261.4238,240.17187 C283.073362,240.17187 300.6238,257.722308 300.6238,279.37187 C300.6238,300.804937 283.422616,318.220451 262.072044,318.566618 L261.4238,318.57187 L162,318.57187 C152.864361,318.57187 145.43185,325.863832 145.20532,334.944905 L145.2,335.37187 L145.2,689.69507 C145.2,698.830709 152.491962,706.26322 161.573035,706.48975 L162,706.49507 L261.4238,706.49507 C283.073362,706.49507 300.6238,724.045508 300.6238,745.69507 C300.6238,767.128137 283.422616,784.543651 262.072044,784.89507 L162,784.89507 C109.948267,784.89507 67.6534453,743.120766 66.8127541,691.269376 L66.8,689.69507 L66.8,335.37187 C66.8,283.320137 108.574304,241.025315 160.425694,240.184624 L162,240.17187 L261.4238,240.17187 Z M500.89856,172.23435 C506.402416,164.278952 518.0915,164.189566 523.735704,171.966191 L523.92576,172.23435 L631.55776,327.80515 C637.918114,336.997102 631.468169,349.516494 620.382888,349.765962 L620.04556,349.76975 L404.77876,349.76975 C393.599284,349.76975 386.973941,337.342278 393.076335,328.084696 L393.26516,327.80515 L500.89856,172.23435 Z" id="Shape" fill="#5C8EB4"></path>
            </g>
        </g>
    </g>
</svg>