<?xml version="1.0" encoding="UTF-8"?>
<svg width="1024px" height="1024px" viewBox="0 0 1024 1024" version="1.1" xmlns="http://www.w3.org/2000/svg" xmlns:xlink="http://www.w3.org/1999/xlink">
    <title>ic_dnd-ic_DraftText</title>
    <g id="切圖" stroke="none" stroke-width="1" fill="none" fill-rule="evenodd">
        <g id="圖文" transform="translate(0.000000, -1024.000000)" fill-rule="nonzero">
            <g id="ic_dnd-ic_DraftText" transform="translate(0.000000, 1024.000000)">
                <rect id="bg" fill-opacity="0" fill="#FFFFFF" opacity="0" x="64" y="64" width="896" height="896"></rect>
                <path d="M903.34648,770.71972 C929.372558,770.71972 950.519762,791.606663 950.940103,817.532561 L950.94648,818.31972 L950.94648,902.31972 C950.94648,928.345798 930.059537,949.493002 904.133639,949.913343 L903.34648,949.91972 L819.34648,949.91972 C793.321824,949.91972 772.173227,929.032812 771.752857,903.10688 L771.74648,902.31972 L771.74648,818.31972 C771.74648,792.293606 792.63483,771.146438 818.559363,770.726097 L819.34648,770.71972 L903.34648,770.71972 Z M205.4,770.71972 C231.426078,770.71972 252.573282,791.606663 252.993623,817.532561 L253,818.31972 L253,902.31972 C253,928.345798 232.113057,949.493002 206.187159,949.913343 L205.4,949.91972 L121.4,949.91972 C95.3753437,949.91972 74.2267469,929.032812 73.8063774,903.10688 L73.8,902.31972 L73.8,818.31972 C73.8,792.293606 94.6883503,771.146438 120.612883,770.726097 L121.4,770.71972 L205.4,770.71972 Z M671.77234,821.11958 C693.421902,821.11958 710.97234,838.670018 710.97234,860.31958 C710.97234,881.752647 693.771156,899.168161 672.420584,899.514328 L671.77234,899.51958 L587.562338,899.51958 C565.912776,899.51958 548.362338,881.969142 548.362338,860.31958 C548.362338,838.886513 565.563522,821.470999 586.914094,821.124832 L587.562338,821.11958 L671.77234,821.11958 Z M437.186934,821.11958 C458.836496,821.11958 476.386934,838.670018 476.386934,860.31958 C476.386934,881.752647 459.185749,899.168161 437.835177,899.514328 L437.186934,899.51958 L352.976931,899.51958 C331.327369,899.51958 313.776931,881.969142 313.776931,860.31958 C313.776931,838.886513 330.978115,821.470999 352.328688,821.124832 L352.976931,821.11958 L437.186934,821.11958 Z M883.7462,837.9186 L838.9462,837.9186 L838.9462,882.7186 L883.7462,882.7186 L883.7462,837.9186 Z M185.8,837.9186 L141,837.9186 L141,882.7186 L185.8,882.7186 L185.8,837.9186 Z M685.51278,289.17502 C706.945847,289.17502 724.361361,306.376204 724.707528,327.726776 L724.71278,328.37502 L724.71278,401.56562 C724.71278,423.215182 707.162342,440.76562 685.51278,440.76562 C664.079713,440.76562 646.664199,423.564436 646.318032,402.213864 L646.31278,401.56562 L646.3139,367.57572 L551.573,367.575 L551.573,674.344 L567.02784,674.34428 C588.677402,674.34428 606.22784,691.894718 606.22784,713.54428 C606.22784,734.977347 589.026656,752.392861 567.676084,752.739028 L567.02784,752.74428 L457.72004,752.74428 C436.070478,752.74428 418.52004,735.193842 418.52004,713.54428 C418.52004,692.111213 435.721224,674.695699 457.071796,674.349532 L457.72004,674.34428 L473.173,674.344 L473.173,367.575 L378.4365,367.57572 L378.43538,401.56562 C378.43538,422.998687 361.234196,440.414201 339.883624,440.760368 L339.23538,440.76562 C317.802313,440.76562 300.386799,423.564436 300.040632,402.213864 L300.03538,401.56562 L300.03538,328.37502 C300.03538,306.941953 317.236564,289.526439 338.587136,289.180272 L339.23538,289.17502 L685.51278,289.17502 Z M861.34648,547.192778 C882.779547,547.192778 900.195061,564.393962 900.541228,585.744535 L900.54648,586.392778 L900.54648,670.653179 C900.54648,692.302742 882.996042,709.853179 861.34648,709.853179 C839.913413,709.853179 822.497899,692.651995 822.151732,671.301423 L822.14648,670.653179 L822.14648,586.392778 C822.14648,564.743216 839.696918,547.192778 861.34648,547.192778 Z M163.4,547.193339 C184.833067,547.193339 202.248581,564.394523 202.594748,585.745095 L202.6,586.393339 L202.6,670.65374 C202.6,692.303302 185.049562,709.85374 163.4,709.85374 C141.966933,709.85374 124.551419,692.652556 124.205252,671.301984 L124.2,670.65374 L124.2,586.393339 C124.2,564.743777 141.750438,547.193339 163.4,547.193339 Z M861.34648,312.46598 C882.779547,312.46598 900.195061,329.667164 900.541228,351.017736 L900.54648,351.66598 L900.54648,435.926381 C900.54648,457.575943 882.996042,475.126381 861.34648,475.126381 C839.913413,475.126381 822.497899,457.925197 822.151732,436.574625 L822.14648,435.926381 L822.14648,351.66598 C822.14648,330.016418 839.696918,312.46598 861.34648,312.46598 Z M163.4,312.466541 C184.833067,312.466541 202.248581,329.667725 202.594748,351.018297 L202.6,351.666541 L202.6,435.926942 C202.6,457.576504 185.049562,475.126942 163.4,475.126942 C141.966933,475.126942 124.551419,457.925758 124.205252,436.575185 L124.2,435.926942 L124.2,351.666541 C124.2,330.016978 141.750438,312.466541 163.4,312.466541 Z M903.34648,72.4 C929.372558,72.4 950.519762,93.2869429 950.940103,119.212841 L950.94648,120 L950.94648,204 C950.94648,230.026078 930.059537,251.173282 904.133639,251.593623 L903.34648,251.6 L819.34648,251.6 C793.321824,251.6 772.173227,230.713092 771.752857,204.78716 L771.74648,204 L771.74648,120 C771.74648,93.9738864 792.63483,72.8267177 818.559363,72.406377 L819.34648,72.4 L903.34648,72.4 Z M205.4,72.4 C231.426078,72.4 252.573282,93.2869429 252.993623,119.212841 L253,120 L253,204 C253,230.026078 232.113057,251.173282 206.187159,251.593623 L205.4,251.6 L121.4,251.6 C95.3753437,251.6 74.2267469,230.713092 73.8063774,204.78716 L73.8,204 L73.8,120 C73.8,93.9738864 94.6883503,72.8267177 120.612883,72.406377 L121.4,72.4 L205.4,72.4 Z M437.185682,122.79986 C458.835244,122.79986 476.385682,140.350298 476.385682,161.99986 C476.385682,183.432927 459.184498,200.848441 437.833926,201.194608 L437.185682,201.19986 L352.97568,201.19986 C331.326118,201.19986 313.77568,183.649422 313.77568,161.99986 C313.77568,140.566793 330.976864,123.151279 352.327436,122.805112 L352.97568,122.79986 L437.185682,122.79986 Z M671.771089,122.79986 C693.420651,122.79986 710.971089,140.350298 710.971089,161.99986 C710.971089,183.432927 693.769905,200.848441 672.419332,201.194608 L671.771089,201.19986 L587.561086,201.19986 C565.911524,201.19986 548.361086,183.649422 548.361086,161.99986 C548.361086,140.566793 565.562271,123.151279 586.912843,122.805112 L587.561086,122.79986 L671.771089,122.79986 Z M883.7462,139.6 L838.9462,139.6 L838.9462,184.4 L883.7462,184.4 L883.7462,139.6 Z M185.8,139.6 L141,139.6 L141,184.4 L185.8,184.4 L185.8,139.6 Z" id="Shape" fill="#5C8EB4"></path>
            </g>
        </g>
    </g>
</svg>