<?xml version="1.0" encoding="UTF-8"?>
<svg width="1024px" height="1024px" viewBox="0 0 1024 1024" version="1.1" xmlns="http://www.w3.org/2000/svg" xmlns:xlink="http://www.w3.org/1999/xlink">
    <title>ic_drag_outline</title>
    <g id="切圖" stroke="none" stroke-width="1" fill="none" fill-rule="evenodd">
        <g id="slice" transform="translate(0.000000, -3187.000000)">
            <g id="ic_drag_outline" transform="translate(0.000000, 3187.000000)">
                <rect id="bg" fill-opacity="0" fill="#FFFFFF" x="64" y="64" width="896" height="896"></rect>
                <path d="M190.875,589 C229.534932,589 260.875,620.340068 260.875,659 C260.875,697.659932 229.534932,729 190.875,729 C152.215068,729 120.875,697.659932 120.875,659 C120.875,620.340068 152.215068,589 190.875,589 Z M512,589 C550.659932,589 582,620.340068 582,659 C582,697.659932 550.659932,729 512,729 C473.340068,729 442,697.659932 442,659 C442,620.340068 473.340068,589 512,589 Z M833.125,589 C871.784932,589 903.125,620.340068 903.125,659 C903.125,697.659932 871.784932,729 833.125,729 C794.465068,729 763.125,697.659932 763.125,659 C763.125,620.340068 794.465068,589 833.125,589 Z M190.875,295 C229.534932,295 260.875,326.340068 260.875,365 C260.875,403.659932 229.534932,435 190.875,435 C152.215068,435 120.875,403.659932 120.875,365 C120.875,326.340068 152.215068,295 190.875,295 Z M512,295 C550.659932,295 582,326.340068 582,365 C582,403.659932 550.659932,435 512,435 C473.340068,435 442,403.659932 442,365 C442,326.340068 473.340068,295 512,295 Z M833.125,295 C871.784932,295 903.125,326.340068 903.125,365 C903.125,403.659932 871.784932,435 833.125,435 C794.465068,435 763.125,403.659932 763.125,365 C763.125,326.340068 794.465068,295 833.125,295 Z" id="Shape" fill="#000000"></path>
            </g>
        </g>
    </g>
</svg>