<?xml version="1.0" encoding="UTF-8"?>
<svg width="1024px" height="1024px" viewBox="0 0 1024 1024" version="1.1" xmlns="http://www.w3.org/2000/svg" xmlns:xlink="http://www.w3.org/1999/xlink">
    <title>ic_dnd-ic_FacebookWall</title>
    <g id="切圖" stroke="none" stroke-width="1" fill="none" fill-rule="evenodd">
        <g id="ic_dnd-ic_FacebookWall">
            <rect id="bg" fill-opacity="0" fill="#FFFFFF" fill-rule="nonzero" opacity="0" x="64" y="64" width="896" height="896"></rect>
            <path d="M836.80028,836.79944 L588.74688,836.79944 L588.74688,620.09204 L667.04468,620.09204 C684.15268,620.09204 698.74488,607.70624 701.52388,590.82784 L707.85468,552.38944 C711.35888,531.10944 694.94108,511.76704 673.37548,511.76704 L588.74688,511.76704 L588.74688,436.63884 C588.74688,407.69104 612.21368,384.22424 641.16288,384.22424 L677.85268,384.22424 C697.15168,384.22424 712.79668,368.57924 712.79668,349.28024 L712.79668,310.84184 C712.79668,291.54424 697.15168,275.89924 677.85268,275.89924 L641.16288,275.89924 C552.40988,275.89924 480.46108,347.84804 480.46108,436.60104 L480.46108,511.76704 L410.53528,511.76704 C391.23628,511.76704 375.59268,527.41344 375.59268,546.71104 L375.59268,585.14944 C375.59268,604.44704 391.23628,620.09204 410.53528,620.09204 L480.46108,620.09204 L480.46108,836.79944 L187.20028,836.79944 L187.20028,187.19944 L836.80028,187.19944 L836.80028,836.79944 Z M859.20028,108.79944 L164.80028,108.79944 C133.87148,108.79944 108.80028,133.87204 108.80028,164.79944 L108.80028,859.19944 C108.80028,890.12824 133.87148,915.19944 164.80028,915.19944 L859.20028,915.19944 C890.12768,915.19944 915.20028,890.12824 915.20028,859.19944 L915.20028,164.79944 C915.20028,133.87204 890.12768,108.79944 859.20028,108.79944 L859.20028,108.79944 Z" id="icon-shape" fill="#5C8EB4"></path>
        </g>
    </g>
</svg>