<?xml version="1.0" encoding="UTF-8"?>
<svg width="1024px" height="1024px" viewBox="0 0 1024 1024" version="1.1" xmlns="http://www.w3.org/2000/svg" xmlns:xlink="http://www.w3.org/1999/xlink">
    <title>ic_dnd-ic_GoogleMap</title>
    <g id="切圖" stroke="none" stroke-width="1" fill="none" fill-rule="evenodd">
        <g id="Antd-custom-Icon-Copy-5" fill-rule="nonzero">
            <g id="ic_dnd-ic_GoogleMap">
                <rect id="bg" fill-opacity="0" fill="#FFFFFF" opacity="0" x="64" y="64" width="896" height="896"></rect>
                <path d="M511.99958,75.47426 C684.62658,75.47426 813.25578,204.10066 813.25578,376.72766 C813.25578,461.767288 759.899422,552.838238 698.096643,629.802513 L801.915073,629.79964 C802.666885,629.79964 803.350213,630.220592 803.69144,630.880598 L803.759224,631.02562 L935.854559,945.75102 C935.957426,945.996107 936.010408,946.259241 936.010408,946.52504 C936.010408,947.579402 935.19453,948.443205 934.15967,948.52504 L934.010408,948.52504 L89.9906999,948.52504 C89.7249029,948.52504 89.461772,948.472059 89.2166868,948.369194 C88.2466886,947.962074 87.7659237,946.879474 88.0916056,945.897475 L88.1465459,945.751027 L220.240499,631.025627 C220.531456,630.332396 221.184062,629.865225 221.924698,629.806017 L222.084653,629.79964 L325.911966,629.803103 C264.105771,552.835282 210.74478,461.761841 210.74478,376.72906 C210.74478,204.10066 339.42858,75.47426 511.99958,75.47426 Z M751.12546,708.19964 L628.507881,708.20649 L627.350075,709.398166 L627.350075,709.398166 L625.040411,711.766316 L625.040411,711.766316 L622.739114,714.114006 L622.739114,714.114006 L619.304003,717.596661 L619.304003,717.596661 L617.025915,719.89217 L617.025915,719.89217 L614.758025,722.166396 L614.758025,722.166396 L612.500857,724.419105 L612.500857,724.419105 L610.254933,726.650062 L610.254933,726.650062 L608.020779,728.859032 C607.649429,729.225349 607.278592,729.590739 606.908278,729.955199 L603.589866,733.210075 L603.589866,733.210075 L601.394155,735.351678 L601.394155,735.351678 L599.212305,737.470356 L599.212305,737.470356 L595.966663,740.604876 L595.966663,740.604876 L593.821754,742.665216 L593.821754,742.665216 L590.633976,745.711129 L590.633976,745.711129 L588.529278,747.711663 L588.529278,747.711663 L585.404269,750.666769 L585.404269,750.666769 L583.343052,752.606033 L583.343052,752.606033 L581.300143,754.520377 L581.300143,754.520377 L579.276064,756.409568 L579.276064,756.409568 L577.271341,758.273371 L577.271341,758.273371 L575.286494,760.111552 L575.286494,760.111552 L572.347639,762.820266 L572.347639,762.820266 L569.456451,765.470009 L569.456451,765.470009 L567.556346,767.203353 L567.556346,767.203353 L564.748527,769.753052 L564.748527,769.753052 L561.993084,772.241669 L561.993084,772.241669 L560.186092,773.866421 L560.186092,773.866421 L556.646388,777.032489 L556.646388,777.032489 L554.058666,779.333109 L554.058666,779.333109 L550.701136,782.300522 L550.701136,782.300522 L546.659196,785.846306 L546.659196,785.846306 L544.319823,787.885178 L544.319823,787.885178 L542.797078,789.207021 L542.797078,789.207021 L539.122956,792.379003 L539.122956,792.379003 L537.012121,794.190075 L537.012121,794.190075 L533.00938,797.60126 L533.00938,797.60126 C526.94738,802.74346 519.47418,805.31246 512.00098,805.31246 C504.52778,805.31246 497.05318,802.74206 490.99118,797.59986 L488.355698,795.357144 L488.355698,795.357144 L484.877943,792.377517 L484.877943,792.377517 L481.954118,789.855117 L481.954118,789.855117 L478.908942,787.211463 L478.908942,787.211463 L476.54794,785.150279 L476.54794,785.150279 L474.122796,783.022737 L474.122796,783.022737 L470.792548,780.084161 L470.792548,780.084161 L467.355595,777.030899 L467.355595,777.030899 L464.710372,774.666821 L464.710372,774.666821 L462.009247,772.24008 L462.009247,772.24008 L459.253985,769.751469 L459.253985,769.751469 L457.387939,768.058414 L457.387939,768.058414 L454.546372,765.468445 L454.546372,765.468445 L451.655376,762.818717 L451.655376,762.818717 L448.716716,760.110023 L448.716716,760.110023 L445.732158,757.343153 L445.732158,757.343153 L443.717826,755.466645 L443.717826,755.466645 L440.660694,752.604577 L440.660694,752.604577 L438.599614,750.665336 L438.599614,750.665336 L435.474813,747.710268 L435.474813,747.710268 L432.311763,744.700457 L432.311763,744.700457 L430.182687,742.663894 L430.182687,742.663894 L428.037919,740.603587 L428.037919,740.603587 L425.877983,738.519771 L425.877983,738.519771 L422.610783,735.35048 L422.610783,735.35048 L419.312396,732.129613 L419.312396,732.129613 L417.097018,729.954106 L417.097018,729.954106 L414.869087,727.756262 C414.496749,727.388107 414.123909,727.01903 413.750578,726.649038 L411.504799,724.41813 L411.504799,724.41813 L409.247775,722.165472 L409.247775,722.165472 L406.980029,719.8913 L406.980029,719.8913 L403.55945,716.440214 L403.55945,716.440214 L401.267188,714.11328 C400.884389,713.723727 400.501219,713.333312 400.11769,712.942039 L397.812287,710.584153 L397.812287,710.584153 L395.498777,708.205925 L395.498777,708.205925 L272.87566,708.19964 L252.996028,755.56164 L341.56442,755.56248 C360.121188,755.56248 375.16442,770.605712 375.16442,789.16248 C375.16442,807.53368 360.420548,822.461264 342.120057,822.757979 L341.56442,822.76248 L224.791028,822.76164 L204.91266,870.12504 L819.08706,870.12504 L799.208028,822.76164 L682.436,822.76248 C663.879232,822.76248 648.836,807.719248 648.836,789.16248 C648.836,770.79128 663.579872,755.863696 681.880363,755.566981 L682.436,755.56248 L771.003028,755.56164 L751.12546,708.19964 Z M511.99958,153.87426 C479.85978,153.87426 449.45458,159.60446 421.62678,170.90806 C395.22138,181.63206 371.82738,197.07406 352.09158,216.80706 C332.35578,236.54146 316.90958,259.93406 306.18278,286.33806 C294.87778,314.16866 289.14478,344.58086 289.14478,376.72906 C289.14478,391.712517 291.823589,408.111892 297.139985,425.779155 L297.741547,427.747395 C298.864304,431.365372 300.096445,435.035732 301.437621,438.757226 L302.179983,440.792195 L302.179983,440.792195 L302.943959,442.83726 L302.943959,442.83726 L303.729537,444.892378 C307.047764,453.476246 310.928209,462.320703 315.36678,471.41106 C320.400258,481.719968 326.1306,492.291642 332.538735,503.097031 L334.029559,505.594718 C342.545641,519.771639 352.21828,534.344406 363.004826,549.248061 L364.919888,551.88154 C365.883192,553.199983 366.855149,554.520973 367.835729,555.844464 L369.808379,558.49477 C370.469756,559.379308 371.134957,560.264945 371.803973,561.151667 L373.822458,563.815077 C375.175734,565.592837 376.544237,567.374886 377.927896,569.161118 L380.014744,571.84359 C381.763243,574.081575 383.53537,576.326014 385.33099,578.5767 L386.41118,579.92786 C391.564076,586.360076 396.782613,592.689133 402.037577,598.902116 L404.667959,601.998874 C415.200548,614.346738 425.859367,626.221692 436.410703,637.520408 L439.046162,640.333022 C439.484987,640.79977 439.923592,641.265503 440.361959,641.730213 L442.989179,644.506139 L442.989179,644.506139 L445.609892,647.257159 C446.04609,647.713566 446.481984,648.168921 446.917555,648.623216 L449.526985,651.336202 L449.526985,651.336202 L452.12788,654.023385 C452.560606,654.469078 452.992943,654.913682 453.424873,655.357188 L456.011442,658.004992 L456.011442,658.004992 L458.587446,660.626095 L458.587446,660.626095 L461.152074,663.220139 L461.152074,663.220139 L463.704514,665.786764 L463.704514,665.786764 L466.243954,668.325612 L466.243954,668.325612 L468.769584,670.836324 C469.189327,671.252411 469.60846,671.667312 470.026967,672.081017 L472.530359,674.548853 L472.530359,674.548853 L475.017911,676.987655 L475.017911,676.987655 L477.488813,679.397066 L477.488813,679.397066 L479.942252,681.776727 L479.942252,681.776727 L482.377416,684.126278 L482.377416,684.126278 L484.793496,686.445361 L484.793496,686.445361 L487.189678,688.733618 L487.189678,688.733618 L489.565151,690.990689 C489.959293,691.364249 490.352537,691.736494 490.744869,692.107418 L493.087758,694.317037 L493.087758,694.317037 L495.407909,696.494575 L495.407909,696.494575 L497.704512,698.639671 L497.704512,698.639671 L499.976754,700.751967 L499.976754,700.751967 L502.223824,702.831104 L502.223824,702.831104 L504.444911,704.876723 L504.444911,704.876723 L506.639203,706.888466 L506.639203,706.888466 L508.805889,708.865974 L508.805889,708.865974 L512.00238,711.76726 L512.00238,711.76726 L514.126131,709.841867 L514.126131,709.841867 L516.278699,707.88171 L516.278699,707.88171 L518.459274,705.887147 L518.459274,705.887147 L520.667043,703.858538 L520.667043,703.858538 L522.901195,701.79624 L522.901195,701.79624 L526.300119,698.640411 L526.300119,698.640411 L528.596681,696.49546 L528.596681,696.49546 L530.916787,694.318074 L530.916787,694.318074 L533.259627,692.108613 L533.259627,692.108613 L535.624388,689.867434 L535.624388,689.867434 L538.010259,687.594896 L538.010259,687.594896 L540.41643,685.291357 L540.41643,685.291357 L542.842089,682.957176 L542.842089,682.957176 L545.286424,680.59271 C545.695325,680.196129 546.10497,679.798301 546.515342,679.399233 L548.986172,676.990014 L548.986172,676.990014 L551.47365,674.551407 C551.889572,674.142543 552.306154,673.73247 552.723379,673.321195 L555.234309,670.839177 C555.654039,670.423124 556.074377,670.005883 556.495308,669.587462 L559.027865,667.062841 C559.451097,666.639731 559.874888,666.215457 560.29922,665.790025 L562.851579,663.223606 C563.27801,662.793575 563.704949,662.362402 564.132378,661.930093 L566.702713,659.322684 L566.702713,659.322684 L569.284017,656.688395 L569.284017,656.688395 L571.87548,654.027585 L571.87548,654.027585 L574.476291,651.340612 L574.476291,651.340612 L577.085637,648.627836 C577.521195,648.173576 577.957074,647.718255 578.393258,647.261883 L581.013889,644.511071 L581.013889,644.511071 L583.641027,641.735352 L583.641027,641.735352 L586.273862,638.935082 C586.713098,638.466345 587.152537,637.996599 587.592163,637.525853 L590.232022,634.689431 C591.552937,633.265276 592.875228,631.832251 594.198438,630.390558 L596.845948,627.495672 C599.494415,624.589348 602.145342,621.648886 604.79508,618.675901 L607.444286,615.692133 C617.597021,604.213257 627.714396,592.264352 637.59078,579.93626 C638.673738,578.584404 639.748248,577.234781 640.814281,575.887437 L642.935036,573.1958 L642.935036,573.1958 L645.033134,570.510319 L645.033134,570.510319 L647.108522,567.831071 L647.108522,567.831071 L649.16115,565.158137 C649.501355,564.713178 649.84061,564.268486 650.178913,563.824062 L652.197301,561.160746 C653.869762,558.944018 655.518377,556.734073 657.143012,554.531116 L659.081055,551.890935 C661.328657,548.814668 663.529151,545.752261 665.682166,542.704277 L667.515972,540.095265 C674.500924,530.107696 680.972155,520.277592 686.916492,510.625008 L688.455228,508.110983 C689.981994,505.601011 691.472825,503.103238 692.927488,500.618021 L694.370086,498.137002 C699.615342,489.055375 704.373284,480.144145 708.63238,471.42086 C710.230394,468.148203 711.756064,464.907391 713.209198,461.69911 L714.167206,459.565083 C715.114465,457.435891 716.029466,455.321225 716.912155,453.221289 L717.784072,451.12627 L717.784072,451.12627 L718.634434,449.041116 C719.194154,447.654311 719.739497,446.274114 720.270445,444.900583 L721.056069,442.845295 L721.056069,442.845295 L721.820089,440.800052 C730.482045,417.337701 734.85578,395.877131 734.85578,376.72766 C734.85578,344.57526 729.12418,314.16166 717.82198,286.32966 C707.09798,259.92706 691.65598,236.53446 671.92578,216.80426 C652.19418,197.07266 628.80158,181.63066 602.39758,170.90806 C574.56698,159.60586 544.15198,153.87426 511.99958,153.87426 Z M518.59694,281.13482 C558.50114,284.27642 590.65914,316.36722 593.88614,356.26442 C597.79074,404.53502 559.49794,445.19662 512.00014,445.19662 C466.73674,445.19662 429.83974,408.27722 429.83974,363.03482 C429.83974,315.59302 470.37814,277.33802 518.59694,281.13482 Z" id="Shape" fill="#5C8EB4"></path>
            </g>
        </g>
    </g>
</svg>