<?xml version="1.0" encoding="UTF-8"?>
<svg width="1024px" height="1024px" viewBox="0 0 1024 1024" version="1.1" xmlns="http://www.w3.org/2000/svg" xmlns:xlink="http://www.w3.org/1999/xlink">
    <title>ic_dnd-ic_group</title>
    <g id="切圖" stroke="none" stroke-width="1" fill="none" fill-rule="evenodd">
        <g id="Antd-custom-Icon-Copy-4" fill-rule="nonzero">
            <g id="ic_dnd-ic_group">
                <rect id="bg" fill-opacity="0" fill="#FFFFFF" opacity="0" x="64" y="64" width="896" height="896"></rect>
                <path d="M909.6818,518.1236 C910.736162,518.1236 911.599965,518.939478 911.676314,519.974338 L911.6818,520.1236 L911.6818,907.2542 C911.6818,908.308562 910.865922,909.172365 909.831062,909.248714 L909.6818,909.2542 L479.5922,909.2542 C478.537838,909.2542 477.674035,908.438322 477.597686,907.403462 L477.5922,907.2542 L477.5922,520.1236 C477.5922,519.069238 478.408078,518.205435 479.442938,518.129086 L479.5922,518.1236 L909.6818,518.1236 Z M400.915042,794.47198 C419.471809,794.47198 434.515042,809.515212 434.515042,828.07198 C434.515042,846.44318 419.77117,861.370764 401.470679,861.667479 L400.915042,861.67198 L324.872639,861.67198 C306.315872,861.67198 291.272639,846.628748 291.272639,828.07198 C291.272639,809.70078 306.016511,794.773196 324.317002,794.476481 L324.872639,794.47198 L400.915042,794.47198 Z M149.88356,755.27198 C168.25476,755.27198 183.182344,770.015852 183.479059,788.316343 L183.48356,788.87198 L183.4844,794.471 L189.08356,794.47198 C207.45476,794.47198 222.382344,809.215852 222.679059,827.516343 L222.68356,828.07198 C222.68356,846.44318 207.939688,861.370764 189.639197,861.667479 L189.08356,861.67198 L149.88356,861.67198 C131.51236,861.67198 116.584776,846.928108 116.288061,828.627617 L116.28356,828.07198 L116.28356,788.87198 C116.28356,770.315212 131.326792,755.27198 149.88356,755.27198 Z M844.4818,585.3236 L544.7922,585.3236 L544.7922,842.0542 L844.4818,842.0542 L844.4818,585.3236 Z M417.4684,513.9236 C418.522762,513.9236 419.386565,514.739478 419.462914,515.774338 L419.4684,515.9236 L419.4684,742.4168 C419.4684,743.471162 418.652522,744.334965 417.617662,744.411314 L417.4684,744.4168 L235.61,744.4168 C234.555638,744.4168 233.691835,743.600922 233.615486,742.566062 L233.61,742.4168 L233.61,515.9236 C233.61,514.869238 234.425878,514.005435 235.460738,513.929086 L235.61,513.9236 L417.4684,513.9236 Z M149.88356,529.997279 C168.25476,529.997279 183.182344,544.741151 183.479059,563.041642 L183.48356,563.597279 L183.48356,644.46548 C183.48356,663.022248 168.440328,678.06548 149.88356,678.06548 C131.51236,678.06548 116.584776,663.321608 116.288061,645.021117 L116.28356,644.46548 L116.28356,563.597279 C116.28356,545.040512 131.326792,529.997279 149.88356,529.997279 Z M352.2684,581.1236 L300.81,581.1236 L300.81,677.2168 L352.2684,677.2168 L352.2684,581.1236 Z M702.0086,238.3742 C703.062962,238.3742 703.926765,239.190078 704.003114,240.224938 L704.0086,240.3742 L704.0086,466.866 C704.0086,467.920362 703.192722,468.784165 702.157862,468.860514 L702.0086,468.866 L235.61,468.866 C234.555638,468.866 233.691835,468.050122 233.615486,467.015262 L233.61,466.866 L233.61,240.3742 C233.61,239.319838 234.425878,238.456035 235.460738,238.379686 L235.61,238.3742 L702.0086,238.3742 Z M787.73532,304.72356 C806.10652,304.72356 821.034104,319.467432 821.330819,337.767923 L821.33532,338.32356 L821.33532,419.191761 C821.33532,437.748528 806.292088,452.791761 787.73532,452.791761 C769.36412,452.791761 754.436536,438.047889 754.139821,419.747398 L754.13532,419.191761 L754.13532,338.32356 C754.13532,319.766792 769.178552,304.72356 787.73532,304.72356 Z M149.88356,304.721875 C168.25476,304.721875 183.182344,319.465747 183.479059,337.766238 L183.48356,338.321875 L183.48356,419.190076 C183.48356,437.746843 168.440328,452.790076 149.88356,452.790076 C131.51236,452.790076 116.584776,438.046204 116.288061,419.745713 L116.28356,419.190076 L116.28356,338.321875 C116.28356,319.765107 131.326792,304.721875 149.88356,304.721875 Z M636.81,305.5728 L300.81,305.5728 L300.81,401.666 L636.81,401.666 L636.81,305.5728 Z M787.73532,121.11706 C806.10652,121.11706 821.034104,135.860932 821.330819,154.161423 L821.33532,154.71706 L821.33532,193.91706 C821.33532,212.473828 806.292088,227.51706 787.73532,227.51706 C769.36412,227.51706 754.436536,212.773188 754.139821,194.472697 L754.13532,193.91706 L754.1356,188.3158 L748.53532,188.31706 C730.16412,188.31706 715.236536,173.573188 714.939821,155.272697 L714.93532,154.71706 C714.93532,136.34586 729.679192,121.418276 747.979683,121.121561 L748.53532,121.11706 L787.73532,121.11706 Z M189.08356,121.11706 C207.640328,121.11706 222.68356,136.160292 222.68356,154.71706 C222.68356,173.08826 207.939688,188.015844 189.639197,188.312559 L189.08356,188.31706 L183.4844,188.3158 L183.48356,193.91706 C183.48356,212.28826 168.739688,227.215844 150.439197,227.512559 L149.88356,227.51706 C131.51236,227.51706 116.584776,212.773188 116.288061,194.472697 L116.28356,193.91706 L116.28356,154.71706 C116.28356,136.34586 131.027432,121.418276 149.327923,121.121561 L149.88356,121.11706 L189.08356,121.11706 Z M400.915043,121.11706 C419.47181,121.11706 434.515043,136.160292 434.515043,154.71706 C434.515043,173.08826 419.771171,188.015844 401.47068,188.312559 L400.915043,188.31706 L324.87264,188.31706 C306.315872,188.31706 291.27264,173.273828 291.27264,154.71706 C291.27264,136.34586 306.016512,121.418276 324.317003,121.121561 L324.87264,121.11706 L400.915043,121.11706 Z M612.746241,121.11706 C631.303008,121.11706 646.346241,136.160292 646.346241,154.71706 C646.346241,173.08826 631.602369,188.015844 613.301878,188.312559 L612.746241,188.31706 L536.703838,188.31706 C518.147071,188.31706 503.103838,173.273828 503.103838,154.71706 C503.103838,136.34586 517.84771,121.418276 536.148201,121.121561 L536.703838,121.11706 L612.746241,121.11706 Z" id="Shape" fill="#5C8EB4"></path>
            </g>
        </g>
    </g>
</svg>