<?xml version="1.0" encoding="UTF-8"?>
<svg width="1024px" height="1024px" viewBox="0 0 1024 1024" version="1.1" xmlns="http://www.w3.org/2000/svg" xmlns:xlink="http://www.w3.org/1999/xlink">
    <title>ic_dnd-ic_Iframe</title>
    <g id="切圖" stroke="none" stroke-width="1" fill="none" fill-rule="evenodd">
        <g id="ic_dnd-ic_Iframe">
            <rect id="bg" fill-opacity="0" fill="#FFFFFF" fill-rule="nonzero" opacity="0" x="64" y="64" width="896" height="896"></rect>
            <path d="M886.2718,104.6 C916.891312,104.6 941.76979,129.173655 942.2718,159.673954 L942.2718,160.6 L942.2718,864.5032 C942.2718,895.121326 917.699517,920.001163 887.197888,920.5032 L886.2718,920.5032 L138.2,920.5032 C107.580488,920.5032 82.7020098,895.929545 82.2,865.429246 L82.2,864.5032 L82.2,160.6 C82.2,129.981874 106.772283,105.102037 137.273912,104.6 L138.2,104.6 L886.2718,104.6 Z M863.8718,389.957 L160.599,389.957 L160.599,842.1032 L863.8718,842.1032 L863.8718,389.957 Z M552.404664,438.349728 C570.329166,442.376293 581.66225,460.033465 577.940683,477.95401 L577.823292,478.497124 L512.213692,770.562324 C508.146455,788.667881 490.171853,800.048189 472.066296,795.980952 C454.141794,791.954387 442.80871,774.297215 446.530277,756.37667 L446.647668,755.833556 L512.257268,463.768356 C516.324505,445.662799 534.299107,434.282491 552.404664,438.349728 Z M390.8074,459.267646 C404.392679,471.628959 405.5134,492.574332 393.424529,506.309944 L393.046434,506.73244 L292.56344,617.16534 L393.046316,727.597549 C405.4077,741.182763 404.55185,762.14063 391.223717,774.677325 L390.807531,775.062356 C377.222317,787.42374 356.26445,786.56789 343.727755,773.239757 L343.342724,772.823571 L222.283324,639.778771 C210.7487,627.102169 210.620487,607.806424 221.898721,594.982671 L222.283206,594.55288 L343.342606,461.50668 C355.831355,447.781346 377.082067,446.778897 390.8074,459.267646 Z M680.743606,461.090491 L681.128634,461.50668 L802.188034,594.55288 C813.722592,607.229542 813.850704,626.525287 802.572403,639.348981 L802.187916,639.778771 L681.128516,772.823571 C668.639695,786.548838 647.388977,787.551177 633.663709,775.062356 C620.078495,762.700972 618.957884,741.755593 631.046827,728.020044 L631.424924,727.597549 L731.90864,617.16534 L631.424806,506.73244 C619.063493,493.147162 619.919453,472.189299 633.247651,459.652674 L633.66384,459.267646 C647.249118,446.906333 668.206981,447.762293 680.743606,461.090491 Z M863.8718,183 L160.599,183 L160.599,322.757 L863.8718,322.757 L863.8718,183 Z M274.0651,218.6377 C292.6221,218.6377 307.6651,233.6807 307.6651,252.2377 C307.6651,270.7947 292.6221,285.8377 274.0651,285.8377 C255.5081,285.8377 240.4651,270.7947 240.4651,252.2377 C240.4651,233.6807 255.5081,218.6377 274.0651,218.6377 Z" id="Shape" fill="#5C8EB4"></path>
        </g>
    </g>
</svg>