<?xml version="1.0" encoding="UTF-8"?>
<svg width="1024px" height="1024px" viewBox="0 0 1024 1024" version="1.1" xmlns="http://www.w3.org/2000/svg" xmlns:xlink="http://www.w3.org/1999/xlink">
    <title>ic_dnd-ic_Image</title>
    <g id="切圖" stroke="none" stroke-width="1" fill="none" fill-rule="evenodd">
        <g id="ic_dnd-ic_Image">
            <rect id="bg" fill-opacity="0" fill="#FFFFFF" fill-rule="nonzero" opacity="0" x="64" y="64" width="896" height="896"></rect>
            <path d="M859.19958,108.80014 C889.819092,108.80014 914.69757,133.373795 915.19958,163.874094 L915.19958,164.80014 L915.19958,859.20014 C915.19958,889.818266 890.627297,914.698103 860.125668,915.20014 L859.19958,915.20014 L164.79958,915.20014 C134.181454,915.20014 109.301617,890.626485 108.79958,860.126186 L108.79958,859.20014 L108.79958,164.80014 C108.79958,134.182014 133.373235,109.302177 163.873534,108.80014 L164.79958,108.80014 L859.19958,108.80014 Z M688.9334,543.4188 L523.357018,695.604967 C502.107509,715.135816 470.075956,718.446034 445.09563,704.097757 L444.340827,703.657554 L327.893,634.7044 L187.19958,767.91214 L187.19958,836.80014 L836.79958,836.80014 L836.79958,642.18114 L688.9334,543.4188 Z M836.79958,187.20014 L187.19958,187.20014 L187.19958,659.94814 L280.62207,571.497856 C301.83087,551.418173 334.292856,547.837309 359.567028,562.352685 L360.330693,562.798086 L476.8964,631.8218 L642.84195,479.297926 C665.036693,458.900064 698.854724,456.277762 724.096628,472.633546 L724.858888,473.134986 L836.79958,547.90114 L836.79958,187.20014 Z M415.5099,252.89304 C487.378862,252.89304 545.6399,311.154078 545.6399,383.02304 C545.6399,454.892002 487.378862,513.15304 415.5099,513.15304 C343.642028,513.15304 285.3813,454.891692 285.3813,383.02304 C285.3813,311.154388 343.642028,252.89304 415.5099,252.89304 Z M415.5099,331.29304 C386.941339,331.29304 363.7813,354.453325 363.7813,383.02304 C363.7813,411.592755 386.941339,434.75304 415.5099,434.75304 C444.079738,434.75304 467.2399,411.592878 467.2399,383.02304 C467.2399,354.453202 444.079738,331.29304 415.5099,331.29304 Z" id="Shape" fill="#5C8EB4"></path>
        </g>
    </g>
</svg>