<?xml version="1.0" encoding="UTF-8"?>
<svg width="1024px" height="1024px" viewBox="0 0 1024 1024" version="1.1" xmlns="http://www.w3.org/2000/svg" xmlns:xlink="http://www.w3.org/1999/xlink">
    <title>ic_dnd-ic_imageText</title>
    <g id="切圖" stroke="none" stroke-width="1" fill="none" fill-rule="evenodd">
        <g id="圖文" transform="translate(0.000000, -2048.000000)" fill-rule="nonzero">
            <g id="ic_dnd-ic_imageText" transform="translate(0.000000, 2048.000000)">
                <rect id="bg" fill-opacity="0" fill="#FFFFFF" opacity="0" x="64" y="64" width="896" height="896"></rect>
                <path d="M883.60032,276.22446 C905.033387,276.22446 922.448901,293.425644 922.80032,314.776216 L922.80032,880.05566 C922.80032,901.488727 905.599136,918.904241 884.248564,919.25566 L318.96772,919.25566 C297.534653,919.25566 280.119139,902.054476 279.76772,880.703904 L279.76772,625.74006 C279.76772,604.090498 297.318158,586.54006 318.96772,586.54006 C340.400787,586.54006 357.816301,603.741244 358.162468,625.091816 L358.16772,625.74006 L358.16752,655.15014 L414.660448,588.021579 C434.257976,564.732907 467.650503,560.133871 492.408943,577.947818 L493.156532,578.494499 L572.4842,637.4498 L692.23811,499.303128 C712.853466,475.521945 747.694997,472.155463 772.138943,491.996738 L772.876461,492.605096 L844.40052,552.56214 L844.4006,354.6246 L609.87652,354.62446 C588.443453,354.62446 571.027939,337.423276 570.681772,316.072704 L570.67652,315.42446 C570.67652,293.991393 587.877704,276.575879 609.228276,276.22446 L883.60032,276.22446 Z M738.268,565.8958 L619.282864,703.153101 C599.565423,725.900792 566.572303,730.158511 542.103592,712.542731 L541.364748,712.002221 L462.265,653.2166 L358.16752,776.91114 L358.16752,840.8558 L844.4006,840.8558 L844.4006,654.86514 L738.268,565.8958 Z M553.81436,423.72314 C584.77676,423.72314 609.87596,448.82374 609.87596,479.78614 C609.87596,510.74854 584.77676,535.84914 553.81436,535.84914 C522.85196,535.84914 497.75136,510.74854 497.75136,479.78614 C497.75136,448.82374 522.85196,423.72314 553.81436,423.72314 Z M390.039,443.38586 C411.6886,443.38586 429.239,460.93626 429.239,482.58586 C429.239,504.23546 411.6886,521.78586 390.039,521.78586 L152.1678,521.78586 C130.5182,521.78586 112.9678,504.23546 112.9678,482.58586 C112.9678,460.93626 130.5182,443.38586 152.1678,443.38586 L390.039,443.38586 Z M476.96822,277.49286 C498.401324,277.49286 515.816802,294.694007 516.162968,316.044615 L516.16822,316.69286 C516.16822,338.34246 498.61782,355.89286 476.96822,355.89286 L152.16822,355.89286 C130.735116,355.89286 113.319638,338.691713 112.973472,317.341105 L112.96822,316.69286 C112.96822,295.04326 130.51862,277.49286 152.16822,277.49286 L476.96822,277.49286 Z M569.01612,111.60014 C590.449224,111.60014 607.864702,128.801287 608.210868,150.151895 L608.21612,150.80014 C608.21612,172.44974 590.66572,190.00014 569.01612,190.00014 L152.16752,190.00014 C130.734416,190.00014 113.318938,172.798993 112.972772,151.448385 L112.96752,150.80014 C112.96752,129.15054 130.51792,111.60014 152.16752,111.60014 L569.01612,111.60014 Z" id="Shape" fill="#5C8EB4"></path>
            </g>
        </g>
    </g>
</svg>