<?xml version="1.0" encoding="UTF-8"?>
<svg width="1024px" height="1024px" viewBox="0 0 1024 1024" version="1.1" xmlns="http://www.w3.org/2000/svg" xmlns:xlink="http://www.w3.org/1999/xlink">
    <title>ic_dnd-ic_LandingPage</title>
    <g id="切圖" stroke="none" stroke-width="1" fill="none" fill-rule="evenodd">
        <g id="Antd-custom-Icon-Copy-3" fill-rule="nonzero">
            <g id="ic_dnd-ic_LandingPage">
                <rect id="bg" fill-opacity="0" fill="#FFFFFF" opacity="0" x="64" y="64" width="896" height="896"></rect>
                <path d="M780.00606,70.83228 C814.295547,70.83228 841.06601,99.4175728 841.59799,133.678555 L841.60606,134.71848 L841.60606,833.40808 C841.60606,897.674986 783.496832,953.16828 722.45346,953.16828 L245.30826,953.16828 C181.558204,953.16828 128.252705,906.456828 126.458595,846.242664 L126.417534,844.211763 L126.39366,743.688014 L126.39366,743.688014 L126.39366,743.538752 C126.471677,742.555636 127.254887,741.770169 128.23701,741.694461 L128.39366,741.68848 L205.63029,741.68828 L205.63086,134.71848 C205.63086,100.345175 232.058428,71.4161493 266.194105,70.83228 L780.00606,70.83228 Z M613.3614,808.8896 L193.605,808.8896 L193.6176,843.6418 L193.629875,844.258843 C194.32742,866.136641 215.609737,885.191698 243.587112,885.945149 L244.436946,885.962363 L245.30826,885.96828 L623.3434,885.96828 L622.782182,884.706463 C616.950434,871.346279 613.653266,857.153804 613.379769,843.289608 L613.36602,842.365827 L613.36126,841.41748 L613.3614,808.8896 Z M774.4062,138.0334 L272.83029,138.0334 L272.83029,741.68828 L678.56126,741.68848 C679.615622,741.68848 680.479425,742.504358 680.555774,743.539218 L680.56126,743.68848 L680.56126,841.41748 C680.56126,850.741266 685.167995,862.488027 692.985473,871.510687 C700.980761,880.73857 710.929467,885.803341 721.912482,885.96828 L722.45346,885.96828 C746.812002,885.96828 773.859374,860.371133 774.397886,834.201256 L774.4062,833.40808 L774.4062,138.0334 Z M570.723,602.83606 C588.594,602.83606 603.0798,617.32326 603.0798,635.19286 C603.0798,653.06246 588.594,667.54826 570.723,667.54826 C552.8534,667.54826 538.3676,653.06246 538.3676,635.19286 C538.3676,617.32326 552.8534,602.83606 570.723,602.83606 Z M421.65646,602.83606 C439.52746,602.83606 454.01326,617.32326 454.01326,635.19286 C454.01326,653.06246 439.52746,667.54826 421.65646,667.54826 C403.78686,667.54826 389.30106,653.06246 389.30106,635.19286 C389.30106,617.32326 403.78686,602.83606 421.65646,602.83606 Z M699.3816,269.08908 C716.39197,269.08908 730.1816,282.87871 730.1816,299.88908 C730.1816,316.729347 716.666384,330.412965 699.890934,330.684954 L699.3816,330.68908 L676.5546,330.6902 L633.961354,528.777151 C627.874581,557.080351 601.065116,575.838893 571.287444,576.211234 L570.3842,576.21688 L418.0418,576.21688 C386.586209,576.21688 358.427558,555.679632 353.868429,525.525198 L353.737518,524.608495 L340.038755,422.768656 C335.138872,386.357667 366.204498,357.363073 403.219348,356.786822 L404.3428,356.77808 L607.9378,356.7792 L616.590198,316.531823 C622.612492,288.514809 641.842177,269.47285 672.243335,269.094813 L673.168,269.08908 L699.3816,269.08908 Z M404.3428,418.37808 C403.448862,418.37808 402.6511,418.477819 401.97639,418.634545 L401.6492,418.718 L414.4578,513.9446 L414.475402,513.952863 C415.282934,514.306535 416.381955,514.565941 417.654837,514.610183 L418.0418,514.61688 L570.3842,514.61688 C571.889393,514.61688 573.194843,514.310971 574.107433,513.877362 L574.1642,513.8494 L594.6924,418.3792 L404.3428,418.37808 Z" id="Shape" fill="#5C8EB4"></path>
            </g>
        </g>
    </g>
</svg>