<?xml version="1.0" encoding="UTF-8"?>
<svg width="1024px" height="1024px" viewBox="0 0 1024 1024" version="1.1" xmlns="http://www.w3.org/2000/svg" xmlns:xlink="http://www.w3.org/1999/xlink">
    <title>ic_dnd-ic_menu</title>
    <g id="切圖" stroke="none" stroke-width="1" fill="none" fill-rule="evenodd">
        <g id="ic_dnd-ic_menu">
            <rect id="bg" fill-opacity="0" fill="#FFFFFF" fill-rule="nonzero" opacity="0" x="64" y="64" width="896" height="896"></rect>
            <path d="M204,727.27044 C234.9274,727.27044 260,752.34304 260,783.27044 C260,814.19784 234.9274,839.27044 204,839.27044 C173.0712,839.27044 148,814.19784 148,783.27044 C148,752.34304 173.0712,727.27044 204,727.27044 Z M832.13786,732.87044 C862.26446,732.87044 886.68746,755.43564 886.68746,783.27044 C886.68746,811.10524 862.26446,833.67044 832.13786,833.67044 L370.93866,833.67044 C340.81206,833.67044 316.39046,811.10524 316.39046,783.27044 C316.39046,755.43564 340.81206,732.87044 370.93866,732.87044 L832.13786,732.87044 Z M204,465.63522 C234.9274,465.63522 260,490.70782 260,521.63522 C260,552.56262 234.9274,577.63522 204,577.63522 C173.0712,577.63522 148,552.56262 148,521.63522 C148,490.70782 173.0712,465.63522 204,465.63522 Z M832.13786,471.23522 C862.26446,471.23522 886.68746,493.80042 886.68746,521.63522 C886.68746,549.47002 862.26446,572.03522 832.13786,572.03522 L370.93866,572.03522 C340.81206,572.03522 316.39046,549.47002 316.39046,521.63522 C316.39046,493.80042 340.81206,471.23522 370.93866,471.23522 L832.13786,471.23522 Z M204,204 C234.9274,204 260,229.0726 260,260 C260,290.9274 234.9274,316 204,316 C173.0712,316 148,290.9274 148,260 C148,229.0726 173.0712,204 204,204 Z M832.13786,209.6 C862.26446,209.6 886.68746,232.1652 886.68746,260 C886.68746,287.8348 862.26446,310.4 832.13786,310.4 L370.93866,310.4 C340.81206,310.4 316.39046,287.8348 316.39046,260 C316.39046,232.1652 340.81206,209.6 370.93866,209.6 L832.13786,209.6 Z" id="Shape" fill="#5C8EB4"></path>
        </g>
    </g>
</svg>