<?xml version="1.0" encoding="UTF-8"?>
<svg width="1024px" height="1024px" viewBox="0 0 1024 1024" version="1.1" xmlns="http://www.w3.org/2000/svg" xmlns:xlink="http://www.w3.org/1999/xlink">
    <title>ic_dnd-icon_element</title>
    <g id="切圖" stroke="none" stroke-width="1" fill="none" fill-rule="evenodd">
        <g id="Antd-custom-Icon-Copy-14" transform="translate(0.000000, 1.000000)">
            <g id="Group-17" transform="translate(0.000000, -1.000000)">
                <rect id="bg" fill-opacity="0" fill="#FFFFFF" fill-rule="nonzero" opacity="0" x="64" y="65" width="896" height="896"></rect>
                <path d="M697.33187,858.48102 C712.795843,858.48102 725.33187,871.017047 725.33187,886.48102 C725.33187,901.790353 713.04531,914.230006 697.794901,914.477268 L697.33187,914.48102 L610.30387,914.48102 C594.839897,914.48102 582.30387,901.944993 582.30387,886.48102 C582.30387,871.171686 594.59043,858.732033 609.840839,858.484771 L610.30387,858.48102 L697.33187,858.48102 Z M884.959831,786.035779 C900.269164,786.035779 912.708818,798.322339 912.95608,813.572748 L912.959831,814.035779 L912.959831,885.959831 C912.959831,901.269164 900.673271,913.708818 885.422862,913.95608 L884.959831,913.959831 L813.035779,913.959831 C797.571806,913.959831 785.035779,901.423804 785.035779,885.959831 C785.035779,870.650498 797.322339,858.210844 812.572748,857.963582 L813.035779,857.959831 L856.959,857.959 L856.959831,814.035779 C856.959831,798.726446 869.246391,786.286793 884.4968,786.03953 L884.959831,786.035779 Z M395.042378,786.035779 C410.351711,786.035779 422.791364,798.322339 423.038626,813.572748 L423.042378,814.035779 L423.042,857.959 L466.966429,857.959831 C482.275762,857.959831 494.715416,870.246391 494.962678,885.4968 L494.966429,885.959831 C494.966429,901.269164 482.679869,913.708818 467.42946,913.95608 L466.966429,913.959831 L395.042378,913.959831 C379.733044,913.959831 367.293391,901.673271 367.046129,886.422862 L367.042378,885.959831 L367.042378,814.035779 C367.042378,798.571806 379.578405,786.035779 395.042378,786.035779 Z M640,117 C657.496381,117 671.713128,131.041783 671.995713,148.470821 L672,149 L672.000779,367.614496 C686.387722,368.785464 697.698338,380.832458 697.698338,395.521189 C697.698338,410.209966 686.38765,422.25699 672.000643,423.427892 L672,447.62 L815.854414,551.08266 C821.709189,555.293496 825.965746,561.355335 827.941821,568.280657 L828.079082,568.776778 C832.608817,585.676626 822.726436,603.044012 805.964795,607.829263 L805.454769,607.970406 L719.046156,631.13086 L761.024613,703.837794 L761.285981,704.298351 C769.671076,719.381281 764.569047,738.41757 749.763724,747.284849 L749.312111,747.550427 L673.101877,791.550427 C657.949509,800.298238 638.61671,795.246225 629.657066,780.29392 L629.388752,779.837794 L587.473794,707.240845 L523.835778,770.468423 C518.585227,775.685111 511.688667,778.920398 504.320624,779.623294 C486.903319,781.284871 471.417322,768.656671 469.480832,751.33324 L469.42631,750.806861 L462.003,673 L422.521,673 L422.521189,698.33187 C422.521189,713.795843 409.985162,726.33187 394.521189,726.33187 C379.211856,726.33187 366.772202,714.04531 366.52494,698.794901 L366.521189,698.33187 L366.521,673 L148,673 C130.503619,673 116.286872,658.958217 116,641.529179 L116,641 L116,149 C116,131.503619 130.041783,117.286872 147.470821,117 L148,117 L640,117 Z M520.355407,694.986556 L599.603717,616.250487 L665.886151,731.053198 L700.527167,711.053198 L634.061733,595.933522 L742.057911,566.986556 L490.913,386.359586 L520.355407,694.986556 Z M885.48102,555.670338 C900.790353,555.670338 913.230006,567.956898 913.477268,583.207307 L913.48102,583.670338 L913.48102,670.698338 C913.48102,686.162311 900.944993,698.698338 885.48102,698.698338 C870.171686,698.698338 857.732033,686.411778 857.484771,671.161369 L857.48102,670.698338 L857.48102,583.670338 C857.48102,568.206365 870.017047,555.670338 885.48102,555.670338 Z M608,401.59 L608,181 L180,181 L180,609 L455.898,609 L430.144687,339.041338 C429.425534,331.502894 431.40344,323.959686 435.716583,317.749205 L436.021285,317.318095 C446.23715,303.11389 465.937723,299.770991 480.252254,309.718123 L480.684364,310.023622 L608,401.59 Z M884.959831,368.042378 C900.269164,368.042378 912.708818,380.328938 912.95608,395.579346 L912.959831,396.042378 L912.959831,467.966429 C912.959831,483.430402 900.423804,495.966429 884.959831,495.966429 C869.650498,495.966429 857.210844,483.679869 856.963582,468.42946 L856.959831,467.966429 L856.959,424.042 L813.035779,424.042378 C797.726446,424.042378 785.286793,411.755817 785.03953,396.505409 L785.035779,396.042378 C785.035779,380.733044 797.322339,368.293391 812.572748,368.046129 L813.035779,368.042378 L884.959831,368.042378 Z" id="Shape" fill="#595959"></path>
            </g>
        </g>
    </g>
</svg>