<?xml version="1.0" encoding="UTF-8"?>
<svg width="1024px" height="1024px" viewBox="0 0 1024 1024" version="1.1" xmlns="http://www.w3.org/2000/svg" xmlns:xlink="http://www.w3.org/1999/xlink">
    <title>ic_open-new-page</title>
    <g id="切圖" stroke="none" stroke-width="1" fill="none" fill-rule="evenodd">
        <g id="slice" transform="translate(0.000000, -53.000000)" fill-rule="nonzero">
            <g id="ic_open-new-page" transform="translate(0.000000, 53.000000)">
                <rect id="bg" fill-opacity="0" fill="#FFFFFF" opacity="0" x="64" y="64" width="896" height="896"></rect>
                <path d="M880,912 L144,912 C126.3,912 112,897.7 112,880 L112,144 C112,126.3 126.3,112 144,112 L504,112 C508.4,112 512,115.6 512,120 L512,176 C512,180.4 508.4,184 504,184 L184,184 L184,840 L840,840 L840,520 C840,515.6 843.6,512 848,512 L904,512 C908.4,512 912,515.6 912,520 L912,880 C912,897.7 897.7,912 880,912 Z M770.870033,199.131056 L718.670033,146.931056 C713.970033,142.231056 716.770033,134.131056 723.370033,133.331056 L902.770033,112.331056 C907.870033,111.731056 912.270033,116.031056 911.670033,121.231056 L890.670033,300.631056 C889.870033,307.231056 881.770033,310.031056 877.070033,305.331056 L824.670033,252.931056 L568.470033,509.131056 C565.370033,512.231056 560.270033,512.231056 557.170033,509.131056 L514.770033,466.731056 C511.670033,463.631056 511.670033,458.531056 514.770033,455.431056 L770.870033,199.131056 Z" id="Shape" fill="#000000"></path>
            </g>
        </g>
    </g>
</svg>