<?xml version="1.0" encoding="UTF-8"?>
<svg width="1024px" height="1024px" viewBox="0 0 1024 1024" version="1.1" xmlns="http://www.w3.org/2000/svg" xmlns:xlink="http://www.w3.org/1999/xlink">
    <title>ic_dnd-ic_ProductDraftText</title>
    <g id="切圖" stroke="none" stroke-width="1" fill="none" fill-rule="evenodd">
        <g id="商品" transform="translate(0.000000, -6144.000000)" fill-rule="nonzero">
            <g id="ic_dnd-ic_ProductDraftText" transform="translate(0.000000, 6144.000000)">
                <rect id="bg" fill-opacity="0" fill="#FFFFFF" opacity="0" x="64" y="64" width="896" height="896"></rect>
                <path d="M890.18662,541.06246 C923.867576,541.06246 951.234399,568.092474 951.778367,601.643779 L951.78662,602.66246 L951.78662,649.66466 C951.78662,675.116432 936.351376,696.962576 914.33081,706.35317 L914.33018,874.01466 C914.33018,914.463115 880.404507,946.243516 839.510886,946.875079 L838.26958,946.88466 L625.96658,946.88466 C584.934943,946.88466 550.598953,915.508744 549.916337,875.237694 L549.90598,874.01466 L549.90563,706.35317 C528.10527,697.056482 512.759183,675.55211 512.454442,650.427123 L512.44982,649.66466 L512.44982,602.66246 C512.44982,568.981504 539.479834,541.614681 573.031139,541.070713 L574.04982,541.06246 L890.18662,541.06246 Z M847.13018,711.26392 L617.10584,711.26392 L617.10584,874.01466 C617.10584,876.471618 620.343838,879.527552 625.56135,879.678813 L625.96658,879.68466 L838.26958,879.68466 C843.587785,879.68466 846.958598,876.69015 847.123815,874.204779 L847.13018,874.01466 L847.13018,711.26392 Z M656.05944,81.47592 C707.475266,81.47592 749.253028,122.741504 750.083442,173.958865 L750.09604,175.51392 L750.09604,452.88892 C750.09604,471.445688 735.052808,486.48892 716.49604,486.48892 C698.12484,486.48892 683.197256,471.745048 682.900541,453.444557 L682.89604,452.88892 L682.89604,175.51392 C682.89604,160.85155 671.137373,148.934658 656.53655,148.680077 L656.05944,148.67592 L184.07184,148.67592 C169.409782,148.67592 157.492585,160.435648 157.237997,175.0368 L157.23384,175.51392 L157.23384,723.04832 C157.23384,737.711763 168.992198,749.627605 183.594676,749.882164 L184.07184,749.88632 L451.26884,749.88632 C469.825608,749.88632 484.86884,764.929552 484.86884,783.48632 C484.86884,801.85752 470.124968,816.785104 451.824477,817.08632 L184.07184,817.08632 C132.655269,817.08632 90.8768648,775.822742 90.0464384,724.603435 L90.03384,723.04832 L90.03384,175.51392 C90.03384,124.098735 131.29879,82.3189725 182.516766,81.4885188 L184.07184,81.47592 L656.05944,81.47592 Z M414.09744,581.56642 C432.654208,581.56642 447.69744,596.609652 447.69744,615.16642 C447.69744,633.53762 432.953568,648.465204 414.653077,648.761919 L414.09744,648.76642 L274.67704,648.76642 C256.120272,648.76642 241.07704,633.723188 241.07704,615.16642 C241.07704,596.79522 255.820912,581.867636 274.121403,581.570921 L274.67704,581.56642 L414.09744,581.56642 Z M884.5862,608.2612 L579.6494,608.2612 L579.6494,644.0634 L884.5862,644.0634 L884.5862,608.2612 Z M281.753783,231.143641 L282.30942,231.13914 L565.48602,231.13914 C583.85722,231.13914 598.784804,245.883012 599.081519,264.183503 L599.08602,264.73914 L599.08602,319.60514 C599.08602,338.161908 584.042788,353.20514 565.48602,353.20514 C547.11482,353.20514 532.187236,338.461268 531.890521,320.160777 L531.88602,319.60514 L531.8856,298.339 L457.49684,298.33892 L457.49684,447.63992 L478.55232,447.64088 C497.109088,447.64088 512.15232,462.684112 512.15232,481.24088 C512.15232,499.61208 497.408448,514.539664 479.107957,514.836379 L478.55232,514.84158 L423.89744,514.84158 L423.89744,514.84158 L423.75884,514.84158 L369.24312,514.84158 C350.686352,514.84158 335.64312,499.797648 335.64312,481.24088 C335.64312,462.86968 350.386992,447.942096 368.687483,447.645381 L369.24312,447.64088 L390.29684,447.63992 L390.29684,298.33892 L315.909,298.339 L315.90942,319.60514 C315.90942,337.97634 301.165548,352.903924 282.865057,353.200639 L282.30942,353.20514 C263.93822,353.20514 249.010636,338.461268 248.713921,320.160777 L248.70942,319.60514 L248.70942,264.73914 C248.70942,246.36794 263.453292,231.440356 281.753783,231.143641 Z" id="Shape" fill="#5C8EB4"></path>
            </g>
        </g>
    </g>
</svg>