<?xml version="1.0" encoding="UTF-8"?>
<svg width="1024px" height="1024px" viewBox="0 0 1024 1024" version="1.1" xmlns="http://www.w3.org/2000/svg" xmlns:xlink="http://www.w3.org/1999/xlink">
    <title>ic_dnd-ic_ProductInfo</title>
    <g id="切圖" stroke="none" stroke-width="1" fill="none" fill-rule="evenodd">
        <g id="商品" transform="translate(0.000000, -1024.000000)" fill-rule="nonzero">
            <g id="ic_dnd-ic_ProductInfo" transform="translate(0.000000, 1024.000000)">
                <rect id="bg" fill-opacity="0" fill="#FFFFFF" opacity="0" x="64" y="64" width="896" height="896"></rect>
                <path d="M885.04456,541.06288 C918.724351,541.06288 946.092316,568.093113 946.636307,601.644205 L946.64456,602.66288 L946.64456,649.66508 C946.64456,675.116685 931.208658,696.962912 909.188252,706.353558 L909.18812,874.01508 C909.18812,914.46243 875.262099,946.243914 834.368815,946.875499 L833.12752,946.88508 L620.82452,946.88508 C579.793234,946.88508 545.4569,915.50807 544.774277,875.238082 L544.76392,874.01508 L544.76357,706.35359 C522.96321,697.056902 507.617123,675.55253 507.312382,650.427543 L507.30776,649.66508 L507.30776,602.66288 C507.30776,568.981924 534.337774,541.615101 567.889079,541.071133 L568.90776,541.06288 L885.04456,541.06288 Z M841.98812,711.26468 L611.96354,711.26468 L611.96354,874.01508 C611.96354,876.471339 615.202435,879.527937 620.419339,879.679231 L620.82452,879.68508 L833.12752,879.68508 C838.445051,879.68508 841.816504,876.689889 841.981754,874.205148 L841.98812,874.01508 L841.98812,711.26468 Z M597.82042,78.70168 L756.51182,78.70168 C821.327427,78.70168 873.994498,130.721234 875.041358,195.28772 L875.05724,197.24808 L875.05724,455.88128 C875.05724,477.530842 857.506802,495.08128 835.85724,495.08128 C814.424173,495.08128 797.008659,477.880096 796.662492,456.529524 L796.65724,455.88128 L796.65724,197.24808 C796.65724,175.298069 779.040479,157.461593 757.176084,157.107059 L756.51224,157.10168 L597.82042,157.10168 C575.870301,157.10168 558.033931,174.718548 557.679399,196.584198 L557.67402,197.24808 L557.67402,455.88128 C557.67402,477.530842 540.123582,495.08128 518.47402,495.08128 C497.040953,495.08128 479.625439,477.880096 479.279272,456.529524 L479.27402,455.88128 L479.27354,306.71468 L411.413699,238.85555 C395.89322,223.33998 370.832013,223.184824 355.125142,238.385661 L354.652059,238.850993 L242.461043,351.043408 C226.944914,366.563745 226.789753,391.625375 241.995559,407.336538 L242.584978,407.934277 L439.357778,606.532677 C454.595481,621.911752 454.480877,646.731554 439.101803,661.969258 C423.876519,677.054584 399.398378,677.093114 384.125209,662.170076 L383.665222,661.713283 L276.77454,553.83068 L201.09094,553.83074 C179.140821,553.83074 161.304451,571.447608 160.949919,593.313258 L160.94454,593.97714 L160.94454,752.66854 C160.94454,774.618659 178.561408,792.455029 200.427058,792.809561 L201.09094,792.81494 L444.14214,792.81494 C465.791702,792.81494 483.34214,810.365378 483.34214,832.01494 C483.34214,853.448007 466.140956,870.863521 444.790384,871.21494 L444.14214,871.21494 L201.09094,871.21494 C136.274687,871.21494 83.6072883,819.195703 82.560422,754.62891 L82.54454,752.66854 L82.54454,593.97714 C82.54454,529.16759 134.553018,476.504381 199.11054,475.446948 L187.016357,463.239408 C141.199214,417.409841 140.741042,343.404183 185.64532,297.007615 L187.019941,295.610167 L299.219099,183.40961 C345.048524,137.59468 419.051861,137.136531 465.449019,182.039416 L466.846486,183.413994 L479.28454,195.85268 L479.289586,195.307277 C480.315659,131.383641 531.938925,79.7539596 595.86005,78.717562 L597.82042,78.70168 Z M279.2185,634.12284 C300.8681,634.12284 318.4185,651.67324 318.4185,673.32284 C318.4185,694.97244 300.8681,712.52284 279.2185,712.52284 C257.5689,712.52284 240.0185,694.97244 240.0185,673.32284 C240.0185,651.67324 257.5689,634.12284 279.2185,634.12284 Z M879.4454,608.264 L574.5086,608.264 L574.5086,644.0662 L879.4454,644.0662 L879.4454,608.264 Z M391.39084,354.16666 C413.04044,354.16666 430.59084,371.71706 430.59084,393.36666 C430.59084,415.01626 413.04044,432.56666 391.39084,432.56666 C369.74124,432.56666 352.19084,415.01626 352.19084,393.36666 C352.19084,371.71706 369.74124,354.16666 391.39084,354.16666 Z M676.69278,262.53778 C698.34238,262.53778 715.89278,280.08818 715.89278,301.73778 C715.89278,323.38738 698.34238,340.93778 676.69278,340.93778 C655.04318,340.93778 637.49278,323.38738 637.49278,301.73778 C637.49278,280.08818 655.04318,262.53778 676.69278,262.53778 Z" id="Shape" fill="#5C8EB4"></path>
            </g>
        </g>
    </g>
</svg>