<?xml version="1.0" encoding="UTF-8"?>
<svg width="1024px" height="1024px" viewBox="0 0 1024 1024" version="1.1" xmlns="http://www.w3.org/2000/svg" xmlns:xlink="http://www.w3.org/1999/xlink">
    <title>ic_dnd-ic_ProductCollections</title>
    <g id="切圖" stroke="none" stroke-width="1" fill="none" fill-rule="evenodd">
        <g id="商品" transform="translate(0.000000, -2048.000000)" fill-rule="nonzero">
            <g id="ic_dnd-ic_ProductCollections" transform="translate(0.000000, 2048.000000)">
                <rect id="bg" fill-opacity="0" fill="#FFFFFF" opacity="0" x="64" y="64" width="896" height="896"></rect>
                <path d="M890.18662,541.06246 C923.867576,541.06246 951.234399,568.092474 951.778367,601.643779 L951.78662,602.66246 L951.78662,649.66466 C951.78662,675.116432 936.351376,696.962576 914.33081,706.35317 L914.33018,874.01466 C914.33018,914.463115 880.404507,946.243516 839.510886,946.875079 L838.26958,946.88466 L625.96658,946.88466 C584.934943,946.88466 550.598953,915.508744 549.916337,875.237694 L549.90598,874.01466 L549.90563,706.35317 C528.10527,697.056482 512.759183,675.55211 512.454442,650.427123 L512.44982,649.66466 L512.44982,602.66246 C512.44982,568.981504 539.479834,541.614681 573.031139,541.070713 L574.04982,541.06246 L890.18662,541.06246 Z M847.13018,711.26386 L617.1054,711.26386 L617.1054,874.01466 C617.1054,876.471618 620.343838,879.527552 625.56135,879.678813 L625.96658,879.68466 L838.26958,879.68466 C843.587785,879.68466 846.958598,876.69015 847.123815,874.204779 L847.13018,874.01466 L847.13018,711.26386 Z M792.46942,179.37932 C841.05542,179.37932 880.534982,218.373022 881.319715,266.772035 L881.333615,268.24152 L881.333615,430.44452 C881.333615,430.645501 881.333615,430.846541 881.333615,431.047616 L881.333615,468.21892 C881.333615,486.775688 866.288388,501.81892 847.73162,501.81892 C829.36042,501.81892 814.432836,487.075048 814.136121,468.774557 L814.13162,468.21892 L814.1314,447.48886 L687.0532,352.3146 L550.603532,492.943776 C532.319979,511.7875 503.461711,515.123801 481.443449,500.950428 L480.77834,500.515571 L386.0266,437.604 L264.1534,566.98786 L264.15422,737.67412 C264.15422,749.490433 273.614585,759.096513 285.374364,759.3319 L285.81642,759.33632 L458.99922,759.33632 C477.555988,759.33632 492.59922,774.379552 492.59922,792.93632 C492.59922,811.30752 477.855348,826.235104 459.554857,826.53632 L285.81642,826.53632 C237.230072,826.53632 197.750851,787.543645 196.966125,739.143636 L196.95422,737.67412 L196.95422,268.24152 C196.95422,219.65552 235.947922,180.175958 284.346935,179.391225 L285.81642,179.37932 L792.46942,179.37932 Z M616.8768,75.19986 C635.433568,75.19986 650.4768,90.2430924 650.4768,108.79986 C650.4768,127.17106 635.732928,142.098644 617.432437,142.395359 L616.8768,142.39986 L173.4604,142.39986 C161.237037,142.39986 151.299526,152.191855 151.064651,164.35906 L151.0604,164.79986 L151.0604,696.50586 C151.0604,715.062628 136.017168,730.10586 117.4604,730.10586 C99.0892001,730.10586 84.161616,715.361988 83.8604,697.061497 L83.8604,164.79986 C83.8604,115.810534 123.177927,76.0031135 171.978716,75.211864 L173.4604,75.19986 L616.8768,75.19986 Z M884.5876,608.2626 L579.6508,608.2626 L579.6508,644.0648 L884.5876,644.0648 L884.5876,608.2626 Z M792.46942,246.57932 L285.81642,246.57932 C274.000882,246.57932 264.394046,256.040285 264.1534,267.799487 L264.1534,268.24152 L264.1534,468.97786 L344.15652,384.044699 C362.369559,364.708186 391.599713,361.102029 413.876978,375.437759 L414.5499,375.877669 L509.431,438.8766 L646.300271,297.814096 C665.405183,278.124123 695.879023,275.482384 718.015533,291.554669 L718.683764,292.047438 L814.13162,363.53186 L814.13162,268.24152 C814.13162,256.425982 804.670655,246.819146 792.911453,246.583741 L792.46942,246.57932 Z M494.95052,285.0495 C516.60012,285.0495 534.15052,302.5999 534.15052,324.2495 C534.15052,345.8991 516.60012,363.4495 494.95052,363.4495 C473.30092,363.4495 455.75052,345.8991 455.75052,324.2495 C455.75052,302.5999 473.30092,285.0495 494.95052,285.0495 Z" id="Shape" fill="#5C8EB4"></path>
            </g>
        </g>
    </g>
</svg>