<?xml version="1.0" encoding="UTF-8"?>
<svg width="1024px" height="1024px" viewBox="0 0 1024 1024" version="1.1" xmlns="http://www.w3.org/2000/svg" xmlns:xlink="http://www.w3.org/1999/xlink">
    <title>ic_dnd-ic_ProductIframe</title>
    <g id="切圖" stroke="none" stroke-width="1" fill="none" fill-rule="evenodd">
        <g id="商品" transform="translate(0.000000, -4096.000000)" fill-rule="nonzero">
            <g id="ic_dnd-ic_ProductIframe" transform="translate(0.000000, 4096.000000)">
                <rect id="bg" fill-opacity="0" fill="#FFFFFF" opacity="0" x="64" y="64" width="896" height="896"></rect>
                <path d="M890.18662,541.06246 C923.867576,541.06246 951.234399,568.092474 951.778367,601.643779 L951.78662,602.66246 L951.78662,649.66466 C951.78662,675.116432 936.351376,696.962576 914.33081,706.35317 L914.33018,874.01466 C914.33018,914.463115 880.404507,946.243516 839.510886,946.875079 L838.26958,946.88466 L625.96658,946.88466 C584.934943,946.88466 550.598953,915.508744 549.916337,875.237694 L549.90598,874.01466 L549.90563,706.35317 C528.10527,697.056482 512.759183,675.55211 512.454442,650.427123 L512.44982,649.66466 L512.44982,602.66246 C512.44982,568.981504 539.479834,541.614681 573.031139,541.070713 L574.04982,541.06246 L890.18662,541.06246 Z M847.13018,711.26392 L617.10584,711.26392 L617.10584,874.01466 C617.10584,876.471618 620.343838,879.527552 625.56135,879.678813 L625.96658,879.68466 L838.26958,879.68466 C843.587785,879.68466 846.958598,876.69015 847.123815,874.204779 L847.13018,874.01466 L847.13018,711.26392 Z M656.05944,81.47592 C707.475266,81.47592 749.253028,122.741504 750.083442,173.958865 L750.09604,175.51392 L750.09604,452.88892 C750.09604,471.445688 735.052808,486.48892 716.49604,486.48892 C698.12484,486.48892 683.197256,471.745048 682.900541,453.444557 L682.89604,452.88892 L682.89604,175.51392 C682.89604,160.85155 671.137373,148.934658 656.53655,148.680077 L656.05944,148.67592 L184.07184,148.67592 C169.409782,148.67592 157.492585,160.435648 157.237997,175.0368 L157.23384,175.51392 L157.23384,723.04832 C157.23384,737.711763 168.992198,749.627605 183.594676,749.882164 L184.07184,749.88632 L451.26884,749.88632 C469.825608,749.88632 484.86884,764.929552 484.86884,783.48632 C484.86884,801.85752 470.124968,816.785104 451.824477,817.08632 L184.07184,817.08632 C132.655269,817.08632 90.8768648,775.822742 90.0464384,724.603435 L90.03384,723.04832 L90.03384,175.51392 C90.03384,124.098735 131.29879,82.3189725 182.516766,81.4885188 L184.07184,81.47592 L656.05944,81.47592 Z M414.09744,581.56642 C432.654208,581.56642 447.69744,596.609652 447.69744,615.16642 C447.69744,633.53762 432.953568,648.465204 414.653077,648.761919 L414.09744,648.76642 L274.67704,648.76642 C256.120272,648.76642 241.07704,633.723188 241.07704,615.16642 C241.07704,596.79522 255.820912,581.867636 274.121403,581.570921 L274.67704,581.56642 L414.09744,581.56642 Z M884.5876,608.2626 L579.6508,608.2626 L579.6508,644.0648 L884.5876,644.0648 L884.5876,608.2626 Z M458.503378,222.173948 C476.304159,226.716324 487.122747,244.693329 482.885355,262.49896 L482.752332,263.038458 L422.492132,499.187658 C417.903873,517.168245 399.608208,528.024872 381.627622,523.436612 C363.826841,518.894236 353.008253,500.917231 357.245645,483.1116 L357.378668,482.572102 L417.638868,246.422902 C422.227127,228.442315 440.522792,217.585688 458.503378,222.173948 Z M302.14134,248.477437 C317.647936,258.328654 322.341746,278.778169 312.778894,294.384189 L312.484743,294.8556 L262.9652,372.805 L312.484743,450.75524 C322.33596,466.261835 317.895728,486.767905 302.607924,496.831653 L302.14134,497.133403 C286.634745,506.98462 266.128675,502.544388 256.064927,487.256584 L255.763177,486.79 L194.795977,390.8228 C187.923026,380.004231 187.812172,366.236168 194.463415,355.322453 L194.795977,354.78804 L255.763177,258.82084 C265.713901,243.157612 286.478112,238.526713 302.14134,248.477437 Z M584.065653,258.354256 L584.367403,258.82084 L645.334603,354.78804 C652.207554,365.606609 652.318408,379.374672 645.667165,390.288387 L645.334603,390.8228 L584.367403,486.79 C574.416679,502.453228 553.652468,507.084127 537.98924,497.133403 C522.482644,487.282186 517.788834,466.832671 527.351686,451.226651 L527.645837,450.75524 L577.1672,372.805 L527.645837,294.8556 C517.79462,279.349005 522.234852,258.842935 537.522656,248.779187 L537.98924,248.477437 C553.495835,238.62622 574.001905,243.066452 584.065653,258.354256 Z" id="Shape" fill="#5C8EB4"></path>
            </g>
        </g>
    </g>
</svg>