<?xml version="1.0" encoding="UTF-8"?>
<svg width="1024px" height="1024px" viewBox="0 0 1024 1024" version="1.1" xmlns="http://www.w3.org/2000/svg" xmlns:xlink="http://www.w3.org/1999/xlink">
    <title>ic_dnd-ic_ProductCarousel</title>
    <g id="切圖" stroke="none" stroke-width="1" fill="none" fill-rule="evenodd">
        <g id="商品" fill-rule="nonzero">
            <g id="ic_dnd-ic_ProductCarousel">
                <rect id="bg" fill-opacity="0" fill="#FFFFFF" opacity="0" x="64" y="64" width="896" height="896"></rect>
                <path d="M831.75224,536.91068 C860.621631,536.91068 884.078908,560.079263 884.545166,588.837525 L884.55224,589.71068 L884.55224,629.99828 C884.55224,651.814185 871.321909,670.539523 852.447,678.588542 L852.44672,822.29828 C852.44672,856.968385 823.367572,884.208728 788.315896,884.750068 L787.25192,884.75828 L605.27792,884.75828 C570.107945,884.75828 540.677097,857.864638 540.091997,823.346595 L540.08312,822.29828 L540.08308,678.588542 C521.39692,670.620013 508.243011,652.187624 507.981802,630.651822 L507.97784,629.99828 L507.97784,589.71068 C507.97784,560.841289 531.146423,537.384012 559.904685,536.917754 L560.77784,536.91068 L831.75224,536.91068 Z M794.84672,682.79748 L597.6828,682.79748 L597.6828,822.29828 C597.6828,824.404244 600.458427,827.023616 604.93058,827.153268 L605.27792,827.15828 L787.25192,827.15828 C791.810381,827.15828 794.69965,824.591557 794.841264,822.461239 L794.84672,822.29828 L794.84672,682.79748 Z M352.98452,758.06432 C371.19692,758.06432 385.96052,772.83872 385.96052,791.06192 C385.96052,809.28632 371.19692,824.05952 352.98452,824.05952 C334.77212,824.05952 320.00852,809.28632 320.00852,791.06192 C320.00852,772.83872 334.77212,758.06432 352.98452,758.06432 Z M452.0378,758.06432 C470.2502,758.06432 485.0138,772.83872 485.0138,791.06192 C485.0138,809.28632 470.2502,824.05952 452.0378,824.05952 C433.8254,824.05952 419.0618,809.28632 419.0618,791.06192 C419.0618,772.83872 433.8254,758.06432 452.0378,758.06432 Z M253.93112,758.06432 C272.14352,758.06432 286.90712,772.83872 286.90712,791.06192 C286.90712,809.28632 272.14352,824.05952 253.93112,824.05952 C235.71872,824.05952 220.95512,809.28632 220.95512,791.06192 C220.95512,772.83872 235.71872,758.06432 253.93112,758.06432 Z M763.682,146.97548 C803.579211,146.97548 834.739001,180.636443 835.358207,221.026701 L835.3676,222.25268 L835.3676,454.33508 C835.3676,472.891848 820.324368,487.93508 801.7676,487.93508 C794.327042,487.93508 787.451356,485.516572 781.883781,481.422793 L781.384504,482.078267 L616.1828,356.0108 L491.440108,484.276219 C473.691439,502.521889 445.703052,505.751101 424.330523,492.031686 L423.684913,491.610756 L337.6712,434.6312 L221.1898,558.00448 L221.1908,639.62588 C221.1908,642.456587 222.1227,644.867456 223.549147,646.428355 C224.361598,647.317385 225.00852,647.65345 225.553593,647.696923 L225.6776,647.70188 L449.0144,647.70188 C467.571168,647.70188 482.6144,662.745112 482.6144,681.30188 C482.6144,699.67308 467.870528,714.600664 449.570037,714.90188 L225.6776,714.90188 C185.780105,714.90188 154.619417,681.240671 154.000193,640.851816 L153.9908,639.62588 L153.9908,222.25268 C153.9908,181.728879 184.751975,147.66302 224.471266,146.985755 L225.6776,146.97548 L763.682,146.97548 Z M826.952,594.5096 L565.5776,594.5096 L565.5776,625.1972 L826.952,625.1972 L826.952,594.5096 Z M763.682,214.17548 L225.6776,214.17548 C225.106744,214.17548 224.423874,214.491529 223.549147,215.448705 C222.190696,216.935199 221.28068,219.192984 221.197093,221.851019 L221.1898,222.25268 L221.1898,460.11648 L296.754353,380.082897 C314.436541,361.356084 342.790395,357.865107 364.409948,371.744381 L365.063007,372.170284 L451.22,429.2444 L576.524202,300.405288 C595.070661,281.336214 624.631602,278.779828 646.113676,294.339778 L646.899311,294.919309 L768.1676,387.45948 L768.1676,222.25268 C768.1676,219.420645 767.235586,217.009349 765.809158,215.448436 C764.99702,214.55973 764.350531,214.223878 763.805904,214.180434 L763.682,214.17548 Z M439.39064,258.98624 C460.59824,258.98624 477.79064,276.17864 477.79064,297.38624 C477.79064,318.59384 460.59824,335.78624 439.39064,335.78624 C418.18304,335.78624 400.99064,318.59384 400.99064,297.38624 C400.99064,276.17864 418.18304,258.98624 439.39064,258.98624 Z" id="Shape" fill="#5C8EB4"></path>
            </g>
        </g>
    </g>
</svg>