<?xml version="1.0" encoding="UTF-8"?>
<svg width="1024px" height="1024px" viewBox="0 0 1024 1024" version="1.1" xmlns="http://www.w3.org/2000/svg" xmlns:xlink="http://www.w3.org/1999/xlink">
    <title>ic_dnd-ic_ProductQa</title>
    <g id="切圖" stroke="none" stroke-width="1" fill="none" fill-rule="evenodd">
        <g id="商品" transform="translate(0.000000, -5120.000000)" fill-rule="nonzero">
            <g id="ic_dnd-ic_ProductQa" transform="translate(0.000000, 5120.000000)">
                <rect id="bg" fill-opacity="0" fill="#FFFFFF" opacity="0" x="64" y="64" width="896" height="896"></rect>
                <path d="M885.04428,541.06246 C918.725236,541.06246 946.092059,568.092474 946.636027,601.643779 L946.64428,602.66246 L946.64428,649.66466 C946.64428,675.116432 931.209036,696.962576 909.18847,706.35317 L909.18784,874.01466 C909.18784,914.463115 875.262167,946.243516 834.368546,946.875079 L833.12724,946.88466 L620.82424,946.88466 C579.792603,946.88466 545.456613,915.508744 544.773997,875.237694 L544.76364,874.01466 L544.762288,706.352742 C522.962456,697.055822 507.616834,675.551718 507.312102,650.427111 L507.30748,649.66466 L507.30748,602.66246 C507.30748,568.981504 534.337494,541.614681 567.888799,541.070713 L568.90748,541.06246 L885.04428,541.06246 Z M841.98784,711.26428 L611.96276,711.26428 L611.96276,874.01466 C611.96276,876.471618 615.201498,879.527552 620.41901,879.678813 L620.82424,879.68466 L833.12724,879.68466 C838.445445,879.68466 841.816258,876.69015 841.981475,874.204779 L841.98784,874.01466 L841.98784,711.26428 Z M453.37976,69.60028 C665.457322,69.60028 837.37876,241.521718 837.37876,453.59928 C837.37876,475.248842 819.828322,492.79928 798.17876,492.79928 C776.745693,492.79928 759.330179,475.598096 758.984012,454.247524 L758.97876,453.59928 C758.97876,284.820842 622.158198,148.00028 453.37976,148.00028 C284.601322,148.00028 147.78076,284.820842 147.78076,453.59928 C147.78076,620.690247 281.878903,756.460051 448.326108,759.158738 L453.37976,759.19968 C475.029322,759.19968 492.57976,776.750118 492.57976,798.39968 C492.57976,820.049242 475.029322,837.59968 453.37976,837.59968 C241.302416,837.59968 69.38076,665.67706 69.38076,453.59928 C69.38076,241.521718 241.302198,69.60028 453.37976,69.60028 Z M879.444,608.2612 L574.5072,608.2612 L574.5072,644.0634 L879.444,644.0634 L879.444,608.2612 Z M444.58076,384.60028 C469.32316,384.60028 489.38076,404.65628 489.38076,429.40028 C489.38076,454.14108 469.32316,474.20028 444.58076,474.20028 C419.83836,474.20028 399.78076,454.14108 399.78076,429.40028 C399.78076,404.65628 419.83836,384.60028 444.58076,384.60028 Z M602.78076,384.60028 C627.52316,384.60028 647.58076,404.65628 647.58076,429.40028 C647.58076,454.14108 627.52316,474.20028 602.78076,474.20028 C578.03836,474.20028 557.98076,454.14108 557.98076,429.40028 C557.98076,404.65628 578.03836,384.60028 602.78076,384.60028 Z M286.38076,384.60028 C311.12316,384.60028 331.18076,404.65628 331.18076,429.40028 C331.18076,454.14108 311.12316,474.20028 286.38076,474.20028 C261.63836,474.20028 241.58076,454.14108 241.58076,429.40028 C241.58076,404.65628 261.63836,384.60028 286.38076,384.60028 Z" id="Shape" fill="#5C8EB4"></path>
            </g>
        </g>
    </g>
</svg>