<?xml version="1.0" encoding="UTF-8"?>
<svg width="1024px" height="1024px" viewBox="0 0 1024 1024" version="1.1" xmlns="http://www.w3.org/2000/svg" xmlns:xlink="http://www.w3.org/1999/xlink">
    <title>ic_dnd-ic_Products</title>
    <g id="切圖" stroke="none" stroke-width="1" fill="none" fill-rule="evenodd">
        <g id="ic_dnd-ic_Products">
            <rect id="bg" fill-opacity="0" fill="#FFFFFF" fill-rule="nonzero" opacity="0" x="64" y="64" width="896" height="896"></rect>
            <path d="M396.9718,537.31354 C447.925318,537.31354 489.325997,578.204684 490.148916,628.96205 L490.1614,630.50314 L490.1614,814.28534 C490.1614,865.238858 449.270256,906.639537 398.51289,907.462456 L396.9718,907.47494 L213.1896,907.47494 C162.237468,907.47494 120.83543,866.583796 120.012485,815.82643 L120,814.28534 L120,630.50314 C120,579.549622 160.892516,538.148943 211.648551,537.326024 L213.1896,537.31354 L396.9718,537.31354 Z M802.62264,758.56758 C824.272202,758.56758 841.82264,776.118018 841.82264,797.76758 C841.82264,819.200647 824.621456,836.616161 803.270884,836.962328 L802.62264,836.96758 L568.69804,836.96758 C547.048478,836.96758 529.49804,819.417142 529.49804,797.76758 C529.49804,776.334513 546.699224,758.918999 568.049796,758.572832 L568.69804,758.56758 L802.62264,758.56758 Z M396.9718,615.71354 L213.1896,615.71354 C205.137769,615.71354 198.570332,622.179113 198.40326,630.190247 L198.4,630.50314 L198.4,814.28534 C198.4,822.335789 204.864208,828.904572 212.876654,829.071679 L213.1896,829.07494 L396.9718,829.07494 C405.022249,829.07494 411.591032,822.609367 411.758139,814.598233 L411.7614,814.28534 L411.7614,630.50314 C411.7614,622.452691 405.295827,615.883908 397.284693,615.716801 L396.9718,615.71354 Z M865.00384,607.82076 C886.653402,607.82076 904.20384,625.371198 904.20384,647.02076 C904.20384,668.453827 887.002656,685.869341 865.652084,686.215508 L865.00384,686.22076 L568.69804,686.22076 C547.048478,686.22076 529.49804,668.670322 529.49804,647.02076 C529.49804,625.587693 546.699224,608.172179 568.049796,607.826012 L568.69804,607.82076 L865.00384,607.82076 Z M396.9718,115.8 C447.925318,115.8 489.325997,156.692516 490.148916,207.448551 L490.1614,208.9896 L490.1614,392.7718 C490.1614,443.725318 449.270256,485.125997 398.51289,485.948916 L396.9718,485.9614 L213.1896,485.9614 C162.237468,485.9614 120.83543,445.070256 120.012485,394.31289 L120,392.7718 L120,208.9896 C120,158.037468 160.892516,116.63543 211.648551,115.812485 L213.1896,115.8 L396.9718,115.8 Z M802.62264,337.05404 C824.272202,337.05404 841.82264,354.604478 841.82264,376.25404 C841.82264,397.687107 824.621456,415.102621 803.270884,415.448788 L802.62264,415.45404 L568.69804,415.45404 C547.048478,415.45404 529.49804,397.903602 529.49804,376.25404 C529.49804,354.820973 546.699224,337.405459 568.049796,337.059292 L568.69804,337.05404 L802.62264,337.05404 Z M396.9718,194.2 L213.1896,194.2 C205.137769,194.2 198.570332,200.665573 198.40326,208.676707 L198.4,208.9896 L198.4,392.7718 C198.4,400.823631 204.864208,407.391068 212.876654,407.55814 L213.1896,407.5614 L396.9718,407.5614 C405.022249,407.5614 411.591032,401.097192 411.758139,393.084746 L411.7614,392.7718 L411.7614,208.9896 C411.7614,200.939151 405.295827,194.370368 397.284693,194.203261 L396.9718,194.2 Z M865.00384,186.30792 C886.653402,186.30792 904.20384,203.858358 904.20384,225.50792 C904.20384,246.940987 887.002656,264.356501 865.652084,264.702668 L865.00384,264.70792 L568.69804,264.70792 C547.048478,264.70792 529.49804,247.157482 529.49804,225.50792 C529.49804,204.074853 546.699224,186.659339 568.049796,186.313172 L568.69804,186.30792 L865.00384,186.30792 Z" id="Shape" fill="#5C8EB4"></path>
        </g>
    </g>
</svg>