<?xml version="1.0" encoding="UTF-8"?>
<svg width="1024px" height="1024px" viewBox="0 0 1024 1024" version="1.1" xmlns="http://www.w3.org/2000/svg" xmlns:xlink="http://www.w3.org/1999/xlink">
    <title>ic_dnd-ic_ProductVideo</title>
    <g id="切圖" stroke="none" stroke-width="1" fill="none" fill-rule="evenodd">
        <g id="商品" transform="translate(0.000000, -3072.000000)">
            <g id="ic_dnd-ic_ProductVideo" transform="translate(0.000000, 3072.000000)">
                <rect id="bg" fill-opacity="0" fill="#FFFFFF" fill-rule="nonzero" opacity="0" x="64" y="64" width="896" height="896"></rect>
                <path d="M890.18662,541.06246 C923.867576,541.06246 951.234399,568.092474 951.778367,601.643779 L951.78662,602.66246 L951.78662,649.66466 C951.78662,675.116432 936.351376,696.962576 914.33081,706.35317 L914.33018,874.01466 C914.33018,914.463115 880.404507,946.243516 839.510886,946.875079 L838.26958,946.88466 L625.96658,946.88466 C584.934943,946.88466 550.598953,915.508744 549.916337,875.237694 L549.90598,874.01466 L549.90563,706.35317 C528.10527,697.056482 512.759183,675.55211 512.454442,650.427123 L512.44982,649.66466 L512.44982,602.66246 C512.44982,568.981504 539.479834,541.614681 573.031139,541.070713 L574.04982,541.06246 L890.18662,541.06246 Z M847.13018,711.26428 L617.10576,711.26428 L617.10576,874.01466 C617.10576,876.471618 620.343838,879.527552 625.56135,879.678813 L625.96658,879.68466 L838.26958,879.68466 C843.587785,879.68466 846.958598,876.69015 847.123815,874.204779 L847.13018,874.01466 L847.13018,711.26428 Z M453.37976,69.60028 C665.457322,69.60028 837.37876,241.521718 837.37876,453.59928 C837.37876,475.248842 819.828322,492.79928 798.17876,492.79928 C776.745693,492.79928 759.330179,475.598096 758.984012,454.247524 L758.97876,453.59928 C758.97876,284.820842 622.158198,148.00028 453.37976,148.00028 C284.601322,148.00028 147.78076,284.820842 147.78076,453.59928 C147.78076,620.690247 281.878903,756.460051 448.326108,759.158738 L453.37976,759.19968 C475.029322,759.19968 492.57976,776.750118 492.57976,798.39968 C492.57976,820.049242 475.029322,837.59968 453.37976,837.59968 C241.302416,837.59968 69.38076,665.67706 69.38076,453.59928 C69.38076,241.521718 241.302198,69.60028 453.37976,69.60028 Z M884.5862,608.2612 L579.6494,608.2612 L579.6494,644.0634 L884.5862,644.0634 L884.5862,608.2612 Z M394.88706,312.88542 C400.886187,312.88542 407.039338,314.491473 412.769513,318.016333 L413.30546,318.35242 L563.83206,414.55902 C584.907576,428.029554 585.118331,458.760237 564.464325,472.573257 L563.83206,472.98662 L413.30546,569.19462 C407.42266,572.95642 401.07646,574.66162 394.88706,574.66162 C377.119926,574.66162 360.668674,560.582091 360.341426,540.588489 L360.33646,539.98082 L360.33646,347.56622 C360.33646,327.24942 376.93766,312.88542 394.88706,312.88542 Z M427.53646,407.20062 L427.53646,480.34502 L484.75866,443.77282 L427.53646,407.20062 Z" id="Shape" fill="#5C8EB4"></path>
            </g>
        </g>
    </g>
</svg>