<?xml version="1.0" encoding="UTF-8"?>
<svg width="1024px" height="1024px" viewBox="0 0 1024 1024" version="1.1" xmlns="http://www.w3.org/2000/svg" xmlns:xlink="http://www.w3.org/1999/xlink">
    <title>ic_page-setting</title>
    <g id="切圖" stroke="none" stroke-width="1" fill="none" fill-rule="evenodd">
        <g id="Antd-custom-Icon-Copy-15" transform="translate(0.000000, 1.000000)">
            <g id="Group-18" transform="translate(0.000000, -1.000000)">
                <rect id="bg" fill-opacity="0" fill="#FFFFFF" fill-rule="nonzero" opacity="0" x="64" y="65" width="896" height="896"></rect>
                <path d="M854,138 C871.673112,138 886,152.326888 886,170 L886,854 C886,871.673112 871.673112,886 854,886 L170,886 C152.326888,886 138,871.673112 138,854 L138,170 C138,152.326888 152.326888,138 170,138 L854,138 Z M830,364 L194,364 L194,830 L830,830 L830,364 Z M559.157622,395 C576.653925,395 590.870639,409.041864 591.153528,426.470824 L591.157824,427 L591.15797,449.969 L591.82143,450.323291 C593.936371,451.459428 596.025984,452.640505 598.088874,453.865587 L599.631009,454.792634 L600.47997,455.312 L620.555623,443.766094 C635.686688,435.063919 654.96419,440.101774 663.926803,455.004737 L664.195225,455.459358 L711.214041,536.585212 C719.93714,551.751981 714.852981,571.076547 699.885476,580.011032 L699.428894,580.278578 L679.74097,591.602 L679.779503,592.974581 L679.80628,594.315143 L679.822356,595.656966 L679.827718,597 C679.827718,598.194372 679.815002,599.387367 679.789614,600.578828 L679.74097,602.398 L699.520814,613.774049 C714.65851,622.547505 719.917531,641.825218 711.422334,657.046351 L711.16069,657.506341 L664.195437,738.54006 C655.442615,753.642157 636.228547,758.918021 621.015117,750.492677 L620.555344,750.233166 L600.47997,738.687 L599.631009,739.207366 C597.581568,740.454391 595.505055,741.657646 593.402865,742.816194 L591.82143,743.676709 L591.15797,744.03 L591.157824,767 C591.157514,784.496303 577.11576,798.712928 559.686798,798.995707 L559.157622,799 L465.322387,799 C447.826326,799 433.609713,784.957885 433.325887,767.529169 L433.321562,767 L433.32097,744.029 L432.659355,743.677125 C430.544455,742.541025 428.454882,741.359986 426.39203,740.134945 L424.849924,739.207928 L423.99997,738.687 L403.923501,750.233017 C388.792427,758.934927 369.515132,753.896953 360.552635,738.994063 L360.284216,738.539445 L313.265876,657.413773 L313.265876,657.413773 C304.543024,642.246862 309.627498,622.922378 324.595149,613.988137 L325.051735,613.720598 L344.73897,602.398 L344.70051,601.025554 L344.673731,599.684947 L344.657654,598.34308 L344.652291,597 C344.652291,595.805628 344.665008,594.612633 344.690396,593.421172 L344.73897,591.601 L324.95944,580.225529 L324.95944,580.225529 C309.821744,571.452074 304.562723,552.17436 313.05792,536.953228 L313.319564,536.493238 L360.284468,455.46012 C369.037012,440.358504 388.250222,435.082413 403.463546,443.506815 L403.923316,443.766298 L423.99997,455.312 L424.849924,454.792072 C426.899327,453.545088 428.975801,452.341873 431.07795,451.183361 L432.659355,450.322875 L433.32097,449.97 L433.321562,427 C433.32283,409.503938 447.364495,395.287688 464.793218,395.004311 L465.322387,395 L559.157622,395 Z M543.158776,443 L481.321233,443 L481.320287,482.366528 C461.125808,487.713637 443.035372,498.172901 428.543632,512.261546 L427.877344,512.914363 L393.817182,493.326418 L362.898411,546.673582 L396.739204,566.136168 C394.073768,575.977343 392.652291,586.323989 392.652291,597 C392.652291,607.294724 393.974047,617.28319 396.458389,626.807494 L396.739204,627.863832 L362.898411,647.326418 L393.817182,700.673582 L427.877344,681.085637 C442.258,695.285605 460.260348,705.879003 480.389733,711.383058 L481.320287,711.633472 L481.321233,751 L543.158776,751 L543.159723,711.633472 C563.35466,706.286242 581.445459,695.826625 595.937364,681.737495 L596.60366,681.084656 L630.662827,700.673582 L661.581599,647.326418 L627.740806,627.863832 C630.406241,618.022657 631.827718,607.676011 631.827718,597 C631.827718,586.705625 630.506052,576.717487 628.021873,567.193475 L627.741077,566.137169 L661.581599,546.673582 L630.662827,493.326418 L596.60366,512.915344 C582.222844,498.714888 564.220138,488.121131 544.090298,482.616948 L543.159723,482.366528 L543.158776,443 Z M512.219424,533 C547.547953,533 576.219424,561.671471 576.219424,597 C576.219424,632.328529 547.547953,661 512.219424,661 C476.890895,661 448.219424,632.328529 448.219424,597 C448.219424,561.671471 476.890895,533 512.219424,533 Z M512.219424,577 C501.191424,577 492.219424,585.972 492.219424,597 C492.219424,608.028 501.191424,617 512.219424,617 C523.247424,617 532.219424,608.028 532.219424,597 C532.219424,585.972 523.247424,577 512.219424,577 Z M830,194 L194,194 L194,308 L830,308 L830,194 Z M284,228 C299.463973,228 312,240.536027 312,256 C312,271.463973 299.463973,284 284,284 C268.536027,284 256,271.463973 256,256 C256,240.536027 268.536027,228 284,228 Z M388,228 C403.463973,228 416,240.536027 416,256 C416,271.463973 403.463973,284 388,284 C372.536027,284 360,271.463973 360,256 C360,240.536027 372.536027,228 388,228 Z" id="Shape" fill="#595959"></path>
            </g>
        </g>
    </g>
</svg>