<?xml version="1.0" encoding="UTF-8"?>
<svg width="1024px" height="1024px" viewBox="0 0 1024 1024" version="1.1" xmlns="http://www.w3.org/2000/svg" xmlns:xlink="http://www.w3.org/1999/xlink">
    <title>ic_dnd-ic_SmartConversionComponent</title>
    <g id="切圖" stroke="none" stroke-width="1" fill="none" fill-rule="evenodd">
        <g id="ic_dnd-ic_SmartConversionComponent">
            <rect id="bg" fill-opacity="0" fill="#FFFFFF" fill-rule="nonzero" opacity="0" x="64" y="64" width="896" height="896"></rect>
            <path d="M511.14698,125.94188 C536.42958,125.96568 560.19038,135.83288 578.05018,153.72628 C595.91138,171.61968 605.73518,195.39868 605.71278,220.67848 C605.676744,260.07553 581.418321,293.898947 547.077289,308.093175 L546.03358,308.51728 L545.99298,401.10068 L751.28198,401.28828 C784.30343,401.318772 811.109086,428.59722 811.610653,462.4254 L811.61778,463.45248 L811.45678,641.00468 L847.52078,640.82128 L847.52078,611.86228 C847.52078,592.53388 863.19098,576.86228 882.52078,576.86228 C901.658668,576.86228 917.207038,592.222015 917.52078,611.283537 L917.52078,611.86228 L917.52078,739.91748 C917.52078,759.24728 901.85198,774.91748 882.52078,774.91748 C863.384278,774.91748 847.83455,759.559117 847.525469,740.496264 L847.52078,739.91748 L847.52078,710.82268 L811.39238,711.00608 L811.22998,888.87608 C811.199488,922.815062 784.701788,950.372221 751.831965,950.91997 L750.77938,950.92828 L273.40598,950.49148 C240.385916,950.462374 213.580274,923.18394 213.077348,889.35576 L213.07018,888.32868 L213.23258,711.01868 L174.59958,710.82268 L174.59958,739.91748 C174.59958,759.24728 158.92938,774.91748 139.59958,774.91748 C120.463078,774.91748 104.91335,759.559117 104.59958,740.496264 L104.59958,739.91748 L104.59958,611.86228 C104.59958,592.53388 120.26978,576.86228 139.59958,576.86228 C158.736082,576.86228 174.28581,592.222015 174.594891,611.283537 L174.59958,611.86228 L174.59958,640.82128 L213.29558,641.01868 L213.45938,462.90508 C213.489872,428.966098 239.987572,401.408939 272.856037,400.86119 L273.90858,400.85288 L475.99298,401.03768 L476.03358,308.55508 C464.20218,303.84688 453.33678,296.74468 444.07018,287.46268 C426.20898,269.56788 416.38658,245.79028 416.40898,220.50768 C416.456104,168.888882 458.069465,126.791363 509.498745,125.954575 L511.14698,125.94188 Z M283.45098,470.86128 L283.07718,880.49988 L741.23698,880.91848 L741.61218,471.27848 L283.45098,470.86128 Z M629.99186,702.20582 C668.440886,702.20582 699.793204,733.17502 700.416405,771.478294 L700.42586,772.64122 L700.42586,774.54382 C700.42586,812.994232 669.458032,844.346564 631.154785,844.969765 L629.99186,844.97922 L394.69666,844.97922 C356.247634,844.97922 324.895316,814.011392 324.272115,775.706787 L324.26266,774.54382 L324.26266,772.64122 C324.26266,734.192194 355.230488,702.838504 393.533735,702.215275 L394.69666,702.20582 L629.99186,702.20582 Z M434.05906,758.20582 L394.69666,758.20582 C386.829949,758.20582 380.432984,764.500639 380.266005,772.327346 L380.26266,772.64122 L380.26266,774.54382 C380.26266,782.411912 386.556116,788.808895 394.382787,788.975875 L394.69666,788.97922 L434.05906,788.97922 L434.05906,758.20582 Z M629.99186,758.20582 L590.63086,758.20582 L590.63086,788.97922 L629.99186,788.97922 C637.858571,788.97922 644.255536,782.685764 644.422515,774.857748 L644.42586,774.54382 L644.42586,772.64122 C644.42586,764.774509 638.132404,758.376181 630.305733,758.209166 L629.99186,758.20582 Z M534.63086,758.20582 L490.05906,758.20582 L490.05906,788.97782 L534.63086,788.97782 L534.63086,758.20582 Z M619.8476,506.55932 C664.3186,506.59992 700.4666,542.81372 700.426068,587.28472 C700.385806,631.270816 664.92519,667.139332 621.105209,667.852303 L619.7006,667.86312 C598.1588,667.84352 577.912,659.43512 562.6926,644.18912 C547.4732,628.94032 539.1026,608.67812 539.123521,587.13912 C539.162408,543.15441 574.621638,507.28728 618.44295,506.570261 L619.8476,506.55932 Z M404.98792,506.36374 C426.53112,506.38334 446.77652,514.79174 461.99592,530.03774 C477.21532,545.28654 485.58592,565.54734 485.564999,587.08774 C485.526112,631.073836 450.06551,666.943724 406.245529,667.656723 L404.84092,667.66754 C383.29772,667.64654 363.05232,659.23954 347.83292,643.99214 C332.61352,628.74614 324.24292,608.48394 324.262451,586.94214 C324.302714,542.95743 359.761958,507.0903 403.58327,506.374639 L404.98792,506.36374 Z M619.7972,562.55932 L619.7734,562.55932 C606.171,562.56072 595.1348,573.58292 595.123573,587.18952 C595.10974,600.666984 605.917948,611.629315 619.343376,611.85944 L619.7748,611.86312 C633.3786,611.86312 644.4134,600.84092 644.426022,587.23432 C644.4386,573.61792 633.4122,562.57192 619.7972,562.55932 Z M404.93752,562.36374 L404.91372,562.36374 C391.30992,562.36374 380.27512,573.38594 380.262498,586.99254 C380.250046,600.470004 391.056896,611.432335 404.483655,611.663818 L404.91512,611.66754 C418.51752,611.66754 429.55372,600.64394 429.564947,587.03734 C429.57892,573.42234 418.55112,562.37634 404.93752,562.36374 Z M710.92516,81.35356 C719.102194,74.2172646 730.502707,71.3318901 744.803297,72.7522279 L745.47576,72.82196 L826.62116,81.61256 C839.30656,82.98736 850.47436,85.09016 859.81096,87.86076 C870.09116,90.91836 879.26116,95.72736 887.06896,102.16036 C893.63776,107.48876 899.38756,114.07576 904.08176,121.67636 C908.77736,129.29096 912.13736,137.59576 914.07356,146.36956 C916.00136,155.10696 916.46756,164.25316 915.46096,173.55476 C912.92276,196.98516 902.47456,215.60656 884.89476,228.43756 C907.00076,245.98656 916.87496,270.57476 913.61576,300.66496 C911.71736,318.17476 905.73656,333.77356 895.83716,347.03156 C885.934799,360.299429 873.320781,369.758515 858.341494,375.154355 L857.59056,375.42076 L857.35116,375.50196 C848.18116,378.51336 837.81556,380.23536 826.54276,380.61756 C824.46236,380.69176 822.31336,380.72816 820.09996,380.72816 C811.372024,380.72816 801.641572,380.169486 791.068386,379.062047 L789.74236,378.92076 L713.20996,370.62996 C698.23556,369.00596 687.38276,363.55996 680.95396,354.43896 C674.91516,345.873316 672.705445,334.486026 674.206055,319.640589 L674.28156,318.91956 L696.37496,114.99416 C698.06196,99.42756 702.82056,88.42216 710.92516,81.35356 Z M212.86088,72.82406 C222.48448,71.72926 231.09728,72.75686 238.45568,75.88026 C245.54948,78.89866 251.59328,83.24146 256.43028,88.79246 C260.56028,93.53146 264.22548,98.78286 267.32648,104.40246 L268.426341,106.412779 L268.426341,106.412779 L269.598574,108.579351 L269.598574,108.579351 L271.490016,112.117368 L271.490016,112.117368 L273.537596,115.994571 L273.537596,115.994571 L275.737296,120.20353 L275.737296,120.20353 L277.68368,123.95906 L365.21588,284.94646 L365.602261,285.642458 L365.602261,285.642458 L366.356478,287.015594 L366.356478,287.015594 L367.086064,288.363841 L367.086064,288.363841 L367.79114,289.687503 L367.79114,289.687503 L368.471824,290.986887 C368.583245,291.201445 368.693655,291.415004 368.803056,291.627571 L369.447374,292.891113 L369.447374,292.891113 L370.067598,294.131142 L370.067598,294.131142 L370.663845,295.347965 C370.955995,295.950626 371.239198,296.544699 371.513521,297.130357 L372.050349,298.290503 L372.050349,298.290503 L372.563616,299.428514 C372.814379,299.992037 373.056352,300.547374 373.289601,301.094697 L373.744488,302.17871 C374.261665,303.431046 374.731589,304.640377 375.15511,305.808891 L375.506784,306.800529 C376.187483,308.764018 376.732525,310.609391 377.146189,312.347671 L377.342093,313.207937 C377.619586,314.485102 377.82358,315.70306 377.95588,316.86646 C379.03808,326.36966 376.10928,335.79166 369.48728,344.11606 C362.85968,352.44046 353.78208,357.47346 343.23168,358.67466 C337.02828,359.38026 331.31768,358.79786 326.24828,356.94426 C321.28388,355.12846 316.90468,352.33406 313.23528,348.63806 C310.753659,346.144226 308.200709,342.805878 305.489823,338.500095 L304.778996,337.354821 C304.421735,336.771131 304.061658,336.170799 303.698574,335.553554 L302.362252,333.254413 L302.362252,333.254413 L300.954973,330.813502 L300.954973,330.813502 L299.610733,328.463889 L299.610733,328.463889 L298.331516,326.209113 L298.331516,326.209113 L297.515807,324.760365 L297.515807,324.760365 L296.349367,322.671515 L296.349367,322.671515 L295.61068,321.33666 L295.44548,321.02446 L283.37888,297.66826 L195.09488,307.71606 L188.432056,334.575588 L188.432056,334.575588 L188.055161,336.065338 L188.055161,336.065338 L187.680242,337.520551 L187.680242,337.520551 L187.307185,338.941554 L187.307185,338.941554 L186.935876,340.328677 L186.935876,340.328677 L186.566201,341.682246 L186.566201,341.682246 L186.198047,343.002588 L186.198047,343.002588 L185.831299,344.290032 L185.831299,344.290032 L185.465844,345.544905 L185.465844,345.544905 L185.101567,346.767534 L185.101567,346.767534 L184.738356,347.958248 L184.738356,347.958248 L184.376096,349.117373 L184.376096,349.117373 L184.014672,350.245238 C183.954499,350.430629 183.894355,350.614731 183.834239,350.79755 L183.473858,351.879138 L183.473858,351.879138 L183.11403,352.930285 L183.11403,352.930285 L182.75464,353.951318 C182.694772,354.118998 182.634918,354.285438 182.575074,354.450644 L182.216129,355.427119 L182.216129,355.427119 L181.857338,356.3743 L181.857338,356.3743 L181.498587,357.292514 C181.438792,357.443154 181.378994,357.5926 181.319191,357.74086 L180.960287,358.616237 L180.960287,358.616237 L180.601138,359.463465 L180.601138,359.463465 L180.241631,360.282872 C180.181677,360.41714 180.121703,360.550262 180.061707,360.682245 L179.701449,361.460536 C179.641355,361.587992 179.581235,361.714323 179.521086,361.839535 L179.15982,362.577446 C179.099544,362.698212 179.039235,362.817875 178.978889,362.936439 L178.61636,363.634707 C178.555859,363.748908 178.495318,363.862024 178.434733,363.974063 L178.070684,364.633425 C177.949148,364.84894 177.82742,365.0602 177.70548,365.26726 L177.436735,365.713654 L177.436735,365.713654 L177.153555,366.1649 C177.105136,366.240476 177.056101,366.316226 177.006442,366.392137 L176.70095,366.849429 C176.544404,367.078932 176.382116,367.309638 176.213886,367.541177 L175.869447,368.005255 C175.8107,368.08275 175.751279,368.160311 175.691176,368.237922 L175.322313,368.7041 C175.259452,368.781863 175.195894,368.859649 175.131632,368.937446 L174.737553,369.404243 C170.509774,374.304606 163.429213,379.137216 151.66268,380.47546 C150.18988,380.64206 148.72408,380.72746 147.26948,380.72746 C138.86668,380.72746 130.79708,377.94986 123.70748,372.57666 C115.20108,366.13526 110.11628,357.57986 109.00608,347.83586 C108.45028,342.95266 108.67988,337.82166 109.68368,332.58846 L109.851423,331.73347 L109.851423,331.73347 L110.033916,330.842191 L110.033916,330.842191 L110.335608,329.436091 L110.335608,329.436091 L110.555568,328.451811 L110.555568,328.451811 L110.790752,327.429418 L110.790752,327.429418 L111.172369,325.823227 L111.172369,325.823227 L111.446205,324.703273 L111.446205,324.703273 L111.735739,323.543382 L111.735739,323.543382 L112.199768,321.727526 L112.199768,321.727526 L112.699877,319.818882 L112.699877,319.818882 L113.236525,317.815692 L113.236525,317.815692 L113.614814,316.426838 L113.614814,316.426838 L114.00968,314.99466 L161.58728,137.51806 L166.45228,119.17806 L166.45228,119.17806 C168.58588,111.14206 171.16468,104.17986 174.11308,98.48046 C177.57668,91.79406 182.51028,86.09606 188.77948,81.53766 C195.24328,76.83786 203.34648,73.90766 212.86088,72.82406 Z M759.51216,253.76496 L753.80436,306.43856 L795.03716,310.90456 C808.87196,312.40536 819.65476,311.04456 826.22216,306.97056 L826.530372,306.77614 L826.530372,306.77614 L826.844322,306.570731 L826.844322,306.570731 L827.163341,306.353572 L827.163341,306.353572 L827.486762,306.123905 C827.540995,306.084542 827.595384,306.044627 827.649914,306.004144 L827.978684,305.754292 C828.088766,305.668649 828.199303,305.580605 828.310185,305.490034 L828.643749,305.210613 C828.978122,304.923356 829.314588,304.612215 829.65014,304.273774 L829.985276,303.926106 C830.096813,303.807099 830.208136,303.684933 830.319136,303.55948 L830.65105,303.173136 C830.76129,303.040984 830.871094,302.905419 830.980351,302.766315 L831.306372,302.338259 C831.630528,301.899333 831.948762,301.427414 832.258065,300.919089 L832.56428,300.398502 C834.180365,297.555965 835.51394,293.645478 836.10896,288.14896 C836.850442,281.302634 835.953509,276.753622 834.48818,273.615203 L834.269808,273.165889 C833.973566,272.579955 833.657672,272.04608 833.330073,271.557675 L833.082304,271.199794 C833.040685,271.141534 832.998914,271.083959 832.957006,271.027055 L832.704051,270.693594 L832.704051,270.693594 L832.448569,270.37564 L832.448569,270.37564 L832.191307,270.072577 L832.191307,270.072577 L831.933009,269.783786 L831.933009,269.783786 L831.67442,269.50865 L831.67442,269.50865 L831.416287,269.246551 L831.416287,269.246551 L831.159353,268.996872 L831.159353,268.996872 L830.904365,268.758996 L830.904365,268.758996 L830.52716,268.42296 L830.52716,268.42296 C824.62952,263.304513 814.001975,259.748262 799.764029,258.128262 L799.03556,258.04756 L759.51216,253.76496 Z M511.08258,195.94188 L511.06018,195.94188 C497.45638,195.94328 486.42158,206.96408 486.408958,220.57208 C486.396506,234.05093 497.204728,245.011903 510.630156,245.242 L511.06158,245.24568 C524.66538,245.24568 535.70018,234.22348 535.712802,220.61548 C535.72538,207.00188 524.69758,195.95448 511.08258,195.94188 Z M224.84348,180.28946 L211.01848,239.05166 L251.89148,234.39946 L224.84348,180.28946 Z M771.38136,144.21636 L766.65776,187.82216 L799.86016,191.42016 L801.104876,191.550408 L801.104876,191.550408 L802.314676,191.667701 L802.314676,191.667701 L803.490017,191.77243 C803.683061,191.788859 803.874689,191.804781 804.064909,191.820204 L805.189421,191.906816 L805.189421,191.906816 L806.280619,191.981837 C806.459734,191.993396 806.637481,192.004489 806.813868,192.015123 L807.855952,192.07349 L807.855952,192.07349 L808.865866,192.12124 L808.865866,192.12124 L809.844067,192.158764 L809.844067,192.158764 L810.791013,192.186453 L810.791013,192.186453 L811.707162,192.204694 C811.857312,192.206969 812.006198,192.208866 812.15383,192.210394 L813.02464,192.215197 L813.02464,192.215197 L813.865796,192.211527 L813.865796,192.211527 L814.677756,192.199776 L814.677756,192.199776 L815.460978,192.180332 L815.460978,192.180332 L816.215919,192.153585 L816.215919,192.153585 L816.943036,192.119925 L816.943036,192.119925 L817.642788,192.079743 L817.642788,192.079743 L818.315632,192.033427 L818.315632,192.033427 L818.962025,191.981368 L818.962025,191.981368 L819.883021,191.893363 L819.883021,191.893363 L820.46529,191.828651 L820.46529,191.828651 L821.022709,191.759559 L821.022709,191.759559 L821.555738,191.686479 L821.555738,191.686479 L822.310547,191.57023 L822.310547,191.57023 L823.01305,191.447199 L823.01305,191.447199 L823.453088,191.362059 L823.453088,191.362059 L824.071844,191.230645 L824.071844,191.230645 L824.457482,191.141136 L824.457482,191.141136 L824.82216,191.05056 L824.82216,191.05056 C828.577773,190.08456 831.529661,187.852004 834.078776,184.042027 L834.33236,183.65576 L834.61376,183.23716 C836.73476,180.20336 837.98636,176.69356 838.43856,172.51176 C838.77316,169.42581 838.759073,166.940635 838.524813,164.932641 L838.452002,164.371807 C838.438905,164.280463 838.425337,164.190174 838.411311,164.100927 L838.321775,163.577845 C838.305975,163.492713 838.289744,163.408596 838.273097,163.325482 L838.168336,162.838711 C838.131826,162.68039 838.093762,162.525971 838.054257,162.375346 L837.931527,161.934748 C837.910388,161.863176 837.888916,161.792527 837.867125,161.722786 L837.732666,161.315136 L837.732666,161.315136 L837.591221,160.92865 C837.542982,160.803278 837.49369,160.681326 837.443455,160.562688 L837.290035,160.21661 C837.238027,160.104493 837.185187,159.995584 837.131627,159.889775 L836.968897,159.581542 C836.941452,159.531684 836.913855,159.482575 836.886119,159.434201 L836.718155,159.15267 C836.689921,159.107183 836.661577,159.062404 836.633135,159.01832 L836.461436,158.76205 L836.461436,158.76205 L836.288079,158.52182 L836.288079,158.52182 L836.11373,158.29699 L836.11373,158.29699 L835.939056,158.086918 L835.939056,158.086918 L835.764723,157.890964 L835.764723,157.890964 L835.591397,157.708488 L835.591397,157.708488 L835.419743,157.538849 L835.419743,157.538849 L835.250429,157.381406 L835.250429,157.381406 L835.084119,157.235519 L835.084119,157.235519 L834.841747,157.036954 L834.841747,157.036954 L834.535319,156.806668 L834.535319,156.806668 L834.320963,156.657 L834.320963,156.657 L833.94176,156.40756 L833.94176,156.40756 L833.633561,156.212557 L833.633561,156.212557 L833.143175,155.914935 L833.143175,155.914935 L832.618092,155.611698 L832.618092,155.611698 L832.248209,155.406711 L832.248209,155.406711 L831.862075,155.199667 L831.862075,155.199667 L831.459362,154.990739 L831.459362,154.990739 L830.823478,154.6742 L830.823478,154.6742 L830.148424,154.354409 L830.148424,154.354409 L829.676075,154.1397 L829.676075,154.1397 L829.185488,153.923984 L829.185488,153.923984 L828.414689,153.598903 L828.414689,153.598903 L827.877061,153.381434 L827.877061,153.381434 L827.320035,153.16357 L827.320035,153.16357 L826.743282,152.945487 L826.743282,152.945487 L826.146469,152.727359 L826.146469,152.727359 L825.529266,152.509362 L825.529266,152.509362 L824.891341,152.29167 L824.891341,152.29167 L824.232363,152.074459 L824.232363,152.074459 L823.552,151.857904 L823.552,151.857904 L822.490635,151.534685 L822.490635,151.534685 L821.755361,151.320536 L821.755361,151.320536 L820.997544,151.107656 L820.997544,151.107656 L820.216851,150.896219 L820.216851,150.896219 L819.412951,150.686402 L819.412951,150.686402 L818.585514,150.478379 L818.585514,150.478379 L817.734207,150.272325 L817.734207,150.272325 L816.858699,150.068415 L816.858699,150.068415 L815.95866,149.866824 L815.95866,149.866824 L815.033757,149.667728 L815.033757,149.667728 L814.08366,149.471302 L814.08366,149.471302 L813.108038,149.27772 L813.108038,149.27772 L812.106558,149.087158 L812.106558,149.087158 L811.07889,148.899791 L811.07889,148.899791 L810.024702,148.715794 L810.024702,148.715794 L808.943663,148.535342 L808.943663,148.535342 L807.835442,148.35861 L807.835442,148.35861 L806.699707,148.185773 C806.508107,148.157301 806.315346,148.128999 806.121418,148.10087 L804.943792,147.934205 L804.943792,147.934205 L803.737824,147.771873 L803.737824,147.771873 L801.875006,147.536882 L801.875006,147.536882 L800.596734,147.386148 C800.381239,147.361433 800.164515,147.336924 799.946555,147.312625 L771.38136,144.21636 Z" id="Shape" fill="#5C8EB4"></path>
        </g>
    </g>
</svg>