<?xml version="1.0" encoding="UTF-8"?>
<svg width="1024px" height="1024px" viewBox="0 0 1024 1024" version="1.1" xmlns="http://www.w3.org/2000/svg" xmlns:xlink="http://www.w3.org/1999/xlink">
    <title>ic_dnd-ic_SocialMedia</title>
    <g id="切圖" stroke="none" stroke-width="1" fill="none" fill-rule="evenodd">
        <g id="ic_dnd-ic_SocialMedia">
            <rect id="bg" fill-opacity="0" fill="#FFFFFF" fill-rule="nonzero" opacity="0" x="64" y="64" width="896" height="896"></rect>
            <path d="M255.93818,566.55338 C286.01858,566.55338 310.49198,542.08138 310.49198,511.99958 C310.49198,481.91918 286.01858,457.44578 255.93818,457.44578 C225.85778,457.44578 201.38438,481.91918 201.38438,511.99958 C201.38438,542.08138 225.85778,566.55338 255.93818,566.55338 Z M748.46238,855.88718 C778.54278,855.88718 803.01618,831.41518 803.01618,801.33478 C803.01618,771.25298 778.54278,746.78098 748.46238,746.78098 C718.38058,746.78098 693.90858,771.25298 693.90858,801.33478 C693.90858,831.41518 718.38058,855.88718 748.46238,855.88718 Z M748.46238,277.21958 C778.54278,277.21958 803.01618,252.74758 803.01618,222.66578 C803.01618,192.58538 778.54278,168.11198 748.46238,168.11198 C718.38058,168.11198 693.90858,192.58538 693.90858,222.66578 C693.90858,252.74758 718.38058,277.21958 748.46238,277.21958 Z M255.93818,379.04578 C290.49858,379.04578 321.97618,392.23658 345.62078,413.85258 L619.04358,253.22918 C616.73498,243.41518 615.50858,233.18398 615.50858,222.66578 C615.50858,149.23718 675.03378,89.71198 748.46238,89.71198 C821.88958,89.71198 881.41618,149.23718 881.41618,222.66578 C881.41618,296.09438 821.88958,355.61958 748.46238,355.61958 C713.90198,355.61958 682.42438,342.43018 658.77978,320.81278 L385.35558,481.43758 C387.66418,491.25018 388.89198,501.48138 388.89198,511.99958 C388.89198,522.51778 387.66418,532.74898 385.35558,542.56298 L658.77978,703.18638 C682.42438,681.57038 713.90198,668.38098 748.46238,668.38098 C821.88958,668.38098 881.41618,727.90618 881.41618,801.33478 C881.41618,874.76198 821.88958,934.28718 748.46238,934.28718 C675.03378,934.28718 615.50858,874.76198 615.50858,801.33478 C615.50858,790.81518 616.73498,780.58538 619.04358,770.77138 L345.62078,610.14798 C321.97618,631.76398 290.49858,644.95338 255.93818,644.95338 C182.50958,644.95338 122.98438,585.42818 122.98438,511.99958 C122.98438,438.57098 182.50958,379.04578 255.93818,379.04578 Z" id="Shape" fill="#5C8EB4"></path>
        </g>
    </g>
</svg>