<?xml version="1.0" encoding="UTF-8"?>
<svg width="1024px" height="1024px" viewBox="0 0 1024 1024" version="1.1" xmlns="http://www.w3.org/2000/svg" xmlns:xlink="http://www.w3.org/1999/xlink">
    <title>ic_dnd-ic_SocialThumbs</title>
    <g id="切圖" stroke="none" stroke-width="1" fill="none" fill-rule="evenodd">
        <g id="ic_dnd-ic_SocialThumbs">
            <rect id="bg" fill-opacity="0" fill="#FFFFFF" fill-rule="nonzero" opacity="0" x="64" y="64" width="896" height="896"></rect>
            <path d="M836.4304,734.819153 C836.4304,775.522753 803.3162,808.636953 762.6126,808.636953 L485.7262,808.636953 C456.147,808.636953 427.2062,800.151553 402.0342,784.099153 L371.314,765.481953 L371.314,480.916553 L422.1522,466.143753 C497.3798,444.655153 549.919,375.003753 549.919,296.764753 L549.919,262.643953 C549.919,250.248353 554.8092,238.607353 563.6866,229.862953 C572.5598,221.124153 584.296,216.431353 596.6874,216.601629 C621.676,216.988553 642.0054,238.220953 642.0054,263.937553 L642.0054,438.800353 L762.6112,438.800353 C803.3162,438.800353 836.4304,471.914553 836.4304,512.619553 L836.4304,734.819153 Z M187.2,808.061553 L292.914,808.061553 L292.914,446.430353 L187.2,446.430353 L187.2,808.061553 Z M762.6112,360.400353 L720.4054,360.400353 L720.4054,263.937553 C720.4054,231.029153 707.8334,199.867953 685.005,176.191153 C661.8798,152.207753 630.9398,138.720153 597.8844,138.214753 C564.3054,137.705153 532.6276,150.412953 508.6736,174.005753 C484.714,197.601353 471.519,229.081753 471.519,262.643953 L471.519,296.764753 C471.519,340.182953 442.3626,378.835553 400.6146,390.760753 L366.1746,400.601353 C357.3056,381.379353 337.8736,368.031753 315.314,368.031753 L164.8,368.031753 C133.8726,368.031753 108.8,393.102953 108.8,424.031753 L108.8,830.461553 C108.8,861.390353 133.8726,886.461553 164.8,886.461553 L315.314,886.461553 C337.8232,886.461553 357.2202,873.174153 366.1172,854.019353 C402.422,875.629753 443.6128,887.036953 485.7262,887.036953 L762.6126,887.036953 C846.5454,887.036953 914.8304,818.751953 914.8304,734.819153 L914.8304,512.619553 C914.8304,428.685353 846.5454,360.400353 762.6112,360.400353 L762.6112,360.400353 Z" id="icon-shape" fill="#5C8EB4"></path>
        </g>
    </g>
</svg>