<?xml version="1.0" encoding="UTF-8"?>
<svg width="1024px" height="1024px" viewBox="0 0 1024 1024" version="1.1" xmlns="http://www.w3.org/2000/svg" xmlns:xlink="http://www.w3.org/1999/xlink">
    <title>ic_up-down</title>
    <g id="切圖" stroke="none" stroke-width="1" fill="none" fill-rule="evenodd">
        <g id="slice" transform="translate(0.000000, -4211.000000)">
            <g id="ic_up-down" transform="translate(0.000000, 4211.000000)">
                <rect id="bg" fill-opacity="0" fill="#FFFFFF" x="64" y="64" width="896" height="896"></rect>
                <path d="M725.787945,580.248537 C734.624501,580.248537 741.787945,587.411981 741.787945,596.248537 C741.787945,599.775588 740.622513,603.203802 738.472876,606.000077 L524.954303,883.747814 C519.568676,890.753508 509.523526,892.066831 502.517832,886.681204 C501.416881,885.834848 500.430798,884.848765 499.584442,883.747814 L286.065869,606.000077 C280.680242,598.994383 281.993566,588.949233 288.999259,583.563606 C291.795535,581.41397 295.223748,580.248537 298.7508,580.248537 L725.787945,580.248537 Z M502.517832,137.315869 C509.430117,132.002051 519.301346,133.209735 524.736411,139.97207 L524.954303,140.249259 L738.472876,417.996996 C740.622513,420.793272 741.787945,424.221485 741.787945,427.748537 C741.787945,436.479896 734.794044,443.577741 726.102816,443.748537 L725.787945,443.748537 L298.7508,443.748537 C295.223748,443.748537 291.795535,442.583104 288.999259,440.433467 C282.086975,435.119649 280.716276,425.269732 285.854015,418.278827 L286.065869,417.996996 L499.584442,140.249259 C500.430798,139.148308 501.416881,138.162225 502.517832,137.315869 Z" id="Shape" fill="#000000"></path>
            </g>
        </g>
    </g>
</svg>