<?xml version="1.0" encoding="UTF-8"?>
<svg width="1024px" height="1024px" viewBox="0 0 1024 1024" version="1.1" xmlns="http://www.w3.org/2000/svg" xmlns:xlink="http://www.w3.org/1999/xlink">
    <title>ic_dnd-ic_Video</title>
    <g id="切圖" stroke="none" stroke-width="1" fill="none" fill-rule="evenodd">
        <g id="ic_dnd-ic_Video">
            <rect id="bg" fill-opacity="0" fill="#FFFFFF" fill-rule="nonzero" opacity="0" x="64" y="64" width="896" height="896"></rect>
            <path d="M510.96092,94.80056 C741.57452,94.80056 928.52212,281.74816 928.52212,512.36176 C928.52212,742.97396 741.57452,929.92296 510.96092,929.92296 C280.34872,929.92296 93.39972,742.97396 93.39972,512.36176 C93.39972,281.74816 280.34872,94.80056 510.96092,94.80056 Z M510.96092,173.20056 C465.14032,173.20056 420.73092,182.15636 378.96892,199.82156 C338.59012,216.89876 302.31192,241.36516 271.13812,272.53896 C239.96572,303.71136 215.49932,339.99096 198.42072,380.36836 C180.75692,422.13176 171.79972,466.53976 171.79972,512.36176 C171.79972,558.18236 180.75692,602.59036 198.42072,644.35516 C215.49932,684.73116 239.96572,721.01076 271.13812,752.18456 C302.31192,783.35836 338.59012,807.82336 378.96892,824.90196 C420.73092,842.56576 465.14032,851.52296 510.96092,851.52296 C556.78152,851.52296 601.19092,842.56576 642.95432,824.90196 C683.33172,807.82336 719.61132,783.35836 750.78512,752.18456 C781.95752,721.01076 806.42392,684.73116 823.50252,644.35516 C841.16632,602.59036 850.12212,558.18236 850.12212,512.36176 C850.12212,466.53976 841.16632,422.13176 823.50252,380.36836 C806.42392,339.99096 781.95752,303.71136 750.78512,272.53896 C719.61132,241.36516 683.33172,216.89876 642.95432,199.82156 C601.19092,182.15636 556.78152,173.20056 510.96092,173.20056 Z M439.0558,330.20762 C447.465567,330.20762 456.091709,332.475538 464.117557,337.456236 L464.6898,337.81662 L674.1718,471.70422 C703.502332,490.44987 703.795637,533.216203 675.051716,552.442266 L674.1718,553.01762 L464.6898,686.90662 C456.5012,692.13982 447.6686,694.51562 439.0558,694.51562 C414.328174,694.51562 391.435099,674.920089 390.97971,647.096273 L390.9728,646.25062 L390.9728,378.47262 C390.9728,350.19822 414.077,330.20762 439.0558,330.20762 Z M469.3728,433.85522 L469.3728,590.86802 L592.2046,512.36162 L469.3728,433.85522 Z" id="Shape" fill="#5C8EB4"></path>
        </g>
    </g>
</svg>