<?xml version="1.0" encoding="UTF-8"?>
<svg width="1024px" height="1024px" viewBox="0 0 1024 1024" version="1.1" xmlns="http://www.w3.org/2000/svg" xmlns:xlink="http://www.w3.org/1999/xlink">
    <title>ic_dnd-ic_ViewTracking</title>
    <g id="切圖" stroke="none" stroke-width="1" fill="none" fill-rule="evenodd">
        <g id="ic_dnd-ic_ViewTracking">
            <rect id="bg" fill-opacity="0" fill="#FFFFFF" fill-rule="nonzero" opacity="0" x="64" y="64" width="896" height="896"></rect>
            <path d="M858.18374,79.94964 C889.568324,79.94964 915.069172,105.136642 915.58374,136.400413 L915.58374,137.34964 L915.58374,884.31124 C915.58374,915.694438 890.396738,941.196644 859.132967,941.71124 L858.18374,941.71124 L340.45114,941.71124 C309.066556,941.71124 283.565708,916.522866 283.05883,885.260426 L283.05114,884.31124 L283.050498,548.744492 C218.873353,525.817904 158.80949,476.74666 102.85938,401.53076 C90.24678,384.57536 90.24678,361.35356 102.85938,344.39676 C158.80949,269.18086 218.873353,220.109616 283.050498,197.183028 L283.05114,137.34964 C283.05114,105.965056 308.238142,80.4642083 339.501913,79.94964 L340.45114,79.94964 L858.18374,79.94964 Z M848.38374,147.14964 L350.251051,147.14964 L350.251051,182.840977 C356.741876,182.350032 363.271319,182.10456 369.83938,182.10456 C467.34378,182.10456 556.33758,236.20196 636.81798,344.39676 C649.43198,361.35356 649.43198,384.57536 636.81798,401.53076 C556.33758,509.72556 467.34378,563.82296 369.83938,563.82296 C363.271319,563.82296 356.741876,563.577488 350.251051,563.086543 L350.251051,874.51124 L848.38374,874.51124 L848.38374,147.14964 Z M737.76288,492.06372 C762.534435,492.06372 782.662134,511.943703 783.06221,536.619904 L783.06828,537.36912 L783.06828,779.64892 C783.06828,804.420475 763.188297,824.548174 738.512096,824.94825 L737.76288,824.95432 L460.87228,824.95432 C436.100725,824.95432 415.973026,805.073917 415.57295,780.397716 L415.56688,779.6485 L415.56688,675.8147 C415.56688,651.043145 435.446863,630.915446 460.123064,630.51537 L460.87228,630.5093 L519.39988,630.50872 L519.40068,606.59198 C519.40068,581.820425 539.280663,561.692726 563.956864,561.29265 L564.70608,561.28658 L623.23388,561.28572 L623.23448,537.36912 C623.23448,512.597565 643.114463,492.469866 667.790664,492.06979 L668.53988,492.06372 L737.76288,492.06372 Z M519.39988,686.50772 L471.568,686.5086 L471.568,768.9532 L519.39988,768.9532 L519.39988,686.50772 Z M623.23388,617.28472 L575.4018,617.28472 L575.4018,768.9532 L623.23388,768.9532 L623.23388,617.28472 Z M727.0694,548.0626 L679.2356,548.0626 L679.2356,768.9532 L727.0694,768.9532 L727.0694,548.0626 Z M369.83938,249.30456 C333.29658,249.30456 298.96158,259.37756 264.87158,280.10036 C231.10218,300.62856 197.74298,331.83596 165.57938,372.96376 C197.74298,414.09296 231.10218,445.29896 264.87158,465.82716 C298.96158,486.54996 333.29658,496.62296 369.83938,496.62296 C406.38218,496.62296 440.71718,486.54996 474.80718,465.82716 C508.57658,445.29896 541.93438,414.09296 574.09938,372.96376 C541.93438,331.83596 508.57658,300.62856 474.80718,280.10036 C440.71718,259.37756 406.38218,249.30456 369.83938,249.30456 Z M369.83938,290.68996 L371.199923,290.700982 C416.010804,291.427528 452.11318,327.979744 452.11318,372.96376 C452.11318,418.40356 415.27778,455.23756 369.83938,455.23756 C324.40098,455.23756 287.56418,418.40356 287.56418,372.96376 C287.56418,327.52536 324.40098,290.68996 369.83938,290.68996 Z M369.83938,346.68996 C355.35078,346.68996 343.56418,358.47656 343.56418,372.96376 C343.56418,387.45096 355.35078,399.23756 369.83938,399.23756 C384.32658,399.23756 396.11318,387.45096 396.11318,372.96376 C396.11318,358.47656 384.32658,346.68996 369.83938,346.68996 Z" id="Shape" fill="#5C8EB4"></path>
        </g>
    </g>
</svg>