<svg width="182" height="140" viewBox="0 0 182 140" fill="none" xmlns="http://www.w3.org/2000/svg">
  <path d="M49 19C49 16.7909 50.7909 15 53 15H158C160.209 15 162 16.7909 162 19V105C162 107.209 160.209 109 158 109H49V19Z" fill="#A4ADBB"/>
  <path d="M95 15H116V92H95V15Z" fill="#E6EBF1"/>
  <path d="M52 92C50.3431 92 49 90.6569 49 89V82C49 80.8954 48.1046 80 47 80H16C14.8954 80 14 80.8954 14 82V103C14 106.314 16.6863 109 20 109H158C160.209 109 162 107.209 162 105V92H52Z" fill="#C4CAD5"/>
  <path d="M28.3186 57.5H45.5V79.5L18.051 79.5L26.9364 58.4174C27.1707 57.8615 27.7153 57.5 28.3186 57.5Z" fill="white" stroke="#C4CAD5" stroke-width="7"/>
  <circle cx="44" cy="112" r="16" fill="#A4ADBB"/>
  <circle cx="133" cy="112" r="16" fill="#A4ADBB"/>
  <circle cx="44" cy="112" r="8" fill="#C4CAD5"/>
  <circle cx="133" cy="112" r="8" fill="#C4CAD5"/>
  <rect x="61.2197" y="76.0752" width="18" height="5" rx="2.5" fill="#E6EBF1"/>
</svg>
