<?xml version="1.0" encoding="UTF-8"?>
<svg width="24px" height="24px" viewBox="0 0 24 24" version="1.1" xmlns="http://www.w3.org/2000/svg" xmlns:xlink="http://www.w3.org/1999/xlink">
    <!-- Generator: sketchtool 56.2 (101010) - https://sketch.com -->
    <title>C2E1E66D-5CCD-4A5B-ABAF-D5E0F55604B1</title>
    <desc>Created with sketchtool.</desc>
    <g id="Page-1" stroke="none" stroke-width="1" fill="none" fill-rule="evenodd">
        <g id="子選單" transform="translate(-1136.000000, -195.000000)">
            <g id="icon/子選單/account-setting" transform="translate(1136.000000, 195.000000)">
                <rect id="Rectangle" fill="#D8D8D8" opacity="0" x="0" y="0" width="24" height="24"></rect>
                <path d="M18.1861674,14.335859 C15.1745374,14.4690749 12.924141,16.12 12.924141,19.1268722 C12.924141,20.2782379 13.5664317,21.486696 14.1754185,22.3668722 C13.3570925,22.4762996 11.958326,22.5904846 11.1352423,22.5952423 C9.43674009,22.5809692 7.72396476,22.3145374 6.06828194,21.962467 C5.21189427,21.781674 4.36026432,21.5628194 3.53242291,21.2630837 C2.87110132,21.0251982 2.48096916,20.9157709 2.50951542,20.1259912 C2.54757709,19.1078414 2.66651982,18.0896916 2.84255507,17.085815 C3.06140969,15.8725991 3.33259912,14.0932159 4.39356828,13.3034361 C5.00731278,12.8419383 5.80185022,12.6944493 6.50123348,12.4185022 C6.83903084,12.2852863 7.14828194,12.1520705 7.43374449,11.9998238 C8.39955947,13.060793 9.66511013,13.6174449 11.1352423,13.6174449 C12.6053744,13.6174449 13.8661674,13.060793 14.8367401,11.9998238 C15.1222026,12.1520705 15.426696,12.2852863 15.7692511,12.4185022 C16.4686344,12.6944493 17.2631718,12.846696 17.8769163,13.3034361 C18.0814978,13.4556828 18.257533,13.6459912 18.4097797,13.8648458 C18.4668722,14.0551542 18.5572687,14.3215859 18.1861674,14.335859 Z M11.025815,1.00951542 C14.8890749,1.00951542 15.3220264,3.62625551 15.3220264,6.84246696 C15.3220264,10.0634361 13.3999119,12.6754185 11.025815,12.6754185 C8.65171806,12.6754185 6.72960352,10.0634361 6.72960352,6.84246696 C6.72960352,3.6214978 7.32907489,1.00951542 11.025815,1.00951542 Z M20.6649339,17.9897797 C20.7886344,18.0135683 20.8790308,18.1229956 20.8647577,18.2514537 L20.8647577,18.9888987 C20.8647577,19.1173568 20.7696035,19.2315419 20.6411454,19.2505727 L20.2367401,19.3124229 C20.0559471,19.3409692 19.9084581,19.4551542 19.8370925,19.621674 C19.7657269,19.7929515 19.78,19.9737445 19.8846696,20.1259912 L20.1035242,20.4495154 C20.1748899,20.554185 20.1606167,20.6969163 20.0702203,20.7873128 L19.55163,21.3059031 C19.4612335,21.4010573 19.3137445,21.4105727 19.2090749,21.3344493 L18.9759471,21.1631718 C18.8284581,21.0537445 18.6381498,21.0299559 18.4668722,21.1013216 C18.2955947,21.1726872 18.176652,21.3249339 18.1481057,21.5057269 L18.1052863,21.7864317 C18.0862555,21.9148899 17.9768282,22.0100441 17.8436123,22.0100441 L17.1061674,22.0100441 C16.9777093,22.0100441 16.8682819,21.9196476 16.8444934,21.7959471 L16.7731278,21.4105727 C16.7398238,21.2297797 16.6208811,21.0870485 16.4496035,21.0204405 C16.278326,20.9538326 16.097533,20.9776211 15.9500441,21.0870485 L15.6217621,21.3296916 C15.5170925,21.405815 15.3696035,21.3915419 15.279207,21.3011454 L14.7606167,20.7825551 C14.6702203,20.6921586 14.6559471,20.5494273 14.7273128,20.4447577 L14.9461674,20.1212335 C15.050837,19.9689868 15.0651101,19.7834361 14.9937445,19.6169163 C14.9223789,19.4456388 14.7748899,19.3362115 14.5940969,19.3076652 L14.1896916,19.245815 C14.0612335,19.2267841 13.9660793,19.1173568 13.9660793,18.984141 L13.9660793,18.2514537 C13.9660793,18.1229956 14.0564758,18.0135683 14.1801762,17.9897797 L14.5655507,17.9184141 C14.7463436,17.8851101 14.8890749,17.7661674 14.9556828,17.5948899 C15.0222907,17.4236123 14.9985022,17.2428194 14.8890749,17.0953304 L14.6464317,16.7670485 C14.5703084,16.6623789 14.5798238,16.5148899 14.674978,16.4244934 L15.1935683,15.9059031 C15.2839648,15.8155066 15.426696,15.8012335 15.5313656,15.8725991 L15.9500441,16.153304 C16.097533,16.2579736 16.278326,16.2770044 16.4448458,16.2056388 C16.6113656,16.1342731 16.7255507,15.9962996 16.7588546,15.8202643 L16.8540088,15.3254626 C16.8777974,15.2017621 16.9872247,15.1113656 17.1156828,15.1113656 L17.8531278,15.1113656 C17.9815859,15.1113656 18.0957709,15.2065198 18.1148018,15.334978 L18.176652,15.7393833 C18.2051982,15.9201762 18.3193833,16.0676652 18.4859031,16.1390308 C18.6571806,16.2103965 18.8379736,16.1961233 18.9902203,16.0914537 L19.3137445,15.8725991 C19.4184141,15.8012335 19.5611454,15.8155066 19.6515419,15.9059031 L20.1701322,16.4244934 C20.2652863,16.5148899 20.2748018,16.6623789 20.1986784,16.7670485 L19.9560352,17.0953304 C19.8466079,17.2428194 19.8228194,17.4236123 19.8894273,17.5948899 C19.9560352,17.7661674 20.0987665,17.8851101 20.2795595,17.9184141 L20.6649339,17.9897797 Z M17.4296916,19.883348 C18.1623789,19.883348 18.7570925,19.2886344 18.7570925,18.5559471 C18.7570925,17.8232599 18.1623789,17.2285463 17.4296916,17.2285463 C16.6970044,17.2285463 16.1022907,17.8232599 16.1022907,18.5559471 C16.1022907,19.2886344 16.6970044,19.883348 17.4296916,19.883348 Z" id="Mask" fill="#D9FCFF" fill-rule="nonzero"></path>
            </g>
        </g>
    </g>
</svg>