<?xml version="1.0" encoding="UTF-8"?>
<svg width="24px" height="24px" viewBox="0 0 24 24" version="1.1" xmlns="http://www.w3.org/2000/svg" xmlns:xlink="http://www.w3.org/1999/xlink">
    <!-- Generator: sketchtool 56.2 (101010) - https://sketch.com -->
    <title>D8CE645B-5C22-4B36-8D40-BEB71F256B36</title>
    <desc>Created with sketchtool.</desc>
    <g id="Page-1" stroke="none" stroke-width="1" fill="none" fill-rule="evenodd">
        <g id="子選單" transform="translate(-1080.000000, -269.000000)">
            <g id="icon/子選單/ads-analytics" transform="translate(1080.000000, 269.000000)">
                <rect id="Rectangle" fill="#D8D8D8" opacity="0" x="0" y="0" width="24" height="24"></rect>
                <path d="M2.771266,6.45633001 L7.09815078,6.0056899 L7.09815078,12.6150782 L2.771266,12.1644381 C2.37069701,12.0142248 2.09530583,11.6386913 2.09530583,11.2130868 L2.09530583,7.40768137 C2.09530583,6.98207681 2.37069701,6.60654339 2.771266,6.45633001 Z M20.0953058,7.19314226 L20.0953058,11.1931423 C21.2453058,10.9099564 22.0953058,10.1311954 22.0953058,9.21084137 C22.0953058,8.29048739 21.2453058,7.51172633 20.0953058,7.19314226 Z M18.6887841,2.37553343 C18.4257406,2.17524893 18.114871,2.15021337 17.8040015,2.25035562 L8.09530583,5.65519203 L8.09530583,12.9405405 L17.7800884,16.345377 C17.7800884,16.345377 17.7800884,16.345377 17.8040015,16.345377 C18.090958,16.4705548 18.4257406,16.4204836 18.6887841,16.2201991 C18.9518276,16.0199147 19.0953058,15.7194879 19.0953058,15.3940256 L19.0953058,3.20170697 C19.0953058,2.87624467 18.9518276,2.57581792 18.6887841,2.37553343 Z M5.09957326,20.3260313 C5.09957326,21.1522048 5.77553343,21.828165 6.60170697,21.828165 C7.42788051,21.828165 8.10384068,21.1522048 8.10384068,20.3260313 L8.10384068,13.8167852 L5.09957326,13.8167852 L5.09957326,20.3260313 Z" id="Mask" fill="#D9FCFF" fill-rule="nonzero"></path>
            </g>
        </g>
    </g>
</svg>