<?xml version="1.0" encoding="UTF-8"?>
<svg width="24px" height="24px" viewBox="0 0 24 24" version="1.1" xmlns="http://www.w3.org/2000/svg" xmlns:xlink="http://www.w3.org/1999/xlink">
    <!-- Generator: sketchtool 56.2 (101010) - https://sketch.com -->
    <title>2F231981-AE6D-4E6F-94BE-F1643164FA0E</title>
    <desc>Created with sketchtool.</desc>
    <g id="Page-1" stroke="none" stroke-width="1" fill="none" fill-rule="evenodd">
        <g id="子選單" transform="translate(-1080.000000, -195.000000)">
            <g id="icon/子選單/marketing-activities" transform="translate(1080.000000, 195.000000)">
                <rect id="Rectangle" fill="#D8D8D8" opacity="0" x="0" y="0" width="24" height="24"></rect>
                <path d="M23.2444911,10.1993704 L21.9853095,8.94018888 C21.5068206,8.4616999 21.2298006,7.8069255 21.2298006,7.12696747 L21.2298006,5.3389297 C21.2298006,3.92864638 20.0965373,2.77019937 18.6610703,2.77019937 L16.8982162,2.77019937 C16.2182581,2.77019937 15.5634837,2.49317943 15.0849948,2.01469045 L13.8258132,0.755508919 C12.818468,-0.251836306 11.2067156,-0.251836306 10.1993704,0.755508919 L8.94018888,2.01469045 C8.4616999,2.49317943 7.8069255,2.77019937 7.12696747,2.77019937 L5.3389297,2.77019937 C3.92864638,2.77019937 2.77019937,3.90346275 2.77019937,5.3389297 L2.77019937,7.10178384 C2.77019937,7.78174187 2.49317943,8.43651626 2.01469045,8.91500525 L0.755508919,10.1741868 C-0.251836306,11.181532 -0.251836306,12.7932844 0.755508919,13.8006296 L2.01469045,15.0598111 C2.49317943,15.5383001 2.77019937,16.1930745 2.77019937,16.8730325 L2.77019937,18.6610703 C2.77019937,20.0713536 3.90346275,21.2298006 5.3389297,21.2298006 L7.10178384,21.2298006 C7.78174187,21.2298006 8.43651626,21.5068206 8.91500525,21.9853095 L10.1741868,23.2444911 C11.181532,24.2518363 12.7932844,24.2518363 13.8006296,23.2444911 L15.0598111,21.9853095 C15.5383001,21.5068206 16.1930745,21.2298006 16.8730325,21.2298006 L18.6610703,21.2298006 C20.0713536,21.2298006 21.2298006,20.0965373 21.2298006,18.6610703 L21.2298006,16.8982162 C21.2298006,16.2182581 21.5068206,15.5634837 21.9853095,15.0849948 L23.2444911,13.8258132 C24.2518363,12.818468 24.2518363,11.181532 23.2444911,10.1993704 Z M8.91500525,7.17733473 C9.82161595,7.17733473 10.5519412,7.90766002 10.5519412,8.81427072 C10.5519412,9.72088143 9.82161595,10.4512067 8.91500525,10.4512067 C8.00839454,10.4512067 7.25288562,9.72088143 7.25288562,8.81427072 C7.25288562,7.90766002 7.98321091,7.17733473 8.91500525,7.17733473 Z M9.39349423,16.0671563 C9.19202518,16.2686254 8.94018888,16.3693599 8.68835257,16.3693599 C8.43651626,16.3693599 8.15949633,16.2686254 7.98321091,16.0671563 C7.58027282,15.6642183 7.58027282,15.0346275 7.98321091,14.6316894 L14.7576076,7.85729276 C15.1605456,7.45435467 15.7901364,7.45435467 16.1930745,7.85729276 C16.5960126,8.26023085 16.5960126,8.88982162 16.1930745,9.29275971 L9.39349423,16.0671563 Z M15.2109129,16.772298 C14.3043022,16.772298 13.5487933,16.0419727 13.5487933,15.135362 C13.5487933,14.2287513 14.2791186,13.498426 15.2109129,13.498426 C16.1175236,13.498426 16.8478489,14.2287513 16.8478489,15.135362 C16.8478489,16.0419727 16.1175236,16.772298 15.2109129,16.772298 Z" id="Mask" fill="#D9FCFF" fill-rule="nonzero"></path>
            </g>
        </g>
    </g>
</svg>