<?xml version="1.0" encoding="UTF-8"?>
<svg width="25px" height="25px" viewBox="0 0 25 25" version="1.1" xmlns="http://www.w3.org/2000/svg" xmlns:xlink="http://www.w3.org/1999/xlink">
    <!-- Generator: sketchtool 56.2 (101010) - https://sketch.com -->
    <title>769F3225-9B3F-46C5-8CEF-558153F1D1D6</title>
    <desc>Created with sketchtool.</desc>
    <g id="Page-1" stroke="none" stroke-width="1" fill="none" fill-rule="evenodd">
        <g id="-Hover-增加文字提示" transform="translate(-641.000000, -87.000000)">
            <g id="icon/file-manager" transform="translate(641.000000, 87.000000)">
                <rect id="Rectangle" fill="#D8D8D8" opacity="0" x="0" y="0" width="25" height="25"></rect>
                <path d="M1.22924662,4.86777768 C1.02683961,5.08515703 0.946762811,5.36637913 1.03648472,5.70892054 L3.04289081,18.7378028 C3.04296566,18.7406996 3.04296566,18.7435978 3.04289081,18.7464946 C3.1847075,19.2878542 3.86892113,19.7716515 4.55868632,19.7716515 L22.9062551,19.7716515 C23.2511517,19.7716515 23.5189716,19.6509475 23.6773027,19.4824946 C23.8283439,19.3218083 23.890953,19.1134853 23.835017,18.8604134 C23.8308708,18.8490765 23.8279568,18.8373263 23.8263252,18.8253658 L22.003849,9.72181684 C21.9867457,9.65674042 21.9568011,9.59194439 21.9249778,9.52905494 L21.9249778,9.52036313 C21.6895419,9.0636506 21.0910688,8.6879962 20.4880254,8.6879962 L17.7455633,8.6879962 L17.2461207,8.6879962 L14.9592776,8.6879962 L14.1356585,8.6879962 C14.1240078,8.68921632 14.1122616,8.68921632 14.1006109,8.6879962 C14.0946537,8.68543631 14.0888495,8.6825342 14.0832273,8.67930439 C14.0574291,8.67330232 14.0334126,8.66129404 14.013132,8.64425677 C14.0069213,8.63020209 14.0011113,8.62439204 13.9957484,8.61818134 C13.9956736,8.61528455 13.9956736,8.61238631 13.9957484,8.60948953 C13.9891405,8.60126858 13.9833204,8.59244446 13.9783648,8.58313372 L13.3825553,6.49780039 C13.3789371,6.48926947 13.37603,6.48045422 13.3738635,6.47144458 L13.047619,5.5952381 C12.7538078,4.89753813 12.2794944,4.49999685 11.4047619,4.49999685 L4.76106529,4.49999685 L2.52670948,4.49999685 L2.1937571,4.49999685 C1.76171809,4.49977768 1.43165363,4.65042637 1.22924662,4.86777768 Z M14.7466051,8.07463482 L15.5199273,8.07463482 L17.5263895,8.07463482 L18.0258321,8.07463482 L20.7682942,8.07463482 C21.0836948,8.07463482 21.3941606,8.1506461 21.6707844,8.28492054 C21.8531442,8.37346484 22.018597,8.49304732 22.1614511,8.6266208 C22.3797277,8.83076618 22.5441992,9.07573501 22.6170702,9.35387292 L24,14.9047619 L23.7829502,7.53691463 C23.7829502,6.860804 23.4719517,6.32225387 22.6082942,6.32225387 L14.4366888,6.32225387 C14.2818387,6.32225387 14.1563078,6.4477847 14.1563078,6.60263482 C14.1563078,6.62644727 14.1593413,6.65016272 14.1653351,6.6732085 L14.4752514,7.86482754 C14.5073865,7.98838631 14.6189358,8.07463482 14.7466051,8.07463482 Z" id="Mask" fill="#D9FCFF" fill-rule="nonzero"></path>
            </g>
        </g>
    </g>
</svg>