<?xml version="1.0" encoding="UTF-8"?>
<svg width="24px" height="24px" viewBox="0 0 24 24" version="1.1" xmlns="http://www.w3.org/2000/svg" xmlns:xlink="http://www.w3.org/1999/xlink">
    <!-- Generator: sketchtool 56.2 (101010) - https://sketch.com -->
    <title>878AF9D2-1C5D-43FE-BB75-F384E02F142F</title>
    <desc>Created with sketchtool.</desc>
    <g id="Page-1" stroke="none" stroke-width="1" fill="none" fill-rule="evenodd">
        <g id="子選單" transform="translate(-1136.000000, -307.000000)">
            <g id="icon/子選單/logout" transform="translate(1136.000000, 307.000000)">
                <rect id="Rectangle" fill="#D8D8D8" opacity="0" x="0" y="0" width="24" height="24"></rect>
                <path d="M5.21142857,22.7857143 C4.37789103,22.7857143 3.57849302,22.4545928 2.98909297,21.8651927 C2.39969293,21.2757927 2.06857143,20.4763947 2.06857143,19.6428571 L2.06857143,3.64285714 C2.06857143,1.90710507 3.4756765,0.5 5.21142857,0.5 L14.8571429,0.5 C16.5928949,0.5 18,1.90710507 18,3.64285714 L18,5.64285714 C18,6.11624407 17.6162441,6.5 17.1428571,6.5 C16.6694702,6.5 16.2857143,6.11624407 16.2857143,5.64285714 L16.2857143,3.64285714 C16.2857143,2.85387893 15.6461211,2.21428571 14.8571429,2.21428571 L5.21142857,2.21428571 C4.42245036,2.21428571 3.78285714,2.85387893 3.78285714,3.64285714 L3.78285714,19.6428571 C3.78285714,20.4318354 4.42245036,21.0714286 5.21142857,21.0714286 L14.8571429,21.0714286 C15.6461211,21.0714286 16.2857143,20.4318354 16.2857143,19.6428571 L16.2857143,17.6428571 C16.2857143,17.1694702 16.6694702,16.7857143 17.1428571,16.7857143 C17.6162441,16.7857143 18,17.1694702 18,17.6428571 L18,19.6428571 C18,20.4763947 17.6688785,21.2757927 17.0794785,21.8651927 C16.4900784,22.4545928 15.6906804,22.7857143 14.8571429,22.7857143 L5.21142857,22.7857143 Z M21.0742857,10.7857143 C21.3805134,10.7857143 21.6634794,10.9490848 21.8165932,11.2142857 C21.9697071,11.4794866 21.9697071,11.8062277 21.8165932,12.0714286 C21.6634794,12.3366295 21.3805134,12.5 21.0742857,12.5 L9.87142857,12.5 L13.0485714,15.6428571 C13.3262239,15.9831051 13.3018004,16.478163 12.9920056,16.7894295 C12.6822109,17.1006959 12.1872743,17.1274654 11.8457143,16.8514286 L7.18,12.2514286 C7.01684996,12.090376 6.92501483,11.8706792 6.92501483,11.6414286 C6.92501483,11.4121779 7.01684996,11.1924811 7.18,11.0314286 L11.8457143,6.42285714 C12.1856092,6.11015403 12.7121495,6.12298265 13.0364128,6.4518673 C13.3606762,6.78075195 13.3660528,7.30742104 13.0485714,7.64285714 L9.87142857,10.7857143 L21.0742857,10.7857143 Z" id="Combined-Shape" fill="#D9FCFF" fill-rule="nonzero"></path>
            </g>
        </g>
    </g>
</svg>