<?xml version="1.0" encoding="UTF-8"?>
<svg width="31px" height="31px" viewBox="0 0 31 31" version="1.1" xmlns="http://www.w3.org/2000/svg" xmlns:xlink="http://www.w3.org/1999/xlink">
    <!-- Generator: sketchtool 56.2 (101010) - https://sketch.com -->
    <title>5B87DFBC-6DD7-477F-A8A8-3AE8C4ADE541</title>
    <desc>Created with sketchtool.</desc>
    <g id="Page-1" stroke="none" stroke-width="1" fill="none" fill-rule="evenodd">
        <g id="-Hover-增加文字提示" transform="translate(-797.000000, -59.000000)">
            <g id="Logo" transform="translate(797.000000, 59.000000)">
                <rect id="Rectangle" fill-opacity="0" fill="#FFFFFF" x="0" y="0" width="31" height="31"></rect>
                <path d="M17.8025385,5.0728883 C24.6763744,6.23108085 29.6423645,12.4211695 30.7610041,18.2573595 C30.9181046,19.0768465 31,19.8894114 31,20.6799201 C31,21.1185245 30.9749714,21.5425225 30.92587,21.9521486 C30.1879156,28.1102087 24.005561,31 15.4954901,31 C7.00531055,31 0.840458064,28.123466 0.0797449549,21.9951468 C0.0272387262,21.5722047 0,21.1340109 0,20.6799201 C0,20.2952833 0.0203095765,19.9051911 0.0581212293,19.5118139 C0.639871129,13.4574069 5.62479695,6.5811666 12.7693476,5.14926424 L12.7927633,5.09113171 C12.7971836,5.08227397 12.8013053,5.07341624 12.8052477,5.06444119 C13.391179,3.72457712 14.2359977,2.81352118 15.2713082,2.28604613 C16.5027256,1.65867228 17.8499673,1.95455575 19.1666252,1.89184769 C19.3399137,1.88357656 19.5179212,1.86345602 19.6704222,1.78221125 C19.9083429,1.65556327 20.0485387,1.39470011 20.0874853,1.13172517 C20.1263722,0.868691567 20.07745,0.60119977 20.0165213,0.342213743 C19.9809198,0.190811039 19.9156305,-0.0315708471 20.1382593,0.00374276293 C20.2314444,0.0185252043 20.3286914,0.0866300237 20.4044342,0.13731268 C20.7070469,0.339632682 20.9441313,0.636865343 21.1272759,0.944246267 C21.4914744,1.58810372 21.5197286,2.33925118 21.0176639,2.91981397 C20.4674536,3.5559869 19.6075223,3.78200573 18.803263,3.91451976 C18.5911474,3.94942275 18.3696536,3.98397377 18.1947523,4.10686748 C18.042968,4.21351224 17.9464976,4.37453526 17.8812082,4.54306683 C17.8629894,4.59022985 17.7512867,4.97457333 17.8025385,5.0728883 Z M17.4671227,24.5416667 L17.4671227,18.121655 C17.4671227,18.121655 17.3415617,15.3648264 19.2807819,15.3648264 C21.2200022,15.3648264 21.0665387,18.121655 21.0665387,18.121655 L21.0665387,24.5416667 L24.5403937,24.5416667 L24.5403937,16.8754174 C24.570286,15.7684864 24.0725349,14.7031564 23.1733855,13.949628 C22.2742361,13.1960997 21.0600677,12.8267628 19.8388309,12.9352926 C17.8842224,12.8728881 16.1177109,13.9799277 15.5,15.6543564 C14.8822891,13.9799277 13.1157776,12.8728881 11.1611691,12.9352926 C9.93993232,12.8267628 8.72576389,13.1960997 7.82661451,13.949628 C6.92746513,14.7031564 6.42971404,15.7684864 6.45960632,16.8754174 L6.45960632,24.5416667 L9.9334613,24.5416667 L9.9334613,18.121655 C9.9334613,18.121655 9.77999783,15.3648264 11.7192181,15.3648264 C13.6584383,15.3648264 13.5328773,18.121655 13.5328773,18.121655 L13.5328773,24.5416667 L17.4671227,24.5416667 Z" id="Combined-Shape" fill="#D9FCFF"></path>
            </g>
        </g>
    </g>
</svg>