<?xml version="1.0" encoding="UTF-8"?>
<svg width="25px" height="25px" viewBox="0 0 25 25" version="1.1" xmlns="http://www.w3.org/2000/svg" xmlns:xlink="http://www.w3.org/1999/xlink">
    <!-- Generator: sketchtool 56.2 (101010) - https://sketch.com -->
    <title>F4B023BB-2E0E-4B25-87AD-1C34EDE67561</title>
    <desc>Created with sketchtool.</desc>
    <g id="Page-1" stroke="none" stroke-width="1" fill="none" fill-rule="evenodd">
        <g id="-Hover-增加文字提示" transform="translate(-561.000000, -87.000000)">
            <g id="icon/marketing" transform="translate(561.000000, 87.000000)">
                <rect id="Rectangle" fill="#D8D8D8" opacity="0" x="0" y="0" width="25" height="25"></rect>
                <path d="M7.34795322,9.3748538 C7.33859649,9.42631579 7.3245614,9.47777778 7.30584795,9.52923977 C6.89415205,10.8204678 5.32222222,11.4333333 3.72690058,10.9233918 C2.14093567,10.4181287 1.20526316,8.99590643 1.6122807,7.71403509 C2.02397661,6.42280702 3.59590643,5.80994152 5.19122807,6.31988304 L5.19590643,6.31988304 L6.85204678,6.84853801 L7.68947368,9.48245614 L7.34795322,9.3748538 Z M5.86023392,9.07076023 C5.99590643,8.6497076 5.5374269,8.01812865 4.72807018,7.76549708 C3.9,7.50350877 3.17953216,7.77017544 3.04853801,8.17719298 C2.91754386,8.59356725 3.37602339,9.2251462 4.18070175,9.48245614 C5.00877193,9.74444444 5.72923977,9.47777778 5.86023392,9.07076023 Z M22.7163743,8.89766082 C22.8988304,9.08011696 22.997076,9.32807018 22.9877193,9.58538012 L22.8146199,15.480117 C22.8052632,15.7187135 22.7070175,15.9479532 22.5385965,16.1163743 L14.4309942,24.2239766 C14.0660819,24.5888889 13.4719298,24.5888889 13.1070175,24.2239766 L7.38538012,18.5023392 C7.02046784,18.1374269 7.02046784,17.5432749 7.38538012,17.1783626 L9.47660819,15.0964912 L10.028655,16.8274854 C10.0426901,16.8789474 10.0614035,16.9350877 10.080117,16.9865497 L9.69649123,17.3701754 C9.45789474,17.6087719 9.45789474,17.997076 9.69649123,18.2356725 L13.3783626,21.9175439 C13.6169591,22.1561404 14.0052632,22.1561404 14.2438596,21.9175439 L20.2602339,15.9011696 C20.4988304,15.6625731 20.4988304,15.274269 20.2602339,15.0356725 L16.5783626,11.3538012 C16.3397661,11.1152047 15.951462,11.1152047 15.7128655,11.3538012 L13.8134503,13.2532164 L13.2099415,11.3584795 L13.2988304,11.2695906 L13.1725146,11.2274854 L12.3350877,8.59356725 L15.0953216,9.47309942 L15.4976608,9.07076023 C15.6660819,8.89766082 15.8953216,8.80409357 16.1339181,8.79473684 L22.028655,8.62163743 C22.2859649,8.61695906 22.5339181,8.71520468 22.7163743,8.89766082 Z M21.6918129,11.3163743 C22.080117,10.9327485 22.080117,10.305848 21.6918129,9.9128655 C21.3035088,9.5245614 20.6766082,9.5245614 20.2883041,9.9128655 C19.9,10.3011696 19.9,10.9280702 20.2883041,11.3163743 C20.6766082,11.7046784 21.3035088,11.7046784 21.6918129,11.3163743 Z M7.29181287,4.23333333 C7.29181287,4.22865497 7.29181287,4.22397661 7.28245614,4.21929825 C6.77251462,2.62865497 7.38070175,1.05204678 8.67660819,0.640350877 C9.96315789,0.233333333 11.3807018,1.17368421 11.8859649,2.75497076 C12.2508772,3.90584795 12.0356725,5.0380117 11.4087719,5.73976608 C11.1654971,6.01578947 10.8567251,6.22163743 10.4918129,6.33859649 C10.4403509,6.35263158 10.3888889,6.36666667 10.3374269,6.38070175 L14.2672515,18.7081871 C14.3046784,18.8157895 14.2766082,18.9327485 14.197076,19.0122807 C14.1362573,19.0730994 14.0567251,19.105848 13.977193,19.105848 C13.9491228,19.105848 13.9210526,19.1011696 13.8929825,19.0918129 C12.6064327,18.7175439 11.5912281,17.7304094 11.1842105,16.4532164 L7.29181287,4.23333333 Z M10.6040936,8.72923977 C10.3561404,8.48128655 9.94912281,8.48128655 9.70116959,8.72923977 C9.45321637,8.97719298 9.45321637,9.38421053 9.70116959,9.63216374 C9.94912281,9.88011696 10.3561404,9.88011696 10.6040936,9.63216374 C10.8520468,9.38421053 10.8520468,8.97719298 10.6040936,8.72923977 Z M9.14444444,2.08596491 C8.7374269,2.2122807 8.47076023,2.93274854 8.73274854,3.76081871 C8.99005848,4.56549708 9.61695906,5.02865497 10.0380117,4.89298246 C10.4450292,4.76666667 10.7116959,4.04619883 10.4497076,3.21812865 C10.1923977,2.40877193 9.56081871,1.9502924 9.14444444,2.08596491 Z" id="Mask" fill="#D9FCFF" fill-rule="nonzero"></path>
            </g>
        </g>
    </g>
</svg>