<?xml version="1.0" encoding="UTF-8"?>
<svg width="24px" height="24px" viewBox="0 0 24 24" version="1.1" xmlns="http://www.w3.org/2000/svg" xmlns:xlink="http://www.w3.org/1999/xlink">
    <!-- Generator: sketchtool 56.2 (101010) - https://sketch.com -->
    <title>7E491DF1-C49D-4D9A-8EC6-556B4A350B06</title>
    <desc>Created with sketchtool.</desc>
    <g id="Page-1" stroke="none" stroke-width="1" fill="none" fill-rule="evenodd">
        <g id="子選單" transform="translate(-968.000000, -269.000000)">
            <g id="icon/子選單/member-group-code" transform="translate(968.000000, 269.000000)">
                <rect id="Rectangle" fill="#D8D8D8" opacity="0" x="0" y="0" width="24" height="24"></rect>
                <path d="M23.9748954,6.94058577 C23.9748954,9.08953975 22.4284519,10.9171548 20.2644351,11.5899582 L20.2794979,13.5029289 L19.4108787,13.5029289 L19.4158996,14.7280335 L20.2794979,14.7280335 L20.2845188,15.9531381 L19.4158996,15.9531381 L19.4209205,17.1732218 L20.2794979,17.1732218 L20.2895397,18.5288703 L19.4259414,18.5288703 L19.4309623,19.7539749 L20.2945607,19.7539749 L20.2995816,21.0041841 L18.4317992,22.3096234 L16.6343096,21.0142259 L16.6041841,11.6 C14.4502092,10.9322176 12.8987448,9.11464435 12.8937162,6.96569038 C12.8887029,4.24435146 15.3640167,2.03012552 18.4267782,2.02507035 C21.4794979,2.01506276 23.9698745,4.21422594 23.9748954,6.94058577 Z M18.4267782,4.14393305 C17.7338912,4.14895397 17.176569,4.71129707 17.18159,5.39916318 C17.18159,6.09707113 17.7389121,6.64937238 18.4317992,6.64937238 C19.1196653,6.64937238 19.6820084,6.08702929 19.6769874,5.39414226 C19.6769874,4.70627615 19.1146444,4.14393305 18.4267782,4.14393305 Z M7.35564854,10.6460251 C4.97573222,10.6460251 3.04769874,8.71799163 3.04769874,6.33807531 C3.04769874,3.958159 4.97573222,2.03012552 7.35564854,2.03012552 C9.73556485,2.03012552 11.6635983,3.958159 11.6635983,6.33807531 C11.6635983,8.71799163 9.73556485,10.6460251 7.35564854,10.6460251 Z M9.17824268,10.9372385 C12.2209205,10.9372385 14.7012552,13.4075314 14.6962419,16.4552301 L14.6962419,20.9238494 L14.6661088,20.9238494 L14.3799163,21.0694561 C14.2343096,21.1447699 11.8895397,22.2995816 7.83263598,22.2995816 C5.7539749,22.2995816 3.2334728,21.9983264 0.331380753,21.0895397 L0.020083682,20.9941423 L0.010041841,20.9238494 L0.010041841,16.4552301 C0.010041841,13.4125523 2.48033473,10.9372385 5.52301255,10.9372385 L9.17824268,10.9372385 Z" id="Mask" fill="#D9FCFF" fill-rule="nonzero"></path>
            </g>
        </g>
    </g>
</svg>