<?xml version="1.0" encoding="UTF-8"?>
<svg width="25px" height="25px" viewBox="0 0 25 25" version="1.1" xmlns="http://www.w3.org/2000/svg" xmlns:xlink="http://www.w3.org/1999/xlink">
    <!-- Generator: sketchtool 56.2 (101010) - https://sketch.com -->
    <title>32DA5D1E-C9BD-416A-8F2C-18957A1FA0F2</title>
    <desc>Created with sketchtool.</desc>
    <g id="Page-1" stroke="none" stroke-width="1" fill="none" fill-rule="evenodd">
        <g id="-Hover-增加文字提示" transform="translate(-414.000000, -87.000000)">
            <g id="icon/member" transform="translate(414.000000, 87.000000)">
                <rect id="Rectangle" fill="#D8D8D8" opacity="0" x="0" y="0" width="25" height="25"></rect>
                <path d="M20.139561,14.1168421 L13.8435969,14.1168421 C13.0969601,14.1168421 12.4915789,13.6115789 12.4915789,12.9884211 C12.4915789,12.3652632 13.0969601,11.86 13.8435969,11.86 L20.139561,11.86 C20.8861978,11.86 21.4915789,12.3652632 21.4915789,12.9884211 C21.4814893,13.6115789 20.8861978,14.1168421 20.139561,14.1168421 Z M23.204149,10.0747368 L13.7790089,10.0747368 C13.0680401,10.0747368 12.4915789,9.56947368 12.4915789,8.94631579 C12.4915789,8.32315789 13.0680401,7.81789474 13.7790089,7.81789474 L23.204149,7.81789474 C23.9151178,7.81789474 24.4915789,8.32315789 24.4915789,8.94631579 C24.4915789,9.56947368 23.9151178,10.0747368 23.204149,10.0747368 Z M23.204149,18.0663158 L13.7790089,18.0663158 C13.0680401,18.0663158 12.4915789,17.5610526 12.4915789,16.9378947 C12.4915789,16.3147368 13.0680401,15.8094737 13.7790089,15.8094737 L23.204149,15.8094737 C23.9151178,15.8094737 24.4915789,16.3147368 24.4915789,16.9378947 C24.4915789,17.5610526 23.9151178,18.0663158 23.204149,18.0663158 Z M1.00526316,20.4557895 C0.702105263,20.22 0.508421053,19.7231579 0.584210526,19.3526316 L1.38421053,13.26 C1.46,12.8810526 1.83052632,12.5610526 2.21789474,12.5610526 L10.8073684,12.5610526 C11.1947368,12.5610526 11.5652632,12.8810526 11.6410526,13.26 L12.4494737,19.3526316 C12.5252632,19.7315789 12.3315789,20.2284211 12.0284211,20.4557895 C12.0284211,20.4557895 11.8684211,20.5821053 11.5905263,20.7673684 L1.44315789,20.7673684 C1.16526316,20.5736842 1.00526316,20.4557895 1.00526316,20.4557895 Z M6.51263158,12.0052632 C4.16315789,12.0052632 2.26842105,10.1021053 2.26,7.75263158 C2.26,5.40315789 4.16315789,3.5 6.51263158,3.5 C8.86210526,3.5 10.7652632,5.40315789 10.7652632,7.75263158 C10.7652632,10.1021053 8.86210526,12.0052632 6.51263158,12.0052632 Z" id="Mask" fill="#D9FCFF" fill-rule="nonzero"></path>
            </g>
        </g>
    </g>
</svg>