<?xml version="1.0" encoding="UTF-8"?>
<svg width="24px" height="24px" viewBox="0 0 24 24" version="1.1" xmlns="http://www.w3.org/2000/svg" xmlns:xlink="http://www.w3.org/1999/xlink">
    <!-- Generator: sketchtool 56.2 (101010) - https://sketch.com -->
    <title>B9452BDF-7999-4E18-BB68-F32264B0358D</title>
    <desc>Created with sketchtool.</desc>
    <g id="Page-1" stroke="none" stroke-width="1" fill="none" fill-rule="evenodd">
        <g id="子選單" transform="translate(-968.000000, -233.000000)">
            <g id="icon/子選單/member-group" transform="translate(968.000000, 233.000000)">
                <rect id="Rectangle" fill="#D8D8D8" opacity="0" x="0" y="0" width="24" height="24"></rect>
                <path d="M14.3808594,5.4923913 C15.4455078,6.17286957 16.1912109,7.33152174 16.3259766,8.66948913 C16.7617188,8.8763913 17.2423828,8.99593478 17.75,8.99593478 C19.6142578,8.99593478 21.1236328,7.45106522 21.1236328,5.54296739 C21.1236328,3.63486957 19.6142578,2.09 17.75,2.09 C15.9037109,2.09459783 14.4078125,3.61188043 14.3808594,5.4923913 Z M12.1707031,12.5638478 C14.0349609,12.5638478 15.5443359,11.0189783 15.5443359,9.11088043 C15.5443359,7.20278261 14.0349609,5.65791304 12.1707031,5.65791304 C10.3064453,5.65791304 8.79707031,7.20278261 8.79707031,9.11088043 C8.79707031,11.0189783 10.3064453,12.5638478 12.1707031,12.5638478 Z M13.5992188,12.798337 L10.7376953,12.798337 C8.35683594,12.798337 6.42070313,14.78 6.42070313,17.2214457 L6.42070313,20.8031522 L6.4296875,20.8583261 L6.67226563,20.9364891 C8.9453125,21.6629457 10.9173828,21.9066304 12.5435547,21.9066304 C15.7195313,21.9066304 17.5568359,20.9824674 17.6691406,20.9226957 L17.89375,20.80775 L17.9162187,20.80775 L17.9162187,17.2260435 C17.9207031,14.78 15.9800781,12.798337 13.5992188,12.798337 Z M19.1830078,9.23502174 L16.3439453,9.23502174 C16.3125,10.3982717 15.8273438,11.4465761 15.0591797,12.2006196 C17.175,12.8443152 18.7248047,14.8535652 18.7248047,17.2260435 L18.7248047,18.3295217 C21.5279297,18.2237717 23.1451172,17.4099565 23.2529297,17.3547826 L23.4775391,17.239837 L23.5,17.239837 L23.5,13.6535326 C23.5,11.2166848 21.5638672,9.23502174 19.1830078,9.23502174 Z M6.25,8.99593478 C6.91035156,8.99593478 7.52578125,8.79822826 8.04238281,8.46258696 C8.20859375,7.3591087 8.78359375,6.39356522 9.61015625,5.73607609 C9.61464844,5.67170652 9.61914063,5.60733696 9.61914063,5.54296739 C9.61914063,3.63486957 8.10976563,2.09 6.24550781,2.09 C4.38125,2.09 2.871875,3.63486957 2.871875,5.54296739 C2.87636719,7.45106522 4.38574219,8.99593478 6.25,8.99593478 Z M9.28222656,12.1960217 C8.51855469,11.4465761 8.03339844,10.4028696 8.00195313,9.24881522 C7.89863281,9.23961957 7.79082031,9.23042391 7.68300781,9.23042391 L4.81699219,9.23042391 C2.43613281,9.23502174 0.5,11.2166848 0.5,13.6535326 L0.5,17.2352391 L0.508984375,17.290413 L0.7515625,17.3685761 C2.57539063,17.9525 4.2015625,18.2191739 5.61660156,18.3065326 L5.61660156,17.2260435 C5.61660156,14.8489674 7.16191406,12.8397174 9.28222656,12.1960217 Z" id="Mask" fill="#D9FCFF" fill-rule="nonzero"></path>
            </g>
        </g>
    </g>
</svg>