<?xml version="1.0" encoding="UTF-8"?>
<svg width="24px" height="24px" viewBox="0 0 24 24" version="1.1" xmlns="http://www.w3.org/2000/svg" xmlns:xlink="http://www.w3.org/1999/xlink">
    <!-- Generator: sketchtool 56.2 (101010) - https://sketch.com -->
    <title>61AC3122-7E3D-425A-A9BA-E07D4A19FE92</title>
    <desc>Created with sketchtool.</desc>
    <g id="Page-1" stroke="none" stroke-width="1" fill="none" fill-rule="evenodd">
        <g id="子選單" transform="translate(-1080.000000, -233.000000)">
            <g id="icon/子選單/newsletter" transform="translate(1080.000000, 233.000000)">
                <rect id="Rectangle" fill="#D8D8D8" opacity="0" x="0" y="0" width="24" height="24"></rect>
                <path d="M20.997271,20.2869396 L2.96413255,20.2869396 C2.47095517,20.2869396 2.04210526,20.1239766 1.67758285,19.8023392 L7.90019493,13.5797271 C8.0545809,13.6912281 8.20038986,13.7984405 8.32904483,13.8927875 C8.79220273,14.2358674 9.16959064,14.5017544 9.46120858,14.6947368 C9.75282651,14.8877193 10.1387914,15.0807018 10.6191033,15.2822612 C11.0994152,15.4838207 11.5497076,15.5824561 11.965692,15.5824561 L11.9785575,15.5824561 L11.9957115,15.5824561 C12.4116959,15.5824561 12.8619883,15.4838207 13.3423002,15.2822612 C13.8226121,15.0849903 14.208577,14.8877193 14.5001949,14.6947368 C14.7875244,14.5017544 15.1649123,14.2358674 15.6323587,13.8927875 C15.7653021,13.794152 15.9111111,13.6912281 16.0612086,13.5840156 L22.2838207,19.8023392 C21.9192982,20.1239766 21.4904483,20.2869396 20.997271,20.2869396 Z M2.23937622,9.66432749 C3.97192982,10.8436647 5.3871345,11.817154 6.48499025,12.5805068 L1,18.0654971 L1,8.60077973 C1.36023392,8.99961014 1.77192982,9.35555556 2.23937622,9.66432749 Z M21.7306043,9.66432749 C22.1980507,9.34697856 22.6054581,8.99103314 22.957115,8.60077973 L22.957115,18.0654971 L17.4764133,12.5805068 C18.642885,11.765692 20.0623782,10.7922027 21.7306043,9.66432749 Z M20.997271,3.03859649 C21.5290448,3.03859649 21.9879142,3.22729045 22.3781676,3.61754386 C22.7684211,4.00350877 22.9614035,4.46237817 22.9614035,5.00272904 C22.9614035,5.6460039 22.7598441,6.26354776 22.3610136,6.85107212 C21.9578947,7.43859649 21.4604288,7.94035088 20.8643275,8.35633528 C18.8830409,9.73294347 17.3863548,10.7707602 16.3699805,11.4783626 C15.8124756,11.8643275 15.3964912,12.1559454 15.1306043,12.3403509 C15.0920078,12.3660819 15.0276803,12.4089669 14.9461988,12.4690058 C14.8561404,12.5333333 14.7446394,12.6148148 14.6074074,12.7134503 C14.3415205,12.9064327 14.122807,13.0608187 13.9469786,13.1808967 C13.7711501,13.3009747 13.5567251,13.4339181 13.3079922,13.5797271 C13.0592593,13.7255361 12.8233918,13.837037 12.6046784,13.9099415 C12.3816764,13.982846 12.180117,14.0214425 11.991423,14.0214425 L11.9785575,14.0214425 L11.965692,14.0214425 C11.7769981,14.0214425 11.5711501,13.982846 11.3524366,13.9099415 C11.1337232,13.837037 10.8978558,13.7255361 10.6491228,13.5797271 C10.3961014,13.4339181 10.1859649,13.3009747 10.0101365,13.1808967 C9.83430799,13.0608187 9.61559454,12.9064327 9.3497076,12.7134503 C9.21247563,12.6148148 9.10097466,12.5333333 9.01091618,12.4690058 C8.9294347,12.4132554 8.86510721,12.3660819 8.82651072,12.3403509 C8.4877193,12.1001949 8.07173489,11.808577 7.591423,11.4740741 C7.02962963,11.0795322 6.37348928,10.6249513 5.61871345,10.1017544 C4.22066277,9.13255361 3.38440546,8.55360624 3.10565302,8.35633528 C2.59961014,8.01325536 2.12358674,7.54152047 1.67329435,6.9411306 C1.22300195,6.34074074 1,5.78323587 1,5.26861598 C1,4.62962963 1.17153996,4.09785575 1.50604288,3.67758285 C1.84483431,3.25302144 2.3294347,3.03859649 2.95984405,3.03859649 L20.997271,3.03859649 Z" id="Mask" fill="#D9FCFF" fill-rule="nonzero"></path>
            </g>
        </g>
    </g>
</svg>