<?xml version="1.0" encoding="UTF-8"?>
<svg width="24px" height="24px" viewBox="0 0 24 24" version="1.1" xmlns="http://www.w3.org/2000/svg" xmlns:xlink="http://www.w3.org/1999/xlink">
    <!-- Generator: sketchtool 56.2 (101010) - https://sketch.com -->
    <title>4E07F1B0-2B6B-4171-9254-594A600E47AF</title>
    <desc>Created with sketchtool.</desc>
    <g id="Page-1" stroke="none" stroke-width="1" fill="none" fill-rule="evenodd">
        <g id="子選單" transform="translate(-1024.000000, -195.000000)">
            <g id="icon/子選單/page-manager" transform="translate(1024.000000, 195.000000)">
                <rect id="Rectangle" fill="#D8D8D8" opacity="0" x="0" y="0" width="24" height="24"></rect>
                <path d="M22.8571126,4.64285209 L22.8571126,12.3810489 L22.8571126,20.485822 C22.8571126,21.7917501 21.7917501,22.8571126 20.485822,22.8571126 L3.37129051,22.8571126 C2.0653624,22.8571126 1,21.7860224 1,20.485822 L1,3.37129051 C1,2.0653624 2.07109016,1 3.37129051,1 L20.485822,1 C21.7917501,1 22.8571126,2.07109016 22.8571126,3.37129051 L22.8571126,4.64285209 Z M8.10814378,2.46057749 C7.69001768,2.46057749 7.35208014,2.79851503 7.35208014,3.21664113 C7.35208014,3.63476724 7.69001768,3.97270477 8.10814378,3.97270477 C8.52626989,3.97270477 8.86420742,3.63476724 8.86420742,3.21664113 C8.86420742,2.79851503 8.52626989,2.46057749 8.10814378,2.46057749 Z M5.82849735,2.46057749 C5.41037124,2.46057749 5.07243371,2.79851503 5.07243371,3.21664113 C5.07243371,3.63476724 5.41037124,3.97270477 5.82849735,3.97270477 C6.24662345,3.97270477 6.58456099,3.63476724 6.58456099,3.21664113 C6.58456099,2.79851503 6.24662345,2.46057749 5.82849735,2.46057749 Z M3.54885091,2.46057749 C3.13645256,2.46057749 2.79278727,2.79851503 2.79278727,3.21664113 C2.79278727,3.63476724 3.13072481,3.97270477 3.54885091,3.97270477 C3.96697702,3.97270477 4.30491456,3.63476724 4.30491456,3.21664113 C4.30491456,2.79851503 3.96697702,2.46057749 3.54885091,2.46057749 Z M21.0643253,14.4487684 L21.0643253,6.7105716 L21.0643253,5.91441367 L2.79278727,5.91441367 L2.79278727,20.8237596 L21.0643253,20.8237596 L21.0643253,14.4487684 Z M11.2759399,15.3669063 L11.2759399,13.4059929 L9.31502652,13.4059929 C9.00065502,13.4059929 8.75,13.1521651 8.75,12.8409664 C8.75,12.5310626 9.00512268,12.2759399 9.31502652,12.2759399 L11.2759399,12.2759399 L11.2759399,10.3150265 C11.2759399,10.0051227 11.5310626,9.75 11.8409664,9.75 C12.1508702,9.75 12.4059929,10.0051227 12.4059929,10.3150265 L12.4059929,12.2759399 L14.3669063,12.2759399 C14.6768101,12.2759399 14.9319328,12.5310626 14.9319328,12.8409664 C14.9319328,13.1508702 14.6768101,13.4059929 14.3669063,13.4059929 L12.4059929,13.4059929 L12.4059929,15.3669063 C12.4059929,15.6768101 12.1508702,15.9319328 11.8409664,15.9319328 C11.5310626,15.9319328 11.2759399,15.6768101 11.2759399,15.3669063 Z" id="Mask" fill="#D9FCFF" fill-rule="nonzero"></path>
            </g>
        </g>
    </g>
</svg>