<?xml version="1.0" encoding="UTF-8"?>
<svg width="25px" height="25px" viewBox="0 0 25 25" version="1.1" xmlns="http://www.w3.org/2000/svg" xmlns:xlink="http://www.w3.org/1999/xlink">
    <!-- Generator: sketchtool 56.2 (101010) - https://sketch.com -->
    <title>B6F2097E-5B81-4F9E-9DF4-D608F2130D64</title>
    <desc>Created with sketchtool.</desc>
    <g id="Page-1" stroke="none" stroke-width="1" fill="none" fill-rule="evenodd">
        <g id="-Hover-增加文字提示" transform="translate(-561.000000, -49.000000)">
            <g id="icon/products" transform="translate(561.000000, 49.000000)">
                <rect id="Rectangle" fill="#D8D8D8" opacity="0" x="0" y="0" width="25" height="25"></rect>
                <path d="M17.5441035,16.6277125 C17.5064081,16.6368653 17.4431711,16.6412586 17.3900776,16.666749 C16.5338654,17.0779819 15.6782472,17.4904505 14.8244566,17.9065802 C14.6877478,17.9732122 14.6020306,18.0874842 14.5860843,18.2459183 C14.5484345,18.6192131 14.9030916,18.8399316 15.2776245,18.6625514 C16.0948619,18.2755274 16.9075302,17.8788016 17.7219347,17.4857368 C17.7561119,17.4692619 17.7918883,17.4535649 17.8213593,17.4304543 C17.9841123,17.3026819 18.0700122,17.1463987 18.0000586,16.9333685 C17.9310188,16.7232215 17.7763989,16.6381467 17.5441035,16.6277125 Z M15.0136649,21.18903 C15.1948316,21.1843164 15.3407244,21.0954432 15.4904096,21.0234568 C16.9377779,20.3267497 18.3841867,19.6279374 19.8303213,18.9286675 C20.2225367,18.7390683 20.3472287,18.5168396 20.2142666,18.2540642 C20.0769638,17.9826395 19.8338395,17.9440607 19.443406,18.1322412 C18.2432742,18.710649 17.0429139,19.2886908 15.8431934,19.868014 C15.500416,20.0335414 15.1561309,20.1964146 14.819065,20.3731083 C14.6098895,20.4827125 14.5308433,20.6861781 14.6028531,20.8963252 C14.6692884,21.0901346 14.8135821,21.1877029 15.0136649,21.18903 Z M12.9545794,15.831515 C12.9517009,15.0018185 12.9387702,14.1721219 12.9423798,13.3425169 C12.9437506,13.0303624 12.9649514,12.7185283 12.9422884,12.4060993 C12.9310026,12.2506398 13.0365042,12.1806671 13.1611505,12.1208081 C13.8130762,11.8077384 14.4625346,11.4896346 15.1140491,11.1757869 C17.4114612,10.069174 19.7094217,8.96361362 22.0070166,7.85741256 C22.5351185,7.60319499 23.0630376,7.34856556 23.590454,7.09283779 C23.9197524,6.93321387 23.995189,6.97733012 23.9952803,7.3410603 C23.9961028,9.94854078 23.9959657,12.5559755 23.9960571,15.1635017 C23.9961028,16.2689706 23.9912595,17.374531 24,18.4799998 C24.0015858,18.691291 23.9360642,18.8112835 23.7411445,18.9048704 C20.845357,20.2952642 17.9530421,21.6930261 15.0595849,23.0881794 C14.4699366,23.3725095 13.8794202,23.655009 13.28799,23.9355407 C13.0299247,24.0578672 12.9577778,24.0136137 12.9572295,23.7305192 C12.955082,22.6120077 12.9559502,21.4934046 12.9557674,20.3748931 C12.955676,19.6135676 12.9557674,18.8522421 12.9554019,18.0909623 C12.955082,17.3377827 12.9571382,16.5846489 12.9545794,15.831515 Z M12.0685764,23.588647 C12.0685764,23.6420533 12.0698558,23.6955054 12.0675255,23.7487744 C12.0565138,23.9963562 11.9721674,24.054888 11.7501069,23.9510043 C11.3018737,23.7413149 10.8573416,23.5237541 10.4116671,23.308573 C7.38108982,21.8458724 4.35179191,20.3803802 1.3176507,18.9250476 C1.08348199,18.8127434 0.999546779,18.6760013 1,18.4186718 C1.00717725,14.750571 1.00489268,11.0825159 1.00489268,7.414415 C1.00489268,7.40677245 1.00489268,7.39912991 1.00493837,7.39153313 C1.00722294,6.96396253 1.06748998,6.92629897 1.44951625,7.11013191 C2.06009119,7.40398087 2.6681531,7.70332147 3.28370841,7.98627866 C3.47054078,8.0721772 3.53610802,8.18429836 3.53546834,8.38922837 C3.52902584,10.4024667 3.53208717,12.4157051 3.53254408,14.4289434 C3.53254408,14.4823039 3.53076212,14.5358475 3.5340519,14.5890707 C3.55717178,14.9625486 3.88482522,15.1587377 4.21572275,14.9803049 C4.7518663,14.6913069 5.28330364,14.3928816 5.80825279,14.0840221 C5.99586191,13.97364 6.10419636,14.0130426 6.22532441,14.1785242 C6.94542177,15.1624446 7.67237286,16.1413309 8.39754197,17.1215444 C8.48325914,17.2373725 8.56134584,17.3600193 8.72268238,17.3890793 C9.05444805,17.4488467 9.26440029,17.2685833 9.26535981,16.8958377 C9.2691522,15.4469578 9.26718747,13.9980778 9.267553,12.5491979 C9.26764439,12.1145339 9.26458306,11.6798242 9.27047726,11.2452059 C9.2739955,10.984856 9.36478442,10.9268734 9.6002325,11.0389945 C10.3632341,11.4023129 11.1221236,11.7743263 11.8854907,12.1369581 C12.0574277,12.2186006 12.0702213,12.3553885 12.0700863,12.5158819 C12.0681195,14.3765897 12.0688049,16.2372975 12.0687135,18.0980053 C12.0686221,19.9282345 12.0686221,21.7584179 12.0685764,23.588647 Z M10.5480469,4.1995948 C10.4245886,4.21250018 10.3137412,4.26078092 10.2034877,4.31427873 C8.21047201,5.28195296 6.2160856,6.24683561 4.22526312,7.21904045 C4.05117867,7.30411524 3.90962654,7.31226118 3.73362305,7.22334224 C3.15612872,6.93150689 2.56995302,6.65701599 1.98820939,6.37360116 C1.90180684,6.33149852 1.78968001,6.30005883 1.7972191,6.17411703 C1.80379867,6.06492475 1.90358881,6.03531561 1.98537652,5.9959588 C5.38838485,4.35908143 8.79226133,2.72394308 12.1928023,1.08194018 C12.4104764,0.976820871 12.5852919,0.969727491 12.8101853,1.07878248 C16.194186,2.71973282 19.5832127,4.35024903 22.9706403,5.98419752 C23.070202,6.03220368 23.2094238,6.05915852 23.2063237,6.20047694 C23.2031184,6.34078856 23.0602869,6.36344161 22.9620503,6.41085284 C20.5142676,7.59224373 18.0654796,8.77171254 15.616646,9.95086101 C14.6494492,10.4165528 13.6804705,10.878492 12.7151014,11.3478906 C12.5635428,11.4215702 12.4337334,11.4197855 12.2833171,11.3459685 C11.6135717,11.0173391 10.9393029,10.6978625 10.268004,10.3723908 C10.1756159,10.3276339 10.048685,10.2984366 10.0545335,10.16412 C10.0601993,10.0340595 10.1860792,10.0092098 10.2793812,9.9639952 C12.0129151,9.12432214 13.7466317,8.28501519 15.4811708,7.44735574 C15.6831727,7.34978745 15.8544243,7.23546963 15.8451489,6.97612653 C15.8364676,6.73357872 15.6780553,6.62081687 15.4811708,6.52654357 C13.9359771,5.78713886 12.3926111,5.04411882 10.8489252,4.30164794 C10.7525619,4.25533504 10.6561529,4.21085268 10.5480469,4.1995948 Z M14.1997036,6.97922931 C14.1896972,7.10539994 14.0884449,7.13500907 14.0006259,7.17756935 C12.8432613,7.73854125 11.6858054,8.29928432 10.5283494,8.86007317 C10.0283934,9.10230063 9.52670124,9.34100428 9.02962388,9.58899798 C8.89392025,9.65672831 8.77914331,9.65581304 8.64252586,9.58950138 C7.56105476,9.06417944 6.47638526,8.54544747 5.3936348,8.02277982 C5.30714087,7.98104329 5.19839521,7.94759 5.20134948,7.82260923 C5.20419802,7.70993891 5.30453646,7.68051283 5.38477066,7.64147636 C7.04771124,6.83241924 8.71151996,6.02523844 10.3736838,5.21462535 C10.4949946,5.15545284 10.6018669,5.15824443 10.7207561,5.21563215 C11.8241134,5.7482763 12.9287044,6.27831191 14.0327014,6.80958314 C14.1087319,6.84619413 14.1830262,6.88651198 14.1997036,6.97922931 Z M4.41780692,11.1951496 C4.41780692,10.4477362 4.41625341,9.70032285 4.41853799,8.95290948 C4.4195432,8.62574452 4.49689884,8.5761824 4.7821506,8.71356514 C5.91420214,9.25856549 7.04451741,9.80708965 8.17871644,10.3475594 C8.34754638,10.4280578 8.40909277,10.5384857 8.40850304,10.7220898 C8.40406671,12.1558677 8.40717373,13.5896456 8.40653405,15.0234235 C8.40648836,15.1361396 8.42307436,15.2703646 8.28741642,15.3175471 C8.15317492,15.3642718 8.10519889,15.2357673 8.04474909,15.1544451 C7.55827215,14.4999321 7.07517637,13.8429479 6.5893848,13.1879773 C6.38176282,12.9080863 6.20836374,12.8658921 5.90291635,13.0307331 C5.51426482,13.2405141 5.13073073,13.4598139 4.74376978,13.6728441 C4.51321069,13.7997012 4.42073118,13.7475763 4.41972597,13.4831534 C4.41675602,12.7205007 4.41867506,11.9578023 4.41867506,11.1951496 L4.41780692,11.1951496 Z" id="Mask" fill="#D9FCFF"></path>
            </g>
        </g>
    </g>
</svg>