<?xml version="1.0" encoding="UTF-8"?>
<svg width="25px" height="25px" viewBox="0 0 25 25" version="1.1" xmlns="http://www.w3.org/2000/svg" xmlns:xlink="http://www.w3.org/1999/xlink">
    <!-- Generator: sketchtool 56.2 (101010) - https://sketch.com -->
    <title>CAAFC671-E162-4F95-878E-F03218655750</title>
    <desc>Created with sketchtool.</desc>
    <g id="Page-1" stroke="none" stroke-width="1" fill="none" fill-rule="evenodd">
        <g id="-Hover-增加文字提示" transform="translate(-641.000000, -49.000000)">
            <g id="icon/product-service" transform="translate(641.000000, 49.000000)">
                <rect id="Rectangle" fill="#D8D8D8" opacity="0" x="0" y="0" width="25" height="25"></rect>
                <path d="M23.7845011,10.8280255 C23.7632696,7.37261146 22.7547771,4.67091295 20.7855626,2.80785563 C18.8375796,0.955414013 16.0403397,0.0159235669 12.4734607,0.0159235669 C8.90658174,0.0159235669 6.10934183,0.955414013 4.15605096,2.80254777 C2.18683652,4.67091295 1.1836518,7.36730361 1.15711253,10.8227176 C0.467091295,11.1995754 5.15143483e-14,11.9320594 5.15143483e-14,12.7707006 L5.15143483e-14,15.2070064 C5.15143483e-14,16.4278132 0.992569002,17.4203822 2.2133758,17.4203822 L3.82165605,17.4203822 C5.41401274,21.836518 9.47452229,24.5063694 12.4787686,24.5063694 C15.4830149,24.5063694 19.5435244,21.836518 21.1358811,17.4203822 L22.7441614,17.4203822 C23.9649682,17.4203822 24.9575372,16.4278132 24.9575372,15.2070064 L24.9575372,12.7707006 C24.9469214,11.9320594 24.4798301,11.1995754 23.7845011,10.8280255 Z M12.4734607,22.9564756 C10.7908705,22.9564756 8.09447983,21.6029724 6.35881104,19.0392781 C7.5955414,19.6231423 8.98089172,19.8354565 10.2441614,19.9097665 C10.5573248,20.477707 11.3322718,20.8864119 12.2452229,20.8864119 C13.4341826,20.8864119 14.3949045,20.2016985 14.3949045,19.3630573 C14.3949045,18.5191083 13.4341826,17.8397028 12.2452229,17.8397028 C11.3694268,17.8397028 10.6157113,18.2112527 10.2813163,18.7473461 C8.47664544,18.6358811 6.43842887,18.2165605 5.20169851,16.7250531 C4.87261146,15.7537155 4.68152866,14.6815287 4.68152866,13.4978769 C4.68152866,13.1740977 4.69214437,12.866242 4.70806794,12.5583864 C6.90552017,12.2505308 8.88535032,10.07431 8.94373673,7.28237792 C8.94904459,6.95859873 9.07643312,7.25053079 9.4373673,7.74416136 L9.4373673,7.74416136 C9.4373673,7.74416136 9.4373673,7.74416136 9.44267516,7.74946921 C9.5329087,7.86624204 9.63375796,7.99893843 9.75053079,8.13163482 C11.7993631,10.5626327 14.5010616,10.3025478 15.881104,11.3906582 C15.7271762,10.8174098 15.4723992,10.3768577 15.1751592,10.0477707 C17.42569,10.3025478 19.2091295,10.9819533 20.1910828,11.8789809 C20.2335456,12.3991507 20.2653928,12.9299363 20.2653928,13.5031847 C20.2653928,19.6178344 15.1167728,22.9564756 12.4734607,22.9564756 Z M21.6029724,10.5626327 C21.2898089,8.52972399 20.6316348,6.85774947 19.633758,5.57324841 C18.0414013,3.52441614 15.6316348,2.48407643 12.4734607,2.48407643 C9.31528662,2.48407643 6.90552017,3.52441614 5.31316348,5.57324841 C4.31528662,6.85774947 3.65711253,8.52972399 3.34394904,10.5626327 L2.49469214,10.5626327 C2.63800425,4.5329087 6.07749469,1.34819533 12.4734607,1.34819533 C18.8694268,1.34819533 22.3142251,4.5329087 22.4522293,10.5626327 L21.6029724,10.5626327 Z" id="Mask" fill="#D9FCFF" fill-rule="nonzero"></path>
            </g>
        </g>
    </g>
</svg>