<?xml version="1.0" encoding="UTF-8"?>
<svg width="25px" height="25px" viewBox="0 0 25 25" version="1.1" xmlns="http://www.w3.org/2000/svg" xmlns:xlink="http://www.w3.org/1999/xlink">
    <!-- Generator: sketchtool 56.2 (101010) - https://sketch.com -->
    <title>D627FF00-676E-4730-99C0-17F10BBB7709</title>
    <desc>Created with sketchtool.</desc>
    <g id="Page-1" stroke="none" stroke-width="1" fill="none" fill-rule="evenodd">
        <g id="-Hover-增加文字提示" transform="translate(-721.000000, -87.000000)">
            <g id="icon/setting" transform="translate(721.000000, 87.000000)">
                <rect id="Rectangle" fill="#D8D8D8" opacity="0" x="0" y="0" width="25" height="25"></rect>
                <path d="M17.0454545,12.4125357 C16.9368545,9.76230185 14.8411237,7.89749463 12.4081957,7.95587878 C9.7732974,8.01949136 7.8978186,10.1370061 7.95585601,12.5879786 C8.01853641,15.2213653 10.1316784,17.1041815 12.5834686,17.0440546 C15.2462248,16.9789896 17.0584429,14.8353327 17.0454545,12.4125357 M12.4534185,25 C12.0486003,24.9519414 11.5624042,24.8950377 11.0759122,24.8369546 C10.6684307,24.7886012 10.4677971,24.5509618 10.4189704,24.1517513 C10.3145107,23.2961316 10.1810509,22.4437551 10.0958261,21.5860716 C10.0603157,21.2299073 9.9345498,21.0500562 9.57619102,20.9477474 C9.15835237,20.8286329 8.76152403,20.6287328 8.3679508,20.4382675 C8.1818173,20.3477522 8.05516365,20.3439194 7.88382614,20.4777758 C7.15112891,21.0482872 6.40570713,21.6031722 5.66324455,22.1621849 C5.25428349,22.4697009 5.06903775,22.4835582 4.65208686,22.191079 C3.88447111,21.6524101 3.24735595,20.9828332 2.7019759,20.2218564 C2.45399517,19.8757167 2.48388307,19.5717388 2.74518018,19.2429945 C3.31482564,18.5262435 3.86050161,17.7909177 4.42718787,17.0723976 C4.56360687,16.8996226 4.58698452,16.7698939 4.48282078,16.5599693 C4.26650347,16.1233143 4.08036996,15.6692639 3.91850187,15.2096116 C3.84304234,14.9961489 3.74095004,14.8985576 3.51930617,14.8720221 C2.64752667,14.766765 1.77811453,14.6423434 0.906335033,14.5379708 C0.28342402,14.4636716 0.0833822884,14.3407242 0.0419535275,13.7147833 C-0.0136793801,12.8718416 -0.0110161026,12.0209393 0.0324840964,11.1771132 C0.061484229,10.6136779 0.26152596,10.4695021 0.850406205,10.3890114 C1.70738972,10.271371 2.56466915,10.1537307 3.4237241,10.0523064 C3.71283767,10.0181052 3.86908328,9.90577199 3.95845104,9.61152373 C4.0809618,9.20818543 4.25111564,8.81398712 4.44494306,8.43865843 C4.57337222,8.18952037 4.58106613,8.02087308 4.39374895,7.78972014 C3.83327699,7.09979937 3.30269293,6.38511222 2.7620476,5.67868053 C2.43564815,5.25205004 2.388301,5.046548 2.74340466,4.64910647 C3.34145842,3.98011919 3.9788695,3.34150023 4.64409703,2.73826182 C5.02612939,2.39212208 5.24954878,2.43959099 5.67952013,2.7630282 C6.4113296,3.3140803 7.14669011,3.86100467 7.86962199,4.42326061 C8.04746974,4.5615396 8.18063362,4.57421763 8.38629782,4.47515208 C8.82692229,4.26345845 9.28056722,4.07387766 9.74220198,3.91289615 C9.94372331,3.84272472 10.0357543,3.75103012 10.0612034,3.54582292 C10.169806,2.67782004 10.2994188,1.81188103 10.4000315,0.942993639 C10.4769707,0.279608289 10.5991855,0.0832462248 11.2694437,0.0396102106 C12.0900291,-0.0134606175 12.9180124,-0.00992256229 13.7397815,0.0307650726 C14.327774,0.0596591901 14.4834278,0.258379957 14.5659894,0.854247421 C14.6849491,1.70809808 14.8056843,2.56194873 14.9048174,3.41815809 C14.9388482,3.71240635 15.057512,3.85864597 15.3489929,3.94857154 C15.7656479,4.07712087 16.1728334,4.2498959 16.5619679,4.44714248 C16.7883465,4.56183444 16.9371941,4.57362795 17.1455216,4.40822387 C17.8424125,3.8542234 18.5591301,3.32528414 19.2660823,2.78425654 C19.7141047,2.44136002 19.9256873,2.38710984 20.3308014,2.7435689 C20.9948453,3.32852736 21.6310727,3.95093024 22.2255754,4.60606013 C22.6005057,5.01912807 22.5490157,5.23819266 22.1962794,5.70079338 C21.6494197,6.41872374 21.1099581,7.14196119 20.5545168,7.85311029 C20.4254958,8.01821953 20.4106998,8.1423463 20.5024349,8.33340128 C20.7131297,8.77329948 20.9152429,9.22086347 21.0708967,9.68198999 C21.1502032,9.91668099 21.2635404,10.0116188 21.4946537,10.0405129 C22.3400964,10.1463597 23.1834676,10.2704865 24.029502,10.3745643 C24.7474033,10.4627208 24.9459654,10.6198695 24.9767411,11.335736 C25.0095882,12.1034939 25.0104759,12.876559 24.9610573,13.6434325 C24.9172612,14.3239184 24.715148,14.4639664 24.0392674,14.5420985 C23.1799165,14.6414589 22.3238208,14.7691237 21.4650617,14.8732015 C21.2383872,14.9009163 21.150795,15.014134 21.0777028,15.2228793 C20.9208654,15.6710329 20.7412421,16.1141744 20.5284758,16.5381513 C20.4201692,16.7545623 20.4192814,16.8925465 20.5699046,17.0841912 C21.1283051,17.7932764 21.6686545,18.516219 22.2140345,19.2350339 C22.5493116,19.6769959 22.5945873,19.8990089 22.2297183,20.2988091 C21.633736,20.9524648 21.0001719,21.5772264 20.3355362,22.1618901 C19.9227281,22.5248355 19.720615,22.4753028 19.2705211,22.1318166 C18.5523239,21.5843025 17.8299839,21.0415059 17.118297,20.4851467 C16.9540615,20.3563025 16.8348059,20.3406761 16.6386111,20.4353191 C16.1867417,20.653794 15.7221477,20.8519251 15.2471966,21.0126118 C15.0202261,21.0892696 14.946838,21.210448 14.9199093,21.4180139 C14.8101231,22.2603659 14.688796,23.1009489 14.5822649,23.9433008 C14.4896421,24.6765628 14.3366516,24.8301734 13.5817604,24.9003448 C13.2349425,24.9324821 12.8878286,24.9616711 12.4534185,25" id="Mask" fill="#D9FCFF"></path>
            </g>
        </g>
    </g>
</svg>