<?xml version="1.0" encoding="UTF-8"?>
<svg width="24px" height="24px" viewBox="0 0 24 24" version="1.1" xmlns="http://www.w3.org/2000/svg" xmlns:xlink="http://www.w3.org/1999/xlink">
    <!-- Generator: sketchtool 51.3 (57544) - http://www.bohemiancoding.com/sketch -->
    <title>63DFB987-1A4E-4C8F-ADAF-0001B1459378</title>
    <desc>Created with sketchtool.</desc>
    <defs></defs>
    <g id="商店關閉" stroke="none" stroke-width="1" fill="none" fill-rule="evenodd">
        <g id="商店關閉_1" transform="translate(-18.000000, -889.000000)">
            <g id="Group-2">
                <g id="Group-124" transform="translate(30.000000, 901.000000) scale(-1, 1) translate(-30.000000, -901.000000) translate(18.000000, 889.000000)">
                    <rect id="Rectangle-43-Copy-3" x="0" y="0" width="24" height="24"></rect>
                    <g id="login" opacity="0.85" fill="#FFFFFF" fill-rule="nonzero">
                        <path d="M10.3804688,14.5898437 C10.05,14.9203125 10.05,15.4523437 10.378125,15.7804687 C10.5421875,15.9445312 10.7601563,16.0289062 10.9757813,16.0289062 C11.1914063,16.0289062 11.409375,15.946875 11.5734375,15.7828125 L14.75625,12.6 C15.0867188,12.2695312 15.0867188,11.7304687 14.75625,11.4 L11.5734375,8.21953125 C11.2429688,7.8890625 10.7085938,7.8890625 10.3804688,8.21953125 C10.05,8.55 10.05,9.084375 10.3804688,9.4125 L12.121875,11.1539062 L0.84609375,11.15625 C0.3796875,11.15625 0.00234375,11.5335937 0.00234375,12 C0.00234375,12.4664062 0.38203125,12.8460937 0.84609375,12.8460937 L12.121875,12.8484375 L10.3804688,14.5898437 Z" id="Shape"></path>
                        <path d="M23.0554688,7.33125 C22.4507813,5.9015625 21.5859375,4.6171875 20.484375,3.515625 C19.3828125,2.4140625 18.1007813,1.546875 16.6710938,0.9421875 C15.1921875,0.31640625 13.6195313,0 12,0 C10.0945313,0 8.27109375,0.43359375 6.58125,1.2890625 C4.97109375,2.10703125 3.54140625,3.29765625 2.44921875,4.7390625 C2.165625,5.109375 2.23828125,5.6390625 2.60859375,5.9203125 C2.97890625,6.20390625 3.50859375,6.13125 3.78984375,5.7609375 C4.73203125,4.5234375 5.96015625,3.496875 7.3453125,2.79609375 C8.79609375,2.06015625 10.3617188,1.6875 12,1.6875 C13.3921875,1.6875 14.7421875,1.959375 16.0125,2.49609375 C17.240625,3.0140625 18.3445313,3.759375 19.2914063,4.70625 C20.2382813,5.653125 20.98125,6.75703125 21.5015625,7.98515625 C22.040625,9.2578125 22.3125,10.6078125 22.3125,12 C22.3125,13.3921875 22.040625,14.7421875 21.5039063,16.0125 C20.9859375,17.240625 20.240625,18.3445312 19.29375,19.2914062 C18.346875,20.2382812 17.2429688,20.98125 16.0148438,21.5015625 C14.7421875,22.0429687 13.3921875,22.3125 12,22.3125 C10.3617188,22.3125 8.79609375,21.9398437 7.340625,21.2015625 C5.9578125,20.5007812 4.72734375,19.4742187 3.78515625,18.2367187 C3.50390625,17.8664063 2.97421875,17.7960937 2.60390625,18.0773438 C2.23359375,18.3585938 2.16328125,18.8882812 2.44453125,19.2585937 C3.54140625,20.7 4.97109375,21.8929687 6.58125,22.7085937 C8.27109375,23.5640625 10.0945313,23.9976562 12,23.9976562 C13.6195313,23.9976562 15.1921875,23.68125 16.6710938,23.0554687 C18.0984375,22.453125 19.3828125,21.5859375 20.484375,20.484375 C21.5859375,19.3828125 22.453125,18.1007812 23.0578125,16.6710937 C23.6835938,15.1921875 24,13.6195312 24,12 C24,10.3804687 23.6835938,8.8078125 23.0554688,7.33125 Z" id="Shape"></path>
                    </g>
                </g>
            </g>
        </g>
    </g>
</svg>