<?xml version="1.0" encoding="UTF-8"?>
<svg width="129px" height="26px" viewBox="0 0 129 26" version="1.1" xmlns="http://www.w3.org/2000/svg" xmlns:xlink="http://www.w3.org/1999/xlink">
    <!-- Generator: sketchtool 53.2 (72643) - https://sketchapp.com -->
    <title>1F6B5C9F-8E8C-4F85-9E86-4BFC98BB915C</title>
    <desc>Created with sketchtool.</desc>
    <g id="設定" stroke="none" stroke-width="1" fill="none" fill-rule="evenodd">
        <g id="第三方設定" transform="translate(-355.000000, -1160.000000)" fill="#3B5998" fill-rule="nonzero">
            <g id="【說明】Facebook連動" transform="translate(219.000000, 1067.000000)">
                <g id="區塊說說明" transform="translate(112.000000, 61.000000)">
                    <path d="M92.8459376,44.6352086 C91.7416221,44.6352086 90.9455721,44.9910881 90.1386421,45.3538001 L90.1386421,53.5583382 C90.9117233,53.6308212 91.3547793,53.6308212 92.0885718,53.6308212 C94.7390498,53.6308212 95.1023193,52.4378227 95.1023193,50.7719024 L95.1023193,46.8530688 C95.1023193,45.6232347 94.6870678,44.6352086 92.8459376,44.6352086 Z M75.2442859,44.1875371 C73.4055735,44.1875371 72.9854863,45.1800192 72.9854863,46.408665 L72.9854863,47.0990356 L77.5003654,47.0990356 L77.5003654,46.408665 C77.5003655,45.1800192 77.0808828,44.1875371 75.2442859,44.1875371 Z M41.1465069,52.7277546 C41.1465069,53.6997394 41.613136,54.2047438 42.6431052,54.2047438 C43.748025,54.2047438 44.4020312,53.8506467 45.2083568,53.4870435 L45.2083568,51.5406974 L42.7924023,51.5406974 C41.6491003,51.5406974 41.1465069,51.7498286 41.1465069,52.7277546 Z M109.967965,44.6352086 C108.12623,44.6352086 107.487939,45.6232347 107.487939,46.8530688 L107.487939,51.3422603 C107.487939,52.5756592 108.12623,53.5666559 109.967965,53.5666559 C111.804864,53.5666559 112.44799,52.5756592 112.44799,51.3422603 L112.44799,46.8530688 C112.44799,45.6232347 111.804864,44.6352086 109.967965,44.6352086 Z M32.1200731,57.7611626 L26.7057844,57.7611626 L26.7057844,44.879096 L24,44.879096 L24,40.4401079 L26.7057844,40.4401079 L26.7057844,37.7748732 C26.7057844,34.1533979 28.232907,32 32.5728001,32 L36.186154,32 L36.186154,36.4398794 L33.9276567,36.4398794 C32.2379392,36.4398794 32.1267219,37.0601435 32.1267219,38.2180888 L32.120073,40.4401079 L36.2115406,40.4401079 L35.7328226,44.8790961 L32.120073,44.8790961 L32.120073,57.7611626 L32.1200731,57.7611626 Z M50.624761,57.7944335 L46.1122997,57.7944335 L45.9167627,56.6727297 C43.8562201,57.7944335 42.0172055,57.976235 40.8040905,57.976235 C37.4947708,57.976235 35.7328226,55.802934 35.7328226,52.7978611 C35.7328226,49.2521365 37.7882274,47.986655 41.4656522,47.986655 L45.2083567,47.986655 L45.2083567,47.2202367 C45.2083567,45.4108358 44.9974065,44.879096 42.1658982,44.879096 L37.5361751,44.879096 L37.9889022,40.4401079 L43.0495923,40.4401079 C49.2626511,40.4401079 50.624761,42.3692244 50.624761,47.2558841 L50.624761,57.7944335 L50.624761,57.7944335 Z M65.9703331,45.2046752 C63.1620958,44.7317535 62.3557703,44.627782 61.0045403,44.627782 C58.5774037,44.627782 57.8439134,45.1541748 57.8439134,47.1798363 L57.8439134,51.0119281 C57.8439134,53.0378866 58.5774037,53.5666559 61.0045403,53.5666559 C62.3557703,53.5666559 63.1620958,53.4609021 65.9703331,52.9856039 L65.9703331,57.3155705 C63.5105566,57.8574105 61.908181,57.9999999 60.5536267,57.9999999 C54.7404063,57.9999999 52.4296247,54.9949271 52.4296247,50.6542662 L52.4296247,47.5446277 C52.4296247,43.2001051 54.7404062,40.1899821 60.5536267,40.1899821 C61.9081811,40.1899821 63.5105567,40.3331657 65.9703331,40.8773821 L65.9703331,45.2046752 L65.9703331,45.2046752 Z M82.9146542,50.6542662 L72.9854864,50.6542662 L72.9854864,51.0119281 C72.9854864,53.0378867 73.7195811,53.566656 76.1461133,53.566656 C78.3275443,53.566656 79.6588277,53.4609022 82.4619272,52.985604 L82.4619272,57.3155706 C79.7585606,57.8574105 78.3499086,58 75.6973152,58 C69.8837926,58 67.5718021,54.9949271 67.5718021,50.6542662 L67.5718021,47.0990357 C67.5718021,43.301106 69.2872084,40.1899822 75.2442859,40.1899822 C81.2013635,40.1899822 82.9146542,43.2648645 82.9146542,47.0990357 L82.9146542,50.6542662 L82.9146542,50.6542662 Z M100.515701,50.7362552 C100.515701,54.9319501 99.2959376,57.9916822 91.9054259,57.9916822 C89.2368148,57.9916822 87.6713101,57.7611626 84.7258645,57.3155705 L84.7258645,33.3329144 L90.1386421,32.4449979 L90.1386421,40.8340112 C91.3082373,40.406837 92.8223644,40.1899821 94.200492,40.1899821 C99.6138741,40.1899821 100.515701,42.575385 100.515701,46.408665 L100.515701,50.7362552 Z M117.866812,50.8277501 C117.866812,54.4471459 116.34664,57.9572231 109.986098,57.9572231 C103.622533,57.9572231 102.073953,54.4471459 102.073953,50.8277501 L102.073953,47.33312 C102.073953,43.7119419 103.622533,40.2012705 109.986098,40.2012705 C116.34664,40.2012705 117.866812,43.7119419 117.866812,47.33312 L117.866812,50.8277501 Z M135.205834,50.8277501 C135.205834,54.4471459 133.683849,57.9572231 127.324515,57.9572231 C120.96095,57.9572231 119.41237,54.4471459 119.41237,50.8277501 L119.41237,47.33312 C119.41237,43.7119419 120.96095,40.2012705 127.324515,40.2012705 C133.683849,40.2012705 135.205834,43.7119419 135.205834,47.33312 L135.205834,50.8277501 Z M153,57.7611626 L147.132682,57.7611626 L142.170818,49.6193044 L142.170818,57.7611626 L136.756227,57.7611626 L136.756227,33.3329144 L142.170818,32.4449979 L142.170818,48.1708331 L147.132682,40.4401079 L153,40.4401079 L147.582991,48.876651 L153,57.7611626 Z M127.306382,44.6352086 C125.467669,44.6352086 124.829379,45.6232347 124.829379,46.8530688 L124.829379,51.3422603 C124.829379,52.5756592 125.467669,53.5666559 127.306382,53.5666559 C129.142676,53.5666559 129.792452,52.5756592 129.792452,51.3422603 L129.792452,46.8530688 C129.792451,45.6232347 129.142676,44.6352086 127.306382,44.6352086 Z" id="Facebook"></path>
                </g>
            </g>
        </g>
    </g>
</svg>