<?xml version="1.0" encoding="UTF-8"?>
<svg width="125px" height="24px" viewBox="0 0 125 24" version="1.1" xmlns="http://www.w3.org/2000/svg" xmlns:xlink="http://www.w3.org/1999/xlink">
    <title>4BDF3096-598E-499F-9969-6277B8B9F899</title>
    <defs>
        <linearGradient x1="50%" y1="100%" x2="50%" y2="0%" id="linearGradient-1">
            <stop stop-color="#733CF0" offset="0%"></stop>
            <stop stop-color="#FE5471" offset="100%"></stop>
        </linearGradient>
        <linearGradient x1="50.0046671%" y1="0%" x2="50.0046671%" y2="100%" id="linearGradient-2">
            <stop stop-color="#733CF0" offset="0%"></stop>
            <stop stop-color="#FE5471" offset="100%"></stop>
        </linearGradient>
        <linearGradient x1="50%" y1="0%" x2="50%" y2="100%" id="linearGradient-3">
            <stop stop-color="#000000" stop-opacity="0.4" offset="0%"></stop>
            <stop stop-color="#000000" stop-opacity="0" offset="100%"></stop>
        </linearGradient>
        <linearGradient x1="100%" y1="50%" x2="0%" y2="50%" id="linearGradient-4">
            <stop stop-color="#000000" stop-opacity="0.4" offset="0%"></stop>
            <stop stop-color="#000000" stop-opacity="0" offset="70%"></stop>
        </linearGradient>
    </defs>
    <g id="第三方設定" stroke="none" stroke-width="1" fill="none" fill-rule="evenodd">
        <g id="spec" transform="translate(-426.000000, -130.000000)" fill-rule="nonzero">
            <g id="Group-2" transform="translate(58.000000, 98.000000)">
                <g id="Group" transform="translate(344.000000, 0.000000)">
                    <g id="img_kooliveLogo" transform="translate(24.000000, 32.000000)">
                        <g id="Koolive_logo">
                            <path d="M13.68,16.888 L13.68,21.6 L10.04,21.6 C6.75021004,21.595593 4.08440696,18.92979 4.08,15.64 L4.08,2.4 L13.68,2.4 L13.68,14.112 L16.08,15.512 L16.08,1.2 C16.08,0.5372583 15.5427417,0 14.88,0 L1.68,0 L1.68,15.64 C1.68,20.2571005 5.42289949,24 10.04,24 L16.08,24 L16.08,18.288 L13.68,16.888 Z" id="Path" fill="url(#linearGradient-1)"></path>
                            <path d="M16.08,5.712 L16.08,8.488 L19.68,6.4 L19.68,17.6 L10.08,12 L13.696,9.888 L13.696,7.112 L7.072,10.96 C6.70419701,11.1773375 6.47854373,11.5727827 6.47854373,12 C6.47854373,12.4272173 6.70419701,12.8226625 7.072,13.04 L22.08,21.792 L22.08,2.208 L16.08,5.712 Z" id="Path" fill="url(#linearGradient-2)"></path>
                            <polygon id="Path" fill="url(#linearGradient-3)" points="13.68 19.648 16.08 19.648 16.08 18.288 13.68 16.888"></polygon>
                            <polygon id="Path" fill="url(#linearGradient-4)" points="11.272 11.288 13.64 9.912 13.68 9.888 13.68 7.112 11.272 8.512"></polygon>
                            <polygon id="Path" fill="#F06A7B" opacity="0" points="24 24 0 24 0 0 24 0"></polygon>
                        </g>
                        <g id="Group" transform="translate(33.600000, 2.000000)" fill="#062133">
                            <g id="word_koolive" transform="translate(0.800000, 0.400000)">
                                <polygon id="Path" points="8.8 19.152 3.592 13.136 3.592 19.152 0 19.152 0 0 3.592 0 3.592 11.712 8.664 6.512 13.6 6.512 8.2 12.256 14.056 19.152"></polygon>
                                <path d="M27.512,12.888 C27.512,16.888 24.536,19.616 20.512,19.616 C16.488,19.616 13.504,16.856 13.504,12.888 C13.504,8.92 16.488,6.16 20.512,6.16 C24.536,6.16 27.512,8.92 27.512,12.888 Z M16.952,12.888 C16.9032362,13.8462894 17.262621,14.7803996 17.9411107,15.4588893 C18.6196004,16.137379 19.5537106,16.4967638 20.512,16.448 C21.4669782,16.4950439 22.3969445,16.1339746 23.0699757,15.4548388 C23.7430069,14.775703 24.0956646,13.8425145 24.04,12.888 C24.0956646,11.9334855 23.7430069,11.000297 23.0699757,10.3211612 C22.3969445,9.64202542 21.4669782,9.28095613 20.512,9.328 C19.5537106,9.27923624 18.6196004,9.63862096 17.9411107,10.3171107 C17.262621,10.9956004 16.9032362,11.9297106 16.952,12.888 Z" id="Shape"></path>
                                <path d="M42.584,12.8 C42.584,16.8 39.6,19.528 35.584,19.528 C31.568,19.528 28.576,16.8 28.576,12.8 C28.576,8.8 31.56,6.072 35.584,6.072 C39.608,6.072 42.584,8.864 42.584,12.8 Z M32,12.8 C32,14.7572972 33.5867028,16.344 35.544,16.344 C37.5012972,16.344 39.088,14.7572972 39.088,12.8 C39.088,10.8427028 37.5012972,9.256 35.544,9.256 C33.5867028,9.256 32,10.8427028 32,12.8 Z" id="Shape"></path>
                                <path d="M54.28,19.2 L50.912,19.2 L50.912,0 L54.28,0 L54.28,19.2 Z M57.056,6.56 L60.424,6.56 L60.424,19.2 L57.056,19.2 L57.056,6.56 Z M57.2,3.56 C56.7861818,3.18732598 56.5554095,2.6527521 56.568,2.096 C56.5482994,1.53095321 56.7796899,0.986160514 57.2,0.608 C57.6323183,0.204818356 58.2096095,-0.00589293442 58.8,0.024 C59.3698704,0.00558442339 59.9251825,0.205954746 60.352,0.584 C60.7643316,0.933925254 60.996583,1.45134605 60.984,1.992 C60.9945779,2.56147715 60.7720555,3.1105585 60.368,3.512 C59.9440905,3.93175846 59.3639543,4.1551109 58.768,4.128 C58.1875487,4.14616607 57.6236103,3.93325054 57.2,3.536 L57.2,3.56 Z M75.504,6.536 L70.328,19.2 L67.048,19.2 L61.904,6.536 L65.712,6.536 L68.688,15.288 L71.672,6.536 L75.504,6.536 Z M89.536,12.88 L89.536,13.536 L80.096,13.536 C80.1572675,14.4161479 80.5680089,15.2352324 81.236716,15.8107713 C81.905423,16.3863101 82.7765427,16.6704904 83.656,16.6 C85.0947463,16.5577512 86.4558304,15.9377659 87.432,14.88 L89.128,17.28 C87.6762925,18.731264 85.7087074,19.5482146 83.656,19.552 C79.52,19.552 76.84,16.872 76.84,12.848 C76.84,8.824 79.44,6.088 83.408,6.088 C87.24,6.12 89.536,8.56 89.536,12.88 L89.536,12.88 Z M80.176,11.376 L86.144,11.376 C86.1274404,10.6396029 85.8049029,9.9433796 85.2538715,9.4545859 C84.7028401,8.96579219 83.9731149,8.72860337 83.24,8.8 C82.4912432,8.73130798 81.746111,8.96491169 81.1705839,9.44877523 C80.5950567,9.93263877 80.2369381,10.6265723 80.176,11.376 L80.176,11.376 Z M44.44,18.896 C43.6707168,18.1802715 43.4901853,17.0314929 44.0028544,16.1143045 C44.5155235,15.1971162 45.5886171,14.7490604 46.6012834,15.0293655 C47.6139497,15.3096706 48.3039187,16.2457404 48.272,17.296 C48.285677,17.8974133 48.0479295,18.4772854 47.616,18.896 C46.7302472,19.7745778 45.3017528,19.7745778 44.416,18.896 L44.44,18.896 Z" id="Shape"></path>
                            </g>
                        </g>
                    </g>
                </g>
            </g>
        </g>
    </g>
</svg>