<svg width="83" height="36" viewBox="0 0 83 36" fill="none" xmlns="http://www.w3.org/2000/svg">
<path fill-rule="evenodd" clip-rule="evenodd" d="M6.96776 31.9474H18.4447C20.0772 31.9474 21.4124 30.6118 21.4124 28.9793V28.7317C21.4124 27.0992 20.0772 25.7639 18.4447 25.7639H10.1831V6.96777C10.1831 5.33525 8.84787 4 7.21535 4H6.96776C5.33525 4 4 5.33525 4 6.96777V28.9793C4 30.6118 5.33525 31.9474 6.96776 31.9474ZM78.0845 18.1499V17.9023C78.0845 16.2698 76.7488 14.9345 75.1163 14.9345H66.8552V10.2357H75.1163C76.7488 10.2357 78.0845 8.90043 78.0845 7.26791V7.02032C78.0845 5.38781 76.7488 4.05256 75.1163 4.05256H63.6394C62.0069 4.05256 60.6717 5.38781 60.6717 7.02032V29.0318C60.6717 30.6643 62.0069 32 63.6394 32H75.1163C76.7488 32 78.0845 30.6643 78.0845 29.0318V28.7842C78.0845 27.1517 76.7488 25.8165 75.1163 25.8165H66.8552V21.1176H75.1163C76.7488 21.1176 78.0845 19.7824 78.0845 18.1499ZM56.0131 31.0626L56.0139 31.0614C56.5631 30.5077 56.8715 29.7595 56.872 28.9797V6.96777C56.872 5.33525 55.5368 4 53.9039 4H53.6563C52.0238 4 50.6885 5.33525 50.6885 6.96777V19.8887L39.9618 5.50072C39.4493 4.60645 38.4845 4 37.3849 4H37.1373C35.5048 4 34.1691 5.33525 34.1691 6.96777V28.9793C34.1691 30.6118 35.5044 31.9474 37.1373 31.9474H37.3849C39.0174 31.9474 40.3527 30.6118 40.3527 28.9793V15.8169L51.157 30.574C51.2235 30.6775 51.2962 30.7768 51.3746 30.8713L51.375 30.8721C51.6719 31.2769 52.078 31.5545 52.5304 31.7241C52.8782 31.8678 53.2584 31.9474 53.6563 31.9474H53.9039C54.3875 31.9477 54.8638 31.8287 55.2904 31.6009C55.5869 31.4592 55.8369 31.2774 56.0131 31.0626ZM26.7756 31.9474H27.0232C28.6557 31.9474 29.9909 30.6118 29.9909 28.9793V6.96777C29.9905 5.33525 28.6553 4 27.0228 4H26.7756C25.1431 4 23.8074 5.33525 23.8074 6.96777V28.9793C23.8074 30.6118 25.1431 31.9474 26.7756 31.9474Z" fill="#3ACE01"/>
</svg>
