<svg width="480" height="480" viewBox="0 0 480 480" fill="none" xmlns="http://www.w3.org/2000/svg">
<path fill-rule="evenodd" clip-rule="evenodd" d="M80.7596 194.46C80.9457 194.669 81.1736 194.837 81.4285 194.952C81.6835 195.067 81.9598 195.128 82.2396 195.13L106.49 195.28C129.1 195.41 131.75 195.16 133.14 194.46C134.641 193.522 135.844 192.176 136.61 190.58C137.93 187.89 137.93 187.08 136.61 184.38C135.844 182.781 134.636 181.435 133.13 180.5C131.79 179.84 128.38 179.56 110.71 179.55H92.7096V170.89C92.6403 166.412 92.844 161.933 93.3196 157.48C94.1174 154.041 95.6386 150.811 97.7819 148.006C99.9251 145.201 102.641 142.884 105.75 141.21C109.29 139.42 121.4 136.66 126.65 136.44L128.38 136.36L136.26 149C137.15 150.43 145.01 163 146.47 164.19C147.87 165.167 149.537 165.69 151.245 165.69C152.952 165.69 154.619 165.167 156.02 164.19C157.48 162.98 165.34 150.43 166.23 149L174.15 136.32L175.88 136.4C181.14 136.62 193.25 139.4 196.78 141.17C199.889 142.842 202.606 145.159 204.75 147.964C206.893 150.77 208.414 154 209.21 157.44C209.69 161.893 209.898 166.372 209.83 170.85V179.51H191C168.8 179.51 166.48 179.51 164.34 183.51C163.791 184.755 163.507 186.1 163.507 187.46C163.507 188.82 163.791 190.165 164.34 191.41C166.48 195.41 168.08 195.41 194.85 195.41H219.52C220.011 195.409 220.484 195.227 220.85 194.9L224.73 191.44C224.937 191.255 225.104 191.029 225.22 190.776C225.335 190.523 225.396 190.248 225.4 189.97L225.57 174.5C225.73 160.4 225.57 158.23 224.49 153.5C222.49 144.264 217.175 136.081 209.55 130.5C203.98 126.34 198.96 124.38 188.86 122.5C176.52 120.13 175.64 119.81 174.43 118.38C173.43 117.2 173.43 116.86 173.43 116.86C173.43 116.86 173.7 116.1 176.2 114.28C185.017 107.685 191.018 98.0015 193 87.17C194.08 81.07 193.85 54.52 192.67 48.77C190.689 39.2428 185.492 30.6868 177.95 24.5379C170.408 18.3889 160.98 15.0212 151.25 15H151C147.591 15.0192 144.196 15.4251 140.88 16.21C133.179 18.1834 126.188 22.2831 120.706 28.0406C115.225 33.7982 111.473 40.9815 109.88 48.77C108.69 54.51 108.46 81.07 109.55 87.17C111.511 97.9911 117.5 107.667 126.31 114.25C127.228 114.872 128.097 115.564 128.91 116.32C128.91 116.38 128.91 116.49 128.85 116.66C128.36 119.2 128.27 119.66 113.65 122.46C103.56 124.39 98.5296 126.35 92.9596 130.46C85.3535 135.989 80.0326 144.109 77.9996 153.29C76.9996 157.71 76.7996 160.6 76.7896 174V189.28C76.7882 189.774 76.9699 190.252 77.2996 190.62L80.7596 194.46ZM155.76 135.76C153.85 138.85 152.28 141.33 151.22 142.95C150.16 141.33 148.59 138.85 146.67 135.76L141.31 127.07L143.79 122.07H158.64L161.12 127.07L155.76 135.76ZM138.06 34.45C142.202 32.1075 146.881 30.8776 151.64 30.88C153.739 30.8622 155.83 31.1451 157.85 31.72C167.3 34.49 174.85 42.21 176.93 51.11C175.93 50.54 174.72 49.83 173.33 49.01C170.75 47.49 165.33 44.54 163.33 44.26C160.4 43.86 159.24 44.77 155.33 48.33C147.7 55.21 142.73 57.11 131.15 57.57L124.77 57.83C124.811 53.1238 126.054 48.5062 128.379 44.4147C130.705 40.3231 134.037 36.8932 138.06 34.45ZM127.77 91.88C125.57 87.41 124.77 83.27 124.77 76.62V73.73L131.9 73.45C145.32 72.92 153.4 70.28 161.72 63.71C162.446 63.1273 163.208 62.5897 164 62.1C165.17 62.72 167.76 64.17 171.22 66.2L177.78 70.05V75.17C177.78 83.17 177.08 87.07 174.78 91.82C172.677 96.2005 169.374 99.8942 165.254 102.472C161.135 105.049 156.369 106.404 151.51 106.38H151.34C146.444 106.427 141.635 105.091 137.465 102.526C133.296 99.9611 129.935 96.2708 127.77 91.88ZM143.83 184.823C144.449 183.036 145.701 181.537 147.35 180.61C150.09 179 154.32 179.73 156.8 182.2C157.748 183.153 158.417 184.347 158.736 185.653C159.055 186.959 159.011 188.327 158.61 189.61C158.22 190.965 157.473 192.19 156.447 193.158C155.422 194.125 154.155 194.799 152.78 195.11C152.192 195.243 151.592 195.31 150.99 195.31C149.452 195.292 147.956 194.804 146.704 193.91C145.452 193.016 144.505 191.759 143.99 190.31C143.268 188.562 143.211 186.61 143.83 184.823ZM315.3 205.94C314.264 205.372 313.1 205.081 311.919 205.095C310.738 205.109 309.581 205.428 308.56 206.02C305.4 207.59 303.46 212.17 304.64 215.26C305.82 218.35 307.72 220.11 310.58 220.65C311.111 220.747 311.65 220.798 312.19 220.8C313.763 220.794 315.294 220.289 316.562 219.356C317.829 218.423 318.767 217.111 319.24 215.61C319.89 213.796 319.847 211.806 319.12 210.021C318.393 208.237 317.033 206.783 315.3 205.94ZM438.59 236.31C436.11 232.25 433.76 231.91 415.01 232.87C385.45 234.38 363.12 238.09 341.42 245.08C326.56 249.87 322.97 252.51 323.72 258.08L324.1 260.97L320.1 259.38C317.89 258.5 313.96 256.98 311.38 256.01C308.8 255.04 297.78 250.46 286.9 245.85C263.75 236.06 255.45 233.66 244.54 233.66C232.4 233.66 222.63 237.05 210.36 245.5L204.83 249.32H138.65L139.18 244.32C139.59 240.47 139.43 238.8 138.44 236.89C134.26 228.81 111.79 222.16 74.8196 218.06C56.9296 216.06 46.4296 215.48 44.4596 216.34C43.2855 216.961 42.2268 217.78 41.3296 218.76C39.7896 220.48 39.7596 221.76 39.5296 298.1C39.3196 368.84 39.4096 375.91 40.5296 378.15C41.2697 379.534 42.3814 380.684 43.7396 381.47C45.0396 382.07 54.5996 382.35 73.2996 382.35L75.2556 382.35L76.3732 382.35H76.3735H76.3738H76.3741H76.3745C96.7815 382.356 102.132 382.358 104.354 379.722C105.144 378.785 105.539 377.515 106.073 375.794C106.146 375.561 106.221 375.32 106.3 375.07L107.58 371L121.39 384.75C134.28 397.58 143.7 405.62 170.03 426.26C186.88 439.48 207.09 454.52 211.87 457.41C218.36 461.33 230.92 465.41 238.03 465.88C244.79 466.34 252.5 464.76 256.16 462.15C258.16 460.74 258.76 460.67 261.99 461.48C272.71 464.18 285.51 458.48 292.99 447.63C295.17 444.47 295.29 444.41 298.99 444.77C309.71 445.77 322.54 439.43 327.78 430.49C329.58 427.42 329.99 427.18 334.89 426.28C340.68 425.438 346.037 422.732 350.15 418.57C352.706 416.27 354.755 413.461 356.163 410.323C357.572 407.186 358.31 403.789 358.33 400.35L358.53 394.48L364.27 390.4C367.42 388.16 370.36 386.32 370.79 386.31C371.22 386.3 372.28 388.46 373.14 391.11C373.226 391.376 373.308 391.633 373.387 391.882C374.044 393.936 374.515 395.408 375.451 396.469C377.819 399.151 383.165 399.203 402.028 399.389H402.029C403.012 399.399 404.032 399.409 405.09 399.42C433.97 399.69 436.09 399.42 438.52 395.42C440.01 392.98 440.05 390.86 440.05 315.82C440.09 241.24 440 238.69 438.59 236.31ZM92.4896 363.41L91.6896 365.95H55.8096V299.43C55.8096 262.84 56.0796 232.91 56.3996 232.91C56.7196 232.91 63.3096 233.62 71.0396 234.48C91.9196 236.8 110.04 240.16 118.27 243.23L122.41 244.78L121.92 248.43C118.91 270.59 107.31 315.9 92.4896 363.41ZM340.49 404.6C338.61 407.47 334.64 409.78 331.58 409.78C328.13 409.78 321.68 403.96 297.48 379.01C276.48 357.32 275.09 356.31 270.04 358.42C268.934 358.857 267.939 359.535 267.128 360.406C266.317 361.276 265.711 362.316 265.352 363.45C264.994 364.584 264.893 365.784 265.057 366.962C265.221 368.14 265.645 369.267 266.3 370.26C267.1 371.55 278.3 383.31 291.15 396.4C304 409.49 314.41 420.58 314.27 421.06C313.44 423.82 308.6 426.91 303.67 427.83C297.29 429.01 296.49 428.41 273.73 405.43C262.05 393.64 251.53 383.62 250.33 383.17C247.22 381.98 243.16 383.51 241.33 386.58C240.41 387.865 239.916 389.405 239.916 390.985C239.916 392.565 240.41 394.105 241.33 395.39C242.15 396.72 251.33 406.5 261.77 417.1L280.77 436.39L278.63 439.2C274.44 444.69 269.09 446.69 264.38 444.53C262.52 443.67 253.3 434.99 239.78 421.38C218.68 400.14 218.07 399.61 215.04 399.61C209.04 399.61 205.04 405.38 207.25 410.69C207.86 412.13 216.25 421.33 225.79 431.14C235.33 440.95 243 449.19 242.79 449.45C242.03 450.22 232.93 448.45 227.92 446.56C221.92 444.3 213.8 438.72 191.41 421.5C157.23 395.22 142.41 382.65 127.84 367.42C120.41 359.66 114.21 353.01 114.07 352.63C113.93 352.25 116.17 343.77 119.07 333.79C124.77 313.94 131.58 287.38 134.36 274.19L136.13 265.77H186.86L184.78 268.32C164.44 293.21 158.78 313.32 168.78 325.46C173.61 331.32 186.38 335.38 196.66 334.33C206.66 333.33 215.15 328.88 223.46 320.33C227.01 316.69 229.26 315.03 231.12 314.68C234.198 313.842 237.206 312.769 240.12 311.47L246.46 308.76L250.46 312.52C255.02 316.8 265.07 325.18 289.58 345.14C334.74 382.15 346.32 395.62 340.44 404.6H340.49ZM365.68 369.41C365.53 369.53 362.13 371.82 358.14 374.48L350.88 379.33L348.77 376.75C340.41 366.53 324.47 352.11 295.77 328.75C274.77 311.69 266.05 304.38 259.39 298.17C252.97 292.17 250.9 290.79 248.51 290.79C247.46 290.79 242.24 292.55 236.92 294.7C231.6 296.85 226.45 298.63 225.49 298.65C222.43 298.71 217.78 300.78 216.49 302.65C213.89 306.41 207.25 312.91 204.15 314.73C201.646 316.233 198.865 317.214 195.973 317.614C193.08 318.014 190.137 317.826 187.32 317.06C184.55 316.36 181.82 315.17 181.25 314.43C178.62 311.04 183.35 297.81 191.1 286.92C198.43 276.61 218.21 259.02 227.68 254.38C235.837 250.182 245.249 249.115 254.14 251.38C258.456 252.493 262.692 253.896 266.82 255.58C270.69 257.19 281.43 261.66 290.69 265.53C299.95 269.4 313.6 274.81 321.03 277.53L334.55 282.53L339.29 294.66C348.58 318.69 366.32 368.84 365.63 369.41H365.68ZM423.68 315.86V382.39H387.82L384.53 372C376.29 346.08 357.53 294.54 348.81 274C346.08 267.56 344.11 262.06 344.43 261.78C345.35 260.96 359.13 257.28 368.87 255.25C384.65 251.96 403.87 249.65 417.2 249.43L423.66 249.32L423.68 315.86ZM243.789 220.492C243.534 220.376 243.306 220.209 243.12 220L239.64 216.13C239.312 215.764 239.131 215.291 239.13 214.8V199.51C239.14 186.16 239.31 183.26 240.37 178.85C242.396 169.693 247.694 161.589 255.27 156.06C260.84 151.9 265.86 149.95 275.96 148.01C290.567 145.22 290.66 144.75 291.159 142.221L291.16 142.22C291.22 142.04 291.22 141.94 291.22 141.87C290.405 141.116 289.536 140.424 288.62 139.8C279.806 133.22 273.817 123.543 271.86 112.72C270.77 106.62 271 80.0698 272.18 74.3198C273.774 66.5318 277.526 59.3491 283.008 53.5917C288.489 47.8343 295.479 43.7343 303.18 41.7598C306.496 40.9745 309.891 40.5686 313.3 40.5498H313.56C323.287 40.5775 332.708 43.9479 340.246 50.0962C347.783 56.2444 352.978 64.7968 354.96 74.3198C356.14 80.0698 356.37 106.62 355.28 112.72C353.316 123.528 347.345 133.195 338.56 139.79C336.06 141.61 335.79 142.36 335.79 142.37C335.79 142.38 335.79 142.71 336.79 143.89C337.99 145.32 338.88 145.65 351.22 148.01C361.31 149.95 366.34 151.9 371.91 156.06C379.535 161.641 384.85 169.824 386.85 179.06C387.98 183.79 388.09 185.96 387.93 200.06L387.75 215.53C387.748 215.807 387.688 216.081 387.574 216.334C387.461 216.587 387.296 216.814 387.09 217L383.17 220.5C382.801 220.83 382.324 221.011 381.83 221.01L331.9 220.68C331.62 220.678 331.343 220.617 331.089 220.502C330.834 220.386 330.606 220.219 330.42 220.01L328.69 218.07C325.75 214.78 325.75 211.29 328.69 208L330.42 206C330.606 205.791 330.834 205.623 331.089 205.508C331.343 205.392 331.62 205.332 331.9 205.33L372.18 205V196.39C372.249 191.918 372.045 187.447 371.57 183C370.767 179.56 369.241 176.33 367.092 173.527C364.944 170.723 362.222 168.409 359.11 166.74C355.57 164.97 343.47 162.19 338.21 161.97L336.48 161.9L328.56 174.57C327.67 176 319.81 188.55 318.35 189.76C316.949 190.736 315.282 191.26 313.575 191.26C311.867 191.26 310.2 190.736 308.8 189.76C307.34 188.57 299.48 176 298.59 174.57L290.67 161.9L288.94 161.97C283.68 162.19 271.58 164.96 268.04 166.74C264.931 168.414 262.215 170.73 260.072 173.536C257.929 176.341 256.407 179.571 255.61 183.01C255.135 187.463 254.931 191.942 255 196.42V205.08H272.1C291.99 205.08 293.62 205.08 296.32 208.42C297.061 209.408 297.542 210.568 297.717 211.792C297.892 213.015 297.755 214.263 297.32 215.42C296.943 216.66 296.26 217.786 295.334 218.693C294.408 219.6 293.268 220.259 292.02 220.61C290.646 220.945 275.195 220.874 269.357 220.847H269.356H269.355H269.351H269.347C268.39 220.843 267.692 220.84 267.36 220.84L244.6 220.67C244.32 220.668 244.043 220.607 243.789 220.492ZM313.57 168.49C314.63 166.87 316.21 164.4 318.12 161.3L323.48 152.61L321 147.61H306.15L303.67 152.61L309.03 161.3C310.94 164.4 312.51 166.87 313.57 168.49ZM314 56.3898C309.237 56.3991 304.558 57.6429 300.42 59.9998C296.405 62.4407 293.078 65.8648 290.755 69.9487C288.431 74.0326 287.187 78.6414 287.14 83.3398L293.52 83.0798C305.09 82.6198 310.07 80.7198 317.7 73.8398C321.61 70.2798 322.76 69.3698 325.7 69.7798C327.7 70.0498 333.12 72.9998 335.7 74.5198C337.09 75.3498 338.3 76.0498 339.3 76.6198C337.22 67.7198 329.67 60.0098 320.22 57.2298C318.196 56.6589 316.102 56.3761 314 56.3898ZM287.13 102.17C287.13 108.83 287.93 112.96 290.13 117.43V117.39C292.288 121.79 295.645 125.491 299.816 128.065C303.986 130.639 308.799 131.982 313.7 131.94H313.86C318.721 131.963 323.489 130.606 327.61 128.027C331.731 125.448 335.035 121.752 337.14 117.37C339.44 112.62 340.14 108.72 340.14 100.72V95.5998L333.58 91.7498C330.12 89.7198 327.52 88.2698 326.36 87.6498C325.568 88.1406 324.807 88.6782 324.08 89.2598C315.76 95.8298 307.68 98.4698 294.26 98.9998L287.13 99.2798V102.17ZM438.78 85.8696C434.452 83.6477 430.961 80.0829 428.83 75.7096C428.087 74.1287 427.164 72.6389 426.08 71.2696C425.401 70.6306 424.546 70.2106 423.626 70.0643C422.706 69.9181 421.763 70.0523 420.92 70.4496C419.63 71.1096 417.92 74.1596 417.63 74.7596C414.26 80.9996 411.76 83.5396 406 86.4196C402.83 88.0096 401 89.4196 401 91.9596C401 94.6796 402.12 95.3896 406 97.4096C410.732 99.7055 414.591 103.474 417 108.15C419 112.15 420.36 114 422.8 114C425.58 114 426.55 112.61 428.6 108.63C430.782 104.024 434.443 100.282 439 97.9996C443.36 95.7496 444.77 94.7796 444.77 91.9996C444.77 89.2196 443.31 88.1996 438.78 85.8696ZM432.78 92.2096C432.78 92.7196 432.78 92.8796 430.56 94.0096C427.874 95.3525 425.708 97.5466 424.4 100.25C423.4 102.25 423.21 102.25 422.7 102.25C422.41 102.25 422.04 102.08 421 100.02C419.586 97.2749 417.319 95.0638 414.54 93.7196C412.73 92.7796 412.73 92.7196 412.73 92.2096C412.73 91.9196 412.73 91.5596 414.52 90.6696C417.86 88.9996 419.39 87.4896 421.32 83.8996C421.615 83.3039 421.992 82.7519 422.44 82.2596C422.609 82.2002 422.791 82.1874 422.967 82.2226C423.143 82.2578 423.306 82.3397 423.44 82.4596C423.87 83.061 424.245 83.7003 424.56 84.3696C425.839 86.9559 427.919 89.0602 430.49 90.3696C432.8 91.5496 432.8 91.7296 432.8 92.2096H432.78ZM386.3 71.5604C382.93 64.8504 377.71 59.7504 370.25 55.8504C364.6 52.9004 364 52.2804 364.03 49.4704C364.03 46.9504 365.58 45.3004 370.28 42.9504C378.62 38.7504 382.36 35.0004 387.22 25.9504C388.67 23.1904 390.34 20.9404 391.22 20.4804C392.151 20.0545 393.188 19.9164 394.198 20.0839C395.209 20.2513 396.146 20.7168 396.89 21.4204C398.282 23.2264 399.47 25.1817 400.43 27.2504C403.559 33.6614 408.682 38.8857 415.03 42.1404C421.57 45.4604 422.68 46.5004 422.68 49.4604C422.68 52.4204 421.68 53.4004 415.34 56.6704C408.49 60.2204 403.86 64.9204 400.1 72.2204C397.1 78.0004 396.09 79.0004 393.19 79.0004C390.76 79.0004 389.17 77.2904 386.3 71.5604ZM389.94 37.4404C387.38 42.2004 385.4 44.1604 381 46.3504C378.51 47.5904 377.7 48.2904 377.7 49.7804C377.7 51.2704 378 51.6004 381 53.1404C384.647 54.9142 387.617 57.8279 389.46 61.4404C390.98 64.4504 391.82 65.3504 393.1 65.3504C394.63 65.3504 395.17 64.7804 396.75 61.7804C398.442 58.2516 401.255 55.3823 404.75 53.6204C408.1 51.9104 408.63 51.3604 408.63 49.8404C408.63 48.3204 408.08 47.7604 404.63 46.0004C401.283 44.2768 398.585 41.5157 396.94 38.1304C396.435 37.0425 395.808 36.0159 395.07 35.0704C394.677 34.6965 394.181 34.449 393.646 34.3599C393.112 34.2707 392.562 34.3441 392.07 34.5704C391.175 35.3751 390.451 36.351 389.94 37.4404Z" fill="#C4CAD5"/>
</svg>
