<svg
  width="24"
  height="24"
  viewBox="0 0 24 24"
  xmlns="http://www.w3.org/2000/svg"
  xmlns:xlink="http://www.w3.org/1999/xlink"
>
  <defs>
    <polygon id="path-1" points="0 0 24 0 24 24 0 24" />
  </defs>
  <g id="社群/-社群分享" fill="none" fillRule="evenodd">
    <g id="dnd_社群/樣式1" transform="translate(-1564, -254)">
      <g id="切圓框LOGO" transform="translate(1464, 254)">
        <g id="圓框推特" transform="translate(100, 0)">
          <g id="社群/sns_outline/Twitter3">
            <mask id="mask-2" fill="#fff">
              <use xlinkHref="#path-1" />
            </mask>
            <g id="snsiconf_2-copy" mask="url(#mask-2)">
              <circle id="Oval" cx="12" cy="12" r="11.5" />
              <path
                d="M9.80177459,16.6 C14.3773161,16.6 16.8791623,12.9057592 16.8791623,9.70408377 C16.8791623,9.59853403 16.8791623,9.49298429 16.8740039,9.39246073 C17.3588978,9.05068063 17.7818903,8.6234555 18.1171893,8.13591623 C17.673563,8.32691099 17.1938275,8.45759162 16.6882998,8.51790576 C17.2041444,8.21633508 17.5961863,7.74387435 17.7818903,7.17591623 C17.3021549,7.45235602 16.7708349,7.65340314 16.2034059,7.76397906 C15.7494627,7.29151832 15.1046569,7 14.387633,7 C13.0154864,7 11.9012621,8.08565445 11.9012621,9.4226178 C11.9012621,9.61361257 11.9218958,9.79958115 11.9683219,9.97549738 C9.89978506,9.87497382 8.06853679,8.90994764 6.84082667,7.44230366 C6.62933039,7.7991623 6.50552769,8.21633508 6.50552769,8.65863874 C6.50552769,9.49801047 6.94399559,10.2418848 7.61459355,10.6741361 C7.20707633,10.6640838 6.82535134,10.5535079 6.49005236,10.3725654 L6.49005236,10.4027225 C6.49005236,11.5788482 7.34635437,12.5539267 8.4863709,12.7801047 C8.28003307,12.8353927 8.0582199,12.8655497 7.83124828,12.8655497 C7.67133646,12.8655497 7.51658308,12.8504712 7.36182971,12.8203141 C7.6764949,13.7853403 8.59469826,14.4839791 9.68313034,14.5040838 C8.83198677,15.1524607 7.75903004,15.5394764 6.59322127,15.5394764 C6.39204188,15.5394764 6.19602094,15.5294241 6,15.5042932 C7.08843207,16.1979058 8.39867732,16.6 9.80177459,16.6"
                id="Fill-1"
              />
            </g>
          </g>
        </g>
      </g>
    </g>
  </g>
</svg>
