<svg width="480" height="480" viewBox="0 0 480 480" fill="none" xmlns="http://www.w3.org/2000/svg">
<path fill-rule="evenodd" clip-rule="evenodd" d="M227.48 34.3079C227.903 33.4822 229.09 31.8656 230.117 30.7154C232.441 28.1117 233.158 27.5581 236.136 26.0657C241.469 23.3932 248.74 23.3051 253.828 25.8524C254.49 26.1839 255.03 26.4247 255.55 26.7039C259.173 28.6489 261.797 32.4546 297.509 81.7116L334.971 133.382L335.689 136.042C337.503 142.773 336.394 149.158 332.472 154.55C331.355 156.085 330.116 157.165 327.4 158.97C324.32 161.016 323.336 161.447 320.527 161.981C315.848 162.87 311.284 162.143 306.943 159.819L303.417 157.931L282.962 164.364L262.507 170.796L265.042 174.308C269.978 181.146 271.662 185.954 271.103 191.611C270.46 198.119 267.881 202.188 261.007 207.539L256.245 211.245L257.176 212.349C257.687 212.956 260.446 216.112 263.305 219.364C270.886 227.984 272.151 230.062 272.989 235.276C273.483 238.35 272.478 244.679 271.077 247.311C269.746 249.811 266.94 253.239 265.182 254.514C258.171 259.597 246.785 259.38 240.688 254.047C239.459 252.972 197.345 206.487 196.322 205.077C196.187 204.89 194.691 205.439 192.999 206.297C189.035 208.306 185.34 208.899 180.857 208.246C176.874 207.665 172.917 205.752 169.993 202.991C168.931 201.989 163.087 194.238 155.566 183.857C141.652 164.651 140.631 162.948 140.097 158.051C139.417 151.805 141.861 145.224 146.472 140.887C147.825 139.614 156.008 133.435 164.656 127.156L180.38 115.739L203.425 83.5219L226.47 51.3057L225.865 49.4126C224.495 45.1274 225.171 38.8106 227.48 34.3079ZM247.68 37.7309C246.757 37.3452 245.216 37.2365 244.044 37.4745C242.926 37.7015 241.689 38.1286 241.296 38.4239C239.8 39.549 238.743 41.6935 238.637 43.8171L238.528 46.0221L275.375 96.8429C310.472 145.251 313.077 149.176 315.558 149.099C315.988 149.086 316.415 148.952 317.006 148.909C318.529 148.798 319.239 148.468 320.758 147.162C322.36 145.784 322.683 145.219 322.994 143.252L323.357 140.954L286.319 89.677C249.544 38.7641 249.27 38.3952 247.68 37.7309ZM260.727 157.259C279.152 151.461 294.245 146.594 294.269 146.442C294.293 146.291 280.785 127.597 264.252 104.9L234.191 63.6313L213.709 92.2658L193.226 120.9L210.228 144.35L227.229 167.8L260.727 157.259ZM214.833 174.293L199.059 152.537L183.285 130.781L168.873 141.23C154.521 151.636 154.458 151.687 153.86 153.36C153.53 154.284 153.37 155.827 153.506 156.789C153.736 158.421 154.594 159.699 166.358 175.925C178.426 192.57 179.041 193.353 180.773 194.285C181.926 194.905 183.301 195.176 184.562 195.032C186.504 194.809 186.814 194.607 200.687 184.549L214.833 174.293ZM238.338 211.28C227.928 199.433 219.179 189.42 218.895 189.029C218.404 188.352 218.101 188.519 212.571 192.529L206.762 196.74L208.091 198.128C208.821 198.892 218.348 209.434 229.262 221.556C242.886 236.689 249.521 243.806 250.432 244.266C253.33 245.728 257.082 244.499 258.812 241.519C260.214 239.103 260.096 236.73 258.459 234.469C257.803 233.562 248.748 223.127 238.338 211.28ZM249.104 175.015L239.974 177.896C234.953 179.481 230.573 180.853 230.242 180.946C229.766 181.079 230.015 181.529 231.422 183.075C232.403 184.154 236.327 188.602 240.142 192.961L247.079 200.885L251.898 197.259C256.018 194.158 256.812 193.401 257.37 192.04C258.544 189.176 258.098 187.964 253.356 181.137L249.104 175.015ZM98.8943 61.4436C89.2041 52.1863 87.7843 48.1568 92.5368 43.4043C97.2893 38.6518 101.319 40.0716 110.576 49.7618C116.435 55.8935 116.842 56.5506 116.842 59.8735C116.842 64.8339 113.966 67.7093 109.006 67.7093C105.683 67.7093 105.026 67.3024 98.8943 61.4436ZM368.92 50.1248C372.159 46.7053 375.906 43.2329 377.246 42.4093C380.959 40.1268 384.398 40.4655 387.336 43.4043C392.089 48.1568 390.669 52.1863 380.979 61.4436C374.847 67.3024 374.19 67.7093 370.867 67.7093C365.912 67.7093 363.031 64.8331 363.031 59.8849C363.031 56.6009 363.461 55.8894 368.92 50.1248ZM55.9968 113.64C50.2339 110.66 51.2175 101.462 57.5474 99.1483C58.2175 98.9038 66.7518 98.674 76.5127 98.6391C90.948 98.5871 94.7534 98.8096 96.9091 99.8322C102.919 102.684 102.852 110.814 96.7922 113.913C93.9371 115.372 58.8941 115.138 55.9968 113.64ZM383.081 113.913C377.087 110.847 376.947 102.796 382.837 99.8387C384.956 98.7747 388.439 98.6009 404.189 98.7739C422.751 98.9778 423.039 99.0078 425.063 100.911C429.088 104.695 428.476 111.261 423.876 113.64C420.979 115.138 385.936 115.372 383.081 113.913ZM90.4745 162.502C90.7547 161.386 94.3765 157.146 98.5239 153.079C105.258 146.475 106.382 145.686 109.044 145.686C112.919 145.686 115.727 147.585 116.841 150.962C118.192 155.056 116.457 158.121 108.447 165.789C102.361 171.615 101.07 172.49 98.5564 172.49C96.9668 172.49 94.7835 171.912 93.7048 171.205C91.3736 169.678 89.763 165.338 90.4745 162.502ZM363.048 150.879C363.532 149.586 364.731 147.897 365.713 147.125C366.695 146.353 368.919 145.713 370.654 145.703C373.546 145.687 374.44 146.304 381.376 153.105C385.891 157.533 389.136 161.407 389.423 162.712C390.495 167.594 386.544 172.49 381.532 172.49C378.712 172.49 377.702 171.81 371.162 165.505C363.278 157.904 361.573 154.83 363.048 150.879ZM77.1523 258.512C81.4036 237.888 97.0509 221.474 117.596 216.088C121.089 215.172 126.302 214.553 130.762 214.527C157.067 214.367 179.722 232.727 185.037 258.512C186.569 265.943 186.874 302.085 185.471 309.975C183 323.875 174.796 337.157 163.682 345.25C158.055 349.348 157.533 351.039 160.72 354.828C163.019 357.559 164.627 358.055 182.035 361.389C195.503 363.97 201.913 366.448 209.211 371.896C219.379 379.488 225.609 389.069 228.62 401.745C230.095 407.954 230.241 410.88 230.025 429.829L229.783 450.983L227.131 453.352L224.478 455.721H190.743C154.774 455.721 153.506 455.591 151.425 451.704C150.352 449.698 150.352 445.499 151.425 443.492C153.467 439.678 155.181 439.476 185.475 439.476H213.945V424.895C213.945 416.876 213.539 408.378 213.044 406.01C210.965 396.076 203.58 386.415 194.599 381.881C189.465 379.29 172.456 375.388 164.902 375.069L160.941 374.902L149.267 393.584C142.846 403.859 136.822 412.905 135.879 413.687C134.913 414.487 132.823 415.108 131.095 415.108C129.366 415.108 127.276 414.487 126.311 413.687C125.368 412.905 119.343 403.859 112.922 393.584L101.249 374.902L97.2872 375.069C89.7333 375.388 72.7247 379.29 67.5905 381.881C58.6094 386.415 51.2244 396.076 49.1458 406.01C48.6504 408.378 48.245 416.876 48.245 424.895V439.476L75.6586 439.488C95.8577 439.497 103.607 439.766 105.103 440.51C106.22 441.065 107.803 442.887 108.621 444.559C110.065 447.506 110.065 447.691 108.621 450.638C107.803 452.309 106.22 454.139 105.103 454.701C103.547 455.486 95.3126 455.677 69.9054 455.52L36.7387 455.315L34.3693 452.662L32 450.009L32.0057 429.107C32.0106 411.09 32.2331 407.278 33.6188 401.498C36.6079 389.033 42.8874 379.43 52.9789 371.896C60.2769 366.448 66.6864 363.97 80.1544 361.389C100.314 357.527 102.04 356.77 103.112 351.307C103.542 349.11 103.162 348.606 98.5592 345.27C87.4159 337.196 79.1959 323.912 76.7186 309.975C75.3158 302.085 75.6204 265.943 77.1523 258.512ZM294.836 258.512C299.087 237.888 314.735 221.474 335.28 216.088C338.772 215.172 343.985 214.553 348.445 214.527C374.751 214.367 397.406 232.727 402.721 258.512C404.253 265.943 404.557 302.085 403.155 309.975C400.684 323.875 392.48 337.157 381.366 345.25C375.739 349.348 375.216 351.039 378.404 354.828C380.702 357.559 382.311 358.055 399.719 361.389C413.187 363.97 419.596 366.448 426.894 371.896C437.063 379.488 443.293 389.069 446.304 401.745C447.778 407.954 447.924 410.88 447.708 429.829L447.467 450.983L444.786 453.378L442.105 455.772L407.964 455.543L373.823 455.315L371.454 452.662C368.349 449.185 368.349 446.011 371.454 442.535L373.823 439.882L402.726 439.65L431.628 439.417V424.866C431.628 416.863 431.223 408.378 430.727 406.01C428.649 396.076 421.264 386.415 412.283 381.881C407.149 379.29 390.14 375.388 382.586 375.069L378.625 374.902L366.951 393.584C360.53 403.859 354.506 412.905 353.563 413.687C352.597 414.487 350.507 415.108 348.778 415.108C347.05 415.108 344.96 414.487 343.994 413.687C343.051 412.905 337.027 403.859 330.606 393.584L318.932 374.902L314.971 375.069C307.417 375.388 290.408 379.29 285.274 381.881C276.293 386.415 268.908 396.076 266.829 406.01C266.334 408.378 265.929 416.876 265.929 424.895V439.476H291.974C319.042 439.476 320.206 439.609 322.972 443.023C326.143 446.94 323.603 454.068 318.591 455.315C317.548 455.574 302.683 455.68 285.558 455.55L254.422 455.315L252.053 452.662L249.684 450.009L249.689 429.107C249.694 411.09 249.917 407.278 251.302 401.498C254.292 389.033 260.571 379.43 270.663 371.896C277.961 366.448 284.37 363.97 297.838 361.389C317.998 357.527 319.723 356.77 320.796 351.307C321.226 349.11 320.846 348.606 316.243 345.27C305.1 337.196 296.88 323.912 294.402 309.975C292.999 302.085 293.304 265.943 294.836 258.512ZM169.193 262.016C166.621 248.245 155.31 236.256 140.897 232.023C131.995 229.408 120.219 231.02 111.683 236.023C99.7922 242.992 92.1351 256.455 92.1115 270.436L92.1067 273.188L103.681 272.726C120.22 272.067 127.495 269.278 138.474 259.39C143.861 254.537 144.585 254.136 147.263 254.507C148.869 254.73 154.558 257.492 159.905 260.646C165.252 263.8 169.7 266.308 169.788 266.22C169.877 266.131 169.609 264.24 169.193 262.016ZM386.877 262.016C384.305 248.245 372.994 236.256 358.581 232.023C349.678 229.408 337.902 231.02 329.366 236.023C317.476 242.992 309.819 256.455 309.795 270.436L309.79 273.188L321.365 272.726C337.903 272.067 345.179 269.278 356.158 259.39C361.545 254.537 362.268 254.136 364.947 254.507C366.553 254.73 372.241 257.492 377.588 260.646C382.936 263.8 387.383 266.308 387.472 266.22C387.56 266.131 387.292 264.24 386.877 262.016ZM170.083 285.487L159.753 279.429C154.071 276.096 149.045 273.293 148.584 273.198C148.123 273.103 145.918 274.469 143.685 276.234C132.748 284.874 122.304 288.267 104.494 288.967L92.1067 289.454L92.1115 296.033C92.118 305.574 93.3251 311.597 96.5326 318.106C110.594 346.631 152.089 346.564 165.751 317.994C169.048 311.099 170.072 305.433 170.078 294.049L170.083 285.487ZM387.767 285.487L377.436 279.429C371.755 276.096 366.728 273.293 366.268 273.198C365.806 273.103 363.602 274.469 361.368 276.234C350.431 284.874 339.987 288.267 322.177 288.967L309.79 289.454L309.795 296.033C309.802 305.574 311.009 311.597 314.216 318.106C328.277 346.631 369.773 346.564 383.435 317.994C386.732 311.099 387.756 305.433 387.762 294.049L387.767 285.487ZM147.77 365.155L145.359 360.281L142.948 355.408H131.095H119.242L116.831 360.281L114.42 365.155L122.554 378.321C127.028 385.562 130.871 391.486 131.095 391.486C131.318 391.486 135.162 385.562 139.636 378.321L147.77 365.155ZM365.453 365.155L363.042 360.281L360.632 355.408H348.778H336.925L334.514 360.281L332.104 365.155L340.238 378.321C344.711 385.562 348.555 391.486 348.778 391.486C349.002 391.486 352.845 385.562 357.319 378.321L365.453 365.155ZM132.563 455.349C123.87 457.258 119.367 445.028 127.123 440.569C129.811 439.023 134.245 439.819 136.719 442.294C140.912 446.487 138.507 454.044 132.563 455.349ZM339.07 449.729C337.955 446.797 340.035 442.03 343.093 440.51C345.623 439.252 347.563 439.215 349.847 440.383C358.071 444.589 354.161 457.064 345.149 455.373C342.165 454.814 340.368 453.146 339.07 449.729Z" fill="#C4CAD5"/>
</svg>
