<svg id="圖庫一" xmlns="http://www.w3.org/2000/svg" viewBox="0 0 400 400"><defs><style>.cls-1{fill:#f5f5f5;}.cls-2{fill:#bfbfbf;}.cls-2,.cls-3,.cls-4,.cls-5,.cls-6,.cls-7{stroke:#999;}.cls-2,.cls-4,.cls-5{stroke-miterlimit:10;}.cls-3{fill:#c4c4c4;}.cls-3,.cls-6,.cls-7{stroke-linejoin:round;}.cls-4,.cls-5{fill:none;}.cls-4,.cls-5,.cls-6,.cls-7{stroke-linecap:round;}.cls-4{stroke-dasharray:4 5;}.cls-5{stroke-dasharray:3 5;}.cls-6{fill:#dbdbdb;}.cls-7{fill:#e6e6e6;}</style></defs><title>produc3.1</title><rect id="背景" class="cls-1" width="400" height="400"/><path class="cls-2" d="M144.07,38.67s14.57,16.17,53.21,16.17,51.81-17.25,51.81-17.25c-5.11.29-35.36,3.22-51.44,3.22S149.19,39,144.07,38.67Z"/><path class="cls-3" d="M197.28,49.71s-39.18-2.66-53.21-11c0,0-3.21,39.65-5.36,70.73-2.26,32.88-3.21,84.37-3.21,99.66,0,16.07-3,109.78-1.6,146.64,0,0,4.81,2.32,28.39,2.32,0,0,19.79-130.8,20.72-139.77s10.49-93.52,14.27-93.52Z"/><path class="cls-4" d="M195.51,118c-6.45,16.73-15,93-16.07,102.88s-19,124.53-20.05,137.39"/><path class="cls-3" d="M150.5,41.88c-2.2,6.3-5.58,41-7.5,70.73-2.14,33.22-7,206.76-5.61,243.63"/><path class="cls-3" d="M197.19,49.71s37.87-3.73,51.9-12.12c0,0,5.38,33.55,7.51,66.45,2.14,33.22,5.35,84.37,5.35,99.66,0,18.22,1.08,112.53,4.29,151.11,0,0-9.19,11.9-30,2.14,0,0-18.36-131.43-19.29-140.39s-16-91.83-19.75-91.83Z"/><path class="cls-5" d="M199.8,118c3.78,0,20.16,95,21.43,104,1.07,7.5,16,108.45,18.16,136.32"/><path class="cls-3" d="M262.39,358.24c-3.21-36.44-4.72-130.67-4.72-146,0-18.21-3.22-68.58-5.36-104-.88-14.45-4.41-53.66-7.5-66.44"/><path class="cls-2" d="M195.49,54.58l-1.11,59.35c0,3,2.87,6.59,3.19,9.45,0,.1,0,1,0,1.14l3.9-10.23s0-44.78.78-60.17v0C201.72,54.34,195.49,54.58,195.49,54.58Z"/><path class="cls-6" d="M221.27,61c11.16-2.1,19.67-5.71,30-9.46-1.07-7.51-2.15-13.94-2.15-13.94C232,47.24,197.65,49.38,197.65,49.38V62.24S213.68,62.41,221.27,61Z"/><path class="cls-7" d="M210.25,55.27a2.78,2.78,0,1,1-2.77-2.6A2.69,2.69,0,0,1,210.25,55.27Z"/><path class="cls-7" d="M227.7,59.36l-2.15.55s0,.77,1.68.72a16.06,16.06,0,0,0,4-.87,2.08,2.08,0,0,0,1.57-2.37l-2.19-11.86a2.61,2.61,0,0,0-3-2l-2,.48a2.52,2.52,0,0,0-2.16,2.13l1.2-.23S227.47,53.94,227.7,59.36Z"/><path class="cls-6" d="M176.52,60.44c-11-2.48-23-4.93-33.52-7.84,1.07-9.65,1.07-13.93,1.07-13.93,14.66,7.22,53.58,10.71,53.58,10.71V62.24A94.5,94.5,0,0,1,176.52,60.44Z"/><path class="cls-7" d="M167.84,58.4l2.18.34s0,.72-1.62.8a17.14,17.14,0,0,1-4.08-.48A1.94,1.94,0,0,1,162.58,57l1.29-11.17a2.61,2.61,0,0,1,2.81-2.14l2,.29a2.43,2.43,0,0,1,2.31,1.8l-1.21-.12S167.67,53.36,167.84,58.4Z"/></svg>