<svg id="圖庫一" xmlns="http://www.w3.org/2000/svg" xmlns:xlink="http://www.w3.org/1999/xlink" viewBox="0 0 400 400"><defs><style>.cls-1,.cls-7,.cls-8{fill:none;}.cls-2{clip-path:url(#clip-path);}.cls-3{fill:#f5f5f5;}.cls-4{fill:#fff;}.cls-10,.cls-4,.cls-5,.cls-6,.cls-7,.cls-8,.cls-9{stroke:#999;stroke-linejoin:round;}.cls-10,.cls-4,.cls-5,.cls-7,.cls-9{stroke-linecap:round;}.cls-5{fill:#bfbfbf;}.cls-6{fill:#c4c4c4;}.cls-7{stroke-dasharray:3 5;}.cls-9{fill:#dbdbdb;}.cls-10{fill:#e6e6e6;}</style><clipPath id="clip-path"><rect id="遮色片" class="cls-1" width="400" height="400"/></clipPath></defs><title>product3.4</title><g class="cls-2"><rect id="背景" class="cls-3" width="400" height="400"/><path class="cls-4" d="M150.5,362.24s1,5,9,4c17.66-2.21-.89,1.94,23-4-2-6-2-7-1-11-3-4-7-10-8-16-1.28-7.71-2-9-4-18a81.94,81.94,0,0,1-17.05.77c-1.95,5.23,1.46,13.86,1.05,19.23C152.5,350.24,148.31,349.79,150.5,362.24Z"/><path class="cls-5" d="M153.5,340.24c-6,10-2,46-2,46l20-1v-14s5,3,8,5c2.36,1.57,1.41-12.38,0-18C171.5,355.24,157.53,333.52,153.5,340.24Z"/><path class="cls-4" d="M181.5,360.24s1,5,9,4c17.66-2.21,18.11,12.94,42,7,1.37-5.57,1-7.68-4-11-9-6-7.58-5.3-14-13-5-6-7.55-11.22-5.33-32-10.64-.94-10.67-.14-17.72-2.19a83.88,83.88,0,0,0-3.95,19.23C186.5,345.24,179.31,347.79,181.5,360.24Z"/><path class="cls-5" d="M231.5,374.24s10.21-2.14,9-6c-1.88-6-11.24-9-9-6,3,4-10.88,2.51-14,2-6-1-14-6-17-8-7.49-5-17-11-17-11s-2.22,2.43-3.56,12.86a141.32,141.32,0,0,0-.31,26.14,66.83,66.83,0,0,0,6.87,1c5,0,7-1,10-2,3.21-1.08,1-9,1-14,0-1.42,11.4,1.24,16,4C218.5,376.24,222.49,377.46,231.5,374.24Z"/><path class="cls-6" d="M168.5,12.24l-7-1s-34,28-31,61c3.35,36.84,10,133,10.44,132.92-.44,5.08-5.87,12.08-4.87,35.08,0,21,6.27,40.76,9,52.5,3,12.5,1.85,20.5,3,26.5,0,0,13,0,22-2,0,0-6-80,0-98,2.79-8.39,12.3-117.35,16-117C194.1,68.89,169.94,27.7,168.5,12.24Z"/><path class="cls-7" d="M177.07,125.24s-3.62,11.11-3.88,12c-3.46,12.84-4.71,60.21-7.12,76-4.58,29.76-2.08,4.84-4,34-1.68,25.38,5,71,5,71"/><path class="cls-6" d="M190.07,313.24l21,4c3.77-20.93,20-86,23-108,3-41-18-181-18-181l-47.57-16s-1.66,1.66-9,13c-9.58,14.8-17,28-7,55,11,29.68,37,34,49.57,128C189.07,245.24,190.07,313.24,190.07,313.24Z"/><path class="cls-8" d="M210.07,19.24c-1.61,8.88-1.75,32.05-1,37,5,33,14.58,106.36,18,136,3,26-22,124-22,124"/><polygon class="cls-9" points="161.08 23.3 168.5 12.23 213.08 16.32 216.09 29.41 161.08 23.3"/><polygon class="cls-9" points="150.5 22.23 161.5 11.23 168.5 12.23 161.17 23.19 150.5 22.23"/><path class="cls-10" d="M187.48,26.18l2,.37s0,.7-1.53.76a15.31,15.31,0,0,1-3.82-.53,1.91,1.91,0,0,1-1.61-2.07l1.29-11a2.43,2.43,0,0,1,2.64-2.06l1.87.31a2.35,2.35,0,0,1,2.15,1.8l-1.13-.13S187.35,21.2,187.48,26.18Z"/><path class="cls-4" d="M212.5.24a95.87,95.87,0,0,0,2,24l-53-13A22.3,22.3,0,0,0,163.88.13"/></g></svg>