<svg id="圖庫一" xmlns="http://www.w3.org/2000/svg" viewBox="0 0 400 400"><defs><style>.cls-1{fill:#f5f5f5;}.cls-2{fill:#fff;}.cls-2,.cls-3,.cls-4,.cls-5,.cls-6,.cls-7,.cls-8{stroke:#999;}.cls-2,.cls-3,.cls-5,.cls-7,.cls-8{stroke-linecap:round;}.cls-2,.cls-3,.cls-4,.cls-5,.cls-7,.cls-8{stroke-linejoin:round;}.cls-3,.cls-6{fill:#bfbfbf;}.cls-4{fill:#c4c4c4;}.cls-5{fill:none;stroke-dasharray:3 5;}.cls-6{stroke-miterlimit:10;}.cls-7{fill:#dbdbdb;}.cls-8{fill:#e6e6e6;}</style></defs><title>product3.2</title><polyline id="背景" class="cls-1" points="217.85 0 400 0 400 400 0 400 0 0 166.87 0"/><path class="cls-2" d="M235.69.24s4.4,5,4.4,14L152,23.16,158.09.24"/><path class="cls-3" d="M155.52,359.5l-.05,12,8.42,1.05L164,355.7S161.81,351.78,155.52,359.5Z"/><path class="cls-2" d="M159.05,349.63s-4.43,6.12-10.82,14.68c-10.65,14.26-4.47,29.95-27.19,20.45.82-11.54-.2-7.24,3.29-12.12,6.39-8.95,8-16,10.59-25.73,1.81-6.8,5.48-14.59,6.45-35.51,10.66.68,10.56,1.48,17.84.53,2.59,4.44-.19,14,1.37,18.8C164.14,341.54,163.1,337.66,159.05,349.63Z"/><path class="cls-3" d="M121.23,388.64s-3.17-6.58-1.39-10.21c2.78-5.68,3.84-6.43,6-3.35,4.55,6.68,11.48,3.45,12.59,1.37,2.54-4.78,6.87-10,13.12-19.65,4.45-6.87,8.1-5.94,9.87-15.53,1.51-8.23.21-8.41.21-8.41s6.23,3.31,6,13.83l-.61,24.18-3,1.7s.19-13.84.23-15.45c.12-4.49-4.44-2.7-9.27,3.23a47.11,47.11,0,0,0-6.18,10.14c-3,6.61-3,10.36-4.23,15.59C142.87,393,129.65,393.19,121.23,388.64Z"/><path class="cls-2" d="M245.23,336.5c0,17.8-2.1,45.23-26.29,31.55-4.58-2.58,1.88-17.58,4.21-27.34a168.29,168.29,0,0,0,5.26-40c10.67.41,9.57,1.14,16.82,0C247.94,305.11,245.23,326,245.23,336.5Z"/><path class="cls-3" d="M248.39,347c-1,12.62-2.6,24.3-5.26,26.29-8.41,6.31-20,4.21-26.29-1.05,0,0-4.21-8.41,0-11.57,4.2,8.42,16.82,7.36,23.14,4.21S246.29,326,246.29,326,249.44,334.4,248.39,347Z"/><path class="cls-4" d="M182.8,19.18a59.51,59.51,0,0,1-28.44-4s-14,40.76-9.8,73.1.44,86.44.79,101.56-6.58,96.71-7.36,129.74a100.19,100.19,0,0,1,23.11,1.33s15.33-72.48,15.21-88.42,11.07-112.85,19.44-132.67Z"/><path class="cls-5" d="M189.14,94.55s-3.33,9.81-3.58,10.74a355.7,355.7,0,0,0-8.16,40.51c-4.58,29.77-6.19,48.24-8.11,77.39-1.67,25.38-16.57,94.73-16.57,94.73"/><path class="cls-4" d="M188.5,19.06s33.13-3.86,49.14-13.7c0,0,21.9,39.5,21,71.7s-13.07,100.29-7.45,114.21c12.23,30.24.67,78.88-5,109.51,0,0-10.55,6.58-19.1.46,0,0-3.52-94.35-5.23-103s-22.42-98.75-26.11-98.41C187.71,66.47,187.06,34.52,188.5,19.06Z"/><path class="cls-4" d="M243.05,301.9c6.26-50.63,11.91-81.26-.44-116.76-5.09-14.63,6.56-85.35,4.64-125.29-.79-16.41-12.6-34.35-16.81-47"/><path class="cls-6" d="M182.61,30.49c2.86,26.47,10.15,79.28,15.13,69.32,0,0-7.49-54.19-7.72-70.3Z"/><path class="cls-7" d="M176.83,31.13c-11.09-1-15.4-.95-25.74-3.92,1.76-7.93,3.2-13,3.2-13,15.57,5.94,46.91,1.69,46.91,1.69L189.77,32.12S187.78,32.12,176.83,31.13Z"/><path class="cls-7" d="M213.31,28.4C224,25.34,233.45,20.64,243.18,16c-3-7.55-5.26-12.29-5.26-12.29-11.64,11.33-42,11.9-48.39,13.18-.83.16-1.13.28-1.06,1.07l1.3,14.12c1,0,4.08.08,5,0A110.19,110.19,0,0,0,213.31,28.4Z"/><path class="cls-8" d="M198.87,23.88a2.73,2.73,0,1,1-3-2.29A2.64,2.64,0,0,1,198.87,23.88Z"/><path class="cls-8" d="M222.53,25.65l-2.05.72s.12.73,1.71.54a16.24,16.24,0,0,0,3.86-1.2,2,2,0,0,0,1.32-2.41l-3.18-11.16a2.56,2.56,0,0,0-3.09-1.69l-1.87.64a2.43,2.43,0,0,0-1.92,2.23l1.15-.33S221.83,20.48,222.53,25.65Z"/><path class="cls-8" d="M160.68,29.51l2.09.59s-.07.74-1.67.65a16.52,16.52,0,0,1-3.93-1,2,2,0,0,1-1.47-2.32l2.49-11.34a2.56,2.56,0,0,1,3-1.88l1.91.52a2.47,2.47,0,0,1,2.06,2.11L164,16.62S161.06,24.31,160.68,29.51Z"/></svg>