<svg id="圖庫一" xmlns="http://www.w3.org/2000/svg" xmlns:xlink="http://www.w3.org/1999/xlink" viewBox="0 0 400 400"><defs><style>.cls-1{fill:none;}.cls-2{fill:#f5f5f5;}.cls-3{clip-path:url(#clip-path);}.cls-4{fill:#fff;}.cls-4,.cls-5,.cls-6,.cls-7,.cls-8{stroke:#999;stroke-linejoin:round;}.cls-4,.cls-5,.cls-7,.cls-8{stroke-linecap:round;}.cls-5{fill:#bfbfbf;}.cls-6{fill:#c4c4c4;}.cls-7{fill:#dbdbdb;}.cls-8{fill:#e6e6e6;}</style><clipPath id="clip-path"><polyline id="遮色片" class="cls-1" points="400 0 400 400 0 400 0 0"/></clipPath></defs><title>product3.3</title><polyline id="背景" class="cls-2" points="400 0 400 400 0 400 0 0"/><g class="cls-3"><path class="cls-4" d="M238.5.24s-2,9.42-3.29,16.58L176.47,18l1-17.8"/><path class="cls-4" d="M228.21,359.07s10.29,2.77,18.4,8.29c13.53,9.2,10.49,18.8,29.5,11.79-2.83-9.26,0-8.66-3.21-10.52-8.66-5.09-10.21-12.74-14.55-20.07-3.05-5.15-11-15.44-15.55-32.32-11.1,1.61-8.27,2.09-16,3,0,5.58-1.25,9.28-2.82,13.46C220.73,341.31,221.94,350.22,228.21,359.07Z"/><path class="cls-5" d="M228,368l3.47,11,5.41-3.13-4.1-13.73S225.62,359.75,228,368Z"/><path class="cls-5" d="M280.13,378.24a6.55,6.55,0,0,0-1.56-5.92c-3.87-4-8.61-8.77-10.27-5.76-3.59,6.52-3.94,10.92-4.7,11.88-3.22,4.07-10.59-12.26-18.76-18.71-5.8-4.59-16.28-5.06-19.76-12.49-3-6.38-.8-16.78-.8-16.78s-8.12,15-7.4,21.22c1.22,10.32,7.33,12.32,7.74,13.91,3.11,12.06,3.12,13.63,3.12,13.63l3.72-.23s-3.08-12.49-3.4-13.8c-1.3-5.26,10.58-2.12,19.16,7.33C257.23,383.55,266.21,388.15,280.13,378.24Z"/><path class="cls-5" d="M136,367.87l.3,13.31,7.92-6.16-.88-7.92S135.23,359.36,136,367.87Z"/><path class="cls-4" d="M135.23,359.35s9.61,5.07,16.45,12.38c11.4,12.18,4.5,25.54,29.31,17.49-.75-9.84.31-6.17-3.43-10.34-6.83-7.65-7.3-15-10-23.24-1.88-5.81-7-20.57-7.77-38.4-11.6.55-7.21,1-16,1-1,6-4.37,10.12-6.88,13.93C131.77,340,131,349.14,135.23,359.35Z"/><path class="cls-5" d="M182.61,390.06a6.71,6.71,0,0,0-.24-6.24c-3-4.84-6.6-10.66-8.92-8-5,5.69-6.37,10-7.34,10.77-4.12,3.34-7.79-14.57-14.48-22.82-4.75-5.86-15.06-8.68-16.87-16.86-1.55-7,4.75-19.92,4.75-19.92s-13.24,16.2-13.9,22.51c-1.1,10.54,1.89,13.9,1.94,15.57.4,12.7.2,15.11.2,15.11l8.55,1s.07-14.4,0-15.78c-.1-5.51,8.37.27,14.79,11.59C158.62,390.21,166.53,396.8,182.61,390.06Z"/><path class="cls-6" d="M246.36,315.18a53.19,53.19,0,0,1-23.88,4.35c-4.14-25.3-13.42-43.86-17.11-72.42-4.84-37.41,8.24-48.06,3.66-72.21L197,85.73l37.28-55.84s4.14,143,5.59,151-3.17,33.35-2.89,38.36C237.65,231.24,239.51,300.49,246.36,315.18Z"/><path class="cls-6" d="M218.5,124.24c1.8,30.79,7.22,118.69,8.42,130.72,2.28,23,9.88,63.28,9.88,63.28"/><path class="cls-6" d="M140.09,317.61c9.31,1.09,17.67,1.11,23.67-1.54,4.73-20.73,35.35-104.52,45.74-119.83,18-32,25.59-177,25.59-177l-57-9s-.44,8.36-8.29,19.35C159.55,43.93,153,49.11,151.5,76.24c-1,18.08,23.71,91.84,13.68,109.91C146.88,219.08,140.09,317.61,140.09,317.61Z"/><path class="cls-6" d="M197.34,13.91c-2,8.8-6.7,23.78-10.55,49.66-4.54,30.53,12.51,99.5.47,127.6-8,18.67-40.46,127.07-40.46,127.07"/><path class="cls-7" d="M208,28.3c-9.2-1-23.05-4-33-6.37,1.35-7.63,2.67-12.46,2.67-12.46,16.59,4.23,57.61,7.38,57.61,7.38L234.19,30.2S216.56,29.21,208,28.3Z"/><path class="cls-8" d="M188.33,24.82l2,.45s0,.71-1.56.7a15.06,15.06,0,0,1-3.79-.71,1.91,1.91,0,0,1-1.52-2.14l1.79-10.93A2.45,2.45,0,0,1,188,10.25l1.85.4a2.34,2.34,0,0,1,2.06,1.9l-1.12-.18S188.43,19.84,188.33,24.82Z"/></g></svg>