<svg width="1024" height="1024" viewBox="0 0 1024 1024" fill="none" xmlns="http://www.w3.org/2000/svg">
<path d="M880.251 924C904.164 924 923.501 904.663 923.501 880.75V144.75C923.501 120.837 904.164 101.5 880.251 101.5H144.251C120.338 101.5 101.001 120.837 101.001 144.75V504.75C101.001 515.363 109.637 524 120.251 524H176.251C186.864 524 195.501 515.363 195.501 504.75V327.005H829.001V829.5H520.251C509.637 829.5 501.001 838.137 501.001 848.75V904.75C501.001 915.363 509.637 924 520.251 924H880.251Z" fill="black"/>
<path d="M522.352 523.24C523.787 510.8 513.234 500.499 501.024 501.932L321.601 522.935L321.578 522.937C305.719 524.86 298.993 544.262 310.306 555.576L354.59 599.859L106.406 848.236L106.403 848.239C98.9323 855.714 98.9333 867.903 106.406 875.375L148.806 917.775C156.28 925.249 168.472 925.249 175.945 917.775L424.226 669.495L468.706 713.976C480.019 725.289 499.422 718.562 501.344 702.704L501.347 702.681L522.352 523.24Z" fill="black"/>
</svg>
